ISO-10303-21;
HEADER;
/* Generated by software containing ST-Developer
 * from STEP Tools, Inc. (www.steptools.com) 
 */

FILE_DESCRIPTION(
/* description */ (''),
/* implementation_level */ '2;1');

FILE_NAME(
/* name */ 'Claw Base B x1.step',
/* time_stamp */ '2026-06-20T16:44:00-05:00',
/* author */ (''),
/* organization */ (''),
/* preprocessor_version */ 'ST-DEVELOPER v20.1',
/* originating_system */ 'Autodesk Translation Framework v15.8.0.0',
/* authorisation */ '');

FILE_SCHEMA (('AUTOMOTIVE_DESIGN { 1 0 10303 214 3 1 1 }'));
ENDSEC;

DATA;
#10=MECHANICAL_DESIGN_GEOMETRIC_PRESENTATION_REPRESENTATION('',(#13),#1568);
#11=SHAPE_REPRESENTATION_RELATIONSHIP('SRR','None',#1575,#12);
#12=ADVANCED_BREP_SHAPE_REPRESENTATION('',(#14),#1567);
#13=STYLED_ITEM('',(#1584),#14);
#14=MANIFOLD_SOLID_BREP('Body1',#906);
#15=FACE_BOUND('',#160,.T.);
#16=FACE_BOUND('',#161,.T.);
#17=FACE_BOUND('',#162,.T.);
#18=FACE_BOUND('',#163,.T.);
#19=FACE_BOUND('',#166,.T.);
#20=FACE_BOUND('',#167,.T.);
#21=FACE_BOUND('',#168,.T.);
#22=FACE_BOUND('',#169,.T.);
#23=FACE_BOUND('',#170,.T.);
#24=FACE_BOUND('',#171,.T.);
#25=FACE_BOUND('',#172,.T.);
#26=FACE_BOUND('',#173,.T.);
#27=FACE_BOUND('',#174,.T.);
#28=FACE_BOUND('',#175,.T.);
#29=FACE_BOUND('',#179,.T.);
#30=CONICAL_SURFACE('',#945,9.50000000000002,0.785398163397451);
#31=CONICAL_SURFACE('',#949,9.50000000000002,0.785398163397449);
#32=CONICAL_SURFACE('',#953,9.50000000000004,0.785398163397452);
#33=CONICAL_SURFACE('',#957,9.49999999999999,0.785398163397449);
#34=CONICAL_SURFACE('',#961,9.50000000000001,0.785398163397448);
#35=CONICAL_SURFACE('',#965,9.50000000000025,0.785398163397451);
#36=CONICAL_SURFACE('',#982,6.50000008940697,0.785398163397448);
#37=CONICAL_SURFACE('',#997,4.1,0.785398163397448);
#38=CONICAL_SURFACE('',#1003,9.50000000000004,0.78539816339745);
#39=CONICAL_SURFACE('',#1005,9.49999999999999,0.785398163397447);
#40=CONICAL_SURFACE('',#1008,9.50000000000001,0.785398163397447);
#41=CONICAL_SURFACE('',#1011,9.50000000000025,0.785398163397449);
#42=CONICAL_SURFACE('',#1014,9.50000000000002,0.785398163397448);
#43=CONICAL_SURFACE('',#1016,9.50000000000002,0.785398163397447);
#44=PLANE('',#923);
#45=PLANE('',#927);
#46=PLANE('',#931);
#47=PLANE('',#935);
#48=PLANE('',#939);
#49=PLANE('',#943);
#50=PLANE('',#944);
#51=PLANE('',#948);
#52=PLANE('',#952);
#53=PLANE('',#956);
#54=PLANE('',#960);
#55=PLANE('',#964);
#56=PLANE('',#970);
#57=PLANE('',#973);
#58=PLANE('',#976);
#59=PLANE('',#977);
#60=PLANE('',#985);
#61=PLANE('',#1000);
#62=PLANE('',#1002);
#63=PLANE('',#1004);
#64=PLANE('',#1007);
#65=PLANE('',#1010);
#66=PLANE('',#1013);
#67=PLANE('',#1015);
#68=PLANE('',#1018);
#69=PLANE('',#1020);
#70=PLANE('',#1024);
#71=FACE_OUTER_BOUND('',#129,.T.);
#72=FACE_OUTER_BOUND('',#130,.T.);
#73=FACE_OUTER_BOUND('',#131,.T.);
#74=FACE_OUTER_BOUND('',#132,.T.);
#75=FACE_OUTER_BOUND('',#133,.T.);
#76=FACE_OUTER_BOUND('',#134,.T.);
#77=FACE_OUTER_BOUND('',#135,.T.);
#78=FACE_OUTER_BOUND('',#136,.T.);
#79=FACE_OUTER_BOUND('',#137,.T.);
#80=FACE_OUTER_BOUND('',#138,.T.);
#81=FACE_OUTER_BOUND('',#139,.T.);
#82=FACE_OUTER_BOUND('',#140,.T.);
#83=FACE_OUTER_BOUND('',#141,.T.);
#84=FACE_OUTER_BOUND('',#142,.T.);
#85=FACE_OUTER_BOUND('',#143,.T.);
#86=FACE_OUTER_BOUND('',#144,.T.);
#87=FACE_OUTER_BOUND('',#145,.T.);
#88=FACE_OUTER_BOUND('',#146,.T.);
#89=FACE_OUTER_BOUND('',#147,.T.);
#90=FACE_OUTER_BOUND('',#148,.T.);
#91=FACE_OUTER_BOUND('',#149,.T.);
#92=FACE_OUTER_BOUND('',#150,.T.);
#93=FACE_OUTER_BOUND('',#151,.T.);
#94=FACE_OUTER_BOUND('',#152,.T.);
#95=FACE_OUTER_BOUND('',#153,.T.);
#96=FACE_OUTER_BOUND('',#154,.T.);
#97=FACE_OUTER_BOUND('',#155,.T.);
#98=FACE_OUTER_BOUND('',#156,.T.);
#99=FACE_OUTER_BOUND('',#157,.T.);
#100=FACE_OUTER_BOUND('',#158,.T.);
#101=FACE_OUTER_BOUND('',#159,.T.);
#102=FACE_OUTER_BOUND('',#164,.T.);
#103=FACE_OUTER_BOUND('',#165,.T.);
#104=FACE_OUTER_BOUND('',#176,.T.);
#105=FACE_OUTER_BOUND('',#177,.T.);
#106=FACE_OUTER_BOUND('',#178,.T.);
#107=FACE_OUTER_BOUND('',#180,.T.);
#108=FACE_OUTER_BOUND('',#181,.T.);
#109=FACE_OUTER_BOUND('',#182,.T.);
#110=FACE_OUTER_BOUND('',#183,.T.);
#111=FACE_OUTER_BOUND('',#184,.T.);
#112=FACE_OUTER_BOUND('',#185,.T.);
#113=FACE_OUTER_BOUND('',#186,.T.);
#114=FACE_OUTER_BOUND('',#187,.T.);
#115=FACE_OUTER_BOUND('',#188,.T.);
#116=FACE_OUTER_BOUND('',#189,.T.);
#117=FACE_OUTER_BOUND('',#190,.T.);
#118=FACE_OUTER_BOUND('',#191,.T.);
#119=FACE_OUTER_BOUND('',#192,.T.);
#120=FACE_OUTER_BOUND('',#193,.T.);
#121=FACE_OUTER_BOUND('',#194,.T.);
#122=FACE_OUTER_BOUND('',#195,.T.);
#123=FACE_OUTER_BOUND('',#196,.T.);
#124=FACE_OUTER_BOUND('',#197,.T.);
#125=FACE_OUTER_BOUND('',#198,.T.);
#126=FACE_OUTER_BOUND('',#199,.T.);
#127=FACE_OUTER_BOUND('',#200,.T.);
#128=FACE_OUTER_BOUND('',#201,.T.);
#129=EDGE_LOOP('',(#589,#590,#591,#592));
#130=EDGE_LOOP('',(#593));
#131=EDGE_LOOP('',(#594,#595,#596,#597));
#132=EDGE_LOOP('',(#598));
#133=EDGE_LOOP('',(#599,#600,#601,#602));
#134=EDGE_LOOP('',(#603));
#135=EDGE_LOOP('',(#604,#605,#606,#607));
#136=EDGE_LOOP('',(#608));
#137=EDGE_LOOP('',(#609,#610,#611,#612));
#138=EDGE_LOOP('',(#613));
#139=EDGE_LOOP('',(#614,#615,#616,#617));
#140=EDGE_LOOP('',(#618));
#141=EDGE_LOOP('',(#619,#620,#621,#622));
#142=EDGE_LOOP('',(#623,#624,#625,#626));
#143=EDGE_LOOP('',(#627,#628,#629,#630));
#144=EDGE_LOOP('',(#631,#632,#633,#634));
#145=EDGE_LOOP('',(#635,#636,#637,#638));
#146=EDGE_LOOP('',(#639,#640,#641,#642));
#147=EDGE_LOOP('',(#643,#644,#645,#646));
#148=EDGE_LOOP('',(#647,#648,#649,#650));
#149=EDGE_LOOP('',(#651,#652,#653,#654));
#150=EDGE_LOOP('',(#655,#656,#657,#658));
#151=EDGE_LOOP('',(#659,#660,#661,#662));
#152=EDGE_LOOP('',(#663,#664,#665,#666));
#153=EDGE_LOOP('',(#667,#668,#669,#670));
#154=EDGE_LOOP('',(#671,#672,#673,#674));
#155=EDGE_LOOP('',(#675,#676,#677,#678));
#156=EDGE_LOOP('',(#679,#680,#681,#682));
#157=EDGE_LOOP('',(#683,#684,#685,#686));
#158=EDGE_LOOP('',(#687,#688,#689,#690));
#159=EDGE_LOOP('',(#691,#692,#693,#694,#695,#696,#697,#698,#699,#700,#701,
#702));
#160=EDGE_LOOP('',(#703));
#161=EDGE_LOOP('',(#704));
#162=EDGE_LOOP('',(#705));
#163=EDGE_LOOP('',(#706));
#164=EDGE_LOOP('',(#707,#708,#709,#710));
#165=EDGE_LOOP('',(#711,#712,#713,#714,#715,#716,#717,#718,#719,#720,#721,
#722));
#166=EDGE_LOOP('',(#723));
#167=EDGE_LOOP('',(#724));
#168=EDGE_LOOP('',(#725));
#169=EDGE_LOOP('',(#726));
#170=EDGE_LOOP('',(#727));
#171=EDGE_LOOP('',(#728));
#172=EDGE_LOOP('',(#729));
#173=EDGE_LOOP('',(#730));
#174=EDGE_LOOP('',(#731));
#175=EDGE_LOOP('',(#732));
#176=EDGE_LOOP('',(#733,#734,#735,#736));
#177=EDGE_LOOP('',(#737,#738,#739,#740));
#178=EDGE_LOOP('',(#741));
#179=EDGE_LOOP('',(#742));
#180=EDGE_LOOP('',(#743,#744,#745,#746));
#181=EDGE_LOOP('',(#747,#748,#749,#750));
#182=EDGE_LOOP('',(#751,#752,#753,#754));
#183=EDGE_LOOP('',(#755,#756,#757,#758));
#184=EDGE_LOOP('',(#759,#760,#761,#762));
#185=EDGE_LOOP('',(#763,#764,#765,#766));
#186=EDGE_LOOP('',(#767,#768,#769,#770));
#187=EDGE_LOOP('',(#771,#772,#773,#774));
#188=EDGE_LOOP('',(#775,#776,#777,#778));
#189=EDGE_LOOP('',(#779,#780,#781,#782));
#190=EDGE_LOOP('',(#783,#784,#785,#786));
#191=EDGE_LOOP('',(#787,#788,#789,#790));
#192=EDGE_LOOP('',(#791,#792,#793,#794));
#193=EDGE_LOOP('',(#795,#796,#797,#798));
#194=EDGE_LOOP('',(#799,#800,#801,#802));
#195=EDGE_LOOP('',(#803,#804,#805,#806));
#196=EDGE_LOOP('',(#807,#808,#809,#810));
#197=EDGE_LOOP('',(#811,#812,#813,#814));
#198=EDGE_LOOP('',(#815,#816,#817,#818));
#199=EDGE_LOOP('',(#819,#820,#821,#822));
#200=EDGE_LOOP('',(#823,#824,#825,#826));
#201=EDGE_LOOP('',(#827,#828,#829,#830));
#202=LINE('',#1318,#275);
#203=LINE('',#1325,#276);
#204=LINE('',#1332,#277);
#205=LINE('',#1339,#278);
#206=LINE('',#1346,#279);
#207=LINE('',#1353,#280);
#208=LINE('',#1359,#281);
#209=LINE('',#1361,#282);
#210=LINE('',#1363,#283);
#211=LINE('',#1364,#284);
#212=LINE('',#1368,#285);
#213=LINE('',#1374,#286);
#214=LINE('',#1375,#287);
#215=LINE('',#1376,#288);
#216=LINE('',#1380,#289);
#217=LINE('',#1386,#290);
#218=LINE('',#1387,#291);
#219=LINE('',#1388,#292);
#220=LINE('',#1392,#293);
#221=LINE('',#1398,#294);
#222=LINE('',#1399,#295);
#223=LINE('',#1400,#296);
#224=LINE('',#1404,#297);
#225=LINE('',#1410,#298);
#226=LINE('',#1411,#299);
#227=LINE('',#1412,#300);
#228=LINE('',#1416,#301);
#229=LINE('',#1422,#302);
#230=LINE('',#1423,#303);
#231=LINE('',#1424,#304);
#232=LINE('',#1430,#305);
#233=LINE('',#1433,#306);
#234=LINE('',#1436,#307);
#235=LINE('',#1437,#308);
#236=LINE('',#1440,#309);
#237=LINE('',#1444,#310);
#238=LINE('',#1445,#311);
#239=LINE('',#1448,#312);
#240=LINE('',#1452,#313);
#241=LINE('',#1453,#314);
#242=LINE('',#1467,#315);
#243=LINE('',#1472,#316);
#244=LINE('',#1476,#317);
#245=LINE('',#1480,#318);
#246=LINE('',#1484,#319);
#247=LINE('',#1488,#320);
#248=LINE('',#1492,#321);
#249=LINE('',#1502,#322);
#250=LINE('',#1508,#323);
#251=LINE('',#1512,#324);
#252=LINE('',#1514,#325);
#253=LINE('',#1515,#326);
#254=LINE('',#1517,#327);
#255=LINE('',#1520,#328);
#256=LINE('',#1521,#329);
#257=LINE('',#1524,#330);
#258=LINE('',#1528,#331);
#259=LINE('',#1529,#332);
#260=LINE('',#1532,#333);
#261=LINE('',#1536,#334);
#262=LINE('',#1537,#335);
#263=LINE('',#1539,#336);
#264=LINE('',#1542,#337);
#265=LINE('',#1544,#338);
#266=LINE('',#1546,#339);
#267=LINE('',#1549,#340);
#268=LINE('',#1551,#341);
#269=LINE('',#1553,#342);
#270=LINE('',#1555,#343);
#271=LINE('',#1557,#344);
#272=LINE('',#1559,#345);
#273=LINE('',#1561,#346);
#274=LINE('',#1563,#347);
#275=VECTOR('',#1032,0.583333333333322);
#276=VECTOR('',#1041,0.583333333333331);
#277=VECTOR('',#1050,0.583333333333322);
#278=VECTOR('',#1059,0.583333333333325);
#279=VECTOR('',#1068,0.583333333333329);
#280=VECTOR('',#1077,0.583333333333325);
#281=VECTOR('',#1084,10.);
#282=VECTOR('',#1085,10.);
#283=VECTOR('',#1086,10.);
#284=VECTOR('',#1087,10.);
#285=VECTOR('',#1090,10.);
#286=VECTOR('',#1097,10.);
#287=VECTOR('',#1098,10.);
#288=VECTOR('',#1099,10.);
#289=VECTOR('',#1102,10.);
#290=VECTOR('',#1109,10.);
#291=VECTOR('',#1110,10.);
#292=VECTOR('',#1111,10.);
#293=VECTOR('',#1114,10.);
#294=VECTOR('',#1121,10.);
#295=VECTOR('',#1122,10.);
#296=VECTOR('',#1123,10.);
#297=VECTOR('',#1126,10.);
#298=VECTOR('',#1133,10.);
#299=VECTOR('',#1134,10.);
#300=VECTOR('',#1135,10.);
#301=VECTOR('',#1138,10.);
#302=VECTOR('',#1145,10.);
#303=VECTOR('',#1146,10.);
#304=VECTOR('',#1147,10.);
#305=VECTOR('',#1156,10.);
#306=VECTOR('',#1159,10.);
#307=VECTOR('',#1162,10.);
#308=VECTOR('',#1163,10.);
#309=VECTOR('',#1166,10.);
#310=VECTOR('',#1171,10.);
#311=VECTOR('',#1172,10.);
#312=VECTOR('',#1175,10.);
#313=VECTOR('',#1180,10.);
#314=VECTOR('',#1181,10.);
#315=VECTOR('',#1196,6.50000008940697);
#316=VECTOR('',#1201,10.);
#317=VECTOR('',#1204,10.);
#318=VECTOR('',#1207,10.);
#319=VECTOR('',#1210,10.);
#320=VECTOR('',#1213,10.);
#321=VECTOR('',#1216,10.);
#322=VECTOR('',#1227,6.00000008940697);
#323=VECTOR('',#1234,4.1);
#324=VECTOR('',#1241,3.6);
#325=VECTOR('',#1244,10.);
#326=VECTOR('',#1245,10.);
#327=VECTOR('',#1248,10.);
#328=VECTOR('',#1251,10.);
#329=VECTOR('',#1252,10.);
#330=VECTOR('',#1255,10.);
#331=VECTOR('',#1260,10.);
#332=VECTOR('',#1261,10.);
#333=VECTOR('',#1264,10.);
#334=VECTOR('',#1269,10.);
#335=VECTOR('',#1270,10.);
#336=VECTOR('',#1273,10.);
#337=VECTOR('',#1278,10.);
#338=VECTOR('',#1281,10.);
#339=VECTOR('',#1284,10.);
#340=VECTOR('',#1289,10.);
#341=VECTOR('',#1292,10.);
#342=VECTOR('',#1295,10.);
#343=VECTOR('',#1298,10.);
#344=VECTOR('',#1301,2.);
#345=VECTOR('',#1304,2.);
#346=VECTOR('',#1307,2.);
#347=VECTOR('',#1310,10.);
#348=CIRCLE('',#921,0.583333333333322);
#349=CIRCLE('',#922,0.583333333333322);
#350=CIRCLE('',#925,0.583333333333331);
#351=CIRCLE('',#926,0.583333333333331);
#352=CIRCLE('',#929,0.583333333333322);
#353=CIRCLE('',#930,0.583333333333322);
#354=CIRCLE('',#933,0.583333333333325);
#355=CIRCLE('',#934,0.583333333333325);
#356=CIRCLE('',#937,0.583333333333329);
#357=CIRCLE('',#938,0.583333333333329);
#358=CIRCLE('',#941,0.583333333333325);
#359=CIRCLE('',#942,0.583333333333325);
#360=CIRCLE('',#946,9.00000000000002);
#361=CIRCLE('',#947,10.);
#362=CIRCLE('',#950,9.00000000000002);
#363=CIRCLE('',#951,10.);
#364=CIRCLE('',#954,9.00000000000004);
#365=CIRCLE('',#955,10.);
#366=CIRCLE('',#958,8.99999999999999);
#367=CIRCLE('',#959,9.99999999999999);
#368=CIRCLE('',#962,9.00000000000001);
#369=CIRCLE('',#963,10.);
#370=CIRCLE('',#966,9.00000000000025);
#371=CIRCLE('',#967,10.0000000000003);
#372=CIRCLE('',#969,10.);
#373=CIRCLE('',#972,10.);
#374=CIRCLE('',#975,10.);
#375=CIRCLE('',#978,2.);
#376=CIRCLE('',#979,2.);
#377=CIRCLE('',#980,3.6);
#378=CIRCLE('',#981,2.);
#379=CIRCLE('',#983,7.00000008940697);
#380=CIRCLE('',#984,6.00000008940697);
#381=CIRCLE('',#986,9.00000000000002);
#382=CIRCLE('',#987,9.00000000000002);
#383=CIRCLE('',#988,9.00000000000025);
#384=CIRCLE('',#989,9.00000000000001);
#385=CIRCLE('',#990,8.99999999999999);
#386=CIRCLE('',#991,9.00000000000004);
#387=CIRCLE('',#992,2.);
#388=CIRCLE('',#993,2.);
#389=CIRCLE('',#994,2.);
#390=CIRCLE('',#996,6.00000008940697);
#391=CIRCLE('',#998,3.6);
#392=CIRCLE('',#999,4.6);
#393=CIRCLE('',#1006,9.99999999999999);
#394=CIRCLE('',#1009,10.);
#395=CIRCLE('',#1012,10.0000000000003);
#396=VERTEX_POINT('',#1315);
#397=VERTEX_POINT('',#1317);
#398=VERTEX_POINT('',#1322);
#399=VERTEX_POINT('',#1324);
#400=VERTEX_POINT('',#1329);
#401=VERTEX_POINT('',#1331);
#402=VERTEX_POINT('',#1336);
#403=VERTEX_POINT('',#1338);
#404=VERTEX_POINT('',#1343);
#405=VERTEX_POINT('',#1345);
#406=VERTEX_POINT('',#1350);
#407=VERTEX_POINT('',#1352);
#408=VERTEX_POINT('',#1357);
#409=VERTEX_POINT('',#1358);
#410=VERTEX_POINT('',#1360);
#411=VERTEX_POINT('',#1362);
#412=VERTEX_POINT('',#1366);
#413=VERTEX_POINT('',#1367);
#414=VERTEX_POINT('',#1372);
#415=VERTEX_POINT('',#1373);
#416=VERTEX_POINT('',#1378);
#417=VERTEX_POINT('',#1379);
#418=VERTEX_POINT('',#1384);
#419=VERTEX_POINT('',#1385);
#420=VERTEX_POINT('',#1390);
#421=VERTEX_POINT('',#1391);
#422=VERTEX_POINT('',#1396);
#423=VERTEX_POINT('',#1397);
#424=VERTEX_POINT('',#1402);
#425=VERTEX_POINT('',#1403);
#426=VERTEX_POINT('',#1408);
#427=VERTEX_POINT('',#1409);
#428=VERTEX_POINT('',#1414);
#429=VERTEX_POINT('',#1415);
#430=VERTEX_POINT('',#1420);
#431=VERTEX_POINT('',#1421);
#432=VERTEX_POINT('',#1429);
#433=VERTEX_POINT('',#1431);
#434=VERTEX_POINT('',#1435);
#435=VERTEX_POINT('',#1439);
#436=VERTEX_POINT('',#1443);
#437=VERTEX_POINT('',#1447);
#438=VERTEX_POINT('',#1451);
#439=VERTEX_POINT('',#1455);
#440=VERTEX_POINT('',#1457);
#441=VERTEX_POINT('',#1459);
#442=VERTEX_POINT('',#1461);
#443=VERTEX_POINT('',#1464);
#444=VERTEX_POINT('',#1466);
#445=VERTEX_POINT('',#1470);
#446=VERTEX_POINT('',#1471);
#447=VERTEX_POINT('',#1473);
#448=VERTEX_POINT('',#1475);
#449=VERTEX_POINT('',#1477);
#450=VERTEX_POINT('',#1479);
#451=VERTEX_POINT('',#1481);
#452=VERTEX_POINT('',#1483);
#453=VERTEX_POINT('',#1485);
#454=VERTEX_POINT('',#1487);
#455=VERTEX_POINT('',#1489);
#456=VERTEX_POINT('',#1491);
#457=VERTEX_POINT('',#1494);
#458=VERTEX_POINT('',#1496);
#459=VERTEX_POINT('',#1498);
#460=VERTEX_POINT('',#1501);
#461=VERTEX_POINT('',#1505);
#462=VERTEX_POINT('',#1507);
#463=VERTEX_POINT('',#1519);
#464=VERTEX_POINT('',#1523);
#465=VERTEX_POINT('',#1527);
#466=VERTEX_POINT('',#1531);
#467=VERTEX_POINT('',#1535);
#468=EDGE_CURVE('',#396,#396,#348,.T.);
#469=EDGE_CURVE('',#396,#397,#202,.T.);
#470=EDGE_CURVE('',#397,#397,#349,.T.);
#471=EDGE_CURVE('',#398,#398,#350,.T.);
#472=EDGE_CURVE('',#398,#399,#203,.T.);
#473=EDGE_CURVE('',#399,#399,#351,.T.);
#474=EDGE_CURVE('',#400,#400,#352,.T.);
#475=EDGE_CURVE('',#400,#401,#204,.T.);
#476=EDGE_CURVE('',#401,#401,#353,.T.);
#477=EDGE_CURVE('',#402,#402,#354,.T.);
#478=EDGE_CURVE('',#402,#403,#205,.T.);
#479=EDGE_CURVE('',#403,#403,#355,.T.);
#480=EDGE_CURVE('',#404,#404,#356,.T.);
#481=EDGE_CURVE('',#404,#405,#206,.T.);
#482=EDGE_CURVE('',#405,#405,#357,.T.);
#483=EDGE_CURVE('',#406,#406,#358,.T.);
#484=EDGE_CURVE('',#406,#407,#207,.T.);
#485=EDGE_CURVE('',#407,#407,#359,.T.);
#486=EDGE_CURVE('',#408,#409,#208,.T.);
#487=EDGE_CURVE('',#409,#410,#209,.T.);
#488=EDGE_CURVE('',#410,#411,#210,.T.);
#489=EDGE_CURVE('',#411,#408,#211,.T.);
#490=EDGE_CURVE('',#412,#413,#212,.T.);
#491=EDGE_CURVE('',#413,#409,#360,.T.);
#492=EDGE_CURVE('',#408,#412,#361,.T.);
#493=EDGE_CURVE('',#414,#415,#213,.T.);
#494=EDGE_CURVE('',#415,#413,#214,.T.);
#495=EDGE_CURVE('',#412,#414,#215,.T.);
#496=EDGE_CURVE('',#416,#417,#216,.T.);
#497=EDGE_CURVE('',#417,#415,#362,.T.);
#498=EDGE_CURVE('',#414,#416,#363,.T.);
#499=EDGE_CURVE('',#418,#419,#217,.T.);
#500=EDGE_CURVE('',#419,#417,#218,.T.);
#501=EDGE_CURVE('',#416,#418,#219,.T.);
#502=EDGE_CURVE('',#420,#421,#220,.T.);
#503=EDGE_CURVE('',#421,#419,#364,.T.);
#504=EDGE_CURVE('',#418,#420,#365,.T.);
#505=EDGE_CURVE('',#422,#423,#221,.T.);
#506=EDGE_CURVE('',#423,#421,#222,.T.);
#507=EDGE_CURVE('',#420,#422,#223,.T.);
#508=EDGE_CURVE('',#424,#425,#224,.T.);
#509=EDGE_CURVE('',#425,#423,#366,.T.);
#510=EDGE_CURVE('',#422,#424,#367,.T.);
#511=EDGE_CURVE('',#426,#427,#225,.T.);
#512=EDGE_CURVE('',#427,#425,#226,.T.);
#513=EDGE_CURVE('',#424,#426,#227,.T.);
#514=EDGE_CURVE('',#428,#429,#228,.T.);
#515=EDGE_CURVE('',#429,#427,#368,.T.);
#516=EDGE_CURVE('',#426,#428,#369,.T.);
#517=EDGE_CURVE('',#430,#431,#229,.T.);
#518=EDGE_CURVE('',#431,#429,#230,.T.);
#519=EDGE_CURVE('',#428,#430,#231,.T.);
#520=EDGE_CURVE('',#410,#431,#370,.T.);
#521=EDGE_CURVE('',#430,#411,#371,.T.);
#522=EDGE_CURVE('',#432,#418,#232,.T.);
#523=EDGE_CURVE('',#433,#432,#372,.T.);
#524=EDGE_CURVE('',#433,#420,#233,.T.);
#525=EDGE_CURVE('',#434,#416,#234,.T.);
#526=EDGE_CURVE('',#432,#434,#235,.T.);
#527=EDGE_CURVE('',#435,#414,#236,.T.);
#528=EDGE_CURVE('',#434,#435,#373,.T.);
#529=EDGE_CURVE('',#436,#412,#237,.T.);
#530=EDGE_CURVE('',#435,#436,#238,.T.);
#531=EDGE_CURVE('',#437,#408,#239,.T.);
#532=EDGE_CURVE('',#436,#437,#374,.T.);
#533=EDGE_CURVE('',#438,#411,#240,.T.);
#534=EDGE_CURVE('',#437,#438,#241,.T.);
#535=EDGE_CURVE('',#439,#439,#375,.T.);
#536=EDGE_CURVE('',#440,#440,#376,.T.);
#537=EDGE_CURVE('',#441,#441,#377,.T.);
#538=EDGE_CURVE('',#442,#442,#378,.T.);
#539=EDGE_CURVE('',#443,#443,#379,.T.);
#540=EDGE_CURVE('',#443,#444,#242,.T.);
#541=EDGE_CURVE('',#444,#444,#380,.T.);
#542=EDGE_CURVE('',#445,#446,#243,.T.);
#543=EDGE_CURVE('',#447,#445,#381,.T.);
#544=EDGE_CURVE('',#448,#447,#244,.T.);
#545=EDGE_CURVE('',#449,#448,#382,.T.);
#546=EDGE_CURVE('',#450,#449,#245,.T.);
#547=EDGE_CURVE('',#451,#450,#383,.T.);
#548=EDGE_CURVE('',#452,#451,#246,.T.);
#549=EDGE_CURVE('',#453,#452,#384,.T.);
#550=EDGE_CURVE('',#454,#453,#247,.T.);
#551=EDGE_CURVE('',#455,#454,#385,.T.);
#552=EDGE_CURVE('',#456,#455,#248,.T.);
#553=EDGE_CURVE('',#446,#456,#386,.T.);
#554=EDGE_CURVE('',#457,#457,#387,.T.);
#555=EDGE_CURVE('',#458,#458,#388,.T.);
#556=EDGE_CURVE('',#459,#459,#389,.T.);
#557=EDGE_CURVE('',#444,#460,#249,.T.);
#558=EDGE_CURVE('',#460,#460,#390,.T.);
#559=EDGE_CURVE('',#461,#461,#391,.T.);
#560=EDGE_CURVE('',#461,#462,#250,.T.);
#561=EDGE_CURVE('',#462,#462,#392,.T.);
#562=EDGE_CURVE('',#441,#461,#251,.T.);
#563=EDGE_CURVE('',#446,#432,#252,.T.);
#564=EDGE_CURVE('',#434,#445,#253,.T.);
#565=EDGE_CURVE('',#456,#433,#254,.T.);
#566=EDGE_CURVE('',#455,#463,#255,.T.);
#567=EDGE_CURVE('',#463,#433,#256,.T.);
#568=EDGE_CURVE('',#454,#464,#257,.T.);
#569=EDGE_CURVE('',#464,#463,#393,.T.);
#570=EDGE_CURVE('',#453,#465,#258,.T.);
#571=EDGE_CURVE('',#465,#464,#259,.T.);
#572=EDGE_CURVE('',#452,#466,#260,.T.);
#573=EDGE_CURVE('',#466,#465,#394,.T.);
#574=EDGE_CURVE('',#451,#467,#261,.T.);
#575=EDGE_CURVE('',#467,#466,#262,.T.);
#576=EDGE_CURVE('',#450,#438,#263,.T.);
#577=EDGE_CURVE('',#438,#467,#395,.T.);
#578=EDGE_CURVE('',#449,#437,#264,.T.);
#579=EDGE_CURVE('',#448,#436,#265,.T.);
#580=EDGE_CURVE('',#447,#435,#266,.T.);
#581=EDGE_CURVE('',#467,#430,#267,.T.);
#582=EDGE_CURVE('',#463,#422,#268,.T.);
#583=EDGE_CURVE('',#464,#424,#269,.T.);
#584=EDGE_CURVE('',#465,#426,#270,.T.);
#585=EDGE_CURVE('',#439,#459,#271,.T.);
#586=EDGE_CURVE('',#440,#458,#272,.T.);
#587=EDGE_CURVE('',#442,#457,#273,.T.);
#588=EDGE_CURVE('',#466,#428,#274,.T.);
#589=ORIENTED_EDGE('',*,*,#468,.F.);
#590=ORIENTED_EDGE('',*,*,#469,.T.);
#591=ORIENTED_EDGE('',*,*,#470,.T.);
#592=ORIENTED_EDGE('',*,*,#469,.F.);
#593=ORIENTED_EDGE('',*,*,#470,.F.);
#594=ORIENTED_EDGE('',*,*,#471,.F.);
#595=ORIENTED_EDGE('',*,*,#472,.T.);
#596=ORIENTED_EDGE('',*,*,#473,.T.);
#597=ORIENTED_EDGE('',*,*,#472,.F.);
#598=ORIENTED_EDGE('',*,*,#473,.F.);
#599=ORIENTED_EDGE('',*,*,#474,.F.);
#600=ORIENTED_EDGE('',*,*,#475,.T.);
#601=ORIENTED_EDGE('',*,*,#476,.T.);
#602=ORIENTED_EDGE('',*,*,#475,.F.);
#603=ORIENTED_EDGE('',*,*,#476,.F.);
#604=ORIENTED_EDGE('',*,*,#477,.F.);
#605=ORIENTED_EDGE('',*,*,#478,.T.);
#606=ORIENTED_EDGE('',*,*,#479,.T.);
#607=ORIENTED_EDGE('',*,*,#478,.F.);
#608=ORIENTED_EDGE('',*,*,#479,.F.);
#609=ORIENTED_EDGE('',*,*,#480,.F.);
#610=ORIENTED_EDGE('',*,*,#481,.T.);
#611=ORIENTED_EDGE('',*,*,#482,.T.);
#612=ORIENTED_EDGE('',*,*,#481,.F.);
#613=ORIENTED_EDGE('',*,*,#482,.F.);
#614=ORIENTED_EDGE('',*,*,#483,.F.);
#615=ORIENTED_EDGE('',*,*,#484,.T.);
#616=ORIENTED_EDGE('',*,*,#485,.T.);
#617=ORIENTED_EDGE('',*,*,#484,.F.);
#618=ORIENTED_EDGE('',*,*,#485,.F.);
#619=ORIENTED_EDGE('',*,*,#486,.T.);
#620=ORIENTED_EDGE('',*,*,#487,.T.);
#621=ORIENTED_EDGE('',*,*,#488,.T.);
#622=ORIENTED_EDGE('',*,*,#489,.T.);
#623=ORIENTED_EDGE('',*,*,#490,.T.);
#624=ORIENTED_EDGE('',*,*,#491,.T.);
#625=ORIENTED_EDGE('',*,*,#486,.F.);
#626=ORIENTED_EDGE('',*,*,#492,.T.);
#627=ORIENTED_EDGE('',*,*,#493,.T.);
#628=ORIENTED_EDGE('',*,*,#494,.T.);
#629=ORIENTED_EDGE('',*,*,#490,.F.);
#630=ORIENTED_EDGE('',*,*,#495,.T.);
#631=ORIENTED_EDGE('',*,*,#496,.T.);
#632=ORIENTED_EDGE('',*,*,#497,.T.);
#633=ORIENTED_EDGE('',*,*,#493,.F.);
#634=ORIENTED_EDGE('',*,*,#498,.T.);
#635=ORIENTED_EDGE('',*,*,#499,.T.);
#636=ORIENTED_EDGE('',*,*,#500,.T.);
#637=ORIENTED_EDGE('',*,*,#496,.F.);
#638=ORIENTED_EDGE('',*,*,#501,.T.);
#639=ORIENTED_EDGE('',*,*,#502,.T.);
#640=ORIENTED_EDGE('',*,*,#503,.T.);
#641=ORIENTED_EDGE('',*,*,#499,.F.);
#642=ORIENTED_EDGE('',*,*,#504,.T.);
#643=ORIENTED_EDGE('',*,*,#505,.T.);
#644=ORIENTED_EDGE('',*,*,#506,.T.);
#645=ORIENTED_EDGE('',*,*,#502,.F.);
#646=ORIENTED_EDGE('',*,*,#507,.T.);
#647=ORIENTED_EDGE('',*,*,#508,.T.);
#648=ORIENTED_EDGE('',*,*,#509,.T.);
#649=ORIENTED_EDGE('',*,*,#505,.F.);
#650=ORIENTED_EDGE('',*,*,#510,.T.);
#651=ORIENTED_EDGE('',*,*,#511,.T.);
#652=ORIENTED_EDGE('',*,*,#512,.T.);
#653=ORIENTED_EDGE('',*,*,#508,.F.);
#654=ORIENTED_EDGE('',*,*,#513,.T.);
#655=ORIENTED_EDGE('',*,*,#514,.T.);
#656=ORIENTED_EDGE('',*,*,#515,.T.);
#657=ORIENTED_EDGE('',*,*,#511,.F.);
#658=ORIENTED_EDGE('',*,*,#516,.T.);
#659=ORIENTED_EDGE('',*,*,#517,.T.);
#660=ORIENTED_EDGE('',*,*,#518,.T.);
#661=ORIENTED_EDGE('',*,*,#514,.F.);
#662=ORIENTED_EDGE('',*,*,#519,.T.);
#663=ORIENTED_EDGE('',*,*,#488,.F.);
#664=ORIENTED_EDGE('',*,*,#520,.T.);
#665=ORIENTED_EDGE('',*,*,#517,.F.);
#666=ORIENTED_EDGE('',*,*,#521,.T.);
#667=ORIENTED_EDGE('',*,*,#504,.F.);
#668=ORIENTED_EDGE('',*,*,#522,.F.);
#669=ORIENTED_EDGE('',*,*,#523,.F.);
#670=ORIENTED_EDGE('',*,*,#524,.T.);
#671=ORIENTED_EDGE('',*,*,#501,.F.);
#672=ORIENTED_EDGE('',*,*,#525,.F.);
#673=ORIENTED_EDGE('',*,*,#526,.F.);
#674=ORIENTED_EDGE('',*,*,#522,.T.);
#675=ORIENTED_EDGE('',*,*,#498,.F.);
#676=ORIENTED_EDGE('',*,*,#527,.F.);
#677=ORIENTED_EDGE('',*,*,#528,.F.);
#678=ORIENTED_EDGE('',*,*,#525,.T.);
#679=ORIENTED_EDGE('',*,*,#495,.F.);
#680=ORIENTED_EDGE('',*,*,#529,.F.);
#681=ORIENTED_EDGE('',*,*,#530,.F.);
#682=ORIENTED_EDGE('',*,*,#527,.T.);
#683=ORIENTED_EDGE('',*,*,#492,.F.);
#684=ORIENTED_EDGE('',*,*,#531,.F.);
#685=ORIENTED_EDGE('',*,*,#532,.F.);
#686=ORIENTED_EDGE('',*,*,#529,.T.);
#687=ORIENTED_EDGE('',*,*,#489,.F.);
#688=ORIENTED_EDGE('',*,*,#533,.F.);
#689=ORIENTED_EDGE('',*,*,#534,.F.);
#690=ORIENTED_EDGE('',*,*,#531,.T.);
#691=ORIENTED_EDGE('',*,*,#487,.F.);
#692=ORIENTED_EDGE('',*,*,#491,.F.);
#693=ORIENTED_EDGE('',*,*,#494,.F.);
#694=ORIENTED_EDGE('',*,*,#497,.F.);
#695=ORIENTED_EDGE('',*,*,#500,.F.);
#696=ORIENTED_EDGE('',*,*,#503,.F.);
#697=ORIENTED_EDGE('',*,*,#506,.F.);
#698=ORIENTED_EDGE('',*,*,#509,.F.);
#699=ORIENTED_EDGE('',*,*,#512,.F.);
#700=ORIENTED_EDGE('',*,*,#515,.F.);
#701=ORIENTED_EDGE('',*,*,#518,.F.);
#702=ORIENTED_EDGE('',*,*,#520,.F.);
#703=ORIENTED_EDGE('',*,*,#535,.T.);
#704=ORIENTED_EDGE('',*,*,#536,.T.);
#705=ORIENTED_EDGE('',*,*,#537,.T.);
#706=ORIENTED_EDGE('',*,*,#538,.T.);
#707=ORIENTED_EDGE('',*,*,#539,.T.);
#708=ORIENTED_EDGE('',*,*,#540,.T.);
#709=ORIENTED_EDGE('',*,*,#541,.T.);
#710=ORIENTED_EDGE('',*,*,#540,.F.);
#711=ORIENTED_EDGE('',*,*,#542,.F.);
#712=ORIENTED_EDGE('',*,*,#543,.F.);
#713=ORIENTED_EDGE('',*,*,#544,.F.);
#714=ORIENTED_EDGE('',*,*,#545,.F.);
#715=ORIENTED_EDGE('',*,*,#546,.F.);
#716=ORIENTED_EDGE('',*,*,#547,.F.);
#717=ORIENTED_EDGE('',*,*,#548,.F.);
#718=ORIENTED_EDGE('',*,*,#549,.F.);
#719=ORIENTED_EDGE('',*,*,#550,.F.);
#720=ORIENTED_EDGE('',*,*,#551,.F.);
#721=ORIENTED_EDGE('',*,*,#552,.F.);
#722=ORIENTED_EDGE('',*,*,#553,.F.);
#723=ORIENTED_EDGE('',*,*,#468,.T.);
#724=ORIENTED_EDGE('',*,*,#471,.T.);
#725=ORIENTED_EDGE('',*,*,#474,.T.);
#726=ORIENTED_EDGE('',*,*,#477,.T.);
#727=ORIENTED_EDGE('',*,*,#480,.T.);
#728=ORIENTED_EDGE('',*,*,#483,.T.);
#729=ORIENTED_EDGE('',*,*,#554,.F.);
#730=ORIENTED_EDGE('',*,*,#555,.F.);
#731=ORIENTED_EDGE('',*,*,#556,.F.);
#732=ORIENTED_EDGE('',*,*,#539,.F.);
#733=ORIENTED_EDGE('',*,*,#541,.F.);
#734=ORIENTED_EDGE('',*,*,#557,.T.);
#735=ORIENTED_EDGE('',*,*,#558,.T.);
#736=ORIENTED_EDGE('',*,*,#557,.F.);
#737=ORIENTED_EDGE('',*,*,#559,.T.);
#738=ORIENTED_EDGE('',*,*,#560,.T.);
#739=ORIENTED_EDGE('',*,*,#561,.T.);
#740=ORIENTED_EDGE('',*,*,#560,.F.);
#741=ORIENTED_EDGE('',*,*,#558,.F.);
#742=ORIENTED_EDGE('',*,*,#561,.F.);
#743=ORIENTED_EDGE('',*,*,#537,.F.);
#744=ORIENTED_EDGE('',*,*,#562,.T.);
#745=ORIENTED_EDGE('',*,*,#559,.F.);
#746=ORIENTED_EDGE('',*,*,#562,.F.);
#747=ORIENTED_EDGE('',*,*,#563,.T.);
#748=ORIENTED_EDGE('',*,*,#526,.T.);
#749=ORIENTED_EDGE('',*,*,#564,.T.);
#750=ORIENTED_EDGE('',*,*,#542,.T.);
#751=ORIENTED_EDGE('',*,*,#565,.T.);
#752=ORIENTED_EDGE('',*,*,#523,.T.);
#753=ORIENTED_EDGE('',*,*,#563,.F.);
#754=ORIENTED_EDGE('',*,*,#553,.T.);
#755=ORIENTED_EDGE('',*,*,#566,.T.);
#756=ORIENTED_EDGE('',*,*,#567,.T.);
#757=ORIENTED_EDGE('',*,*,#565,.F.);
#758=ORIENTED_EDGE('',*,*,#552,.T.);
#759=ORIENTED_EDGE('',*,*,#568,.T.);
#760=ORIENTED_EDGE('',*,*,#569,.T.);
#761=ORIENTED_EDGE('',*,*,#566,.F.);
#762=ORIENTED_EDGE('',*,*,#551,.T.);
#763=ORIENTED_EDGE('',*,*,#570,.T.);
#764=ORIENTED_EDGE('',*,*,#571,.T.);
#765=ORIENTED_EDGE('',*,*,#568,.F.);
#766=ORIENTED_EDGE('',*,*,#550,.T.);
#767=ORIENTED_EDGE('',*,*,#572,.T.);
#768=ORIENTED_EDGE('',*,*,#573,.T.);
#769=ORIENTED_EDGE('',*,*,#570,.F.);
#770=ORIENTED_EDGE('',*,*,#549,.T.);
#771=ORIENTED_EDGE('',*,*,#574,.T.);
#772=ORIENTED_EDGE('',*,*,#575,.T.);
#773=ORIENTED_EDGE('',*,*,#572,.F.);
#774=ORIENTED_EDGE('',*,*,#548,.T.);
#775=ORIENTED_EDGE('',*,*,#576,.T.);
#776=ORIENTED_EDGE('',*,*,#577,.T.);
#777=ORIENTED_EDGE('',*,*,#574,.F.);
#778=ORIENTED_EDGE('',*,*,#547,.T.);
#779=ORIENTED_EDGE('',*,*,#578,.T.);
#780=ORIENTED_EDGE('',*,*,#534,.T.);
#781=ORIENTED_EDGE('',*,*,#576,.F.);
#782=ORIENTED_EDGE('',*,*,#546,.T.);
#783=ORIENTED_EDGE('',*,*,#579,.T.);
#784=ORIENTED_EDGE('',*,*,#532,.T.);
#785=ORIENTED_EDGE('',*,*,#578,.F.);
#786=ORIENTED_EDGE('',*,*,#545,.T.);
#787=ORIENTED_EDGE('',*,*,#580,.T.);
#788=ORIENTED_EDGE('',*,*,#530,.T.);
#789=ORIENTED_EDGE('',*,*,#579,.F.);
#790=ORIENTED_EDGE('',*,*,#544,.T.);
#791=ORIENTED_EDGE('',*,*,#564,.F.);
#792=ORIENTED_EDGE('',*,*,#528,.T.);
#793=ORIENTED_EDGE('',*,*,#580,.F.);
#794=ORIENTED_EDGE('',*,*,#543,.T.);
#795=ORIENTED_EDGE('',*,*,#521,.F.);
#796=ORIENTED_EDGE('',*,*,#581,.F.);
#797=ORIENTED_EDGE('',*,*,#577,.F.);
#798=ORIENTED_EDGE('',*,*,#533,.T.);
#799=ORIENTED_EDGE('',*,*,#507,.F.);
#800=ORIENTED_EDGE('',*,*,#524,.F.);
#801=ORIENTED_EDGE('',*,*,#567,.F.);
#802=ORIENTED_EDGE('',*,*,#582,.T.);
#803=ORIENTED_EDGE('',*,*,#510,.F.);
#804=ORIENTED_EDGE('',*,*,#582,.F.);
#805=ORIENTED_EDGE('',*,*,#569,.F.);
#806=ORIENTED_EDGE('',*,*,#583,.T.);
#807=ORIENTED_EDGE('',*,*,#513,.F.);
#808=ORIENTED_EDGE('',*,*,#583,.F.);
#809=ORIENTED_EDGE('',*,*,#571,.F.);
#810=ORIENTED_EDGE('',*,*,#584,.T.);
#811=ORIENTED_EDGE('',*,*,#535,.F.);
#812=ORIENTED_EDGE('',*,*,#585,.T.);
#813=ORIENTED_EDGE('',*,*,#556,.T.);
#814=ORIENTED_EDGE('',*,*,#585,.F.);
#815=ORIENTED_EDGE('',*,*,#536,.F.);
#816=ORIENTED_EDGE('',*,*,#586,.T.);
#817=ORIENTED_EDGE('',*,*,#555,.T.);
#818=ORIENTED_EDGE('',*,*,#586,.F.);
#819=ORIENTED_EDGE('',*,*,#538,.F.);
#820=ORIENTED_EDGE('',*,*,#587,.T.);
#821=ORIENTED_EDGE('',*,*,#554,.T.);
#822=ORIENTED_EDGE('',*,*,#587,.F.);
#823=ORIENTED_EDGE('',*,*,#519,.F.);
#824=ORIENTED_EDGE('',*,*,#588,.F.);
#825=ORIENTED_EDGE('',*,*,#575,.F.);
#826=ORIENTED_EDGE('',*,*,#581,.T.);
#827=ORIENTED_EDGE('',*,*,#516,.F.);
#828=ORIENTED_EDGE('',*,*,#584,.F.);
#829=ORIENTED_EDGE('',*,*,#573,.F.);
#830=ORIENTED_EDGE('',*,*,#588,.T.);
#831=CYLINDRICAL_SURFACE('',#920,0.583333333333322);
#832=CYLINDRICAL_SURFACE('',#924,0.583333333333331);
#833=CYLINDRICAL_SURFACE('',#928,0.583333333333322);
#834=CYLINDRICAL_SURFACE('',#932,0.583333333333325);
#835=CYLINDRICAL_SURFACE('',#936,0.583333333333329);
#836=CYLINDRICAL_SURFACE('',#940,0.583333333333325);
#837=CYLINDRICAL_SURFACE('',#968,10.);
#838=CYLINDRICAL_SURFACE('',#971,10.);
#839=CYLINDRICAL_SURFACE('',#974,10.);
#840=CYLINDRICAL_SURFACE('',#995,6.00000008940697);
#841=CYLINDRICAL_SURFACE('',#1001,3.6);
#842=CYLINDRICAL_SURFACE('',#1017,10.0000000000003);
#843=CYLINDRICAL_SURFACE('',#1019,9.99999999999999);
#844=CYLINDRICAL_SURFACE('',#1021,2.);
#845=CYLINDRICAL_SURFACE('',#1022,2.);
#846=CYLINDRICAL_SURFACE('',#1023,2.);
#847=CYLINDRICAL_SURFACE('',#1025,10.);
#848=ADVANCED_FACE('',(#71),#831,.F.);
#849=ADVANCED_FACE('',(#72),#44,.T.);
#850=ADVANCED_FACE('',(#73),#832,.F.);
#851=ADVANCED_FACE('',(#74),#45,.T.);
#852=ADVANCED_FACE('',(#75),#833,.F.);
#853=ADVANCED_FACE('',(#76),#46,.T.);
#854=ADVANCED_FACE('',(#77),#834,.F.);
#855=ADVANCED_FACE('',(#78),#47,.T.);
#856=ADVANCED_FACE('',(#79),#835,.F.);
#857=ADVANCED_FACE('',(#80),#48,.T.);
#858=ADVANCED_FACE('',(#81),#836,.F.);
#859=ADVANCED_FACE('',(#82),#49,.T.);
#860=ADVANCED_FACE('',(#83),#50,.T.);
#861=ADVANCED_FACE('',(#84),#30,.T.);
#862=ADVANCED_FACE('',(#85),#51,.T.);
#863=ADVANCED_FACE('',(#86),#31,.T.);
#864=ADVANCED_FACE('',(#87),#52,.T.);
#865=ADVANCED_FACE('',(#88),#32,.T.);
#866=ADVANCED_FACE('',(#89),#53,.T.);
#867=ADVANCED_FACE('',(#90),#33,.T.);
#868=ADVANCED_FACE('',(#91),#54,.T.);
#869=ADVANCED_FACE('',(#92),#34,.T.);
#870=ADVANCED_FACE('',(#93),#55,.T.);
#871=ADVANCED_FACE('',(#94),#35,.T.);
#872=ADVANCED_FACE('',(#95),#837,.T.);
#873=ADVANCED_FACE('',(#96),#56,.T.);
#874=ADVANCED_FACE('',(#97),#838,.T.);
#875=ADVANCED_FACE('',(#98),#57,.T.);
#876=ADVANCED_FACE('',(#99),#839,.T.);
#877=ADVANCED_FACE('',(#100),#58,.T.);
#878=ADVANCED_FACE('',(#101,#15,#16,#17,#18),#59,.F.);
#879=ADVANCED_FACE('',(#102),#36,.F.);
#880=ADVANCED_FACE('',(#103,#19,#20,#21,#22,#23,#24,#25,#26,#27,#28),#60,
 .T.);
#881=ADVANCED_FACE('',(#104),#840,.F.);
#882=ADVANCED_FACE('',(#105),#37,.F.);
#883=ADVANCED_FACE('',(#106,#29),#61,.T.);
#884=ADVANCED_FACE('',(#107),#841,.F.);
#885=ADVANCED_FACE('',(#108),#62,.T.);
#886=ADVANCED_FACE('',(#109),#38,.T.);
#887=ADVANCED_FACE('',(#110),#63,.T.);
#888=ADVANCED_FACE('',(#111),#39,.T.);
#889=ADVANCED_FACE('',(#112),#64,.T.);
#890=ADVANCED_FACE('',(#113),#40,.T.);
#891=ADVANCED_FACE('',(#114),#65,.T.);
#892=ADVANCED_FACE('',(#115),#41,.T.);
#893=ADVANCED_FACE('',(#116),#66,.T.);
#894=ADVANCED_FACE('',(#117),#42,.T.);
#895=ADVANCED_FACE('',(#118),#67,.T.);
#896=ADVANCED_FACE('',(#119),#43,.T.);
#897=ADVANCED_FACE('',(#120),#842,.T.);
#898=ADVANCED_FACE('',(#121),#68,.T.);
#899=ADVANCED_FACE('',(#122),#843,.T.);
#900=ADVANCED_FACE('',(#123),#69,.T.);
#901=ADVANCED_FACE('',(#124),#844,.F.);
#902=ADVANCED_FACE('',(#125),#845,.F.);
#903=ADVANCED_FACE('',(#126),#846,.F.);
#904=ADVANCED_FACE('',(#127),#70,.T.);
#905=ADVANCED_FACE('',(#128),#847,.T.);
#906=CLOSED_SHELL('',(#848,#849,#850,#851,#852,#853,#854,#855,#856,#857,
#858,#859,#860,#861,#862,#863,#864,#865,#866,#867,#868,#869,#870,#871,#872,
#873,#874,#875,#876,#877,#878,#879,#880,#881,#882,#883,#884,#885,#886,#887,
#888,#889,#890,#891,#892,#893,#894,#895,#896,#897,#898,#899,#900,#901,#902,
#903,#904,#905));
#907=DERIVED_UNIT_ELEMENT(#909,1.);
#908=DERIVED_UNIT_ELEMENT(#1570,-3.);
#909=(
MASS_UNIT()
NAMED_UNIT(*)
SI_UNIT(.KILO.,.GRAM.)
);
#910=DERIVED_UNIT((#907,#908));
#911=MEASURE_REPRESENTATION_ITEM('density measure',
POSITIVE_RATIO_MEASURE(7850.),#910);
#912=PROPERTY_DEFINITION_REPRESENTATION(#917,#914);
#913=PROPERTY_DEFINITION_REPRESENTATION(#918,#915);
#914=REPRESENTATION('material name',(#916),#1567);
#915=REPRESENTATION('density',(#911),#1567);
#916=DESCRIPTIVE_REPRESENTATION_ITEM('Steel','Steel');
#917=PROPERTY_DEFINITION('material property','material name',#1577);
#918=PROPERTY_DEFINITION('material property','density of part',#1577);
#919=AXIS2_PLACEMENT_3D('',#1313,#1026,#1027);
#920=AXIS2_PLACEMENT_3D('',#1314,#1028,#1029);
#921=AXIS2_PLACEMENT_3D('',#1316,#1030,#1031);
#922=AXIS2_PLACEMENT_3D('',#1319,#1033,#1034);
#923=AXIS2_PLACEMENT_3D('',#1320,#1035,#1036);
#924=AXIS2_PLACEMENT_3D('',#1321,#1037,#1038);
#925=AXIS2_PLACEMENT_3D('',#1323,#1039,#1040);
#926=AXIS2_PLACEMENT_3D('',#1326,#1042,#1043);
#927=AXIS2_PLACEMENT_3D('',#1327,#1044,#1045);
#928=AXIS2_PLACEMENT_3D('',#1328,#1046,#1047);
#929=AXIS2_PLACEMENT_3D('',#1330,#1048,#1049);
#930=AXIS2_PLACEMENT_3D('',#1333,#1051,#1052);
#931=AXIS2_PLACEMENT_3D('',#1334,#1053,#1054);
#932=AXIS2_PLACEMENT_3D('',#1335,#1055,#1056);
#933=AXIS2_PLACEMENT_3D('',#1337,#1057,#1058);
#934=AXIS2_PLACEMENT_3D('',#1340,#1060,#1061);
#935=AXIS2_PLACEMENT_3D('',#1341,#1062,#1063);
#936=AXIS2_PLACEMENT_3D('',#1342,#1064,#1065);
#937=AXIS2_PLACEMENT_3D('',#1344,#1066,#1067);
#938=AXIS2_PLACEMENT_3D('',#1347,#1069,#1070);
#939=AXIS2_PLACEMENT_3D('',#1348,#1071,#1072);
#940=AXIS2_PLACEMENT_3D('',#1349,#1073,#1074);
#941=AXIS2_PLACEMENT_3D('',#1351,#1075,#1076);
#942=AXIS2_PLACEMENT_3D('',#1354,#1078,#1079);
#943=AXIS2_PLACEMENT_3D('',#1355,#1080,#1081);
#944=AXIS2_PLACEMENT_3D('',#1356,#1082,#1083);
#945=AXIS2_PLACEMENT_3D('',#1365,#1088,#1089);
#946=AXIS2_PLACEMENT_3D('',#1369,#1091,#1092);
#947=AXIS2_PLACEMENT_3D('',#1370,#1093,#1094);
#948=AXIS2_PLACEMENT_3D('',#1371,#1095,#1096);
#949=AXIS2_PLACEMENT_3D('',#1377,#1100,#1101);
#950=AXIS2_PLACEMENT_3D('',#1381,#1103,#1104);
#951=AXIS2_PLACEMENT_3D('',#1382,#1105,#1106);
#952=AXIS2_PLACEMENT_3D('',#1383,#1107,#1108);
#953=AXIS2_PLACEMENT_3D('',#1389,#1112,#1113);
#954=AXIS2_PLACEMENT_3D('',#1393,#1115,#1116);
#955=AXIS2_PLACEMENT_3D('',#1394,#1117,#1118);
#956=AXIS2_PLACEMENT_3D('',#1395,#1119,#1120);
#957=AXIS2_PLACEMENT_3D('',#1401,#1124,#1125);
#958=AXIS2_PLACEMENT_3D('',#1405,#1127,#1128);
#959=AXIS2_PLACEMENT_3D('',#1406,#1129,#1130);
#960=AXIS2_PLACEMENT_3D('',#1407,#1131,#1132);
#961=AXIS2_PLACEMENT_3D('',#1413,#1136,#1137);
#962=AXIS2_PLACEMENT_3D('',#1417,#1139,#1140);
#963=AXIS2_PLACEMENT_3D('',#1418,#1141,#1142);
#964=AXIS2_PLACEMENT_3D('',#1419,#1143,#1144);
#965=AXIS2_PLACEMENT_3D('',#1425,#1148,#1149);
#966=AXIS2_PLACEMENT_3D('',#1426,#1150,#1151);
#967=AXIS2_PLACEMENT_3D('',#1427,#1152,#1153);
#968=AXIS2_PLACEMENT_3D('',#1428,#1154,#1155);
#969=AXIS2_PLACEMENT_3D('',#1432,#1157,#1158);
#970=AXIS2_PLACEMENT_3D('',#1434,#1160,#1161);
#971=AXIS2_PLACEMENT_3D('',#1438,#1164,#1165);
#972=AXIS2_PLACEMENT_3D('',#1441,#1167,#1168);
#973=AXIS2_PLACEMENT_3D('',#1442,#1169,#1170);
#974=AXIS2_PLACEMENT_3D('',#1446,#1173,#1174);
#975=AXIS2_PLACEMENT_3D('',#1449,#1176,#1177);
#976=AXIS2_PLACEMENT_3D('',#1450,#1178,#1179);
#977=AXIS2_PLACEMENT_3D('',#1454,#1182,#1183);
#978=AXIS2_PLACEMENT_3D('',#1456,#1184,#1185);
#979=AXIS2_PLACEMENT_3D('',#1458,#1186,#1187);
#980=AXIS2_PLACEMENT_3D('',#1460,#1188,#1189);
#981=AXIS2_PLACEMENT_3D('',#1462,#1190,#1191);
#982=AXIS2_PLACEMENT_3D('',#1463,#1192,#1193);
#983=AXIS2_PLACEMENT_3D('',#1465,#1194,#1195);
#984=AXIS2_PLACEMENT_3D('',#1468,#1197,#1198);
#985=AXIS2_PLACEMENT_3D('',#1469,#1199,#1200);
#986=AXIS2_PLACEMENT_3D('',#1474,#1202,#1203);
#987=AXIS2_PLACEMENT_3D('',#1478,#1205,#1206);
#988=AXIS2_PLACEMENT_3D('',#1482,#1208,#1209);
#989=AXIS2_PLACEMENT_3D('',#1486,#1211,#1212);
#990=AXIS2_PLACEMENT_3D('',#1490,#1214,#1215);
#991=AXIS2_PLACEMENT_3D('',#1493,#1217,#1218);
#992=AXIS2_PLACEMENT_3D('',#1495,#1219,#1220);
#993=AXIS2_PLACEMENT_3D('',#1497,#1221,#1222);
#994=AXIS2_PLACEMENT_3D('',#1499,#1223,#1224);
#995=AXIS2_PLACEMENT_3D('',#1500,#1225,#1226);
#996=AXIS2_PLACEMENT_3D('',#1503,#1228,#1229);
#997=AXIS2_PLACEMENT_3D('',#1504,#1230,#1231);
#998=AXIS2_PLACEMENT_3D('',#1506,#1232,#1233);
#999=AXIS2_PLACEMENT_3D('',#1509,#1235,#1236);
#1000=AXIS2_PLACEMENT_3D('',#1510,#1237,#1238);
#1001=AXIS2_PLACEMENT_3D('',#1511,#1239,#1240);
#1002=AXIS2_PLACEMENT_3D('',#1513,#1242,#1243);
#1003=AXIS2_PLACEMENT_3D('',#1516,#1246,#1247);
#1004=AXIS2_PLACEMENT_3D('',#1518,#1249,#1250);
#1005=AXIS2_PLACEMENT_3D('',#1522,#1253,#1254);
#1006=AXIS2_PLACEMENT_3D('',#1525,#1256,#1257);
#1007=AXIS2_PLACEMENT_3D('',#1526,#1258,#1259);
#1008=AXIS2_PLACEMENT_3D('',#1530,#1262,#1263);
#1009=AXIS2_PLACEMENT_3D('',#1533,#1265,#1266);
#1010=AXIS2_PLACEMENT_3D('',#1534,#1267,#1268);
#1011=AXIS2_PLACEMENT_3D('',#1538,#1271,#1272);
#1012=AXIS2_PLACEMENT_3D('',#1540,#1274,#1275);
#1013=AXIS2_PLACEMENT_3D('',#1541,#1276,#1277);
#1014=AXIS2_PLACEMENT_3D('',#1543,#1279,#1280);
#1015=AXIS2_PLACEMENT_3D('',#1545,#1282,#1283);
#1016=AXIS2_PLACEMENT_3D('',#1547,#1285,#1286);
#1017=AXIS2_PLACEMENT_3D('',#1548,#1287,#1288);
#1018=AXIS2_PLACEMENT_3D('',#1550,#1290,#1291);
#1019=AXIS2_PLACEMENT_3D('',#1552,#1293,#1294);
#1020=AXIS2_PLACEMENT_3D('',#1554,#1296,#1297);
#1021=AXIS2_PLACEMENT_3D('',#1556,#1299,#1300);
#1022=AXIS2_PLACEMENT_3D('',#1558,#1302,#1303);
#1023=AXIS2_PLACEMENT_3D('',#1560,#1305,#1306);
#1024=AXIS2_PLACEMENT_3D('',#1562,#1308,#1309);
#1025=AXIS2_PLACEMENT_3D('',#1564,#1311,#1312);
#1026=DIRECTION('axis',(0.,0.,1.));
#1027=DIRECTION('refdir',(1.,0.,0.));
#1028=DIRECTION('center_axis',(0.,0.,-1.));
#1029=DIRECTION('ref_axis',(-1.,0.,0.));
#1030=DIRECTION('center_axis',(0.,0.,-1.));
#1031=DIRECTION('ref_axis',(-1.,0.,0.));
#1032=DIRECTION('',(0.,0.,-1.));
#1033=DIRECTION('center_axis',(0.,0.,-1.));
#1034=DIRECTION('ref_axis',(-1.,0.,0.));
#1035=DIRECTION('center_axis',(0.,0.,1.));
#1036=DIRECTION('ref_axis',(-1.,0.,0.));
#1037=DIRECTION('center_axis',(0.,0.,-1.));
#1038=DIRECTION('ref_axis',(-1.,0.,0.));
#1039=DIRECTION('center_axis',(0.,0.,-1.));
#1040=DIRECTION('ref_axis',(-1.,0.,0.));
#1041=DIRECTION('',(0.,0.,-1.));
#1042=DIRECTION('center_axis',(0.,0.,-1.));
#1043=DIRECTION('ref_axis',(-1.,0.,0.));
#1044=DIRECTION('center_axis',(0.,0.,1.));
#1045=DIRECTION('ref_axis',(-1.,0.,0.));
#1046=DIRECTION('center_axis',(0.,0.,-1.));
#1047=DIRECTION('ref_axis',(-1.,0.,0.));
#1048=DIRECTION('center_axis',(0.,0.,-1.));
#1049=DIRECTION('ref_axis',(-1.,0.,0.));
#1050=DIRECTION('',(0.,0.,-1.));
#1051=DIRECTION('center_axis',(0.,0.,-1.));
#1052=DIRECTION('ref_axis',(-1.,0.,0.));
#1053=DIRECTION('center_axis',(0.,0.,1.));
#1054=DIRECTION('ref_axis',(-1.,0.,0.));
#1055=DIRECTION('center_axis',(0.,0.,-1.));
#1056=DIRECTION('ref_axis',(-1.,0.,0.));
#1057=DIRECTION('center_axis',(0.,0.,-1.));
#1058=DIRECTION('ref_axis',(-1.,0.,0.));
#1059=DIRECTION('',(0.,0.,-1.));
#1060=DIRECTION('center_axis',(0.,0.,-1.));
#1061=DIRECTION('ref_axis',(-1.,0.,0.));
#1062=DIRECTION('center_axis',(0.,0.,1.));
#1063=DIRECTION('ref_axis',(-1.,0.,0.));
#1064=DIRECTION('center_axis',(0.,0.,-1.));
#1065=DIRECTION('ref_axis',(-1.,0.,0.));
#1066=DIRECTION('center_axis',(0.,0.,-1.));
#1067=DIRECTION('ref_axis',(-1.,0.,0.));
#1068=DIRECTION('',(0.,0.,-1.));
#1069=DIRECTION('center_axis',(0.,0.,-1.));
#1070=DIRECTION('ref_axis',(-1.,0.,0.));
#1071=DIRECTION('center_axis',(0.,0.,1.));
#1072=DIRECTION('ref_axis',(-1.,0.,0.));
#1073=DIRECTION('center_axis',(0.,0.,-1.));
#1074=DIRECTION('ref_axis',(-1.,0.,0.));
#1075=DIRECTION('center_axis',(0.,0.,-1.));
#1076=DIRECTION('ref_axis',(-1.,0.,0.));
#1077=DIRECTION('',(0.,0.,-1.));
#1078=DIRECTION('center_axis',(0.,0.,-1.));
#1079=DIRECTION('ref_axis',(-1.,0.,0.));
#1080=DIRECTION('center_axis',(0.,0.,1.));
#1081=DIRECTION('ref_axis',(-1.,0.,0.));
#1082=DIRECTION('center_axis',(-0.625697583790564,0.329397227733702,-0.707106781186549));
#1083=DIRECTION('ref_axis',(-0.748901922642875,0.,0.6626808509847));
#1084=DIRECTION('',(0.625697583790569,-0.329397227733701,-0.707106781186545));
#1085=DIRECTION('',(-0.465838026869101,-0.884870008940693,0.));
#1086=DIRECTION('',(-0.625697583790567,0.329397227733705,0.707106781186545));
#1087=DIRECTION('',(0.465838026869101,0.884870008940693,0.));
#1088=DIRECTION('center_axis',(0.,0.,1.));
#1089=DIRECTION('ref_axis',(8.88178419700124E-16,1.,0.));
#1090=DIRECTION('',(0.,-0.707106781186548,-0.707106781186548));
#1091=DIRECTION('center_axis',(0.,0.,1.));
#1092=DIRECTION('ref_axis',(8.88178419700124E-16,1.,0.));
#1093=DIRECTION('center_axis',(0.,0.,-1.));
#1094=DIRECTION('ref_axis',(8.88178419700124E-16,1.,0.));
#1095=DIRECTION('center_axis',(7.54847958670325E-16,0.707106781186548,-0.707106781186548));
#1096=DIRECTION('ref_axis',(-1.,0.,-1.06751622068122E-15));
#1097=DIRECTION('',(0.,-0.707106781186548,-0.707106781186548));
#1098=DIRECTION('',(-1.,1.06751622068122E-15,0.));
#1099=DIRECTION('',(1.,-1.06751622068122E-15,0.));
#1100=DIRECTION('center_axis',(0.,0.,1.));
#1101=DIRECTION('ref_axis',(0.884869999999995,0.465838043852162,0.));
#1102=DIRECTION('',(-0.625697577468537,-0.329397239742541,-0.707106781186547));
#1103=DIRECTION('center_axis',(0.,0.,1.));
#1104=DIRECTION('ref_axis',(0.884869999999995,0.465838043852163,0.));
#1105=DIRECTION('center_axis',(0.,0.,-1.));
#1106=DIRECTION('ref_axis',(0.884869999999995,0.465838043852163,0.));
#1107=DIRECTION('center_axis',(0.625697577468536,0.32939723974254,-0.707106781186548));
#1108=DIRECTION('ref_axis',(-0.748901925965839,0.,-0.662680847229386));
#1109=DIRECTION('',(-0.625697577468535,-0.329397239742542,-0.707106781186548));
#1110=DIRECTION('',(-0.465838043852162,0.884869999999995,0.));
#1111=DIRECTION('',(0.465838043852162,-0.884869999999995,0.));
#1112=DIRECTION('center_axis',(0.,0.,1.));
#1113=DIRECTION('ref_axis',(1.,9.99200722162637E-16,0.));
#1114=DIRECTION('',(-0.707106781186551,-7.85046229341887E-16,-0.707106781186544));
#1115=DIRECTION('center_axis',(0.,0.,1.));
#1116=DIRECTION('ref_axis',(1.,9.99200722162637E-16,0.));
#1117=DIRECTION('center_axis',(0.,0.,-1.));
#1118=DIRECTION('ref_axis',(1.,9.99200722162637E-16,0.));
#1119=DIRECTION('center_axis',(0.707106781186548,0.,-0.707106781186548));
#1120=DIRECTION('ref_axis',(-0.707106781186548,0.,-0.707106781186548));
#1121=DIRECTION('',(-0.707106781186548,0.,-0.707106781186548));
#1122=DIRECTION('',(0.,1.,0.));
#1123=DIRECTION('',(0.,-1.,0.));
#1124=DIRECTION('center_axis',(0.,0.,1.));
#1125=DIRECTION('ref_axis',(-1.33226762955019E-15,-1.,0.));
#1126=DIRECTION('',(0.,0.707106781186549,-0.707106781186546));
#1127=DIRECTION('center_axis',(0.,0.,1.));
#1128=DIRECTION('ref_axis',(-1.33226762955019E-15,-1.,0.));
#1129=DIRECTION('center_axis',(0.,0.,-1.));
#1130=DIRECTION('ref_axis',(-1.33226762955019E-15,-1.,0.));
#1131=DIRECTION('center_axis',(-8.50141148608558E-17,-0.707106781186548,
-0.707106781186548));
#1132=DIRECTION('ref_axis',(-1.,0.,1.20228114229366E-16));
#1133=DIRECTION('',(-3.14018491736752E-15,0.707106781186557,-0.707106781186538));
#1134=DIRECTION('',(1.,-1.20228114229366E-16,0.));
#1135=DIRECTION('',(-1.,1.20228114229366E-16,0.));
#1136=DIRECTION('center_axis',(0.,0.,1.));
#1137=DIRECTION('ref_axis',(-1.,-4.44089209850062E-16,0.));
#1138=DIRECTION('',(0.707106781186548,0.,-0.707106781186548));
#1139=DIRECTION('center_axis',(0.,0.,1.));
#1140=DIRECTION('ref_axis',(-1.,-4.44089209850062E-16,0.));
#1141=DIRECTION('center_axis',(0.,0.,-1.));
#1142=DIRECTION('ref_axis',(-1.,-4.44089209850062E-16,0.));
#1143=DIRECTION('center_axis',(-0.707106781186548,0.,-0.707106781186548));
#1144=DIRECTION('ref_axis',(-0.707106781186548,0.,0.707106781186548));
#1145=DIRECTION('',(0.707106781186548,1.96261557335473E-16,-0.707106781186548));
#1146=DIRECTION('',(0.,-1.,0.));
#1147=DIRECTION('',(0.,1.,0.));
#1148=DIRECTION('center_axis',(0.,0.,1.));
#1149=DIRECTION('ref_axis',(-0.884870008940697,0.465838026869095,0.));
#1150=DIRECTION('center_axis',(0.,0.,1.));
#1151=DIRECTION('ref_axis',(-0.884870008940697,0.465838026869095,0.));
#1152=DIRECTION('center_axis',(0.,0.,-1.));
#1153=DIRECTION('ref_axis',(-0.884870008940697,0.465838026869095,0.));
#1154=DIRECTION('center_axis',(0.,0.,-1.));
#1155=DIRECTION('ref_axis',(1.,9.99200722162637E-16,0.));
#1156=DIRECTION('',(0.,0.,-1.));
#1157=DIRECTION('center_axis',(0.,0.,1.));
#1158=DIRECTION('ref_axis',(1.,9.99200722162637E-16,0.));
#1159=DIRECTION('',(0.,0.,-1.));
#1160=DIRECTION('center_axis',(0.884869999999995,0.465838043852162,0.));
#1161=DIRECTION('ref_axis',(0.465838043852162,-0.884869999999995,0.));
#1162=DIRECTION('',(0.,0.,-1.));
#1163=DIRECTION('',(-0.465838043852162,0.884869999999995,0.));
#1164=DIRECTION('center_axis',(0.,0.,-1.));
#1165=DIRECTION('ref_axis',(0.884869999999995,0.465838043852163,0.));
#1166=DIRECTION('',(0.,0.,-1.));
#1167=DIRECTION('center_axis',(0.,0.,1.));
#1168=DIRECTION('ref_axis',(0.884869999999995,0.465838043852163,0.));
#1169=DIRECTION('center_axis',(1.06751622068122E-15,1.,0.));
#1170=DIRECTION('ref_axis',(1.,-1.06751622068122E-15,0.));
#1171=DIRECTION('',(0.,0.,-1.));
#1172=DIRECTION('',(-1.,1.06751622068122E-15,0.));
#1173=DIRECTION('center_axis',(0.,0.,-1.));
#1174=DIRECTION('ref_axis',(8.88178419700124E-16,1.,0.));
#1175=DIRECTION('',(0.,0.,-1.));
#1176=DIRECTION('center_axis',(0.,0.,1.));
#1177=DIRECTION('ref_axis',(8.88178419700124E-16,1.,0.));
#1178=DIRECTION('center_axis',(-0.884870008940693,0.465838026869101,0.));
#1179=DIRECTION('ref_axis',(0.465838026869101,0.884870008940693,0.));
#1180=DIRECTION('',(0.,0.,-1.));
#1181=DIRECTION('',(-0.465838026869101,-0.884870008940693,0.));
#1182=DIRECTION('center_axis',(0.,0.,1.));
#1183=DIRECTION('ref_axis',(-1.,0.,0.));
#1184=DIRECTION('center_axis',(0.,0.,1.));
#1185=DIRECTION('ref_axis',(-1.,0.,0.));
#1186=DIRECTION('center_axis',(0.,0.,1.));
#1187=DIRECTION('ref_axis',(-1.,0.,0.));
#1188=DIRECTION('center_axis',(0.,0.,1.));
#1189=DIRECTION('ref_axis',(-1.,0.,0.));
#1190=DIRECTION('center_axis',(0.,0.,1.));
#1191=DIRECTION('ref_axis',(-1.,0.,0.));
#1192=DIRECTION('center_axis',(0.,0.,1.));
#1193=DIRECTION('ref_axis',(-1.,0.,0.));
#1194=DIRECTION('center_axis',(0.,0.,1.));
#1195=DIRECTION('ref_axis',(-1.,0.,0.));
#1196=DIRECTION('',(-0.707106781186547,-8.65956056235493E-17,-0.707106781186548));
#1197=DIRECTION('center_axis',(0.,0.,-1.));
#1198=DIRECTION('ref_axis',(-1.,0.,0.));
#1199=DIRECTION('center_axis',(0.,0.,1.));
#1200=DIRECTION('ref_axis',(-1.,0.,0.));
#1201=DIRECTION('',(0.465838043852162,-0.884869999999995,0.));
#1202=DIRECTION('center_axis',(0.,0.,-1.));
#1203=DIRECTION('ref_axis',(0.884869999999995,0.465838043852163,0.));
#1204=DIRECTION('',(1.,-1.06751622068122E-15,0.));
#1205=DIRECTION('center_axis',(0.,0.,-1.));
#1206=DIRECTION('ref_axis',(8.88178419700124E-16,1.,0.));
#1207=DIRECTION('',(0.465838026869101,0.884870008940693,0.));
#1208=DIRECTION('center_axis',(0.,0.,-1.));
#1209=DIRECTION('ref_axis',(-0.884870008940697,0.465838026869095,0.));
#1210=DIRECTION('',(0.,1.,0.));
#1211=DIRECTION('center_axis',(0.,0.,-1.));
#1212=DIRECTION('ref_axis',(-1.,-4.44089209850062E-16,0.));
#1213=DIRECTION('',(-1.,1.20228114229366E-16,0.));
#1214=DIRECTION('center_axis',(0.,0.,-1.));
#1215=DIRECTION('ref_axis',(-1.33226762955019E-15,-1.,0.));
#1216=DIRECTION('',(0.,-1.,0.));
#1217=DIRECTION('center_axis',(0.,0.,-1.));
#1218=DIRECTION('ref_axis',(1.,9.99200722162637E-16,0.));
#1219=DIRECTION('center_axis',(0.,0.,1.));
#1220=DIRECTION('ref_axis',(-1.,0.,0.));
#1221=DIRECTION('center_axis',(0.,0.,1.));
#1222=DIRECTION('ref_axis',(-1.,0.,0.));
#1223=DIRECTION('center_axis',(0.,0.,1.));
#1224=DIRECTION('ref_axis',(-1.,0.,0.));
#1225=DIRECTION('center_axis',(0.,0.,-1.));
#1226=DIRECTION('ref_axis',(-1.,0.,0.));
#1227=DIRECTION('',(0.,0.,-1.));
#1228=DIRECTION('center_axis',(0.,0.,-1.));
#1229=DIRECTION('ref_axis',(-1.,0.,0.));
#1230=DIRECTION('center_axis',(0.,0.,1.));
#1231=DIRECTION('ref_axis',(-1.,0.,0.));
#1232=DIRECTION('center_axis',(0.,0.,-1.));
#1233=DIRECTION('ref_axis',(-1.,0.,0.));
#1234=DIRECTION('',(0.707106781186547,-8.65956056235493E-17,0.707106781186548));
#1235=DIRECTION('center_axis',(0.,0.,1.));
#1236=DIRECTION('ref_axis',(-1.,0.,0.));
#1237=DIRECTION('center_axis',(0.,0.,1.));
#1238=DIRECTION('ref_axis',(-1.,0.,0.));
#1239=DIRECTION('center_axis',(0.,0.,-1.));
#1240=DIRECTION('ref_axis',(-1.,0.,0.));
#1241=DIRECTION('',(0.,0.,1.));
#1242=DIRECTION('center_axis',(0.625697577468539,0.329397239742542,0.707106781186545));
#1243=DIRECTION('ref_axis',(0.748901925965835,0.,-0.66268084722939));
#1244=DIRECTION('',(0.625697577468531,0.329397239742543,-0.707106781186551));
#1245=DIRECTION('',(-0.625697577468534,-0.32939723974254,0.70710678118655));
#1246=DIRECTION('center_axis',(0.,0.,-1.));
#1247=DIRECTION('ref_axis',(1.,9.99200722162637E-16,0.));
#1248=DIRECTION('',(0.707106781186549,7.85046229341885E-16,-0.707106781186546));
#1249=DIRECTION('center_axis',(0.707106781186548,0.,0.707106781186548));
#1250=DIRECTION('ref_axis',(0.707106781186548,0.,-0.707106781186548));
#1251=DIRECTION('',(0.707106781186548,0.,-0.707106781186548));
#1252=DIRECTION('',(0.,1.,0.));
#1253=DIRECTION('center_axis',(0.,0.,-1.));
#1254=DIRECTION('ref_axis',(-1.33226762955019E-15,-1.,0.));
#1255=DIRECTION('',(0.,-0.707106781186547,-0.707106781186547));
#1256=DIRECTION('center_axis',(0.,0.,1.));
#1257=DIRECTION('ref_axis',(-1.33226762955019E-15,-1.,0.));
#1258=DIRECTION('center_axis',(-8.50141148608558E-17,-0.707106781186548,
0.707106781186548));
#1259=DIRECTION('ref_axis',(1.,0.,1.20228114229366E-16));
#1260=DIRECTION('',(3.14018491736752E-15,-0.707106781186557,-0.707106781186538));
#1261=DIRECTION('',(1.,-1.20228114229366E-16,0.));
#1262=DIRECTION('center_axis',(0.,0.,-1.));
#1263=DIRECTION('ref_axis',(-1.,-4.44089209850062E-16,0.));
#1264=DIRECTION('',(-0.707106781186546,0.,-0.707106781186549));
#1265=DIRECTION('center_axis',(0.,0.,1.));
#1266=DIRECTION('ref_axis',(-1.,-4.44089209850062E-16,0.));
#1267=DIRECTION('center_axis',(-0.707106781186548,0.,0.707106781186548));
#1268=DIRECTION('ref_axis',(0.707106781186548,0.,0.707106781186548));
#1269=DIRECTION('',(-0.707106781186548,-1.96261557335473E-16,-0.707106781186548));
#1270=DIRECTION('',(0.,-1.,0.));
#1271=DIRECTION('center_axis',(0.,0.,-1.));
#1272=DIRECTION('ref_axis',(-0.884870008940697,0.465838026869095,0.));
#1273=DIRECTION('',(-0.62569758379057,0.329397227733698,-0.707106781186545));
#1274=DIRECTION('center_axis',(0.,0.,1.));
#1275=DIRECTION('ref_axis',(-0.884870008940697,0.465838026869095,0.));
#1276=DIRECTION('center_axis',(-0.625697583790565,0.329397227733703,0.707106781186547));
#1277=DIRECTION('ref_axis',(0.748901922642873,0.,0.662680850984702));
#1278=DIRECTION('',(-0.625697583790568,0.329397227733699,-0.707106781186547));
#1279=DIRECTION('center_axis',(0.,0.,-1.));
#1280=DIRECTION('ref_axis',(8.88178419700124E-16,1.,0.));
#1281=DIRECTION('',(0.,0.707106781186546,-0.707106781186549));
#1282=DIRECTION('center_axis',(7.54847958670325E-16,0.707106781186548,0.707106781186548));
#1283=DIRECTION('ref_axis',(1.,0.,-1.06751622068122E-15));
#1284=DIRECTION('',(0.,0.707106781186548,-0.707106781186548));
#1285=DIRECTION('center_axis',(0.,0.,-1.));
#1286=DIRECTION('ref_axis',(0.884869999999995,0.465838043852162,0.));
#1287=DIRECTION('center_axis',(0.,0.,-1.));
#1288=DIRECTION('ref_axis',(-0.884870008940697,0.465838026869095,0.));
#1289=DIRECTION('',(0.,0.,-1.));
#1290=DIRECTION('center_axis',(1.,0.,0.));
#1291=DIRECTION('ref_axis',(0.,-1.,0.));
#1292=DIRECTION('',(0.,0.,-1.));
#1293=DIRECTION('center_axis',(0.,0.,-1.));
#1294=DIRECTION('ref_axis',(-1.33226762955019E-15,-1.,0.));
#1295=DIRECTION('',(0.,0.,-1.));
#1296=DIRECTION('center_axis',(-1.20228114229366E-16,-1.,0.));
#1297=DIRECTION('ref_axis',(-1.,1.20228114229366E-16,0.));
#1298=DIRECTION('',(0.,0.,-1.));
#1299=DIRECTION('center_axis',(0.,0.,-1.));
#1300=DIRECTION('ref_axis',(-1.,0.,0.));
#1301=DIRECTION('',(0.,0.,1.));
#1302=DIRECTION('center_axis',(0.,0.,-1.));
#1303=DIRECTION('ref_axis',(-1.,0.,0.));
#1304=DIRECTION('',(0.,0.,1.));
#1305=DIRECTION('center_axis',(0.,0.,-1.));
#1306=DIRECTION('ref_axis',(-1.,0.,0.));
#1307=DIRECTION('',(0.,0.,1.));
#1308=DIRECTION('center_axis',(-1.,0.,0.));
#1309=DIRECTION('ref_axis',(0.,1.,0.));
#1310=DIRECTION('',(0.,0.,-1.));
#1311=DIRECTION('center_axis',(0.,0.,-1.));
#1312=DIRECTION('ref_axis',(-1.,-4.44089209850062E-16,0.));
#1313=CARTESIAN_POINT('',(0.,0.,0.));
#1314=CARTESIAN_POINT('Origin',(36.5205516118175,-9.87150009685769,-30.2));
#1315=CARTESIAN_POINT('',(37.1038849451508,-9.87150009685769,-30.2));
#1316=CARTESIAN_POINT('Origin',(36.5205516118175,-9.87150009685769,-30.2));
#1317=CARTESIAN_POINT('',(37.1038849451508,-9.87150009685769,-35.4));
#1318=CARTESIAN_POINT('',(37.1038849451508,-9.87150009685769,-30.2));
#1319=CARTESIAN_POINT('Origin',(36.5205516118175,-9.87150009685769,-35.4));
#1320=CARTESIAN_POINT('Origin',(36.5205516118175,-9.87150009685769,-35.4));
#1321=CARTESIAN_POINT('Origin',(-36.5207813340855,-18.5381666666667,-30.2));
#1322=CARTESIAN_POINT('',(-35.9374480007521,-18.5381666666667,-30.2));
#1323=CARTESIAN_POINT('Origin',(-36.5207813340855,-18.5381666666667,-30.2));
#1324=CARTESIAN_POINT('',(-35.9374480007521,-18.5381666666667,-35.4));
#1325=CARTESIAN_POINT('',(-35.9374480007521,-18.5381666666667,-30.2));
#1326=CARTESIAN_POINT('Origin',(-36.5207813340855,-18.5381666666667,-35.4));
#1327=CARTESIAN_POINT('Origin',(-36.5207813340855,-18.5381666666667,-35.4));
#1328=CARTESIAN_POINT('Origin',(11.9163333333333,32.7434999031423,-30.2));
#1329=CARTESIAN_POINT('',(12.4996666666666,32.7434999031423,-30.2));
#1330=CARTESIAN_POINT('Origin',(11.9163333333333,32.7434999031423,-30.2));
#1331=CARTESIAN_POINT('',(12.4996666666666,32.7434999031423,-35.4));
#1332=CARTESIAN_POINT('',(12.4996666666666,32.7434999031423,-30.2));
#1333=CARTESIAN_POINT('Origin',(11.9163333333333,32.7434999031423,-35.4));
#1334=CARTESIAN_POINT('Origin',(11.9163333333333,32.7434999031423,-35.4));
#1335=CARTESIAN_POINT('Origin',(12.6872186659146,-18.5381666666667,-30.2));
#1336=CARTESIAN_POINT('',(13.270551999248,-18.5381666666667,-30.2));
#1337=CARTESIAN_POINT('Origin',(12.6872186659146,-18.5381666666667,-30.2));
#1338=CARTESIAN_POINT('',(13.270551999248,-18.5381666666667,-35.4));
#1339=CARTESIAN_POINT('',(13.270551999248,-18.5381666666667,-30.2));
#1340=CARTESIAN_POINT('Origin',(12.6872186659146,-18.5381666666667,-35.4));
#1341=CARTESIAN_POINT('Origin',(12.6872186659146,-18.5381666666667,-35.4));
#1342=CARTESIAN_POINT('Origin',(-12.6874483881826,-9.87150009685754,-30.2));
#1343=CARTESIAN_POINT('',(-12.1041150548493,-9.87150009685754,-30.2));
#1344=CARTESIAN_POINT('Origin',(-12.6874483881826,-9.87150009685754,-30.2));
#1345=CARTESIAN_POINT('',(-12.1041150548493,-9.87150009685754,-35.4));
#1346=CARTESIAN_POINT('',(-12.1041150548493,-9.87150009685754,-30.2));
#1347=CARTESIAN_POINT('Origin',(-12.6874483881826,-9.87150009685754,-35.4));
#1348=CARTESIAN_POINT('Origin',(-12.6874483881826,-9.87150009685754,-35.4));
#1349=CARTESIAN_POINT('Origin',(-11.9169996125696,24.0768333333332,-30.2));
#1350=CARTESIAN_POINT('',(-11.3336662792363,24.0768333333332,-30.2));
#1351=CARTESIAN_POINT('Origin',(-11.9169996125696,24.0768333333332,-30.2));
#1352=CARTESIAN_POINT('',(-11.3336662792363,24.0768333333332,-35.4));
#1353=CARTESIAN_POINT('',(-11.3336662792363,24.0768333333332,-30.2));
#1354=CARTESIAN_POINT('Origin',(-11.9169996125696,24.0768333333332,-35.4));
#1355=CARTESIAN_POINT('Origin',(-11.9169996125696,24.0768333333332,-35.4));
#1356=CARTESIAN_POINT('Origin',(-37.5263900419343,13.1229585168339,-59.5));
#1357=CARTESIAN_POINT('',(-24.5201835625493,38.9018802686908,-59.));
#1358=CARTESIAN_POINT('',(-23.6353135536086,38.4360422418217,-60.));
#1359=CARTESIAN_POINT('',(-24.5201835625493,38.9018802686908,-59.));
#1360=CARTESIAN_POINT('',(-42.9638300804662,1.72108209380265,-60.));
#1361=CARTESIAN_POINT('',(-37.083955037464,12.8900395033994,-60.));
#1362=CARTESIAN_POINT('',(-43.8487000894069,2.18692012067175,-59.));
#1363=CARTESIAN_POINT('',(-42.9638300804662,1.72108209380265,-60.));
#1364=CARTESIAN_POINT('',(-37.9688250464047,13.3558775302685,-59.));
#1365=CARTESIAN_POINT('Origin',(-15.6714834731423,34.2434999999998,-59.5));
#1366=CARTESIAN_POINT('',(-15.6714834731423,44.2434999999998,-59.));
#1367=CARTESIAN_POINT('',(-15.6714834731423,43.2434999999998,-60.));
#1368=CARTESIAN_POINT('',(-15.6714834731423,44.2434999999998,-59.));
#1369=CARTESIAN_POINT('Origin',(-15.6714834731423,34.2434999999998,-60.));
#1370=CARTESIAN_POINT('Origin',(-15.6714834731423,34.2434999999998,-59.));
#1371=CARTESIAN_POINT('Origin',(-7.35143716695011,43.7434999999998,-59.5));
#1372=CARTESIAN_POINT('',(17.6087010334068,44.2434999999998,-59.));
#1373=CARTESIAN_POINT('',(17.6087010334068,43.2434999999998,-60.));
#1374=CARTESIAN_POINT('',(17.6087010334068,44.2434999999998,-59.));
#1375=CARTESIAN_POINT('',(-7.35143716695011,43.2434999999998,-60.));
#1376=CARTESIAN_POINT('',(-7.35143716695011,44.2434999999998,-59.));
#1377=CARTESIAN_POINT('Origin',(17.6087010334068,34.2434999999997,-59.5));
#1378=CARTESIAN_POINT('',(26.4574010334068,38.9018804385214,-59.));
#1379=CARTESIAN_POINT('',(25.5725310334068,38.4360423946692,-60.));
#1380=CARTESIAN_POINT('',(26.4574010334068,38.9018804385214,-59.));
#1381=CARTESIAN_POINT('Origin',(17.6087010334068,34.2434999999997,-60.));
#1382=CARTESIAN_POINT('Origin',(17.6087010334068,34.2434999999997,-59.));
#1383=CARTESIAN_POINT('Origin',(29.7993493474265,31.4804389091048,-59.5));
#1384=CARTESIAN_POINT('',(45.7859182784841,2.18692063571208,-59.));
#1385=CARTESIAN_POINT('',(44.9010482784841,1.72108259185991,-60.));
#1386=CARTESIAN_POINT('',(45.7859182784841,2.18692063571208,-59.));
#1387=CARTESIAN_POINT('',(29.3569143474265,31.2475198871787,-60.));
#1388=CARTESIAN_POINT('',(30.2417843474265,31.7133579310308,-59.));
#1389=CARTESIAN_POINT('Origin',(36.9372182784841,-2.47145980280956,-59.5));
#1390=CARTESIAN_POINT('',(46.9372182784841,-2.47145980280955,-59.));
#1391=CARTESIAN_POINT('',(45.9372182784841,-2.47145980280955,-60.));
#1392=CARTESIAN_POINT('',(46.9372182784841,-2.47145980280955,-59.));
#1393=CARTESIAN_POINT('Origin',(36.9372182784841,-2.47145980280956,-60.));
#1394=CARTESIAN_POINT('Origin',(36.9372182784841,-2.47145980280956,-59.));
#1395=CARTESIAN_POINT('Origin',(46.4372182784841,2.32514498683646,-59.5));
#1396=CARTESIAN_POINT('',(46.9372182784841,-20.0000004470348,-59.));
#1397=CARTESIAN_POINT('',(45.9372182784841,-20.0000004470348,-60.));
#1398=CARTESIAN_POINT('',(46.9372182784841,-20.0000004470348,-59.));
#1399=CARTESIAN_POINT('',(45.9372182784841,2.32514498683646,-60.));
#1400=CARTESIAN_POINT('',(46.9372182784841,2.32514498683646,-59.));
#1401=CARTESIAN_POINT('Origin',(36.9372182784841,-20.0000004470349,-59.5));
#1402=CARTESIAN_POINT('',(36.9372182784841,-30.0000004470348,-59.));
#1403=CARTESIAN_POINT('',(36.9372182784841,-29.0000004470348,-60.));
#1404=CARTESIAN_POINT('',(36.9372182784841,-30.0000004470348,-59.));
#1405=CARTESIAN_POINT('Origin',(36.9372182784841,-20.0000004470349,-60.));
#1406=CARTESIAN_POINT('Origin',(36.9372182784841,-20.0000004470349,-59.));
#1407=CARTESIAN_POINT('Origin',(18.9529137088631,-29.5000004470348,-59.5));
#1408=CARTESIAN_POINT('',(-35.,-30.0000004470349,-59.));
#1409=CARTESIAN_POINT('',(-35.,-29.0000004470348,-60.));
#1410=CARTESIAN_POINT('',(-35.,-30.0000004470349,-59.));
#1411=CARTESIAN_POINT('',(18.9529137088631,-29.0000004470348,-60.));
#1412=CARTESIAN_POINT('',(18.9529137088631,-30.0000004470348,-59.));
#1413=CARTESIAN_POINT('Origin',(-35.,-20.0000004470349,-59.5));
#1414=CARTESIAN_POINT('',(-45.,-20.0000004470349,-59.));
#1415=CARTESIAN_POINT('',(-44.,-20.0000004470349,-60.));
#1416=CARTESIAN_POINT('',(-45.,-20.0000004470349,-59.));
#1417=CARTESIAN_POINT('Origin',(-35.,-20.0000004470349,-60.));
#1418=CARTESIAN_POINT('Origin',(-35.,-20.0000004470349,-59.));
#1419=CARTESIAN_POINT('Origin',(-44.5,-6.43912533527619,-59.5));
#1420=CARTESIAN_POINT('',(-45.,-2.47146014801926,-59.));
#1421=CARTESIAN_POINT('',(-44.,-2.47146014801926,-60.));
#1422=CARTESIAN_POINT('',(-45.,-2.47146014801926,-59.));
#1423=CARTESIAN_POINT('',(-44.,-6.43912533527619,-60.));
#1424=CARTESIAN_POINT('',(-45.,-6.43912533527619,-59.));
#1425=CARTESIAN_POINT('Origin',(-34.9999999999997,-2.47146014801931,-59.5));
#1426=CARTESIAN_POINT('Origin',(-34.9999999999997,-2.47146014801931,-60.));
#1427=CARTESIAN_POINT('Origin',(-34.9999999999997,-2.47146014801931,-59.));
#1428=CARTESIAN_POINT('Origin',(36.9372182784841,-2.47145980280956,-30.));
#1429=CARTESIAN_POINT('',(45.7859182784841,2.18692063571208,-31.2));
#1430=CARTESIAN_POINT('',(45.7859182784841,2.18692063571208,-30.));
#1431=CARTESIAN_POINT('',(46.9372182784841,-2.47145980280955,-31.2));
#1432=CARTESIAN_POINT('Origin',(36.9372182784841,-2.47145980280956,-31.2));
#1433=CARTESIAN_POINT('',(46.9372182784841,-2.47145980280955,-30.));
#1434=CARTESIAN_POINT('Origin',(26.4574010334068,38.9018804385214,-30.));
#1435=CARTESIAN_POINT('',(26.4574010334068,38.9018804385214,-31.2));
#1436=CARTESIAN_POINT('',(26.4574010334068,38.9018804385214,-30.));
#1437=CARTESIAN_POINT('',(30.2417843474265,31.7133579310308,-31.2));
#1438=CARTESIAN_POINT('Origin',(17.6087010334068,34.2434999999997,-30.));
#1439=CARTESIAN_POINT('',(17.6087010334068,44.2434999999998,-31.2));
#1440=CARTESIAN_POINT('',(17.6087010334068,44.2434999999998,-30.));
#1441=CARTESIAN_POINT('Origin',(17.6087010334068,34.2434999999997,-31.2));
#1442=CARTESIAN_POINT('Origin',(-15.6714834731423,44.2434999999998,-30.));
#1443=CARTESIAN_POINT('',(-15.6714834731423,44.2434999999998,-31.2));
#1444=CARTESIAN_POINT('',(-15.6714834731423,44.2434999999998,-30.));
#1445=CARTESIAN_POINT('',(-7.35143716695011,44.2434999999998,-31.2));
#1446=CARTESIAN_POINT('Origin',(-15.6714834731423,34.2434999999998,-30.));
#1447=CARTESIAN_POINT('',(-24.5201835625493,38.9018802686908,-31.2));
#1448=CARTESIAN_POINT('',(-24.5201835625493,38.9018802686908,-30.));
#1449=CARTESIAN_POINT('Origin',(-15.6714834731423,34.2434999999998,-31.2));
#1450=CARTESIAN_POINT('Origin',(-43.8487000894069,2.18692012067175,-30.));
#1451=CARTESIAN_POINT('',(-43.8487000894069,2.18692012067175,-31.2));
#1452=CARTESIAN_POINT('',(-43.8487000894069,2.18692012067175,-30.));
#1453=CARTESIAN_POINT('',(-37.9688250464047,13.3558775302685,-31.2));
#1454=CARTESIAN_POINT('Origin',(0.96860913924206,7.12174977648247,-60.));
#1455=CARTESIAN_POINT('',(2.,28.41,-60.));
#1456=CARTESIAN_POINT('Origin',(0.,28.41,-60.));
#1457=CARTESIAN_POINT('',(-22.6037817215159,-14.205,-60.));
#1458=CARTESIAN_POINT('Origin',(-24.6037817215159,-14.205,-60.));
#1459=CARTESIAN_POINT('',(3.6,0.,-60.));
#1460=CARTESIAN_POINT('Origin',(0.,0.,-60.));
#1461=CARTESIAN_POINT('',(26.6037817215159,-14.205,-60.));
#1462=CARTESIAN_POINT('Origin',(24.6037817215159,-14.205,-60.));
#1463=CARTESIAN_POINT('Origin',(0.,0.,-30.7));
#1464=CARTESIAN_POINT('',(7.00000008940697,8.57252770352343E-16,-30.2));
#1465=CARTESIAN_POINT('Origin',(0.,0.,-30.2));
#1466=CARTESIAN_POINT('',(6.00000008940697,-7.34788090437607E-16,-31.2));
#1467=CARTESIAN_POINT('',(6.50000008940697,7.96020430394975E-16,-30.7));
#1468=CARTESIAN_POINT('Origin',(0.,0.,-31.2));
#1469=CARTESIAN_POINT('Origin',(0.96860913924206,7.12174977648247,-30.2));
#1470=CARTESIAN_POINT('',(25.5725310334068,38.4360423946692,-30.2));
#1471=CARTESIAN_POINT('',(44.9010482784841,1.72108259185991,-30.2));
#1472=CARTESIAN_POINT('',(29.3569143474265,31.2475198871787,-30.2));
#1473=CARTESIAN_POINT('',(17.6087010334068,43.2434999999998,-30.2));
#1474=CARTESIAN_POINT('Origin',(17.6087010334068,34.2434999999997,-30.2));
#1475=CARTESIAN_POINT('',(-15.6714834731423,43.2434999999998,-30.2));
#1476=CARTESIAN_POINT('',(-7.35143716695011,43.2434999999998,-30.2));
#1477=CARTESIAN_POINT('',(-23.6353135536086,38.4360422418217,-30.2));
#1478=CARTESIAN_POINT('Origin',(-15.6714834731423,34.2434999999998,-30.2));
#1479=CARTESIAN_POINT('',(-42.9638300804662,1.72108209380266,-30.2));
#1480=CARTESIAN_POINT('',(-37.083955037464,12.8900395033994,-30.2));
#1481=CARTESIAN_POINT('',(-44.,-2.47146014801926,-30.2));
#1482=CARTESIAN_POINT('Origin',(-34.9999999999997,-2.47146014801931,-30.2));
#1483=CARTESIAN_POINT('',(-44.,-20.0000004470349,-30.2));
#1484=CARTESIAN_POINT('',(-44.,-6.43912533527619,-30.2));
#1485=CARTESIAN_POINT('',(-35.,-29.0000004470348,-30.2));
#1486=CARTESIAN_POINT('Origin',(-35.,-20.0000004470349,-30.2));
#1487=CARTESIAN_POINT('',(36.9372182784841,-29.0000004470348,-30.2));
#1488=CARTESIAN_POINT('',(18.9529137088631,-29.0000004470348,-30.2));
#1489=CARTESIAN_POINT('',(45.9372182784841,-20.0000004470348,-30.2));
#1490=CARTESIAN_POINT('Origin',(36.9372182784841,-20.0000004470349,-30.2));
#1491=CARTESIAN_POINT('',(45.9372182784841,-2.47145980280955,-30.2));
#1492=CARTESIAN_POINT('',(45.9372182784841,2.32514498683646,-30.2));
#1493=CARTESIAN_POINT('Origin',(36.9372182784841,-2.47145980280956,-30.2));
#1494=CARTESIAN_POINT('',(26.6037817215159,-14.205,-30.2));
#1495=CARTESIAN_POINT('Origin',(24.6037817215159,-14.205,-30.2));
#1496=CARTESIAN_POINT('',(-22.6037817215159,-14.205,-30.2));
#1497=CARTESIAN_POINT('Origin',(-24.6037817215159,-14.205,-30.2));
#1498=CARTESIAN_POINT('',(2.,28.41,-30.2));
#1499=CARTESIAN_POINT('Origin',(0.,28.41,-30.2));
#1500=CARTESIAN_POINT('Origin',(0.,0.,-30.));
#1501=CARTESIAN_POINT('',(6.00000008940697,7.34788090437607E-16,-35.));
#1502=CARTESIAN_POINT('',(6.00000008940697,-7.34788090437607E-16,-30.));
#1503=CARTESIAN_POINT('Origin',(0.,0.,-35.));
#1504=CARTESIAN_POINT('Origin',(0.,0.,-35.5));
#1505=CARTESIAN_POINT('',(3.6,-4.40872847693047E-16,-36.));
#1506=CARTESIAN_POINT('Origin',(0.,0.,-36.));
#1507=CARTESIAN_POINT('',(4.6,5.63337527607783E-16,-35.));
#1508=CARTESIAN_POINT('',(4.1,-5.02105187650415E-16,-35.5));
#1509=CARTESIAN_POINT('Origin',(0.,0.,-35.));
#1510=CARTESIAN_POINT('Origin',(0.,0.,-35.));
#1511=CARTESIAN_POINT('Origin',(0.,0.,-30.));
#1512=CARTESIAN_POINT('',(3.6,-4.40872847693047E-16,-30.));
#1513=CARTESIAN_POINT('Origin',(29.7993493474265,31.4804389091048,-30.7));
#1514=CARTESIAN_POINT('',(44.9010482784841,1.72108259185991,-30.2));
#1515=CARTESIAN_POINT('',(26.4574010334068,38.9018804385214,-31.2));
#1516=CARTESIAN_POINT('Origin',(36.9372182784841,-2.47145980280956,-30.7));
#1517=CARTESIAN_POINT('',(45.9372182784841,-2.47145980280955,-30.2));
#1518=CARTESIAN_POINT('Origin',(46.4372182784841,2.32514498683646,-30.7));
#1519=CARTESIAN_POINT('',(46.9372182784841,-20.0000004470348,-31.2));
#1520=CARTESIAN_POINT('',(45.9372182784841,-20.0000004470348,-30.2));
#1521=CARTESIAN_POINT('',(46.9372182784841,2.32514498683646,-31.2));
#1522=CARTESIAN_POINT('Origin',(36.9372182784841,-20.0000004470349,-30.7));
#1523=CARTESIAN_POINT('',(36.9372182784841,-30.0000004470348,-31.2));
#1524=CARTESIAN_POINT('',(36.9372182784841,-29.0000004470348,-30.2));
#1525=CARTESIAN_POINT('Origin',(36.9372182784841,-20.0000004470349,-31.2));
#1526=CARTESIAN_POINT('Origin',(18.9529137088631,-29.5000004470348,-30.7));
#1527=CARTESIAN_POINT('',(-35.,-30.0000004470349,-31.2));
#1528=CARTESIAN_POINT('',(-35.,-29.0000004470348,-30.2));
#1529=CARTESIAN_POINT('',(18.9529137088631,-30.0000004470348,-31.2));
#1530=CARTESIAN_POINT('Origin',(-35.,-20.0000004470349,-30.7));
#1531=CARTESIAN_POINT('',(-45.,-20.0000004470349,-31.2));
#1532=CARTESIAN_POINT('',(-44.,-20.0000004470349,-30.2));
#1533=CARTESIAN_POINT('Origin',(-35.,-20.0000004470349,-31.2));
#1534=CARTESIAN_POINT('Origin',(-44.5,-6.43912533527619,-30.7));
#1535=CARTESIAN_POINT('',(-45.,-2.47146014801926,-31.2));
#1536=CARTESIAN_POINT('',(-44.,-2.47146014801926,-30.2));
#1537=CARTESIAN_POINT('',(-45.,-6.43912533527619,-31.2));
#1538=CARTESIAN_POINT('Origin',(-34.9999999999997,-2.47146014801931,-30.7));
#1539=CARTESIAN_POINT('',(-42.9638300804662,1.72108209380266,-30.2));
#1540=CARTESIAN_POINT('Origin',(-34.9999999999997,-2.47146014801931,-31.2));
#1541=CARTESIAN_POINT('Origin',(-37.5263900419343,13.1229585168339,-30.7));
#1542=CARTESIAN_POINT('',(-23.6353135536086,38.4360422418217,-30.2));
#1543=CARTESIAN_POINT('Origin',(-15.6714834731423,34.2434999999998,-30.7));
#1544=CARTESIAN_POINT('',(-15.6714834731423,43.2434999999998,-30.2));
#1545=CARTESIAN_POINT('Origin',(-7.35143716695011,43.7434999999998,-30.7));
#1546=CARTESIAN_POINT('',(17.6087010334068,43.2434999999998,-30.2));
#1547=CARTESIAN_POINT('Origin',(17.6087010334068,34.2434999999997,-30.7));
#1548=CARTESIAN_POINT('Origin',(-34.9999999999997,-2.47146014801931,-30.));
#1549=CARTESIAN_POINT('',(-45.,-2.47146014801926,-30.));
#1550=CARTESIAN_POINT('Origin',(46.9372182784841,-2.47145980280955,-30.));
#1551=CARTESIAN_POINT('',(46.9372182784841,-20.0000004470348,-30.));
#1552=CARTESIAN_POINT('Origin',(36.9372182784841,-20.0000004470349,-30.));
#1553=CARTESIAN_POINT('',(36.9372182784841,-30.0000004470348,-30.));
#1554=CARTESIAN_POINT('Origin',(36.9372182784841,-30.0000004470348,-30.));
#1555=CARTESIAN_POINT('',(-35.,-30.0000004470349,-30.));
#1556=CARTESIAN_POINT('Origin',(0.,28.41,-30.));
#1557=CARTESIAN_POINT('',(2.,28.41,-30.));
#1558=CARTESIAN_POINT('Origin',(-24.6037817215159,-14.205,-30.));
#1559=CARTESIAN_POINT('',(-22.6037817215159,-14.205,-30.));
#1560=CARTESIAN_POINT('Origin',(24.6037817215159,-14.205,-30.));
#1561=CARTESIAN_POINT('',(26.6037817215159,-14.205,-30.));
#1562=CARTESIAN_POINT('Origin',(-45.,-20.0000004470349,-30.));
#1563=CARTESIAN_POINT('',(-45.,-20.0000004470349,-30.));
#1564=CARTESIAN_POINT('Origin',(-35.,-20.0000004470349,-30.));
#1565=UNCERTAINTY_MEASURE_WITH_UNIT(LENGTH_MEASURE(0.01),#1569,
'DISTANCE_ACCURACY_VALUE',
'Maximum model space distance between geometric entities at asserted c
onnectivities');
#1566=UNCERTAINTY_MEASURE_WITH_UNIT(LENGTH_MEASURE(0.01),#1569,
'DISTANCE_ACCURACY_VALUE',
'Maximum model space distance between geometric entities at asserted c
onnectivities');
#1567=(
GEOMETRIC_REPRESENTATION_CONTEXT(3)
GLOBAL_UNCERTAINTY_ASSIGNED_CONTEXT((#1565))
GLOBAL_UNIT_ASSIGNED_CONTEXT((#1569,#1571,#1572))
REPRESENTATION_CONTEXT('','3D')
);
#1568=(
GEOMETRIC_REPRESENTATION_CONTEXT(3)
GLOBAL_UNCERTAINTY_ASSIGNED_CONTEXT((#1566))
GLOBAL_UNIT_ASSIGNED_CONTEXT((#1569,#1571,#1572))
REPRESENTATION_CONTEXT('','3D')
);
#1569=(
LENGTH_UNIT()
NAMED_UNIT(*)
SI_UNIT(.MILLI.,.METRE.)
);
#1570=(
LENGTH_UNIT()
NAMED_UNIT(*)
SI_UNIT($,.METRE.)
);
#1571=(
NAMED_UNIT(*)
PLANE_ANGLE_UNIT()
SI_UNIT($,.RADIAN.)
);
#1572=(
NAMED_UNIT(*)
SI_UNIT($,.STERADIAN.)
SOLID_ANGLE_UNIT()
);
#1573=SHAPE_DEFINITION_REPRESENTATION(#1574,#1575);
#1574=PRODUCT_DEFINITION_SHAPE('',$,#1577);
#1575=SHAPE_REPRESENTATION('',(#919),#1567);
#1576=PRODUCT_DEFINITION_CONTEXT('part definition',#1581,'design');
#1577=PRODUCT_DEFINITION('2026-06-20-16-44-00-323','FusionComponent',#1578,
#1576);
#1578=PRODUCT_DEFINITION_FORMATION('',$,#1583);
#1579=PRODUCT_RELATED_PRODUCT_CATEGORY('FusionComponent',
'FusionComponent',(#1583));
#1580=APPLICATION_PROTOCOL_DEFINITION('international standard',
'automotive_design',2009,#1581);
#1581=APPLICATION_CONTEXT(
'Core Data for Automotive Mechanical Design Process');
#1582=PRODUCT_CONTEXT('part definition',#1581,'mechanical');
#1583=PRODUCT('2026-06-20-16-44-00-323','FusionComponent',$,(#1582));
#1584=PRESENTATION_STYLE_ASSIGNMENT((#1585));
#1585=SURFACE_STYLE_USAGE(.BOTH.,#1586);
#1586=SURFACE_SIDE_STYLE('',(#1587));
#1587=SURFACE_STYLE_FILL_AREA(#1588);
#1588=FILL_AREA_STYLE('Steel - Satin',(#1589));
#1589=FILL_AREA_STYLE_COLOUR('Steel - Satin',#1590);
#1590=COLOUR_RGB('Steel - Satin',0.627450980392157,0.627450980392157,0.627450980392157);
ENDSEC;
END-ISO-10303-21;
