ISO-10303-21;
HEADER;
/* Generated by software containing ST-Developer
 * from STEP Tools, Inc. (www.steptools.com) 
 */

FILE_DESCRIPTION(
/* description */ (''),
/* implementation_level */ '2;1');

FILE_NAME(
/* name */ 'Electronics Hub Part A.step',
/* time_stamp */ '2026-06-20T12:34:47-05:00',
/* author */ (''),
/* organization */ (''),
/* preprocessor_version */ 'ST-DEVELOPER v20.1',
/* originating_system */ 'Autodesk Translation Framework v15.8.0.0',
/* authorisation */ '');

FILE_SCHEMA (('AUTOMOTIVE_DESIGN { 1 0 10303 214 3 1 1 }'));
ENDSEC;

DATA;
#10=MECHANICAL_DESIGN_GEOMETRIC_PRESENTATION_REPRESENTATION('',(#13),#1050);
#11=SHAPE_REPRESENTATION_RELATIONSHIP('SRR','None',#1057,#12);
#12=ADVANCED_BREP_SHAPE_REPRESENTATION('',(#14),#1049);
#13=STYLED_ITEM('',(#1066),#14);
#14=MANIFOLD_SOLID_BREP('Body1',#622);
#15=FACE_BOUND('',#84,.T.);
#16=FACE_BOUND('',#85,.T.);
#17=FACE_BOUND('',#86,.T.);
#18=FACE_BOUND('',#87,.T.);
#19=FACE_BOUND('',#92,.T.);
#20=FACE_BOUND('',#93,.T.);
#21=FACE_BOUND('',#94,.T.);
#22=FACE_BOUND('',#95,.T.);
#23=CYLINDRICAL_SURFACE('',#638,30.);
#24=CYLINDRICAL_SURFACE('',#642,1.);
#25=CYLINDRICAL_SURFACE('',#648,1.);
#26=CYLINDRICAL_SURFACE('',#654,5.00000000000018);
#27=CYLINDRICAL_SURFACE('',#661,5.);
#28=CYLINDRICAL_SURFACE('',#670,5.);
#29=CYLINDRICAL_SURFACE('',#671,5.);
#30=CYLINDRICAL_SURFACE('',#674,5.);
#31=CYLINDRICAL_SURFACE('',#683,5.);
#32=CYLINDRICAL_SURFACE('',#685,0.500000000000007);
#33=CYLINDRICAL_SURFACE('',#686,0.499999999999989);
#34=CYLINDRICAL_SURFACE('',#687,0.500000000000007);
#35=CYLINDRICAL_SURFACE('',#688,0.499999999999989);
#36=FACE_OUTER_BOUND('',#67,.T.);
#37=FACE_OUTER_BOUND('',#68,.T.);
#38=FACE_OUTER_BOUND('',#69,.T.);
#39=FACE_OUTER_BOUND('',#70,.T.);
#40=FACE_OUTER_BOUND('',#71,.T.);
#41=FACE_OUTER_BOUND('',#72,.T.);
#42=FACE_OUTER_BOUND('',#73,.T.);
#43=FACE_OUTER_BOUND('',#74,.T.);
#44=FACE_OUTER_BOUND('',#75,.T.);
#45=FACE_OUTER_BOUND('',#76,.T.);
#46=FACE_OUTER_BOUND('',#77,.T.);
#47=FACE_OUTER_BOUND('',#78,.T.);
#48=FACE_OUTER_BOUND('',#79,.T.);
#49=FACE_OUTER_BOUND('',#80,.T.);
#50=FACE_OUTER_BOUND('',#81,.T.);
#51=FACE_OUTER_BOUND('',#82,.T.);
#52=FACE_OUTER_BOUND('',#83,.T.);
#53=FACE_OUTER_BOUND('',#88,.T.);
#54=FACE_OUTER_BOUND('',#89,.T.);
#55=FACE_OUTER_BOUND('',#90,.T.);
#56=FACE_OUTER_BOUND('',#91,.T.);
#57=FACE_OUTER_BOUND('',#96,.T.);
#58=FACE_OUTER_BOUND('',#97,.T.);
#59=FACE_OUTER_BOUND('',#98,.T.);
#60=FACE_OUTER_BOUND('',#99,.T.);
#61=FACE_OUTER_BOUND('',#100,.T.);
#62=FACE_OUTER_BOUND('',#101,.T.);
#63=FACE_OUTER_BOUND('',#102,.T.);
#64=FACE_OUTER_BOUND('',#103,.T.);
#65=FACE_OUTER_BOUND('',#104,.T.);
#66=FACE_OUTER_BOUND('',#105,.T.);
#67=EDGE_LOOP('',(#399,#400,#401));
#68=EDGE_LOOP('',(#402,#403,#404,#405));
#69=EDGE_LOOP('',(#406,#407,#408,#409,#410,#411,#412,#413,#414,#415,#416,
#417));
#70=EDGE_LOOP('',(#418,#419,#420,#421,#422,#423,#424,#425,#426,#427,#428,
#429));
#71=EDGE_LOOP('',(#430,#431,#432,#433));
#72=EDGE_LOOP('',(#434,#435,#436,#437,#438,#439));
#73=EDGE_LOOP('',(#440,#441,#442,#443));
#74=EDGE_LOOP('',(#444,#445,#446,#447));
#75=EDGE_LOOP('',(#448,#449,#450,#451));
#76=EDGE_LOOP('',(#452,#453,#454,#455,#456,#457));
#77=EDGE_LOOP('',(#458,#459,#460,#461));
#78=EDGE_LOOP('',(#462,#463,#464,#465));
#79=EDGE_LOOP('',(#466,#467,#468,#469));
#80=EDGE_LOOP('',(#470,#471,#472,#473,#474,#475));
#81=EDGE_LOOP('',(#476,#477,#478,#479,#480,#481,#482,#483));
#82=EDGE_LOOP('',(#484,#485,#486,#487));
#83=EDGE_LOOP('',(#488,#489,#490,#491,#492,#493));
#84=EDGE_LOOP('',(#494));
#85=EDGE_LOOP('',(#495));
#86=EDGE_LOOP('',(#496));
#87=EDGE_LOOP('',(#497));
#88=EDGE_LOOP('',(#498,#499,#500,#501));
#89=EDGE_LOOP('',(#502,#503,#504,#505));
#90=EDGE_LOOP('',(#506,#507,#508,#509));
#91=EDGE_LOOP('',(#510,#511,#512,#513,#514,#515,#516));
#92=EDGE_LOOP('',(#517));
#93=EDGE_LOOP('',(#518));
#94=EDGE_LOOP('',(#519));
#95=EDGE_LOOP('',(#520));
#96=EDGE_LOOP('',(#521,#522,#523,#524));
#97=EDGE_LOOP('',(#525,#526,#527,#528));
#98=EDGE_LOOP('',(#529,#530,#531,#532));
#99=EDGE_LOOP('',(#533,#534,#535,#536));
#100=EDGE_LOOP('',(#537,#538,#539,#540));
#101=EDGE_LOOP('',(#541,#542,#543,#544));
#102=EDGE_LOOP('',(#545,#546,#547,#548));
#103=EDGE_LOOP('',(#549,#550,#551,#552,#553,#554,#555,#556,#557,#558));
#104=EDGE_LOOP('',(#559,#560,#561,#562,#563,#564,#565,#566,#567,#568));
#105=EDGE_LOOP('',(#569,#570,#571,#572));
#106=CIRCLE('',#637,30.);
#107=CIRCLE('',#639,30.);
#108=CIRCLE('',#643,1.);
#109=CIRCLE('',#644,1.);
#110=CIRCLE('',#646,1.);
#111=CIRCLE('',#649,1.);
#112=CIRCLE('',#652,5.);
#113=CIRCLE('',#653,5.00000000000018);
#114=CIRCLE('',#655,5.00000000000018);
#115=CIRCLE('',#659,5.);
#116=CIRCLE('',#662,5.);
#117=CIRCLE('',#664,5.);
#118=CIRCLE('',#665,5.);
#119=CIRCLE('',#666,0.499999999999989);
#120=CIRCLE('',#667,0.500000000000007);
#121=CIRCLE('',#668,0.499999999999989);
#122=CIRCLE('',#669,0.500000000000007);
#123=CIRCLE('',#672,5.);
#124=CIRCLE('',#673,5.);
#125=CIRCLE('',#675,5.);
#126=CIRCLE('',#676,5.);
#127=CIRCLE('',#678,0.500000000000007);
#128=CIRCLE('',#679,0.499999999999989);
#129=CIRCLE('',#680,0.500000000000007);
#130=CIRCLE('',#681,0.499999999999989);
#131=CIRCLE('',#684,5.);
#132=LINE('',#874,#193);
#133=LINE('',#877,#194);
#134=LINE('',#880,#195);
#135=LINE('',#883,#196);
#136=LINE('',#886,#197);
#137=LINE('',#888,#198);
#138=LINE('',#890,#199);
#139=LINE('',#892,#200);
#140=LINE('',#894,#201);
#141=LINE('',#896,#202);
#142=LINE('',#898,#203);
#143=LINE('',#900,#204);
#144=LINE('',#902,#205);
#145=LINE('',#903,#206);
#146=LINE('',#906,#207);
#147=LINE('',#908,#208);
#148=LINE('',#910,#209);
#149=LINE('',#912,#210);
#150=LINE('',#914,#211);
#151=LINE('',#916,#212);
#152=LINE('',#918,#213);
#153=LINE('',#920,#214);
#154=LINE('',#921,#215);
#155=LINE('',#927,#216);
#156=LINE('',#930,#217);
#157=LINE('',#933,#218);
#158=LINE('',#936,#219);
#159=LINE('',#937,#220);
#160=LINE('',#940,#221);
#161=LINE('',#941,#222);
#162=LINE('',#945,#223);
#163=LINE('',#947,#224);
#164=LINE('',#952,#225);
#165=LINE('',#954,#226);
#166=LINE('',#956,#227);
#167=LINE('',#960,#228);
#168=LINE('',#964,#229);
#169=LINE('',#965,#230);
#170=LINE('',#968,#231);
#171=LINE('',#969,#232);
#172=LINE('',#972,#233);
#173=LINE('',#976,#234);
#174=LINE('',#978,#235);
#175=LINE('',#980,#236);
#176=LINE('',#982,#237);
#177=LINE('',#983,#238);
#178=LINE('',#990,#239);
#179=LINE('',#1004,#240);
#180=LINE('',#1011,#241);
#181=LINE('',#1014,#242);
#182=LINE('',#1016,#243);
#183=LINE('',#1017,#244);
#184=LINE('',#1027,#245);
#185=LINE('',#1031,#246);
#186=LINE('',#1033,#247);
#187=LINE('',#1035,#248);
#188=LINE('',#1037,#249);
#189=LINE('',#1039,#250);
#190=LINE('',#1041,#251);
#191=LINE('',#1043,#252);
#192=LINE('',#1045,#253);
#193=VECTOR('',#697,10.);
#194=VECTOR('',#700,10.);
#195=VECTOR('',#703,10.);
#196=VECTOR('',#706,10.);
#197=VECTOR('',#709,10.);
#198=VECTOR('',#710,10.);
#199=VECTOR('',#711,10.);
#200=VECTOR('',#712,10.);
#201=VECTOR('',#713,10.);
#202=VECTOR('',#714,10.);
#203=VECTOR('',#715,10.);
#204=VECTOR('',#716,10.);
#205=VECTOR('',#717,10.);
#206=VECTOR('',#718,10.);
#207=VECTOR('',#721,10.);
#208=VECTOR('',#722,10.);
#209=VECTOR('',#723,10.);
#210=VECTOR('',#724,10.);
#211=VECTOR('',#725,10.);
#212=VECTOR('',#726,10.);
#213=VECTOR('',#727,10.);
#214=VECTOR('',#728,10.);
#215=VECTOR('',#729,10.);
#216=VECTOR('',#734,10.);
#217=VECTOR('',#737,10.);
#218=VECTOR('',#740,10.);
#219=VECTOR('',#743,10.);
#220=VECTOR('',#744,10.);
#221=VECTOR('',#747,10.);
#222=VECTOR('',#748,10.);
#223=VECTOR('',#753,10.);
#224=VECTOR('',#756,10.);
#225=VECTOR('',#761,10.);
#226=VECTOR('',#762,10.);
#227=VECTOR('',#763,10.);
#228=VECTOR('',#768,10.);
#229=VECTOR('',#773,10.);
#230=VECTOR('',#774,10.);
#231=VECTOR('',#777,10.);
#232=VECTOR('',#778,10.);
#233=VECTOR('',#781,10.);
#234=VECTOR('',#786,10.);
#235=VECTOR('',#787,10.);
#236=VECTOR('',#788,10.);
#237=VECTOR('',#789,10.);
#238=VECTOR('',#790,10.);
#239=VECTOR('',#801,10.);
#240=VECTOR('',#816,10.);
#241=VECTOR('',#823,10.);
#242=VECTOR('',#826,10.);
#243=VECTOR('',#829,10.);
#244=VECTOR('',#830,10.);
#245=VECTOR('',#841,10.);
#246=VECTOR('',#846,10.);
#247=VECTOR('',#849,0.500000000000007);
#248=VECTOR('',#852,0.499999999999989);
#249=VECTOR('',#855,0.500000000000007);
#250=VECTOR('',#858,0.499999999999989);
#251=VECTOR('',#861,10.);
#252=VECTOR('',#864,10.);
#253=VECTOR('',#867,10.);
#254=VERTEX_POINT('',#872);
#255=VERTEX_POINT('',#873);
#256=VERTEX_POINT('',#875);
#257=VERTEX_POINT('',#879);
#258=VERTEX_POINT('',#881);
#259=VERTEX_POINT('',#885);
#260=VERTEX_POINT('',#887);
#261=VERTEX_POINT('',#889);
#262=VERTEX_POINT('',#891);
#263=VERTEX_POINT('',#893);
#264=VERTEX_POINT('',#895);
#265=VERTEX_POINT('',#897);
#266=VERTEX_POINT('',#899);
#267=VERTEX_POINT('',#901);
#268=VERTEX_POINT('',#905);
#269=VERTEX_POINT('',#907);
#270=VERTEX_POINT('',#909);
#271=VERTEX_POINT('',#911);
#272=VERTEX_POINT('',#913);
#273=VERTEX_POINT('',#915);
#274=VERTEX_POINT('',#917);
#275=VERTEX_POINT('',#919);
#276=VERTEX_POINT('',#923);
#277=VERTEX_POINT('',#924);
#278=VERTEX_POINT('',#926);
#279=VERTEX_POINT('',#928);
#280=VERTEX_POINT('',#932);
#281=VERTEX_POINT('',#934);
#282=VERTEX_POINT('',#939);
#283=VERTEX_POINT('',#943);
#284=VERTEX_POINT('',#949);
#285=VERTEX_POINT('',#951);
#286=VERTEX_POINT('',#953);
#287=VERTEX_POINT('',#955);
#288=VERTEX_POINT('',#959);
#289=VERTEX_POINT('',#963);
#290=VERTEX_POINT('',#967);
#291=VERTEX_POINT('',#971);
#292=VERTEX_POINT('',#975);
#293=VERTEX_POINT('',#977);
#294=VERTEX_POINT('',#979);
#295=VERTEX_POINT('',#981);
#296=VERTEX_POINT('',#988);
#297=VERTEX_POINT('',#991);
#298=VERTEX_POINT('',#993);
#299=VERTEX_POINT('',#995);
#300=VERTEX_POINT('',#997);
#301=VERTEX_POINT('',#1001);
#302=VERTEX_POINT('',#1003);
#303=VERTEX_POINT('',#1007);
#304=VERTEX_POINT('',#1008);
#305=VERTEX_POINT('',#1010);
#306=VERTEX_POINT('',#1012);
#307=VERTEX_POINT('',#1018);
#308=VERTEX_POINT('',#1020);
#309=VERTEX_POINT('',#1022);
#310=VERTEX_POINT('',#1024);
#311=VERTEX_POINT('',#1029);
#312=EDGE_CURVE('',#254,#255,#132,.T.);
#313=EDGE_CURVE('',#256,#254,#106,.T.);
#314=EDGE_CURVE('',#255,#256,#133,.T.);
#315=EDGE_CURVE('',#257,#254,#134,.T.);
#316=EDGE_CURVE('',#258,#257,#107,.T.);
#317=EDGE_CURVE('',#256,#258,#135,.T.);
#318=EDGE_CURVE('',#255,#259,#136,.T.);
#319=EDGE_CURVE('',#259,#260,#137,.T.);
#320=EDGE_CURVE('',#260,#261,#138,.T.);
#321=EDGE_CURVE('',#261,#262,#139,.T.);
#322=EDGE_CURVE('',#262,#263,#140,.T.);
#323=EDGE_CURVE('',#263,#264,#141,.T.);
#324=EDGE_CURVE('',#264,#265,#142,.T.);
#325=EDGE_CURVE('',#265,#266,#143,.T.);
#326=EDGE_CURVE('',#266,#267,#144,.T.);
#327=EDGE_CURVE('',#267,#257,#145,.T.);
#328=EDGE_CURVE('',#258,#268,#146,.T.);
#329=EDGE_CURVE('',#268,#269,#147,.T.);
#330=EDGE_CURVE('',#269,#270,#148,.T.);
#331=EDGE_CURVE('',#270,#271,#149,.T.);
#332=EDGE_CURVE('',#271,#272,#150,.T.);
#333=EDGE_CURVE('',#272,#273,#151,.T.);
#334=EDGE_CURVE('',#273,#274,#152,.T.);
#335=EDGE_CURVE('',#274,#275,#153,.T.);
#336=EDGE_CURVE('',#275,#259,#154,.T.);
#337=EDGE_CURVE('',#276,#277,#108,.T.);
#338=EDGE_CURVE('',#276,#278,#155,.T.);
#339=EDGE_CURVE('',#278,#279,#109,.T.);
#340=EDGE_CURVE('',#279,#277,#156,.T.);
#341=EDGE_CURVE('',#280,#277,#157,.T.);
#342=EDGE_CURVE('',#280,#281,#110,.T.);
#343=EDGE_CURVE('',#263,#281,#158,.T.);
#344=EDGE_CURVE('',#276,#262,#159,.T.);
#345=EDGE_CURVE('',#282,#279,#160,.T.);
#346=EDGE_CURVE('',#280,#282,#161,.T.);
#347=EDGE_CURVE('',#282,#283,#111,.T.);
#348=EDGE_CURVE('',#283,#281,#162,.T.);
#349=EDGE_CURVE('',#264,#283,#163,.T.);
#350=EDGE_CURVE('',#284,#271,#112,.T.);
#351=EDGE_CURVE('',#285,#284,#164,.T.);
#352=EDGE_CURVE('',#285,#286,#165,.T.);
#353=EDGE_CURVE('',#286,#287,#166,.T.);
#354=EDGE_CURVE('',#287,#272,#113,.T.);
#355=EDGE_CURVE('',#287,#288,#167,.T.);
#356=EDGE_CURVE('',#288,#273,#114,.T.);
#357=EDGE_CURVE('',#286,#289,#168,.T.);
#358=EDGE_CURVE('',#289,#288,#169,.T.);
#359=EDGE_CURVE('',#290,#285,#170,.T.);
#360=EDGE_CURVE('',#290,#289,#171,.T.);
#361=EDGE_CURVE('',#291,#290,#172,.T.);
#362=EDGE_CURVE('',#274,#291,#115,.T.);
#363=EDGE_CURVE('',#292,#284,#173,.T.);
#364=EDGE_CURVE('',#293,#292,#174,.T.);
#365=EDGE_CURVE('',#294,#293,#175,.T.);
#366=EDGE_CURVE('',#295,#294,#176,.T.);
#367=EDGE_CURVE('',#291,#295,#177,.T.);
#368=EDGE_CURVE('',#270,#292,#116,.T.);
#369=EDGE_CURVE('',#295,#275,#117,.T.);
#370=EDGE_CURVE('',#296,#294,#118,.T.);
#371=EDGE_CURVE('',#296,#260,#178,.T.);
#372=EDGE_CURVE('',#297,#297,#119,.T.);
#373=EDGE_CURVE('',#298,#298,#120,.T.);
#374=EDGE_CURVE('',#299,#299,#121,.T.);
#375=EDGE_CURVE('',#300,#300,#122,.T.);
#376=EDGE_CURVE('',#301,#268,#123,.T.);
#377=EDGE_CURVE('',#301,#302,#179,.T.);
#378=EDGE_CURVE('',#302,#269,#124,.T.);
#379=EDGE_CURVE('',#303,#304,#125,.T.);
#380=EDGE_CURVE('',#303,#305,#180,.T.);
#381=EDGE_CURVE('',#305,#306,#126,.T.);
#382=EDGE_CURVE('',#306,#304,#181,.T.);
#383=EDGE_CURVE('',#267,#303,#182,.T.);
#384=EDGE_CURVE('',#304,#301,#183,.T.);
#385=EDGE_CURVE('',#307,#307,#127,.T.);
#386=EDGE_CURVE('',#308,#308,#128,.T.);
#387=EDGE_CURVE('',#309,#309,#129,.T.);
#388=EDGE_CURVE('',#310,#310,#130,.T.);
#389=EDGE_CURVE('',#302,#306,#184,.T.);
#390=EDGE_CURVE('',#293,#311,#131,.T.);
#391=EDGE_CURVE('',#311,#296,#185,.T.);
#392=EDGE_CURVE('',#307,#300,#186,.T.);
#393=EDGE_CURVE('',#308,#299,#187,.T.);
#394=EDGE_CURVE('',#309,#298,#188,.T.);
#395=EDGE_CURVE('',#310,#297,#189,.T.);
#396=EDGE_CURVE('',#278,#261,#190,.T.);
#397=EDGE_CURVE('',#265,#311,#191,.T.);
#398=EDGE_CURVE('',#305,#266,#192,.T.);
#399=ORIENTED_EDGE('',*,*,#312,.F.);
#400=ORIENTED_EDGE('',*,*,#313,.F.);
#401=ORIENTED_EDGE('',*,*,#314,.F.);
#402=ORIENTED_EDGE('',*,*,#315,.F.);
#403=ORIENTED_EDGE('',*,*,#316,.F.);
#404=ORIENTED_EDGE('',*,*,#317,.F.);
#405=ORIENTED_EDGE('',*,*,#313,.T.);
#406=ORIENTED_EDGE('',*,*,#315,.T.);
#407=ORIENTED_EDGE('',*,*,#312,.T.);
#408=ORIENTED_EDGE('',*,*,#318,.T.);
#409=ORIENTED_EDGE('',*,*,#319,.T.);
#410=ORIENTED_EDGE('',*,*,#320,.T.);
#411=ORIENTED_EDGE('',*,*,#321,.T.);
#412=ORIENTED_EDGE('',*,*,#322,.T.);
#413=ORIENTED_EDGE('',*,*,#323,.T.);
#414=ORIENTED_EDGE('',*,*,#324,.T.);
#415=ORIENTED_EDGE('',*,*,#325,.T.);
#416=ORIENTED_EDGE('',*,*,#326,.T.);
#417=ORIENTED_EDGE('',*,*,#327,.T.);
#418=ORIENTED_EDGE('',*,*,#314,.T.);
#419=ORIENTED_EDGE('',*,*,#317,.T.);
#420=ORIENTED_EDGE('',*,*,#328,.T.);
#421=ORIENTED_EDGE('',*,*,#329,.T.);
#422=ORIENTED_EDGE('',*,*,#330,.T.);
#423=ORIENTED_EDGE('',*,*,#331,.T.);
#424=ORIENTED_EDGE('',*,*,#332,.T.);
#425=ORIENTED_EDGE('',*,*,#333,.T.);
#426=ORIENTED_EDGE('',*,*,#334,.T.);
#427=ORIENTED_EDGE('',*,*,#335,.T.);
#428=ORIENTED_EDGE('',*,*,#336,.T.);
#429=ORIENTED_EDGE('',*,*,#318,.F.);
#430=ORIENTED_EDGE('',*,*,#337,.F.);
#431=ORIENTED_EDGE('',*,*,#338,.T.);
#432=ORIENTED_EDGE('',*,*,#339,.T.);
#433=ORIENTED_EDGE('',*,*,#340,.T.);
#434=ORIENTED_EDGE('',*,*,#337,.T.);
#435=ORIENTED_EDGE('',*,*,#341,.F.);
#436=ORIENTED_EDGE('',*,*,#342,.T.);
#437=ORIENTED_EDGE('',*,*,#343,.F.);
#438=ORIENTED_EDGE('',*,*,#322,.F.);
#439=ORIENTED_EDGE('',*,*,#344,.F.);
#440=ORIENTED_EDGE('',*,*,#340,.F.);
#441=ORIENTED_EDGE('',*,*,#345,.F.);
#442=ORIENTED_EDGE('',*,*,#346,.F.);
#443=ORIENTED_EDGE('',*,*,#341,.T.);
#444=ORIENTED_EDGE('',*,*,#342,.F.);
#445=ORIENTED_EDGE('',*,*,#346,.T.);
#446=ORIENTED_EDGE('',*,*,#347,.T.);
#447=ORIENTED_EDGE('',*,*,#348,.T.);
#448=ORIENTED_EDGE('',*,*,#348,.F.);
#449=ORIENTED_EDGE('',*,*,#349,.F.);
#450=ORIENTED_EDGE('',*,*,#323,.F.);
#451=ORIENTED_EDGE('',*,*,#343,.T.);
#452=ORIENTED_EDGE('',*,*,#332,.F.);
#453=ORIENTED_EDGE('',*,*,#350,.F.);
#454=ORIENTED_EDGE('',*,*,#351,.F.);
#455=ORIENTED_EDGE('',*,*,#352,.T.);
#456=ORIENTED_EDGE('',*,*,#353,.T.);
#457=ORIENTED_EDGE('',*,*,#354,.T.);
#458=ORIENTED_EDGE('',*,*,#333,.F.);
#459=ORIENTED_EDGE('',*,*,#354,.F.);
#460=ORIENTED_EDGE('',*,*,#355,.T.);
#461=ORIENTED_EDGE('',*,*,#356,.T.);
#462=ORIENTED_EDGE('',*,*,#353,.F.);
#463=ORIENTED_EDGE('',*,*,#357,.T.);
#464=ORIENTED_EDGE('',*,*,#358,.T.);
#465=ORIENTED_EDGE('',*,*,#355,.F.);
#466=ORIENTED_EDGE('',*,*,#352,.F.);
#467=ORIENTED_EDGE('',*,*,#359,.F.);
#468=ORIENTED_EDGE('',*,*,#360,.T.);
#469=ORIENTED_EDGE('',*,*,#357,.F.);
#470=ORIENTED_EDGE('',*,*,#334,.F.);
#471=ORIENTED_EDGE('',*,*,#356,.F.);
#472=ORIENTED_EDGE('',*,*,#358,.F.);
#473=ORIENTED_EDGE('',*,*,#360,.F.);
#474=ORIENTED_EDGE('',*,*,#361,.F.);
#475=ORIENTED_EDGE('',*,*,#362,.F.);
#476=ORIENTED_EDGE('',*,*,#361,.T.);
#477=ORIENTED_EDGE('',*,*,#359,.T.);
#478=ORIENTED_EDGE('',*,*,#351,.T.);
#479=ORIENTED_EDGE('',*,*,#363,.F.);
#480=ORIENTED_EDGE('',*,*,#364,.F.);
#481=ORIENTED_EDGE('',*,*,#365,.F.);
#482=ORIENTED_EDGE('',*,*,#366,.F.);
#483=ORIENTED_EDGE('',*,*,#367,.F.);
#484=ORIENTED_EDGE('',*,*,#350,.T.);
#485=ORIENTED_EDGE('',*,*,#331,.F.);
#486=ORIENTED_EDGE('',*,*,#368,.T.);
#487=ORIENTED_EDGE('',*,*,#363,.T.);
#488=ORIENTED_EDGE('',*,*,#319,.F.);
#489=ORIENTED_EDGE('',*,*,#336,.F.);
#490=ORIENTED_EDGE('',*,*,#369,.F.);
#491=ORIENTED_EDGE('',*,*,#366,.T.);
#492=ORIENTED_EDGE('',*,*,#370,.F.);
#493=ORIENTED_EDGE('',*,*,#371,.T.);
#494=ORIENTED_EDGE('',*,*,#372,.T.);
#495=ORIENTED_EDGE('',*,*,#373,.T.);
#496=ORIENTED_EDGE('',*,*,#374,.T.);
#497=ORIENTED_EDGE('',*,*,#375,.T.);
#498=ORIENTED_EDGE('',*,*,#362,.T.);
#499=ORIENTED_EDGE('',*,*,#367,.T.);
#500=ORIENTED_EDGE('',*,*,#369,.T.);
#501=ORIENTED_EDGE('',*,*,#335,.F.);
#502=ORIENTED_EDGE('',*,*,#329,.F.);
#503=ORIENTED_EDGE('',*,*,#376,.F.);
#504=ORIENTED_EDGE('',*,*,#377,.T.);
#505=ORIENTED_EDGE('',*,*,#378,.T.);
#506=ORIENTED_EDGE('',*,*,#379,.F.);
#507=ORIENTED_EDGE('',*,*,#380,.T.);
#508=ORIENTED_EDGE('',*,*,#381,.T.);
#509=ORIENTED_EDGE('',*,*,#382,.T.);
#510=ORIENTED_EDGE('',*,*,#316,.T.);
#511=ORIENTED_EDGE('',*,*,#327,.F.);
#512=ORIENTED_EDGE('',*,*,#383,.T.);
#513=ORIENTED_EDGE('',*,*,#379,.T.);
#514=ORIENTED_EDGE('',*,*,#384,.T.);
#515=ORIENTED_EDGE('',*,*,#376,.T.);
#516=ORIENTED_EDGE('',*,*,#328,.F.);
#517=ORIENTED_EDGE('',*,*,#385,.T.);
#518=ORIENTED_EDGE('',*,*,#386,.T.);
#519=ORIENTED_EDGE('',*,*,#387,.T.);
#520=ORIENTED_EDGE('',*,*,#388,.T.);
#521=ORIENTED_EDGE('',*,*,#382,.F.);
#522=ORIENTED_EDGE('',*,*,#389,.F.);
#523=ORIENTED_EDGE('',*,*,#377,.F.);
#524=ORIENTED_EDGE('',*,*,#384,.F.);
#525=ORIENTED_EDGE('',*,*,#370,.T.);
#526=ORIENTED_EDGE('',*,*,#365,.T.);
#527=ORIENTED_EDGE('',*,*,#390,.T.);
#528=ORIENTED_EDGE('',*,*,#391,.T.);
#529=ORIENTED_EDGE('',*,*,#385,.F.);
#530=ORIENTED_EDGE('',*,*,#392,.T.);
#531=ORIENTED_EDGE('',*,*,#375,.F.);
#532=ORIENTED_EDGE('',*,*,#392,.F.);
#533=ORIENTED_EDGE('',*,*,#386,.F.);
#534=ORIENTED_EDGE('',*,*,#393,.T.);
#535=ORIENTED_EDGE('',*,*,#374,.F.);
#536=ORIENTED_EDGE('',*,*,#393,.F.);
#537=ORIENTED_EDGE('',*,*,#387,.F.);
#538=ORIENTED_EDGE('',*,*,#394,.T.);
#539=ORIENTED_EDGE('',*,*,#373,.F.);
#540=ORIENTED_EDGE('',*,*,#394,.F.);
#541=ORIENTED_EDGE('',*,*,#388,.F.);
#542=ORIENTED_EDGE('',*,*,#395,.T.);
#543=ORIENTED_EDGE('',*,*,#372,.F.);
#544=ORIENTED_EDGE('',*,*,#395,.F.);
#545=ORIENTED_EDGE('',*,*,#338,.F.);
#546=ORIENTED_EDGE('',*,*,#344,.T.);
#547=ORIENTED_EDGE('',*,*,#321,.F.);
#548=ORIENTED_EDGE('',*,*,#396,.F.);
#549=ORIENTED_EDGE('',*,*,#324,.F.);
#550=ORIENTED_EDGE('',*,*,#349,.T.);
#551=ORIENTED_EDGE('',*,*,#347,.F.);
#552=ORIENTED_EDGE('',*,*,#345,.T.);
#553=ORIENTED_EDGE('',*,*,#339,.F.);
#554=ORIENTED_EDGE('',*,*,#396,.T.);
#555=ORIENTED_EDGE('',*,*,#320,.F.);
#556=ORIENTED_EDGE('',*,*,#371,.F.);
#557=ORIENTED_EDGE('',*,*,#391,.F.);
#558=ORIENTED_EDGE('',*,*,#397,.F.);
#559=ORIENTED_EDGE('',*,*,#325,.F.);
#560=ORIENTED_EDGE('',*,*,#397,.T.);
#561=ORIENTED_EDGE('',*,*,#390,.F.);
#562=ORIENTED_EDGE('',*,*,#364,.T.);
#563=ORIENTED_EDGE('',*,*,#368,.F.);
#564=ORIENTED_EDGE('',*,*,#330,.F.);
#565=ORIENTED_EDGE('',*,*,#378,.F.);
#566=ORIENTED_EDGE('',*,*,#389,.T.);
#567=ORIENTED_EDGE('',*,*,#381,.F.);
#568=ORIENTED_EDGE('',*,*,#398,.T.);
#569=ORIENTED_EDGE('',*,*,#326,.F.);
#570=ORIENTED_EDGE('',*,*,#398,.F.);
#571=ORIENTED_EDGE('',*,*,#380,.F.);
#572=ORIENTED_EDGE('',*,*,#383,.F.);
#573=PLANE('',#636);
#574=PLANE('',#640);
#575=PLANE('',#641);
#576=PLANE('',#645);
#577=PLANE('',#647);
#578=PLANE('',#650);
#579=PLANE('',#651);
#580=PLANE('',#656);
#581=PLANE('',#657);
#582=PLANE('',#658);
#583=PLANE('',#660);
#584=PLANE('',#663);
#585=PLANE('',#677);
#586=PLANE('',#682);
#587=PLANE('',#689);
#588=PLANE('',#690);
#589=PLANE('',#691);
#590=PLANE('',#692);
#591=ADVANCED_FACE('',(#36),#573,.T.);
#592=ADVANCED_FACE('',(#37),#23,.F.);
#593=ADVANCED_FACE('',(#38),#574,.T.);
#594=ADVANCED_FACE('',(#39),#575,.T.);
#595=ADVANCED_FACE('',(#40),#24,.F.);
#596=ADVANCED_FACE('',(#41),#576,.F.);
#597=ADVANCED_FACE('',(#42),#577,.F.);
#598=ADVANCED_FACE('',(#43),#25,.F.);
#599=ADVANCED_FACE('',(#44),#578,.F.);
#600=ADVANCED_FACE('',(#45),#579,.F.);
#601=ADVANCED_FACE('',(#46),#26,.T.);
#602=ADVANCED_FACE('',(#47),#580,.F.);
#603=ADVANCED_FACE('',(#48),#581,.F.);
#604=ADVANCED_FACE('',(#49),#582,.T.);
#605=ADVANCED_FACE('',(#50),#583,.T.);
#606=ADVANCED_FACE('',(#51),#27,.T.);
#607=ADVANCED_FACE('',(#52,#15,#16,#17,#18),#584,.T.);
#608=ADVANCED_FACE('',(#53),#28,.T.);
#609=ADVANCED_FACE('',(#54),#29,.F.);
#610=ADVANCED_FACE('',(#55),#30,.F.);
#611=ADVANCED_FACE('',(#56,#19,#20,#21,#22),#585,.F.);
#612=ADVANCED_FACE('',(#57),#586,.T.);
#613=ADVANCED_FACE('',(#58),#31,.T.);
#614=ADVANCED_FACE('',(#59),#32,.F.);
#615=ADVANCED_FACE('',(#60),#33,.F.);
#616=ADVANCED_FACE('',(#61),#34,.F.);
#617=ADVANCED_FACE('',(#62),#35,.F.);
#618=ADVANCED_FACE('',(#63),#587,.F.);
#619=ADVANCED_FACE('',(#64),#588,.T.);
#620=ADVANCED_FACE('',(#65),#589,.T.);
#621=ADVANCED_FACE('',(#66),#590,.T.);
#622=CLOSED_SHELL('',(#591,#592,#593,#594,#595,#596,#597,#598,#599,#600,
#601,#602,#603,#604,#605,#606,#607,#608,#609,#610,#611,#612,#613,#614,#615,
#616,#617,#618,#619,#620,#621));
#623=DERIVED_UNIT_ELEMENT(#625,1.);
#624=DERIVED_UNIT_ELEMENT(#1052,-3.);
#625=(
MASS_UNIT()
NAMED_UNIT(*)
SI_UNIT(.KILO.,.GRAM.)
);
#626=DERIVED_UNIT((#623,#624));
#627=MEASURE_REPRESENTATION_ITEM('density measure',
POSITIVE_RATIO_MEASURE(7850.),#626);
#628=PROPERTY_DEFINITION_REPRESENTATION(#633,#630);
#629=PROPERTY_DEFINITION_REPRESENTATION(#634,#631);
#630=REPRESENTATION('material name',(#632),#1049);
#631=REPRESENTATION('density',(#627),#1049);
#632=DESCRIPTIVE_REPRESENTATION_ITEM('Steel','Steel');
#633=PROPERTY_DEFINITION('material property','material name',#1059);
#634=PROPERTY_DEFINITION('material property','density of part',#1059);
#635=AXIS2_PLACEMENT_3D('',#870,#693,#694);
#636=AXIS2_PLACEMENT_3D('',#871,#695,#696);
#637=AXIS2_PLACEMENT_3D('',#876,#698,#699);
#638=AXIS2_PLACEMENT_3D('',#878,#701,#702);
#639=AXIS2_PLACEMENT_3D('',#882,#704,#705);
#640=AXIS2_PLACEMENT_3D('',#884,#707,#708);
#641=AXIS2_PLACEMENT_3D('',#904,#719,#720);
#642=AXIS2_PLACEMENT_3D('',#922,#730,#731);
#643=AXIS2_PLACEMENT_3D('',#925,#732,#733);
#644=AXIS2_PLACEMENT_3D('',#929,#735,#736);
#645=AXIS2_PLACEMENT_3D('',#931,#738,#739);
#646=AXIS2_PLACEMENT_3D('',#935,#741,#742);
#647=AXIS2_PLACEMENT_3D('',#938,#745,#746);
#648=AXIS2_PLACEMENT_3D('',#942,#749,#750);
#649=AXIS2_PLACEMENT_3D('',#944,#751,#752);
#650=AXIS2_PLACEMENT_3D('',#946,#754,#755);
#651=AXIS2_PLACEMENT_3D('',#948,#757,#758);
#652=AXIS2_PLACEMENT_3D('',#950,#759,#760);
#653=AXIS2_PLACEMENT_3D('',#957,#764,#765);
#654=AXIS2_PLACEMENT_3D('',#958,#766,#767);
#655=AXIS2_PLACEMENT_3D('',#961,#769,#770);
#656=AXIS2_PLACEMENT_3D('',#962,#771,#772);
#657=AXIS2_PLACEMENT_3D('',#966,#775,#776);
#658=AXIS2_PLACEMENT_3D('',#970,#779,#780);
#659=AXIS2_PLACEMENT_3D('',#973,#782,#783);
#660=AXIS2_PLACEMENT_3D('',#974,#784,#785);
#661=AXIS2_PLACEMENT_3D('',#984,#791,#792);
#662=AXIS2_PLACEMENT_3D('',#985,#793,#794);
#663=AXIS2_PLACEMENT_3D('',#986,#795,#796);
#664=AXIS2_PLACEMENT_3D('',#987,#797,#798);
#665=AXIS2_PLACEMENT_3D('',#989,#799,#800);
#666=AXIS2_PLACEMENT_3D('',#992,#802,#803);
#667=AXIS2_PLACEMENT_3D('',#994,#804,#805);
#668=AXIS2_PLACEMENT_3D('',#996,#806,#807);
#669=AXIS2_PLACEMENT_3D('',#998,#808,#809);
#670=AXIS2_PLACEMENT_3D('',#999,#810,#811);
#671=AXIS2_PLACEMENT_3D('',#1000,#812,#813);
#672=AXIS2_PLACEMENT_3D('',#1002,#814,#815);
#673=AXIS2_PLACEMENT_3D('',#1005,#817,#818);
#674=AXIS2_PLACEMENT_3D('',#1006,#819,#820);
#675=AXIS2_PLACEMENT_3D('',#1009,#821,#822);
#676=AXIS2_PLACEMENT_3D('',#1013,#824,#825);
#677=AXIS2_PLACEMENT_3D('',#1015,#827,#828);
#678=AXIS2_PLACEMENT_3D('',#1019,#831,#832);
#679=AXIS2_PLACEMENT_3D('',#1021,#833,#834);
#680=AXIS2_PLACEMENT_3D('',#1023,#835,#836);
#681=AXIS2_PLACEMENT_3D('',#1025,#837,#838);
#682=AXIS2_PLACEMENT_3D('',#1026,#839,#840);
#683=AXIS2_PLACEMENT_3D('',#1028,#842,#843);
#684=AXIS2_PLACEMENT_3D('',#1030,#844,#845);
#685=AXIS2_PLACEMENT_3D('',#1032,#847,#848);
#686=AXIS2_PLACEMENT_3D('',#1034,#850,#851);
#687=AXIS2_PLACEMENT_3D('',#1036,#853,#854);
#688=AXIS2_PLACEMENT_3D('',#1038,#856,#857);
#689=AXIS2_PLACEMENT_3D('',#1040,#859,#860);
#690=AXIS2_PLACEMENT_3D('',#1042,#862,#863);
#691=AXIS2_PLACEMENT_3D('',#1044,#865,#866);
#692=AXIS2_PLACEMENT_3D('',#1046,#868,#869);
#693=DIRECTION('axis',(0.,0.,1.));
#694=DIRECTION('refdir',(1.,0.,0.));
#695=DIRECTION('center_axis',(0.,0.,-1.));
#696=DIRECTION('ref_axis',(1.,0.,0.));
#697=DIRECTION('',(0.866025403784439,0.499999999999999,0.));
#698=DIRECTION('center_axis',(0.,0.,1.));
#699=DIRECTION('ref_axis',(1.,0.,0.));
#700=DIRECTION('',(-0.5,0.866025403784439,0.));
#701=DIRECTION('center_axis',(0.,0.,1.));
#702=DIRECTION('ref_axis',(-0.965925826289068,0.25881904510252,0.));
#703=DIRECTION('',(0.,0.,1.));
#704=DIRECTION('center_axis',(0.,0.,1.));
#705=DIRECTION('ref_axis',(1.,0.,0.));
#706=DIRECTION('',(0.,0.,-1.));
#707=DIRECTION('center_axis',(0.499999999999999,-0.866025403784439,6.12323399573677E-17));
#708=DIRECTION('ref_axis',(0.,-7.07050159149938E-17,-1.));
#709=DIRECTION('',(-3.06161699786838E-17,5.30287619362453E-17,1.));
#710=DIRECTION('',(-0.866025403784439,-0.499999999999999,0.));
#711=DIRECTION('',(3.06161699786838E-17,-5.30287619362454E-17,-1.));
#712=DIRECTION('',(0.866025403784439,0.499999999999999,0.));
#713=DIRECTION('',(3.06161699786839E-17,-5.30287619362453E-17,-1.));
#714=DIRECTION('',(-0.866025403784439,-0.499999999999999,0.));
#715=DIRECTION('',(3.06161699786838E-17,-5.30287619362454E-17,-1.));
#716=DIRECTION('',(0.866025403784439,0.499999999999999,0.));
#717=DIRECTION('',(-3.06161699786838E-17,5.30287619362454E-17,1.));
#718=DIRECTION('',(0.866025403784439,0.499999999999999,0.));
#719=DIRECTION('center_axis',(0.866025403784439,0.5,0.));
#720=DIRECTION('ref_axis',(0.,0.,-1.));
#721=DIRECTION('',(-0.5,0.866025403784439,0.));
#722=DIRECTION('',(0.,0.,-1.));
#723=DIRECTION('',(-0.5,0.866025403784439,0.));
#724=DIRECTION('',(0.,0.,1.));
#725=DIRECTION('',(0.5,-0.866025403784439,0.));
#726=DIRECTION('',(0.,0.,1.));
#727=DIRECTION('',(-0.5,0.866025403784439,0.));
#728=DIRECTION('',(0.,0.,1.));
#729=DIRECTION('',(0.5,-0.866025403784439,0.));
#730=DIRECTION('center_axis',(0.866025403784438,0.500000000000001,0.));
#731=DIRECTION('ref_axis',(-0.35355339059328,0.612372435695792,0.707106781186547));
#732=DIRECTION('center_axis',(-0.866025403784438,-0.500000000000001,0.));
#733=DIRECTION('ref_axis',(-0.35355339059328,0.612372435695792,0.707106781186547));
#734=DIRECTION('',(-0.866025403784438,-0.500000000000001,0.));
#735=DIRECTION('center_axis',(-0.866025403784439,-0.5,0.));
#736=DIRECTION('ref_axis',(-0.35355339059328,0.612372435695792,0.707106781186547));
#737=DIRECTION('',(0.866025403784438,0.500000000000001,0.));
#738=DIRECTION('center_axis',(0.866025403784438,0.500000000000001,0.));
#739=DIRECTION('ref_axis',(0.,0.,-1.));
#740=DIRECTION('',(0.,0.,1.));
#741=DIRECTION('center_axis',(-0.866025403784438,-0.500000000000001,0.));
#742=DIRECTION('ref_axis',(-0.35355339059328,0.612372435695792,-0.707106781186547));
#743=DIRECTION('',(-0.5,0.866025403784439,0.));
#744=DIRECTION('',(0.5,-0.866025403784439,0.));
#745=DIRECTION('center_axis',(-0.500000000000001,0.866025403784438,0.));
#746=DIRECTION('ref_axis',(0.,0.,1.));
#747=DIRECTION('',(0.,0.,1.));
#748=DIRECTION('',(-0.866025403784438,-0.500000000000001,0.));
#749=DIRECTION('center_axis',(0.866025403784438,0.500000000000001,0.));
#750=DIRECTION('ref_axis',(-0.35355339059328,0.612372435695792,-0.707106781186547));
#751=DIRECTION('center_axis',(-0.866025403784439,-0.5,0.));
#752=DIRECTION('ref_axis',(-0.35355339059328,0.612372435695792,-0.707106781186547));
#753=DIRECTION('',(0.866025403784438,0.500000000000001,0.));
#754=DIRECTION('center_axis',(0.,0.,-1.));
#755=DIRECTION('ref_axis',(-0.5,0.866025403784439,0.));
#756=DIRECTION('',(-0.5,0.866025403784439,0.));
#757=DIRECTION('center_axis',(0.,0.,-1.));
#758=DIRECTION('ref_axis',(1.,0.,0.));
#759=DIRECTION('center_axis',(0.,0.,-1.));
#760=DIRECTION('ref_axis',(-0.500000000000002,0.866025403784437,0.));
#761=DIRECTION('',(0.5,0.866025403784438,0.));
#762=DIRECTION('',(0.866025403784438,-0.500000000000001,0.));
#763=DIRECTION('',(0.500000000000001,0.866025403784438,0.));
#764=DIRECTION('center_axis',(0.,0.,-1.));
#765=DIRECTION('ref_axis',(-0.866025403784428,0.500000000000018,0.));
#766=DIRECTION('center_axis',(0.,0.,1.));
#767=DIRECTION('ref_axis',(-0.866025403784428,0.500000000000018,0.));
#768=DIRECTION('',(0.,0.,1.));
#769=DIRECTION('center_axis',(0.,0.,-1.));
#770=DIRECTION('ref_axis',(-0.866025403784428,0.500000000000018,0.));
#771=DIRECTION('center_axis',(0.866025403784438,-0.500000000000001,0.));
#772=DIRECTION('ref_axis',(0.500000000000001,0.866025403784438,0.));
#773=DIRECTION('',(0.,0.,1.));
#774=DIRECTION('',(0.500000000000001,0.866025403784438,0.));
#775=DIRECTION('center_axis',(-0.500000000000001,-0.866025403784438,0.));
#776=DIRECTION('ref_axis',(0.866025403784438,-0.500000000000001,0.));
#777=DIRECTION('',(0.,0.,-1.));
#778=DIRECTION('',(0.866025403784438,-0.500000000000001,0.));
#779=DIRECTION('center_axis',(0.,0.,-1.));
#780=DIRECTION('ref_axis',(1.,0.,0.));
#781=DIRECTION('',(-0.5,-0.866025403784438,0.));
#782=DIRECTION('center_axis',(0.,0.,1.));
#783=DIRECTION('ref_axis',(-0.500000000000002,0.866025403784437,0.));
#784=DIRECTION('center_axis',(-0.866025403784438,0.5,0.));
#785=DIRECTION('ref_axis',(0.5,0.866025403784438,0.));
#786=DIRECTION('',(0.,0.,1.));
#787=DIRECTION('',(0.5,0.866025403784438,0.));
#788=DIRECTION('',(0.,0.,-1.));
#789=DIRECTION('',(-0.5,-0.866025403784438,0.));
#790=DIRECTION('',(0.,0.,1.));
#791=DIRECTION('center_axis',(0.,0.,-1.));
#792=DIRECTION('ref_axis',(-0.500000000000002,0.866025403784437,0.));
#793=DIRECTION('center_axis',(0.,0.,1.));
#794=DIRECTION('ref_axis',(-0.500000000000002,0.866025403784437,0.));
#795=DIRECTION('center_axis',(0.,0.,1.));
#796=DIRECTION('ref_axis',(1.,0.,0.));
#797=DIRECTION('center_axis',(0.,0.,-1.));
#798=DIRECTION('ref_axis',(-0.500000000000002,0.866025403784437,0.));
#799=DIRECTION('center_axis',(0.,0.,-1.));
#800=DIRECTION('ref_axis',(-1.,8.97382586978994E-16,0.));
#801=DIRECTION('',(0.5,-0.866025403784439,0.));
#802=DIRECTION('center_axis',(0.,0.,-1.));
#803=DIRECTION('ref_axis',(1.,0.,0.));
#804=DIRECTION('center_axis',(0.,0.,-1.));
#805=DIRECTION('ref_axis',(1.,0.,0.));
#806=DIRECTION('center_axis',(0.,0.,-1.));
#807=DIRECTION('ref_axis',(1.,0.,0.));
#808=DIRECTION('center_axis',(0.,0.,-1.));
#809=DIRECTION('ref_axis',(1.,0.,0.));
#810=DIRECTION('center_axis',(0.,0.,-1.));
#811=DIRECTION('ref_axis',(-0.500000000000002,0.866025403784437,0.));
#812=DIRECTION('center_axis',(0.,0.,-1.));
#813=DIRECTION('ref_axis',(-0.499999999999998,0.86602540378444,0.));
#814=DIRECTION('center_axis',(0.,0.,-1.));
#815=DIRECTION('ref_axis',(-0.499999999999998,0.86602540378444,0.));
#816=DIRECTION('',(0.,0.,-1.));
#817=DIRECTION('center_axis',(0.,0.,-1.));
#818=DIRECTION('ref_axis',(-0.499999999999998,0.86602540378444,0.));
#819=DIRECTION('center_axis',(0.,0.,-1.));
#820=DIRECTION('ref_axis',(-1.,1.34607388046849E-15,0.));
#821=DIRECTION('center_axis',(0.,0.,-1.));
#822=DIRECTION('ref_axis',(-1.,1.34607388046849E-15,0.));
#823=DIRECTION('',(0.,0.,-1.));
#824=DIRECTION('center_axis',(0.,0.,-1.));
#825=DIRECTION('ref_axis',(-1.,1.34607388046849E-15,0.));
#826=DIRECTION('',(0.,0.,1.));
#827=DIRECTION('center_axis',(0.,0.,1.));
#828=DIRECTION('ref_axis',(1.,0.,0.));
#829=DIRECTION('',(-0.5,0.866025403784439,0.));
#830=DIRECTION('',(0.5,0.866025403784439,0.));
#831=DIRECTION('center_axis',(0.,0.,1.));
#832=DIRECTION('ref_axis',(1.,0.,0.));
#833=DIRECTION('center_axis',(0.,0.,1.));
#834=DIRECTION('ref_axis',(1.,0.,0.));
#835=DIRECTION('center_axis',(0.,0.,1.));
#836=DIRECTION('ref_axis',(1.,0.,0.));
#837=DIRECTION('center_axis',(0.,0.,1.));
#838=DIRECTION('ref_axis',(1.,0.,0.));
#839=DIRECTION('center_axis',(0.866025403784439,-0.5,0.));
#840=DIRECTION('ref_axis',(-0.5,-0.866025403784439,0.));
#841=DIRECTION('',(-0.5,-0.866025403784439,0.));
#842=DIRECTION('center_axis',(0.,0.,1.));
#843=DIRECTION('ref_axis',(-1.,8.97382586978994E-16,0.));
#844=DIRECTION('center_axis',(0.,0.,1.));
#845=DIRECTION('ref_axis',(-1.,8.97382586978994E-16,0.));
#846=DIRECTION('',(0.,0.,1.));
#847=DIRECTION('center_axis',(0.,0.,1.));
#848=DIRECTION('ref_axis',(1.,0.,0.));
#849=DIRECTION('',(0.,0.,1.));
#850=DIRECTION('center_axis',(0.,0.,1.));
#851=DIRECTION('ref_axis',(1.,0.,0.));
#852=DIRECTION('',(0.,0.,1.));
#853=DIRECTION('center_axis',(0.,0.,1.));
#854=DIRECTION('ref_axis',(1.,0.,0.));
#855=DIRECTION('',(0.,0.,1.));
#856=DIRECTION('center_axis',(0.,0.,1.));
#857=DIRECTION('ref_axis',(1.,0.,0.));
#858=DIRECTION('',(0.,0.,1.));
#859=DIRECTION('center_axis',(0.,0.,1.));
#860=DIRECTION('ref_axis',(0.5,-0.866025403784439,0.));
#861=DIRECTION('',(0.5,-0.866025403784439,0.));
#862=DIRECTION('center_axis',(-0.866025403784439,-0.5,0.));
#863=DIRECTION('ref_axis',(-0.5,0.866025403784439,0.));
#864=DIRECTION('',(-0.5,0.866025403784439,0.));
#865=DIRECTION('center_axis',(0.,0.,-1.));
#866=DIRECTION('ref_axis',(-1.,0.,0.));
#867=DIRECTION('',(0.5,-0.866025403784439,0.));
#868=DIRECTION('center_axis',(0.866025403784439,0.5,0.));
#869=DIRECTION('ref_axis',(0.5,-0.866025403784439,0.));
#870=CARTESIAN_POINT('',(0.,0.,0.));
#871=CARTESIAN_POINT('Origin',(3.5527136788005E-14,4.44089209850063E-14,
3.));
#872=CARTESIAN_POINT('',(-25.9807621135331,-14.9999999999999,3.));
#873=CARTESIAN_POINT('',(3.70030320837468E-14,4.24902787608643E-14,3.));
#874=CARTESIAN_POINT('',(9.94349196519381E-15,2.68674459892703E-14,3.));
#875=CARTESIAN_POINT('',(-15.,25.9807621135332,3.));
#876=CARTESIAN_POINT('Origin',(3.70948805936828E-14,4.23311924750556E-14,
3.));
#877=CARTESIAN_POINT('',(4.48231085125555E-14,2.89455090670959E-14,3.));
#878=CARTESIAN_POINT('Origin',(3.70948805936828E-14,4.23311924750556E-14,
0.));
#879=CARTESIAN_POINT('',(-25.9807621135331,-14.9999999999999,4.44089209850063E-15));
#880=CARTESIAN_POINT('',(-25.9807621135331,-14.9999999999999,0.));
#881=CARTESIAN_POINT('',(-15.,25.9807621135332,0.));
#882=CARTESIAN_POINT('Origin',(3.70948805936828E-14,4.23311924750556E-14,
0.));
#883=CARTESIAN_POINT('',(-15.,25.9807621135332,0.));
#884=CARTESIAN_POINT('Origin',(-1.51272239702155E-14,8.43755209988451E-15,
-52.941));
#885=CARTESIAN_POINT('',(3.69111835738107E-14,4.26493650466731E-14,6.));
#886=CARTESIAN_POINT('',(3.87157312485243E-14,3.95237967893889E-14,-52.941));
#887=CARTESIAN_POINT('',(-129.903810567666,-74.9999999999999,6.));
#888=CARTESIAN_POINT('',(-5.39399552662769E-15,1.82244585049197E-14,6.00000000000001));
#889=CARTESIAN_POINT('',(-129.903810567666,-74.9999999999999,-27.941));
#890=CARTESIAN_POINT('',(-129.903810567666,-74.9999999999999,-26.4705));
#891=CARTESIAN_POINT('',(-125.573683548744,-72.4999999999999,-27.941));
#892=CARTESIAN_POINT('',(-64.9519052838329,-37.4999999999999,-27.941));
#893=CARTESIAN_POINT('',(-125.573683548744,-72.4999999999999,-77.941));
#894=CARTESIAN_POINT('',(-125.573683548744,-72.4999999999999,-52.941));
#895=CARTESIAN_POINT('',(-129.903810567666,-74.9999999999999,-77.941));
#896=CARTESIAN_POINT('',(-64.9519052838329,-37.4999999999999,-77.941));
#897=CARTESIAN_POINT('',(-129.903810567666,-74.9999999999999,-111.882));
#898=CARTESIAN_POINT('',(-129.903810567666,-74.9999999999999,-26.4705));
#899=CARTESIAN_POINT('',(-121.243556529821,-69.9999999999999,-111.882));
#900=CARTESIAN_POINT('',(-1.33226762955019E-14,5.31198384260027E-15,-111.882));
#901=CARTESIAN_POINT('',(-121.243556529821,-69.9999999999999,0.));
#902=CARTESIAN_POINT('',(-121.243556529821,-69.9999999999999,-26.4705));
#903=CARTESIAN_POINT('',(-5.21029850675559E-15,1.79062859333022E-14,4.44089209850063E-15));
#904=CARTESIAN_POINT('Origin',(5.38429552187398E-14,1.33226762955019E-14,
-52.941));
#905=CARTESIAN_POINT('',(-80.4422863405994,139.330127018922,0.));
#906=CARTESIAN_POINT('',(4.23051791004384E-14,3.33066907387547E-14,0.));
#907=CARTESIAN_POINT('',(-80.4422863405994,139.330127018922,-111.882));
#908=CARTESIAN_POINT('',(-80.4422863405994,139.330127018922,0.));
#909=CARTESIAN_POINT('',(-86.2157890324957,149.330127018922,-111.882));
#910=CARTESIAN_POINT('',(5.38429552187398E-14,1.33226762955019E-14,-111.882));
#911=CARTESIAN_POINT('',(-86.2157890324957,149.330127018922,-86.882));
#912=CARTESIAN_POINT('',(-86.2157890324957,149.330127018922,0.));
#913=CARTESIAN_POINT('',(-83.3290376865475,144.330127018922,-86.882));
#914=CARTESIAN_POINT('',(-39.9056372505393,69.1185912263473,-86.882));
#915=CARTESIAN_POINT('',(-83.3290376865475,144.330127018922,-41.882));
#916=CARTESIAN_POINT('',(-83.3290376865475,144.330127018922,-111.882));
#917=CARTESIAN_POINT('',(-86.2157890324957,149.330127018922,-41.882));
#918=CARTESIAN_POINT('',(-39.9056372505393,69.1185912263473,-41.882));
#919=CARTESIAN_POINT('',(-86.2157890324957,149.330127018922,6.00000000000001));
#920=CARTESIAN_POINT('',(-86.2157890324957,149.330127018922,0.));
#921=CARTESIAN_POINT('',(4.23051791004384E-14,3.33066907387547E-14,6.));
#922=CARTESIAN_POINT('Origin',(-136.903810567666,-62.8756443470177,-28.941));
#923=CARTESIAN_POINT('',(-132.573683548744,-60.3756443470177,-27.941));
#924=CARTESIAN_POINT('',(-133.073683548744,-59.5096189432333,-28.941));
#925=CARTESIAN_POINT('Origin',(-132.573683548744,-60.3756443470178,-28.941));
#926=CARTESIAN_POINT('',(-136.903810567666,-62.8756443470178,-27.941));
#927=CARTESIAN_POINT('',(-136.903810567666,-62.8756443470177,-27.941));
#928=CARTESIAN_POINT('',(-137.403810567666,-62.0096189432333,-28.941));
#929=CARTESIAN_POINT('Origin',(-136.903810567666,-62.8756443470178,-28.941));
#930=CARTESIAN_POINT('',(-137.403810567666,-62.0096189432333,-28.941));
#931=CARTESIAN_POINT('Origin',(-125.573683548744,-72.4999999999999,-52.941));
#932=CARTESIAN_POINT('',(-133.073683548744,-59.5096189432333,-76.941));
#933=CARTESIAN_POINT('',(-133.073683548744,-59.5096189432333,-27.941));
#934=CARTESIAN_POINT('',(-132.573683548744,-60.3756443470177,-77.941));
#935=CARTESIAN_POINT('Origin',(-132.573683548744,-60.3756443470178,-76.941));
#936=CARTESIAN_POINT('',(-133.073683548744,-59.5096189432333,-77.941));
#937=CARTESIAN_POINT('',(-118.073683548744,-85.4903810567665,-27.941));
#938=CARTESIAN_POINT('Origin',(-137.403810567666,-62.0096189432333,-77.941));
#939=CARTESIAN_POINT('',(-137.403810567666,-62.0096189432333,-76.941));
#940=CARTESIAN_POINT('',(-137.403810567666,-62.0096189432333,-38.9705));
#941=CARTESIAN_POINT('',(-137.403810567666,-62.0096189432333,-76.941));
#942=CARTESIAN_POINT('Origin',(-136.903810567666,-62.8756443470178,-76.941));
#943=CARTESIAN_POINT('',(-136.903810567666,-62.8756443470178,-77.941));
#944=CARTESIAN_POINT('Origin',(-136.903810567666,-62.8756443470178,-76.941));
#945=CARTESIAN_POINT('',(-136.903810567666,-62.8756443470178,-77.941));
#946=CARTESIAN_POINT('Origin',(-122.403810567666,-87.9903810567665,-77.941));
#947=CARTESIAN_POINT('',(-104.503175473055,-118.995190528383,-77.941));
#948=CARTESIAN_POINT('Origin',(-80.3525403784438,137.924682452694,-86.882));
#949=CARTESIAN_POINT('',(-88.0459160514179,147.5,-86.882));
#950=CARTESIAN_POINT('Origin',(-83.7157890324957,145.,-86.882));
#951=CARTESIAN_POINT('',(-99.1025403784438,128.349364905389,-86.882));
#952=CARTESIAN_POINT('',(-131.736943506348,71.8249206131737,-86.882));
#953=CARTESIAN_POINT('',(-94.7724133595216,125.849364905389,-86.882));
#954=CARTESIAN_POINT('',(-94.1444074397612,125.486785518563,-86.882));
#955=CARTESIAN_POINT('',(-85.1591647054697,142.5,-86.882));
#956=CARTESIAN_POINT('',(-90.3555462982042,133.499603065868,-86.882));
#957=CARTESIAN_POINT('Origin',(-80.8290376865475,140.,-86.882));
#958=CARTESIAN_POINT('Origin',(-80.8290376865475,140.,-111.882));
#959=CARTESIAN_POINT('',(-85.1591647054697,142.5,-41.882));
#960=CARTESIAN_POINT('',(-85.1591647054697,142.5,-111.882));
#961=CARTESIAN_POINT('Origin',(-80.8290376865475,140.,-41.882));
#962=CARTESIAN_POINT('Origin',(-94.7724133595216,125.849364905389,-111.882));
#963=CARTESIAN_POINT('',(-94.7724133595216,125.849364905389,-41.882));
#964=CARTESIAN_POINT('',(-94.7724133595216,125.849364905389,-111.882));
#965=CARTESIAN_POINT('',(-85.1591647054697,142.5,-41.882));
#966=CARTESIAN_POINT('Origin',(-99.1025403784438,128.349364905389,-111.882));
#967=CARTESIAN_POINT('',(-99.1025403784438,128.349364905389,-41.882));
#968=CARTESIAN_POINT('',(-99.1025403784438,128.349364905389,-55.941));
#969=CARTESIAN_POINT('',(-99.1025403784438,128.349364905389,-41.882));
#970=CARTESIAN_POINT('Origin',(-80.3525403784438,137.924682452694,-41.882));
#971=CARTESIAN_POINT('',(-88.0459160514179,147.5,-41.882));
#972=CARTESIAN_POINT('',(-131.736943506348,71.8249206131737,-41.882));
#973=CARTESIAN_POINT('Origin',(-83.7157890324957,145.,-41.882));
#974=CARTESIAN_POINT('Origin',(-173.205080756888,7.105427357601E-14,0.));
#975=CARTESIAN_POINT('',(-88.0459160514179,147.5,-111.882));
#976=CARTESIAN_POINT('',(-88.0459160514179,147.5,0.));
#977=CARTESIAN_POINT('',(-171.761705083914,2.50000000000005,-111.882));
#978=CARTESIAN_POINT('',(-86.6025403784438,150.,-111.882));
#979=CARTESIAN_POINT('',(-171.761705083914,2.50000000000007,6.));
#980=CARTESIAN_POINT('',(-171.761705083914,2.50000000000006,0.));
#981=CARTESIAN_POINT('',(-88.0459160514179,147.5,6.));
#982=CARTESIAN_POINT('',(-151.554445662277,37.5000000000001,6.));
#983=CARTESIAN_POINT('',(-88.0459160514179,147.5,0.));
#984=CARTESIAN_POINT('Origin',(-83.7157890324957,145.,0.));
#985=CARTESIAN_POINT('Origin',(-83.7157890324957,145.,-111.882));
#986=CARTESIAN_POINT('Origin',(0.,3.5527136788005E-14,6.));
#987=CARTESIAN_POINT('Origin',(-83.7157890324957,145.,6.));
#988=CARTESIAN_POINT('',(-171.761705083914,-2.49999999999995,6.));
#989=CARTESIAN_POINT('Origin',(-167.431578064991,5.77315972805081E-14,6.));
#990=CARTESIAN_POINT('',(-108.253175473055,-112.5,6.));
#991=CARTESIAN_POINT('',(-83.158075373095,-16.8668759856168,6.));
#992=CARTESIAN_POINT('Origin',(-82.658075373095,-16.8668759856168,6.));
#993=CARTESIAN_POINT('',(-83.1580753730954,34.1331240143828,6.));
#994=CARTESIAN_POINT('Origin',(-82.6580753730954,34.1331240143828,6.));
#995=CARTESIAN_POINT('',(-123.158075373095,-16.8668759856166,6.));
#996=CARTESIAN_POINT('Origin',(-122.658075373095,-16.8668759856166,6.));
#997=CARTESIAN_POINT('',(-123.158075373096,34.133124014383,6.));
#998=CARTESIAN_POINT('Origin',(-122.658075373095,34.133124014383,6.));
#999=CARTESIAN_POINT('Origin',(-83.7157890324957,145.,0.));
#1000=CARTESIAN_POINT('Origin',(-77.9422863405995,135.,0.));
#1001=CARTESIAN_POINT('',(-82.2724133595217,137.5,0.));
#1002=CARTESIAN_POINT('Origin',(-77.9422863405995,135.,0.));
#1003=CARTESIAN_POINT('',(-82.2724133595216,137.5,-111.882));
#1004=CARTESIAN_POINT('',(-82.2724133595216,137.5,0.));
#1005=CARTESIAN_POINT('Origin',(-77.9422863405995,135.,-111.882));
#1006=CARTESIAN_POINT('Origin',(-155.884572681199,1.77635683940025E-14,
0.));
#1007=CARTESIAN_POINT('',(-160.214699700121,-2.49999999999999,0.));
#1008=CARTESIAN_POINT('',(-160.214699700121,2.50000000000002,0.));
#1009=CARTESIAN_POINT('Origin',(-155.884572681199,1.77635683940025E-14,
0.));
#1010=CARTESIAN_POINT('',(-160.214699700121,-2.49999999999998,-111.882));
#1011=CARTESIAN_POINT('',(-160.214699700121,-2.49999999999998,0.));
#1012=CARTESIAN_POINT('',(-160.214699700121,2.5,-111.882));
#1013=CARTESIAN_POINT('Origin',(-155.884572681199,1.77635683940025E-14,
-111.882));
#1014=CARTESIAN_POINT('',(-160.214699700121,2.50000000000002,0.));
#1015=CARTESIAN_POINT('Origin',(0.,3.5527136788005E-14,0.));
#1016=CARTESIAN_POINT('',(-141.450815951458,-34.9999999999999,0.));
#1017=CARTESIAN_POINT('',(-101.036297108184,105.,0.));
#1018=CARTESIAN_POINT('',(-123.158075373096,34.133124014383,0.));
#1019=CARTESIAN_POINT('Origin',(-122.658075373095,34.133124014383,0.));
#1020=CARTESIAN_POINT('',(-123.158075373095,-16.8668759856166,0.));
#1021=CARTESIAN_POINT('Origin',(-122.658075373095,-16.8668759856166,0.));
#1022=CARTESIAN_POINT('',(-83.1580753730954,34.1331240143828,0.));
#1023=CARTESIAN_POINT('Origin',(-82.6580753730954,34.1331240143828,0.));
#1024=CARTESIAN_POINT('',(-83.158075373095,-16.8668759856168,0.));
#1025=CARTESIAN_POINT('Origin',(-82.658075373095,-16.8668759856168,0.));
#1026=CARTESIAN_POINT('Origin',(-80.8290376865476,140.,0.));
#1027=CARTESIAN_POINT('',(-80.8290376865476,140.,-111.882));
#1028=CARTESIAN_POINT('Origin',(-167.431578064991,5.77315972805081E-14,
0.));
#1029=CARTESIAN_POINT('',(-171.761705083914,-2.49999999999994,-111.882));
#1030=CARTESIAN_POINT('Origin',(-167.431578064991,5.77315972805081E-14,
-111.882));
#1031=CARTESIAN_POINT('',(-171.761705083914,-2.49999999999994,0.));
#1032=CARTESIAN_POINT('Origin',(-122.658075373095,34.133124014383,0.));
#1033=CARTESIAN_POINT('',(-123.158075373096,34.133124014383,0.));
#1034=CARTESIAN_POINT('Origin',(-122.658075373095,-16.8668759856166,0.));
#1035=CARTESIAN_POINT('',(-123.158075373095,-16.8668759856166,0.));
#1036=CARTESIAN_POINT('Origin',(-82.6580753730954,34.1331240143828,0.));
#1037=CARTESIAN_POINT('',(-83.1580753730954,34.1331240143828,0.));
#1038=CARTESIAN_POINT('Origin',(-82.658075373095,-16.8668759856168,0.));
#1039=CARTESIAN_POINT('',(-83.158075373095,-16.8668759856168,0.));
#1040=CARTESIAN_POINT('Origin',(-137.403810567666,-62.0096189432333,-27.941));
#1041=CARTESIAN_POINT('',(-112.003175473055,-106.004809471617,-27.941));
#1042=CARTESIAN_POINT('Origin',(-86.6025403784439,-150.,0.));
#1043=CARTESIAN_POINT('',(-173.205080756888,6.21724893790088E-14,-111.882));
#1044=CARTESIAN_POINT('Origin',(0.,-1.77635683940025E-14,-111.882));
#1045=CARTESIAN_POINT('',(-161.658075373095,4.44089209850063E-14,-111.882));
#1046=CARTESIAN_POINT('Origin',(-161.658075373095,4.44089209850063E-14,
0.));
#1047=UNCERTAINTY_MEASURE_WITH_UNIT(LENGTH_MEASURE(0.01),#1051,
'DISTANCE_ACCURACY_VALUE',
'Maximum model space distance between geometric entities at asserted c
onnectivities');
#1048=UNCERTAINTY_MEASURE_WITH_UNIT(LENGTH_MEASURE(0.01),#1051,
'DISTANCE_ACCURACY_VALUE',
'Maximum model space distance between geometric entities at asserted c
onnectivities');
#1049=(
GEOMETRIC_REPRESENTATION_CONTEXT(3)
GLOBAL_UNCERTAINTY_ASSIGNED_CONTEXT((#1047))
GLOBAL_UNIT_ASSIGNED_CONTEXT((#1051,#1053,#1054))
REPRESENTATION_CONTEXT('','3D')
);
#1050=(
GEOMETRIC_REPRESENTATION_CONTEXT(3)
GLOBAL_UNCERTAINTY_ASSIGNED_CONTEXT((#1048))
GLOBAL_UNIT_ASSIGNED_CONTEXT((#1051,#1053,#1054))
REPRESENTATION_CONTEXT('','3D')
);
#1051=(
LENGTH_UNIT()
NAMED_UNIT(*)
SI_UNIT(.MILLI.,.METRE.)
);
#1052=(
LENGTH_UNIT()
NAMED_UNIT(*)
SI_UNIT($,.METRE.)
);
#1053=(
NAMED_UNIT(*)
PLANE_ANGLE_UNIT()
SI_UNIT($,.RADIAN.)
);
#1054=(
NAMED_UNIT(*)
SI_UNIT($,.STERADIAN.)
SOLID_ANGLE_UNIT()
);
#1055=SHAPE_DEFINITION_REPRESENTATION(#1056,#1057);
#1056=PRODUCT_DEFINITION_SHAPE('',$,#1059);
#1057=SHAPE_REPRESENTATION('',(#635),#1049);
#1058=PRODUCT_DEFINITION_CONTEXT('part definition',#1063,'design');
#1059=PRODUCT_DEFINITION('2026-06-20-12-34-47-534','FusionComponent',#1060,
#1058);
#1060=PRODUCT_DEFINITION_FORMATION('',$,#1065);
#1061=PRODUCT_RELATED_PRODUCT_CATEGORY('FusionComponent',
'FusionComponent',(#1065));
#1062=APPLICATION_PROTOCOL_DEFINITION('international standard',
'automotive_design',2009,#1063);
#1063=APPLICATION_CONTEXT(
'Core Data for Automotive Mechanical Design Process');
#1064=PRODUCT_CONTEXT('part definition',#1063,'mechanical');
#1065=PRODUCT('2026-06-20-12-34-47-534','FusionComponent',$,(#1064));
#1066=PRESENTATION_STYLE_ASSIGNMENT((#1067));
#1067=SURFACE_STYLE_USAGE(.BOTH.,#1068);
#1068=SURFACE_SIDE_STYLE('',(#1069));
#1069=SURFACE_STYLE_FILL_AREA(#1070);
#1070=FILL_AREA_STYLE('Steel - Satin',(#1071));
#1071=FILL_AREA_STYLE_COLOUR('Steel - Satin',#1072);
#1072=COLOUR_RGB('Steel - Satin',0.627450980392157,0.627450980392157,0.627450980392157);
ENDSEC;
END-ISO-10303-21;
