ISO-10303-21;
HEADER;
/* Generated by software containing ST-Developer
 * from STEP Tools, Inc. (www.steptools.com) 
 */

FILE_DESCRIPTION(
/* description */ (''),
/* implementation_level */ '2;1');

FILE_NAME(
/* name */ 'Electronics Hub Part B.step',
/* time_stamp */ '2026-06-20T12:34:57-05:00',
/* author */ (''),
/* organization */ (''),
/* preprocessor_version */ 'ST-DEVELOPER v20.1',
/* originating_system */ 'Autodesk Translation Framework v15.8.0.0',
/* authorisation */ '');

FILE_SCHEMA (('AUTOMOTIVE_DESIGN { 1 0 10303 214 3 1 1 }'));
ENDSEC;

DATA;
#10=MECHANICAL_DESIGN_GEOMETRIC_PRESENTATION_REPRESENTATION('',(#13),#1491);
#11=SHAPE_REPRESENTATION_RELATIONSHIP('SRR','None',#1498,#12);
#12=ADVANCED_BREP_SHAPE_REPRESENTATION('',(#14),#1490);
#13=STYLED_ITEM('',(#1507),#14);
#14=MANIFOLD_SOLID_BREP('Body1',#883);
#15=FACE_BOUND('',#96,.T.);
#16=FACE_BOUND('',#130,.T.);
#17=FACE_BOUND('',#131,.T.);
#18=FACE_BOUND('',#137,.T.);
#19=FACE_BOUND('',#138,.T.);
#20=PLANE('',#900);
#21=PLANE('',#901);
#22=PLANE('',#902);
#23=PLANE('',#912);
#24=PLANE('',#914);
#25=PLANE('',#920);
#26=PLANE('',#922);
#27=PLANE('',#923);
#28=PLANE('',#924);
#29=PLANE('',#926);
#30=PLANE('',#929);
#31=PLANE('',#930);
#32=PLANE('',#931);
#33=PLANE('',#937);
#34=PLANE('',#939);
#35=PLANE('',#941);
#36=PLANE('',#943);
#37=PLANE('',#950);
#38=PLANE('',#954);
#39=PLANE('',#958);
#40=PLANE('',#962);
#41=PLANE('',#965);
#42=PLANE('',#969);
#43=PLANE('',#972);
#44=PLANE('',#974);
#45=PLANE('',#976);
#46=PLANE('',#977);
#47=FACE_OUTER_BOUND('',#92,.T.);
#48=FACE_OUTER_BOUND('',#93,.T.);
#49=FACE_OUTER_BOUND('',#94,.T.);
#50=FACE_OUTER_BOUND('',#95,.T.);
#51=FACE_OUTER_BOUND('',#97,.T.);
#52=FACE_OUTER_BOUND('',#98,.T.);
#53=FACE_OUTER_BOUND('',#99,.T.);
#54=FACE_OUTER_BOUND('',#100,.T.);
#55=FACE_OUTER_BOUND('',#101,.T.);
#56=FACE_OUTER_BOUND('',#102,.T.);
#57=FACE_OUTER_BOUND('',#103,.T.);
#58=FACE_OUTER_BOUND('',#104,.T.);
#59=FACE_OUTER_BOUND('',#105,.T.);
#60=FACE_OUTER_BOUND('',#106,.T.);
#61=FACE_OUTER_BOUND('',#107,.T.);
#62=FACE_OUTER_BOUND('',#108,.T.);
#63=FACE_OUTER_BOUND('',#109,.T.);
#64=FACE_OUTER_BOUND('',#110,.T.);
#65=FACE_OUTER_BOUND('',#111,.T.);
#66=FACE_OUTER_BOUND('',#112,.T.);
#67=FACE_OUTER_BOUND('',#113,.T.);
#68=FACE_OUTER_BOUND('',#114,.T.);
#69=FACE_OUTER_BOUND('',#115,.T.);
#70=FACE_OUTER_BOUND('',#116,.T.);
#71=FACE_OUTER_BOUND('',#117,.T.);
#72=FACE_OUTER_BOUND('',#118,.T.);
#73=FACE_OUTER_BOUND('',#119,.T.);
#74=FACE_OUTER_BOUND('',#120,.T.);
#75=FACE_OUTER_BOUND('',#121,.T.);
#76=FACE_OUTER_BOUND('',#122,.T.);
#77=FACE_OUTER_BOUND('',#123,.T.);
#78=FACE_OUTER_BOUND('',#124,.T.);
#79=FACE_OUTER_BOUND('',#125,.T.);
#80=FACE_OUTER_BOUND('',#126,.T.);
#81=FACE_OUTER_BOUND('',#127,.T.);
#82=FACE_OUTER_BOUND('',#128,.T.);
#83=FACE_OUTER_BOUND('',#129,.T.);
#84=FACE_OUTER_BOUND('',#132,.T.);
#85=FACE_OUTER_BOUND('',#133,.T.);
#86=FACE_OUTER_BOUND('',#134,.T.);
#87=FACE_OUTER_BOUND('',#135,.T.);
#88=FACE_OUTER_BOUND('',#136,.T.);
#89=FACE_OUTER_BOUND('',#139,.T.);
#90=FACE_OUTER_BOUND('',#140,.T.);
#91=FACE_OUTER_BOUND('',#141,.T.);
#92=EDGE_LOOP('',(#568,#569,#570,#571));
#93=EDGE_LOOP('',(#572,#573,#574));
#94=EDGE_LOOP('',(#575,#576,#577,#578,#579,#580,#581,#582,#583,#584,#585,
#586));
#95=EDGE_LOOP('',(#587,#588,#589,#590,#591,#592,#593));
#96=EDGE_LOOP('',(#594,#595,#596,#597,#598,#599,#600,#601));
#97=EDGE_LOOP('',(#602,#603,#604,#605));
#98=EDGE_LOOP('',(#606,#607,#608,#609,#610,#611));
#99=EDGE_LOOP('',(#612,#613,#614,#615));
#100=EDGE_LOOP('',(#616,#617,#618,#619));
#101=EDGE_LOOP('',(#620,#621,#622,#623));
#102=EDGE_LOOP('',(#624,#625,#626,#627,#628,#629));
#103=EDGE_LOOP('',(#630,#631,#632,#633));
#104=EDGE_LOOP('',(#634,#635,#636,#637));
#105=EDGE_LOOP('',(#638,#639,#640,#641,#642,#643));
#106=EDGE_LOOP('',(#644,#645,#646,#647,#648,#649,#650,#651,#652,#653,#654,
#655));
#107=EDGE_LOOP('',(#656,#657,#658,#659));
#108=EDGE_LOOP('',(#660,#661,#662,#663,#664,#665,#666,#667,#668,#669));
#109=EDGE_LOOP('',(#670,#671,#672,#673));
#110=EDGE_LOOP('',(#674,#675,#676,#677,#678,#679,#680,#681));
#111=EDGE_LOOP('',(#682,#683,#684,#685));
#112=EDGE_LOOP('',(#686,#687,#688,#689));
#113=EDGE_LOOP('',(#690,#691,#692,#693));
#114=EDGE_LOOP('',(#694,#695,#696,#697));
#115=EDGE_LOOP('',(#698,#699,#700,#701));
#116=EDGE_LOOP('',(#702,#703,#704,#705));
#117=EDGE_LOOP('',(#706,#707,#708,#709));
#118=EDGE_LOOP('',(#710,#711,#712,#713));
#119=EDGE_LOOP('',(#714,#715,#716,#717));
#120=EDGE_LOOP('',(#718,#719,#720,#721));
#121=EDGE_LOOP('',(#722,#723,#724,#725));
#122=EDGE_LOOP('',(#726,#727,#728,#729));
#123=EDGE_LOOP('',(#730,#731,#732,#733));
#124=EDGE_LOOP('',(#734,#735,#736,#737));
#125=EDGE_LOOP('',(#738,#739,#740,#741));
#126=EDGE_LOOP('',(#742,#743,#744,#745));
#127=EDGE_LOOP('',(#746,#747,#748,#749));
#128=EDGE_LOOP('',(#750,#751,#752,#753));
#129=EDGE_LOOP('',(#754,#755,#756,#757,#758,#759,#760,#761));
#130=EDGE_LOOP('',(#762,#763,#764,#765,#766,#767,#768,#769));
#131=EDGE_LOOP('',(#770));
#132=EDGE_LOOP('',(#771,#772,#773,#774));
#133=EDGE_LOOP('',(#775,#776,#777,#778,#779,#780,#781,#782,#783,#784));
#134=EDGE_LOOP('',(#785,#786,#787,#788));
#135=EDGE_LOOP('',(#789,#790,#791,#792));
#136=EDGE_LOOP('',(#793,#794,#795,#796));
#137=EDGE_LOOP('',(#797));
#138=EDGE_LOOP('',(#798,#799,#800,#801,#802,#803,#804,#805));
#139=EDGE_LOOP('',(#806,#807,#808,#809));
#140=EDGE_LOOP('',(#810,#811,#812,#813));
#141=EDGE_LOOP('',(#814,#815,#816,#817,#818,#819));
#142=CIRCLE('',#898,30.);
#143=CIRCLE('',#899,30.);
#144=CIRCLE('',#903,5.);
#145=CIRCLE('',#904,5.);
#146=CIRCLE('',#905,0.499999999999994);
#147=CIRCLE('',#906,0.500000000000025);
#148=CIRCLE('',#907,0.499999999999989);
#149=CIRCLE('',#908,0.500000000000007);
#150=CIRCLE('',#910,1.);
#151=CIRCLE('',#911,1.);
#152=CIRCLE('',#913,1.);
#153=CIRCLE('',#916,1.);
#154=CIRCLE('',#918,5.00000000000018);
#155=CIRCLE('',#919,5.00000000000018);
#156=CIRCLE('',#921,5.);
#157=CIRCLE('',#925,5.);
#158=CIRCLE('',#928,5.);
#159=CIRCLE('',#932,0.499999999999994);
#160=CIRCLE('',#933,0.500000000000007);
#161=CIRCLE('',#934,0.499999999999989);
#162=CIRCLE('',#935,0.500000000000025);
#163=CIRCLE('',#945,5.);
#164=CIRCLE('',#946,5.);
#165=CIRCLE('',#948,2.);
#166=CIRCLE('',#949,2.);
#167=CIRCLE('',#952,2.);
#168=CIRCLE('',#953,2.);
#169=CIRCLE('',#956,2.00000000000001);
#170=CIRCLE('',#957,2.00000000000001);
#171=CIRCLE('',#960,2.00000000000001);
#172=CIRCLE('',#961,2.00000000000001);
#173=CIRCLE('',#964,5.);
#174=CIRCLE('',#967,5.);
#175=CIRCLE('',#968,5.);
#176=CIRCLE('',#970,5.);
#177=CIRCLE('',#971,5.);
#178=LINE('',#1236,#268);
#179=LINE('',#1240,#269);
#180=LINE('',#1244,#270);
#181=LINE('',#1245,#271);
#182=LINE('',#1248,#272);
#183=LINE('',#1250,#273);
#184=LINE('',#1252,#274);
#185=LINE('',#1254,#275);
#186=LINE('',#1256,#276);
#187=LINE('',#1258,#277);
#188=LINE('',#1260,#278);
#189=LINE('',#1262,#279);
#190=LINE('',#1264,#280);
#191=LINE('',#1265,#281);
#192=LINE('',#1268,#282);
#193=LINE('',#1272,#283);
#194=LINE('',#1275,#284);
#195=LINE('',#1278,#285);
#196=LINE('',#1282,#286);
#197=LINE('',#1286,#287);
#198=LINE('',#1290,#288);
#199=LINE('',#1297,#289);
#200=LINE('',#1300,#290);
#201=LINE('',#1303,#291);
#202=LINE('',#1306,#292);
#203=LINE('',#1307,#293);
#204=LINE('',#1310,#294);
#205=LINE('',#1311,#295);
#206=LINE('',#1315,#296);
#207=LINE('',#1319,#297);
#208=LINE('',#1323,#298);
#209=LINE('',#1327,#299);
#210=LINE('',#1329,#300);
#211=LINE('',#1331,#301);
#212=LINE('',#1333,#302);
#213=LINE('',#1337,#303);
#214=LINE('',#1338,#304);
#215=LINE('',#1341,#305);
#216=LINE('',#1342,#306);
#217=LINE('',#1345,#307);
#218=LINE('',#1348,#308);
#219=LINE('',#1351,#309);
#220=LINE('',#1352,#310);
#221=LINE('',#1354,#311);
#222=LINE('',#1356,#312);
#223=LINE('',#1357,#313);
#224=LINE('',#1360,#314);
#225=LINE('',#1364,#315);
#226=LINE('',#1366,#316);
#227=LINE('',#1367,#317);
#228=LINE('',#1368,#318);
#229=LINE('',#1369,#319);
#230=LINE('',#1376,#320);
#231=LINE('',#1380,#321);
#232=LINE('',#1384,#322);
#233=LINE('',#1387,#323);
#234=LINE('',#1389,#324);
#235=LINE('',#1390,#325);
#236=LINE('',#1392,#326);
#237=LINE('',#1394,#327);
#238=LINE('',#1396,#328);
#239=LINE('',#1398,#329);
#240=LINE('',#1400,#330);
#241=LINE('',#1402,#331);
#242=LINE('',#1408,#332);
#243=LINE('',#1415,#333);
#244=LINE('',#1418,#334);
#245=LINE('',#1421,#335);
#246=LINE('',#1423,#336);
#247=LINE('',#1424,#337);
#248=LINE('',#1429,#338);
#249=LINE('',#1433,#339);
#250=LINE('',#1435,#340);
#251=LINE('',#1436,#341);
#252=LINE('',#1441,#342);
#253=LINE('',#1445,#343);
#254=LINE('',#1447,#344);
#255=LINE('',#1448,#345);
#256=LINE('',#1453,#346);
#257=LINE('',#1456,#347);
#258=LINE('',#1457,#348);
#259=LINE('',#1461,#349);
#260=LINE('',#1464,#350);
#261=LINE('',#1466,#351);
#262=LINE('',#1467,#352);
#263=LINE('',#1473,#353);
#264=LINE('',#1477,#354);
#265=LINE('',#1480,#355);
#266=LINE('',#1482,#356);
#267=LINE('',#1484,#357);
#268=VECTOR('',#982,10.);
#269=VECTOR('',#985,10.);
#270=VECTOR('',#990,10.);
#271=VECTOR('',#991,10.);
#272=VECTOR('',#994,10.);
#273=VECTOR('',#995,10.);
#274=VECTOR('',#996,10.);
#275=VECTOR('',#997,10.);
#276=VECTOR('',#998,10.);
#277=VECTOR('',#999,10.);
#278=VECTOR('',#1000,10.);
#279=VECTOR('',#1001,10.);
#280=VECTOR('',#1002,10.);
#281=VECTOR('',#1003,10.);
#282=VECTOR('',#1006,10.);
#283=VECTOR('',#1009,10.);
#284=VECTOR('',#1012,10.);
#285=VECTOR('',#1013,10.);
#286=VECTOR('',#1016,10.);
#287=VECTOR('',#1019,10.);
#288=VECTOR('',#1022,10.);
#289=VECTOR('',#1029,10.);
#290=VECTOR('',#1032,10.);
#291=VECTOR('',#1035,10.);
#292=VECTOR('',#1038,10.);
#293=VECTOR('',#1039,10.);
#294=VECTOR('',#1042,10.);
#295=VECTOR('',#1043,10.);
#296=VECTOR('',#1048,10.);
#297=VECTOR('',#1051,10.);
#298=VECTOR('',#1054,10.);
#299=VECTOR('',#1059,10.);
#300=VECTOR('',#1060,10.);
#301=VECTOR('',#1061,10.);
#302=VECTOR('',#1062,10.);
#303=VECTOR('',#1067,10.);
#304=VECTOR('',#1068,10.);
#305=VECTOR('',#1071,10.);
#306=VECTOR('',#1072,10.);
#307=VECTOR('',#1075,10.);
#308=VECTOR('',#1078,10.);
#309=VECTOR('',#1081,10.);
#310=VECTOR('',#1082,10.);
#311=VECTOR('',#1083,10.);
#312=VECTOR('',#1084,10.);
#313=VECTOR('',#1085,10.);
#314=VECTOR('',#1088,10.);
#315=VECTOR('',#1093,10.);
#316=VECTOR('',#1094,10.);
#317=VECTOR('',#1095,10.);
#318=VECTOR('',#1096,10.);
#319=VECTOR('',#1097,10.);
#320=VECTOR('',#1104,10.);
#321=VECTOR('',#1107,10.);
#322=VECTOR('',#1110,10.);
#323=VECTOR('',#1113,10.);
#324=VECTOR('',#1116,10.);
#325=VECTOR('',#1117,10.);
#326=VECTOR('',#1120,10.);
#327=VECTOR('',#1123,10.);
#328=VECTOR('',#1126,10.);
#329=VECTOR('',#1129,10.);
#330=VECTOR('',#1132,10.);
#331=VECTOR('',#1135,10.);
#332=VECTOR('',#1142,5.);
#333=VECTOR('',#1149,10.);
#334=VECTOR('',#1152,10.);
#335=VECTOR('',#1155,10.);
#336=VECTOR('',#1156,10.);
#337=VECTOR('',#1157,10.);
#338=VECTOR('',#1162,10.);
#339=VECTOR('',#1167,10.);
#340=VECTOR('',#1168,10.);
#341=VECTOR('',#1169,10.);
#342=VECTOR('',#1174,10.);
#343=VECTOR('',#1179,10.);
#344=VECTOR('',#1180,10.);
#345=VECTOR('',#1181,10.);
#346=VECTOR('',#1186,10.);
#347=VECTOR('',#1191,10.);
#348=VECTOR('',#1192,10.);
#349=VECTOR('',#1197,10.);
#350=VECTOR('',#1200,10.);
#351=VECTOR('',#1201,10.);
#352=VECTOR('',#1202,10.);
#353=VECTOR('',#1211,10.);
#354=VECTOR('',#1214,10.);
#355=VECTOR('',#1219,10.);
#356=VECTOR('',#1222,10.);
#357=VECTOR('',#1225,10.);
#358=VERTEX_POINT('',#1234);
#359=VERTEX_POINT('',#1235);
#360=VERTEX_POINT('',#1237);
#361=VERTEX_POINT('',#1239);
#362=VERTEX_POINT('',#1243);
#363=VERTEX_POINT('',#1247);
#364=VERTEX_POINT('',#1249);
#365=VERTEX_POINT('',#1251);
#366=VERTEX_POINT('',#1253);
#367=VERTEX_POINT('',#1255);
#368=VERTEX_POINT('',#1257);
#369=VERTEX_POINT('',#1259);
#370=VERTEX_POINT('',#1261);
#371=VERTEX_POINT('',#1263);
#372=VERTEX_POINT('',#1267);
#373=VERTEX_POINT('',#1269);
#374=VERTEX_POINT('',#1271);
#375=VERTEX_POINT('',#1273);
#376=VERTEX_POINT('',#1276);
#377=VERTEX_POINT('',#1277);
#378=VERTEX_POINT('',#1279);
#379=VERTEX_POINT('',#1281);
#380=VERTEX_POINT('',#1283);
#381=VERTEX_POINT('',#1285);
#382=VERTEX_POINT('',#1287);
#383=VERTEX_POINT('',#1289);
#384=VERTEX_POINT('',#1293);
#385=VERTEX_POINT('',#1294);
#386=VERTEX_POINT('',#1296);
#387=VERTEX_POINT('',#1298);
#388=VERTEX_POINT('',#1302);
#389=VERTEX_POINT('',#1304);
#390=VERTEX_POINT('',#1309);
#391=VERTEX_POINT('',#1313);
#392=VERTEX_POINT('',#1317);
#393=VERTEX_POINT('',#1318);
#394=VERTEX_POINT('',#1320);
#395=VERTEX_POINT('',#1322);
#396=VERTEX_POINT('',#1326);
#397=VERTEX_POINT('',#1328);
#398=VERTEX_POINT('',#1330);
#399=VERTEX_POINT('',#1332);
#400=VERTEX_POINT('',#1336);
#401=VERTEX_POINT('',#1340);
#402=VERTEX_POINT('',#1344);
#403=VERTEX_POINT('',#1346);
#404=VERTEX_POINT('',#1350);
#405=VERTEX_POINT('',#1353);
#406=VERTEX_POINT('',#1355);
#407=VERTEX_POINT('',#1359);
#408=VERTEX_POINT('',#1363);
#409=VERTEX_POINT('',#1365);
#410=VERTEX_POINT('',#1372);
#411=VERTEX_POINT('',#1373);
#412=VERTEX_POINT('',#1375);
#413=VERTEX_POINT('',#1377);
#414=VERTEX_POINT('',#1379);
#415=VERTEX_POINT('',#1381);
#416=VERTEX_POINT('',#1383);
#417=VERTEX_POINT('',#1385);
#418=VERTEX_POINT('',#1405);
#419=VERTEX_POINT('',#1407);
#420=VERTEX_POINT('',#1411);
#421=VERTEX_POINT('',#1412);
#422=VERTEX_POINT('',#1414);
#423=VERTEX_POINT('',#1416);
#424=VERTEX_POINT('',#1420);
#425=VERTEX_POINT('',#1422);
#426=VERTEX_POINT('',#1426);
#427=VERTEX_POINT('',#1428);
#428=VERTEX_POINT('',#1432);
#429=VERTEX_POINT('',#1434);
#430=VERTEX_POINT('',#1438);
#431=VERTEX_POINT('',#1440);
#432=VERTEX_POINT('',#1444);
#433=VERTEX_POINT('',#1446);
#434=VERTEX_POINT('',#1450);
#435=VERTEX_POINT('',#1452);
#436=VERTEX_POINT('',#1459);
#437=VERTEX_POINT('',#1463);
#438=VERTEX_POINT('',#1465);
#439=VERTEX_POINT('',#1472);
#440=VERTEX_POINT('',#1474);
#441=VERTEX_POINT('',#1476);
#442=EDGE_CURVE('',#358,#359,#178,.T.);
#443=EDGE_CURVE('',#358,#360,#142,.T.);
#444=EDGE_CURVE('',#361,#360,#179,.T.);
#445=EDGE_CURVE('',#359,#361,#143,.T.);
#446=EDGE_CURVE('',#362,#358,#180,.T.);
#447=EDGE_CURVE('',#360,#362,#181,.T.);
#448=EDGE_CURVE('',#359,#363,#182,.T.);
#449=EDGE_CURVE('',#363,#364,#183,.T.);
#450=EDGE_CURVE('',#364,#365,#184,.T.);
#451=EDGE_CURVE('',#365,#366,#185,.T.);
#452=EDGE_CURVE('',#366,#367,#186,.T.);
#453=EDGE_CURVE('',#367,#368,#187,.T.);
#454=EDGE_CURVE('',#368,#369,#188,.T.);
#455=EDGE_CURVE('',#369,#370,#189,.T.);
#456=EDGE_CURVE('',#370,#371,#190,.T.);
#457=EDGE_CURVE('',#371,#362,#191,.T.);
#458=EDGE_CURVE('',#361,#372,#192,.T.);
#459=EDGE_CURVE('',#372,#373,#144,.T.);
#460=EDGE_CURVE('',#373,#374,#193,.T.);
#461=EDGE_CURVE('',#374,#375,#145,.T.);
#462=EDGE_CURVE('',#375,#363,#194,.T.);
#463=EDGE_CURVE('',#376,#377,#195,.T.);
#464=EDGE_CURVE('',#377,#378,#146,.T.);
#465=EDGE_CURVE('',#378,#379,#196,.T.);
#466=EDGE_CURVE('',#379,#380,#147,.T.);
#467=EDGE_CURVE('',#380,#381,#197,.T.);
#468=EDGE_CURVE('',#381,#382,#148,.T.);
#469=EDGE_CURVE('',#382,#383,#198,.T.);
#470=EDGE_CURVE('',#383,#376,#149,.T.);
#471=EDGE_CURVE('',#384,#385,#150,.T.);
#472=EDGE_CURVE('',#384,#386,#199,.T.);
#473=EDGE_CURVE('',#386,#387,#151,.T.);
#474=EDGE_CURVE('',#387,#385,#200,.T.);
#475=EDGE_CURVE('',#388,#385,#201,.T.);
#476=EDGE_CURVE('',#388,#389,#152,.T.);
#477=EDGE_CURVE('',#368,#389,#202,.T.);
#478=EDGE_CURVE('',#384,#367,#203,.T.);
#479=EDGE_CURVE('',#390,#387,#204,.T.);
#480=EDGE_CURVE('',#388,#390,#205,.T.);
#481=EDGE_CURVE('',#390,#391,#153,.T.);
#482=EDGE_CURVE('',#391,#389,#206,.T.);
#483=EDGE_CURVE('',#392,#393,#207,.T.);
#484=EDGE_CURVE('',#392,#394,#154,.T.);
#485=EDGE_CURVE('',#395,#394,#208,.T.);
#486=EDGE_CURVE('',#393,#395,#155,.T.);
#487=EDGE_CURVE('',#393,#396,#209,.T.);
#488=EDGE_CURVE('',#395,#397,#210,.T.);
#489=EDGE_CURVE('',#397,#398,#211,.T.);
#490=EDGE_CURVE('',#399,#398,#212,.T.);
#491=EDGE_CURVE('',#396,#399,#156,.T.);
#492=EDGE_CURVE('',#394,#400,#213,.T.);
#493=EDGE_CURVE('',#397,#400,#214,.T.);
#494=EDGE_CURVE('',#400,#401,#215,.T.);
#495=EDGE_CURVE('',#398,#401,#216,.T.);
#496=EDGE_CURVE('',#402,#392,#217,.T.);
#497=EDGE_CURVE('',#403,#402,#157,.T.);
#498=EDGE_CURVE('',#401,#403,#218,.T.);
#499=EDGE_CURVE('',#404,#371,#219,.T.);
#500=EDGE_CURVE('',#402,#404,#220,.T.);
#501=EDGE_CURVE('',#405,#396,#221,.T.);
#502=EDGE_CURVE('',#406,#405,#222,.T.);
#503=EDGE_CURVE('',#372,#406,#223,.T.);
#504=EDGE_CURVE('',#399,#407,#224,.T.);
#505=EDGE_CURVE('',#407,#405,#158,.T.);
#506=EDGE_CURVE('',#408,#365,#225,.T.);
#507=EDGE_CURVE('',#409,#408,#226,.T.);
#508=EDGE_CURVE('',#370,#409,#227,.T.);
#509=EDGE_CURVE('',#369,#391,#228,.T.);
#510=EDGE_CURVE('',#386,#366,#229,.T.);
#511=EDGE_CURVE('',#410,#411,#159,.T.);
#512=EDGE_CURVE('',#412,#410,#230,.T.);
#513=EDGE_CURVE('',#413,#412,#160,.T.);
#514=EDGE_CURVE('',#414,#413,#231,.T.);
#515=EDGE_CURVE('',#415,#414,#161,.T.);
#516=EDGE_CURVE('',#416,#415,#232,.T.);
#517=EDGE_CURVE('',#417,#416,#162,.T.);
#518=EDGE_CURVE('',#411,#417,#233,.T.);
#519=EDGE_CURVE('',#377,#410,#234,.T.);
#520=EDGE_CURVE('',#378,#411,#235,.T.);
#521=EDGE_CURVE('',#379,#417,#236,.T.);
#522=EDGE_CURVE('',#380,#416,#237,.T.);
#523=EDGE_CURVE('',#381,#415,#238,.T.);
#524=EDGE_CURVE('',#382,#414,#239,.T.);
#525=EDGE_CURVE('',#383,#413,#240,.T.);
#526=EDGE_CURVE('',#376,#412,#241,.T.);
#527=EDGE_CURVE('',#418,#418,#163,.T.);
#528=EDGE_CURVE('',#418,#419,#242,.T.);
#529=EDGE_CURVE('',#419,#419,#164,.T.);
#530=EDGE_CURVE('',#420,#421,#165,.T.);
#531=EDGE_CURVE('',#422,#420,#243,.T.);
#532=EDGE_CURVE('',#423,#422,#166,.T.);
#533=EDGE_CURVE('',#423,#421,#244,.T.);
#534=EDGE_CURVE('',#424,#420,#245,.T.);
#535=EDGE_CURVE('',#425,#424,#246,.T.);
#536=EDGE_CURVE('',#422,#425,#247,.T.);
#537=EDGE_CURVE('',#426,#424,#167,.T.);
#538=EDGE_CURVE('',#427,#426,#248,.T.);
#539=EDGE_CURVE('',#425,#427,#168,.T.);
#540=EDGE_CURVE('',#428,#426,#249,.T.);
#541=EDGE_CURVE('',#429,#428,#250,.T.);
#542=EDGE_CURVE('',#427,#429,#251,.T.);
#543=EDGE_CURVE('',#430,#428,#169,.T.);
#544=EDGE_CURVE('',#431,#430,#252,.T.);
#545=EDGE_CURVE('',#429,#431,#170,.T.);
#546=EDGE_CURVE('',#432,#430,#253,.T.);
#547=EDGE_CURVE('',#433,#432,#254,.T.);
#548=EDGE_CURVE('',#431,#433,#255,.T.);
#549=EDGE_CURVE('',#434,#432,#171,.T.);
#550=EDGE_CURVE('',#435,#434,#256,.T.);
#551=EDGE_CURVE('',#433,#435,#172,.T.);
#552=EDGE_CURVE('',#421,#434,#257,.T.);
#553=EDGE_CURVE('',#435,#423,#258,.T.);
#554=EDGE_CURVE('',#404,#436,#173,.T.);
#555=EDGE_CURVE('',#436,#403,#259,.T.);
#556=EDGE_CURVE('',#437,#436,#260,.T.);
#557=EDGE_CURVE('',#438,#437,#261,.T.);
#558=EDGE_CURVE('',#407,#438,#262,.T.);
#559=EDGE_CURVE('',#437,#409,#174,.T.);
#560=EDGE_CURVE('',#408,#438,#175,.T.);
#561=EDGE_CURVE('',#364,#439,#263,.T.);
#562=EDGE_CURVE('',#440,#439,#176,.T.);
#563=EDGE_CURVE('',#440,#441,#264,.T.);
#564=EDGE_CURVE('',#406,#441,#177,.T.);
#565=EDGE_CURVE('',#439,#375,#265,.T.);
#566=EDGE_CURVE('',#374,#440,#266,.T.);
#567=EDGE_CURVE('',#441,#373,#267,.T.);
#568=ORIENTED_EDGE('',*,*,#442,.F.);
#569=ORIENTED_EDGE('',*,*,#443,.T.);
#570=ORIENTED_EDGE('',*,*,#444,.F.);
#571=ORIENTED_EDGE('',*,*,#445,.F.);
#572=ORIENTED_EDGE('',*,*,#446,.F.);
#573=ORIENTED_EDGE('',*,*,#447,.F.);
#574=ORIENTED_EDGE('',*,*,#443,.F.);
#575=ORIENTED_EDGE('',*,*,#446,.T.);
#576=ORIENTED_EDGE('',*,*,#442,.T.);
#577=ORIENTED_EDGE('',*,*,#448,.T.);
#578=ORIENTED_EDGE('',*,*,#449,.T.);
#579=ORIENTED_EDGE('',*,*,#450,.T.);
#580=ORIENTED_EDGE('',*,*,#451,.T.);
#581=ORIENTED_EDGE('',*,*,#452,.T.);
#582=ORIENTED_EDGE('',*,*,#453,.T.);
#583=ORIENTED_EDGE('',*,*,#454,.T.);
#584=ORIENTED_EDGE('',*,*,#455,.T.);
#585=ORIENTED_EDGE('',*,*,#456,.T.);
#586=ORIENTED_EDGE('',*,*,#457,.T.);
#587=ORIENTED_EDGE('',*,*,#445,.T.);
#588=ORIENTED_EDGE('',*,*,#458,.T.);
#589=ORIENTED_EDGE('',*,*,#459,.T.);
#590=ORIENTED_EDGE('',*,*,#460,.T.);
#591=ORIENTED_EDGE('',*,*,#461,.T.);
#592=ORIENTED_EDGE('',*,*,#462,.T.);
#593=ORIENTED_EDGE('',*,*,#448,.F.);
#594=ORIENTED_EDGE('',*,*,#463,.T.);
#595=ORIENTED_EDGE('',*,*,#464,.T.);
#596=ORIENTED_EDGE('',*,*,#465,.T.);
#597=ORIENTED_EDGE('',*,*,#466,.T.);
#598=ORIENTED_EDGE('',*,*,#467,.T.);
#599=ORIENTED_EDGE('',*,*,#468,.T.);
#600=ORIENTED_EDGE('',*,*,#469,.T.);
#601=ORIENTED_EDGE('',*,*,#470,.T.);
#602=ORIENTED_EDGE('',*,*,#471,.F.);
#603=ORIENTED_EDGE('',*,*,#472,.T.);
#604=ORIENTED_EDGE('',*,*,#473,.T.);
#605=ORIENTED_EDGE('',*,*,#474,.T.);
#606=ORIENTED_EDGE('',*,*,#471,.T.);
#607=ORIENTED_EDGE('',*,*,#475,.F.);
#608=ORIENTED_EDGE('',*,*,#476,.T.);
#609=ORIENTED_EDGE('',*,*,#477,.F.);
#610=ORIENTED_EDGE('',*,*,#453,.F.);
#611=ORIENTED_EDGE('',*,*,#478,.F.);
#612=ORIENTED_EDGE('',*,*,#474,.F.);
#613=ORIENTED_EDGE('',*,*,#479,.F.);
#614=ORIENTED_EDGE('',*,*,#480,.F.);
#615=ORIENTED_EDGE('',*,*,#475,.T.);
#616=ORIENTED_EDGE('',*,*,#476,.F.);
#617=ORIENTED_EDGE('',*,*,#480,.T.);
#618=ORIENTED_EDGE('',*,*,#481,.T.);
#619=ORIENTED_EDGE('',*,*,#482,.T.);
#620=ORIENTED_EDGE('',*,*,#483,.F.);
#621=ORIENTED_EDGE('',*,*,#484,.T.);
#622=ORIENTED_EDGE('',*,*,#485,.F.);
#623=ORIENTED_EDGE('',*,*,#486,.F.);
#624=ORIENTED_EDGE('',*,*,#487,.F.);
#625=ORIENTED_EDGE('',*,*,#486,.T.);
#626=ORIENTED_EDGE('',*,*,#488,.T.);
#627=ORIENTED_EDGE('',*,*,#489,.T.);
#628=ORIENTED_EDGE('',*,*,#490,.F.);
#629=ORIENTED_EDGE('',*,*,#491,.F.);
#630=ORIENTED_EDGE('',*,*,#488,.F.);
#631=ORIENTED_EDGE('',*,*,#485,.T.);
#632=ORIENTED_EDGE('',*,*,#492,.T.);
#633=ORIENTED_EDGE('',*,*,#493,.F.);
#634=ORIENTED_EDGE('',*,*,#489,.F.);
#635=ORIENTED_EDGE('',*,*,#493,.T.);
#636=ORIENTED_EDGE('',*,*,#494,.T.);
#637=ORIENTED_EDGE('',*,*,#495,.F.);
#638=ORIENTED_EDGE('',*,*,#496,.F.);
#639=ORIENTED_EDGE('',*,*,#497,.F.);
#640=ORIENTED_EDGE('',*,*,#498,.F.);
#641=ORIENTED_EDGE('',*,*,#494,.F.);
#642=ORIENTED_EDGE('',*,*,#492,.F.);
#643=ORIENTED_EDGE('',*,*,#484,.F.);
#644=ORIENTED_EDGE('',*,*,#447,.T.);
#645=ORIENTED_EDGE('',*,*,#457,.F.);
#646=ORIENTED_EDGE('',*,*,#499,.F.);
#647=ORIENTED_EDGE('',*,*,#500,.F.);
#648=ORIENTED_EDGE('',*,*,#496,.T.);
#649=ORIENTED_EDGE('',*,*,#483,.T.);
#650=ORIENTED_EDGE('',*,*,#487,.T.);
#651=ORIENTED_EDGE('',*,*,#501,.F.);
#652=ORIENTED_EDGE('',*,*,#502,.F.);
#653=ORIENTED_EDGE('',*,*,#503,.F.);
#654=ORIENTED_EDGE('',*,*,#458,.F.);
#655=ORIENTED_EDGE('',*,*,#444,.T.);
#656=ORIENTED_EDGE('',*,*,#491,.T.);
#657=ORIENTED_EDGE('',*,*,#504,.T.);
#658=ORIENTED_EDGE('',*,*,#505,.T.);
#659=ORIENTED_EDGE('',*,*,#501,.T.);
#660=ORIENTED_EDGE('',*,*,#451,.F.);
#661=ORIENTED_EDGE('',*,*,#506,.F.);
#662=ORIENTED_EDGE('',*,*,#507,.F.);
#663=ORIENTED_EDGE('',*,*,#508,.F.);
#664=ORIENTED_EDGE('',*,*,#455,.F.);
#665=ORIENTED_EDGE('',*,*,#509,.T.);
#666=ORIENTED_EDGE('',*,*,#481,.F.);
#667=ORIENTED_EDGE('',*,*,#479,.T.);
#668=ORIENTED_EDGE('',*,*,#473,.F.);
#669=ORIENTED_EDGE('',*,*,#510,.T.);
#670=ORIENTED_EDGE('',*,*,#472,.F.);
#671=ORIENTED_EDGE('',*,*,#478,.T.);
#672=ORIENTED_EDGE('',*,*,#452,.F.);
#673=ORIENTED_EDGE('',*,*,#510,.F.);
#674=ORIENTED_EDGE('',*,*,#511,.F.);
#675=ORIENTED_EDGE('',*,*,#512,.F.);
#676=ORIENTED_EDGE('',*,*,#513,.F.);
#677=ORIENTED_EDGE('',*,*,#514,.F.);
#678=ORIENTED_EDGE('',*,*,#515,.F.);
#679=ORIENTED_EDGE('',*,*,#516,.F.);
#680=ORIENTED_EDGE('',*,*,#517,.F.);
#681=ORIENTED_EDGE('',*,*,#518,.F.);
#682=ORIENTED_EDGE('',*,*,#464,.F.);
#683=ORIENTED_EDGE('',*,*,#519,.T.);
#684=ORIENTED_EDGE('',*,*,#511,.T.);
#685=ORIENTED_EDGE('',*,*,#520,.F.);
#686=ORIENTED_EDGE('',*,*,#465,.F.);
#687=ORIENTED_EDGE('',*,*,#520,.T.);
#688=ORIENTED_EDGE('',*,*,#518,.T.);
#689=ORIENTED_EDGE('',*,*,#521,.F.);
#690=ORIENTED_EDGE('',*,*,#466,.F.);
#691=ORIENTED_EDGE('',*,*,#521,.T.);
#692=ORIENTED_EDGE('',*,*,#517,.T.);
#693=ORIENTED_EDGE('',*,*,#522,.F.);
#694=ORIENTED_EDGE('',*,*,#467,.F.);
#695=ORIENTED_EDGE('',*,*,#522,.T.);
#696=ORIENTED_EDGE('',*,*,#516,.T.);
#697=ORIENTED_EDGE('',*,*,#523,.F.);
#698=ORIENTED_EDGE('',*,*,#468,.F.);
#699=ORIENTED_EDGE('',*,*,#523,.T.);
#700=ORIENTED_EDGE('',*,*,#515,.T.);
#701=ORIENTED_EDGE('',*,*,#524,.F.);
#702=ORIENTED_EDGE('',*,*,#469,.F.);
#703=ORIENTED_EDGE('',*,*,#524,.T.);
#704=ORIENTED_EDGE('',*,*,#514,.T.);
#705=ORIENTED_EDGE('',*,*,#525,.F.);
#706=ORIENTED_EDGE('',*,*,#470,.F.);
#707=ORIENTED_EDGE('',*,*,#525,.T.);
#708=ORIENTED_EDGE('',*,*,#513,.T.);
#709=ORIENTED_EDGE('',*,*,#526,.F.);
#710=ORIENTED_EDGE('',*,*,#463,.F.);
#711=ORIENTED_EDGE('',*,*,#526,.T.);
#712=ORIENTED_EDGE('',*,*,#512,.T.);
#713=ORIENTED_EDGE('',*,*,#519,.F.);
#714=ORIENTED_EDGE('',*,*,#527,.F.);
#715=ORIENTED_EDGE('',*,*,#528,.T.);
#716=ORIENTED_EDGE('',*,*,#529,.F.);
#717=ORIENTED_EDGE('',*,*,#528,.F.);
#718=ORIENTED_EDGE('',*,*,#530,.F.);
#719=ORIENTED_EDGE('',*,*,#531,.F.);
#720=ORIENTED_EDGE('',*,*,#532,.F.);
#721=ORIENTED_EDGE('',*,*,#533,.T.);
#722=ORIENTED_EDGE('',*,*,#534,.F.);
#723=ORIENTED_EDGE('',*,*,#535,.F.);
#724=ORIENTED_EDGE('',*,*,#536,.F.);
#725=ORIENTED_EDGE('',*,*,#531,.T.);
#726=ORIENTED_EDGE('',*,*,#537,.F.);
#727=ORIENTED_EDGE('',*,*,#538,.F.);
#728=ORIENTED_EDGE('',*,*,#539,.F.);
#729=ORIENTED_EDGE('',*,*,#535,.T.);
#730=ORIENTED_EDGE('',*,*,#540,.F.);
#731=ORIENTED_EDGE('',*,*,#541,.F.);
#732=ORIENTED_EDGE('',*,*,#542,.F.);
#733=ORIENTED_EDGE('',*,*,#538,.T.);
#734=ORIENTED_EDGE('',*,*,#543,.F.);
#735=ORIENTED_EDGE('',*,*,#544,.F.);
#736=ORIENTED_EDGE('',*,*,#545,.F.);
#737=ORIENTED_EDGE('',*,*,#541,.T.);
#738=ORIENTED_EDGE('',*,*,#546,.F.);
#739=ORIENTED_EDGE('',*,*,#547,.F.);
#740=ORIENTED_EDGE('',*,*,#548,.F.);
#741=ORIENTED_EDGE('',*,*,#544,.T.);
#742=ORIENTED_EDGE('',*,*,#549,.F.);
#743=ORIENTED_EDGE('',*,*,#550,.F.);
#744=ORIENTED_EDGE('',*,*,#551,.F.);
#745=ORIENTED_EDGE('',*,*,#547,.T.);
#746=ORIENTED_EDGE('',*,*,#552,.F.);
#747=ORIENTED_EDGE('',*,*,#533,.F.);
#748=ORIENTED_EDGE('',*,*,#553,.F.);
#749=ORIENTED_EDGE('',*,*,#550,.T.);
#750=ORIENTED_EDGE('',*,*,#497,.T.);
#751=ORIENTED_EDGE('',*,*,#500,.T.);
#752=ORIENTED_EDGE('',*,*,#554,.T.);
#753=ORIENTED_EDGE('',*,*,#555,.T.);
#754=ORIENTED_EDGE('',*,*,#498,.T.);
#755=ORIENTED_EDGE('',*,*,#555,.F.);
#756=ORIENTED_EDGE('',*,*,#556,.F.);
#757=ORIENTED_EDGE('',*,*,#557,.F.);
#758=ORIENTED_EDGE('',*,*,#558,.F.);
#759=ORIENTED_EDGE('',*,*,#504,.F.);
#760=ORIENTED_EDGE('',*,*,#490,.T.);
#761=ORIENTED_EDGE('',*,*,#495,.T.);
#762=ORIENTED_EDGE('',*,*,#542,.T.);
#763=ORIENTED_EDGE('',*,*,#545,.T.);
#764=ORIENTED_EDGE('',*,*,#548,.T.);
#765=ORIENTED_EDGE('',*,*,#551,.T.);
#766=ORIENTED_EDGE('',*,*,#553,.T.);
#767=ORIENTED_EDGE('',*,*,#532,.T.);
#768=ORIENTED_EDGE('',*,*,#536,.T.);
#769=ORIENTED_EDGE('',*,*,#539,.T.);
#770=ORIENTED_EDGE('',*,*,#527,.T.);
#771=ORIENTED_EDGE('',*,*,#559,.T.);
#772=ORIENTED_EDGE('',*,*,#507,.T.);
#773=ORIENTED_EDGE('',*,*,#560,.T.);
#774=ORIENTED_EDGE('',*,*,#557,.T.);
#775=ORIENTED_EDGE('',*,*,#450,.F.);
#776=ORIENTED_EDGE('',*,*,#561,.T.);
#777=ORIENTED_EDGE('',*,*,#562,.F.);
#778=ORIENTED_EDGE('',*,*,#563,.T.);
#779=ORIENTED_EDGE('',*,*,#564,.F.);
#780=ORIENTED_EDGE('',*,*,#502,.T.);
#781=ORIENTED_EDGE('',*,*,#505,.F.);
#782=ORIENTED_EDGE('',*,*,#558,.T.);
#783=ORIENTED_EDGE('',*,*,#560,.F.);
#784=ORIENTED_EDGE('',*,*,#506,.T.);
#785=ORIENTED_EDGE('',*,*,#449,.F.);
#786=ORIENTED_EDGE('',*,*,#462,.F.);
#787=ORIENTED_EDGE('',*,*,#565,.F.);
#788=ORIENTED_EDGE('',*,*,#561,.F.);
#789=ORIENTED_EDGE('',*,*,#461,.F.);
#790=ORIENTED_EDGE('',*,*,#566,.T.);
#791=ORIENTED_EDGE('',*,*,#562,.T.);
#792=ORIENTED_EDGE('',*,*,#565,.T.);
#793=ORIENTED_EDGE('',*,*,#567,.F.);
#794=ORIENTED_EDGE('',*,*,#563,.F.);
#795=ORIENTED_EDGE('',*,*,#566,.F.);
#796=ORIENTED_EDGE('',*,*,#460,.F.);
#797=ORIENTED_EDGE('',*,*,#529,.T.);
#798=ORIENTED_EDGE('',*,*,#540,.T.);
#799=ORIENTED_EDGE('',*,*,#537,.T.);
#800=ORIENTED_EDGE('',*,*,#534,.T.);
#801=ORIENTED_EDGE('',*,*,#530,.T.);
#802=ORIENTED_EDGE('',*,*,#552,.T.);
#803=ORIENTED_EDGE('',*,*,#549,.T.);
#804=ORIENTED_EDGE('',*,*,#546,.T.);
#805=ORIENTED_EDGE('',*,*,#543,.T.);
#806=ORIENTED_EDGE('',*,*,#503,.T.);
#807=ORIENTED_EDGE('',*,*,#564,.T.);
#808=ORIENTED_EDGE('',*,*,#567,.T.);
#809=ORIENTED_EDGE('',*,*,#459,.F.);
#810=ORIENTED_EDGE('',*,*,#482,.F.);
#811=ORIENTED_EDGE('',*,*,#509,.F.);
#812=ORIENTED_EDGE('',*,*,#454,.F.);
#813=ORIENTED_EDGE('',*,*,#477,.T.);
#814=ORIENTED_EDGE('',*,*,#456,.F.);
#815=ORIENTED_EDGE('',*,*,#508,.T.);
#816=ORIENTED_EDGE('',*,*,#559,.F.);
#817=ORIENTED_EDGE('',*,*,#556,.T.);
#818=ORIENTED_EDGE('',*,*,#554,.F.);
#819=ORIENTED_EDGE('',*,*,#499,.T.);
#820=CYLINDRICAL_SURFACE('',#897,30.);
#821=CYLINDRICAL_SURFACE('',#909,1.);
#822=CYLINDRICAL_SURFACE('',#915,1.);
#823=CYLINDRICAL_SURFACE('',#917,5.00000000000018);
#824=CYLINDRICAL_SURFACE('',#927,5.);
#825=CYLINDRICAL_SURFACE('',#936,0.499999999999994);
#826=CYLINDRICAL_SURFACE('',#938,0.500000000000025);
#827=CYLINDRICAL_SURFACE('',#940,0.499999999999989);
#828=CYLINDRICAL_SURFACE('',#942,0.500000000000007);
#829=CYLINDRICAL_SURFACE('',#944,5.);
#830=CYLINDRICAL_SURFACE('',#947,2.);
#831=CYLINDRICAL_SURFACE('',#951,2.);
#832=CYLINDRICAL_SURFACE('',#955,2.00000000000001);
#833=CYLINDRICAL_SURFACE('',#959,2.00000000000001);
#834=CYLINDRICAL_SURFACE('',#963,5.);
#835=CYLINDRICAL_SURFACE('',#966,5.);
#836=CYLINDRICAL_SURFACE('',#973,5.);
#837=CYLINDRICAL_SURFACE('',#975,5.);
#838=ADVANCED_FACE('',(#47),#820,.F.);
#839=ADVANCED_FACE('',(#48),#20,.T.);
#840=ADVANCED_FACE('',(#49),#21,.T.);
#841=ADVANCED_FACE('',(#50,#15),#22,.F.);
#842=ADVANCED_FACE('',(#51),#821,.F.);
#843=ADVANCED_FACE('',(#52),#23,.F.);
#844=ADVANCED_FACE('',(#53),#24,.F.);
#845=ADVANCED_FACE('',(#54),#822,.F.);
#846=ADVANCED_FACE('',(#55),#823,.T.);
#847=ADVANCED_FACE('',(#56),#25,.F.);
#848=ADVANCED_FACE('',(#57),#26,.F.);
#849=ADVANCED_FACE('',(#58),#27,.F.);
#850=ADVANCED_FACE('',(#59),#28,.T.);
#851=ADVANCED_FACE('',(#60),#29,.F.);
#852=ADVANCED_FACE('',(#61),#824,.T.);
#853=ADVANCED_FACE('',(#62),#30,.T.);
#854=ADVANCED_FACE('',(#63),#31,.F.);
#855=ADVANCED_FACE('',(#64),#32,.T.);
#856=ADVANCED_FACE('',(#65),#825,.F.);
#857=ADVANCED_FACE('',(#66),#33,.F.);
#858=ADVANCED_FACE('',(#67),#826,.F.);
#859=ADVANCED_FACE('',(#68),#34,.F.);
#860=ADVANCED_FACE('',(#69),#827,.F.);
#861=ADVANCED_FACE('',(#70),#35,.F.);
#862=ADVANCED_FACE('',(#71),#828,.F.);
#863=ADVANCED_FACE('',(#72),#36,.F.);
#864=ADVANCED_FACE('',(#73),#829,.F.);
#865=ADVANCED_FACE('',(#74),#830,.F.);
#866=ADVANCED_FACE('',(#75),#37,.F.);
#867=ADVANCED_FACE('',(#76),#831,.F.);
#868=ADVANCED_FACE('',(#77),#38,.F.);
#869=ADVANCED_FACE('',(#78),#832,.F.);
#870=ADVANCED_FACE('',(#79),#39,.F.);
#871=ADVANCED_FACE('',(#80),#833,.F.);
#872=ADVANCED_FACE('',(#81),#40,.F.);
#873=ADVANCED_FACE('',(#82),#834,.T.);
#874=ADVANCED_FACE('',(#83,#16,#17),#41,.T.);
#875=ADVANCED_FACE('',(#84),#835,.T.);
#876=ADVANCED_FACE('',(#85),#42,.T.);
#877=ADVANCED_FACE('',(#86),#43,.T.);
#878=ADVANCED_FACE('',(#87),#836,.F.);
#879=ADVANCED_FACE('',(#88,#18,#19),#44,.T.);
#880=ADVANCED_FACE('',(#89),#837,.F.);
#881=ADVANCED_FACE('',(#90),#45,.F.);
#882=ADVANCED_FACE('',(#91),#46,.T.);
#883=CLOSED_SHELL('',(#838,#839,#840,#841,#842,#843,#844,#845,#846,#847,
#848,#849,#850,#851,#852,#853,#854,#855,#856,#857,#858,#859,#860,#861,#862,
#863,#864,#865,#866,#867,#868,#869,#870,#871,#872,#873,#874,#875,#876,#877,
#878,#879,#880,#881,#882));
#884=DERIVED_UNIT_ELEMENT(#886,1.);
#885=DERIVED_UNIT_ELEMENT(#1493,-3.);
#886=(
MASS_UNIT()
NAMED_UNIT(*)
SI_UNIT(.KILO.,.GRAM.)
);
#887=DERIVED_UNIT((#884,#885));
#888=MEASURE_REPRESENTATION_ITEM('density measure',
POSITIVE_RATIO_MEASURE(7850.),#887);
#889=PROPERTY_DEFINITION_REPRESENTATION(#894,#891);
#890=PROPERTY_DEFINITION_REPRESENTATION(#895,#892);
#891=REPRESENTATION('material name',(#893),#1490);
#892=REPRESENTATION('density',(#888),#1490);
#893=DESCRIPTIVE_REPRESENTATION_ITEM('Steel','Steel');
#894=PROPERTY_DEFINITION('material property','material name',#1500);
#895=PROPERTY_DEFINITION('material property','density of part',#1500);
#896=AXIS2_PLACEMENT_3D('',#1232,#978,#979);
#897=AXIS2_PLACEMENT_3D('',#1233,#980,#981);
#898=AXIS2_PLACEMENT_3D('',#1238,#983,#984);
#899=AXIS2_PLACEMENT_3D('',#1241,#986,#987);
#900=AXIS2_PLACEMENT_3D('',#1242,#988,#989);
#901=AXIS2_PLACEMENT_3D('',#1246,#992,#993);
#902=AXIS2_PLACEMENT_3D('',#1266,#1004,#1005);
#903=AXIS2_PLACEMENT_3D('',#1270,#1007,#1008);
#904=AXIS2_PLACEMENT_3D('',#1274,#1010,#1011);
#905=AXIS2_PLACEMENT_3D('',#1280,#1014,#1015);
#906=AXIS2_PLACEMENT_3D('',#1284,#1017,#1018);
#907=AXIS2_PLACEMENT_3D('',#1288,#1020,#1021);
#908=AXIS2_PLACEMENT_3D('',#1291,#1023,#1024);
#909=AXIS2_PLACEMENT_3D('',#1292,#1025,#1026);
#910=AXIS2_PLACEMENT_3D('',#1295,#1027,#1028);
#911=AXIS2_PLACEMENT_3D('',#1299,#1030,#1031);
#912=AXIS2_PLACEMENT_3D('',#1301,#1033,#1034);
#913=AXIS2_PLACEMENT_3D('',#1305,#1036,#1037);
#914=AXIS2_PLACEMENT_3D('',#1308,#1040,#1041);
#915=AXIS2_PLACEMENT_3D('',#1312,#1044,#1045);
#916=AXIS2_PLACEMENT_3D('',#1314,#1046,#1047);
#917=AXIS2_PLACEMENT_3D('',#1316,#1049,#1050);
#918=AXIS2_PLACEMENT_3D('',#1321,#1052,#1053);
#919=AXIS2_PLACEMENT_3D('',#1324,#1055,#1056);
#920=AXIS2_PLACEMENT_3D('',#1325,#1057,#1058);
#921=AXIS2_PLACEMENT_3D('',#1334,#1063,#1064);
#922=AXIS2_PLACEMENT_3D('',#1335,#1065,#1066);
#923=AXIS2_PLACEMENT_3D('',#1339,#1069,#1070);
#924=AXIS2_PLACEMENT_3D('',#1343,#1073,#1074);
#925=AXIS2_PLACEMENT_3D('',#1347,#1076,#1077);
#926=AXIS2_PLACEMENT_3D('',#1349,#1079,#1080);
#927=AXIS2_PLACEMENT_3D('',#1358,#1086,#1087);
#928=AXIS2_PLACEMENT_3D('',#1361,#1089,#1090);
#929=AXIS2_PLACEMENT_3D('',#1362,#1091,#1092);
#930=AXIS2_PLACEMENT_3D('',#1370,#1098,#1099);
#931=AXIS2_PLACEMENT_3D('',#1371,#1100,#1101);
#932=AXIS2_PLACEMENT_3D('',#1374,#1102,#1103);
#933=AXIS2_PLACEMENT_3D('',#1378,#1105,#1106);
#934=AXIS2_PLACEMENT_3D('',#1382,#1108,#1109);
#935=AXIS2_PLACEMENT_3D('',#1386,#1111,#1112);
#936=AXIS2_PLACEMENT_3D('',#1388,#1114,#1115);
#937=AXIS2_PLACEMENT_3D('',#1391,#1118,#1119);
#938=AXIS2_PLACEMENT_3D('',#1393,#1121,#1122);
#939=AXIS2_PLACEMENT_3D('',#1395,#1124,#1125);
#940=AXIS2_PLACEMENT_3D('',#1397,#1127,#1128);
#941=AXIS2_PLACEMENT_3D('',#1399,#1130,#1131);
#942=AXIS2_PLACEMENT_3D('',#1401,#1133,#1134);
#943=AXIS2_PLACEMENT_3D('',#1403,#1136,#1137);
#944=AXIS2_PLACEMENT_3D('',#1404,#1138,#1139);
#945=AXIS2_PLACEMENT_3D('',#1406,#1140,#1141);
#946=AXIS2_PLACEMENT_3D('',#1409,#1143,#1144);
#947=AXIS2_PLACEMENT_3D('',#1410,#1145,#1146);
#948=AXIS2_PLACEMENT_3D('',#1413,#1147,#1148);
#949=AXIS2_PLACEMENT_3D('',#1417,#1150,#1151);
#950=AXIS2_PLACEMENT_3D('',#1419,#1153,#1154);
#951=AXIS2_PLACEMENT_3D('',#1425,#1158,#1159);
#952=AXIS2_PLACEMENT_3D('',#1427,#1160,#1161);
#953=AXIS2_PLACEMENT_3D('',#1430,#1163,#1164);
#954=AXIS2_PLACEMENT_3D('',#1431,#1165,#1166);
#955=AXIS2_PLACEMENT_3D('',#1437,#1170,#1171);
#956=AXIS2_PLACEMENT_3D('',#1439,#1172,#1173);
#957=AXIS2_PLACEMENT_3D('',#1442,#1175,#1176);
#958=AXIS2_PLACEMENT_3D('',#1443,#1177,#1178);
#959=AXIS2_PLACEMENT_3D('',#1449,#1182,#1183);
#960=AXIS2_PLACEMENT_3D('',#1451,#1184,#1185);
#961=AXIS2_PLACEMENT_3D('',#1454,#1187,#1188);
#962=AXIS2_PLACEMENT_3D('',#1455,#1189,#1190);
#963=AXIS2_PLACEMENT_3D('',#1458,#1193,#1194);
#964=AXIS2_PLACEMENT_3D('',#1460,#1195,#1196);
#965=AXIS2_PLACEMENT_3D('',#1462,#1198,#1199);
#966=AXIS2_PLACEMENT_3D('',#1468,#1203,#1204);
#967=AXIS2_PLACEMENT_3D('',#1469,#1205,#1206);
#968=AXIS2_PLACEMENT_3D('',#1470,#1207,#1208);
#969=AXIS2_PLACEMENT_3D('',#1471,#1209,#1210);
#970=AXIS2_PLACEMENT_3D('',#1475,#1212,#1213);
#971=AXIS2_PLACEMENT_3D('',#1478,#1215,#1216);
#972=AXIS2_PLACEMENT_3D('',#1479,#1217,#1218);
#973=AXIS2_PLACEMENT_3D('',#1481,#1220,#1221);
#974=AXIS2_PLACEMENT_3D('',#1483,#1223,#1224);
#975=AXIS2_PLACEMENT_3D('',#1485,#1226,#1227);
#976=AXIS2_PLACEMENT_3D('',#1486,#1228,#1229);
#977=AXIS2_PLACEMENT_3D('',#1487,#1230,#1231);
#978=DIRECTION('axis',(0.,0.,1.));
#979=DIRECTION('refdir',(1.,0.,0.));
#980=DIRECTION('center_axis',(0.,0.,1.));
#981=DIRECTION('ref_axis',(1.,0.,0.));
#982=DIRECTION('',(0.,0.,-1.));
#983=DIRECTION('center_axis',(0.,0.,1.));
#984=DIRECTION('ref_axis',(1.,0.,0.));
#985=DIRECTION('',(0.,0.,1.));
#986=DIRECTION('center_axis',(0.,0.,1.));
#987=DIRECTION('ref_axis',(1.,0.,0.));
#988=DIRECTION('center_axis',(0.,0.,-1.));
#989=DIRECTION('ref_axis',(1.,0.,0.));
#990=DIRECTION('',(0.866025403784439,0.499999999999999,0.));
#991=DIRECTION('',(0.5,-0.866025403784439,0.));
#992=DIRECTION('center_axis',(0.499999999999999,-0.866025403784439,6.12323399573677E-17));
#993=DIRECTION('ref_axis',(0.,-7.07050159149938E-17,-1.));
#994=DIRECTION('',(0.866025403784439,0.499999999999999,0.));
#995=DIRECTION('',(3.06161699786838E-17,-5.30287619362454E-17,-1.));
#996=DIRECTION('',(0.866025403784439,0.499999999999999,0.));
#997=DIRECTION('',(-3.06161699786838E-17,5.30287619362454E-17,1.));
#998=DIRECTION('',(-0.866025403784439,-0.499999999999999,0.));
#999=DIRECTION('',(-3.06161699786839E-17,5.30287619362453E-17,1.));
#1000=DIRECTION('',(0.866025403784439,0.499999999999999,0.));
#1001=DIRECTION('',(-3.06161699786838E-17,5.30287619362454E-17,1.));
#1002=DIRECTION('',(-0.866025403784439,-0.499999999999999,0.));
#1003=DIRECTION('',(3.06161699786838E-17,-5.30287619362453E-17,-1.));
#1004=DIRECTION('center_axis',(0.,0.,1.));
#1005=DIRECTION('ref_axis',(1.,0.,0.));
#1006=DIRECTION('',(-0.5,0.866025403784439,0.));
#1007=DIRECTION('center_axis',(0.,0.,-1.));
#1008=DIRECTION('ref_axis',(-0.499999999999998,0.86602540378444,0.));
#1009=DIRECTION('',(1.,-4.39534328316243E-16,0.));
#1010=DIRECTION('center_axis',(0.,0.,-1.));
#1011=DIRECTION('ref_axis',(0.500000000000001,0.866025403784438,0.));
#1012=DIRECTION('',(0.499999999999999,-0.866025403784439,0.));
#1013=DIRECTION('',(-1.,0.,0.));
#1014=DIRECTION('center_axis',(0.,0.,1.));
#1015=DIRECTION('ref_axis',(-1.,-3.55271367880055E-14,0.));
#1016=DIRECTION('',(-4.19684553087996E-16,-1.,0.));
#1017=DIRECTION('center_axis',(0.,0.,1.));
#1018=DIRECTION('ref_axis',(-2.66453525910024E-14,-1.,0.));
#1019=DIRECTION('',(1.,0.,0.));
#1020=DIRECTION('center_axis',(0.,0.,1.));
#1021=DIRECTION('ref_axis',(1.,0.,0.));
#1022=DIRECTION('',(2.09842276543998E-16,1.,0.));
#1023=DIRECTION('center_axis',(0.,0.,1.));
#1024=DIRECTION('ref_axis',(0.,1.,0.));
#1025=DIRECTION('center_axis',(-0.866025403784438,-0.500000000000001,0.));
#1026=DIRECTION('ref_axis',(-0.35355339059328,0.612372435695792,-0.707106781186547));
#1027=DIRECTION('center_axis',(0.866025403784438,0.500000000000001,0.));
#1028=DIRECTION('ref_axis',(-0.35355339059328,0.612372435695792,-0.707106781186547));
#1029=DIRECTION('',(0.866025403784438,0.500000000000001,0.));
#1030=DIRECTION('center_axis',(0.866025403784439,0.499999999999999,0.));
#1031=DIRECTION('ref_axis',(-0.35355339059328,0.612372435695792,-0.707106781186547));
#1032=DIRECTION('',(-0.866025403784438,-0.500000000000001,0.));
#1033=DIRECTION('center_axis',(-0.866025403784438,-0.500000000000001,0.));
#1034=DIRECTION('ref_axis',(0.,0.,1.));
#1035=DIRECTION('',(0.,0.,-1.));
#1036=DIRECTION('center_axis',(0.866025403784438,0.500000000000001,0.));
#1037=DIRECTION('ref_axis',(-0.353553390593256,0.612372435695795,0.707106781186556));
#1038=DIRECTION('',(-0.499999999999999,0.866025403784439,0.));
#1039=DIRECTION('',(0.499999999999999,-0.866025403784439,0.));
#1040=DIRECTION('center_axis',(-0.500000000000001,0.866025403784438,0.));
#1041=DIRECTION('ref_axis',(0.,0.,-1.));
#1042=DIRECTION('',(0.,0.,-1.));
#1043=DIRECTION('',(0.866025403784438,0.500000000000001,0.));
#1044=DIRECTION('center_axis',(-0.866025403784438,-0.500000000000001,0.));
#1045=DIRECTION('ref_axis',(-0.353553390593256,0.612372435695795,0.707106781186556));
#1046=DIRECTION('center_axis',(0.866025403784439,0.499999999999999,0.));
#1047=DIRECTION('ref_axis',(-0.353553390593256,0.612372435695795,0.707106781186556));
#1048=DIRECTION('',(-0.866025403784438,-0.500000000000001,0.));
#1049=DIRECTION('center_axis',(0.,0.,1.));
#1050=DIRECTION('ref_axis',(-0.866025403784428,0.500000000000018,0.));
#1051=DIRECTION('',(0.,0.,-1.));
#1052=DIRECTION('center_axis',(0.,0.,-1.));
#1053=DIRECTION('ref_axis',(-0.866025403784428,0.500000000000018,0.));
#1054=DIRECTION('',(0.,0.,1.));
#1055=DIRECTION('center_axis',(0.,0.,-1.));
#1056=DIRECTION('ref_axis',(-0.866025403784428,0.500000000000018,0.));
#1057=DIRECTION('center_axis',(0.,0.,-1.));
#1058=DIRECTION('ref_axis',(1.,0.,0.));
#1059=DIRECTION('',(-0.5,0.866025403784439,0.));
#1060=DIRECTION('',(1.,9.23910794012146E-16,0.));
#1061=DIRECTION('',(8.88178419700125E-16,1.,0.));
#1062=DIRECTION('',(1.,-4.10232039761827E-16,0.));
#1063=DIRECTION('center_axis',(0.,0.,-1.));
#1064=DIRECTION('ref_axis',(-0.500000000000002,0.866025403784437,0.));
#1065=DIRECTION('center_axis',(9.23910794012146E-16,-1.,0.));
#1066=DIRECTION('ref_axis',(1.,9.23910794012146E-16,0.));
#1067=DIRECTION('',(1.,9.23910794012146E-16,0.));
#1068=DIRECTION('',(0.,0.,1.));
#1069=DIRECTION('center_axis',(1.,-8.88178419700125E-16,0.));
#1070=DIRECTION('ref_axis',(8.88178419700125E-16,1.,0.));
#1071=DIRECTION('',(8.88178419700125E-16,1.,0.));
#1072=DIRECTION('',(0.,0.,1.));
#1073=DIRECTION('center_axis',(0.,0.,-1.));
#1074=DIRECTION('ref_axis',(1.,0.,0.));
#1075=DIRECTION('',(0.5,-0.866025403784439,0.));
#1076=DIRECTION('center_axis',(0.,0.,1.));
#1077=DIRECTION('ref_axis',(-0.500000000000002,0.866025403784437,0.));
#1078=DIRECTION('',(-1.,4.10232039761827E-16,0.));
#1079=DIRECTION('center_axis',(0.866025403784439,0.5,0.));
#1080=DIRECTION('ref_axis',(0.,0.,-1.));
#1081=DIRECTION('',(0.5,-0.866025403784439,0.));
#1082=DIRECTION('',(0.,0.,1.));
#1083=DIRECTION('',(0.,0.,1.));
#1084=DIRECTION('',(-0.5,0.866025403784439,0.));
#1085=DIRECTION('',(0.,0.,-1.));
#1086=DIRECTION('center_axis',(0.,0.,-1.));
#1087=DIRECTION('ref_axis',(-0.500000000000002,0.866025403784437,0.));
#1088=DIRECTION('',(0.,0.,-1.));
#1089=DIRECTION('center_axis',(0.,0.,1.));
#1090=DIRECTION('ref_axis',(-0.500000000000002,0.866025403784437,0.));
#1091=DIRECTION('center_axis',(0.866025403784439,0.499999999999999,0.));
#1092=DIRECTION('ref_axis',(0.499999999999999,-0.866025403784439,0.));
#1093=DIRECTION('',(0.499999999999999,-0.866025403784439,0.));
#1094=DIRECTION('',(0.,0.,-1.));
#1095=DIRECTION('',(-0.499999999999999,0.866025403784439,0.));
#1096=DIRECTION('',(-0.499999999999999,0.866025403784439,0.));
#1097=DIRECTION('',(0.499999999999999,-0.866025403784439,0.));
#1098=DIRECTION('center_axis',(0.,0.,-1.));
#1099=DIRECTION('ref_axis',(0.499999999999999,-0.866025403784439,0.));
#1100=DIRECTION('center_axis',(0.,0.,-1.));
#1101=DIRECTION('ref_axis',(1.,0.,0.));
#1102=DIRECTION('center_axis',(0.,0.,1.));
#1103=DIRECTION('ref_axis',(-1.,-3.55271367880055E-14,0.));
#1104=DIRECTION('',(-1.,0.,0.));
#1105=DIRECTION('center_axis',(0.,0.,1.));
#1106=DIRECTION('ref_axis',(0.,1.,0.));
#1107=DIRECTION('',(2.09842276543998E-16,1.,0.));
#1108=DIRECTION('center_axis',(0.,0.,1.));
#1109=DIRECTION('ref_axis',(1.,0.,0.));
#1110=DIRECTION('',(1.,0.,0.));
#1111=DIRECTION('center_axis',(0.,0.,1.));
#1112=DIRECTION('ref_axis',(-2.66453525910024E-14,-1.,0.));
#1113=DIRECTION('',(-4.19684553087996E-16,-1.,0.));
#1114=DIRECTION('center_axis',(0.,0.,1.));
#1115=DIRECTION('ref_axis',(-1.,-3.55271367880055E-14,0.));
#1116=DIRECTION('',(0.,0.,1.));
#1117=DIRECTION('',(0.,0.,1.));
#1118=DIRECTION('center_axis',(-1.,4.19684553087996E-16,0.));
#1119=DIRECTION('ref_axis',(-4.19684553087996E-16,-1.,0.));
#1120=DIRECTION('',(0.,0.,1.));
#1121=DIRECTION('center_axis',(0.,0.,1.));
#1122=DIRECTION('ref_axis',(-2.66453525910024E-14,-1.,0.));
#1123=DIRECTION('',(0.,0.,1.));
#1124=DIRECTION('center_axis',(0.,-1.,0.));
#1125=DIRECTION('ref_axis',(1.,0.,0.));
#1126=DIRECTION('',(0.,0.,1.));
#1127=DIRECTION('center_axis',(0.,0.,1.));
#1128=DIRECTION('ref_axis',(1.,0.,0.));
#1129=DIRECTION('',(0.,0.,1.));
#1130=DIRECTION('center_axis',(1.,-2.09842276543998E-16,0.));
#1131=DIRECTION('ref_axis',(2.09842276543998E-16,1.,0.));
#1132=DIRECTION('',(0.,0.,1.));
#1133=DIRECTION('center_axis',(0.,0.,1.));
#1134=DIRECTION('ref_axis',(0.,1.,0.));
#1135=DIRECTION('',(0.,0.,1.));
#1136=DIRECTION('center_axis',(0.,1.,0.));
#1137=DIRECTION('ref_axis',(-1.,0.,0.));
#1138=DIRECTION('center_axis',(0.,-1.,0.));
#1139=DIRECTION('ref_axis',(-1.,0.,0.));
#1140=DIRECTION('center_axis',(-4.10232039761827E-16,-1.,0.));
#1141=DIRECTION('ref_axis',(-1.,0.,0.));
#1142=DIRECTION('',(0.,-1.,0.));
#1143=DIRECTION('center_axis',(4.39534328316243E-16,1.,0.));
#1144=DIRECTION('ref_axis',(-1.,0.,0.));
#1145=DIRECTION('center_axis',(0.,-1.,0.));
#1146=DIRECTION('ref_axis',(0.,0.,1.));
#1147=DIRECTION('center_axis',(4.39534328316243E-16,1.,0.));
#1148=DIRECTION('ref_axis',(0.,0.,1.));
#1149=DIRECTION('',(0.,-1.,0.));
#1150=DIRECTION('center_axis',(-4.10232039761827E-16,-1.,0.));
#1151=DIRECTION('ref_axis',(0.,0.,1.));
#1152=DIRECTION('',(0.,-1.,0.));
#1153=DIRECTION('center_axis',(1.56347419324765E-17,0.,1.));
#1154=DIRECTION('ref_axis',(-1.,0.,1.56347419324765E-17));
#1155=DIRECTION('',(1.,-4.39534328316243E-16,-1.56347419324765E-17));
#1156=DIRECTION('',(0.,-1.,0.));
#1157=DIRECTION('',(-1.,4.10232039761827E-16,1.56347419324765E-17));
#1158=DIRECTION('center_axis',(0.,-1.,0.));
#1159=DIRECTION('ref_axis',(-1.,0.,1.66533453693773E-15));
#1160=DIRECTION('center_axis',(4.39534328316243E-16,1.,0.));
#1161=DIRECTION('ref_axis',(-1.,0.,1.66533453693773E-15));
#1162=DIRECTION('',(0.,-1.,0.));
#1163=DIRECTION('center_axis',(-4.10232039761827E-16,-1.,0.));
#1164=DIRECTION('ref_axis',(-1.,0.,1.66533453693773E-15));
#1165=DIRECTION('center_axis',(-1.,0.,-7.06226280732268E-17));
#1166=DIRECTION('ref_axis',(7.06226280732268E-17,0.,-1.));
#1167=DIRECTION('',(-7.06226280732268E-17,3.10410693940936E-32,1.));
#1168=DIRECTION('',(0.,-1.,0.));
#1169=DIRECTION('',(7.06226280732268E-17,-2.89716647678207E-32,-1.));
#1170=DIRECTION('center_axis',(0.,-1.,0.));
#1171=DIRECTION('ref_axis',(-6.6613381477509E-15,0.,-1.));
#1172=DIRECTION('center_axis',(4.39534328316243E-16,1.,0.));
#1173=DIRECTION('ref_axis',(-6.6613381477509E-15,0.,-1.));
#1174=DIRECTION('',(0.,-1.,0.));
#1175=DIRECTION('center_axis',(-4.10232039761827E-16,-1.,0.));
#1176=DIRECTION('ref_axis',(-6.6613381477509E-15,0.,-1.));
#1177=DIRECTION('center_axis',(0.,0.,-1.));
#1178=DIRECTION('ref_axis',(1.,0.,0.));
#1179=DIRECTION('',(-1.,4.39534328316243E-16,0.));
#1180=DIRECTION('',(0.,-1.,0.));
#1181=DIRECTION('',(1.,-4.10232039761827E-16,0.));
#1182=DIRECTION('center_axis',(0.,-1.,0.));
#1183=DIRECTION('ref_axis',(1.,0.,-8.8817841970012E-15));
#1184=DIRECTION('center_axis',(4.39534328316243E-16,1.,0.));
#1185=DIRECTION('ref_axis',(1.,0.,-8.8817841970012E-15));
#1186=DIRECTION('',(0.,-1.,0.));
#1187=DIRECTION('center_axis',(-4.10232039761827E-16,-1.,0.));
#1188=DIRECTION('ref_axis',(1.,0.,-8.8817841970012E-15));
#1189=DIRECTION('center_axis',(1.,0.,-7.06226280732268E-17));
#1190=DIRECTION('ref_axis',(7.06226280732268E-17,0.,1.));
#1191=DIRECTION('',(-7.06226280732268E-17,3.10410693940936E-32,-1.));
#1192=DIRECTION('',(7.06226280732268E-17,-2.89716647678207E-32,1.));
#1193=DIRECTION('center_axis',(0.,0.,-1.));
#1194=DIRECTION('ref_axis',(-0.500000000000002,0.866025403784437,0.));
#1195=DIRECTION('center_axis',(0.,0.,-1.));
#1196=DIRECTION('ref_axis',(-0.500000000000002,0.866025403784437,0.));
#1197=DIRECTION('',(0.,0.,-1.));
#1198=DIRECTION('center_axis',(4.10232039761827E-16,1.,0.));
#1199=DIRECTION('ref_axis',(1.,-4.10232039761827E-16,0.));
#1200=DIRECTION('',(-1.,4.10232039761827E-16,0.));
#1201=DIRECTION('',(0.,0.,1.));
#1202=DIRECTION('',(1.,-4.10232039761827E-16,0.));
#1203=DIRECTION('center_axis',(0.,0.,1.));
#1204=DIRECTION('ref_axis',(0.500000000000001,0.866025403784438,0.));
#1205=DIRECTION('center_axis',(0.,0.,-1.));
#1206=DIRECTION('ref_axis',(0.500000000000001,0.866025403784438,0.));
#1207=DIRECTION('center_axis',(0.,0.,1.));
#1208=DIRECTION('ref_axis',(0.500000000000001,0.866025403784438,0.));
#1209=DIRECTION('center_axis',(0.,0.,-1.));
#1210=DIRECTION('ref_axis',(-1.,0.,0.));
#1211=DIRECTION('',(-0.499999999999999,0.866025403784439,0.));
#1212=DIRECTION('center_axis',(0.,0.,-1.));
#1213=DIRECTION('ref_axis',(0.500000000000001,0.866025403784438,0.));
#1214=DIRECTION('',(-1.,4.39534328316243E-16,0.));
#1215=DIRECTION('center_axis',(0.,0.,-1.));
#1216=DIRECTION('ref_axis',(-0.499999999999998,0.86602540378444,0.));
#1217=DIRECTION('center_axis',(-0.866025403784439,-0.499999999999999,0.));
#1218=DIRECTION('ref_axis',(-0.499999999999999,0.866025403784439,0.));
#1219=DIRECTION('',(0.,0.,1.));
#1220=DIRECTION('center_axis',(0.,0.,-1.));
#1221=DIRECTION('ref_axis',(0.500000000000001,0.866025403784438,0.));
#1222=DIRECTION('',(0.,0.,-1.));
#1223=DIRECTION('center_axis',(-4.39534328316243E-16,-1.,0.));
#1224=DIRECTION('ref_axis',(-1.,4.39534328316243E-16,0.));
#1225=DIRECTION('',(0.,0.,1.));
#1226=DIRECTION('center_axis',(0.,0.,-1.));
#1227=DIRECTION('ref_axis',(-0.499999999999998,0.86602540378444,0.));
#1228=DIRECTION('center_axis',(0.,0.,1.));
#1229=DIRECTION('ref_axis',(-0.499999999999999,0.866025403784439,0.));
#1230=DIRECTION('center_axis',(0.,0.,1.));
#1231=DIRECTION('ref_axis',(1.,0.,0.));
#1232=CARTESIAN_POINT('',(0.,0.,0.));
#1233=CARTESIAN_POINT('Origin',(3.70948805936828E-14,4.23311924750556E-14,
0.));
#1234=CARTESIAN_POINT('',(25.9807621135332,15.,3.));
#1235=CARTESIAN_POINT('',(25.9807621135332,15.,4.44089209850063E-15));
#1236=CARTESIAN_POINT('',(25.9807621135332,15.,0.));
#1237=CARTESIAN_POINT('',(-15.,25.9807621135332,3.));
#1238=CARTESIAN_POINT('Origin',(3.70948805936828E-14,4.23311924750556E-14,
3.));
#1239=CARTESIAN_POINT('',(-15.,25.9807621135332,0.));
#1240=CARTESIAN_POINT('',(-15.,25.9807621135332,0.));
#1241=CARTESIAN_POINT('Origin',(3.70948805936828E-14,4.23311924750556E-14,
0.));
#1242=CARTESIAN_POINT('Origin',(3.5527136788005E-14,4.44089209850063E-14,
3.));
#1243=CARTESIAN_POINT('',(3.70030320837468E-14,4.24902787608643E-14,3.));
#1244=CARTESIAN_POINT('',(9.94349196519381E-15,2.68674459892703E-14,3.));
#1245=CARTESIAN_POINT('',(4.48231085125555E-14,2.89455090670959E-14,3.));
#1246=CARTESIAN_POINT('Origin',(-1.51272239702155E-14,8.43755209988451E-15,
-52.941));
#1247=CARTESIAN_POINT('',(121.243556529821,69.9999999999999,0.));
#1248=CARTESIAN_POINT('',(-5.21029850675559E-15,1.79062859333022E-14,4.44089209850063E-15));
#1249=CARTESIAN_POINT('',(121.243556529821,69.9999999999999,-111.882));
#1250=CARTESIAN_POINT('',(121.243556529821,69.9999999999999,-26.4705));
#1251=CARTESIAN_POINT('',(129.903810567666,74.9999999999999,-111.882));
#1252=CARTESIAN_POINT('',(-1.33226762955019E-14,5.31198384260027E-15,-111.882));
#1253=CARTESIAN_POINT('',(129.903810567666,74.9999999999999,-77.941));
#1254=CARTESIAN_POINT('',(129.903810567666,74.9999999999999,-26.4705));
#1255=CARTESIAN_POINT('',(125.573683548744,72.4999999999999,-77.941));
#1256=CARTESIAN_POINT('',(64.9519052838329,37.5,-77.941));
#1257=CARTESIAN_POINT('',(125.573683548744,72.4999999999999,-27.941));
#1258=CARTESIAN_POINT('',(125.573683548744,72.4999999999999,-52.941));
#1259=CARTESIAN_POINT('',(129.903810567666,74.9999999999999,-27.941));
#1260=CARTESIAN_POINT('',(64.9519052838329,37.5,-27.941));
#1261=CARTESIAN_POINT('',(129.903810567666,74.9999999999999,6.));
#1262=CARTESIAN_POINT('',(129.903810567666,74.9999999999999,-26.4705));
#1263=CARTESIAN_POINT('',(3.69111835738107E-14,4.26493650466731E-14,6.));
#1264=CARTESIAN_POINT('',(-5.39399552662769E-15,1.82244585049197E-14,6.00000000000001));
#1265=CARTESIAN_POINT('',(3.87157312485243E-14,3.95237967893889E-14,-52.941));
#1266=CARTESIAN_POINT('Origin',(0.,3.5527136788005E-14,0.));
#1267=CARTESIAN_POINT('',(-80.4422863405994,139.330127018922,0.));
#1268=CARTESIAN_POINT('',(4.23051791004384E-14,3.33066907387547E-14,0.));
#1269=CARTESIAN_POINT('',(-77.9422863405994,140.,0.));
#1270=CARTESIAN_POINT('Origin',(-77.9422863405995,135.,0.));
#1271=CARTESIAN_POINT('',(77.9422863405996,140.,0.));
#1272=CARTESIAN_POINT('',(40.4145188432739,140.,0.));
#1273=CARTESIAN_POINT('',(82.2724133595218,137.5,0.));
#1274=CARTESIAN_POINT('Origin',(77.9422863405996,135.,0.));
#1275=CARTESIAN_POINT('',(141.450815951458,34.9999999999999,0.));
#1276=CARTESIAN_POINT('',(39.7499999999999,139.21731493096,0.));
#1277=CARTESIAN_POINT('',(-39.6600000000001,139.21731493096,0.));
#1278=CARTESIAN_POINT('',(19.875,139.21731493096,0.));
#1279=CARTESIAN_POINT('',(-40.1600000000001,138.71731493096,0.));
#1280=CARTESIAN_POINT('Origin',(-39.6600000000001,138.71731493096,0.));
#1281=CARTESIAN_POINT('',(-40.1600000000001,96.3913149309598,0.));
#1282=CARTESIAN_POINT('',(-40.1600000000001,69.3586574654799,0.));
#1283=CARTESIAN_POINT('',(-39.6600000000001,95.8913149309598,0.));
#1284=CARTESIAN_POINT('Origin',(-39.66,96.3913149309598,0.));
#1285=CARTESIAN_POINT('',(39.7499999999999,95.8913149309598,0.));
#1286=CARTESIAN_POINT('',(-19.83,95.8913149309598,0.));
#1287=CARTESIAN_POINT('',(40.2499999999999,96.3913149309598,0.));
#1288=CARTESIAN_POINT('Origin',(39.7499999999999,96.3913149309598,0.));
#1289=CARTESIAN_POINT('',(40.25,138.71731493096,0.));
#1290=CARTESIAN_POINT('',(40.2499999999999,48.1956574654799,0.));
#1291=CARTESIAN_POINT('Origin',(39.7499999999999,138.71731493096,0.));
#1292=CARTESIAN_POINT('Origin',(122.903810567666,87.1243556529821,-76.941));
#1293=CARTESIAN_POINT('',(118.573683548744,84.6243556529821,-77.941));
#1294=CARTESIAN_POINT('',(118.073683548744,85.4903810567665,-76.941));
#1295=CARTESIAN_POINT('Origin',(118.573683548744,84.6243556529821,-76.941));
#1296=CARTESIAN_POINT('',(122.903810567666,87.1243556529821,-77.941));
#1297=CARTESIAN_POINT('',(122.903810567666,87.1243556529821,-77.941));
#1298=CARTESIAN_POINT('',(122.403810567666,87.9903810567665,-76.941));
#1299=CARTESIAN_POINT('Origin',(122.903810567666,87.1243556529821,-76.941));
#1300=CARTESIAN_POINT('',(122.403810567666,87.9903810567665,-76.941));
#1301=CARTESIAN_POINT('Origin',(125.573683548744,72.4999999999999,-52.941));
#1302=CARTESIAN_POINT('',(118.073683548744,85.4903810567665,-28.941));
#1303=CARTESIAN_POINT('',(118.073683548744,85.4903810567665,-77.941));
#1304=CARTESIAN_POINT('',(118.573683548744,84.6243556529821,-27.941));
#1305=CARTESIAN_POINT('Origin',(118.573683548744,84.6243556529821,-28.941));
#1306=CARTESIAN_POINT('',(118.073683548744,85.4903810567665,-27.941));
#1307=CARTESIAN_POINT('',(133.073683548744,59.5096189432333,-77.941));
#1308=CARTESIAN_POINT('Origin',(122.403810567666,87.9903810567665,-27.941));
#1309=CARTESIAN_POINT('',(122.403810567666,87.9903810567665,-28.941));
#1310=CARTESIAN_POINT('',(122.403810567666,87.9903810567665,-13.9705));
#1311=CARTESIAN_POINT('',(122.403810567666,87.9903810567665,-28.941));
#1312=CARTESIAN_POINT('Origin',(122.903810567666,87.1243556529821,-28.941));
#1313=CARTESIAN_POINT('',(122.903810567666,87.1243556529821,-27.941));
#1314=CARTESIAN_POINT('Origin',(122.903810567666,87.1243556529821,-28.941));
#1315=CARTESIAN_POINT('',(122.903810567666,87.1243556529821,-27.941));
#1316=CARTESIAN_POINT('Origin',(-80.8290376865475,140.,-111.882));
#1317=CARTESIAN_POINT('',(-83.3290376865475,144.330127018922,-41.882));
#1318=CARTESIAN_POINT('',(-83.3290376865475,144.330127018922,-86.882));
#1319=CARTESIAN_POINT('',(-83.3290376865475,144.330127018922,-111.882));
#1320=CARTESIAN_POINT('',(-80.8290376865475,145.,-41.882));
#1321=CARTESIAN_POINT('Origin',(-80.8290376865475,140.,-41.882));
#1322=CARTESIAN_POINT('',(-80.8290376865475,145.,-86.882));
#1323=CARTESIAN_POINT('',(-80.8290376865475,145.,-111.882));
#1324=CARTESIAN_POINT('Origin',(-80.8290376865475,140.,-86.882));
#1325=CARTESIAN_POINT('Origin',(-80.3525403784438,137.924682452694,-86.882));
#1326=CARTESIAN_POINT('',(-86.2157890324957,149.330127018922,-86.882));
#1327=CARTESIAN_POINT('',(-39.9056372505393,69.1185912263473,-86.882));
#1328=CARTESIAN_POINT('',(-61.6025403784438,145.,-86.882));
#1329=CARTESIAN_POINT('',(-80.5907890324957,145.,-86.882));
#1330=CARTESIAN_POINT('',(-61.6025403784438,150.,-86.882));
#1331=CARTESIAN_POINT('',(-61.6025403784438,141.462341226347,-86.882));
#1332=CARTESIAN_POINT('',(-83.7157890324957,150.,-86.882));
#1333=CARTESIAN_POINT('',(-83.4775403784438,150.,-86.882));
#1334=CARTESIAN_POINT('Origin',(-83.7157890324957,145.,-86.882));
#1335=CARTESIAN_POINT('Origin',(-80.8290376865475,145.,-111.882));
#1336=CARTESIAN_POINT('',(-61.6025403784438,145.,-41.882));
#1337=CARTESIAN_POINT('',(-61.6025403784438,145.,-41.882));
#1338=CARTESIAN_POINT('',(-61.6025403784438,145.,-111.882));
#1339=CARTESIAN_POINT('Origin',(-61.6025403784438,145.,-111.882));
#1340=CARTESIAN_POINT('',(-61.6025403784438,150.,-41.882));
#1341=CARTESIAN_POINT('',(-61.6025403784438,150.,-41.882));
#1342=CARTESIAN_POINT('',(-61.6025403784438,150.,-55.941));
#1343=CARTESIAN_POINT('Origin',(-80.3525403784438,137.924682452694,-41.882));
#1344=CARTESIAN_POINT('',(-86.2157890324957,149.330127018922,-41.882));
#1345=CARTESIAN_POINT('',(-39.9056372505393,69.1185912263473,-41.882));
#1346=CARTESIAN_POINT('',(-83.7157890324957,150.,-41.882));
#1347=CARTESIAN_POINT('Origin',(-83.7157890324957,145.,-41.882));
#1348=CARTESIAN_POINT('',(-83.4775403784438,150.,-41.882));
#1349=CARTESIAN_POINT('Origin',(5.38429552187398E-14,1.33226762955019E-14,
-52.941));
#1350=CARTESIAN_POINT('',(-86.2157890324957,149.330127018922,6.00000000000001));
#1351=CARTESIAN_POINT('',(4.23051791004384E-14,3.33066907387547E-14,6.));
#1352=CARTESIAN_POINT('',(-86.2157890324957,149.330127018922,0.));
#1353=CARTESIAN_POINT('',(-86.2157890324957,149.330127018922,-111.882));
#1354=CARTESIAN_POINT('',(-86.2157890324957,149.330127018922,0.));
#1355=CARTESIAN_POINT('',(-80.4422863405994,139.330127018922,-111.882));
#1356=CARTESIAN_POINT('',(5.38429552187398E-14,1.33226762955019E-14,-111.882));
#1357=CARTESIAN_POINT('',(-80.4422863405994,139.330127018922,0.));
#1358=CARTESIAN_POINT('Origin',(-83.7157890324957,145.,0.));
#1359=CARTESIAN_POINT('',(-83.7157890324957,150.,-111.882));
#1360=CARTESIAN_POINT('',(-83.7157890324957,150.,0.));
#1361=CARTESIAN_POINT('Origin',(-83.7157890324957,145.,-111.882));
#1362=CARTESIAN_POINT('Origin',(86.602540378444,150.,0.));
#1363=CARTESIAN_POINT('',(88.045916051418,147.5,-111.882));
#1364=CARTESIAN_POINT('',(173.205080756888,-1.06581410364015E-13,-111.882));
#1365=CARTESIAN_POINT('',(88.045916051418,147.5,6.));
#1366=CARTESIAN_POINT('',(88.045916051418,147.5,0.));
#1367=CARTESIAN_POINT('',(108.253175473055,112.5,6.));
#1368=CARTESIAN_POINT('',(112.003175473055,106.004809471617,-27.941));
#1369=CARTESIAN_POINT('',(104.503175473055,118.995190528383,-77.941));
#1370=CARTESIAN_POINT('Origin',(122.403810567666,87.9903810567665,-77.941));
#1371=CARTESIAN_POINT('Origin',(0.0449999999999395,117.55431493096,1.));
#1372=CARTESIAN_POINT('',(-39.6600000000001,139.21731493096,1.));
#1373=CARTESIAN_POINT('',(-40.1600000000001,138.71731493096,1.));
#1374=CARTESIAN_POINT('Origin',(-39.6600000000001,138.71731493096,1.));
#1375=CARTESIAN_POINT('',(39.7499999999999,139.21731493096,1.));
#1376=CARTESIAN_POINT('',(-39.6600000000001,139.21731493096,1.));
#1377=CARTESIAN_POINT('',(40.25,138.71731493096,1.));
#1378=CARTESIAN_POINT('Origin',(39.7499999999999,138.71731493096,1.));
#1379=CARTESIAN_POINT('',(40.2499999999999,96.3913149309598,1.));
#1380=CARTESIAN_POINT('',(40.2499999999999,138.71731493096,1.));
#1381=CARTESIAN_POINT('',(39.7499999999999,95.8913149309598,1.));
#1382=CARTESIAN_POINT('Origin',(39.7499999999999,96.3913149309598,1.));
#1383=CARTESIAN_POINT('',(-39.6600000000001,95.8913149309598,1.));
#1384=CARTESIAN_POINT('',(39.7499999999999,95.8913149309598,1.));
#1385=CARTESIAN_POINT('',(-40.1600000000001,96.3913149309598,1.));
#1386=CARTESIAN_POINT('Origin',(-39.66,96.3913149309598,1.));
#1387=CARTESIAN_POINT('',(-40.1600000000001,96.3913149309598,1.));
#1388=CARTESIAN_POINT('Origin',(-39.6600000000001,138.71731493096,0.));
#1389=CARTESIAN_POINT('',(-39.6600000000001,139.21731493096,0.));
#1390=CARTESIAN_POINT('',(-40.1600000000001,138.71731493096,0.));
#1391=CARTESIAN_POINT('Origin',(-40.1600000000001,138.71731493096,0.));
#1392=CARTESIAN_POINT('',(-40.1600000000001,96.3913149309598,0.));
#1393=CARTESIAN_POINT('Origin',(-39.66,96.3913149309598,0.));
#1394=CARTESIAN_POINT('',(-39.6600000000001,95.8913149309598,0.));
#1395=CARTESIAN_POINT('Origin',(-39.6600000000001,95.8913149309598,0.));
#1396=CARTESIAN_POINT('',(39.7499999999999,95.8913149309598,0.));
#1397=CARTESIAN_POINT('Origin',(39.7499999999999,96.3913149309598,0.));
#1398=CARTESIAN_POINT('',(40.2499999999999,96.3913149309598,0.));
#1399=CARTESIAN_POINT('Origin',(40.2499999999999,96.3913149309598,0.));
#1400=CARTESIAN_POINT('',(40.25,138.71731493096,0.));
#1401=CARTESIAN_POINT('Origin',(39.7499999999999,138.71731493096,0.));
#1402=CARTESIAN_POINT('',(39.7499999999999,139.21731493096,0.));
#1403=CARTESIAN_POINT('Origin',(39.7499999999999,139.21731493096,0.));
#1404=CARTESIAN_POINT('Origin',(-11.0999430665381,150.,-93.9374807421295));
#1405=CARTESIAN_POINT('',(-6.09994306653814,150.,-93.9374807421295));
#1406=CARTESIAN_POINT('Origin',(-11.0999430665381,150.,-93.9374807421295));
#1407=CARTESIAN_POINT('',(-6.09994306653814,140.,-93.9374807421295));
#1408=CARTESIAN_POINT('',(-6.09994306653814,150.,-93.9374807421295));
#1409=CARTESIAN_POINT('Origin',(-11.0999430665381,140.,-93.9374807421295));
#1410=CARTESIAN_POINT('Origin',(35.5499999999999,150.,-4.50000000000001));
#1411=CARTESIAN_POINT('',(35.5499999999999,140.,-2.50000000000001));
#1412=CARTESIAN_POINT('',(37.5499999999999,140.,-4.50000000000001));
#1413=CARTESIAN_POINT('Origin',(35.5499999999999,140.,-4.50000000000001));
#1414=CARTESIAN_POINT('',(35.5499999999999,150.,-2.50000000000001));
#1415=CARTESIAN_POINT('',(35.5499999999999,150.,-2.50000000000001));
#1416=CARTESIAN_POINT('',(37.5499999999999,150.,-4.50000000000001));
#1417=CARTESIAN_POINT('Origin',(35.5499999999999,150.,-4.50000000000001));
#1418=CARTESIAN_POINT('',(37.5499999999999,150.,-4.50000000000001));
#1419=CARTESIAN_POINT('Origin',(35.5499999999999,150.,-2.50000000000001));
#1420=CARTESIAN_POINT('',(-35.4600000000003,140.,-2.50000000000001));
#1421=CARTESIAN_POINT('',(58.1895188432738,140.,-2.50000000000001));
#1422=CARTESIAN_POINT('',(-35.4600000000003,150.,-2.50000000000001));
#1423=CARTESIAN_POINT('',(-35.4600000000003,150.,-2.50000000000001));
#1424=CARTESIAN_POINT('',(-25.526270189222,150.,-2.50000000000001));
#1425=CARTESIAN_POINT('Origin',(-35.4600000000003,150.,-4.50000000000001));
#1426=CARTESIAN_POINT('',(-37.4600000000003,140.,-4.50000000000001));
#1427=CARTESIAN_POINT('Origin',(-35.4600000000003,140.,-4.50000000000001));
#1428=CARTESIAN_POINT('',(-37.4600000000003,150.,-4.50000000000001));
#1429=CARTESIAN_POINT('',(-37.4600000000003,150.,-4.50000000000001));
#1430=CARTESIAN_POINT('Origin',(-35.4600000000003,150.,-4.50000000000001));
#1431=CARTESIAN_POINT('Origin',(-37.4600000000003,150.,-4.50000000000001));
#1432=CARTESIAN_POINT('',(-37.4600000000003,140.,-67.3819999999997));
#1433=CARTESIAN_POINT('',(-37.4600000000003,140.,-2.25000000000001));
#1434=CARTESIAN_POINT('',(-37.4600000000003,150.,-67.3819999999997));
#1435=CARTESIAN_POINT('',(-37.4600000000003,150.,-67.3819999999997));
#1436=CARTESIAN_POINT('',(-37.4600000000003,150.,-2.25));
#1437=CARTESIAN_POINT('Origin',(-35.4600000000003,150.,-67.3819999999996));
#1438=CARTESIAN_POINT('',(-35.4600000000003,140.,-69.3819999999997));
#1439=CARTESIAN_POINT('Origin',(-35.4600000000003,140.,-67.3819999999996));
#1440=CARTESIAN_POINT('',(-35.4600000000003,150.,-69.3819999999997));
#1441=CARTESIAN_POINT('',(-35.4600000000003,150.,-69.3819999999997));
#1442=CARTESIAN_POINT('Origin',(-35.4600000000003,150.,-67.3819999999996));
#1443=CARTESIAN_POINT('Origin',(-35.4600000000003,150.,-69.3819999999997));
#1444=CARTESIAN_POINT('',(35.5499999999999,140.,-69.3819999999997));
#1445=CARTESIAN_POINT('',(22.6845188432737,140.,-69.3819999999997));
#1446=CARTESIAN_POINT('',(35.5499999999999,150.,-69.3819999999997));
#1447=CARTESIAN_POINT('',(35.5499999999999,150.,-69.3819999999997));
#1448=CARTESIAN_POINT('',(-61.0312701892221,150.,-69.3819999999997));
#1449=CARTESIAN_POINT('Origin',(35.5499999999999,150.,-67.3819999999996));
#1450=CARTESIAN_POINT('',(37.5499999999999,140.,-67.3819999999997));
#1451=CARTESIAN_POINT('Origin',(35.5499999999999,140.,-67.3819999999996));
#1452=CARTESIAN_POINT('',(37.5499999999999,150.,-67.3819999999997));
#1453=CARTESIAN_POINT('',(37.5499999999999,150.,-67.3819999999997));
#1454=CARTESIAN_POINT('Origin',(35.5499999999999,150.,-67.3819999999996));
#1455=CARTESIAN_POINT('Origin',(37.5499999999999,150.,-67.3819999999997));
#1456=CARTESIAN_POINT('',(37.5499999999999,140.,-33.6909999999998));
#1457=CARTESIAN_POINT('',(37.5499999999999,150.,-33.6909999999998));
#1458=CARTESIAN_POINT('Origin',(-83.7157890324957,145.,0.));
#1459=CARTESIAN_POINT('',(-83.7157890324957,150.,6.));
#1460=CARTESIAN_POINT('Origin',(-83.7157890324957,145.,6.));
#1461=CARTESIAN_POINT('',(-83.7157890324957,150.,0.));
#1462=CARTESIAN_POINT('Origin',(-86.6025403784438,150.,0.));
#1463=CARTESIAN_POINT('',(83.7157890324958,150.,6.));
#1464=CARTESIAN_POINT('',(-43.3012701892219,150.,6.));
#1465=CARTESIAN_POINT('',(83.7157890324958,150.,-111.882));
#1466=CARTESIAN_POINT('',(83.7157890324958,150.,0.));
#1467=CARTESIAN_POINT('',(86.602540378444,150.,-111.882));
#1468=CARTESIAN_POINT('Origin',(83.7157890324958,145.,0.));
#1469=CARTESIAN_POINT('Origin',(83.7157890324958,145.,6.));
#1470=CARTESIAN_POINT('Origin',(83.7157890324958,145.,-111.882));
#1471=CARTESIAN_POINT('Origin',(0.,-1.77635683940025E-14,-111.882));
#1472=CARTESIAN_POINT('',(82.2724133595217,137.5,-111.882));
#1473=CARTESIAN_POINT('',(161.658075373095,-1.06581410364015E-13,-111.882));
#1474=CARTESIAN_POINT('',(77.9422863405996,140.,-111.882));
#1475=CARTESIAN_POINT('Origin',(77.9422863405996,135.,-111.882));
#1476=CARTESIAN_POINT('',(-77.9422863405995,140.,-111.882));
#1477=CARTESIAN_POINT('',(80.8290376865477,140.,-111.882));
#1478=CARTESIAN_POINT('Origin',(-77.9422863405995,135.,-111.882));
#1479=CARTESIAN_POINT('Origin',(161.658075373095,-1.06581410364015E-13,
0.));
#1480=CARTESIAN_POINT('',(82.2724133595217,137.5,0.));
#1481=CARTESIAN_POINT('Origin',(77.9422863405996,135.,0.));
#1482=CARTESIAN_POINT('',(77.9422863405996,140.,0.));
#1483=CARTESIAN_POINT('Origin',(80.8290376865477,140.,0.));
#1484=CARTESIAN_POINT('',(-77.9422863405995,140.,0.));
#1485=CARTESIAN_POINT('Origin',(-77.9422863405995,135.,0.));
#1486=CARTESIAN_POINT('Origin',(137.403810567666,62.0096189432333,-27.941));
#1487=CARTESIAN_POINT('Origin',(0.,3.5527136788005E-14,6.));
#1488=UNCERTAINTY_MEASURE_WITH_UNIT(LENGTH_MEASURE(0.01),#1492,
'DISTANCE_ACCURACY_VALUE',
'Maximum model space distance between geometric entities at asserted c
onnectivities');
#1489=UNCERTAINTY_MEASURE_WITH_UNIT(LENGTH_MEASURE(0.01),#1492,
'DISTANCE_ACCURACY_VALUE',
'Maximum model space distance between geometric entities at asserted c
onnectivities');
#1490=(
GEOMETRIC_REPRESENTATION_CONTEXT(3)
GLOBAL_UNCERTAINTY_ASSIGNED_CONTEXT((#1488))
GLOBAL_UNIT_ASSIGNED_CONTEXT((#1492,#1494,#1495))
REPRESENTATION_CONTEXT('','3D')
);
#1491=(
GEOMETRIC_REPRESENTATION_CONTEXT(3)
GLOBAL_UNCERTAINTY_ASSIGNED_CONTEXT((#1489))
GLOBAL_UNIT_ASSIGNED_CONTEXT((#1492,#1494,#1495))
REPRESENTATION_CONTEXT('','3D')
);
#1492=(
LENGTH_UNIT()
NAMED_UNIT(*)
SI_UNIT(.MILLI.,.METRE.)
);
#1493=(
LENGTH_UNIT()
NAMED_UNIT(*)
SI_UNIT($,.METRE.)
);
#1494=(
NAMED_UNIT(*)
PLANE_ANGLE_UNIT()
SI_UNIT($,.RADIAN.)
);
#1495=(
NAMED_UNIT(*)
SI_UNIT($,.STERADIAN.)
SOLID_ANGLE_UNIT()
);
#1496=SHAPE_DEFINITION_REPRESENTATION(#1497,#1498);
#1497=PRODUCT_DEFINITION_SHAPE('',$,#1500);
#1498=SHAPE_REPRESENTATION('',(#896),#1490);
#1499=PRODUCT_DEFINITION_CONTEXT('part definition',#1504,'design');
#1500=PRODUCT_DEFINITION('2026-06-20-12-34-57-732','FusionComponent',#1501,
#1499);
#1501=PRODUCT_DEFINITION_FORMATION('',$,#1506);
#1502=PRODUCT_RELATED_PRODUCT_CATEGORY('FusionComponent',
'FusionComponent',(#1506));
#1503=APPLICATION_PROTOCOL_DEFINITION('international standard',
'automotive_design',2009,#1504);
#1504=APPLICATION_CONTEXT(
'Core Data for Automotive Mechanical Design Process');
#1505=PRODUCT_CONTEXT('part definition',#1504,'mechanical');
#1506=PRODUCT('2026-06-20-12-34-57-732','FusionComponent',$,(#1505));
#1507=PRESENTATION_STYLE_ASSIGNMENT((#1508));
#1508=SURFACE_STYLE_USAGE(.BOTH.,#1509);
#1509=SURFACE_SIDE_STYLE('',(#1510));
#1510=SURFACE_STYLE_FILL_AREA(#1511);
#1511=FILL_AREA_STYLE('Steel - Satin',(#1512));
#1512=FILL_AREA_STYLE_COLOUR('Steel - Satin',#1513);
#1513=COLOUR_RGB('Steel - Satin',0.627450980392157,0.627450980392157,0.627450980392157);
ENDSEC;
END-ISO-10303-21;
