ISO-10303-21;
HEADER;
/* Generated by software containing ST-Developer
 * from STEP Tools, Inc. (www.steptools.com) 
 */

FILE_DESCRIPTION(
/* description */ (''),
/* implementation_level */ '2;1');

FILE_NAME(
/* name */ 'Fairlead Pin Holder x18.step',
/* time_stamp */ '2026-06-20T17:14:29-05:00',
/* author */ (''),
/* organization */ (''),
/* preprocessor_version */ 'ST-DEVELOPER v20.1',
/* originating_system */ 'Autodesk Translation Framework v15.8.0.0',
/* authorisation */ '');

FILE_SCHEMA (('AUTOMOTIVE_DESIGN { 1 0 10303 214 3 1 1 }'));
ENDSEC;

DATA;
#10=MECHANICAL_DESIGN_GEOMETRIC_PRESENTATION_REPRESENTATION('',(#13),#1597);
#11=SHAPE_REPRESENTATION_RELATIONSHIP('SRR','None',#1604,#12);
#12=ADVANCED_BREP_SHAPE_REPRESENTATION('',(#14),#1596);
#13=STYLED_ITEM('',(#1613),#14);
#14=MANIFOLD_SOLID_BREP('Body1',#933);
#15=FACE_BOUND('',#142,.T.);
#16=FACE_BOUND('',#143,.T.);
#17=CIRCLE('',#993,0.86666666666666);
#18=CIRCLE('',#1001,0.86666666666666);
#19=CIRCLE('',#1007,0.86666666666666);
#20=CIRCLE('',#1013,0.86666666666666);
#21=CIRCLE('',#1016,2.38333333333332);
#22=CIRCLE('',#1017,2.38333333333332);
#23=CIRCLE('',#1036,2.38333333333332);
#24=CIRCLE('',#1039,2.38333333333332);
#25=PLANE('',#952);
#26=PLANE('',#953);
#27=PLANE('',#955);
#28=PLANE('',#961);
#29=PLANE('',#962);
#30=PLANE('',#968);
#31=PLANE('',#969);
#32=PLANE('',#971);
#33=PLANE('',#976);
#34=PLANE('',#978);
#35=PLANE('',#983);
#36=PLANE('',#985);
#37=PLANE('',#995);
#38=PLANE('',#997);
#39=PLANE('',#999);
#40=PLANE('',#1003);
#41=PLANE('',#1009);
#42=PLANE('',#1011);
#43=PLANE('',#1015);
#44=PLANE('',#1018);
#45=PLANE('',#1019);
#46=PLANE('',#1020);
#47=PLANE('',#1021);
#48=PLANE('',#1022);
#49=PLANE('',#1023);
#50=PLANE('',#1024);
#51=PLANE('',#1025);
#52=PLANE('',#1026);
#53=PLANE('',#1027);
#54=PLANE('',#1028);
#55=PLANE('',#1029);
#56=PLANE('',#1030);
#57=PLANE('',#1031);
#58=PLANE('',#1032);
#59=PLANE('',#1033);
#60=PLANE('',#1034);
#61=PLANE('',#1037);
#62=PLANE('',#1040);
#63=FACE_OUTER_BOUND('',#113,.T.);
#64=FACE_OUTER_BOUND('',#114,.T.);
#65=FACE_OUTER_BOUND('',#115,.T.);
#66=FACE_OUTER_BOUND('',#116,.T.);
#67=FACE_OUTER_BOUND('',#117,.T.);
#68=FACE_OUTER_BOUND('',#118,.T.);
#69=FACE_OUTER_BOUND('',#119,.T.);
#70=FACE_OUTER_BOUND('',#120,.T.);
#71=FACE_OUTER_BOUND('',#121,.T.);
#72=FACE_OUTER_BOUND('',#122,.T.);
#73=FACE_OUTER_BOUND('',#123,.T.);
#74=FACE_OUTER_BOUND('',#124,.T.);
#75=FACE_OUTER_BOUND('',#125,.T.);
#76=FACE_OUTER_BOUND('',#126,.T.);
#77=FACE_OUTER_BOUND('',#127,.T.);
#78=FACE_OUTER_BOUND('',#128,.T.);
#79=FACE_OUTER_BOUND('',#129,.T.);
#80=FACE_OUTER_BOUND('',#130,.T.);
#81=FACE_OUTER_BOUND('',#131,.T.);
#82=FACE_OUTER_BOUND('',#132,.T.);
#83=FACE_OUTER_BOUND('',#133,.T.);
#84=FACE_OUTER_BOUND('',#134,.T.);
#85=FACE_OUTER_BOUND('',#135,.T.);
#86=FACE_OUTER_BOUND('',#136,.T.);
#87=FACE_OUTER_BOUND('',#137,.T.);
#88=FACE_OUTER_BOUND('',#138,.T.);
#89=FACE_OUTER_BOUND('',#139,.T.);
#90=FACE_OUTER_BOUND('',#140,.T.);
#91=FACE_OUTER_BOUND('',#141,.T.);
#92=FACE_OUTER_BOUND('',#144,.T.);
#93=FACE_OUTER_BOUND('',#145,.T.);
#94=FACE_OUTER_BOUND('',#146,.T.);
#95=FACE_OUTER_BOUND('',#147,.T.);
#96=FACE_OUTER_BOUND('',#148,.T.);
#97=FACE_OUTER_BOUND('',#149,.T.);
#98=FACE_OUTER_BOUND('',#150,.T.);
#99=FACE_OUTER_BOUND('',#151,.T.);
#100=FACE_OUTER_BOUND('',#152,.T.);
#101=FACE_OUTER_BOUND('',#153,.T.);
#102=FACE_OUTER_BOUND('',#154,.T.);
#103=FACE_OUTER_BOUND('',#155,.T.);
#104=FACE_OUTER_BOUND('',#156,.T.);
#105=FACE_OUTER_BOUND('',#157,.T.);
#106=FACE_OUTER_BOUND('',#158,.T.);
#107=FACE_OUTER_BOUND('',#159,.T.);
#108=FACE_OUTER_BOUND('',#160,.T.);
#109=FACE_OUTER_BOUND('',#161,.T.);
#110=FACE_OUTER_BOUND('',#162,.T.);
#111=FACE_OUTER_BOUND('',#163,.T.);
#112=FACE_OUTER_BOUND('',#164,.T.);
#113=EDGE_LOOP('',(#603,#604,#605,#606,#607,#608));
#114=EDGE_LOOP('',(#609,#610,#611,#612));
#115=EDGE_LOOP('',(#613,#614,#615,#616,#617,#618));
#116=EDGE_LOOP('',(#619,#620,#621,#622,#623,#624));
#117=EDGE_LOOP('',(#625,#626,#627,#628,#629,#630));
#118=EDGE_LOOP('',(#631,#632,#633,#634,#635,#636));
#119=EDGE_LOOP('',(#637,#638,#639,#640,#641));
#120=EDGE_LOOP('',(#642,#643,#644,#645,#646,#647));
#121=EDGE_LOOP('',(#648,#649,#650,#651,#652));
#122=EDGE_LOOP('',(#653,#654,#655,#656,#657,#658));
#123=EDGE_LOOP('',(#659,#660,#661,#662));
#124=EDGE_LOOP('',(#663,#664,#665,#666,#667,#668));
#125=EDGE_LOOP('',(#669,#670,#671,#672,#673,#674));
#126=EDGE_LOOP('',(#675,#676,#677,#678,#679,#680,#681,#682));
#127=EDGE_LOOP('',(#683,#684,#685,#686,#687,#688));
#128=EDGE_LOOP('',(#689,#690,#691,#692,#693,#694));
#129=EDGE_LOOP('',(#695,#696,#697,#698,#699));
#130=EDGE_LOOP('',(#700,#701,#702,#703,#704,#705));
#131=EDGE_LOOP('',(#706,#707,#708,#709,#710,#711));
#132=EDGE_LOOP('',(#712,#713,#714,#715,#716,#717));
#133=EDGE_LOOP('',(#718,#719,#720,#721,#722,#723));
#134=EDGE_LOOP('',(#724,#725,#726,#727));
#135=EDGE_LOOP('',(#728,#729,#730,#731,#732,#733));
#136=EDGE_LOOP('',(#734,#735,#736,#737,#738,#739));
#137=EDGE_LOOP('',(#740,#741,#742,#743,#744,#745));
#138=EDGE_LOOP('',(#746,#747,#748,#749,#750,#751));
#139=EDGE_LOOP('',(#752,#753,#754,#755));
#140=EDGE_LOOP('',(#756,#757,#758,#759,#760,#761));
#141=EDGE_LOOP('',(#762,#763,#764,#765,#766,#767,#768,#769));
#142=EDGE_LOOP('',(#770));
#143=EDGE_LOOP('',(#771));
#144=EDGE_LOOP('',(#772,#773,#774,#775));
#145=EDGE_LOOP('',(#776,#777,#778,#779));
#146=EDGE_LOOP('',(#780,#781,#782,#783,#784));
#147=EDGE_LOOP('',(#785,#786,#787,#788,#789,#790));
#148=EDGE_LOOP('',(#791,#792,#793,#794));
#149=EDGE_LOOP('',(#795,#796,#797,#798));
#150=EDGE_LOOP('',(#799,#800,#801,#802));
#151=EDGE_LOOP('',(#803,#804,#805,#806));
#152=EDGE_LOOP('',(#807,#808,#809,#810));
#153=EDGE_LOOP('',(#811,#812,#813,#814));
#154=EDGE_LOOP('',(#815,#816,#817,#818,#819));
#155=EDGE_LOOP('',(#820,#821,#822,#823,#824,#825));
#156=EDGE_LOOP('',(#826,#827,#828,#829,#830));
#157=EDGE_LOOP('',(#831,#832,#833,#834,#835,#836));
#158=EDGE_LOOP('',(#837,#838,#839,#840,#841,#842,#843,#844));
#159=EDGE_LOOP('',(#845,#846,#847,#848,#849,#850,#851,#852));
#160=EDGE_LOOP('',(#853,#854,#855,#856,#857,#858,#859,#860));
#161=EDGE_LOOP('',(#861,#862,#863,#864));
#162=EDGE_LOOP('',(#865));
#163=EDGE_LOOP('',(#866,#867,#868,#869));
#164=EDGE_LOOP('',(#870));
#165=LINE('',#1327,#255);
#166=LINE('',#1333,#256);
#167=LINE('',#1337,#257);
#168=LINE('',#1339,#258);
#169=LINE('',#1340,#259);
#170=LINE('',#1343,#260);
#171=LINE('',#1345,#261);
#172=LINE('',#1347,#262);
#173=LINE('',#1351,#263);
#174=LINE('',#1355,#264);
#175=LINE('',#1356,#265);
#176=LINE('',#1363,#266);
#177=LINE('',#1367,#267);
#178=LINE('',#1369,#268);
#179=LINE('',#1370,#269);
#180=LINE('',#1373,#270);
#181=LINE('',#1375,#271);
#182=LINE('',#1376,#272);
#183=LINE('',#1382,#273);
#184=LINE('',#1388,#274);
#185=LINE('',#1392,#275);
#186=LINE('',#1394,#276);
#187=LINE('',#1396,#277);
#188=LINE('',#1397,#278);
#189=LINE('',#1400,#279);
#190=LINE('',#1404,#280);
#191=LINE('',#1405,#281);
#192=LINE('',#1408,#282);
#193=LINE('',#1409,#283);
#194=LINE('',#1412,#284);
#195=LINE('',#1418,#285);
#196=LINE('',#1422,#286);
#197=LINE('',#1426,#287);
#198=LINE('',#1427,#288);
#199=LINE('',#1430,#289);
#200=LINE('',#1432,#290);
#201=LINE('',#1434,#291);
#202=LINE('',#1436,#292);
#203=LINE('',#1438,#293);
#204=LINE('',#1439,#294);
#205=LINE('',#1445,#295);
#206=LINE('',#1450,#296);
#207=LINE('',#1451,#297);
#208=LINE('',#1454,#298);
#209=LINE('',#1458,#299);
#210=LINE('',#1464,#300);
#211=LINE('',#1470,#301);
#212=LINE('',#1476,#302);
#213=LINE('',#1480,#303);
#214=LINE('',#1482,#304);
#215=LINE('',#1484,#305);
#216=LINE('',#1487,#306);
#217=LINE('',#1490,#307);
#218=LINE('',#1494,#308);
#219=LINE('',#1495,#309);
#220=LINE('',#1498,#310);
#221=LINE('',#1499,#311);
#222=LINE('',#1507,#312);
#223=LINE('',#1508,#313);
#224=LINE('',#1515,#314);
#225=LINE('',#1519,#315);
#226=LINE('',#1521,#316);
#227=LINE('',#1524,#317);
#228=LINE('',#1525,#318);
#229=LINE('',#1531,#319);
#230=LINE('',#1533,#320);
#231=LINE('',#1535,#321);
#232=LINE('',#1537,#322);
#233=LINE('',#1538,#323);
#234=LINE('',#1539,#324);
#235=LINE('',#1546,#325);
#236=LINE('',#1549,#326);
#237=LINE('',#1550,#327);
#238=LINE('',#1552,#328);
#239=LINE('',#1553,#329);
#240=LINE('',#1555,#330);
#241=LINE('',#1558,#331);
#242=LINE('',#1560,#332);
#243=LINE('',#1562,#333);
#244=LINE('',#1565,#334);
#245=LINE('',#1567,#335);
#246=LINE('',#1568,#336);
#247=LINE('',#1570,#337);
#248=LINE('',#1573,#338);
#249=LINE('',#1574,#339);
#250=LINE('',#1577,#340);
#251=LINE('',#1578,#341);
#252=LINE('',#1580,#342);
#253=LINE('',#1587,#343);
#254=LINE('',#1592,#344);
#255=VECTOR('',#1047,43.333333333333);
#256=VECTOR('',#1052,43.333333333333);
#257=VECTOR('',#1057,43.333333333333);
#258=VECTOR('',#1058,43.333333333333);
#259=VECTOR('',#1059,43.333333333333);
#260=VECTOR('',#1062,43.333333333333);
#261=VECTOR('',#1063,43.333333333333);
#262=VECTOR('',#1064,43.333333333333);
#263=VECTOR('',#1069,43.333333333333);
#264=VECTOR('',#1072,43.333333333333);
#265=VECTOR('',#1073,43.333333333333);
#266=VECTOR('',#1080,43.333333333333);
#267=VECTOR('',#1085,43.333333333333);
#268=VECTOR('',#1086,43.333333333333);
#269=VECTOR('',#1087,43.333333333333);
#270=VECTOR('',#1090,43.333333333333);
#271=VECTOR('',#1091,43.333333333333);
#272=VECTOR('',#1092,43.333333333333);
#273=VECTOR('',#1097,43.333333333333);
#274=VECTOR('',#1102,43.333333333333);
#275=VECTOR('',#1107,43.333333333333);
#276=VECTOR('',#1108,43.333333333333);
#277=VECTOR('',#1109,43.333333333333);
#278=VECTOR('',#1110,43.333333333333);
#279=VECTOR('',#1113,43.333333333333);
#280=VECTOR('',#1116,43.333333333333);
#281=VECTOR('',#1117,43.333333333333);
#282=VECTOR('',#1120,43.333333333333);
#283=VECTOR('',#1121,43.333333333333);
#284=VECTOR('',#1124,43.333333333333);
#285=VECTOR('',#1129,43.333333333333);
#286=VECTOR('',#1134,43.333333333333);
#287=VECTOR('',#1137,43.333333333333);
#288=VECTOR('',#1138,43.333333333333);
#289=VECTOR('',#1141,43.333333333333);
#290=VECTOR('',#1142,43.333333333333);
#291=VECTOR('',#1143,43.333333333333);
#292=VECTOR('',#1144,43.333333333333);
#293=VECTOR('',#1145,43.333333333333);
#294=VECTOR('',#1146,43.333333333333);
#295=VECTOR('',#1151,43.333333333333);
#296=VECTOR('',#1158,43.333333333333);
#297=VECTOR('',#1159,43.333333333333);
#298=VECTOR('',#1162,43.333333333333);
#299=VECTOR('',#1167,43.333333333333);
#300=VECTOR('',#1174,43.333333333333);
#301=VECTOR('',#1179,43.333333333333);
#302=VECTOR('',#1184,43.333333333333);
#303=VECTOR('',#1189,43.333333333333);
#304=VECTOR('',#1190,43.333333333333);
#305=VECTOR('',#1191,43.333333333333);
#306=VECTOR('',#1194,43.333333333333);
#307=VECTOR('',#1197,43.333333333333);
#308=VECTOR('',#1200,43.333333333333);
#309=VECTOR('',#1201,43.333333333333);
#310=VECTOR('',#1204,43.333333333333);
#311=VECTOR('',#1205,43.333333333333);
#312=VECTOR('',#1216,43.333333333333);
#313=VECTOR('',#1217,43.333333333333);
#314=VECTOR('',#1224,43.333333333333);
#315=VECTOR('',#1229,43.333333333333);
#316=VECTOR('',#1232,43.333333333333);
#317=VECTOR('',#1235,43.333333333333);
#318=VECTOR('',#1236,43.333333333333);
#319=VECTOR('',#1243,43.333333333333);
#320=VECTOR('',#1246,43.333333333333);
#321=VECTOR('',#1247,43.333333333333);
#322=VECTOR('',#1248,43.333333333333);
#323=VECTOR('',#1249,43.333333333333);
#324=VECTOR('',#1250,43.333333333333);
#325=VECTOR('',#1259,43.333333333333);
#326=VECTOR('',#1262,43.333333333333);
#327=VECTOR('',#1263,43.333333333333);
#328=VECTOR('',#1266,43.333333333333);
#329=VECTOR('',#1267,43.333333333333);
#330=VECTOR('',#1270,43.333333333333);
#331=VECTOR('',#1275,43.333333333333);
#332=VECTOR('',#1278,43.333333333333);
#333=VECTOR('',#1281,43.333333333333);
#334=VECTOR('',#1284,43.333333333333);
#335=VECTOR('',#1285,43.333333333333);
#336=VECTOR('',#1286,43.333333333333);
#337=VECTOR('',#1289,43.333333333333);
#338=VECTOR('',#1292,43.333333333333);
#339=VECTOR('',#1293,43.333333333333);
#340=VECTOR('',#1296,43.333333333333);
#341=VECTOR('',#1297,43.333333333333);
#342=VECTOR('',#1300,43.333333333333);
#343=VECTOR('',#1311,2.38333333333332);
#344=VECTOR('',#1318,2.38333333333332);
#345=ELLIPSE('',#948,1.22565175405667,0.86666666666666);
#346=ELLIPSE('',#949,1.22565175405667,0.86666666666666);
#347=ELLIPSE('',#950,1.22565175405667,0.86666666666666);
#348=ELLIPSE('',#951,1.22565175405667,0.86666666666666);
#349=ELLIPSE('',#954,1.22565175405667,0.86666666666666);
#350=ELLIPSE('',#956,1.22565175405667,0.86666666666666);
#351=ELLIPSE('',#958,1.22565175405667,0.86666666666666);
#352=ELLIPSE('',#959,1.22565175405667,0.86666666666666);
#353=ELLIPSE('',#960,1.22565175405667,0.86666666666666);
#354=ELLIPSE('',#964,1.22565175405667,0.86666666666666);
#355=ELLIPSE('',#965,1.22565175405667,0.86666666666666);
#356=ELLIPSE('',#966,1.22565175405667,0.86666666666666);
#357=ELLIPSE('',#967,1.22565175405667,0.86666666666666);
#358=ELLIPSE('',#970,1.22565175405667,0.86666666666666);
#359=ELLIPSE('',#973,1.22565175405667,0.86666666666666);
#360=ELLIPSE('',#974,1.22565175405667,0.86666666666666);
#361=ELLIPSE('',#975,1.22565175405667,0.86666666666666);
#362=ELLIPSE('',#977,1.22565175405667,0.86666666666666);
#363=ELLIPSE('',#980,1.22565175405667,0.86666666666666);
#364=ELLIPSE('',#981,1.22565175405667,0.86666666666666);
#365=ELLIPSE('',#982,1.22565175405667,0.86666666666666);
#366=ELLIPSE('',#984,1.22565175405667,0.86666666666666);
#367=ELLIPSE('',#986,1.22565175405667,0.86666666666666);
#368=ELLIPSE('',#988,1.22565175405667,0.86666666666666);
#369=ELLIPSE('',#989,1.22565175405667,0.86666666666666);
#370=ELLIPSE('',#991,1.22565175405667,0.86666666666666);
#371=ELLIPSE('',#992,1.22565175405667,0.86666666666666);
#372=ELLIPSE('',#994,1.22565175405667,0.86666666666666);
#373=ELLIPSE('',#996,1.22565175405667,0.86666666666666);
#374=ELLIPSE('',#998,1.22565175405667,0.86666666666666);
#375=ELLIPSE('',#1002,1.22565175405667,0.86666666666666);
#376=ELLIPSE('',#1004,1.22565175405667,0.86666666666666);
#377=ELLIPSE('',#1006,1.22565175405667,0.86666666666666);
#378=ELLIPSE('',#1008,1.22565175405667,0.86666666666666);
#379=ELLIPSE('',#1010,1.22565175405667,0.86666666666666);
#380=ELLIPSE('',#1014,1.22565175405667,0.86666666666666);
#381=VERTEX_POINT('',#1323);
#382=VERTEX_POINT('',#1324);
#383=VERTEX_POINT('',#1326);
#384=VERTEX_POINT('',#1328);
#385=VERTEX_POINT('',#1330);
#386=VERTEX_POINT('',#1332);
#387=VERTEX_POINT('',#1336);
#388=VERTEX_POINT('',#1338);
#389=VERTEX_POINT('',#1342);
#390=VERTEX_POINT('',#1344);
#391=VERTEX_POINT('',#1346);
#392=VERTEX_POINT('',#1350);
#393=VERTEX_POINT('',#1352);
#394=VERTEX_POINT('',#1354);
#395=VERTEX_POINT('',#1358);
#396=VERTEX_POINT('',#1360);
#397=VERTEX_POINT('',#1362);
#398=VERTEX_POINT('',#1366);
#399=VERTEX_POINT('',#1368);
#400=VERTEX_POINT('',#1372);
#401=VERTEX_POINT('',#1374);
#402=VERTEX_POINT('',#1378);
#403=VERTEX_POINT('',#1379);
#404=VERTEX_POINT('',#1381);
#405=VERTEX_POINT('',#1383);
#406=VERTEX_POINT('',#1385);
#407=VERTEX_POINT('',#1387);
#408=VERTEX_POINT('',#1391);
#409=VERTEX_POINT('',#1393);
#410=VERTEX_POINT('',#1395);
#411=VERTEX_POINT('',#1399);
#412=VERTEX_POINT('',#1401);
#413=VERTEX_POINT('',#1403);
#414=VERTEX_POINT('',#1407);
#415=VERTEX_POINT('',#1411);
#416=VERTEX_POINT('',#1413);
#417=VERTEX_POINT('',#1415);
#418=VERTEX_POINT('',#1417);
#419=VERTEX_POINT('',#1421);
#420=VERTEX_POINT('',#1423);
#421=VERTEX_POINT('',#1425);
#422=VERTEX_POINT('',#1429);
#423=VERTEX_POINT('',#1431);
#424=VERTEX_POINT('',#1433);
#425=VERTEX_POINT('',#1435);
#426=VERTEX_POINT('',#1437);
#427=VERTEX_POINT('',#1441);
#428=VERTEX_POINT('',#1442);
#429=VERTEX_POINT('',#1444);
#430=VERTEX_POINT('',#1449);
#431=VERTEX_POINT('',#1452);
#432=VERTEX_POINT('',#1456);
#433=VERTEX_POINT('',#1460);
#434=VERTEX_POINT('',#1462);
#435=VERTEX_POINT('',#1466);
#436=VERTEX_POINT('',#1467);
#437=VERTEX_POINT('',#1469);
#438=VERTEX_POINT('',#1471);
#439=VERTEX_POINT('',#1473);
#440=VERTEX_POINT('',#1475);
#441=VERTEX_POINT('',#1479);
#442=VERTEX_POINT('',#1481);
#443=VERTEX_POINT('',#1483);
#444=VERTEX_POINT('',#1485);
#445=VERTEX_POINT('',#1489);
#446=VERTEX_POINT('',#1491);
#447=VERTEX_POINT('',#1493);
#448=VERTEX_POINT('',#1497);
#449=VERTEX_POINT('',#1504);
#450=VERTEX_POINT('',#1506);
#451=VERTEX_POINT('',#1510);
#452=VERTEX_POINT('',#1512);
#453=VERTEX_POINT('',#1514);
#454=VERTEX_POINT('',#1518);
#455=VERTEX_POINT('',#1523);
#456=VERTEX_POINT('',#1527);
#457=VERTEX_POINT('',#1529);
#458=VERTEX_POINT('',#1534);
#459=VERTEX_POINT('',#1536);
#460=VERTEX_POINT('',#1540);
#461=VERTEX_POINT('',#1542);
#462=VERTEX_POINT('',#1548);
#463=VERTEX_POINT('',#1564);
#464=VERTEX_POINT('',#1566);
#465=VERTEX_POINT('',#1572);
#466=VERTEX_POINT('',#1576);
#467=VERTEX_POINT('',#1585);
#468=VERTEX_POINT('',#1590);
#469=EDGE_CURVE('',#381,#382,#345,.T.);
#470=EDGE_CURVE('',#382,#383,#165,.T.);
#471=EDGE_CURVE('',#383,#384,#346,.T.);
#472=EDGE_CURVE('',#384,#385,#347,.T.);
#473=EDGE_CURVE('',#385,#386,#166,.T.);
#474=EDGE_CURVE('',#386,#381,#348,.T.);
#475=EDGE_CURVE('',#387,#382,#167,.T.);
#476=EDGE_CURVE('',#388,#387,#168,.T.);
#477=EDGE_CURVE('',#383,#388,#169,.T.);
#478=EDGE_CURVE('',#389,#381,#170,.T.);
#479=EDGE_CURVE('',#389,#390,#171,.T.);
#480=EDGE_CURVE('',#391,#390,#172,.T.);
#481=EDGE_CURVE('',#387,#391,#349,.T.);
#482=EDGE_CURVE('',#386,#392,#173,.T.);
#483=EDGE_CURVE('',#393,#392,#350,.T.);
#484=EDGE_CURVE('',#394,#393,#174,.T.);
#485=EDGE_CURVE('',#394,#389,#175,.T.);
#486=EDGE_CURVE('',#395,#388,#351,.T.);
#487=EDGE_CURVE('',#391,#396,#352,.T.);
#488=EDGE_CURVE('',#396,#397,#176,.T.);
#489=EDGE_CURVE('',#397,#395,#353,.T.);
#490=EDGE_CURVE('',#398,#395,#177,.T.);
#491=EDGE_CURVE('',#398,#399,#178,.T.);
#492=EDGE_CURVE('',#384,#399,#179,.T.);
#493=EDGE_CURVE('',#397,#400,#180,.T.);
#494=EDGE_CURVE('',#401,#400,#181,.T.);
#495=EDGE_CURVE('',#401,#398,#182,.T.);
#496=EDGE_CURVE('',#402,#403,#354,.T.);
#497=EDGE_CURVE('',#403,#404,#183,.T.);
#498=EDGE_CURVE('',#404,#405,#355,.T.);
#499=EDGE_CURVE('',#405,#406,#356,.T.);
#500=EDGE_CURVE('',#406,#407,#184,.T.);
#501=EDGE_CURVE('',#407,#402,#357,.T.);
#502=EDGE_CURVE('',#405,#408,#185,.T.);
#503=EDGE_CURVE('',#408,#409,#186,.T.);
#504=EDGE_CURVE('',#409,#410,#187,.T.);
#505=EDGE_CURVE('',#410,#406,#188,.T.);
#506=EDGE_CURVE('',#404,#411,#189,.T.);
#507=EDGE_CURVE('',#412,#411,#358,.T.);
#508=EDGE_CURVE('',#413,#412,#190,.T.);
#509=EDGE_CURVE('',#413,#408,#191,.T.);
#510=EDGE_CURVE('',#414,#403,#192,.T.);
#511=EDGE_CURVE('',#411,#414,#193,.T.);
#512=EDGE_CURVE('',#392,#415,#194,.T.);
#513=EDGE_CURVE('',#415,#416,#359,.T.);
#514=EDGE_CURVE('',#416,#417,#360,.T.);
#515=EDGE_CURVE('',#417,#418,#195,.T.);
#516=EDGE_CURVE('',#418,#393,#361,.T.);
#517=EDGE_CURVE('',#418,#419,#196,.T.);
#518=EDGE_CURVE('',#420,#419,#362,.T.);
#519=EDGE_CURVE('',#420,#421,#197,.T.);
#520=EDGE_CURVE('',#421,#394,#198,.T.);
#521=EDGE_CURVE('',#422,#417,#199,.T.);
#522=EDGE_CURVE('',#423,#422,#200,.T.);
#523=EDGE_CURVE('',#424,#423,#201,.T.);
#524=EDGE_CURVE('',#425,#424,#202,.T.);
#525=EDGE_CURVE('',#426,#425,#203,.T.);
#526=EDGE_CURVE('',#419,#426,#204,.T.);
#527=EDGE_CURVE('',#427,#428,#363,.T.);
#528=EDGE_CURVE('',#428,#429,#205,.T.);
#529=EDGE_CURVE('',#429,#420,#364,.T.);
#530=EDGE_CURVE('',#426,#427,#365,.T.);
#531=EDGE_CURVE('',#430,#427,#206,.T.);
#532=EDGE_CURVE('',#430,#413,#207,.T.);
#533=EDGE_CURVE('',#431,#412,#366,.T.);
#534=EDGE_CURVE('',#431,#428,#208,.T.);
#535=EDGE_CURVE('',#425,#432,#367,.T.);
#536=EDGE_CURVE('',#432,#430,#209,.T.);
#537=EDGE_CURVE('',#414,#433,#368,.T.);
#538=EDGE_CURVE('',#433,#434,#369,.T.);
#539=EDGE_CURVE('',#434,#431,#210,.T.);
#540=EDGE_CURVE('',#435,#436,#370,.T.);
#541=EDGE_CURVE('',#436,#437,#211,.T.);
#542=EDGE_CURVE('',#437,#438,#371,.F.);
#543=EDGE_CURVE('',#438,#439,#17,.F.);
#544=EDGE_CURVE('',#439,#440,#212,.T.);
#545=EDGE_CURVE('',#440,#435,#372,.T.);
#546=EDGE_CURVE('',#435,#441,#213,.T.);
#547=EDGE_CURVE('',#441,#442,#214,.T.);
#548=EDGE_CURVE('',#442,#443,#215,.T.);
#549=EDGE_CURVE('',#444,#443,#373,.T.);
#550=EDGE_CURVE('',#444,#436,#216,.T.);
#551=EDGE_CURVE('',#440,#445,#217,.T.);
#552=EDGE_CURVE('',#446,#445,#374,.T.);
#553=EDGE_CURVE('',#446,#447,#218,.T.);
#554=EDGE_CURVE('',#447,#441,#219,.T.);
#555=EDGE_CURVE('',#439,#448,#220,.T.);
#556=EDGE_CURVE('',#445,#448,#221,.T.);
#557=EDGE_CURVE('',#432,#448,#18,.T.);
#558=EDGE_CURVE('',#424,#446,#375,.T.);
#559=EDGE_CURVE('',#449,#423,#376,.T.);
#560=EDGE_CURVE('',#450,#449,#222,.T.);
#561=EDGE_CURVE('',#450,#447,#223,.T.);
#562=EDGE_CURVE('',#422,#451,#377,.F.);
#563=EDGE_CURVE('',#451,#452,#19,.F.);
#564=EDGE_CURVE('',#452,#453,#224,.T.);
#565=EDGE_CURVE('',#453,#449,#378,.T.);
#566=EDGE_CURVE('',#453,#454,#225,.T.);
#567=EDGE_CURVE('',#443,#454,#379,.T.);
#568=EDGE_CURVE('',#442,#450,#226,.T.);
#569=EDGE_CURVE('',#452,#455,#227,.T.);
#570=EDGE_CURVE('',#454,#455,#228,.T.);
#571=EDGE_CURVE('',#456,#455,#20,.T.);
#572=EDGE_CURVE('',#457,#456,#380,.T.);
#573=EDGE_CURVE('',#457,#444,#229,.T.);
#574=EDGE_CURVE('',#400,#457,#230,.T.);
#575=EDGE_CURVE('',#400,#458,#231,.T.);
#576=EDGE_CURVE('',#459,#458,#232,.T.);
#577=EDGE_CURVE('',#459,#410,#233,.T.);
#578=EDGE_CURVE('',#437,#410,#234,.T.);
#579=EDGE_CURVE('',#460,#460,#21,.T.);
#580=EDGE_CURVE('',#461,#461,#22,.T.);
#581=EDGE_CURVE('',#456,#401,#235,.T.);
#582=EDGE_CURVE('',#416,#462,#236,.T.);
#583=EDGE_CURVE('',#462,#451,#237,.T.);
#584=EDGE_CURVE('',#399,#462,#238,.T.);
#585=EDGE_CURVE('',#415,#385,#239,.T.);
#586=EDGE_CURVE('',#458,#396,#240,.T.);
#587=EDGE_CURVE('',#409,#438,#241,.T.);
#588=EDGE_CURVE('',#429,#434,#242,.T.);
#589=EDGE_CURVE('',#407,#459,#243,.T.);
#590=EDGE_CURVE('',#458,#463,#244,.T.);
#591=EDGE_CURVE('',#463,#464,#245,.T.);
#592=EDGE_CURVE('',#464,#459,#246,.T.);
#593=EDGE_CURVE('',#390,#463,#247,.T.);
#594=EDGE_CURVE('',#433,#465,#248,.T.);
#595=EDGE_CURVE('',#465,#421,#249,.T.);
#596=EDGE_CURVE('',#464,#466,#250,.T.);
#597=EDGE_CURVE('',#466,#402,#251,.T.);
#598=EDGE_CURVE('',#466,#465,#252,.T.);
#599=EDGE_CURVE('',#467,#467,#23,.T.);
#600=EDGE_CURVE('',#467,#461,#253,.T.);
#601=EDGE_CURVE('',#468,#468,#24,.T.);
#602=EDGE_CURVE('',#468,#460,#254,.T.);
#603=ORIENTED_EDGE('',*,*,#469,.T.);
#604=ORIENTED_EDGE('',*,*,#470,.T.);
#605=ORIENTED_EDGE('',*,*,#471,.T.);
#606=ORIENTED_EDGE('',*,*,#472,.T.);
#607=ORIENTED_EDGE('',*,*,#473,.T.);
#608=ORIENTED_EDGE('',*,*,#474,.T.);
#609=ORIENTED_EDGE('',*,*,#470,.F.);
#610=ORIENTED_EDGE('',*,*,#475,.F.);
#611=ORIENTED_EDGE('',*,*,#476,.F.);
#612=ORIENTED_EDGE('',*,*,#477,.F.);
#613=ORIENTED_EDGE('',*,*,#469,.F.);
#614=ORIENTED_EDGE('',*,*,#478,.F.);
#615=ORIENTED_EDGE('',*,*,#479,.T.);
#616=ORIENTED_EDGE('',*,*,#480,.F.);
#617=ORIENTED_EDGE('',*,*,#481,.F.);
#618=ORIENTED_EDGE('',*,*,#475,.T.);
#619=ORIENTED_EDGE('',*,*,#474,.F.);
#620=ORIENTED_EDGE('',*,*,#482,.T.);
#621=ORIENTED_EDGE('',*,*,#483,.F.);
#622=ORIENTED_EDGE('',*,*,#484,.F.);
#623=ORIENTED_EDGE('',*,*,#485,.T.);
#624=ORIENTED_EDGE('',*,*,#478,.T.);
#625=ORIENTED_EDGE('',*,*,#486,.T.);
#626=ORIENTED_EDGE('',*,*,#476,.T.);
#627=ORIENTED_EDGE('',*,*,#481,.T.);
#628=ORIENTED_EDGE('',*,*,#487,.T.);
#629=ORIENTED_EDGE('',*,*,#488,.T.);
#630=ORIENTED_EDGE('',*,*,#489,.T.);
#631=ORIENTED_EDGE('',*,*,#471,.F.);
#632=ORIENTED_EDGE('',*,*,#477,.T.);
#633=ORIENTED_EDGE('',*,*,#486,.F.);
#634=ORIENTED_EDGE('',*,*,#490,.F.);
#635=ORIENTED_EDGE('',*,*,#491,.T.);
#636=ORIENTED_EDGE('',*,*,#492,.F.);
#637=ORIENTED_EDGE('',*,*,#489,.F.);
#638=ORIENTED_EDGE('',*,*,#493,.T.);
#639=ORIENTED_EDGE('',*,*,#494,.F.);
#640=ORIENTED_EDGE('',*,*,#495,.T.);
#641=ORIENTED_EDGE('',*,*,#490,.T.);
#642=ORIENTED_EDGE('',*,*,#496,.T.);
#643=ORIENTED_EDGE('',*,*,#497,.T.);
#644=ORIENTED_EDGE('',*,*,#498,.T.);
#645=ORIENTED_EDGE('',*,*,#499,.T.);
#646=ORIENTED_EDGE('',*,*,#500,.T.);
#647=ORIENTED_EDGE('',*,*,#501,.T.);
#648=ORIENTED_EDGE('',*,*,#499,.F.);
#649=ORIENTED_EDGE('',*,*,#502,.T.);
#650=ORIENTED_EDGE('',*,*,#503,.T.);
#651=ORIENTED_EDGE('',*,*,#504,.T.);
#652=ORIENTED_EDGE('',*,*,#505,.T.);
#653=ORIENTED_EDGE('',*,*,#498,.F.);
#654=ORIENTED_EDGE('',*,*,#506,.T.);
#655=ORIENTED_EDGE('',*,*,#507,.F.);
#656=ORIENTED_EDGE('',*,*,#508,.F.);
#657=ORIENTED_EDGE('',*,*,#509,.T.);
#658=ORIENTED_EDGE('',*,*,#502,.F.);
#659=ORIENTED_EDGE('',*,*,#497,.F.);
#660=ORIENTED_EDGE('',*,*,#510,.F.);
#661=ORIENTED_EDGE('',*,*,#511,.F.);
#662=ORIENTED_EDGE('',*,*,#506,.F.);
#663=ORIENTED_EDGE('',*,*,#483,.T.);
#664=ORIENTED_EDGE('',*,*,#512,.T.);
#665=ORIENTED_EDGE('',*,*,#513,.T.);
#666=ORIENTED_EDGE('',*,*,#514,.T.);
#667=ORIENTED_EDGE('',*,*,#515,.T.);
#668=ORIENTED_EDGE('',*,*,#516,.T.);
#669=ORIENTED_EDGE('',*,*,#516,.F.);
#670=ORIENTED_EDGE('',*,*,#517,.T.);
#671=ORIENTED_EDGE('',*,*,#518,.F.);
#672=ORIENTED_EDGE('',*,*,#519,.T.);
#673=ORIENTED_EDGE('',*,*,#520,.T.);
#674=ORIENTED_EDGE('',*,*,#484,.T.);
#675=ORIENTED_EDGE('',*,*,#515,.F.);
#676=ORIENTED_EDGE('',*,*,#521,.F.);
#677=ORIENTED_EDGE('',*,*,#522,.F.);
#678=ORIENTED_EDGE('',*,*,#523,.F.);
#679=ORIENTED_EDGE('',*,*,#524,.F.);
#680=ORIENTED_EDGE('',*,*,#525,.F.);
#681=ORIENTED_EDGE('',*,*,#526,.F.);
#682=ORIENTED_EDGE('',*,*,#517,.F.);
#683=ORIENTED_EDGE('',*,*,#527,.T.);
#684=ORIENTED_EDGE('',*,*,#528,.T.);
#685=ORIENTED_EDGE('',*,*,#529,.T.);
#686=ORIENTED_EDGE('',*,*,#518,.T.);
#687=ORIENTED_EDGE('',*,*,#526,.T.);
#688=ORIENTED_EDGE('',*,*,#530,.T.);
#689=ORIENTED_EDGE('',*,*,#527,.F.);
#690=ORIENTED_EDGE('',*,*,#531,.F.);
#691=ORIENTED_EDGE('',*,*,#532,.T.);
#692=ORIENTED_EDGE('',*,*,#508,.T.);
#693=ORIENTED_EDGE('',*,*,#533,.F.);
#694=ORIENTED_EDGE('',*,*,#534,.T.);
#695=ORIENTED_EDGE('',*,*,#530,.F.);
#696=ORIENTED_EDGE('',*,*,#525,.T.);
#697=ORIENTED_EDGE('',*,*,#535,.T.);
#698=ORIENTED_EDGE('',*,*,#536,.T.);
#699=ORIENTED_EDGE('',*,*,#531,.T.);
#700=ORIENTED_EDGE('',*,*,#507,.T.);
#701=ORIENTED_EDGE('',*,*,#511,.T.);
#702=ORIENTED_EDGE('',*,*,#537,.T.);
#703=ORIENTED_EDGE('',*,*,#538,.T.);
#704=ORIENTED_EDGE('',*,*,#539,.T.);
#705=ORIENTED_EDGE('',*,*,#533,.T.);
#706=ORIENTED_EDGE('',*,*,#540,.T.);
#707=ORIENTED_EDGE('',*,*,#541,.T.);
#708=ORIENTED_EDGE('',*,*,#542,.T.);
#709=ORIENTED_EDGE('',*,*,#543,.T.);
#710=ORIENTED_EDGE('',*,*,#544,.T.);
#711=ORIENTED_EDGE('',*,*,#545,.T.);
#712=ORIENTED_EDGE('',*,*,#540,.F.);
#713=ORIENTED_EDGE('',*,*,#546,.T.);
#714=ORIENTED_EDGE('',*,*,#547,.T.);
#715=ORIENTED_EDGE('',*,*,#548,.T.);
#716=ORIENTED_EDGE('',*,*,#549,.F.);
#717=ORIENTED_EDGE('',*,*,#550,.T.);
#718=ORIENTED_EDGE('',*,*,#545,.F.);
#719=ORIENTED_EDGE('',*,*,#551,.T.);
#720=ORIENTED_EDGE('',*,*,#552,.F.);
#721=ORIENTED_EDGE('',*,*,#553,.T.);
#722=ORIENTED_EDGE('',*,*,#554,.T.);
#723=ORIENTED_EDGE('',*,*,#546,.F.);
#724=ORIENTED_EDGE('',*,*,#544,.F.);
#725=ORIENTED_EDGE('',*,*,#555,.T.);
#726=ORIENTED_EDGE('',*,*,#556,.F.);
#727=ORIENTED_EDGE('',*,*,#551,.F.);
#728=ORIENTED_EDGE('',*,*,#552,.T.);
#729=ORIENTED_EDGE('',*,*,#556,.T.);
#730=ORIENTED_EDGE('',*,*,#557,.F.);
#731=ORIENTED_EDGE('',*,*,#535,.F.);
#732=ORIENTED_EDGE('',*,*,#524,.T.);
#733=ORIENTED_EDGE('',*,*,#558,.T.);
#734=ORIENTED_EDGE('',*,*,#558,.F.);
#735=ORIENTED_EDGE('',*,*,#523,.T.);
#736=ORIENTED_EDGE('',*,*,#559,.F.);
#737=ORIENTED_EDGE('',*,*,#560,.F.);
#738=ORIENTED_EDGE('',*,*,#561,.T.);
#739=ORIENTED_EDGE('',*,*,#553,.F.);
#740=ORIENTED_EDGE('',*,*,#559,.T.);
#741=ORIENTED_EDGE('',*,*,#522,.T.);
#742=ORIENTED_EDGE('',*,*,#562,.T.);
#743=ORIENTED_EDGE('',*,*,#563,.T.);
#744=ORIENTED_EDGE('',*,*,#564,.T.);
#745=ORIENTED_EDGE('',*,*,#565,.T.);
#746=ORIENTED_EDGE('',*,*,#565,.F.);
#747=ORIENTED_EDGE('',*,*,#566,.T.);
#748=ORIENTED_EDGE('',*,*,#567,.F.);
#749=ORIENTED_EDGE('',*,*,#548,.F.);
#750=ORIENTED_EDGE('',*,*,#568,.T.);
#751=ORIENTED_EDGE('',*,*,#560,.T.);
#752=ORIENTED_EDGE('',*,*,#564,.F.);
#753=ORIENTED_EDGE('',*,*,#569,.T.);
#754=ORIENTED_EDGE('',*,*,#570,.F.);
#755=ORIENTED_EDGE('',*,*,#566,.F.);
#756=ORIENTED_EDGE('',*,*,#567,.T.);
#757=ORIENTED_EDGE('',*,*,#570,.T.);
#758=ORIENTED_EDGE('',*,*,#571,.F.);
#759=ORIENTED_EDGE('',*,*,#572,.F.);
#760=ORIENTED_EDGE('',*,*,#573,.T.);
#761=ORIENTED_EDGE('',*,*,#549,.T.);
#762=ORIENTED_EDGE('',*,*,#541,.F.);
#763=ORIENTED_EDGE('',*,*,#550,.F.);
#764=ORIENTED_EDGE('',*,*,#573,.F.);
#765=ORIENTED_EDGE('',*,*,#574,.F.);
#766=ORIENTED_EDGE('',*,*,#575,.T.);
#767=ORIENTED_EDGE('',*,*,#576,.F.);
#768=ORIENTED_EDGE('',*,*,#577,.T.);
#769=ORIENTED_EDGE('',*,*,#578,.F.);
#770=ORIENTED_EDGE('',*,*,#579,.T.);
#771=ORIENTED_EDGE('',*,*,#580,.T.);
#772=ORIENTED_EDGE('',*,*,#547,.F.);
#773=ORIENTED_EDGE('',*,*,#554,.F.);
#774=ORIENTED_EDGE('',*,*,#561,.F.);
#775=ORIENTED_EDGE('',*,*,#568,.F.);
#776=ORIENTED_EDGE('',*,*,#574,.T.);
#777=ORIENTED_EDGE('',*,*,#572,.T.);
#778=ORIENTED_EDGE('',*,*,#581,.T.);
#779=ORIENTED_EDGE('',*,*,#494,.T.);
#780=ORIENTED_EDGE('',*,*,#514,.F.);
#781=ORIENTED_EDGE('',*,*,#582,.T.);
#782=ORIENTED_EDGE('',*,*,#583,.T.);
#783=ORIENTED_EDGE('',*,*,#562,.F.);
#784=ORIENTED_EDGE('',*,*,#521,.T.);
#785=ORIENTED_EDGE('',*,*,#472,.F.);
#786=ORIENTED_EDGE('',*,*,#492,.T.);
#787=ORIENTED_EDGE('',*,*,#584,.T.);
#788=ORIENTED_EDGE('',*,*,#582,.F.);
#789=ORIENTED_EDGE('',*,*,#513,.F.);
#790=ORIENTED_EDGE('',*,*,#585,.T.);
#791=ORIENTED_EDGE('',*,*,#488,.F.);
#792=ORIENTED_EDGE('',*,*,#586,.F.);
#793=ORIENTED_EDGE('',*,*,#575,.F.);
#794=ORIENTED_EDGE('',*,*,#493,.F.);
#795=ORIENTED_EDGE('',*,*,#473,.F.);
#796=ORIENTED_EDGE('',*,*,#585,.F.);
#797=ORIENTED_EDGE('',*,*,#512,.F.);
#798=ORIENTED_EDGE('',*,*,#482,.F.);
#799=ORIENTED_EDGE('',*,*,#587,.T.);
#800=ORIENTED_EDGE('',*,*,#542,.F.);
#801=ORIENTED_EDGE('',*,*,#578,.T.);
#802=ORIENTED_EDGE('',*,*,#504,.F.);
#803=ORIENTED_EDGE('',*,*,#528,.F.);
#804=ORIENTED_EDGE('',*,*,#534,.F.);
#805=ORIENTED_EDGE('',*,*,#539,.F.);
#806=ORIENTED_EDGE('',*,*,#588,.F.);
#807=ORIENTED_EDGE('',*,*,#500,.F.);
#808=ORIENTED_EDGE('',*,*,#505,.F.);
#809=ORIENTED_EDGE('',*,*,#577,.F.);
#810=ORIENTED_EDGE('',*,*,#589,.F.);
#811=ORIENTED_EDGE('',*,*,#576,.T.);
#812=ORIENTED_EDGE('',*,*,#590,.T.);
#813=ORIENTED_EDGE('',*,*,#591,.T.);
#814=ORIENTED_EDGE('',*,*,#592,.T.);
#815=ORIENTED_EDGE('',*,*,#487,.F.);
#816=ORIENTED_EDGE('',*,*,#480,.T.);
#817=ORIENTED_EDGE('',*,*,#593,.T.);
#818=ORIENTED_EDGE('',*,*,#590,.F.);
#819=ORIENTED_EDGE('',*,*,#586,.T.);
#820=ORIENTED_EDGE('',*,*,#529,.F.);
#821=ORIENTED_EDGE('',*,*,#588,.T.);
#822=ORIENTED_EDGE('',*,*,#538,.F.);
#823=ORIENTED_EDGE('',*,*,#594,.T.);
#824=ORIENTED_EDGE('',*,*,#595,.T.);
#825=ORIENTED_EDGE('',*,*,#519,.F.);
#826=ORIENTED_EDGE('',*,*,#501,.F.);
#827=ORIENTED_EDGE('',*,*,#589,.T.);
#828=ORIENTED_EDGE('',*,*,#592,.F.);
#829=ORIENTED_EDGE('',*,*,#596,.T.);
#830=ORIENTED_EDGE('',*,*,#597,.T.);
#831=ORIENTED_EDGE('',*,*,#496,.F.);
#832=ORIENTED_EDGE('',*,*,#597,.F.);
#833=ORIENTED_EDGE('',*,*,#598,.T.);
#834=ORIENTED_EDGE('',*,*,#594,.F.);
#835=ORIENTED_EDGE('',*,*,#537,.F.);
#836=ORIENTED_EDGE('',*,*,#510,.T.);
#837=ORIENTED_EDGE('',*,*,#520,.F.);
#838=ORIENTED_EDGE('',*,*,#595,.F.);
#839=ORIENTED_EDGE('',*,*,#598,.F.);
#840=ORIENTED_EDGE('',*,*,#596,.F.);
#841=ORIENTED_EDGE('',*,*,#591,.F.);
#842=ORIENTED_EDGE('',*,*,#593,.F.);
#843=ORIENTED_EDGE('',*,*,#479,.F.);
#844=ORIENTED_EDGE('',*,*,#485,.F.);
#845=ORIENTED_EDGE('',*,*,#581,.F.);
#846=ORIENTED_EDGE('',*,*,#571,.T.);
#847=ORIENTED_EDGE('',*,*,#569,.F.);
#848=ORIENTED_EDGE('',*,*,#563,.F.);
#849=ORIENTED_EDGE('',*,*,#583,.F.);
#850=ORIENTED_EDGE('',*,*,#584,.F.);
#851=ORIENTED_EDGE('',*,*,#491,.F.);
#852=ORIENTED_EDGE('',*,*,#495,.F.);
#853=ORIENTED_EDGE('',*,*,#536,.F.);
#854=ORIENTED_EDGE('',*,*,#557,.T.);
#855=ORIENTED_EDGE('',*,*,#555,.F.);
#856=ORIENTED_EDGE('',*,*,#543,.F.);
#857=ORIENTED_EDGE('',*,*,#587,.F.);
#858=ORIENTED_EDGE('',*,*,#503,.F.);
#859=ORIENTED_EDGE('',*,*,#509,.F.);
#860=ORIENTED_EDGE('',*,*,#532,.F.);
#861=ORIENTED_EDGE('',*,*,#599,.F.);
#862=ORIENTED_EDGE('',*,*,#600,.T.);
#863=ORIENTED_EDGE('',*,*,#580,.F.);
#864=ORIENTED_EDGE('',*,*,#600,.F.);
#865=ORIENTED_EDGE('',*,*,#599,.T.);
#866=ORIENTED_EDGE('',*,*,#601,.F.);
#867=ORIENTED_EDGE('',*,*,#602,.T.);
#868=ORIENTED_EDGE('',*,*,#579,.F.);
#869=ORIENTED_EDGE('',*,*,#602,.F.);
#870=ORIENTED_EDGE('',*,*,#601,.T.);
#871=CYLINDRICAL_SURFACE('',#947,0.86666666666666);
#872=CYLINDRICAL_SURFACE('',#957,0.86666666666666);
#873=CYLINDRICAL_SURFACE('',#963,0.86666666666666);
#874=CYLINDRICAL_SURFACE('',#972,0.86666666666666);
#875=CYLINDRICAL_SURFACE('',#979,0.86666666666666);
#876=CYLINDRICAL_SURFACE('',#987,0.86666666666666);
#877=CYLINDRICAL_SURFACE('',#990,0.86666666666666);
#878=CYLINDRICAL_SURFACE('',#1000,0.86666666666666);
#879=CYLINDRICAL_SURFACE('',#1005,0.86666666666666);
#880=CYLINDRICAL_SURFACE('',#1012,0.86666666666666);
#881=CYLINDRICAL_SURFACE('',#1035,2.38333333333332);
#882=CYLINDRICAL_SURFACE('',#1038,2.38333333333332);
#883=ADVANCED_FACE('',(#63),#871,.T.);
#884=ADVANCED_FACE('',(#64),#25,.T.);
#885=ADVANCED_FACE('',(#65),#26,.T.);
#886=ADVANCED_FACE('',(#66),#27,.T.);
#887=ADVANCED_FACE('',(#67),#872,.T.);
#888=ADVANCED_FACE('',(#68),#28,.T.);
#889=ADVANCED_FACE('',(#69),#29,.T.);
#890=ADVANCED_FACE('',(#70),#873,.T.);
#891=ADVANCED_FACE('',(#71),#30,.T.);
#892=ADVANCED_FACE('',(#72),#31,.T.);
#893=ADVANCED_FACE('',(#73),#32,.T.);
#894=ADVANCED_FACE('',(#74),#874,.T.);
#895=ADVANCED_FACE('',(#75),#33,.T.);
#896=ADVANCED_FACE('',(#76),#34,.T.);
#897=ADVANCED_FACE('',(#77),#875,.T.);
#898=ADVANCED_FACE('',(#78),#35,.T.);
#899=ADVANCED_FACE('',(#79),#36,.T.);
#900=ADVANCED_FACE('',(#80),#876,.T.);
#901=ADVANCED_FACE('',(#81),#877,.T.);
#902=ADVANCED_FACE('',(#82),#37,.T.);
#903=ADVANCED_FACE('',(#83),#38,.T.);
#904=ADVANCED_FACE('',(#84),#39,.T.);
#905=ADVANCED_FACE('',(#85),#878,.T.);
#906=ADVANCED_FACE('',(#86),#40,.T.);
#907=ADVANCED_FACE('',(#87),#879,.T.);
#908=ADVANCED_FACE('',(#88),#41,.T.);
#909=ADVANCED_FACE('',(#89),#42,.T.);
#910=ADVANCED_FACE('',(#90),#880,.T.);
#911=ADVANCED_FACE('',(#91,#15,#16),#43,.F.);
#912=ADVANCED_FACE('',(#92),#44,.T.);
#913=ADVANCED_FACE('',(#93),#45,.T.);
#914=ADVANCED_FACE('',(#94),#46,.T.);
#915=ADVANCED_FACE('',(#95),#47,.T.);
#916=ADVANCED_FACE('',(#96),#48,.T.);
#917=ADVANCED_FACE('',(#97),#49,.T.);
#918=ADVANCED_FACE('',(#98),#50,.T.);
#919=ADVANCED_FACE('',(#99),#51,.T.);
#920=ADVANCED_FACE('',(#100),#52,.T.);
#921=ADVANCED_FACE('',(#101),#53,.T.);
#922=ADVANCED_FACE('',(#102),#54,.T.);
#923=ADVANCED_FACE('',(#103),#55,.T.);
#924=ADVANCED_FACE('',(#104),#56,.T.);
#925=ADVANCED_FACE('',(#105),#57,.T.);
#926=ADVANCED_FACE('',(#106),#58,.T.);
#927=ADVANCED_FACE('',(#107),#59,.T.);
#928=ADVANCED_FACE('',(#108),#60,.T.);
#929=ADVANCED_FACE('',(#109),#881,.T.);
#930=ADVANCED_FACE('',(#110),#61,.F.);
#931=ADVANCED_FACE('',(#111),#882,.T.);
#932=ADVANCED_FACE('',(#112),#62,.F.);
#933=CLOSED_SHELL('',(#883,#884,#885,#886,#887,#888,#889,#890,#891,#892,
#893,#894,#895,#896,#897,#898,#899,#900,#901,#902,#903,#904,#905,#906,#907,
#908,#909,#910,#911,#912,#913,#914,#915,#916,#917,#918,#919,#920,#921,#922,
#923,#924,#925,#926,#927,#928,#929,#930,#931,#932));
#934=DERIVED_UNIT_ELEMENT(#936,1.);
#935=DERIVED_UNIT_ELEMENT(#1599,-3.);
#936=(
MASS_UNIT()
NAMED_UNIT(*)
SI_UNIT(.KILO.,.GRAM.)
);
#937=DERIVED_UNIT((#934,#935));
#938=MEASURE_REPRESENTATION_ITEM('density measure',
POSITIVE_RATIO_MEASURE(7850.),#937);
#939=PROPERTY_DEFINITION_REPRESENTATION(#944,#941);
#940=PROPERTY_DEFINITION_REPRESENTATION(#945,#942);
#941=REPRESENTATION('material name',(#943),#1596);
#942=REPRESENTATION('density',(#938),#1596);
#943=DESCRIPTIVE_REPRESENTATION_ITEM('Steel','Steel');
#944=PROPERTY_DEFINITION('material property','material name',#1606);
#945=PROPERTY_DEFINITION('material property','density of part',#1606);
#946=AXIS2_PLACEMENT_3D('',#1321,#1041,#1042);
#947=AXIS2_PLACEMENT_3D('',#1322,#1043,#1044);
#948=AXIS2_PLACEMENT_3D('',#1325,#1045,#1046);
#949=AXIS2_PLACEMENT_3D('',#1329,#1048,#1049);
#950=AXIS2_PLACEMENT_3D('',#1331,#1050,#1051);
#951=AXIS2_PLACEMENT_3D('',#1334,#1053,#1054);
#952=AXIS2_PLACEMENT_3D('',#1335,#1055,#1056);
#953=AXIS2_PLACEMENT_3D('',#1341,#1060,#1061);
#954=AXIS2_PLACEMENT_3D('',#1348,#1065,#1066);
#955=AXIS2_PLACEMENT_3D('',#1349,#1067,#1068);
#956=AXIS2_PLACEMENT_3D('',#1353,#1070,#1071);
#957=AXIS2_PLACEMENT_3D('',#1357,#1074,#1075);
#958=AXIS2_PLACEMENT_3D('',#1359,#1076,#1077);
#959=AXIS2_PLACEMENT_3D('',#1361,#1078,#1079);
#960=AXIS2_PLACEMENT_3D('',#1364,#1081,#1082);
#961=AXIS2_PLACEMENT_3D('',#1365,#1083,#1084);
#962=AXIS2_PLACEMENT_3D('',#1371,#1088,#1089);
#963=AXIS2_PLACEMENT_3D('',#1377,#1093,#1094);
#964=AXIS2_PLACEMENT_3D('',#1380,#1095,#1096);
#965=AXIS2_PLACEMENT_3D('',#1384,#1098,#1099);
#966=AXIS2_PLACEMENT_3D('',#1386,#1100,#1101);
#967=AXIS2_PLACEMENT_3D('',#1389,#1103,#1104);
#968=AXIS2_PLACEMENT_3D('',#1390,#1105,#1106);
#969=AXIS2_PLACEMENT_3D('',#1398,#1111,#1112);
#970=AXIS2_PLACEMENT_3D('',#1402,#1114,#1115);
#971=AXIS2_PLACEMENT_3D('',#1406,#1118,#1119);
#972=AXIS2_PLACEMENT_3D('',#1410,#1122,#1123);
#973=AXIS2_PLACEMENT_3D('',#1414,#1125,#1126);
#974=AXIS2_PLACEMENT_3D('',#1416,#1127,#1128);
#975=AXIS2_PLACEMENT_3D('',#1419,#1130,#1131);
#976=AXIS2_PLACEMENT_3D('',#1420,#1132,#1133);
#977=AXIS2_PLACEMENT_3D('',#1424,#1135,#1136);
#978=AXIS2_PLACEMENT_3D('',#1428,#1139,#1140);
#979=AXIS2_PLACEMENT_3D('',#1440,#1147,#1148);
#980=AXIS2_PLACEMENT_3D('',#1443,#1149,#1150);
#981=AXIS2_PLACEMENT_3D('',#1446,#1152,#1153);
#982=AXIS2_PLACEMENT_3D('',#1447,#1154,#1155);
#983=AXIS2_PLACEMENT_3D('',#1448,#1156,#1157);
#984=AXIS2_PLACEMENT_3D('',#1453,#1160,#1161);
#985=AXIS2_PLACEMENT_3D('',#1455,#1163,#1164);
#986=AXIS2_PLACEMENT_3D('',#1457,#1165,#1166);
#987=AXIS2_PLACEMENT_3D('',#1459,#1168,#1169);
#988=AXIS2_PLACEMENT_3D('',#1461,#1170,#1171);
#989=AXIS2_PLACEMENT_3D('',#1463,#1172,#1173);
#990=AXIS2_PLACEMENT_3D('',#1465,#1175,#1176);
#991=AXIS2_PLACEMENT_3D('',#1468,#1177,#1178);
#992=AXIS2_PLACEMENT_3D('',#1472,#1180,#1181);
#993=AXIS2_PLACEMENT_3D('',#1474,#1182,#1183);
#994=AXIS2_PLACEMENT_3D('',#1477,#1185,#1186);
#995=AXIS2_PLACEMENT_3D('',#1478,#1187,#1188);
#996=AXIS2_PLACEMENT_3D('',#1486,#1192,#1193);
#997=AXIS2_PLACEMENT_3D('',#1488,#1195,#1196);
#998=AXIS2_PLACEMENT_3D('',#1492,#1198,#1199);
#999=AXIS2_PLACEMENT_3D('',#1496,#1202,#1203);
#1000=AXIS2_PLACEMENT_3D('',#1500,#1206,#1207);
#1001=AXIS2_PLACEMENT_3D('',#1501,#1208,#1209);
#1002=AXIS2_PLACEMENT_3D('',#1502,#1210,#1211);
#1003=AXIS2_PLACEMENT_3D('',#1503,#1212,#1213);
#1004=AXIS2_PLACEMENT_3D('',#1505,#1214,#1215);
#1005=AXIS2_PLACEMENT_3D('',#1509,#1218,#1219);
#1006=AXIS2_PLACEMENT_3D('',#1511,#1220,#1221);
#1007=AXIS2_PLACEMENT_3D('',#1513,#1222,#1223);
#1008=AXIS2_PLACEMENT_3D('',#1516,#1225,#1226);
#1009=AXIS2_PLACEMENT_3D('',#1517,#1227,#1228);
#1010=AXIS2_PLACEMENT_3D('',#1520,#1230,#1231);
#1011=AXIS2_PLACEMENT_3D('',#1522,#1233,#1234);
#1012=AXIS2_PLACEMENT_3D('',#1526,#1237,#1238);
#1013=AXIS2_PLACEMENT_3D('',#1528,#1239,#1240);
#1014=AXIS2_PLACEMENT_3D('',#1530,#1241,#1242);
#1015=AXIS2_PLACEMENT_3D('',#1532,#1244,#1245);
#1016=AXIS2_PLACEMENT_3D('',#1541,#1251,#1252);
#1017=AXIS2_PLACEMENT_3D('',#1543,#1253,#1254);
#1018=AXIS2_PLACEMENT_3D('',#1544,#1255,#1256);
#1019=AXIS2_PLACEMENT_3D('',#1545,#1257,#1258);
#1020=AXIS2_PLACEMENT_3D('',#1547,#1260,#1261);
#1021=AXIS2_PLACEMENT_3D('',#1551,#1264,#1265);
#1022=AXIS2_PLACEMENT_3D('',#1554,#1268,#1269);
#1023=AXIS2_PLACEMENT_3D('',#1556,#1271,#1272);
#1024=AXIS2_PLACEMENT_3D('',#1557,#1273,#1274);
#1025=AXIS2_PLACEMENT_3D('',#1559,#1276,#1277);
#1026=AXIS2_PLACEMENT_3D('',#1561,#1279,#1280);
#1027=AXIS2_PLACEMENT_3D('',#1563,#1282,#1283);
#1028=AXIS2_PLACEMENT_3D('',#1569,#1287,#1288);
#1029=AXIS2_PLACEMENT_3D('',#1571,#1290,#1291);
#1030=AXIS2_PLACEMENT_3D('',#1575,#1294,#1295);
#1031=AXIS2_PLACEMENT_3D('',#1579,#1298,#1299);
#1032=AXIS2_PLACEMENT_3D('',#1581,#1301,#1302);
#1033=AXIS2_PLACEMENT_3D('',#1582,#1303,#1304);
#1034=AXIS2_PLACEMENT_3D('',#1583,#1305,#1306);
#1035=AXIS2_PLACEMENT_3D('',#1584,#1307,#1308);
#1036=AXIS2_PLACEMENT_3D('',#1586,#1309,#1310);
#1037=AXIS2_PLACEMENT_3D('',#1588,#1312,#1313);
#1038=AXIS2_PLACEMENT_3D('',#1589,#1314,#1315);
#1039=AXIS2_PLACEMENT_3D('',#1591,#1316,#1317);
#1040=AXIS2_PLACEMENT_3D('',#1593,#1319,#1320);
#1041=DIRECTION('axis',(0.,0.,1.));
#1042=DIRECTION('refdir',(1.,0.,0.));
#1043=DIRECTION('center_axis',(0.,0.,1.));
#1044=DIRECTION('ref_axis',(-0.707106781186548,0.707106781186547,0.));
#1045=DIRECTION('center_axis',(0.,-0.707106781186548,-0.707106781186548));
#1046=DIRECTION('ref_axis',(-1.2266347333467E-16,0.707106781186548,-0.707106781186548));
#1047=DIRECTION('',(0.,0.,-1.));
#1048=DIRECTION('center_axis',(0.,-0.707106781186547,0.707106781186548));
#1049=DIRECTION('ref_axis',(1.2266347333467E-16,0.707106781186548,0.707106781186547));
#1050=DIRECTION('center_axis',(0.707106781186547,0.,0.707106781186548));
#1051=DIRECTION('ref_axis',(-0.707106781186548,6.1331736667335E-17,0.707106781186547));
#1052=DIRECTION('',(0.,0.,1.));
#1053=DIRECTION('center_axis',(0.707106781186546,0.,-0.707106781186549));
#1054=DIRECTION('ref_axis',(-0.707106781186549,0.,-0.707106781186546));
#1055=DIRECTION('center_axis',(0.,1.,0.));
#1056=DIRECTION('ref_axis',(0.,0.,1.));
#1057=DIRECTION('',(-1.,0.,0.));
#1058=DIRECTION('',(0.,0.,1.));
#1059=DIRECTION('',(1.,0.,0.));
#1060=DIRECTION('center_axis',(0.,0.707106781186548,0.707106781186548));
#1061=DIRECTION('ref_axis',(1.,0.,0.));
#1062=DIRECTION('',(-0.577350269189628,0.577350269189625,-0.577350269189625));
#1063=DIRECTION('',(1.,0.,0.));
#1064=DIRECTION('',(-0.577350269189626,-0.577350269189626,0.577350269189626));
#1065=DIRECTION('center_axis',(0.,-0.707106781186548,-0.707106781186548));
#1066=DIRECTION('ref_axis',(0.,0.707106781186547,-0.707106781186547));
#1067=DIRECTION('center_axis',(-0.707106781186546,0.,0.707106781186549));
#1068=DIRECTION('ref_axis',(0.707106781186549,0.,0.707106781186546));
#1069=DIRECTION('',(0.,-1.,0.));
#1070=DIRECTION('center_axis',(0.707106781186546,0.,-0.707106781186549));
#1071=DIRECTION('ref_axis',(-0.707106781186549,0.,-0.707106781186546));
#1072=DIRECTION('',(-0.577350269189628,-0.577350269189625,-0.577350269189625));
#1073=DIRECTION('',(0.,1.,0.));
#1074=DIRECTION('center_axis',(0.,0.,-1.));
#1075=DIRECTION('ref_axis',(0.707106781186548,0.707106781186548,0.));
#1076=DIRECTION('center_axis',(0.,-0.707106781186547,0.707106781186548));
#1077=DIRECTION('ref_axis',(0.,0.707106781186548,0.707106781186547));
#1078=DIRECTION('center_axis',(-0.707106781186548,0.,-0.707106781186548));
#1079=DIRECTION('ref_axis',(0.707106781186547,0.,-0.707106781186547));
#1080=DIRECTION('',(0.,0.,-1.));
#1081=DIRECTION('center_axis',(-0.707106781186547,0.,0.707106781186548));
#1082=DIRECTION('ref_axis',(0.707106781186548,0.,0.707106781186547));
#1083=DIRECTION('center_axis',(0.,0.707106781186547,-0.707106781186548));
#1084=DIRECTION('ref_axis',(-1.,0.,0.));
#1085=DIRECTION('',(0.577350269189626,0.577350269189626,0.577350269189625));
#1086=DIRECTION('',(-1.,0.,0.));
#1087=DIRECTION('',(0.577350269189626,-0.577350269189626,-0.577350269189625));
#1088=DIRECTION('center_axis',(0.707106781186547,0.,-0.707106781186548));
#1089=DIRECTION('ref_axis',(-0.707106781186548,0.,-0.707106781186547));
#1090=DIRECTION('',(0.,-1.,0.));
#1091=DIRECTION('',(0.577350269189626,0.577350269189626,0.577350269189625));
#1092=DIRECTION('',(0.,1.,0.));
#1093=DIRECTION('center_axis',(0.,0.,1.));
#1094=DIRECTION('ref_axis',(-0.707106781186548,0.707106781186548,0.));
#1095=DIRECTION('center_axis',(0.,-0.707106781186548,-0.707106781186548));
#1096=DIRECTION('ref_axis',(0.,0.707106781186547,-0.707106781186547));
#1097=DIRECTION('',(0.,0.,-1.));
#1098=DIRECTION('center_axis',(0.,-0.707106781186547,0.707106781186548));
#1099=DIRECTION('ref_axis',(0.,0.707106781186548,0.707106781186547));
#1100=DIRECTION('center_axis',(0.707106781186547,0.,0.707106781186548));
#1101=DIRECTION('ref_axis',(-0.707106781186548,0.,0.707106781186547));
#1102=DIRECTION('',(0.,0.,1.));
#1103=DIRECTION('center_axis',(0.707106781186547,0.,-0.707106781186549));
#1104=DIRECTION('ref_axis',(-0.707106781186548,0.,-0.707106781186547));
#1105=DIRECTION('center_axis',(-0.707106781186547,0.,-0.707106781186548));
#1106=DIRECTION('ref_axis',(-0.707106781186548,0.,0.707106781186547));
#1107=DIRECTION('',(0.577350269189626,-0.577350269189626,-0.577350269189625));
#1108=DIRECTION('',(0.,-1.,0.));
#1109=DIRECTION('',(-0.577350269189626,0.577350269189626,0.577350269189625));
#1110=DIRECTION('',(0.,1.,0.));
#1111=DIRECTION('center_axis',(0.,0.707106781186547,-0.707106781186548));
#1112=DIRECTION('ref_axis',(-1.,0.,0.));
#1113=DIRECTION('',(1.,0.,0.));
#1114=DIRECTION('center_axis',(0.,-0.707106781186547,0.707106781186548));
#1115=DIRECTION('ref_axis',(-1.2266347333467E-16,0.707106781186548,0.707106781186547));
#1116=DIRECTION('',(0.577350269189626,0.577350269189626,0.577350269189625));
#1117=DIRECTION('',(-1.,0.,0.));
#1118=DIRECTION('center_axis',(0.,1.,0.));
#1119=DIRECTION('ref_axis',(0.,0.,1.));
#1120=DIRECTION('',(-1.,0.,0.));
#1121=DIRECTION('',(0.,0.,1.));
#1122=DIRECTION('center_axis',(0.,0.,1.));
#1123=DIRECTION('ref_axis',(-0.707106781186548,-0.707106781186548,0.));
#1124=DIRECTION('',(0.,0.,-1.));
#1125=DIRECTION('center_axis',(0.707106781186547,0.,0.707106781186548));
#1126=DIRECTION('ref_axis',(-0.707106781186548,0.,0.707106781186547));
#1127=DIRECTION('center_axis',(0.,0.707106781186547,0.707106781186548));
#1128=DIRECTION('ref_axis',(0.,-0.707106781186548,0.707106781186547));
#1129=DIRECTION('',(0.,0.,1.));
#1130=DIRECTION('center_axis',(0.,0.707106781186548,-0.707106781186548));
#1131=DIRECTION('ref_axis',(0.,-0.707106781186547,-0.707106781186547));
#1132=DIRECTION('center_axis',(0.,-0.707106781186548,0.707106781186548));
#1133=DIRECTION('ref_axis',(1.,0.,0.));
#1134=DIRECTION('',(1.,0.,0.));
#1135=DIRECTION('center_axis',(0.,0.707106781186548,-0.707106781186548));
#1136=DIRECTION('ref_axis',(0.,-0.707106781186547,-0.707106781186547));
#1137=DIRECTION('',(-0.577350269189628,0.577350269189625,0.577350269189625));
#1138=DIRECTION('',(-1.,0.,0.));
#1139=DIRECTION('center_axis',(0.,-1.,0.));
#1140=DIRECTION('ref_axis',(0.,0.,-1.));
#1141=DIRECTION('',(-1.,0.,0.));
#1142=DIRECTION('',(0.,0.,1.));
#1143=DIRECTION('',(-1.,0.,0.));
#1144=DIRECTION('',(0.,0.,-1.));
#1145=DIRECTION('',(-1.,0.,0.));
#1146=DIRECTION('',(0.,0.,-1.));
#1147=DIRECTION('center_axis',(0.,0.,-1.));
#1148=DIRECTION('ref_axis',(0.707106781186548,-0.707106781186548,0.));
#1149=DIRECTION('center_axis',(-0.707106781186545,0.,0.70710678118655));
#1150=DIRECTION('ref_axis',(0.70710678118655,0.,0.707106781186545));
#1151=DIRECTION('',(0.,0.,1.));
#1152=DIRECTION('center_axis',(-0.707106781186546,0.,-0.707106781186549));
#1153=DIRECTION('ref_axis',(0.707106781186549,0.,-0.707106781186546));
#1154=DIRECTION('center_axis',(0.,0.707106781186547,0.707106781186548));
#1155=DIRECTION('ref_axis',(0.,-0.707106781186548,0.707106781186547));
#1156=DIRECTION('center_axis',(0.707106781186545,0.,-0.70710678118655));
#1157=DIRECTION('ref_axis',(-0.70710678118655,0.,-0.707106781186545));
#1158=DIRECTION('',(0.577350269189628,-0.577350269189625,0.577350269189624));
#1159=DIRECTION('',(0.,1.,0.));
#1160=DIRECTION('center_axis',(-0.707106781186545,0.,0.70710678118655));
#1161=DIRECTION('ref_axis',(0.70710678118655,-1.2266347333467E-16,0.707106781186545));
#1162=DIRECTION('',(0.,-1.,0.));
#1163=DIRECTION('center_axis',(0.,-0.707106781186547,-0.707106781186548));
#1164=DIRECTION('ref_axis',(-1.,0.,0.));
#1165=DIRECTION('center_axis',(0.,0.707106781186547,0.707106781186548));
#1166=DIRECTION('ref_axis',(0.,-0.707106781186548,0.707106781186547));
#1167=DIRECTION('',(1.,0.,0.));
#1168=DIRECTION('center_axis',(0.,0.,-1.));
#1169=DIRECTION('ref_axis',(0.707106781186548,0.707106781186547,0.));
#1170=DIRECTION('center_axis',(0.,-0.707106781186548,-0.707106781186548));
#1171=DIRECTION('ref_axis',(1.2266347333467E-16,0.707106781186548,-0.707106781186548));
#1172=DIRECTION('center_axis',(-0.707106781186546,0.,-0.707106781186549));
#1173=DIRECTION('ref_axis',(0.707106781186549,0.,-0.707106781186546));
#1174=DIRECTION('',(0.,0.,-1.));
#1175=DIRECTION('center_axis',(0.,0.,-1.));
#1176=DIRECTION('ref_axis',(0.707106781186548,0.707106781186548,0.));
#1177=DIRECTION('center_axis',(0.,-0.707106781186547,0.707106781186548));
#1178=DIRECTION('ref_axis',(0.,0.707106781186548,0.707106781186547));
#1179=DIRECTION('',(0.,0.,1.));
#1180=DIRECTION('center_axis',(0.,-0.707106781186547,0.707106781186548));
#1181=DIRECTION('ref_axis',(0.,0.707106781186548,0.707106781186547));
#1182=DIRECTION('center_axis',(0.,0.,1.));
#1183=DIRECTION('ref_axis',(0.707106781186548,0.707106781186548,0.));
#1184=DIRECTION('',(0.,0.,-1.));
#1185=DIRECTION('center_axis',(-0.707106781186547,0.,0.707106781186548));
#1186=DIRECTION('ref_axis',(0.707106781186548,0.,0.707106781186547));
#1187=DIRECTION('center_axis',(0.,0.707106781186547,-0.707106781186548));
#1188=DIRECTION('ref_axis',(-1.,0.,0.));
#1189=DIRECTION('',(-0.577350269189626,-0.577350269189626,-0.577350269189626));
#1190=DIRECTION('',(-1.,0.,0.));
#1191=DIRECTION('',(-0.577350269189626,0.577350269189626,0.577350269189626));
#1192=DIRECTION('center_axis',(0.,-0.707106781186547,0.707106781186548));
#1193=DIRECTION('ref_axis',(0.,0.707106781186548,0.707106781186547));
#1194=DIRECTION('',(1.,0.,0.));
#1195=DIRECTION('center_axis',(0.707106781186547,0.,-0.707106781186548));
#1196=DIRECTION('ref_axis',(-0.707106781186548,0.,-0.707106781186547));
#1197=DIRECTION('',(0.,-1.,0.));
#1198=DIRECTION('center_axis',(-0.707106781186547,0.,0.707106781186548));
#1199=DIRECTION('ref_axis',(0.707106781186548,0.,0.707106781186547));
#1200=DIRECTION('',(-0.577350269189626,0.577350269189626,-0.577350269189626));
#1201=DIRECTION('',(0.,1.,0.));
#1202=DIRECTION('center_axis',(1.,0.,0.));
#1203=DIRECTION('ref_axis',(0.,0.,1.));
#1204=DIRECTION('',(0.,-1.,0.));
#1205=DIRECTION('',(0.,0.,1.));
#1206=DIRECTION('center_axis',(0.,0.,1.));
#1207=DIRECTION('ref_axis',(0.707106781186548,-0.707106781186548,0.));
#1208=DIRECTION('center_axis',(0.,0.,1.));
#1209=DIRECTION('ref_axis',(0.707106781186548,-0.707106781186548,0.));
#1210=DIRECTION('center_axis',(0.,0.707106781186547,0.707106781186548));
#1211=DIRECTION('ref_axis',(0.,-0.707106781186548,0.707106781186547));
#1212=DIRECTION('center_axis',(0.,-0.707106781186547,-0.707106781186548));
#1213=DIRECTION('ref_axis',(-1.,0.,0.));
#1214=DIRECTION('center_axis',(0.,0.707106781186547,0.707106781186548));
#1215=DIRECTION('ref_axis',(0.,-0.707106781186548,0.707106781186547));
#1216=DIRECTION('',(-0.577350269189626,-0.577350269189626,0.577350269189626));
#1217=DIRECTION('',(1.,0.,0.));
#1218=DIRECTION('center_axis',(0.,0.,-1.));
#1219=DIRECTION('ref_axis',(-0.707106781186548,-0.707106781186548,0.));
#1220=DIRECTION('center_axis',(0.,0.707106781186547,0.707106781186548));
#1221=DIRECTION('ref_axis',(0.,-0.707106781186548,0.707106781186547));
#1222=DIRECTION('center_axis',(0.,0.,1.));
#1223=DIRECTION('ref_axis',(-0.707106781186548,-0.707106781186548,0.));
#1224=DIRECTION('',(0.,0.,-1.));
#1225=DIRECTION('center_axis',(0.707106781186548,0.,0.707106781186548));
#1226=DIRECTION('ref_axis',(-0.707106781186547,0.,0.707106781186547));
#1227=DIRECTION('center_axis',(-0.707106781186548,0.,-0.707106781186548));
#1228=DIRECTION('ref_axis',(-0.707106781186547,0.,0.707106781186547));
#1229=DIRECTION('',(0.,1.,0.));
#1230=DIRECTION('center_axis',(0.707106781186548,0.,0.707106781186548));
#1231=DIRECTION('ref_axis',(-0.707106781186547,0.,0.707106781186547));
#1232=DIRECTION('',(0.,-1.,0.));
#1233=DIRECTION('center_axis',(-1.,0.,0.));
#1234=DIRECTION('ref_axis',(0.,0.,-1.));
#1235=DIRECTION('',(0.,1.,0.));
#1236=DIRECTION('',(0.,0.,1.));
#1237=DIRECTION('center_axis',(0.,0.,1.));
#1238=DIRECTION('ref_axis',(-0.707106781186548,0.707106781186548,0.));
#1239=DIRECTION('center_axis',(0.,0.,1.));
#1240=DIRECTION('ref_axis',(-0.707106781186548,0.707106781186548,0.));
#1241=DIRECTION('center_axis',(0.,-0.707106781186547,0.707106781186548));
#1242=DIRECTION('ref_axis',(0.,0.707106781186548,0.707106781186547));
#1243=DIRECTION('',(0.,0.,-1.));
#1244=DIRECTION('center_axis',(0.,-1.,0.));
#1245=DIRECTION('ref_axis',(1.,0.,0.));
#1246=DIRECTION('',(1.,0.,0.));
#1247=DIRECTION('',(0.,0.,1.));
#1248=DIRECTION('',(-1.,0.,0.));
#1249=DIRECTION('',(0.,0.,-1.));
#1250=DIRECTION('',(1.,0.,0.));
#1251=DIRECTION('center_axis',(0.,-1.,0.));
#1252=DIRECTION('ref_axis',(1.,0.,0.));
#1253=DIRECTION('center_axis',(0.,-1.,0.));
#1254=DIRECTION('ref_axis',(1.,0.,0.));
#1255=DIRECTION('center_axis',(0.,0.,-1.));
#1256=DIRECTION('ref_axis',(1.,0.,0.));
#1257=DIRECTION('center_axis',(0.,0.707106781186547,-0.707106781186548));
#1258=DIRECTION('ref_axis',(-1.,0.,0.));
#1259=DIRECTION('',(-1.,0.,0.));
#1260=DIRECTION('center_axis',(0.,-0.707106781186547,-0.707106781186548));
#1261=DIRECTION('ref_axis',(-1.,0.,0.));
#1262=DIRECTION('',(0.577350269189626,0.577350269189626,-0.577350269189625));
#1263=DIRECTION('',(1.,0.,0.));
#1264=DIRECTION('center_axis',(-0.707106781186547,0.,-0.707106781186548));
#1265=DIRECTION('ref_axis',(-0.707106781186548,0.,0.707106781186547));
#1266=DIRECTION('',(0.,-1.,0.));
#1267=DIRECTION('',(0.,1.,0.));
#1268=DIRECTION('center_axis',(1.,0.,0.));
#1269=DIRECTION('ref_axis',(0.,0.,-1.));
#1270=DIRECTION('',(0.,1.,0.));
#1271=DIRECTION('center_axis',(-1.,0.,0.));
#1272=DIRECTION('ref_axis',(0.,0.,1.));
#1273=DIRECTION('center_axis',(0.,0.707106781186547,-0.707106781186548));
#1274=DIRECTION('ref_axis',(-1.,0.,0.));
#1275=DIRECTION('',(-1.,0.,0.));
#1276=DIRECTION('center_axis',(1.,0.,0.));
#1277=DIRECTION('ref_axis',(0.,0.,-1.));
#1278=DIRECTION('',(0.,1.,0.));
#1279=DIRECTION('center_axis',(-1.,0.,0.));
#1280=DIRECTION('ref_axis',(0.,0.,1.));
#1281=DIRECTION('',(0.,-1.,0.));
#1282=DIRECTION('center_axis',(0.,0.707106781186548,0.707106781186548));
#1283=DIRECTION('ref_axis',(1.,0.,0.));
#1284=DIRECTION('',(-0.577350269189626,-0.577350269189626,0.577350269189626));
#1285=DIRECTION('',(1.,0.,0.));
#1286=DIRECTION('',(-0.577350269189627,0.577350269189625,-0.577350269189625));
#1287=DIRECTION('center_axis',(0.707106781186548,0.,0.707106781186548));
#1288=DIRECTION('ref_axis',(0.707106781186547,0.,-0.707106781186547));
#1289=DIRECTION('',(0.,-1.,0.));
#1290=DIRECTION('center_axis',(0.707106781186546,0.,0.707106781186549));
#1291=DIRECTION('ref_axis',(0.707106781186549,0.,-0.707106781186546));
#1292=DIRECTION('',(-0.577350269189626,-0.577350269189626,0.577350269189626));
#1293=DIRECTION('',(0.,-1.,0.));
#1294=DIRECTION('center_axis',(-0.707106781186547,0.,0.707106781186549));
#1295=DIRECTION('ref_axis',(0.707106781186549,0.,0.707106781186547));
#1296=DIRECTION('',(0.,1.,0.));
#1297=DIRECTION('',(-0.577350269189627,0.577350269189625,-0.577350269189625));
#1298=DIRECTION('center_axis',(0.,0.707106781186548,0.707106781186548));
#1299=DIRECTION('ref_axis',(1.,0.,0.));
#1300=DIRECTION('',(1.,0.,0.));
#1301=DIRECTION('center_axis',(0.,0.,1.));
#1302=DIRECTION('ref_axis',(-1.,0.,0.));
#1303=DIRECTION('center_axis',(0.,0.,-1.));
#1304=DIRECTION('ref_axis',(0.,-1.,0.));
#1305=DIRECTION('center_axis',(0.,0.,-1.));
#1306=DIRECTION('ref_axis',(0.,1.,0.));
#1307=DIRECTION('center_axis',(0.,1.,0.));
#1308=DIRECTION('ref_axis',(1.,0.,0.));
#1309=DIRECTION('center_axis',(0.,1.,0.));
#1310=DIRECTION('ref_axis',(1.,0.,0.));
#1311=DIRECTION('',(0.,-1.,0.));
#1312=DIRECTION('center_axis',(0.,-1.,0.));
#1313=DIRECTION('ref_axis',(1.,0.,0.));
#1314=DIRECTION('center_axis',(0.,1.,0.));
#1315=DIRECTION('ref_axis',(1.,0.,0.));
#1316=DIRECTION('center_axis',(0.,1.,0.));
#1317=DIRECTION('ref_axis',(1.,0.,0.));
#1318=DIRECTION('',(0.,-1.,0.));
#1319=DIRECTION('center_axis',(0.,-1.,0.));
#1320=DIRECTION('ref_axis',(1.,0.,0.));
#1321=CARTESIAN_POINT('',(0.,0.,0.));
#1322=CARTESIAN_POINT('Origin',(-29.799999657273,-7.29999999999993,4.91969656323785));
#1323=CARTESIAN_POINT('',(-30.4128255343014,-6.68717412297159,6.2568706862095));
#1324=CARTESIAN_POINT('',(-29.799999657273,-6.43333333333327,6.00302989657117));
#1325=CARTESIAN_POINT('Origin',(-29.799999657273,-7.29999999999993,6.86969656323783));
#1326=CARTESIAN_POINT('',(-29.799999657273,-6.43333333333327,3.83636322990452));
#1327=CARTESIAN_POINT('',(-29.799999657273,-6.43333333333327,4.91969656323785));
#1328=CARTESIAN_POINT('',(-30.4128255343014,-6.6871741229716,3.5825224402662));
#1329=CARTESIAN_POINT('Origin',(-29.799999657273,-7.29999999999993,2.96969656323787));
#1330=CARTESIAN_POINT('',(-30.6666663239397,-7.29999999999993,3.83636322990452));
#1331=CARTESIAN_POINT('Origin',(-29.799999657273,-7.29999999999993,2.96969656323786));
#1332=CARTESIAN_POINT('',(-30.6666663239397,-7.29999999999993,6.00302989657117));
#1333=CARTESIAN_POINT('',(-30.6666663239397,-7.29999999999993,4.91969656323785));
#1334=CARTESIAN_POINT('Origin',(-29.799999657273,-7.29999999999993,6.86969656323783));
#1335=CARTESIAN_POINT('Origin',(-26.5499996572731,-6.43333333333327,4.91969656323785));
#1336=CARTESIAN_POINT('',(-23.2999996572731,-6.43333333333327,6.00302989657117));
#1337=CARTESIAN_POINT('',(-15.6083331843216,-6.43333333333327,6.00302989657117));
#1338=CARTESIAN_POINT('',(-23.2999996572731,-6.43333333333327,3.83636322990452));
#1339=CARTESIAN_POINT('',(-23.2999996572731,-6.43333333333327,5.67802989657118));
#1340=CARTESIAN_POINT('',(-24.2749996572731,-6.43333333333327,3.83636322990452));
#1341=CARTESIAN_POINT('Origin',(-15.6083331843216,-6.64999999999994,6.21969656323784));
#1342=CARTESIAN_POINT('',(-30.2333329906064,-6.8666666666666,6.4363632299045));
#1343=CARTESIAN_POINT('',(-30.2333329906064,-6.8666666666666,6.4363632299045));
#1344=CARTESIAN_POINT('',(-22.8666663239398,-6.8666666666666,6.4363632299045));
#1345=CARTESIAN_POINT('',(-15.6083331843216,-6.8666666666666,6.4363632299045));
#1346=CARTESIAN_POINT('',(-22.6871737802447,-6.6871741229716,6.2568706862095));
#1347=CARTESIAN_POINT('',(-22.4333329906064,-6.43333333333327,6.00302989657117));
#1348=CARTESIAN_POINT('Origin',(-23.2999996572731,-7.29999999999993,6.86969656323783));
#1349=CARTESIAN_POINT('Origin',(-30.449999657273,-15.2083333333332,6.21969656323784));
#1350=CARTESIAN_POINT('',(-30.6666663239397,-15.9666666666665,6.00302989657117));
#1351=CARTESIAN_POINT('',(-30.6666663239397,-15.2083333333332,6.00302989657117));
#1352=CARTESIAN_POINT('',(-30.4128255343014,-16.5794925436949,6.2568706862095));
#1353=CARTESIAN_POINT('Origin',(-29.799999657273,-15.9666666666665,6.86969656323783));
#1354=CARTESIAN_POINT('',(-30.2333329906064,-16.3999999999999,6.4363632299045));
#1355=CARTESIAN_POINT('',(-30.2333329906064,-16.3999999999999,6.4363632299045));
#1356=CARTESIAN_POINT('',(-30.2333329906064,-15.2083333333332,6.4363632299045));
#1357=CARTESIAN_POINT('Origin',(-23.2999996572731,-7.29999999999993,5.67802989657118));
#1358=CARTESIAN_POINT('',(-22.6871737802447,-6.6871741229716,3.5825224402662));
#1359=CARTESIAN_POINT('Origin',(-23.2999996572731,-7.29999999999993,2.96969656323786));
#1360=CARTESIAN_POINT('',(-22.4333329906064,-7.29999999999993,6.00302989657117));
#1361=CARTESIAN_POINT('Origin',(-23.2999996572731,-7.29999999999993,6.86969656323783));
#1362=CARTESIAN_POINT('',(-22.4333329906064,-7.29999999999993,3.83636322990452));
#1363=CARTESIAN_POINT('',(-22.4333329906064,-7.29999999999993,5.67802989657118));
#1364=CARTESIAN_POINT('Origin',(-23.2999996572731,-7.29999999999993,2.96969656323786));
#1365=CARTESIAN_POINT('Origin',(-24.2749996572731,-6.64999999999994,3.61969656323786));
#1366=CARTESIAN_POINT('',(-22.8666663239398,-6.8666666666666,3.40302989657119));
#1367=CARTESIAN_POINT('',(-22.8666663239398,-6.8666666666666,3.40302989657119));
#1368=CARTESIAN_POINT('',(-30.2333329906064,-6.8666666666666,3.40302989657119));
#1369=CARTESIAN_POINT('',(-24.2749996572731,-6.8666666666666,3.40302989657119));
#1370=CARTESIAN_POINT('',(-30.6666663239397,-6.43333333333327,3.83636322990452));
#1371=CARTESIAN_POINT('Origin',(-22.6499996572731,-14.6666666666665,3.61969656323786));
#1372=CARTESIAN_POINT('',(-22.4333329906064,-14.6666666666665,3.83636322990452));
#1373=CARTESIAN_POINT('',(-22.4333329906064,-14.6666666666665,3.83636322990452));
#1374=CARTESIAN_POINT('',(-22.8666663239398,-15.0999999999999,3.40302989657119));
#1375=CARTESIAN_POINT('',(-22.8666663239398,-15.0999999999999,3.40302989657119));
#1376=CARTESIAN_POINT('',(-22.8666663239398,-14.6666666666665,3.40302989657119));
#1377=CARTESIAN_POINT('Origin',(-3.3666667113701,-7.29999999999993,4.16136322990452));
#1378=CARTESIAN_POINT('',(-3.97949258839843,-6.68717412297159,6.2568706862095));
#1379=CARTESIAN_POINT('',(-3.3666667113701,-6.43333333333327,6.00302989657117));
#1380=CARTESIAN_POINT('Origin',(-3.3666667113701,-7.29999999999993,6.86969656323783));
#1381=CARTESIAN_POINT('',(-3.3666667113701,-6.43333333333327,3.83636322990452));
#1382=CARTESIAN_POINT('',(-3.3666667113701,-6.43333333333327,4.16136322990452));
#1383=CARTESIAN_POINT('',(-3.97949258839843,-6.68717412297159,3.5825224402662));
#1384=CARTESIAN_POINT('Origin',(-3.3666667113701,-7.29999999999993,2.96969656323786));
#1385=CARTESIAN_POINT('',(-4.23333337803676,-7.29999999999993,3.83636322990452));
#1386=CARTESIAN_POINT('Origin',(-3.3666667113701,-7.29999999999993,2.96969656323787));
#1387=CARTESIAN_POINT('',(-4.23333337803676,-7.29999999999993,6.00302989657117));
#1388=CARTESIAN_POINT('',(-4.23333337803676,-7.29999999999993,4.16136322990452));
#1389=CARTESIAN_POINT('Origin',(-3.3666667113701,-7.29999999999993,6.86969656323783));
#1390=CARTESIAN_POINT('Origin',(-4.01666671137009,-15.7499999999999,3.61969656323786));
#1391=CARTESIAN_POINT('',(-3.80000004470343,-6.8666666666666,3.40302989657119));
#1392=CARTESIAN_POINT('',(-4.23333337803676,-6.43333333333327,3.83636322990452));
#1393=CARTESIAN_POINT('',(-3.80000004470343,-15.0999999999999,3.40302989657119));
#1394=CARTESIAN_POINT('',(-3.80000004470343,-15.7499999999999,3.40302989657119));
#1395=CARTESIAN_POINT('',(-4.23333337803676,-14.6666666666665,3.83636322990452));
#1396=CARTESIAN_POINT('',(-3.80000004470343,-15.0999999999999,3.40302989657119));
#1397=CARTESIAN_POINT('',(-4.23333337803676,-15.7499999999999,3.83636322990452));
#1398=CARTESIAN_POINT('Origin',(-2.3916667113701,-6.64999999999994,3.61969656323786));
#1399=CARTESIAN_POINT('',(3.13333328862986,-6.43333333333327,3.83636322990452));
#1400=CARTESIAN_POINT('',(-2.3916667113701,-6.43333333333327,3.83636322990452));
#1401=CARTESIAN_POINT('',(3.74615916565819,-6.68717412297159,3.5825224402662));
#1402=CARTESIAN_POINT('Origin',(3.13333328862986,-7.29999999999993,2.96969656323787));
#1403=CARTESIAN_POINT('',(3.56666662196318,-6.8666666666666,3.40302989657119));
#1404=CARTESIAN_POINT('',(3.56666662196318,-6.8666666666666,3.40302989657119));
#1405=CARTESIAN_POINT('',(-2.3916667113701,-6.8666666666666,3.40302989657119));
#1406=CARTESIAN_POINT('Origin',(-0.116666711370121,-6.43333333333327,4.91969656323785));
#1407=CARTESIAN_POINT('',(3.13333328862986,-6.43333333333327,6.00302989657117));
#1408=CARTESIAN_POINT('',(-2.3916667113701,-6.43333333333327,6.00302989657117));
#1409=CARTESIAN_POINT('',(3.13333328862986,-6.43333333333327,4.91969656323785));
#1410=CARTESIAN_POINT('Origin',(-29.799999657273,-15.9666666666665,3.99886322990452));
#1411=CARTESIAN_POINT('',(-30.6666663239397,-15.9666666666665,3.83636322990452));
#1412=CARTESIAN_POINT('',(-30.6666663239397,-15.9666666666665,3.99886322990452));
#1413=CARTESIAN_POINT('',(-30.4128255343014,-16.5794925436949,3.5825224402662));
#1414=CARTESIAN_POINT('Origin',(-29.799999657273,-15.9666666666665,2.96969656323786));
#1415=CARTESIAN_POINT('',(-29.799999657273,-16.8333333333332,3.83636322990452));
#1416=CARTESIAN_POINT('Origin',(-29.799999657273,-15.9666666666665,2.96969656323786));
#1417=CARTESIAN_POINT('',(-29.799999657273,-16.8333333333332,6.00302989657117));
#1418=CARTESIAN_POINT('',(-29.799999657273,-16.8333333333332,3.99886322990452));
#1419=CARTESIAN_POINT('Origin',(-29.799999657273,-15.9666666666665,6.86969656323783));
#1420=CARTESIAN_POINT('Origin',(-8.99999994784584,-16.6166666666665,6.21969656323784));
#1421=CARTESIAN_POINT('',(3.13333328862986,-16.8333333333332,6.00302989657117));
#1422=CARTESIAN_POINT('',(-8.99999994784584,-16.8333333333332,6.00302989657117));
#1423=CARTESIAN_POINT('',(3.74615916565819,-16.5794925436949,6.2568706862095));
#1424=CARTESIAN_POINT('Origin',(3.13333328862986,-15.9666666666665,6.86969656323783));
#1425=CARTESIAN_POINT('',(3.56666662196318,-16.3999999999999,6.4363632299045));
#1426=CARTESIAN_POINT('',(3.99999995529652,-16.8333333333332,6.00302989657117));
#1427=CARTESIAN_POINT('',(-8.99999994784584,-16.3999999999999,6.4363632299045));
#1428=CARTESIAN_POINT('Origin',(-13.3333331843216,-16.8333333333332,3.0780298965712));
#1429=CARTESIAN_POINT('',(-21.1333329906064,-16.8333333333332,3.83636322990452));
#1430=CARTESIAN_POINT('',(-15.4999998025595,-16.8333333333332,3.83636322990452));
#1431=CARTESIAN_POINT('',(-21.1333329906064,-16.8333333333332,0.153029896571218));
#1432=CARTESIAN_POINT('',(-21.1333329906064,-16.8333333333332,4.75719656323785));
#1433=CARTESIAN_POINT('',(-5.53333337803675,-16.8333333333332,0.153029896571218));
#1434=CARTESIAN_POINT('',(-17.6666664207973,-16.8333333333332,0.153029896571218));
#1435=CARTESIAN_POINT('',(-5.53333337803675,-16.8333333333332,3.83636322990452));
#1436=CARTESIAN_POINT('',(-5.53333337803675,-16.8333333333332,1.39886322990454));
#1437=CARTESIAN_POINT('',(3.13333328862986,-16.8333333333332,3.83636322990452));
#1438=CARTESIAN_POINT('',(-11.1666665660837,-16.8333333333332,3.83636322990452));
#1439=CARTESIAN_POINT('',(3.13333328862986,-16.8333333333332,3.99886322990452));
#1440=CARTESIAN_POINT('Origin',(3.13333328862986,-15.9666666666665,3.99886322990452));
#1441=CARTESIAN_POINT('',(3.74615916565819,-16.5794925436949,3.5825224402662));
#1442=CARTESIAN_POINT('',(3.99999995529652,-15.9666666666665,3.83636322990452));
#1443=CARTESIAN_POINT('Origin',(3.13333328862986,-15.9666666666665,2.96969656323787));
#1444=CARTESIAN_POINT('',(3.99999995529652,-15.9666666666665,6.00302989657117));
#1445=CARTESIAN_POINT('',(3.99999995529652,-15.9666666666665,3.99886322990452));
#1446=CARTESIAN_POINT('Origin',(3.13333328862986,-15.9666666666665,6.86969656323783));
#1447=CARTESIAN_POINT('Origin',(3.13333328862986,-15.9666666666665,2.96969656323786));
#1448=CARTESIAN_POINT('Origin',(3.78333328862985,-16.2916666666665,3.61969656323786));
#1449=CARTESIAN_POINT('',(3.56666662196318,-16.3999999999999,3.40302989657119));
#1450=CARTESIAN_POINT('',(3.56666662196318,-16.3999999999999,3.40302989657119));
#1451=CARTESIAN_POINT('',(3.56666662196318,-16.2916666666665,3.40302989657119));
#1452=CARTESIAN_POINT('',(3.99999995529652,-7.29999999999993,3.83636322990452));
#1453=CARTESIAN_POINT('Origin',(3.13333328862986,-7.29999999999993,2.96969656323787));
#1454=CARTESIAN_POINT('',(3.99999995529652,-16.2916666666665,3.83636322990452));
#1455=CARTESIAN_POINT('Origin',(-8.99999994784584,-16.6166666666665,3.61969656323786));
#1456=CARTESIAN_POINT('',(-4.78277802809024,-16.3999999999999,3.40302989657119));
#1457=CARTESIAN_POINT('Origin',(-5.53333337803675,-15.9666666666665,2.96969656323786));
#1458=CARTESIAN_POINT('',(-8.99999994784584,-16.3999999999999,3.40302989657119));
#1459=CARTESIAN_POINT('Origin',(3.13333328862986,-7.29999999999993,4.91969656323785));
#1460=CARTESIAN_POINT('',(3.74615916565819,-6.68717412297159,6.2568706862095));
#1461=CARTESIAN_POINT('Origin',(3.13333328862986,-7.29999999999993,6.86969656323783));
#1462=CARTESIAN_POINT('',(3.99999995529652,-7.29999999999993,6.00302989657117));
#1463=CARTESIAN_POINT('Origin',(3.13333328862986,-7.29999999999993,6.86969656323783));
#1464=CARTESIAN_POINT('',(3.99999995529652,-7.29999999999993,4.91969656323785));
#1465=CARTESIAN_POINT('Origin',(-5.53333337803675,-15.5333333333332,1.39886322990454));
#1466=CARTESIAN_POINT('',(-4.92050750100841,-14.9205074563049,-0.100810893067106));
#1467=CARTESIAN_POINT('',(-5.53333337803675,-14.6666666666665,0.153029896571218));
#1468=CARTESIAN_POINT('Origin',(-5.53333337803675,-15.5333333333332,-0.713636770095442));
#1469=CARTESIAN_POINT('',(-5.53333337803675,-14.6666666666665,3.83636322990452));
#1470=CARTESIAN_POINT('',(-5.53333337803675,-14.6666666666665,1.39886322990454));
#1471=CARTESIAN_POINT('',(-4.78277802809024,-15.0999999999999,3.40302989657119));
#1472=CARTESIAN_POINT('Origin',(-5.53333337803675,-15.5333333333332,2.96969656323786));
#1473=CARTESIAN_POINT('',(-4.66666671137008,-15.5333333333332,3.40302989657119));
#1474=CARTESIAN_POINT('Origin',(-5.53333337803675,-15.5333333333332,3.40302989657119));
#1475=CARTESIAN_POINT('',(-4.66666671137008,-15.5333333333332,0.153029896571218));
#1476=CARTESIAN_POINT('',(-4.66666671137008,-15.5333333333332,1.39886322990454));
#1477=CARTESIAN_POINT('Origin',(-5.53333337803675,-15.5333333333332,-0.713636770095442));
#1478=CARTESIAN_POINT('Origin',(-17.6666664207973,-14.8833333333332,-0.0636367700954468));
#1479=CARTESIAN_POINT('',(-5.10000004470342,-15.0999999999999,-0.280303436762112));
#1480=CARTESIAN_POINT('',(-4.66666671137008,-14.6666666666665,0.153029896571218));
#1481=CARTESIAN_POINT('',(-21.5666663239398,-15.0999999999999,-0.280303436762112));
#1482=CARTESIAN_POINT('',(-17.6666664207973,-15.0999999999999,-0.280303436762112));
#1483=CARTESIAN_POINT('',(-21.7461588676348,-14.9205074563049,-0.100810893067105));
#1484=CARTESIAN_POINT('',(-21.5666663239398,-15.0999999999999,-0.280303436762112));
#1485=CARTESIAN_POINT('',(-21.1333329906064,-14.6666666666665,0.153029896571218));
#1486=CARTESIAN_POINT('Origin',(-21.1333329906064,-15.5333333333332,-0.713636770095442));
#1487=CARTESIAN_POINT('',(-17.6666664207973,-14.6666666666665,0.153029896571218));
#1488=CARTESIAN_POINT('Origin',(-4.88333337803675,-14.6666666666665,-0.063636770095447));
#1489=CARTESIAN_POINT('',(-4.66666671137008,-15.9666666666665,0.153029896571218));
#1490=CARTESIAN_POINT('',(-4.66666671137008,-14.6666666666665,0.153029896571218));
#1491=CARTESIAN_POINT('',(-4.92050750100841,-16.5794925436949,-0.100810893067106));
#1492=CARTESIAN_POINT('Origin',(-5.53333337803675,-15.9666666666665,-0.713636770095442));
#1493=CARTESIAN_POINT('',(-5.10000004470342,-16.3999999999999,-0.280303436762112));
#1494=CARTESIAN_POINT('',(-4.66666671137008,-16.8333333333332,0.153029896571218));
#1495=CARTESIAN_POINT('',(-5.10000004470342,-14.6666666666665,-0.280303436762112));
#1496=CARTESIAN_POINT('Origin',(-4.66666671137008,-14.6666666666665,-0.280303436762112));
#1497=CARTESIAN_POINT('',(-4.66666671137008,-15.9666666666665,3.40302989657119));
#1498=CARTESIAN_POINT('',(-4.66666671137008,-15.7499999999999,3.40302989657119));
#1499=CARTESIAN_POINT('',(-4.66666671137008,-15.9666666666665,1.39886322990454));
#1500=CARTESIAN_POINT('Origin',(-5.53333337803675,-15.9666666666665,1.39886322990454));
#1501=CARTESIAN_POINT('Origin',(-5.53333337803675,-15.9666666666665,3.40302989657119));
#1502=CARTESIAN_POINT('Origin',(-5.53333337803675,-15.9666666666665,-0.713636770095442));
#1503=CARTESIAN_POINT('Origin',(-17.6666664207973,-16.6166666666665,-0.0636367700954468));
#1504=CARTESIAN_POINT('',(-21.7461588676348,-16.5794925436949,-0.100810893067105));
#1505=CARTESIAN_POINT('Origin',(-21.1333329906064,-15.9666666666665,-0.713636770095442));
#1506=CARTESIAN_POINT('',(-21.5666663239398,-16.3999999999999,-0.280303436762112));
#1507=CARTESIAN_POINT('',(-21.5666663239398,-16.3999999999999,-0.280303436762112));
#1508=CARTESIAN_POINT('',(-17.6666664207973,-16.3999999999999,-0.280303436762112));
#1509=CARTESIAN_POINT('Origin',(-21.1333329906064,-15.9666666666665,4.75719656323785));
#1510=CARTESIAN_POINT('',(-21.8838883405529,-16.3999999999999,3.40302989657119));
#1511=CARTESIAN_POINT('Origin',(-21.1333329906064,-15.9666666666665,2.96969656323786));
#1512=CARTESIAN_POINT('',(-21.9999996572731,-15.9666666666665,3.40302989657119));
#1513=CARTESIAN_POINT('Origin',(-21.1333329906064,-15.9666666666665,3.40302989657119));
#1514=CARTESIAN_POINT('',(-21.9999996572731,-15.9666666666665,0.153029896571218));
#1515=CARTESIAN_POINT('',(-21.9999996572731,-15.9666666666665,4.75719656323785));
#1516=CARTESIAN_POINT('Origin',(-21.1333329906064,-15.9666666666665,-0.713636770095442));
#1517=CARTESIAN_POINT('Origin',(-21.7833329906064,-14.6666666666665,-0.0636367700954468));
#1518=CARTESIAN_POINT('',(-21.9999996572731,-15.5333333333332,0.153029896571218));
#1519=CARTESIAN_POINT('',(-21.9999996572731,-14.6666666666665,0.153029896571218));
#1520=CARTESIAN_POINT('Origin',(-21.1333329906064,-15.5333333333332,-0.713636770095442));
#1521=CARTESIAN_POINT('',(-21.5666663239398,-14.6666666666665,-0.280303436762112));
#1522=CARTESIAN_POINT('Origin',(-21.9999996572731,-14.6666666666665,6.4363632299045));
#1523=CARTESIAN_POINT('',(-21.9999996572731,-15.5333333333332,3.40302989657119));
#1524=CARTESIAN_POINT('',(-21.9999996572731,-14.6666666666665,3.40302989657119));
#1525=CARTESIAN_POINT('',(-21.9999996572731,-15.5333333333332,4.75719656323785));
#1526=CARTESIAN_POINT('Origin',(-21.1333329906064,-15.5333333333332,4.75719656323785));
#1527=CARTESIAN_POINT('',(-21.8838883405529,-15.0999999999999,3.40302989657119));
#1528=CARTESIAN_POINT('Origin',(-21.1333329906064,-15.5333333333332,3.40302989657119));
#1529=CARTESIAN_POINT('',(-21.1333329906064,-14.6666666666665,3.83636322990452));
#1530=CARTESIAN_POINT('Origin',(-21.1333329906064,-15.5333333333332,2.96969656323786));
#1531=CARTESIAN_POINT('',(-21.1333329906064,-14.6666666666665,4.75719656323785));
#1532=CARTESIAN_POINT('Origin',(-13.3333331843216,-14.6666666666665,3.0780298965712));
#1533=CARTESIAN_POINT('',(-15.4999998025595,-14.6666666666665,3.83636322990452));
#1534=CARTESIAN_POINT('',(-22.4333329906064,-14.6666666666665,6.00302989657117));
#1535=CARTESIAN_POINT('',(-22.4333329906064,-14.6666666666665,4.75719656323785));
#1536=CARTESIAN_POINT('',(-4.23333337803676,-14.6666666666665,6.00302989657117));
#1537=CARTESIAN_POINT('',(-8.99999994784584,-14.6666666666665,6.00302989657117));
#1538=CARTESIAN_POINT('',(-4.23333337803676,-14.6666666666665,3.2405298965712));
#1539=CARTESIAN_POINT('',(-11.1666665660837,-14.6666666666665,3.83636322990452));
#1540=CARTESIAN_POINT('',(-12.5749236743723,-14.6666666666665,3.07802989657119));
#1541=CARTESIAN_POINT('Origin',(-10.191590341039,-14.6666666666665,3.0780298965712));
#1542=CARTESIAN_POINT('',(-18.8582570077056,-14.6666666666665,3.07802989657119));
#1543=CARTESIAN_POINT('Origin',(-16.4749236743722,-14.6666666666665,3.0780298965712));
#1544=CARTESIAN_POINT('Origin',(-21.9999996572731,-14.6666666666665,-0.280303436762112));
#1545=CARTESIAN_POINT('Origin',(-17.6666664207973,-14.8833333333332,3.61969656323786));
#1546=CARTESIAN_POINT('',(-17.6666664207973,-15.0999999999999,3.40302989657119));
#1547=CARTESIAN_POINT('Origin',(-17.6666664207973,-16.6166666666665,3.61969656323786));
#1548=CARTESIAN_POINT('',(-30.2333329906064,-16.3999999999999,3.40302989657119));
#1549=CARTESIAN_POINT('',(-30.6666663239397,-16.8333333333332,3.83636322990452));
#1550=CARTESIAN_POINT('',(-17.6666664207973,-16.3999999999999,3.40302989657119));
#1551=CARTESIAN_POINT('Origin',(-30.449999657273,-15.2083333333332,3.61969656323786));
#1552=CARTESIAN_POINT('',(-30.2333329906064,-15.2083333333332,3.40302989657119));
#1553=CARTESIAN_POINT('',(-30.6666663239397,-15.2083333333332,3.83636322990452));
#1554=CARTESIAN_POINT('Origin',(-22.4333329906064,-14.6666666666665,6.4363632299045));
#1555=CARTESIAN_POINT('',(-22.4333329906064,-14.6666666666665,6.00302989657117));
#1556=CARTESIAN_POINT('Origin',(-30.6666663239397,-15.7499999999999,4.91969656323785));
#1557=CARTESIAN_POINT('Origin',(-8.99999994784584,-14.8833333333332,3.61969656323786));
#1558=CARTESIAN_POINT('',(-8.99999994784584,-15.0999999999999,3.40302989657119));
#1559=CARTESIAN_POINT('Origin',(3.99999995529652,-15.7499999999999,4.91969656323785));
#1560=CARTESIAN_POINT('',(3.99999995529652,-15.2083333333332,6.00302989657117));
#1561=CARTESIAN_POINT('Origin',(-4.23333337803676,-14.6666666666665,3.40302989657119));
#1562=CARTESIAN_POINT('',(-4.23333337803676,-14.6666666666665,6.00302989657117));
#1563=CARTESIAN_POINT('Origin',(-8.99999994784584,-14.8833333333332,6.21969656323784));
#1564=CARTESIAN_POINT('',(-22.8666663239398,-15.0999999999999,6.4363632299045));
#1565=CARTESIAN_POINT('',(-22.4333329906064,-14.6666666666665,6.00302989657117));
#1566=CARTESIAN_POINT('',(-3.80000004470342,-15.0999999999999,6.4363632299045));
#1567=CARTESIAN_POINT('',(-8.99999994784584,-15.0999999999999,6.4363632299045));
#1568=CARTESIAN_POINT('',(-3.80000004470342,-15.0999999999999,6.4363632299045));
#1569=CARTESIAN_POINT('Origin',(-22.6499996572731,-14.6666666666665,6.21969656323784));
#1570=CARTESIAN_POINT('',(-22.8666663239398,-14.6666666666665,6.4363632299045));
#1571=CARTESIAN_POINT('Origin',(3.78333328862985,-15.2083333333332,6.21969656323784));
#1572=CARTESIAN_POINT('',(3.56666662196318,-6.8666666666666,6.4363632299045));
#1573=CARTESIAN_POINT('',(3.99999995529651,-6.43333333333327,6.00302989657117));
#1574=CARTESIAN_POINT('',(3.56666662196318,-15.2083333333332,6.4363632299045));
#1575=CARTESIAN_POINT('Origin',(-4.01666671137009,-14.6666666666665,6.21969656323784));
#1576=CARTESIAN_POINT('',(-3.80000004470342,-6.8666666666666,6.4363632299045));
#1577=CARTESIAN_POINT('',(-3.80000004470342,-14.6666666666665,6.4363632299045));
#1578=CARTESIAN_POINT('',(-3.80000004470342,-6.8666666666666,6.4363632299045));
#1579=CARTESIAN_POINT('Origin',(-2.3916667113701,-6.64999999999994,6.21969656323784));
#1580=CARTESIAN_POINT('',(-2.3916667113701,-6.8666666666666,6.4363632299045));
#1581=CARTESIAN_POINT('Origin',(-4.66666671137008,-14.6666666666665,6.4363632299045));
#1582=CARTESIAN_POINT('Origin',(-21.9999996572731,-14.6666666666665,3.40302989657119));
#1583=CARTESIAN_POINT('Origin',(-4.66666671137008,-16.8333333333332,3.40302989657119));
#1584=CARTESIAN_POINT('Origin',(-16.4749236743722,-14.6666666666665,3.0780298965712));
#1585=CARTESIAN_POINT('',(-18.8582570077056,-12.9333333333332,3.07802989657119));
#1586=CARTESIAN_POINT('Origin',(-16.4749236743722,-12.9333333333332,3.0780298965712));
#1587=CARTESIAN_POINT('',(-18.8582570077056,-14.6666666666665,3.0780298965712));
#1588=CARTESIAN_POINT('Origin',(-16.4749236743722,-12.9333333333332,3.0780298965712));
#1589=CARTESIAN_POINT('Origin',(-10.191590341039,-14.6666666666665,3.0780298965712));
#1590=CARTESIAN_POINT('',(-12.5749236743723,-12.9333333333332,3.07802989657119));
#1591=CARTESIAN_POINT('Origin',(-10.191590341039,-12.9333333333332,3.0780298965712));
#1592=CARTESIAN_POINT('',(-12.5749236743723,-14.6666666666665,3.0780298965712));
#1593=CARTESIAN_POINT('Origin',(-10.191590341039,-12.9333333333332,3.0780298965712));
#1594=UNCERTAINTY_MEASURE_WITH_UNIT(LENGTH_MEASURE(0.01),#1598,
'DISTANCE_ACCURACY_VALUE',
'Maximum model space distance between geometric entities at asserted c
onnectivities');
#1595=UNCERTAINTY_MEASURE_WITH_UNIT(LENGTH_MEASURE(0.01),#1598,
'DISTANCE_ACCURACY_VALUE',
'Maximum model space distance between geometric entities at asserted c
onnectivities');
#1596=(
GEOMETRIC_REPRESENTATION_CONTEXT(3)
GLOBAL_UNCERTAINTY_ASSIGNED_CONTEXT((#1594))
GLOBAL_UNIT_ASSIGNED_CONTEXT((#1598,#1600,#1601))
REPRESENTATION_CONTEXT('','3D')
);
#1597=(
GEOMETRIC_REPRESENTATION_CONTEXT(3)
GLOBAL_UNCERTAINTY_ASSIGNED_CONTEXT((#1595))
GLOBAL_UNIT_ASSIGNED_CONTEXT((#1598,#1600,#1601))
REPRESENTATION_CONTEXT('','3D')
);
#1598=(
LENGTH_UNIT()
NAMED_UNIT(*)
SI_UNIT(.MILLI.,.METRE.)
);
#1599=(
LENGTH_UNIT()
NAMED_UNIT(*)
SI_UNIT($,.METRE.)
);
#1600=(
NAMED_UNIT(*)
PLANE_ANGLE_UNIT()
SI_UNIT($,.RADIAN.)
);
#1601=(
NAMED_UNIT(*)
SI_UNIT($,.STERADIAN.)
SOLID_ANGLE_UNIT()
);
#1602=SHAPE_DEFINITION_REPRESENTATION(#1603,#1604);
#1603=PRODUCT_DEFINITION_SHAPE('',$,#1606);
#1604=SHAPE_REPRESENTATION('',(#946),#1596);
#1605=PRODUCT_DEFINITION_CONTEXT('part definition',#1610,'design');
#1606=PRODUCT_DEFINITION('2026-06-20-17-14-29-524','FusionComponent',#1607,
#1605);
#1607=PRODUCT_DEFINITION_FORMATION('',$,#1612);
#1608=PRODUCT_RELATED_PRODUCT_CATEGORY('FusionComponent',
'FusionComponent',(#1612));
#1609=APPLICATION_PROTOCOL_DEFINITION('international standard',
'automotive_design',2009,#1610);
#1610=APPLICATION_CONTEXT(
'Core Data for Automotive Mechanical Design Process');
#1611=PRODUCT_CONTEXT('part definition',#1610,'mechanical');
#1612=PRODUCT('2026-06-20-17-14-29-524','FusionComponent',$,(#1611));
#1613=PRESENTATION_STYLE_ASSIGNMENT((#1614));
#1614=SURFACE_STYLE_USAGE(.BOTH.,#1615);
#1615=SURFACE_SIDE_STYLE('',(#1616));
#1616=SURFACE_STYLE_FILL_AREA(#1617);
#1617=FILL_AREA_STYLE('Steel - Satin',(#1618));
#1618=FILL_AREA_STYLE_COLOUR('Steel - Satin',#1619);
#1619=COLOUR_RGB('Steel - Satin',0.627450980392157,0.627450980392157,0.627450980392157);
ENDSEC;
END-ISO-10303-21;
