ISO-10303-21;
HEADER;
/* Generated by software containing ST-Developer
 * from STEP Tools, Inc. (www.steptools.com) 
 */

FILE_DESCRIPTION(
/* description */ (''),
/* implementation_level */ '2;1');

FILE_NAME(
/* name */ 'FSR Wire Holder x3.step',
/* time_stamp */ '2026-06-20T16:42:16-05:00',
/* author */ (''),
/* organization */ (''),
/* preprocessor_version */ 'ST-DEVELOPER v20.1',
/* originating_system */ 'Autodesk Translation Framework v15.8.0.0',
/* authorisation */ '');

FILE_SCHEMA (('AUTOMOTIVE_DESIGN { 1 0 10303 214 3 1 1 }'));
ENDSEC;

DATA;
#10=MECHANICAL_DESIGN_GEOMETRIC_PRESENTATION_REPRESENTATION('',(#13),#595);
#11=SHAPE_REPRESENTATION_RELATIONSHIP('SRR','None',#602,#12);
#12=ADVANCED_BREP_SHAPE_REPRESENTATION('',(#14),#594);
#13=STYLED_ITEM('',(#611),#14);
#14=MANIFOLD_SOLID_BREP('Body1',#343);
#15=CYLINDRICAL_SURFACE('',#366,0.5);
#16=CYLINDRICAL_SURFACE('',#369,0.5);
#17=CYLINDRICAL_SURFACE('',#371,0.5);
#18=CYLINDRICAL_SURFACE('',#374,0.5);
#19=CYLINDRICAL_SURFACE('',#376,2.5);
#20=CYLINDRICAL_SURFACE('',#379,2.5);
#21=CYLINDRICAL_SURFACE('',#381,1.);
#22=CYLINDRICAL_SURFACE('',#384,1.);
#23=FACE_OUTER_BOUND('',#41,.T.);
#24=FACE_OUTER_BOUND('',#42,.T.);
#25=FACE_OUTER_BOUND('',#43,.T.);
#26=FACE_OUTER_BOUND('',#44,.T.);
#27=FACE_OUTER_BOUND('',#45,.T.);
#28=FACE_OUTER_BOUND('',#46,.T.);
#29=FACE_OUTER_BOUND('',#47,.T.);
#30=FACE_OUTER_BOUND('',#48,.T.);
#31=FACE_OUTER_BOUND('',#49,.T.);
#32=FACE_OUTER_BOUND('',#50,.T.);
#33=FACE_OUTER_BOUND('',#51,.T.);
#34=FACE_OUTER_BOUND('',#52,.T.);
#35=FACE_OUTER_BOUND('',#53,.T.);
#36=FACE_OUTER_BOUND('',#54,.T.);
#37=FACE_OUTER_BOUND('',#55,.T.);
#38=FACE_OUTER_BOUND('',#56,.T.);
#39=FACE_OUTER_BOUND('',#57,.T.);
#40=FACE_OUTER_BOUND('',#58,.T.);
#41=EDGE_LOOP('',(#219,#220,#221,#222,#223,#224,#225,#226,#227,#228,#229,
#230,#231,#232,#233,#234));
#42=EDGE_LOOP('',(#235,#236,#237,#238));
#43=EDGE_LOOP('',(#239,#240,#241,#242));
#44=EDGE_LOOP('',(#243,#244,#245,#246));
#45=EDGE_LOOP('',(#247,#248,#249,#250));
#46=EDGE_LOOP('',(#251,#252,#253,#254));
#47=EDGE_LOOP('',(#255,#256,#257,#258));
#48=EDGE_LOOP('',(#259,#260,#261,#262));
#49=EDGE_LOOP('',(#263,#264,#265,#266));
#50=EDGE_LOOP('',(#267,#268,#269,#270));
#51=EDGE_LOOP('',(#271,#272,#273,#274));
#52=EDGE_LOOP('',(#275,#276,#277,#278));
#53=EDGE_LOOP('',(#279,#280,#281,#282));
#54=EDGE_LOOP('',(#283,#284,#285,#286));
#55=EDGE_LOOP('',(#287,#288,#289,#290));
#56=EDGE_LOOP('',(#291,#292,#293,#294));
#57=EDGE_LOOP('',(#295,#296,#297,#298,#299,#300,#301,#302,#303,#304,#305,
#306,#307,#308,#309,#310));
#58=EDGE_LOOP('',(#311,#312,#313,#314));
#59=LINE('',#499,#91);
#60=LINE('',#503,#92);
#61=LINE('',#507,#93);
#62=LINE('',#511,#94);
#63=LINE('',#515,#95);
#64=LINE('',#519,#96);
#65=LINE('',#523,#97);
#66=LINE('',#526,#98);
#67=LINE('',#531,#99);
#68=LINE('',#532,#100);
#69=LINE('',#535,#101);
#70=LINE('',#536,#102);
#71=LINE('',#540,#103);
#72=LINE('',#545,#104);
#73=LINE('',#546,#105);
#74=LINE('',#549,#106);
#75=LINE('',#550,#107);
#76=LINE('',#554,#108);
#77=LINE('',#557,#109);
#78=LINE('',#560,#110);
#79=LINE('',#563,#111);
#80=LINE('',#564,#112);
#81=LINE('',#568,#113);
#82=LINE('',#573,#114);
#83=LINE('',#574,#115);
#84=LINE('',#577,#116);
#85=LINE('',#578,#117);
#86=LINE('',#582,#118);
#87=LINE('',#584,#119);
#88=LINE('',#586,#120);
#89=LINE('',#588,#121);
#90=LINE('',#590,#122);
#91=VECTOR('',#397,10.);
#92=VECTOR('',#400,10.);
#93=VECTOR('',#403,10.);
#94=VECTOR('',#406,10.);
#95=VECTOR('',#409,10.);
#96=VECTOR('',#412,10.);
#97=VECTOR('',#415,10.);
#98=VECTOR('',#418,10.);
#99=VECTOR('',#423,10.);
#100=VECTOR('',#424,10.);
#101=VECTOR('',#427,10.);
#102=VECTOR('',#428,10.);
#103=VECTOR('',#433,10.);
#104=VECTOR('',#438,10.);
#105=VECTOR('',#439,10.);
#106=VECTOR('',#442,10.);
#107=VECTOR('',#443,10.);
#108=VECTOR('',#448,10.);
#109=VECTOR('',#451,10.);
#110=VECTOR('',#454,10.);
#111=VECTOR('',#457,10.);
#112=VECTOR('',#458,10.);
#113=VECTOR('',#463,10.);
#114=VECTOR('',#468,10.);
#115=VECTOR('',#469,10.);
#116=VECTOR('',#472,10.);
#117=VECTOR('',#473,10.);
#118=VECTOR('',#478,10.);
#119=VECTOR('',#481,10.);
#120=VECTOR('',#484,10.);
#121=VECTOR('',#487,10.);
#122=VECTOR('',#490,10.);
#123=CIRCLE('',#358,0.5);
#124=CIRCLE('',#359,0.5);
#125=CIRCLE('',#360,1.);
#126=CIRCLE('',#361,1.);
#127=CIRCLE('',#362,0.5);
#128=CIRCLE('',#363,0.5);
#129=CIRCLE('',#364,2.5);
#130=CIRCLE('',#365,2.5);
#131=CIRCLE('',#367,0.5);
#132=CIRCLE('',#370,0.5);
#133=CIRCLE('',#372,0.5);
#134=CIRCLE('',#375,0.5);
#135=CIRCLE('',#377,2.5);
#136=CIRCLE('',#380,2.5);
#137=CIRCLE('',#382,1.);
#138=CIRCLE('',#385,1.);
#139=VERTEX_POINT('',#495);
#140=VERTEX_POINT('',#496);
#141=VERTEX_POINT('',#498);
#142=VERTEX_POINT('',#500);
#143=VERTEX_POINT('',#502);
#144=VERTEX_POINT('',#504);
#145=VERTEX_POINT('',#506);
#146=VERTEX_POINT('',#508);
#147=VERTEX_POINT('',#510);
#148=VERTEX_POINT('',#512);
#149=VERTEX_POINT('',#514);
#150=VERTEX_POINT('',#516);
#151=VERTEX_POINT('',#518);
#152=VERTEX_POINT('',#520);
#153=VERTEX_POINT('',#522);
#154=VERTEX_POINT('',#524);
#155=VERTEX_POINT('',#528);
#156=VERTEX_POINT('',#529);
#157=VERTEX_POINT('',#534);
#158=VERTEX_POINT('',#538);
#159=VERTEX_POINT('',#542);
#160=VERTEX_POINT('',#543);
#161=VERTEX_POINT('',#548);
#162=VERTEX_POINT('',#552);
#163=VERTEX_POINT('',#556);
#164=VERTEX_POINT('',#558);
#165=VERTEX_POINT('',#562);
#166=VERTEX_POINT('',#566);
#167=VERTEX_POINT('',#570);
#168=VERTEX_POINT('',#571);
#169=VERTEX_POINT('',#576);
#170=VERTEX_POINT('',#580);
#171=EDGE_CURVE('',#139,#140,#123,.T.);
#172=EDGE_CURVE('',#140,#141,#59,.T.);
#173=EDGE_CURVE('',#141,#142,#124,.T.);
#174=EDGE_CURVE('',#142,#143,#60,.T.);
#175=EDGE_CURVE('',#143,#144,#125,.T.);
#176=EDGE_CURVE('',#144,#145,#61,.T.);
#177=EDGE_CURVE('',#145,#146,#126,.T.);
#178=EDGE_CURVE('',#146,#147,#62,.T.);
#179=EDGE_CURVE('',#147,#148,#127,.T.);
#180=EDGE_CURVE('',#148,#149,#63,.T.);
#181=EDGE_CURVE('',#149,#150,#128,.T.);
#182=EDGE_CURVE('',#150,#151,#64,.T.);
#183=EDGE_CURVE('',#151,#152,#129,.T.);
#184=EDGE_CURVE('',#152,#153,#65,.T.);
#185=EDGE_CURVE('',#153,#154,#130,.T.);
#186=EDGE_CURVE('',#154,#139,#66,.T.);
#187=EDGE_CURVE('',#155,#156,#131,.T.);
#188=EDGE_CURVE('',#156,#140,#67,.T.);
#189=EDGE_CURVE('',#139,#155,#68,.T.);
#190=EDGE_CURVE('',#156,#157,#69,.T.);
#191=EDGE_CURVE('',#157,#141,#70,.T.);
#192=EDGE_CURVE('',#157,#158,#132,.T.);
#193=EDGE_CURVE('',#158,#142,#71,.T.);
#194=EDGE_CURVE('',#159,#160,#133,.T.);
#195=EDGE_CURVE('',#160,#148,#72,.T.);
#196=EDGE_CURVE('',#147,#159,#73,.T.);
#197=EDGE_CURVE('',#160,#161,#74,.T.);
#198=EDGE_CURVE('',#161,#149,#75,.T.);
#199=EDGE_CURVE('',#161,#162,#134,.T.);
#200=EDGE_CURVE('',#162,#150,#76,.T.);
#201=EDGE_CURVE('',#163,#153,#77,.T.);
#202=EDGE_CURVE('',#163,#164,#135,.T.);
#203=EDGE_CURVE('',#164,#154,#78,.T.);
#204=EDGE_CURVE('',#165,#152,#79,.T.);
#205=EDGE_CURVE('',#165,#163,#80,.T.);
#206=EDGE_CURVE('',#166,#165,#136,.T.);
#207=EDGE_CURVE('',#151,#166,#81,.T.);
#208=EDGE_CURVE('',#167,#168,#137,.T.);
#209=EDGE_CURVE('',#168,#144,#82,.T.);
#210=EDGE_CURVE('',#143,#167,#83,.T.);
#211=EDGE_CURVE('',#169,#168,#84,.T.);
#212=EDGE_CURVE('',#145,#169,#85,.T.);
#213=EDGE_CURVE('',#169,#170,#138,.T.);
#214=EDGE_CURVE('',#170,#146,#86,.T.);
#215=EDGE_CURVE('',#162,#166,#87,.T.);
#216=EDGE_CURVE('',#159,#170,#88,.T.);
#217=EDGE_CURVE('',#167,#158,#89,.T.);
#218=EDGE_CURVE('',#155,#164,#90,.T.);
#219=ORIENTED_EDGE('',*,*,#171,.T.);
#220=ORIENTED_EDGE('',*,*,#172,.T.);
#221=ORIENTED_EDGE('',*,*,#173,.T.);
#222=ORIENTED_EDGE('',*,*,#174,.T.);
#223=ORIENTED_EDGE('',*,*,#175,.T.);
#224=ORIENTED_EDGE('',*,*,#176,.T.);
#225=ORIENTED_EDGE('',*,*,#177,.T.);
#226=ORIENTED_EDGE('',*,*,#178,.T.);
#227=ORIENTED_EDGE('',*,*,#179,.T.);
#228=ORIENTED_EDGE('',*,*,#180,.T.);
#229=ORIENTED_EDGE('',*,*,#181,.T.);
#230=ORIENTED_EDGE('',*,*,#182,.T.);
#231=ORIENTED_EDGE('',*,*,#183,.T.);
#232=ORIENTED_EDGE('',*,*,#184,.T.);
#233=ORIENTED_EDGE('',*,*,#185,.T.);
#234=ORIENTED_EDGE('',*,*,#186,.T.);
#235=ORIENTED_EDGE('',*,*,#187,.T.);
#236=ORIENTED_EDGE('',*,*,#188,.T.);
#237=ORIENTED_EDGE('',*,*,#171,.F.);
#238=ORIENTED_EDGE('',*,*,#189,.T.);
#239=ORIENTED_EDGE('',*,*,#188,.F.);
#240=ORIENTED_EDGE('',*,*,#190,.T.);
#241=ORIENTED_EDGE('',*,*,#191,.T.);
#242=ORIENTED_EDGE('',*,*,#172,.F.);
#243=ORIENTED_EDGE('',*,*,#191,.F.);
#244=ORIENTED_EDGE('',*,*,#192,.T.);
#245=ORIENTED_EDGE('',*,*,#193,.T.);
#246=ORIENTED_EDGE('',*,*,#173,.F.);
#247=ORIENTED_EDGE('',*,*,#194,.T.);
#248=ORIENTED_EDGE('',*,*,#195,.T.);
#249=ORIENTED_EDGE('',*,*,#179,.F.);
#250=ORIENTED_EDGE('',*,*,#196,.T.);
#251=ORIENTED_EDGE('',*,*,#195,.F.);
#252=ORIENTED_EDGE('',*,*,#197,.T.);
#253=ORIENTED_EDGE('',*,*,#198,.T.);
#254=ORIENTED_EDGE('',*,*,#180,.F.);
#255=ORIENTED_EDGE('',*,*,#198,.F.);
#256=ORIENTED_EDGE('',*,*,#199,.T.);
#257=ORIENTED_EDGE('',*,*,#200,.T.);
#258=ORIENTED_EDGE('',*,*,#181,.F.);
#259=ORIENTED_EDGE('',*,*,#201,.F.);
#260=ORIENTED_EDGE('',*,*,#202,.T.);
#261=ORIENTED_EDGE('',*,*,#203,.T.);
#262=ORIENTED_EDGE('',*,*,#185,.F.);
#263=ORIENTED_EDGE('',*,*,#201,.T.);
#264=ORIENTED_EDGE('',*,*,#184,.F.);
#265=ORIENTED_EDGE('',*,*,#204,.F.);
#266=ORIENTED_EDGE('',*,*,#205,.T.);
#267=ORIENTED_EDGE('',*,*,#206,.T.);
#268=ORIENTED_EDGE('',*,*,#204,.T.);
#269=ORIENTED_EDGE('',*,*,#183,.F.);
#270=ORIENTED_EDGE('',*,*,#207,.T.);
#271=ORIENTED_EDGE('',*,*,#208,.T.);
#272=ORIENTED_EDGE('',*,*,#209,.T.);
#273=ORIENTED_EDGE('',*,*,#175,.F.);
#274=ORIENTED_EDGE('',*,*,#210,.T.);
#275=ORIENTED_EDGE('',*,*,#209,.F.);
#276=ORIENTED_EDGE('',*,*,#211,.F.);
#277=ORIENTED_EDGE('',*,*,#212,.F.);
#278=ORIENTED_EDGE('',*,*,#176,.F.);
#279=ORIENTED_EDGE('',*,*,#212,.T.);
#280=ORIENTED_EDGE('',*,*,#213,.T.);
#281=ORIENTED_EDGE('',*,*,#214,.T.);
#282=ORIENTED_EDGE('',*,*,#177,.F.);
#283=ORIENTED_EDGE('',*,*,#200,.F.);
#284=ORIENTED_EDGE('',*,*,#215,.T.);
#285=ORIENTED_EDGE('',*,*,#207,.F.);
#286=ORIENTED_EDGE('',*,*,#182,.F.);
#287=ORIENTED_EDGE('',*,*,#196,.F.);
#288=ORIENTED_EDGE('',*,*,#178,.F.);
#289=ORIENTED_EDGE('',*,*,#214,.F.);
#290=ORIENTED_EDGE('',*,*,#216,.F.);
#291=ORIENTED_EDGE('',*,*,#193,.F.);
#292=ORIENTED_EDGE('',*,*,#217,.F.);
#293=ORIENTED_EDGE('',*,*,#210,.F.);
#294=ORIENTED_EDGE('',*,*,#174,.F.);
#295=ORIENTED_EDGE('',*,*,#187,.F.);
#296=ORIENTED_EDGE('',*,*,#218,.T.);
#297=ORIENTED_EDGE('',*,*,#202,.F.);
#298=ORIENTED_EDGE('',*,*,#205,.F.);
#299=ORIENTED_EDGE('',*,*,#206,.F.);
#300=ORIENTED_EDGE('',*,*,#215,.F.);
#301=ORIENTED_EDGE('',*,*,#199,.F.);
#302=ORIENTED_EDGE('',*,*,#197,.F.);
#303=ORIENTED_EDGE('',*,*,#194,.F.);
#304=ORIENTED_EDGE('',*,*,#216,.T.);
#305=ORIENTED_EDGE('',*,*,#213,.F.);
#306=ORIENTED_EDGE('',*,*,#211,.T.);
#307=ORIENTED_EDGE('',*,*,#208,.F.);
#308=ORIENTED_EDGE('',*,*,#217,.T.);
#309=ORIENTED_EDGE('',*,*,#192,.F.);
#310=ORIENTED_EDGE('',*,*,#190,.F.);
#311=ORIENTED_EDGE('',*,*,#189,.F.);
#312=ORIENTED_EDGE('',*,*,#186,.F.);
#313=ORIENTED_EDGE('',*,*,#203,.F.);
#314=ORIENTED_EDGE('',*,*,#218,.F.);
#315=PLANE('',#357);
#316=PLANE('',#368);
#317=PLANE('',#373);
#318=PLANE('',#378);
#319=PLANE('',#383);
#320=PLANE('',#386);
#321=PLANE('',#387);
#322=PLANE('',#388);
#323=PLANE('',#389);
#324=PLANE('',#390);
#325=ADVANCED_FACE('',(#23),#315,.T.);
#326=ADVANCED_FACE('',(#24),#15,.T.);
#327=ADVANCED_FACE('',(#25),#316,.T.);
#328=ADVANCED_FACE('',(#26),#16,.T.);
#329=ADVANCED_FACE('',(#27),#17,.T.);
#330=ADVANCED_FACE('',(#28),#317,.T.);
#331=ADVANCED_FACE('',(#29),#18,.T.);
#332=ADVANCED_FACE('',(#30),#19,.T.);
#333=ADVANCED_FACE('',(#31),#318,.T.);
#334=ADVANCED_FACE('',(#32),#20,.T.);
#335=ADVANCED_FACE('',(#33),#21,.F.);
#336=ADVANCED_FACE('',(#34),#319,.F.);
#337=ADVANCED_FACE('',(#35),#22,.F.);
#338=ADVANCED_FACE('',(#36),#320,.T.);
#339=ADVANCED_FACE('',(#37),#321,.T.);
#340=ADVANCED_FACE('',(#38),#322,.T.);
#341=ADVANCED_FACE('',(#39),#323,.T.);
#342=ADVANCED_FACE('',(#40),#324,.T.);
#343=CLOSED_SHELL('',(#325,#326,#327,#328,#329,#330,#331,#332,#333,#334,
#335,#336,#337,#338,#339,#340,#341,#342));
#344=DERIVED_UNIT_ELEMENT(#346,1.);
#345=DERIVED_UNIT_ELEMENT(#597,-3.);
#346=(
MASS_UNIT()
NAMED_UNIT(*)
SI_UNIT(.KILO.,.GRAM.)
);
#347=DERIVED_UNIT((#344,#345));
#348=MEASURE_REPRESENTATION_ITEM('density measure',
POSITIVE_RATIO_MEASURE(7850.),#347);
#349=PROPERTY_DEFINITION_REPRESENTATION(#354,#351);
#350=PROPERTY_DEFINITION_REPRESENTATION(#355,#352);
#351=REPRESENTATION('material name',(#353),#594);
#352=REPRESENTATION('density',(#348),#594);
#353=DESCRIPTIVE_REPRESENTATION_ITEM('Steel','Steel');
#354=PROPERTY_DEFINITION('material property','material name',#604);
#355=PROPERTY_DEFINITION('material property','density of part',#604);
#356=AXIS2_PLACEMENT_3D('',#493,#391,#392);
#357=AXIS2_PLACEMENT_3D('',#494,#393,#394);
#358=AXIS2_PLACEMENT_3D('',#497,#395,#396);
#359=AXIS2_PLACEMENT_3D('',#501,#398,#399);
#360=AXIS2_PLACEMENT_3D('',#505,#401,#402);
#361=AXIS2_PLACEMENT_3D('',#509,#404,#405);
#362=AXIS2_PLACEMENT_3D('',#513,#407,#408);
#363=AXIS2_PLACEMENT_3D('',#517,#410,#411);
#364=AXIS2_PLACEMENT_3D('',#521,#413,#414);
#365=AXIS2_PLACEMENT_3D('',#525,#416,#417);
#366=AXIS2_PLACEMENT_3D('',#527,#419,#420);
#367=AXIS2_PLACEMENT_3D('',#530,#421,#422);
#368=AXIS2_PLACEMENT_3D('',#533,#425,#426);
#369=AXIS2_PLACEMENT_3D('',#537,#429,#430);
#370=AXIS2_PLACEMENT_3D('',#539,#431,#432);
#371=AXIS2_PLACEMENT_3D('',#541,#434,#435);
#372=AXIS2_PLACEMENT_3D('',#544,#436,#437);
#373=AXIS2_PLACEMENT_3D('',#547,#440,#441);
#374=AXIS2_PLACEMENT_3D('',#551,#444,#445);
#375=AXIS2_PLACEMENT_3D('',#553,#446,#447);
#376=AXIS2_PLACEMENT_3D('',#555,#449,#450);
#377=AXIS2_PLACEMENT_3D('',#559,#452,#453);
#378=AXIS2_PLACEMENT_3D('',#561,#455,#456);
#379=AXIS2_PLACEMENT_3D('',#565,#459,#460);
#380=AXIS2_PLACEMENT_3D('',#567,#461,#462);
#381=AXIS2_PLACEMENT_3D('',#569,#464,#465);
#382=AXIS2_PLACEMENT_3D('',#572,#466,#467);
#383=AXIS2_PLACEMENT_3D('',#575,#470,#471);
#384=AXIS2_PLACEMENT_3D('',#579,#474,#475);
#385=AXIS2_PLACEMENT_3D('',#581,#476,#477);
#386=AXIS2_PLACEMENT_3D('',#583,#479,#480);
#387=AXIS2_PLACEMENT_3D('',#585,#482,#483);
#388=AXIS2_PLACEMENT_3D('',#587,#485,#486);
#389=AXIS2_PLACEMENT_3D('',#589,#488,#489);
#390=AXIS2_PLACEMENT_3D('',#591,#491,#492);
#391=DIRECTION('axis',(0.,0.,1.));
#392=DIRECTION('refdir',(1.,0.,0.));
#393=DIRECTION('center_axis',(1.94173426026943E-16,0.342020143325668,-0.939692620785909));
#394=DIRECTION('ref_axis',(-1.,5.67725117412318E-16,0.));
#395=DIRECTION('center_axis',(1.94173426026943E-16,0.342020143325668,-0.939692620785909));
#396=DIRECTION('ref_axis',(-0.707106781186548,0.664463024388681,0.241844762647957));
#397=DIRECTION('',(1.,-5.67725117412318E-16,-4.93038065763132E-32));
#398=DIRECTION('center_axis',(1.94173426026943E-16,0.342020143325668,-0.939692620785909));
#399=DIRECTION('ref_axis',(0.707106781186543,0.66446302438867,0.241844762648003));
#400=DIRECTION('',(-1.25724706769599E-30,-0.939692620785909,-0.342020143325668));
#401=DIRECTION('center_axis',(-1.94173426026943E-16,-0.342020143325668,
0.939692620785909));
#402=DIRECTION('ref_axis',(-0.707106781186551,-0.664463024388668,-0.241844762647982));
#403=DIRECTION('',(1.,-6.64112229997721E-17,1.82463335590236E-16));
#404=DIRECTION('center_axis',(-1.94173426026943E-16,-0.342020143325668,
0.939692620785909));
#405=DIRECTION('ref_axis',(0.707106781186551,-0.664463024388669,-0.241844762647982));
#406=DIRECTION('',(7.13714801544744E-16,0.939692620785909,0.342020143325668));
#407=DIRECTION('center_axis',(1.94173426026943E-16,0.342020143325668,-0.939692620785909));
#408=DIRECTION('ref_axis',(-0.707106781186548,0.664463024388681,0.241844762647957));
#409=DIRECTION('',(1.,-5.67725117412318E-16,4.93038065763132E-32));
#410=DIRECTION('center_axis',(1.94173426026943E-16,0.342020143325668,-0.939692620785909));
#411=DIRECTION('ref_axis',(0.707106781186543,0.66446302438867,0.241844762648003));
#412=DIRECTION('',(-4.44089209850062E-16,-0.939692620785908,-0.342020143325669));
#413=DIRECTION('center_axis',(1.94173426026943E-16,0.342020143325668,-0.939692620785909));
#414=DIRECTION('ref_axis',(0.707106781186547,-0.664463024388672,-0.241844762647985));
#415=DIRECTION('',(-1.,5.67725117412318E-16,0.));
#416=DIRECTION('center_axis',(1.94173426026943E-16,0.342020143325668,-0.939692620785909));
#417=DIRECTION('ref_axis',(-0.707106781186547,-0.664463024388672,-0.241844762647985));
#418=DIRECTION('',(7.13714801544743E-16,0.939692620785909,0.342020143325668));
#419=DIRECTION('center_axis',(-1.94173426026943E-16,-0.342020143325668,
0.939692620785909));
#420=DIRECTION('ref_axis',(-0.707106781186548,0.664463024388681,0.241844762647957));
#421=DIRECTION('center_axis',(1.94173426026943E-16,0.342020143325668,-0.939692620785909));
#422=DIRECTION('ref_axis',(-0.707106781186548,0.664463024388681,0.241844762647957));
#423=DIRECTION('',(1.94173426026943E-16,0.342020143325668,-0.939692620785909));
#424=DIRECTION('',(-1.94173426026943E-16,-0.342020143325668,0.939692620785909));
#425=DIRECTION('center_axis',(7.13714801544743E-16,0.939692620785909,0.342020143325668));
#426=DIRECTION('ref_axis',(0.,-0.342020143325668,0.939692620785909));
#427=DIRECTION('',(1.,-5.67725117412318E-16,-4.93038065763132E-32));
#428=DIRECTION('',(0.,0.34202014332567,-0.939692620785908));
#429=DIRECTION('center_axis',(1.94173426026943E-16,0.342020143325668,-0.939692620785909));
#430=DIRECTION('ref_axis',(0.707106781186543,0.66446302438867,0.241844762648003));
#431=DIRECTION('center_axis',(1.94173426026943E-16,0.342020143325668,-0.939692620785909));
#432=DIRECTION('ref_axis',(0.707106781186543,0.66446302438867,0.241844762648003));
#433=DIRECTION('',(1.94173426026943E-16,0.342020143325668,-0.939692620785909));
#434=DIRECTION('center_axis',(-1.94173426026943E-16,-0.342020143325668,
0.939692620785909));
#435=DIRECTION('ref_axis',(-0.707106781186548,0.664463024388681,0.241844762647957));
#436=DIRECTION('center_axis',(1.94173426026943E-16,0.342020143325668,-0.939692620785909));
#437=DIRECTION('ref_axis',(-0.707106781186548,0.664463024388681,0.241844762647957));
#438=DIRECTION('',(1.94173426026943E-16,0.342020143325668,-0.939692620785909));
#439=DIRECTION('',(-1.94173426026943E-16,-0.342020143325668,0.939692620785909));
#440=DIRECTION('center_axis',(7.13714801544744E-16,0.939692620785909,0.342020143325668));
#441=DIRECTION('ref_axis',(0.,-0.342020143325668,0.939692620785909));
#442=DIRECTION('',(1.,-5.67725117412318E-16,4.93038065763132E-32));
#443=DIRECTION('',(0.,0.34202014332567,-0.939692620785908));
#444=DIRECTION('center_axis',(1.94173426026943E-16,0.342020143325668,-0.939692620785909));
#445=DIRECTION('ref_axis',(0.707106781186543,0.66446302438867,0.241844762648003));
#446=DIRECTION('center_axis',(1.94173426026943E-16,0.342020143325668,-0.939692620785909));
#447=DIRECTION('ref_axis',(0.707106781186543,0.66446302438867,0.241844762648003));
#448=DIRECTION('',(1.94173426026943E-16,0.342020143325668,-0.939692620785909));
#449=DIRECTION('center_axis',(1.94173426026947E-16,0.342020143325674,-0.939692620785906));
#450=DIRECTION('ref_axis',(-0.707106781186547,-0.664463024388672,-0.241844762647985));
#451=DIRECTION('',(0.,0.34202014332567,-0.939692620785908));
#452=DIRECTION('center_axis',(1.94173426026943E-16,0.342020143325668,-0.939692620785909));
#453=DIRECTION('ref_axis',(-0.707106781186547,-0.664463024388672,-0.241844762647985));
#454=DIRECTION('',(1.94173426026947E-16,0.342020143325674,-0.939692620785906));
#455=DIRECTION('center_axis',(0.,-0.939692620785906,-0.342020143325674));
#456=DIRECTION('ref_axis',(0.,0.342020143325674,-0.939692620785906));
#457=DIRECTION('',(1.94173426026947E-16,0.342020143325674,-0.939692620785906));
#458=DIRECTION('',(-1.,5.67725117412318E-16,0.));
#459=DIRECTION('center_axis',(-1.94173426026947E-16,-0.342020143325674,
0.939692620785906));
#460=DIRECTION('ref_axis',(0.707106781186547,-0.664463024388672,-0.241844762647985));
#461=DIRECTION('center_axis',(1.94173426026943E-16,0.342020143325668,-0.939692620785909));
#462=DIRECTION('ref_axis',(0.707106781186547,-0.664463024388672,-0.241844762647985));
#463=DIRECTION('',(-1.94173426026947E-16,-0.342020143325674,0.939692620785906));
#464=DIRECTION('center_axis',(1.94173426026947E-16,0.342020143325674,-0.939692620785906));
#465=DIRECTION('ref_axis',(-0.707106781186551,-0.664463024388668,-0.241844762647982));
#466=DIRECTION('center_axis',(-1.94173426026943E-16,-0.342020143325668,
0.939692620785909));
#467=DIRECTION('ref_axis',(-0.707106781186551,-0.664463024388668,-0.241844762647982));
#468=DIRECTION('',(1.94173426026947E-16,0.342020143325674,-0.939692620785906));
#469=DIRECTION('',(-1.94173426026947E-16,-0.342020143325674,0.939692620785906));
#470=DIRECTION('center_axis',(0.,-0.939692620785906,-0.342020143325674));
#471=DIRECTION('ref_axis',(0.,0.342020143325674,-0.939692620785906));
#472=DIRECTION('',(-1.,6.64112229997721E-17,-1.82463335590236E-16));
#473=DIRECTION('',(-1.94173426026947E-16,-0.342020143325674,0.939692620785906));
#474=DIRECTION('center_axis',(-1.94173426026947E-16,-0.342020143325674,
0.939692620785906));
#475=DIRECTION('ref_axis',(0.707106781186551,-0.664463024388669,-0.241844762647982));
#476=DIRECTION('center_axis',(-1.94173426026943E-16,-0.342020143325668,
0.939692620785909));
#477=DIRECTION('ref_axis',(0.707106781186551,-0.664463024388669,-0.241844762647982));
#478=DIRECTION('',(1.94173426026947E-16,0.342020143325674,-0.939692620785906));
#479=DIRECTION('center_axis',(1.,-7.37083755357045E-16,-6.16415031277474E-17));
#480=DIRECTION('ref_axis',(1.94173426026943E-16,0.342020143325668,-0.939692620785909));
#481=DIRECTION('',(-4.44089209850062E-16,-0.939692620785908,-0.342020143325669));
#482=DIRECTION('center_axis',(-1.,7.37083755357045E-16,6.16415031277474E-17));
#483=DIRECTION('ref_axis',(-1.94173426026943E-16,-0.342020143325668,0.939692620785909));
#484=DIRECTION('',(-1.25724706769599E-30,-0.939692620785909,-0.342020143325668));
#485=DIRECTION('center_axis',(1.,-7.37083755357045E-16,-6.16415031277474E-17));
#486=DIRECTION('ref_axis',(1.94173426026943E-16,0.342020143325668,-0.939692620785909));
#487=DIRECTION('',(1.25724706769599E-30,0.939692620785909,0.342020143325668));
#488=DIRECTION('center_axis',(-1.94173426026943E-16,-0.342020143325668,
0.939692620785909));
#489=DIRECTION('ref_axis',(1.,-5.67725117412318E-16,0.));
#490=DIRECTION('',(-4.44089209850062E-16,-0.939692620785908,-0.342020143325669));
#491=DIRECTION('center_axis',(-1.,7.37083755357045E-16,6.16415031277474E-17));
#492=DIRECTION('ref_axis',(-1.94173426026943E-16,-0.342020143325668,0.939692620785909));
#493=CARTESIAN_POINT('',(0.,0.,0.));
#494=CARTESIAN_POINT('Origin',(-10.2001448986023,54.9039262709843,104.895344243972));
#495=CARTESIAN_POINT('',(-12.7001448986023,80.7454733425968,114.300898185428));
#496=CARTESIAN_POINT('',(-12.2001448986023,81.2153196529898,114.471908257091));
#497=CARTESIAN_POINT('Origin',(-12.2001448986023,80.7454733425968,114.300898185428));
#498=CARTESIAN_POINT('',(-10.7001448986023,81.2153196529898,114.471908257091));
#499=CARTESIAN_POINT('',(-12.7001448986023,81.2153196529898,114.471908257091));
#500=CARTESIAN_POINT('',(-10.2001448986023,80.7454733425968,114.300898185428));
#501=CARTESIAN_POINT('Origin',(-10.7001448986023,80.7454733425968,114.300898185428));
#502=CARTESIAN_POINT('',(-10.2001448986023,55.3737725813773,105.066354315635));
#503=CARTESIAN_POINT('',(-10.2001448986023,54.9039262709843,104.895344243972));
#504=CARTESIAN_POINT('',(-9.20014489860229,54.4340799605914,104.72433417231));
#505=CARTESIAN_POINT('Origin',(-9.20014489860229,55.3737725813773,105.066354315635));
#506=CARTESIAN_POINT('',(9.19985510139772,54.4340799605914,104.72433417231));
#507=CARTESIAN_POINT('',(-5.10014489860228,54.4340799605914,104.72433417231));
#508=CARTESIAN_POINT('',(10.1998551013977,55.3737725813773,105.066354315635));
#509=CARTESIAN_POINT('Origin',(9.19985510139772,55.3737725813773,105.066354315635));
#510=CARTESIAN_POINT('',(10.1998551013977,80.7454733425968,114.300898185428));
#511=CARTESIAN_POINT('',(10.1998551013977,54.9039262709843,104.895344243972));
#512=CARTESIAN_POINT('',(10.6998551013977,81.2153196529898,114.471908257091));
#513=CARTESIAN_POINT('Origin',(10.6998551013977,80.7454733425968,114.300898185428));
#514=CARTESIAN_POINT('',(12.1998551013977,81.2153196529898,114.471908257091));
#515=CARTESIAN_POINT('',(12.4998551013977,81.2153196529897,114.471908257091));
#516=CARTESIAN_POINT('',(12.6998551013977,80.7454733425968,114.300898185428));
#517=CARTESIAN_POINT('Origin',(12.1998551013977,80.7454733425968,114.300898185428));
#518=CARTESIAN_POINT('',(12.6998551013977,52.0848484086266,103.869283813995));
#519=CARTESIAN_POINT('',(12.6998551013977,54.9039262709843,104.895344243972));
#520=CARTESIAN_POINT('',(10.1998551013977,49.7356168566618,103.014233455681));
#521=CARTESIAN_POINT('Origin',(10.1998551013977,52.0848484086266,103.869283813995));
#522=CARTESIAN_POINT('',(-10.2001448986023,49.7356168566618,103.014233455681));
#523=CARTESIAN_POINT('',(-12.7001448986023,49.7356168566618,103.014233455681));
#524=CARTESIAN_POINT('',(-12.7001448986023,52.0848484086266,103.869283813995));
#525=CARTESIAN_POINT('Origin',(-10.2001448986023,52.0848484086266,103.869283813995));
#526=CARTESIAN_POINT('',(-12.7001448986023,54.9039262709843,104.895344243972));
#527=CARTESIAN_POINT('Origin',(-12.2001448986023,79.4628978051256,117.824745513375));
#528=CARTESIAN_POINT('',(-12.7001448986023,78.1803222676543,121.348592841323));
#529=CARTESIAN_POINT('',(-12.2001448986023,78.6501685780473,121.519602912985));
#530=CARTESIAN_POINT('Origin',(-12.2001448986023,78.1803222676543,121.348592841323));
#531=CARTESIAN_POINT('',(-12.2001448986023,79.9327441155185,117.995755585038));
#532=CARTESIAN_POINT('',(-12.7001448986023,79.4628978051256,117.824745513375));
#533=CARTESIAN_POINT('Origin',(-11.4501448986023,79.5052189363614,119.170371361021));
#534=CARTESIAN_POINT('',(-10.7001448986023,78.6501685780473,121.519602912985));
#535=CARTESIAN_POINT('',(-10.0001448986023,78.6501685780473,121.519602912985));
#536=CARTESIAN_POINT('',(-10.7001448986023,80.3602692946756,116.821139809056));
#537=CARTESIAN_POINT('Origin',(-10.7001448986023,78.6078474468114,120.17397706534));
#538=CARTESIAN_POINT('',(-10.2001448986023,78.1803222676543,121.348592841323));
#539=CARTESIAN_POINT('Origin',(-10.7001448986023,78.1803222676543,121.348592841323));
#540=CARTESIAN_POINT('',(-10.2001448986023,78.6078474468114,120.17397706534));
#541=CARTESIAN_POINT('Origin',(10.6998551013977,79.4628978051256,117.824745513375));
#542=CARTESIAN_POINT('',(10.1998551013977,78.1803222676543,121.348592841323));
#543=CARTESIAN_POINT('',(10.6998551013977,78.6501685780472,121.519602912985));
#544=CARTESIAN_POINT('Origin',(10.6998551013977,78.1803222676543,121.348592841323));
#545=CARTESIAN_POINT('',(10.6998551013977,79.9327441155185,117.995755585038));
#546=CARTESIAN_POINT('',(10.1998551013977,79.4628978051256,117.824745513375));
#547=CARTESIAN_POINT('Origin',(11.4498551013977,79.5052189363614,119.170371361021));
#548=CARTESIAN_POINT('',(12.1998551013977,78.6501685780472,121.519602912985));
#549=CARTESIAN_POINT('',(12.6998551013977,78.6501685780472,121.519602912985));
#550=CARTESIAN_POINT('',(12.1998551013977,80.3602692946756,116.821139809056));
#551=CARTESIAN_POINT('Origin',(12.1998551013977,78.6078474468114,120.17397706534));
#552=CARTESIAN_POINT('',(12.6998551013977,78.1803222676543,121.348592841323));
#553=CARTESIAN_POINT('Origin',(12.1998551013977,78.1803222676543,121.348592841323));
#554=CARTESIAN_POINT('',(12.6998551013977,78.6078474468114,120.17397706534));
#555=CARTESIAN_POINT('Origin',(-10.2001448986023,50.8022728711554,107.393131141942));
#556=CARTESIAN_POINT('',(-10.2001448986023,47.1704657817193,110.061928111575));
#557=CARTESIAN_POINT('',(-10.2001448986023,48.8805664983477,105.363465007646));
#558=CARTESIAN_POINT('',(-12.7001448986023,49.5196973336841,110.91697846989));
#559=CARTESIAN_POINT('Origin',(-10.2001448986023,49.5196973336841,110.91697846989));
#560=CARTESIAN_POINT('',(-12.7001448986023,50.8022728711554,107.393131141942));
#561=CARTESIAN_POINT('Origin',(-0.000144898602283394,48.0255161400335,107.712696559611));
#562=CARTESIAN_POINT('',(10.1998551013977,47.1704657817193,110.061928111575));
#563=CARTESIAN_POINT('',(10.1998551013977,47.5979909608764,108.887312335593));
#564=CARTESIAN_POINT('',(12.6998551013977,47.1704657817193,110.061928111575));
#565=CARTESIAN_POINT('Origin',(10.1998551013977,49.9472225128412,109.742362693907));
#566=CARTESIAN_POINT('',(12.6998551013977,49.5196973336841,110.91697846989));
#567=CARTESIAN_POINT('Origin',(10.1998551013977,49.5196973336841,110.91697846989));
#568=CARTESIAN_POINT('',(12.6998551013977,49.9472225128412,109.742362693907));
#569=CARTESIAN_POINT('Origin',(-9.20014489860229,53.2361466855918,110.939433195547));
#570=CARTESIAN_POINT('',(-10.2001448986023,52.8086215064347,112.114048971529));
#571=CARTESIAN_POINT('',(-9.20014489860229,51.8689288856488,111.772028828204));
#572=CARTESIAN_POINT('Origin',(-9.20014489860229,52.8086215064347,112.114048971529));
#573=CARTESIAN_POINT('',(-9.20014489860229,52.2964540648059,110.597413052221));
#574=CARTESIAN_POINT('',(-10.2001448986023,53.2361466855918,110.939433195547));
#575=CARTESIAN_POINT('Origin',(-0.000144898602281174,52.723979243963,109.422797276239));
#576=CARTESIAN_POINT('',(9.19985510139773,51.8689288856488,111.772028828204));
#577=CARTESIAN_POINT('',(-6.35014489860229,51.8689288856488,111.772028828204));
#578=CARTESIAN_POINT('',(9.19985510139772,53.1515044231201,108.248181500257));
#579=CARTESIAN_POINT('Origin',(9.19985510139772,54.091197043906,108.590201643582));
#580=CARTESIAN_POINT('',(10.1998551013977,52.8086215064347,112.114048971529));
#581=CARTESIAN_POINT('Origin',(9.19985510139772,52.8086215064347,112.114048971529));
#582=CARTESIAN_POINT('',(10.1998551013977,54.091197043906,108.590201643582));
#583=CARTESIAN_POINT('Origin',(12.6998551013977,52.3387751960418,111.943038899867));
#584=CARTESIAN_POINT('',(12.6998551013977,52.3387751960418,111.943038899867));
#585=CARTESIAN_POINT('Origin',(10.1998551013977,54.0488759126702,107.244575795937));
#586=CARTESIAN_POINT('',(10.1998551013977,52.3387751960418,111.943038899867));
#587=CARTESIAN_POINT('Origin',(-10.2001448986023,52.3387751960418,111.943038899867));
#588=CARTESIAN_POINT('',(-10.2001448986023,52.3387751960418,111.943038899867));
#589=CARTESIAN_POINT('Origin',(-12.7001448986023,52.3387751960418,111.943038899867));
#590=CARTESIAN_POINT('',(-12.7001448986023,52.3387751960418,111.943038899867));
#591=CARTESIAN_POINT('Origin',(-12.7001448986023,54.0488759126702,107.244575795937));
#592=UNCERTAINTY_MEASURE_WITH_UNIT(LENGTH_MEASURE(0.01),#596,
'DISTANCE_ACCURACY_VALUE',
'Maximum model space distance between geometric entities at asserted c
onnectivities');
#593=UNCERTAINTY_MEASURE_WITH_UNIT(LENGTH_MEASURE(0.01),#596,
'DISTANCE_ACCURACY_VALUE',
'Maximum model space distance between geometric entities at asserted c
onnectivities');
#594=(
GEOMETRIC_REPRESENTATION_CONTEXT(3)
GLOBAL_UNCERTAINTY_ASSIGNED_CONTEXT((#592))
GLOBAL_UNIT_ASSIGNED_CONTEXT((#596,#598,#599))
REPRESENTATION_CONTEXT('','3D')
);
#595=(
GEOMETRIC_REPRESENTATION_CONTEXT(3)
GLOBAL_UNCERTAINTY_ASSIGNED_CONTEXT((#593))
GLOBAL_UNIT_ASSIGNED_CONTEXT((#596,#598,#599))
REPRESENTATION_CONTEXT('','3D')
);
#596=(
LENGTH_UNIT()
NAMED_UNIT(*)
SI_UNIT(.MILLI.,.METRE.)
);
#597=(
LENGTH_UNIT()
NAMED_UNIT(*)
SI_UNIT($,.METRE.)
);
#598=(
NAMED_UNIT(*)
PLANE_ANGLE_UNIT()
SI_UNIT($,.RADIAN.)
);
#599=(
NAMED_UNIT(*)
SI_UNIT($,.STERADIAN.)
SOLID_ANGLE_UNIT()
);
#600=SHAPE_DEFINITION_REPRESENTATION(#601,#602);
#601=PRODUCT_DEFINITION_SHAPE('',$,#604);
#602=SHAPE_REPRESENTATION('',(#356),#594);
#603=PRODUCT_DEFINITION_CONTEXT('part definition',#608,'design');
#604=PRODUCT_DEFINITION('2026-06-20-16-42-16-472','FusionComponent',#605,
#603);
#605=PRODUCT_DEFINITION_FORMATION('',$,#610);
#606=PRODUCT_RELATED_PRODUCT_CATEGORY('FusionComponent',
'FusionComponent',(#610));
#607=APPLICATION_PROTOCOL_DEFINITION('international standard',
'automotive_design',2009,#608);
#608=APPLICATION_CONTEXT(
'Core Data for Automotive Mechanical Design Process');
#609=PRODUCT_CONTEXT('part definition',#608,'mechanical');
#610=PRODUCT('2026-06-20-16-42-16-472','FusionComponent',$,(#609));
#611=PRESENTATION_STYLE_ASSIGNMENT((#612));
#612=SURFACE_STYLE_USAGE(.BOTH.,#613);
#613=SURFACE_SIDE_STYLE('',(#614));
#614=SURFACE_STYLE_FILL_AREA(#615);
#615=FILL_AREA_STYLE('Steel - Satin',(#616));
#616=FILL_AREA_STYLE_COLOUR('Steel - Satin',#617);
#617=COLOUR_RGB('Steel - Satin',0.627450980392157,0.627450980392157,0.627450980392157);
ENDSEC;
END-ISO-10303-21;
