ISO-10303-21;
HEADER;
/* Generated by software containing ST-Developer
 * from STEP Tools, Inc. (www.steptools.com) 
 */

FILE_DESCRIPTION(
/* description */ (''),
/* implementation_level */ '2;1');

FILE_NAME(
/* name */ 'Main Fairlead Body x9.step',
/* time_stamp */ '2026-06-20T17:14:09-05:00',
/* author */ (''),
/* organization */ (''),
/* preprocessor_version */ 'ST-DEVELOPER v20.1',
/* originating_system */ 'Autodesk Translation Framework v15.8.0.0',
/* authorisation */ '');

FILE_SCHEMA (('AUTOMOTIVE_DESIGN { 1 0 10303 214 3 1 1 }'));
ENDSEC;

DATA;
#10=MECHANICAL_DESIGN_GEOMETRIC_PRESENTATION_REPRESENTATION('',(#13),#1719);
#11=SHAPE_REPRESENTATION_RELATIONSHIP('SRR','None',#1726,#12);
#12=ADVANCED_BREP_SHAPE_REPRESENTATION('',(#14),#1718);
#13=STYLED_ITEM('',(#1735),#14);
#14=MANIFOLD_SOLID_BREP('Body1',#1031);
#15=CONICAL_SURFACE('',#1083,1.08333333333333,0.785398163397448);
#16=CONICAL_SURFACE('',#1088,1.08333333333333,0.785398163397449);
#17=CONICAL_SURFACE('',#1092,1.08333333333333,0.785398163397448);
#18=CONICAL_SURFACE('',#1097,1.08333333333333,0.785398163397449);
#19=FACE_BOUND('',#139,.T.);
#20=FACE_BOUND('',#140,.T.);
#21=FACE_BOUND('',#141,.T.);
#22=FACE_BOUND('',#142,.T.);
#23=FACE_BOUND('',#143,.T.);
#24=FACE_BOUND('',#150,.T.);
#25=FACE_BOUND('',#151,.T.);
#26=FACE_BOUND('',#175,.T.);
#27=FACE_BOUND('',#182,.T.);
#28=FACE_BOUND('',#183,.T.);
#29=FACE_BOUND('',#189,.T.);
#30=FACE_BOUND('',#190,.T.);
#31=FACE_BOUND('',#194,.T.);
#32=FACE_BOUND('',#195,.T.);
#33=FACE_BOUND('',#198,.T.);
#34=FACE_BOUND('',#199,.T.);
#35=FACE_BOUND('',#207,.T.);
#36=FACE_BOUND('',#208,.T.);
#37=PLANE('',#1049);
#38=PLANE('',#1051);
#39=PLANE('',#1052);
#40=PLANE('',#1063);
#41=PLANE('',#1064);
#42=PLANE('',#1066);
#43=PLANE('',#1069);
#44=PLANE('',#1074);
#45=PLANE('',#1077);
#46=PLANE('',#1078);
#47=PLANE('',#1079);
#48=PLANE('',#1080);
#49=PLANE('',#1081);
#50=PLANE('',#1082);
#51=PLANE('',#1085);
#52=PLANE('',#1086);
#53=PLANE('',#1087);
#54=PLANE('',#1090);
#55=PLANE('',#1091);
#56=PLANE('',#1095);
#57=PLANE('',#1096);
#58=PLANE('',#1100);
#59=PLANE('',#1101);
#60=PLANE('',#1102);
#61=PLANE('',#1103);
#62=PLANE('',#1104);
#63=PLANE('',#1105);
#64=PLANE('',#1106);
#65=PLANE('',#1107);
#66=PLANE('',#1108);
#67=PLANE('',#1109);
#68=PLANE('',#1112);
#69=PLANE('',#1113);
#70=PLANE('',#1114);
#71=PLANE('',#1115);
#72=PLANE('',#1116);
#73=PLANE('',#1119);
#74=PLANE('',#1121);
#75=PLANE('',#1125);
#76=PLANE('',#1136);
#77=FACE_OUTER_BOUND('',#135,.T.);
#78=FACE_OUTER_BOUND('',#136,.T.);
#79=FACE_OUTER_BOUND('',#137,.T.);
#80=FACE_OUTER_BOUND('',#138,.T.);
#81=FACE_OUTER_BOUND('',#144,.T.);
#82=FACE_OUTER_BOUND('',#145,.T.);
#83=FACE_OUTER_BOUND('',#146,.T.);
#84=FACE_OUTER_BOUND('',#147,.T.);
#85=FACE_OUTER_BOUND('',#148,.T.);
#86=FACE_OUTER_BOUND('',#149,.T.);
#87=FACE_OUTER_BOUND('',#152,.T.);
#88=FACE_OUTER_BOUND('',#153,.T.);
#89=FACE_OUTER_BOUND('',#154,.T.);
#90=FACE_OUTER_BOUND('',#155,.T.);
#91=FACE_OUTER_BOUND('',#156,.T.);
#92=FACE_OUTER_BOUND('',#157,.T.);
#93=FACE_OUTER_BOUND('',#158,.T.);
#94=FACE_OUTER_BOUND('',#159,.T.);
#95=FACE_OUTER_BOUND('',#160,.T.);
#96=FACE_OUTER_BOUND('',#161,.T.);
#97=FACE_OUTER_BOUND('',#162,.T.);
#98=FACE_OUTER_BOUND('',#163,.T.);
#99=FACE_OUTER_BOUND('',#164,.T.);
#100=FACE_OUTER_BOUND('',#165,.T.);
#101=FACE_OUTER_BOUND('',#166,.T.);
#102=FACE_OUTER_BOUND('',#167,.T.);
#103=FACE_OUTER_BOUND('',#168,.T.);
#104=FACE_OUTER_BOUND('',#169,.T.);
#105=FACE_OUTER_BOUND('',#170,.T.);
#106=FACE_OUTER_BOUND('',#171,.T.);
#107=FACE_OUTER_BOUND('',#172,.T.);
#108=FACE_OUTER_BOUND('',#173,.T.);
#109=FACE_OUTER_BOUND('',#174,.T.);
#110=FACE_OUTER_BOUND('',#176,.T.);
#111=FACE_OUTER_BOUND('',#177,.T.);
#112=FACE_OUTER_BOUND('',#178,.T.);
#113=FACE_OUTER_BOUND('',#179,.T.);
#114=FACE_OUTER_BOUND('',#180,.T.);
#115=FACE_OUTER_BOUND('',#181,.T.);
#116=FACE_OUTER_BOUND('',#184,.T.);
#117=FACE_OUTER_BOUND('',#185,.T.);
#118=FACE_OUTER_BOUND('',#186,.T.);
#119=FACE_OUTER_BOUND('',#187,.T.);
#120=FACE_OUTER_BOUND('',#188,.T.);
#121=FACE_OUTER_BOUND('',#191,.T.);
#122=FACE_OUTER_BOUND('',#192,.T.);
#123=FACE_OUTER_BOUND('',#193,.T.);
#124=FACE_OUTER_BOUND('',#196,.T.);
#125=FACE_OUTER_BOUND('',#197,.T.);
#126=FACE_OUTER_BOUND('',#200,.T.);
#127=FACE_OUTER_BOUND('',#201,.T.);
#128=FACE_OUTER_BOUND('',#202,.T.);
#129=FACE_OUTER_BOUND('',#203,.T.);
#130=FACE_OUTER_BOUND('',#204,.T.);
#131=FACE_OUTER_BOUND('',#205,.T.);
#132=FACE_OUTER_BOUND('',#206,.T.);
#133=FACE_OUTER_BOUND('',#209,.T.);
#134=FACE_OUTER_BOUND('',#210,.T.);
#135=EDGE_LOOP('',(#679,#680,#681,#682,#683));
#136=EDGE_LOOP('',(#684,#685,#686,#687,#688,#689));
#137=EDGE_LOOP('',(#690,#691,#692,#693));
#138=EDGE_LOOP('',(#694,#695,#696,#697,#698,#699,#700,#701));
#139=EDGE_LOOP('',(#702));
#140=EDGE_LOOP('',(#703));
#141=EDGE_LOOP('',(#704));
#142=EDGE_LOOP('',(#705));
#143=EDGE_LOOP('',(#706,#707,#708,#709));
#144=EDGE_LOOP('',(#710,#711,#712,#713,#714));
#145=EDGE_LOOP('',(#715,#716,#717,#718));
#146=EDGE_LOOP('',(#719,#720,#721,#722,#723,#724));
#147=EDGE_LOOP('',(#725,#726,#727,#728,#729));
#148=EDGE_LOOP('',(#730,#731,#732,#733,#734));
#149=EDGE_LOOP('',(#735,#736,#737,#738,#739,#740,#741,#742,#743,#744));
#150=EDGE_LOOP('',(#745));
#151=EDGE_LOOP('',(#746));
#152=EDGE_LOOP('',(#747,#748,#749,#750,#751));
#153=EDGE_LOOP('',(#752,#753,#754,#755,#756));
#154=EDGE_LOOP('',(#757,#758,#759,#760,#761));
#155=EDGE_LOOP('',(#762,#763,#764));
#156=EDGE_LOOP('',(#765,#766,#767));
#157=EDGE_LOOP('',(#768,#769,#770));
#158=EDGE_LOOP('',(#771,#772,#773,#774));
#159=EDGE_LOOP('',(#775,#776,#777,#778));
#160=EDGE_LOOP('',(#779,#780,#781,#782));
#161=EDGE_LOOP('',(#783,#784,#785));
#162=EDGE_LOOP('',(#786,#787,#788,#789));
#163=EDGE_LOOP('',(#790,#791,#792,#793));
#164=EDGE_LOOP('',(#794,#795,#796,#797));
#165=EDGE_LOOP('',(#798,#799,#800,#801));
#166=EDGE_LOOP('',(#802,#803,#804,#805));
#167=EDGE_LOOP('',(#806,#807,#808,#809));
#168=EDGE_LOOP('',(#810,#811,#812,#813));
#169=EDGE_LOOP('',(#814,#815,#816,#817,#818));
#170=EDGE_LOOP('',(#819,#820,#821,#822));
#171=EDGE_LOOP('',(#823,#824,#825,#826));
#172=EDGE_LOOP('',(#827,#828,#829,#830));
#173=EDGE_LOOP('',(#831,#832,#833,#834));
#174=EDGE_LOOP('',(#835,#836,#837,#838));
#175=EDGE_LOOP('',(#839,#840,#841,#842));
#176=EDGE_LOOP('',(#843,#844,#845,#846));
#177=EDGE_LOOP('',(#847,#848,#849,#850));
#178=EDGE_LOOP('',(#851,#852,#853,#854));
#179=EDGE_LOOP('',(#855,#856,#857,#858));
#180=EDGE_LOOP('',(#859,#860,#861,#862));
#181=EDGE_LOOP('',(#863,#864,#865,#866));
#182=EDGE_LOOP('',(#867));
#183=EDGE_LOOP('',(#868));
#184=EDGE_LOOP('',(#869,#870,#871,#872));
#185=EDGE_LOOP('',(#873,#874,#875,#876));
#186=EDGE_LOOP('',(#877,#878,#879,#880));
#187=EDGE_LOOP('',(#881,#882,#883,#884));
#188=EDGE_LOOP('',(#885,#886,#887,#888));
#189=EDGE_LOOP('',(#889));
#190=EDGE_LOOP('',(#890));
#191=EDGE_LOOP('',(#891,#892,#893,#894));
#192=EDGE_LOOP('',(#895,#896,#897,#898));
#193=EDGE_LOOP('',(#899,#900,#901,#902));
#194=EDGE_LOOP('',(#903));
#195=EDGE_LOOP('',(#904));
#196=EDGE_LOOP('',(#905,#906,#907,#908));
#197=EDGE_LOOP('',(#909,#910,#911,#912));
#198=EDGE_LOOP('',(#913));
#199=EDGE_LOOP('',(#914));
#200=EDGE_LOOP('',(#915,#916,#917,#918));
#201=EDGE_LOOP('',(#919,#920,#921,#922));
#202=EDGE_LOOP('',(#923,#924,#925,#926));
#203=EDGE_LOOP('',(#927,#928,#929,#930));
#204=EDGE_LOOP('',(#931,#932,#933,#934));
#205=EDGE_LOOP('',(#935,#936,#937,#938));
#206=EDGE_LOOP('',(#939,#940,#941,#942,#943,#944,#945,#946,#947,#948));
#207=EDGE_LOOP('',(#949));
#208=EDGE_LOOP('',(#950));
#209=EDGE_LOOP('',(#951,#952,#953,#954));
#210=EDGE_LOOP('',(#955,#956,#957,#958));
#211=ELLIPSE('',#1047,1.22565175405667,0.86666666666666);
#212=ELLIPSE('',#1048,1.22565175405667,0.86666666666666);
#213=ELLIPSE('',#1050,1.22565175405667,0.86666666666666);
#214=ELLIPSE('',#1061,1.22565175405667,0.86666666666666);
#215=ELLIPSE('',#1062,1.22565175405667,0.86666666666666);
#216=ELLIPSE('',#1065,1.22565175405667,0.86666666666666);
#217=ELLIPSE('',#1068,1.22565175405667,0.86666666666666);
#218=ELLIPSE('',#1076,1.22565175405667,0.86666666666666);
#219=LINE('',#1439,#323);
#220=LINE('',#1444,#324);
#221=LINE('',#1447,#325);
#222=LINE('',#1451,#326);
#223=LINE('',#1453,#327);
#224=LINE('',#1454,#328);
#225=LINE('',#1457,#329);
#226=LINE('',#1458,#330);
#227=LINE('',#1461,#331);
#228=LINE('',#1465,#332);
#229=LINE('',#1469,#333);
#230=LINE('',#1481,#334);
#231=LINE('',#1483,#335);
#232=LINE('',#1485,#336);
#233=LINE('',#1486,#337);
#234=LINE('',#1491,#338);
#235=LINE('',#1493,#339);
#236=LINE('',#1497,#340);
#237=LINE('',#1498,#341);
#238=LINE('',#1501,#342);
#239=LINE('',#1503,#343);
#240=LINE('',#1505,#344);
#241=LINE('',#1509,#345);
#242=LINE('',#1511,#346);
#243=LINE('',#1512,#347);
#244=LINE('',#1516,#348);
#245=LINE('',#1519,#349);
#246=LINE('',#1523,#350);
#247=LINE('',#1525,#351);
#248=LINE('',#1527,#352);
#249=LINE('',#1531,#353);
#250=LINE('',#1532,#354);
#251=LINE('',#1539,#355);
#252=LINE('',#1540,#356);
#253=LINE('',#1545,#357);
#254=LINE('',#1546,#358);
#255=LINE('',#1550,#359);
#256=LINE('',#1552,#360);
#257=LINE('',#1553,#361);
#258=LINE('',#1557,#362);
#259=LINE('',#1559,#363);
#260=LINE('',#1560,#364);
#261=LINE('',#1563,#365);
#262=LINE('',#1565,#366);
#263=LINE('',#1566,#367);
#264=LINE('',#1568,#368);
#265=LINE('',#1569,#369);
#266=LINE('',#1572,#370);
#267=LINE('',#1573,#371);
#268=LINE('',#1578,#372);
#269=LINE('',#1580,#373);
#270=LINE('',#1581,#374);
#271=LINE('',#1583,#375);
#272=LINE('',#1584,#376);
#273=LINE('',#1586,#377);
#274=LINE('',#1590,#378);
#275=LINE('',#1592,#379);
#276=LINE('',#1596,#380);
#277=LINE('',#1597,#381);
#278=LINE('',#1598,#382);
#279=LINE('',#1603,#383);
#280=LINE('',#1604,#384);
#281=LINE('',#1607,#385);
#282=LINE('',#1609,#386);
#283=LINE('',#1610,#387);
#284=LINE('',#1615,#388);
#285=LINE('',#1618,#389);
#286=LINE('',#1619,#390);
#287=LINE('',#1621,#391);
#288=LINE('',#1623,#392);
#289=LINE('',#1627,#393);
#290=LINE('',#1629,#394);
#291=LINE('',#1631,#395);
#292=LINE('',#1632,#396);
#293=LINE('',#1635,#397);
#294=LINE('',#1637,#398);
#295=LINE('',#1638,#399);
#296=LINE('',#1641,#400);
#297=LINE('',#1642,#401);
#298=LINE('',#1645,#402);
#299=LINE('',#1646,#403);
#300=LINE('',#1648,#404);
#301=LINE('',#1651,#405);
#302=LINE('',#1653,#406);
#303=LINE('',#1654,#407);
#304=LINE('',#1657,#408);
#305=LINE('',#1658,#409);
#306=LINE('',#1664,#410);
#307=LINE('',#1666,#411);
#308=LINE('',#1667,#412);
#309=LINE('',#1669,#413);
#310=LINE('',#1671,#414);
#311=LINE('',#1673,#415);
#312=LINE('',#1675,#416);
#313=LINE('',#1682,#417);
#314=LINE('',#1689,#418);
#315=LINE('',#1696,#419);
#316=LINE('',#1698,#420);
#317=LINE('',#1700,#421);
#318=LINE('',#1702,#422);
#319=LINE('',#1706,#423);
#320=LINE('',#1710,#424);
#321=LINE('',#1713,#425);
#322=LINE('',#1715,#426);
#323=VECTOR('',#1145,43.333333333333);
#324=VECTOR('',#1150,43.333333333333);
#325=VECTOR('',#1153,43.333333333333);
#326=VECTOR('',#1156,43.333333333333);
#327=VECTOR('',#1157,43.333333333333);
#328=VECTOR('',#1158,43.333333333333);
#329=VECTOR('',#1161,43.333333333333);
#330=VECTOR('',#1162,43.333333333333);
#331=VECTOR('',#1165,43.333333333333);
#332=VECTOR('',#1168,43.333333333333);
#333=VECTOR('',#1171,43.333333333333);
#334=VECTOR('',#1182,43.333333333333);
#335=VECTOR('',#1183,43.333333333333);
#336=VECTOR('',#1184,43.333333333333);
#337=VECTOR('',#1185,43.333333333333);
#338=VECTOR('',#1190,43.333333333333);
#339=VECTOR('',#1191,43.333333333333);
#340=VECTOR('',#1196,43.333333333333);
#341=VECTOR('',#1197,43.333333333333);
#342=VECTOR('',#1200,43.333333333333);
#343=VECTOR('',#1201,43.333333333333);
#344=VECTOR('',#1202,43.333333333333);
#345=VECTOR('',#1207,43.333333333333);
#346=VECTOR('',#1208,43.333333333333);
#347=VECTOR('',#1209,43.333333333333);
#348=VECTOR('',#1214,43.333333333333);
#349=VECTOR('',#1217,43.333333333333);
#350=VECTOR('',#1220,43.333333333333);
#351=VECTOR('',#1221,43.333333333333);
#352=VECTOR('',#1222,43.333333333333);
#353=VECTOR('',#1225,43.333333333333);
#354=VECTOR('',#1226,43.333333333333);
#355=VECTOR('',#1233,43.333333333333);
#356=VECTOR('',#1234,43.333333333333);
#357=VECTOR('',#1241,43.333333333333);
#358=VECTOR('',#1242,43.333333333333);
#359=VECTOR('',#1245,43.333333333333);
#360=VECTOR('',#1246,43.333333333333);
#361=VECTOR('',#1247,43.333333333333);
#362=VECTOR('',#1250,43.333333333333);
#363=VECTOR('',#1251,43.333333333333);
#364=VECTOR('',#1252,43.333333333333);
#365=VECTOR('',#1255,43.333333333333);
#366=VECTOR('',#1256,43.333333333333);
#367=VECTOR('',#1257,43.333333333333);
#368=VECTOR('',#1260,43.333333333333);
#369=VECTOR('',#1261,43.333333333333);
#370=VECTOR('',#1264,43.333333333333);
#371=VECTOR('',#1265,43.333333333333);
#372=VECTOR('',#1272,43.333333333333);
#373=VECTOR('',#1273,43.333333333333);
#374=VECTOR('',#1274,43.333333333333);
#375=VECTOR('',#1277,43.333333333333);
#376=VECTOR('',#1278,43.333333333333);
#377=VECTOR('',#1281,43.333333333333);
#378=VECTOR('',#1286,43.333333333333);
#379=VECTOR('',#1289,43.333333333333);
#380=VECTOR('',#1292,43.333333333333);
#381=VECTOR('',#1293,43.333333333333);
#382=VECTOR('',#1294,43.333333333333);
#383=VECTOR('',#1303,43.333333333333);
#384=VECTOR('',#1304,43.333333333333);
#385=VECTOR('',#1307,43.333333333333);
#386=VECTOR('',#1308,43.333333333333);
#387=VECTOR('',#1309,43.333333333333);
#388=VECTOR('',#1314,43.333333333333);
#389=VECTOR('',#1319,43.333333333333);
#390=VECTOR('',#1320,43.333333333333);
#391=VECTOR('',#1323,43.333333333333);
#392=VECTOR('',#1326,43.333333333333);
#393=VECTOR('',#1329,43.333333333333);
#394=VECTOR('',#1330,43.333333333333);
#395=VECTOR('',#1331,43.333333333333);
#396=VECTOR('',#1332,43.333333333333);
#397=VECTOR('',#1335,43.333333333333);
#398=VECTOR('',#1336,43.333333333333);
#399=VECTOR('',#1337,43.333333333333);
#400=VECTOR('',#1340,43.333333333333);
#401=VECTOR('',#1341,43.333333333333);
#402=VECTOR('',#1344,43.333333333333);
#403=VECTOR('',#1345,43.333333333333);
#404=VECTOR('',#1348,43.333333333333);
#405=VECTOR('',#1351,43.333333333333);
#406=VECTOR('',#1352,43.333333333333);
#407=VECTOR('',#1353,43.333333333333);
#408=VECTOR('',#1356,43.333333333333);
#409=VECTOR('',#1357,43.333333333333);
#410=VECTOR('',#1364,43.333333333333);
#411=VECTOR('',#1365,43.333333333333);
#412=VECTOR('',#1366,43.333333333333);
#413=VECTOR('',#1369,43.333333333333);
#414=VECTOR('',#1372,43.333333333333);
#415=VECTOR('',#1375,43.333333333333);
#416=VECTOR('',#1378,43.333333333333);
#417=VECTOR('',#1387,43.333333333333);
#418=VECTOR('',#1396,43.333333333333);
#419=VECTOR('',#1405,1.08333333333333);
#420=VECTOR('',#1408,1.08333333333332);
#421=VECTOR('',#1411,1.08333333333332);
#422=VECTOR('',#1414,1.08333333333332);
#423=VECTOR('',#1419,2.59999999999998);
#424=VECTOR('',#1424,2.59999999999998);
#425=VECTOR('',#1429,2.59999999999998);
#426=VECTOR('',#1432,2.59999999999998);
#427=CIRCLE('',#1046,0.86666666666666);
#428=CIRCLE('',#1053,0.86666666666666);
#429=CIRCLE('',#1054,0.86666666666666);
#430=CIRCLE('',#1055,0.86666666666666);
#431=CIRCLE('',#1056,0.583333333333326);
#432=CIRCLE('',#1057,0.583333333333325);
#433=CIRCLE('',#1058,0.583333333333324);
#434=CIRCLE('',#1059,0.583333333333324);
#435=CIRCLE('',#1070,1.29999999999999);
#436=CIRCLE('',#1071,1.29999999999999);
#437=CIRCLE('',#1072,2.59999999999998);
#438=CIRCLE('',#1073,2.59999999999998);
#439=CIRCLE('',#1084,0.86666666666666);
#440=CIRCLE('',#1089,0.86666666666666);
#441=CIRCLE('',#1093,0.86666666666666);
#442=CIRCLE('',#1094,1.29999999999999);
#443=CIRCLE('',#1098,0.86666666666666);
#444=CIRCLE('',#1099,1.29999999999999);
#445=CIRCLE('',#1110,2.59999999999998);
#446=CIRCLE('',#1111,2.59999999999998);
#447=CIRCLE('',#1117,2.59999999999998);
#448=CIRCLE('',#1118,2.59999999999998);
#449=CIRCLE('',#1122,0.583333333333324);
#450=CIRCLE('',#1123,0.583333333333324);
#451=CIRCLE('',#1126,0.583333333333325);
#452=CIRCLE('',#1127,0.583333333333326);
#453=CIRCLE('',#1133,2.59999999999998);
#454=CIRCLE('',#1135,2.59999999999998);
#455=VERTEX_POINT('',#1435);
#456=VERTEX_POINT('',#1436);
#457=VERTEX_POINT('',#1438);
#458=VERTEX_POINT('',#1440);
#459=VERTEX_POINT('',#1442);
#460=VERTEX_POINT('',#1446);
#461=VERTEX_POINT('',#1448);
#462=VERTEX_POINT('',#1450);
#463=VERTEX_POINT('',#1452);
#464=VERTEX_POINT('',#1456);
#465=VERTEX_POINT('',#1460);
#466=VERTEX_POINT('',#1462);
#467=VERTEX_POINT('',#1464);
#468=VERTEX_POINT('',#1466);
#469=VERTEX_POINT('',#1468);
#470=VERTEX_POINT('',#1471);
#471=VERTEX_POINT('',#1473);
#472=VERTEX_POINT('',#1475);
#473=VERTEX_POINT('',#1477);
#474=VERTEX_POINT('',#1479);
#475=VERTEX_POINT('',#1480);
#476=VERTEX_POINT('',#1482);
#477=VERTEX_POINT('',#1484);
#478=VERTEX_POINT('',#1488);
#479=VERTEX_POINT('',#1489);
#480=VERTEX_POINT('',#1492);
#481=VERTEX_POINT('',#1496);
#482=VERTEX_POINT('',#1500);
#483=VERTEX_POINT('',#1502);
#484=VERTEX_POINT('',#1504);
#485=VERTEX_POINT('',#1508);
#486=VERTEX_POINT('',#1510);
#487=VERTEX_POINT('',#1514);
#488=VERTEX_POINT('',#1518);
#489=VERTEX_POINT('',#1520);
#490=VERTEX_POINT('',#1522);
#491=VERTEX_POINT('',#1524);
#492=VERTEX_POINT('',#1526);
#493=VERTEX_POINT('',#1528);
#494=VERTEX_POINT('',#1530);
#495=VERTEX_POINT('',#1533);
#496=VERTEX_POINT('',#1535);
#497=VERTEX_POINT('',#1538);
#498=VERTEX_POINT('',#1544);
#499=VERTEX_POINT('',#1548);
#500=VERTEX_POINT('',#1549);
#501=VERTEX_POINT('',#1551);
#502=VERTEX_POINT('',#1555);
#503=VERTEX_POINT('',#1556);
#504=VERTEX_POINT('',#1558);
#505=VERTEX_POINT('',#1562);
#506=VERTEX_POINT('',#1564);
#507=VERTEX_POINT('',#1571);
#508=VERTEX_POINT('',#1577);
#509=VERTEX_POINT('',#1579);
#510=VERTEX_POINT('',#1588);
#511=VERTEX_POINT('',#1594);
#512=VERTEX_POINT('',#1595);
#513=VERTEX_POINT('',#1606);
#514=VERTEX_POINT('',#1608);
#515=VERTEX_POINT('',#1612);
#516=VERTEX_POINT('',#1614);
#517=VERTEX_POINT('',#1625);
#518=VERTEX_POINT('',#1626);
#519=VERTEX_POINT('',#1628);
#520=VERTEX_POINT('',#1630);
#521=VERTEX_POINT('',#1634);
#522=VERTEX_POINT('',#1636);
#523=VERTEX_POINT('',#1640);
#524=VERTEX_POINT('',#1644);
#525=VERTEX_POINT('',#1650);
#526=VERTEX_POINT('',#1652);
#527=VERTEX_POINT('',#1656);
#528=VERTEX_POINT('',#1659);
#529=VERTEX_POINT('',#1661);
#530=VERTEX_POINT('',#1665);
#531=VERTEX_POINT('',#1676);
#532=VERTEX_POINT('',#1678);
#533=VERTEX_POINT('',#1684);
#534=VERTEX_POINT('',#1686);
#535=VERTEX_POINT('',#1691);
#536=VERTEX_POINT('',#1693);
#537=VERTEX_POINT('',#1704);
#538=VERTEX_POINT('',#1708);
#539=EDGE_CURVE('',#455,#456,#427,.T.);
#540=EDGE_CURVE('',#456,#457,#219,.T.);
#541=EDGE_CURVE('',#457,#458,#211,.T.);
#542=EDGE_CURVE('',#458,#459,#212,.T.);
#543=EDGE_CURVE('',#459,#455,#220,.T.);
#544=EDGE_CURVE('',#457,#460,#221,.T.);
#545=EDGE_CURVE('',#461,#460,#213,.T.);
#546=EDGE_CURVE('',#462,#461,#222,.T.);
#547=EDGE_CURVE('',#462,#463,#223,.T.);
#548=EDGE_CURVE('',#458,#463,#224,.T.);
#549=EDGE_CURVE('',#456,#464,#225,.T.);
#550=EDGE_CURVE('',#460,#464,#226,.T.);
#551=EDGE_CURVE('',#455,#465,#227,.T.);
#552=EDGE_CURVE('',#466,#465,#428,.T.);
#553=EDGE_CURVE('',#467,#466,#228,.T.);
#554=EDGE_CURVE('',#468,#467,#429,.T.);
#555=EDGE_CURVE('',#468,#469,#229,.T.);
#556=EDGE_CURVE('',#464,#469,#430,.T.);
#557=EDGE_CURVE('',#470,#470,#431,.T.);
#558=EDGE_CURVE('',#471,#471,#432,.T.);
#559=EDGE_CURVE('',#472,#472,#433,.T.);
#560=EDGE_CURVE('',#473,#473,#434,.T.);
#561=EDGE_CURVE('',#474,#475,#230,.T.);
#562=EDGE_CURVE('',#476,#474,#231,.T.);
#563=EDGE_CURVE('',#477,#476,#232,.T.);
#564=EDGE_CURVE('',#475,#477,#233,.T.);
#565=EDGE_CURVE('',#478,#479,#214,.T.);
#566=EDGE_CURVE('',#479,#466,#234,.T.);
#567=EDGE_CURVE('',#465,#480,#235,.T.);
#568=EDGE_CURVE('',#480,#478,#215,.T.);
#569=EDGE_CURVE('',#481,#479,#236,.T.);
#570=EDGE_CURVE('',#467,#481,#237,.T.);
#571=EDGE_CURVE('',#482,#478,#238,.T.);
#572=EDGE_CURVE('',#482,#483,#239,.T.);
#573=EDGE_CURVE('',#484,#483,#240,.T.);
#574=EDGE_CURVE('',#481,#484,#216,.T.);
#575=EDGE_CURVE('',#480,#485,#241,.T.);
#576=EDGE_CURVE('',#486,#485,#242,.T.);
#577=EDGE_CURVE('',#486,#482,#243,.T.);
#578=EDGE_CURVE('',#484,#487,#217,.T.);
#579=EDGE_CURVE('',#487,#468,#244,.T.);
#580=EDGE_CURVE('',#488,#487,#245,.T.);
#581=EDGE_CURVE('',#489,#488,#435,.T.);
#582=EDGE_CURVE('',#490,#489,#246,.T.);
#583=EDGE_CURVE('',#491,#490,#247,.T.);
#584=EDGE_CURVE('',#492,#491,#248,.T.);
#585=EDGE_CURVE('',#493,#492,#436,.T.);
#586=EDGE_CURVE('',#494,#493,#249,.T.);
#587=EDGE_CURVE('',#469,#494,#250,.T.);
#588=EDGE_CURVE('',#495,#495,#437,.T.);
#589=EDGE_CURVE('',#496,#496,#438,.T.);
#590=EDGE_CURVE('',#483,#497,#251,.T.);
#591=EDGE_CURVE('',#497,#488,#252,.T.);
#592=EDGE_CURVE('',#494,#461,#218,.T.);
#593=EDGE_CURVE('',#498,#493,#253,.T.);
#594=EDGE_CURVE('',#498,#462,#254,.T.);
#595=EDGE_CURVE('',#499,#500,#255,.T.);
#596=EDGE_CURVE('',#501,#499,#256,.T.);
#597=EDGE_CURVE('',#500,#501,#257,.T.);
#598=EDGE_CURVE('',#502,#503,#258,.T.);
#599=EDGE_CURVE('',#504,#502,#259,.T.);
#600=EDGE_CURVE('',#503,#504,#260,.T.);
#601=EDGE_CURVE('',#505,#491,#261,.T.);
#602=EDGE_CURVE('',#506,#505,#262,.T.);
#603=EDGE_CURVE('',#491,#506,#263,.T.);
#604=EDGE_CURVE('',#499,#506,#264,.T.);
#605=EDGE_CURVE('',#505,#501,#265,.T.);
#606=EDGE_CURVE('',#507,#492,#266,.T.);
#607=EDGE_CURVE('',#506,#507,#267,.T.);
#608=EDGE_CURVE('',#507,#498,#439,.T.);
#609=EDGE_CURVE('',#508,#490,#268,.T.);
#610=EDGE_CURVE('',#509,#508,#269,.T.);
#611=EDGE_CURVE('',#490,#509,#270,.T.);
#612=EDGE_CURVE('',#508,#504,#271,.T.);
#613=EDGE_CURVE('',#502,#509,#272,.T.);
#614=EDGE_CURVE('',#509,#505,#273,.T.);
#615=EDGE_CURVE('',#497,#510,#440,.T.);
#616=EDGE_CURVE('',#510,#489,#274,.T.);
#617=EDGE_CURVE('',#510,#508,#275,.T.);
#618=EDGE_CURVE('',#511,#512,#276,.T.);
#619=EDGE_CURVE('',#512,#503,#277,.T.);
#620=EDGE_CURVE('',#504,#511,#278,.T.);
#621=EDGE_CURVE('',#511,#486,#441,.T.);
#622=EDGE_CURVE('',#485,#512,#442,.T.);
#623=EDGE_CURVE('',#503,#500,#279,.T.);
#624=EDGE_CURVE('',#501,#502,#280,.T.);
#625=EDGE_CURVE('',#463,#513,#281,.T.);
#626=EDGE_CURVE('',#513,#514,#282,.T.);
#627=EDGE_CURVE('',#514,#459,#283,.T.);
#628=EDGE_CURVE('',#513,#515,#443,.T.);
#629=EDGE_CURVE('',#515,#516,#284,.T.);
#630=EDGE_CURVE('',#516,#514,#444,.T.);
#631=EDGE_CURVE('',#515,#499,#285,.T.);
#632=EDGE_CURVE('',#500,#516,#286,.T.);
#633=EDGE_CURVE('',#511,#510,#287,.T.);
#634=EDGE_CURVE('',#507,#515,#288,.T.);
#635=EDGE_CURVE('',#517,#518,#289,.T.);
#636=EDGE_CURVE('',#519,#517,#290,.T.);
#637=EDGE_CURVE('',#520,#519,#291,.T.);
#638=EDGE_CURVE('',#518,#520,#292,.T.);
#639=EDGE_CURVE('',#475,#521,#293,.T.);
#640=EDGE_CURVE('',#521,#522,#294,.T.);
#641=EDGE_CURVE('',#474,#522,#295,.T.);
#642=EDGE_CURVE('',#477,#523,#296,.T.);
#643=EDGE_CURVE('',#523,#521,#297,.T.);
#644=EDGE_CURVE('',#476,#524,#298,.T.);
#645=EDGE_CURVE('',#524,#523,#299,.T.);
#646=EDGE_CURVE('',#522,#524,#300,.T.);
#647=EDGE_CURVE('',#525,#522,#301,.T.);
#648=EDGE_CURVE('',#526,#525,#302,.T.);
#649=EDGE_CURVE('',#524,#526,#303,.T.);
#650=EDGE_CURVE('',#521,#527,#304,.T.);
#651=EDGE_CURVE('',#525,#527,#305,.T.);
#652=EDGE_CURVE('',#528,#528,#445,.T.);
#653=EDGE_CURVE('',#529,#529,#446,.T.);
#654=EDGE_CURVE('',#518,#527,#306,.T.);
#655=EDGE_CURVE('',#527,#530,#307,.T.);
#656=EDGE_CURVE('',#517,#530,#308,.T.);
#657=EDGE_CURVE('',#520,#525,#309,.T.);
#658=EDGE_CURVE('',#519,#526,#310,.T.);
#659=EDGE_CURVE('',#530,#526,#311,.T.);
#660=EDGE_CURVE('',#530,#523,#312,.T.);
#661=EDGE_CURVE('',#531,#531,#447,.T.);
#662=EDGE_CURVE('',#532,#532,#448,.T.);
#663=EDGE_CURVE('',#497,#486,#313,.T.);
#664=EDGE_CURVE('',#533,#533,#449,.T.);
#665=EDGE_CURVE('',#534,#534,#450,.T.);
#666=EDGE_CURVE('',#513,#498,#314,.T.);
#667=EDGE_CURVE('',#535,#535,#451,.T.);
#668=EDGE_CURVE('',#536,#536,#452,.T.);
#669=EDGE_CURVE('',#470,#536,#315,.T.);
#670=EDGE_CURVE('',#471,#535,#316,.T.);
#671=EDGE_CURVE('',#472,#534,#317,.T.);
#672=EDGE_CURVE('',#473,#533,#318,.T.);
#673=EDGE_CURVE('',#537,#537,#453,.T.);
#674=EDGE_CURVE('',#537,#531,#319,.T.);
#675=EDGE_CURVE('',#538,#538,#454,.T.);
#676=EDGE_CURVE('',#538,#532,#320,.T.);
#677=EDGE_CURVE('',#496,#528,#321,.T.);
#678=EDGE_CURVE('',#495,#529,#322,.T.);
#679=ORIENTED_EDGE('',*,*,#539,.T.);
#680=ORIENTED_EDGE('',*,*,#540,.T.);
#681=ORIENTED_EDGE('',*,*,#541,.T.);
#682=ORIENTED_EDGE('',*,*,#542,.T.);
#683=ORIENTED_EDGE('',*,*,#543,.T.);
#684=ORIENTED_EDGE('',*,*,#541,.F.);
#685=ORIENTED_EDGE('',*,*,#544,.T.);
#686=ORIENTED_EDGE('',*,*,#545,.F.);
#687=ORIENTED_EDGE('',*,*,#546,.F.);
#688=ORIENTED_EDGE('',*,*,#547,.T.);
#689=ORIENTED_EDGE('',*,*,#548,.F.);
#690=ORIENTED_EDGE('',*,*,#540,.F.);
#691=ORIENTED_EDGE('',*,*,#549,.T.);
#692=ORIENTED_EDGE('',*,*,#550,.F.);
#693=ORIENTED_EDGE('',*,*,#544,.F.);
#694=ORIENTED_EDGE('',*,*,#539,.F.);
#695=ORIENTED_EDGE('',*,*,#551,.T.);
#696=ORIENTED_EDGE('',*,*,#552,.F.);
#697=ORIENTED_EDGE('',*,*,#553,.F.);
#698=ORIENTED_EDGE('',*,*,#554,.F.);
#699=ORIENTED_EDGE('',*,*,#555,.T.);
#700=ORIENTED_EDGE('',*,*,#556,.F.);
#701=ORIENTED_EDGE('',*,*,#549,.F.);
#702=ORIENTED_EDGE('',*,*,#557,.T.);
#703=ORIENTED_EDGE('',*,*,#558,.T.);
#704=ORIENTED_EDGE('',*,*,#559,.T.);
#705=ORIENTED_EDGE('',*,*,#560,.T.);
#706=ORIENTED_EDGE('',*,*,#561,.F.);
#707=ORIENTED_EDGE('',*,*,#562,.F.);
#708=ORIENTED_EDGE('',*,*,#563,.F.);
#709=ORIENTED_EDGE('',*,*,#564,.F.);
#710=ORIENTED_EDGE('',*,*,#565,.T.);
#711=ORIENTED_EDGE('',*,*,#566,.T.);
#712=ORIENTED_EDGE('',*,*,#552,.T.);
#713=ORIENTED_EDGE('',*,*,#567,.T.);
#714=ORIENTED_EDGE('',*,*,#568,.T.);
#715=ORIENTED_EDGE('',*,*,#566,.F.);
#716=ORIENTED_EDGE('',*,*,#569,.F.);
#717=ORIENTED_EDGE('',*,*,#570,.F.);
#718=ORIENTED_EDGE('',*,*,#553,.T.);
#719=ORIENTED_EDGE('',*,*,#565,.F.);
#720=ORIENTED_EDGE('',*,*,#571,.F.);
#721=ORIENTED_EDGE('',*,*,#572,.T.);
#722=ORIENTED_EDGE('',*,*,#573,.F.);
#723=ORIENTED_EDGE('',*,*,#574,.F.);
#724=ORIENTED_EDGE('',*,*,#569,.T.);
#725=ORIENTED_EDGE('',*,*,#568,.F.);
#726=ORIENTED_EDGE('',*,*,#575,.T.);
#727=ORIENTED_EDGE('',*,*,#576,.F.);
#728=ORIENTED_EDGE('',*,*,#577,.T.);
#729=ORIENTED_EDGE('',*,*,#571,.T.);
#730=ORIENTED_EDGE('',*,*,#554,.T.);
#731=ORIENTED_EDGE('',*,*,#570,.T.);
#732=ORIENTED_EDGE('',*,*,#574,.T.);
#733=ORIENTED_EDGE('',*,*,#578,.T.);
#734=ORIENTED_EDGE('',*,*,#579,.T.);
#735=ORIENTED_EDGE('',*,*,#579,.F.);
#736=ORIENTED_EDGE('',*,*,#580,.F.);
#737=ORIENTED_EDGE('',*,*,#581,.F.);
#738=ORIENTED_EDGE('',*,*,#582,.F.);
#739=ORIENTED_EDGE('',*,*,#583,.F.);
#740=ORIENTED_EDGE('',*,*,#584,.F.);
#741=ORIENTED_EDGE('',*,*,#585,.F.);
#742=ORIENTED_EDGE('',*,*,#586,.F.);
#743=ORIENTED_EDGE('',*,*,#587,.F.);
#744=ORIENTED_EDGE('',*,*,#555,.F.);
#745=ORIENTED_EDGE('',*,*,#588,.T.);
#746=ORIENTED_EDGE('',*,*,#589,.T.);
#747=ORIENTED_EDGE('',*,*,#578,.F.);
#748=ORIENTED_EDGE('',*,*,#573,.T.);
#749=ORIENTED_EDGE('',*,*,#590,.T.);
#750=ORIENTED_EDGE('',*,*,#591,.T.);
#751=ORIENTED_EDGE('',*,*,#580,.T.);
#752=ORIENTED_EDGE('',*,*,#545,.T.);
#753=ORIENTED_EDGE('',*,*,#550,.T.);
#754=ORIENTED_EDGE('',*,*,#556,.T.);
#755=ORIENTED_EDGE('',*,*,#587,.T.);
#756=ORIENTED_EDGE('',*,*,#592,.T.);
#757=ORIENTED_EDGE('',*,*,#592,.F.);
#758=ORIENTED_EDGE('',*,*,#586,.T.);
#759=ORIENTED_EDGE('',*,*,#593,.F.);
#760=ORIENTED_EDGE('',*,*,#594,.T.);
#761=ORIENTED_EDGE('',*,*,#546,.T.);
#762=ORIENTED_EDGE('',*,*,#595,.F.);
#763=ORIENTED_EDGE('',*,*,#596,.F.);
#764=ORIENTED_EDGE('',*,*,#597,.F.);
#765=ORIENTED_EDGE('',*,*,#598,.F.);
#766=ORIENTED_EDGE('',*,*,#599,.F.);
#767=ORIENTED_EDGE('',*,*,#600,.F.);
#768=ORIENTED_EDGE('',*,*,#601,.F.);
#769=ORIENTED_EDGE('',*,*,#602,.F.);
#770=ORIENTED_EDGE('',*,*,#603,.F.);
#771=ORIENTED_EDGE('',*,*,#596,.T.);
#772=ORIENTED_EDGE('',*,*,#604,.T.);
#773=ORIENTED_EDGE('',*,*,#602,.T.);
#774=ORIENTED_EDGE('',*,*,#605,.T.);
#775=ORIENTED_EDGE('',*,*,#606,.T.);
#776=ORIENTED_EDGE('',*,*,#584,.T.);
#777=ORIENTED_EDGE('',*,*,#603,.T.);
#778=ORIENTED_EDGE('',*,*,#607,.T.);
#779=ORIENTED_EDGE('',*,*,#606,.F.);
#780=ORIENTED_EDGE('',*,*,#608,.T.);
#781=ORIENTED_EDGE('',*,*,#593,.T.);
#782=ORIENTED_EDGE('',*,*,#585,.T.);
#783=ORIENTED_EDGE('',*,*,#609,.F.);
#784=ORIENTED_EDGE('',*,*,#610,.F.);
#785=ORIENTED_EDGE('',*,*,#611,.F.);
#786=ORIENTED_EDGE('',*,*,#610,.T.);
#787=ORIENTED_EDGE('',*,*,#612,.T.);
#788=ORIENTED_EDGE('',*,*,#599,.T.);
#789=ORIENTED_EDGE('',*,*,#613,.T.);
#790=ORIENTED_EDGE('',*,*,#601,.T.);
#791=ORIENTED_EDGE('',*,*,#583,.T.);
#792=ORIENTED_EDGE('',*,*,#611,.T.);
#793=ORIENTED_EDGE('',*,*,#614,.T.);
#794=ORIENTED_EDGE('',*,*,#591,.F.);
#795=ORIENTED_EDGE('',*,*,#615,.T.);
#796=ORIENTED_EDGE('',*,*,#616,.T.);
#797=ORIENTED_EDGE('',*,*,#581,.T.);
#798=ORIENTED_EDGE('',*,*,#616,.F.);
#799=ORIENTED_EDGE('',*,*,#617,.T.);
#800=ORIENTED_EDGE('',*,*,#609,.T.);
#801=ORIENTED_EDGE('',*,*,#582,.T.);
#802=ORIENTED_EDGE('',*,*,#618,.T.);
#803=ORIENTED_EDGE('',*,*,#619,.T.);
#804=ORIENTED_EDGE('',*,*,#600,.T.);
#805=ORIENTED_EDGE('',*,*,#620,.T.);
#806=ORIENTED_EDGE('',*,*,#618,.F.);
#807=ORIENTED_EDGE('',*,*,#621,.T.);
#808=ORIENTED_EDGE('',*,*,#576,.T.);
#809=ORIENTED_EDGE('',*,*,#622,.T.);
#810=ORIENTED_EDGE('',*,*,#598,.T.);
#811=ORIENTED_EDGE('',*,*,#623,.T.);
#812=ORIENTED_EDGE('',*,*,#597,.T.);
#813=ORIENTED_EDGE('',*,*,#624,.T.);
#814=ORIENTED_EDGE('',*,*,#542,.F.);
#815=ORIENTED_EDGE('',*,*,#548,.T.);
#816=ORIENTED_EDGE('',*,*,#625,.T.);
#817=ORIENTED_EDGE('',*,*,#626,.T.);
#818=ORIENTED_EDGE('',*,*,#627,.T.);
#819=ORIENTED_EDGE('',*,*,#626,.F.);
#820=ORIENTED_EDGE('',*,*,#628,.T.);
#821=ORIENTED_EDGE('',*,*,#629,.T.);
#822=ORIENTED_EDGE('',*,*,#630,.T.);
#823=ORIENTED_EDGE('',*,*,#629,.F.);
#824=ORIENTED_EDGE('',*,*,#631,.T.);
#825=ORIENTED_EDGE('',*,*,#595,.T.);
#826=ORIENTED_EDGE('',*,*,#632,.T.);
#827=ORIENTED_EDGE('',*,*,#620,.F.);
#828=ORIENTED_EDGE('',*,*,#612,.F.);
#829=ORIENTED_EDGE('',*,*,#617,.F.);
#830=ORIENTED_EDGE('',*,*,#633,.F.);
#831=ORIENTED_EDGE('',*,*,#607,.F.);
#832=ORIENTED_EDGE('',*,*,#604,.F.);
#833=ORIENTED_EDGE('',*,*,#631,.F.);
#834=ORIENTED_EDGE('',*,*,#634,.F.);
#835=ORIENTED_EDGE('',*,*,#613,.F.);
#836=ORIENTED_EDGE('',*,*,#624,.F.);
#837=ORIENTED_EDGE('',*,*,#605,.F.);
#838=ORIENTED_EDGE('',*,*,#614,.F.);
#839=ORIENTED_EDGE('',*,*,#635,.F.);
#840=ORIENTED_EDGE('',*,*,#636,.F.);
#841=ORIENTED_EDGE('',*,*,#637,.F.);
#842=ORIENTED_EDGE('',*,*,#638,.F.);
#843=ORIENTED_EDGE('',*,*,#561,.T.);
#844=ORIENTED_EDGE('',*,*,#639,.T.);
#845=ORIENTED_EDGE('',*,*,#640,.T.);
#846=ORIENTED_EDGE('',*,*,#641,.F.);
#847=ORIENTED_EDGE('',*,*,#564,.T.);
#848=ORIENTED_EDGE('',*,*,#642,.T.);
#849=ORIENTED_EDGE('',*,*,#643,.T.);
#850=ORIENTED_EDGE('',*,*,#639,.F.);
#851=ORIENTED_EDGE('',*,*,#563,.T.);
#852=ORIENTED_EDGE('',*,*,#644,.T.);
#853=ORIENTED_EDGE('',*,*,#645,.T.);
#854=ORIENTED_EDGE('',*,*,#642,.F.);
#855=ORIENTED_EDGE('',*,*,#646,.T.);
#856=ORIENTED_EDGE('',*,*,#644,.F.);
#857=ORIENTED_EDGE('',*,*,#562,.T.);
#858=ORIENTED_EDGE('',*,*,#641,.T.);
#859=ORIENTED_EDGE('',*,*,#646,.F.);
#860=ORIENTED_EDGE('',*,*,#647,.F.);
#861=ORIENTED_EDGE('',*,*,#648,.F.);
#862=ORIENTED_EDGE('',*,*,#649,.F.);
#863=ORIENTED_EDGE('',*,*,#640,.F.);
#864=ORIENTED_EDGE('',*,*,#650,.T.);
#865=ORIENTED_EDGE('',*,*,#651,.F.);
#866=ORIENTED_EDGE('',*,*,#647,.T.);
#867=ORIENTED_EDGE('',*,*,#652,.F.);
#868=ORIENTED_EDGE('',*,*,#653,.F.);
#869=ORIENTED_EDGE('',*,*,#635,.T.);
#870=ORIENTED_EDGE('',*,*,#654,.T.);
#871=ORIENTED_EDGE('',*,*,#655,.T.);
#872=ORIENTED_EDGE('',*,*,#656,.F.);
#873=ORIENTED_EDGE('',*,*,#638,.T.);
#874=ORIENTED_EDGE('',*,*,#657,.T.);
#875=ORIENTED_EDGE('',*,*,#651,.T.);
#876=ORIENTED_EDGE('',*,*,#654,.F.);
#877=ORIENTED_EDGE('',*,*,#648,.T.);
#878=ORIENTED_EDGE('',*,*,#657,.F.);
#879=ORIENTED_EDGE('',*,*,#637,.T.);
#880=ORIENTED_EDGE('',*,*,#658,.T.);
#881=ORIENTED_EDGE('',*,*,#659,.T.);
#882=ORIENTED_EDGE('',*,*,#658,.F.);
#883=ORIENTED_EDGE('',*,*,#636,.T.);
#884=ORIENTED_EDGE('',*,*,#656,.T.);
#885=ORIENTED_EDGE('',*,*,#645,.F.);
#886=ORIENTED_EDGE('',*,*,#649,.T.);
#887=ORIENTED_EDGE('',*,*,#659,.F.);
#888=ORIENTED_EDGE('',*,*,#660,.T.);
#889=ORIENTED_EDGE('',*,*,#661,.F.);
#890=ORIENTED_EDGE('',*,*,#662,.F.);
#891=ORIENTED_EDGE('',*,*,#643,.F.);
#892=ORIENTED_EDGE('',*,*,#660,.F.);
#893=ORIENTED_EDGE('',*,*,#655,.F.);
#894=ORIENTED_EDGE('',*,*,#650,.F.);
#895=ORIENTED_EDGE('',*,*,#621,.F.);
#896=ORIENTED_EDGE('',*,*,#633,.T.);
#897=ORIENTED_EDGE('',*,*,#615,.F.);
#898=ORIENTED_EDGE('',*,*,#663,.T.);
#899=ORIENTED_EDGE('',*,*,#577,.F.);
#900=ORIENTED_EDGE('',*,*,#663,.F.);
#901=ORIENTED_EDGE('',*,*,#590,.F.);
#902=ORIENTED_EDGE('',*,*,#572,.F.);
#903=ORIENTED_EDGE('',*,*,#664,.T.);
#904=ORIENTED_EDGE('',*,*,#665,.T.);
#905=ORIENTED_EDGE('',*,*,#608,.F.);
#906=ORIENTED_EDGE('',*,*,#634,.T.);
#907=ORIENTED_EDGE('',*,*,#628,.F.);
#908=ORIENTED_EDGE('',*,*,#666,.T.);
#909=ORIENTED_EDGE('',*,*,#594,.F.);
#910=ORIENTED_EDGE('',*,*,#666,.F.);
#911=ORIENTED_EDGE('',*,*,#625,.F.);
#912=ORIENTED_EDGE('',*,*,#547,.F.);
#913=ORIENTED_EDGE('',*,*,#667,.T.);
#914=ORIENTED_EDGE('',*,*,#668,.T.);
#915=ORIENTED_EDGE('',*,*,#557,.F.);
#916=ORIENTED_EDGE('',*,*,#669,.T.);
#917=ORIENTED_EDGE('',*,*,#668,.F.);
#918=ORIENTED_EDGE('',*,*,#669,.F.);
#919=ORIENTED_EDGE('',*,*,#558,.F.);
#920=ORIENTED_EDGE('',*,*,#670,.T.);
#921=ORIENTED_EDGE('',*,*,#667,.F.);
#922=ORIENTED_EDGE('',*,*,#670,.F.);
#923=ORIENTED_EDGE('',*,*,#559,.F.);
#924=ORIENTED_EDGE('',*,*,#671,.T.);
#925=ORIENTED_EDGE('',*,*,#665,.F.);
#926=ORIENTED_EDGE('',*,*,#671,.F.);
#927=ORIENTED_EDGE('',*,*,#560,.F.);
#928=ORIENTED_EDGE('',*,*,#672,.T.);
#929=ORIENTED_EDGE('',*,*,#664,.F.);
#930=ORIENTED_EDGE('',*,*,#672,.F.);
#931=ORIENTED_EDGE('',*,*,#673,.F.);
#932=ORIENTED_EDGE('',*,*,#674,.T.);
#933=ORIENTED_EDGE('',*,*,#661,.T.);
#934=ORIENTED_EDGE('',*,*,#674,.F.);
#935=ORIENTED_EDGE('',*,*,#675,.F.);
#936=ORIENTED_EDGE('',*,*,#676,.T.);
#937=ORIENTED_EDGE('',*,*,#662,.T.);
#938=ORIENTED_EDGE('',*,*,#676,.F.);
#939=ORIENTED_EDGE('',*,*,#543,.F.);
#940=ORIENTED_EDGE('',*,*,#627,.F.);
#941=ORIENTED_EDGE('',*,*,#630,.F.);
#942=ORIENTED_EDGE('',*,*,#632,.F.);
#943=ORIENTED_EDGE('',*,*,#623,.F.);
#944=ORIENTED_EDGE('',*,*,#619,.F.);
#945=ORIENTED_EDGE('',*,*,#622,.F.);
#946=ORIENTED_EDGE('',*,*,#575,.F.);
#947=ORIENTED_EDGE('',*,*,#567,.F.);
#948=ORIENTED_EDGE('',*,*,#551,.F.);
#949=ORIENTED_EDGE('',*,*,#675,.T.);
#950=ORIENTED_EDGE('',*,*,#673,.T.);
#951=ORIENTED_EDGE('',*,*,#589,.F.);
#952=ORIENTED_EDGE('',*,*,#677,.T.);
#953=ORIENTED_EDGE('',*,*,#652,.T.);
#954=ORIENTED_EDGE('',*,*,#677,.F.);
#955=ORIENTED_EDGE('',*,*,#588,.F.);
#956=ORIENTED_EDGE('',*,*,#678,.T.);
#957=ORIENTED_EDGE('',*,*,#653,.T.);
#958=ORIENTED_EDGE('',*,*,#678,.F.);
#959=CYLINDRICAL_SURFACE('',#1045,0.86666666666666);
#960=CYLINDRICAL_SURFACE('',#1060,0.86666666666666);
#961=CYLINDRICAL_SURFACE('',#1067,0.86666666666666);
#962=CYLINDRICAL_SURFACE('',#1075,0.86666666666666);
#963=CYLINDRICAL_SURFACE('',#1120,0.86666666666666);
#964=CYLINDRICAL_SURFACE('',#1124,0.86666666666666);
#965=CYLINDRICAL_SURFACE('',#1128,0.583333333333326);
#966=CYLINDRICAL_SURFACE('',#1129,0.583333333333325);
#967=CYLINDRICAL_SURFACE('',#1130,0.583333333333324);
#968=CYLINDRICAL_SURFACE('',#1131,0.583333333333324);
#969=CYLINDRICAL_SURFACE('',#1132,2.59999999999998);
#970=CYLINDRICAL_SURFACE('',#1134,2.59999999999998);
#971=CYLINDRICAL_SURFACE('',#1137,2.59999999999998);
#972=CYLINDRICAL_SURFACE('',#1138,2.59999999999998);
#973=ADVANCED_FACE('',(#77),#959,.T.);
#974=ADVANCED_FACE('',(#78),#37,.T.);
#975=ADVANCED_FACE('',(#79),#38,.T.);
#976=ADVANCED_FACE('',(#80,#19,#20,#21,#22,#23),#39,.T.);
#977=ADVANCED_FACE('',(#81),#960,.T.);
#978=ADVANCED_FACE('',(#82),#40,.T.);
#979=ADVANCED_FACE('',(#83),#41,.T.);
#980=ADVANCED_FACE('',(#84),#42,.T.);
#981=ADVANCED_FACE('',(#85),#961,.T.);
#982=ADVANCED_FACE('',(#86,#24,#25),#43,.F.);
#983=ADVANCED_FACE('',(#87),#44,.T.);
#984=ADVANCED_FACE('',(#88),#962,.T.);
#985=ADVANCED_FACE('',(#89),#45,.T.);
#986=ADVANCED_FACE('',(#90),#46,.T.);
#987=ADVANCED_FACE('',(#91),#47,.T.);
#988=ADVANCED_FACE('',(#92),#48,.T.);
#989=ADVANCED_FACE('',(#93),#49,.T.);
#990=ADVANCED_FACE('',(#94),#50,.T.);
#991=ADVANCED_FACE('',(#95),#15,.F.);
#992=ADVANCED_FACE('',(#96),#51,.T.);
#993=ADVANCED_FACE('',(#97),#52,.T.);
#994=ADVANCED_FACE('',(#98),#53,.T.);
#995=ADVANCED_FACE('',(#99),#16,.F.);
#996=ADVANCED_FACE('',(#100),#54,.T.);
#997=ADVANCED_FACE('',(#101),#55,.T.);
#998=ADVANCED_FACE('',(#102),#17,.F.);
#999=ADVANCED_FACE('',(#103),#56,.T.);
#1000=ADVANCED_FACE('',(#104),#57,.T.);
#1001=ADVANCED_FACE('',(#105),#18,.F.);
#1002=ADVANCED_FACE('',(#106),#58,.T.);
#1003=ADVANCED_FACE('',(#107),#59,.T.);
#1004=ADVANCED_FACE('',(#108),#60,.T.);
#1005=ADVANCED_FACE('',(#109,#26),#61,.T.);
#1006=ADVANCED_FACE('',(#110),#62,.T.);
#1007=ADVANCED_FACE('',(#111),#63,.T.);
#1008=ADVANCED_FACE('',(#112),#64,.T.);
#1009=ADVANCED_FACE('',(#113),#65,.T.);
#1010=ADVANCED_FACE('',(#114),#66,.T.);
#1011=ADVANCED_FACE('',(#115,#27,#28),#67,.T.);
#1012=ADVANCED_FACE('',(#116),#68,.T.);
#1013=ADVANCED_FACE('',(#117),#69,.T.);
#1014=ADVANCED_FACE('',(#118),#70,.T.);
#1015=ADVANCED_FACE('',(#119),#71,.T.);
#1016=ADVANCED_FACE('',(#120,#29,#30),#72,.F.);
#1017=ADVANCED_FACE('',(#121),#73,.T.);
#1018=ADVANCED_FACE('',(#122),#963,.F.);
#1019=ADVANCED_FACE('',(#123,#31,#32),#74,.T.);
#1020=ADVANCED_FACE('',(#124),#964,.F.);
#1021=ADVANCED_FACE('',(#125,#33,#34),#75,.T.);
#1022=ADVANCED_FACE('',(#126),#965,.F.);
#1023=ADVANCED_FACE('',(#127),#966,.F.);
#1024=ADVANCED_FACE('',(#128),#967,.F.);
#1025=ADVANCED_FACE('',(#129),#968,.F.);
#1026=ADVANCED_FACE('',(#130),#969,.F.);
#1027=ADVANCED_FACE('',(#131),#970,.F.);
#1028=ADVANCED_FACE('',(#132,#35,#36),#76,.T.);
#1029=ADVANCED_FACE('',(#133),#971,.F.);
#1030=ADVANCED_FACE('',(#134),#972,.F.);
#1031=CLOSED_SHELL('',(#973,#974,#975,#976,#977,#978,#979,#980,#981,#982,
#983,#984,#985,#986,#987,#988,#989,#990,#991,#992,#993,#994,#995,#996,#997,
#998,#999,#1000,#1001,#1002,#1003,#1004,#1005,#1006,#1007,#1008,#1009,#1010,
#1011,#1012,#1013,#1014,#1015,#1016,#1017,#1018,#1019,#1020,#1021,#1022,
#1023,#1024,#1025,#1026,#1027,#1028,#1029,#1030));
#1032=DERIVED_UNIT_ELEMENT(#1034,1.);
#1033=DERIVED_UNIT_ELEMENT(#1721,-3.);
#1034=(
MASS_UNIT()
NAMED_UNIT(*)
SI_UNIT(.KILO.,.GRAM.)
);
#1035=DERIVED_UNIT((#1032,#1033));
#1036=MEASURE_REPRESENTATION_ITEM('density measure',
POSITIVE_RATIO_MEASURE(7850.),#1035);
#1037=PROPERTY_DEFINITION_REPRESENTATION(#1042,#1039);
#1038=PROPERTY_DEFINITION_REPRESENTATION(#1043,#1040);
#1039=REPRESENTATION('material name',(#1041),#1718);
#1040=REPRESENTATION('density',(#1036),#1718);
#1041=DESCRIPTIVE_REPRESENTATION_ITEM('Steel','Steel');
#1042=PROPERTY_DEFINITION('material property','material name',#1728);
#1043=PROPERTY_DEFINITION('material property','density of part',#1728);
#1044=AXIS2_PLACEMENT_3D('',#1433,#1139,#1140);
#1045=AXIS2_PLACEMENT_3D('',#1434,#1141,#1142);
#1046=AXIS2_PLACEMENT_3D('',#1437,#1143,#1144);
#1047=AXIS2_PLACEMENT_3D('',#1441,#1146,#1147);
#1048=AXIS2_PLACEMENT_3D('',#1443,#1148,#1149);
#1049=AXIS2_PLACEMENT_3D('',#1445,#1151,#1152);
#1050=AXIS2_PLACEMENT_3D('',#1449,#1154,#1155);
#1051=AXIS2_PLACEMENT_3D('',#1455,#1159,#1160);
#1052=AXIS2_PLACEMENT_3D('',#1459,#1163,#1164);
#1053=AXIS2_PLACEMENT_3D('',#1463,#1166,#1167);
#1054=AXIS2_PLACEMENT_3D('',#1467,#1169,#1170);
#1055=AXIS2_PLACEMENT_3D('',#1470,#1172,#1173);
#1056=AXIS2_PLACEMENT_3D('',#1472,#1174,#1175);
#1057=AXIS2_PLACEMENT_3D('',#1474,#1176,#1177);
#1058=AXIS2_PLACEMENT_3D('',#1476,#1178,#1179);
#1059=AXIS2_PLACEMENT_3D('',#1478,#1180,#1181);
#1060=AXIS2_PLACEMENT_3D('',#1487,#1186,#1187);
#1061=AXIS2_PLACEMENT_3D('',#1490,#1188,#1189);
#1062=AXIS2_PLACEMENT_3D('',#1494,#1192,#1193);
#1063=AXIS2_PLACEMENT_3D('',#1495,#1194,#1195);
#1064=AXIS2_PLACEMENT_3D('',#1499,#1198,#1199);
#1065=AXIS2_PLACEMENT_3D('',#1506,#1203,#1204);
#1066=AXIS2_PLACEMENT_3D('',#1507,#1205,#1206);
#1067=AXIS2_PLACEMENT_3D('',#1513,#1210,#1211);
#1068=AXIS2_PLACEMENT_3D('',#1515,#1212,#1213);
#1069=AXIS2_PLACEMENT_3D('',#1517,#1215,#1216);
#1070=AXIS2_PLACEMENT_3D('',#1521,#1218,#1219);
#1071=AXIS2_PLACEMENT_3D('',#1529,#1223,#1224);
#1072=AXIS2_PLACEMENT_3D('',#1534,#1227,#1228);
#1073=AXIS2_PLACEMENT_3D('',#1536,#1229,#1230);
#1074=AXIS2_PLACEMENT_3D('',#1537,#1231,#1232);
#1075=AXIS2_PLACEMENT_3D('',#1541,#1235,#1236);
#1076=AXIS2_PLACEMENT_3D('',#1542,#1237,#1238);
#1077=AXIS2_PLACEMENT_3D('',#1543,#1239,#1240);
#1078=AXIS2_PLACEMENT_3D('',#1547,#1243,#1244);
#1079=AXIS2_PLACEMENT_3D('',#1554,#1248,#1249);
#1080=AXIS2_PLACEMENT_3D('',#1561,#1253,#1254);
#1081=AXIS2_PLACEMENT_3D('',#1567,#1258,#1259);
#1082=AXIS2_PLACEMENT_3D('',#1570,#1262,#1263);
#1083=AXIS2_PLACEMENT_3D('',#1574,#1266,#1267);
#1084=AXIS2_PLACEMENT_3D('',#1575,#1268,#1269);
#1085=AXIS2_PLACEMENT_3D('',#1576,#1270,#1271);
#1086=AXIS2_PLACEMENT_3D('',#1582,#1275,#1276);
#1087=AXIS2_PLACEMENT_3D('',#1585,#1279,#1280);
#1088=AXIS2_PLACEMENT_3D('',#1587,#1282,#1283);
#1089=AXIS2_PLACEMENT_3D('',#1589,#1284,#1285);
#1090=AXIS2_PLACEMENT_3D('',#1591,#1287,#1288);
#1091=AXIS2_PLACEMENT_3D('',#1593,#1290,#1291);
#1092=AXIS2_PLACEMENT_3D('',#1599,#1295,#1296);
#1093=AXIS2_PLACEMENT_3D('',#1600,#1297,#1298);
#1094=AXIS2_PLACEMENT_3D('',#1601,#1299,#1300);
#1095=AXIS2_PLACEMENT_3D('',#1602,#1301,#1302);
#1096=AXIS2_PLACEMENT_3D('',#1605,#1305,#1306);
#1097=AXIS2_PLACEMENT_3D('',#1611,#1310,#1311);
#1098=AXIS2_PLACEMENT_3D('',#1613,#1312,#1313);
#1099=AXIS2_PLACEMENT_3D('',#1616,#1315,#1316);
#1100=AXIS2_PLACEMENT_3D('',#1617,#1317,#1318);
#1101=AXIS2_PLACEMENT_3D('',#1620,#1321,#1322);
#1102=AXIS2_PLACEMENT_3D('',#1622,#1324,#1325);
#1103=AXIS2_PLACEMENT_3D('',#1624,#1327,#1328);
#1104=AXIS2_PLACEMENT_3D('',#1633,#1333,#1334);
#1105=AXIS2_PLACEMENT_3D('',#1639,#1338,#1339);
#1106=AXIS2_PLACEMENT_3D('',#1643,#1342,#1343);
#1107=AXIS2_PLACEMENT_3D('',#1647,#1346,#1347);
#1108=AXIS2_PLACEMENT_3D('',#1649,#1349,#1350);
#1109=AXIS2_PLACEMENT_3D('',#1655,#1354,#1355);
#1110=AXIS2_PLACEMENT_3D('',#1660,#1358,#1359);
#1111=AXIS2_PLACEMENT_3D('',#1662,#1360,#1361);
#1112=AXIS2_PLACEMENT_3D('',#1663,#1362,#1363);
#1113=AXIS2_PLACEMENT_3D('',#1668,#1367,#1368);
#1114=AXIS2_PLACEMENT_3D('',#1670,#1370,#1371);
#1115=AXIS2_PLACEMENT_3D('',#1672,#1373,#1374);
#1116=AXIS2_PLACEMENT_3D('',#1674,#1376,#1377);
#1117=AXIS2_PLACEMENT_3D('',#1677,#1379,#1380);
#1118=AXIS2_PLACEMENT_3D('',#1679,#1381,#1382);
#1119=AXIS2_PLACEMENT_3D('',#1680,#1383,#1384);
#1120=AXIS2_PLACEMENT_3D('',#1681,#1385,#1386);
#1121=AXIS2_PLACEMENT_3D('',#1683,#1388,#1389);
#1122=AXIS2_PLACEMENT_3D('',#1685,#1390,#1391);
#1123=AXIS2_PLACEMENT_3D('',#1687,#1392,#1393);
#1124=AXIS2_PLACEMENT_3D('',#1688,#1394,#1395);
#1125=AXIS2_PLACEMENT_3D('',#1690,#1397,#1398);
#1126=AXIS2_PLACEMENT_3D('',#1692,#1399,#1400);
#1127=AXIS2_PLACEMENT_3D('',#1694,#1401,#1402);
#1128=AXIS2_PLACEMENT_3D('',#1695,#1403,#1404);
#1129=AXIS2_PLACEMENT_3D('',#1697,#1406,#1407);
#1130=AXIS2_PLACEMENT_3D('',#1699,#1409,#1410);
#1131=AXIS2_PLACEMENT_3D('',#1701,#1412,#1413);
#1132=AXIS2_PLACEMENT_3D('',#1703,#1415,#1416);
#1133=AXIS2_PLACEMENT_3D('',#1705,#1417,#1418);
#1134=AXIS2_PLACEMENT_3D('',#1707,#1420,#1421);
#1135=AXIS2_PLACEMENT_3D('',#1709,#1422,#1423);
#1136=AXIS2_PLACEMENT_3D('',#1711,#1425,#1426);
#1137=AXIS2_PLACEMENT_3D('',#1712,#1427,#1428);
#1138=AXIS2_PLACEMENT_3D('',#1714,#1430,#1431);
#1139=DIRECTION('axis',(0.,0.,1.));
#1140=DIRECTION('refdir',(1.,0.,0.));
#1141=DIRECTION('center_axis',(0.,0.,-1.));
#1142=DIRECTION('ref_axis',(-0.707106781186548,0.707106781186548,0.));
#1143=DIRECTION('center_axis',(3.4694470295018E-17,0.,1.));
#1144=DIRECTION('ref_axis',(-0.707106781186548,0.707106781186548,0.));
#1145=DIRECTION('',(0.,0.,1.));
#1146=DIRECTION('center_axis',(0.707106781186545,1.2266347333467E-17,-0.70710678118655));
#1147=DIRECTION('ref_axis',(-0.70710678118655,0.,-0.707106781186545));
#1148=DIRECTION('center_axis',(0.,-0.707106781186548,-0.707106781186548));
#1149=DIRECTION('ref_axis',(0.,0.707106781186547,-0.707106781186547));
#1150=DIRECTION('',(0.,0.,-1.));
#1151=DIRECTION('center_axis',(-0.707106781186545,-1.2266347333467E-17,
0.70710678118655));
#1152=DIRECTION('ref_axis',(0.70710678118655,0.,0.707106781186545));
#1153=DIRECTION('',(0.,-1.,-1.73472347597681E-17));
#1154=DIRECTION('center_axis',(0.707106781186545,1.2266347333467E-17,-0.70710678118655));
#1155=DIRECTION('ref_axis',(-0.70710678118655,0.,-0.707106781186545));
#1156=DIRECTION('',(-0.577350269189628,-0.577350269189625,-0.577350269189625));
#1157=DIRECTION('',(0.,1.,1.73472347597681E-17));
#1158=DIRECTION('',(0.577350269189629,-0.577350269189624,0.577350269189625));
#1159=DIRECTION('center_axis',(-1.,0.,0.));
#1160=DIRECTION('ref_axis',(0.,0.,1.));
#1161=DIRECTION('',(0.,-1.,0.));
#1162=DIRECTION('',(0.,0.,-1.));
#1163=DIRECTION('center_axis',(-3.4694470295018E-17,0.,-1.));
#1164=DIRECTION('ref_axis',(1.,0.,-3.4694470295018E-17));
#1165=DIRECTION('',(1.,0.,0.));
#1166=DIRECTION('center_axis',(3.4694470295018E-17,0.,1.));
#1167=DIRECTION('ref_axis',(0.707106781186548,0.707106781186548,0.));
#1168=DIRECTION('',(0.,1.,0.));
#1169=DIRECTION('center_axis',(3.4694470295018E-17,0.,1.));
#1170=DIRECTION('ref_axis',(0.707106781186548,-0.707106781186548,0.));
#1171=DIRECTION('',(-1.,0.,0.));
#1172=DIRECTION('center_axis',(3.4694470295018E-17,0.,1.));
#1173=DIRECTION('ref_axis',(-0.707106781186548,-0.707106781186548,0.));
#1174=DIRECTION('center_axis',(3.4694470295018E-17,0.,1.));
#1175=DIRECTION('ref_axis',(1.,0.,0.));
#1176=DIRECTION('center_axis',(3.4694470295018E-17,0.,1.));
#1177=DIRECTION('ref_axis',(1.,0.,0.));
#1178=DIRECTION('center_axis',(3.4694470295018E-17,0.,1.));
#1179=DIRECTION('ref_axis',(1.,0.,0.));
#1180=DIRECTION('center_axis',(3.4694470295018E-17,0.,1.));
#1181=DIRECTION('ref_axis',(1.,0.,0.));
#1182=DIRECTION('',(-1.,0.,3.4694470295018E-17));
#1183=DIRECTION('',(0.,-1.,0.));
#1184=DIRECTION('',(1.,0.,-3.4694470295018E-17));
#1185=DIRECTION('',(0.,1.,0.));
#1186=DIRECTION('center_axis',(0.,0.,1.));
#1187=DIRECTION('ref_axis',(0.707106781186548,0.707106781186548,0.));
#1188=DIRECTION('center_axis',(-0.707106781186545,-1.2266347333467E-17,
-0.70710678118655));
#1189=DIRECTION('ref_axis',(0.70710678118655,0.,-0.707106781186545));
#1190=DIRECTION('',(0.,0.,-1.));
#1191=DIRECTION('',(0.,0.,1.));
#1192=DIRECTION('center_axis',(0.,-0.707106781186547,-0.707106781186548));
#1193=DIRECTION('ref_axis',(0.,0.707106781186548,-0.707106781186547));
#1194=DIRECTION('center_axis',(1.,0.,0.));
#1195=DIRECTION('ref_axis',(0.,0.,-1.));
#1196=DIRECTION('',(0.,1.,-1.73472347597681E-17));
#1197=DIRECTION('',(0.,0.,1.));
#1198=DIRECTION('center_axis',(0.707106781186545,1.2266347333467E-17,0.70710678118655));
#1199=DIRECTION('ref_axis',(0.70710678118655,0.,-0.707106781186545));
#1200=DIRECTION('',(0.577350269189628,0.577350269189625,-0.577350269189625));
#1201=DIRECTION('',(0.,-1.,1.73472347597681E-17));
#1202=DIRECTION('',(-0.577350269189629,0.577350269189624,0.577350269189625));
#1203=DIRECTION('center_axis',(-0.707106781186545,-1.2266347333467E-17,
-0.70710678118655));
#1204=DIRECTION('ref_axis',(0.70710678118655,0.,-0.707106781186545));
#1205=DIRECTION('center_axis',(0.,0.707106781186547,0.707106781186548));
#1206=DIRECTION('ref_axis',(1.,0.,0.));
#1207=DIRECTION('',(-1.,0.,0.));
#1208=DIRECTION('',(0.,0.707106781186547,-0.707106781186548));
#1209=DIRECTION('',(1.,0.,0.));
#1210=DIRECTION('center_axis',(0.,0.,-1.));
#1211=DIRECTION('ref_axis',(0.707106781186548,-0.707106781186548,0.));
#1212=DIRECTION('center_axis',(0.,0.707106781186548,-0.707106781186548));
#1213=DIRECTION('ref_axis',(0.,-0.707106781186547,-0.707106781186547));
#1214=DIRECTION('',(0.,0.,-1.));
#1215=DIRECTION('center_axis',(0.,1.,0.));
#1216=DIRECTION('ref_axis',(1.,0.,0.));
#1217=DIRECTION('',(1.,0.,0.));
#1218=DIRECTION('center_axis',(0.,-1.,0.));
#1219=DIRECTION('ref_axis',(-0.707106781186548,0.,-0.707106781186547));
#1220=DIRECTION('',(0.,0.,-1.));
#1221=DIRECTION('',(1.,0.,0.));
#1222=DIRECTION('',(0.,0.,1.));
#1223=DIRECTION('center_axis',(0.,-1.,0.));
#1224=DIRECTION('ref_axis',(0.707106781186548,0.,-0.707106781186547));
#1225=DIRECTION('',(1.,0.,0.));
#1226=DIRECTION('',(0.,0.,1.));
#1227=DIRECTION('center_axis',(0.,1.,0.));
#1228=DIRECTION('ref_axis',(1.,0.,0.));
#1229=DIRECTION('center_axis',(0.,1.,0.));
#1230=DIRECTION('ref_axis',(1.,0.,0.));
#1231=DIRECTION('center_axis',(0.,-0.707106781186548,0.707106781186548));
#1232=DIRECTION('ref_axis',(1.,0.,0.));
#1233=DIRECTION('',(-1.,0.,0.));
#1234=DIRECTION('',(0.,-0.707106781186547,-0.707106781186548));
#1235=DIRECTION('center_axis',(0.,0.,1.));
#1236=DIRECTION('ref_axis',(-0.707106781186548,-0.707106781186548,0.));
#1237=DIRECTION('center_axis',(0.,0.707106781186547,-0.707106781186548));
#1238=DIRECTION('ref_axis',(0.,-0.707106781186548,-0.707106781186547));
#1239=DIRECTION('center_axis',(0.,-0.707106781186547,0.707106781186548));
#1240=DIRECTION('ref_axis',(1.,0.,0.));
#1241=DIRECTION('',(0.,-0.707106781186547,-0.707106781186548));
#1242=DIRECTION('',(-1.,0.,0.));
#1243=DIRECTION('center_axis',(-0.577350269189626,0.577350269189626,0.577350269189626));
#1244=DIRECTION('ref_axis',(0.707106781186548,0.,0.707106781186548));
#1245=DIRECTION('',(0.707106781186548,0.707106781186548,0.));
#1246=DIRECTION('',(-0.707106781186548,0.,-0.707106781186548));
#1247=DIRECTION('',(0.,-0.707106781186548,0.707106781186548));
#1248=DIRECTION('center_axis',(0.577350269189626,0.577350269189626,0.577350269189626));
#1249=DIRECTION('ref_axis',(0.707106781186548,0.,-0.707106781186548));
#1250=DIRECTION('',(0.,0.707106781186548,-0.707106781186548));
#1251=DIRECTION('',(-0.707106781186548,0.,0.707106781186548));
#1252=DIRECTION('',(0.707106781186548,-0.707106781186548,0.));
#1253=DIRECTION('center_axis',(-0.577350269189626,-0.577350269189626,0.577350269189626));
#1254=DIRECTION('ref_axis',(0.707106781186548,0.,0.707106781186548));
#1255=DIRECTION('',(0.,-0.707106781186548,-0.707106781186548));
#1256=DIRECTION('',(0.707106781186548,0.,0.707106781186548));
#1257=DIRECTION('',(-0.707106781186548,0.707106781186548,0.));
#1258=DIRECTION('center_axis',(-0.707106781186548,0.,0.707106781186548));
#1259=DIRECTION('ref_axis',(0.707106781186547,0.,0.707106781186547));
#1260=DIRECTION('',(0.,-1.,0.));
#1261=DIRECTION('',(0.,1.,0.));
#1262=DIRECTION('center_axis',(-0.707106781186548,-0.707106781186548,0.));
#1263=DIRECTION('ref_axis',(0.,0.,1.));
#1264=DIRECTION('',(0.707106781186548,-0.707106781186548,0.));
#1265=DIRECTION('',(0.,0.,-1.));
#1266=DIRECTION('center_axis',(0.,-1.,0.));
#1267=DIRECTION('ref_axis',(0.707106781186548,0.,-0.707106781186547));
#1268=DIRECTION('center_axis',(0.,1.,0.));
#1269=DIRECTION('ref_axis',(0.707106781186548,0.,-0.707106781186547));
#1270=DIRECTION('center_axis',(0.577350269189626,-0.577350269189626,0.577350269189626));
#1271=DIRECTION('ref_axis',(0.707106781186548,0.,-0.707106781186548));
#1272=DIRECTION('',(-0.707106781186548,-0.707106781186548,0.));
#1273=DIRECTION('',(0.707106781186548,0.,-0.707106781186548));
#1274=DIRECTION('',(0.,0.707106781186548,0.707106781186548));
#1275=DIRECTION('center_axis',(0.707106781186548,0.,0.707106781186548));
#1276=DIRECTION('ref_axis',(0.707106781186547,0.,-0.707106781186547));
#1277=DIRECTION('',(0.,1.,0.));
#1278=DIRECTION('',(0.,-1.,0.));
#1279=DIRECTION('center_axis',(0.,-0.707106781186548,0.707106781186548));
#1280=DIRECTION('ref_axis',(1.,0.,0.));
#1281=DIRECTION('',(-1.,0.,0.));
#1282=DIRECTION('center_axis',(0.,-1.,0.));
#1283=DIRECTION('ref_axis',(-0.707106781186548,0.,-0.707106781186547));
#1284=DIRECTION('center_axis',(0.,1.,0.));
#1285=DIRECTION('ref_axis',(-0.707106781186548,0.,-0.707106781186547));
#1286=DIRECTION('',(-0.707106781186548,-0.707106781186548,0.));
#1287=DIRECTION('center_axis',(0.707106781186548,-0.707106781186548,0.));
#1288=DIRECTION('ref_axis',(0.,0.,-1.));
#1289=DIRECTION('',(0.,0.,1.));
#1290=DIRECTION('center_axis',(0.707106781186548,0.707106781186548,0.));
#1291=DIRECTION('ref_axis',(0.,0.,-1.));
#1292=DIRECTION('',(-0.707106781186548,0.707106781186548,0.));
#1293=DIRECTION('',(0.,0.,1.));
#1294=DIRECTION('',(0.,0.,-1.));
#1295=DIRECTION('center_axis',(0.,1.,0.));
#1296=DIRECTION('ref_axis',(-0.707106781186548,0.,-0.707106781186547));
#1297=DIRECTION('center_axis',(0.,-1.,0.));
#1298=DIRECTION('ref_axis',(-0.707106781186548,0.,-0.707106781186547));
#1299=DIRECTION('center_axis',(0.,1.,0.));
#1300=DIRECTION('ref_axis',(-0.707106781186548,0.,-0.707106781186547));
#1301=DIRECTION('center_axis',(0.,0.707106781186548,0.707106781186548));
#1302=DIRECTION('ref_axis',(1.,0.,0.));
#1303=DIRECTION('',(-1.,0.,0.));
#1304=DIRECTION('',(1.,0.,0.));
#1305=DIRECTION('center_axis',(0.,0.707106781186548,0.707106781186548));
#1306=DIRECTION('ref_axis',(1.,0.,0.));
#1307=DIRECTION('',(1.,0.,0.));
#1308=DIRECTION('',(0.,0.707106781186547,-0.707106781186548));
#1309=DIRECTION('',(-1.,0.,0.));
#1310=DIRECTION('center_axis',(0.,1.,0.));
#1311=DIRECTION('ref_axis',(0.707106781186548,0.,-0.707106781186547));
#1312=DIRECTION('center_axis',(0.,-1.,0.));
#1313=DIRECTION('ref_axis',(0.707106781186548,0.,-0.707106781186547));
#1314=DIRECTION('',(0.707106781186548,0.707106781186548,0.));
#1315=DIRECTION('center_axis',(0.,1.,0.));
#1316=DIRECTION('ref_axis',(0.707106781186548,0.,-0.707106781186547));
#1317=DIRECTION('center_axis',(-0.707106781186548,0.707106781186548,0.));
#1318=DIRECTION('ref_axis',(0.,0.,1.));
#1319=DIRECTION('',(0.,0.,1.));
#1320=DIRECTION('',(0.,0.,-1.));
#1321=DIRECTION('center_axis',(1.,0.,0.));
#1322=DIRECTION('ref_axis',(0.,0.,1.));
#1323=DIRECTION('',(0.,-1.,1.73472347597681E-17));
#1324=DIRECTION('center_axis',(-1.,0.,0.));
#1325=DIRECTION('ref_axis',(0.,0.,1.));
#1326=DIRECTION('',(0.,1.,1.73472347597681E-17));
#1327=DIRECTION('center_axis',(0.,0.,1.));
#1328=DIRECTION('ref_axis',(-1.,0.,0.));
#1329=DIRECTION('',(0.,-1.,0.));
#1330=DIRECTION('',(-1.,0.,0.));
#1331=DIRECTION('',(0.,1.,0.));
#1332=DIRECTION('',(1.,0.,0.));
#1333=DIRECTION('center_axis',(-2.45326952152824E-17,0.707106781186548,
-0.707106781186547));
#1334=DIRECTION('ref_axis',(-1.,0.,3.4694470295018E-17));
#1335=DIRECTION('',(0.577350269189626,0.577350269189626,0.577350269189626));
#1336=DIRECTION('',(1.,0.,-3.4694470295018E-17));
#1337=DIRECTION('',(-0.577350269189626,0.577350269189625,0.577350269189626));
#1338=DIRECTION('center_axis',(0.707106781186547,0.,-0.707106781186548));
#1339=DIRECTION('ref_axis',(-0.707106781186548,0.,-0.707106781186547));
#1340=DIRECTION('',(0.577350269189626,-0.577350269189626,0.577350269189626));
#1341=DIRECTION('',(0.,-1.,0.));
#1342=DIRECTION('center_axis',(-2.45326952152824E-17,-0.707106781186548,
-0.707106781186547));
#1343=DIRECTION('ref_axis',(-1.,0.,3.4694470295018E-17));
#1344=DIRECTION('',(-0.577350269189626,-0.577350269189625,0.577350269189626));
#1345=DIRECTION('',(-1.,0.,3.4694470295018E-17));
#1346=DIRECTION('center_axis',(-0.707106781186548,0.,-0.707106781186547));
#1347=DIRECTION('ref_axis',(-0.707106781186547,0.,0.707106781186548));
#1348=DIRECTION('',(0.,1.,0.));
#1349=DIRECTION('center_axis',(-1.,0.,0.));
#1350=DIRECTION('ref_axis',(0.,0.,1.));
#1351=DIRECTION('',(0.,0.,-1.));
#1352=DIRECTION('',(0.,-1.,0.));
#1353=DIRECTION('',(0.,0.,1.));
#1354=DIRECTION('center_axis',(0.,1.,0.));
#1355=DIRECTION('ref_axis',(1.,0.,0.));
#1356=DIRECTION('',(0.,0.,1.));
#1357=DIRECTION('',(-1.,0.,0.));
#1358=DIRECTION('center_axis',(0.,1.,0.));
#1359=DIRECTION('ref_axis',(1.,0.,0.));
#1360=DIRECTION('center_axis',(0.,1.,0.));
#1361=DIRECTION('ref_axis',(1.,0.,0.));
#1362=DIRECTION('center_axis',(0.707106781186548,0.,0.707106781186548));
#1363=DIRECTION('ref_axis',(0.707106781186547,0.,-0.707106781186547));
#1364=DIRECTION('',(0.577350269189626,0.577350269189626,-0.577350269189626));
#1365=DIRECTION('',(0.,1.,0.));
#1366=DIRECTION('',(0.577350269189626,-0.577350269189626,-0.577350269189626));
#1367=DIRECTION('center_axis',(0.,0.707106781186548,0.707106781186547));
#1368=DIRECTION('ref_axis',(1.,0.,0.));
#1369=DIRECTION('',(-0.577350269189626,0.577350269189626,-0.577350269189626));
#1370=DIRECTION('center_axis',(-0.707106781186548,0.,0.707106781186548));
#1371=DIRECTION('ref_axis',(0.707106781186547,0.,0.707106781186547));
#1372=DIRECTION('',(-0.577350269189626,-0.577350269189626,-0.577350269189626));
#1373=DIRECTION('center_axis',(0.,-0.707106781186548,0.707106781186547));
#1374=DIRECTION('ref_axis',(1.,0.,0.));
#1375=DIRECTION('',(1.,0.,0.));
#1376=DIRECTION('center_axis',(0.,1.,0.));
#1377=DIRECTION('ref_axis',(1.,0.,0.));
#1378=DIRECTION('',(0.,0.,-1.));
#1379=DIRECTION('center_axis',(0.,-1.,0.));
#1380=DIRECTION('ref_axis',(1.,0.,0.));
#1381=DIRECTION('center_axis',(0.,-1.,0.));
#1382=DIRECTION('ref_axis',(1.,0.,0.));
#1383=DIRECTION('center_axis',(1.,0.,0.));
#1384=DIRECTION('ref_axis',(0.,0.,-1.));
#1385=DIRECTION('center_axis',(0.,1.,-1.73472347597681E-17));
#1386=DIRECTION('ref_axis',(-0.707106781186548,0.,-0.707106781186547));
#1387=DIRECTION('',(0.,1.,-1.73472347597681E-17));
#1388=DIRECTION('center_axis',(0.,1.73472347597681E-17,1.));
#1389=DIRECTION('ref_axis',(0.,-1.,1.73472347597681E-17));
#1390=DIRECTION('center_axis',(0.,-1.73472347597681E-17,-1.));
#1391=DIRECTION('ref_axis',(1.,0.,0.));
#1392=DIRECTION('center_axis',(0.,-1.73472347597681E-17,-1.));
#1393=DIRECTION('ref_axis',(1.,0.,0.));
#1394=DIRECTION('center_axis',(0.,-1.,-1.73472347597681E-17));
#1395=DIRECTION('ref_axis',(0.707106781186548,0.,-0.707106781186547));
#1396=DIRECTION('',(0.,-1.,-1.73472347597681E-17));
#1397=DIRECTION('center_axis',(0.,-1.73472347597681E-17,1.));
#1398=DIRECTION('ref_axis',(0.,1.,1.73472347597681E-17));
#1399=DIRECTION('center_axis',(0.,1.73472347597681E-17,-1.));
#1400=DIRECTION('ref_axis',(1.,0.,0.));
#1401=DIRECTION('center_axis',(0.,1.73472347597681E-17,-1.));
#1402=DIRECTION('ref_axis',(1.,0.,0.));
#1403=DIRECTION('center_axis',(0.,0.,1.));
#1404=DIRECTION('ref_axis',(1.,0.,0.));
#1405=DIRECTION('',(0.,0.,1.));
#1406=DIRECTION('center_axis',(0.,0.,1.));
#1407=DIRECTION('ref_axis',(1.,0.,0.));
#1408=DIRECTION('',(0.,0.,1.));
#1409=DIRECTION('center_axis',(0.,0.,1.));
#1410=DIRECTION('ref_axis',(1.,0.,0.));
#1411=DIRECTION('',(0.,0.,1.));
#1412=DIRECTION('center_axis',(0.,0.,1.));
#1413=DIRECTION('ref_axis',(1.,0.,0.));
#1414=DIRECTION('',(0.,0.,1.));
#1415=DIRECTION('center_axis',(0.,1.,0.));
#1416=DIRECTION('ref_axis',(1.,0.,0.));
#1417=DIRECTION('center_axis',(0.,-1.,0.));
#1418=DIRECTION('ref_axis',(1.,0.,0.));
#1419=DIRECTION('',(0.,-1.,0.));
#1420=DIRECTION('center_axis',(0.,1.,0.));
#1421=DIRECTION('ref_axis',(1.,0.,0.));
#1422=DIRECTION('center_axis',(0.,-1.,0.));
#1423=DIRECTION('ref_axis',(1.,0.,0.));
#1424=DIRECTION('',(0.,-1.,0.));
#1425=DIRECTION('center_axis',(0.,1.,0.));
#1426=DIRECTION('ref_axis',(1.,0.,0.));
#1427=DIRECTION('center_axis',(0.,-1.,0.));
#1428=DIRECTION('ref_axis',(1.,0.,0.));
#1429=DIRECTION('',(0.,1.,0.));
#1430=DIRECTION('center_axis',(0.,-1.,0.));
#1431=DIRECTION('ref_axis',(1.,0.,0.));
#1432=DIRECTION('',(0.,1.,0.));
#1433=CARTESIAN_POINT('',(0.,0.,0.));
#1434=CARTESIAN_POINT('Origin',(-29.799999657273,1.8,2.23844656323787));
#1435=CARTESIAN_POINT('',(-29.799999657273,2.66666666666666,-0.280303436762112));
#1436=CARTESIAN_POINT('',(-30.6666663239397,1.8,-0.280303436762112));
#1437=CARTESIAN_POINT('Origin',(-29.799999657273,1.8,-0.280303436762112));
#1438=CARTESIAN_POINT('',(-30.6666663239397,1.8,2.64469656323787));
#1439=CARTESIAN_POINT('',(-30.6666663239397,1.8,2.23844656323787));
#1440=CARTESIAN_POINT('',(-30.4128255343014,2.41282587702834,2.89853735287619));
#1441=CARTESIAN_POINT('Origin',(-29.799999657273,1.8,3.51136322990452));
#1442=CARTESIAN_POINT('',(-29.799999657273,2.66666666666666,2.64469656323787));
#1443=CARTESIAN_POINT('Origin',(-29.799999657273,1.8,3.51136322990453));
#1444=CARTESIAN_POINT('',(-29.799999657273,2.66666666666666,2.23844656323787));
#1445=CARTESIAN_POINT('Origin',(-30.449999657273,-10.3333333333332,2.86136322990453));
#1446=CARTESIAN_POINT('',(-30.6666663239397,-13.7999999999999,2.64469656323787));
#1447=CARTESIAN_POINT('',(-30.6666663239397,-10.3333333333332,2.64469656323787));
#1448=CARTESIAN_POINT('',(-30.4128255343014,-14.4128258770282,2.89853735287619));
#1449=CARTESIAN_POINT('Origin',(-29.799999657273,-13.7999999999999,3.51136322990452));
#1450=CARTESIAN_POINT('',(-30.2333329906064,-14.2333333333332,3.0780298965712));
#1451=CARTESIAN_POINT('',(-30.2333329906064,-14.2333333333332,3.0780298965712));
#1452=CARTESIAN_POINT('',(-30.2333329906064,2.23333333333333,3.0780298965712));
#1453=CARTESIAN_POINT('',(-30.2333329906064,-10.3333333333332,3.0780298965712));
#1454=CARTESIAN_POINT('',(-30.6666663239397,2.66666666666666,2.64469656323787));
#1455=CARTESIAN_POINT('Origin',(-30.6666663239397,-5.99999999999994,1.39886322990454));
#1456=CARTESIAN_POINT('',(-30.6666663239397,-13.7999999999999,-0.280303436762112));
#1457=CARTESIAN_POINT('',(-30.6666663239397,2.66666666666666,-0.280303436762112));
#1458=CARTESIAN_POINT('',(-30.6666663239397,-13.7999999999999,2.23844656323787));
#1459=CARTESIAN_POINT('Origin',(-21.9999996572731,-5.99999999999994,-0.280303436762112));
#1460=CARTESIAN_POINT('',(3.13333328862986,2.66666666666666,-0.280303436762112));
#1461=CARTESIAN_POINT('',(-4.66666671137008,2.66666666666666,-0.280303436762112));
#1462=CARTESIAN_POINT('',(3.99999995529652,1.8,-0.280303436762112));
#1463=CARTESIAN_POINT('Origin',(3.13333328862986,1.8,-0.280303436762112));
#1464=CARTESIAN_POINT('',(3.99999995529652,-13.7999999999999,-0.280303436762112));
#1465=CARTESIAN_POINT('',(3.99999995529652,-14.6666666666665,-0.280303436762112));
#1466=CARTESIAN_POINT('',(3.13333328862985,-14.6666666666665,-0.280303436762112));
#1467=CARTESIAN_POINT('Origin',(3.13333328862986,-13.7999999999999,-0.280303436762112));
#1468=CARTESIAN_POINT('',(-29.799999657273,-14.6666666666665,-0.280303436762112));
#1469=CARTESIAN_POINT('',(-21.9999996572731,-14.6666666666665,-0.280303436762112));
#1470=CARTESIAN_POINT('Origin',(-29.799999657273,-13.7999999999999,-0.280303436762112));
#1471=CARTESIAN_POINT('',(-25.8333329906064,-1.66666676352419,-0.280303436762112));
#1472=CARTESIAN_POINT('Origin',(-25.2499996572731,-1.66666676352419,-0.280303436762112));
#1473=CARTESIAN_POINT('',(-25.8333329906064,-10.3333333333332,-0.280303436762112));
#1474=CARTESIAN_POINT('Origin',(-25.2499996572731,-10.3333333333332,-0.280303436762112));
#1475=CARTESIAN_POINT('',(-2.00000004470343,-1.66666676352419,-0.280303436762112));
#1476=CARTESIAN_POINT('Origin',(-1.41666671137011,-1.66666676352419,-0.280303436762112));
#1477=CARTESIAN_POINT('',(-2.00000004470343,-10.3333333333332,-0.280303436762112));
#1478=CARTESIAN_POINT('Origin',(-1.41666671137011,-10.3333333333332,-0.280303436762112));
#1479=CARTESIAN_POINT('',(-6.4000000447034,-8.59999999999992,-0.280303436762113));
#1480=CARTESIAN_POINT('',(-20.2666663239398,-8.59999999999992,-0.280303436762112));
#1481=CARTESIAN_POINT('',(-17.6666664207973,-8.59999999999992,-0.280303436762112));
#1482=CARTESIAN_POINT('',(-6.4000000447034,-3.39999999999996,-0.280303436762113));
#1483=CARTESIAN_POINT('',(-6.4000000447034,-7.08333333333327,-0.280303436762113));
#1484=CARTESIAN_POINT('',(-20.2666663239398,-3.39999999999996,-0.280303436762112));
#1485=CARTESIAN_POINT('',(-17.6666664207973,-3.39999999999996,-0.280303436762112));
#1486=CARTESIAN_POINT('',(-20.2666663239398,-7.08333333333327,-0.280303436762112));
#1487=CARTESIAN_POINT('Origin',(3.13333328862986,1.8,2.23844656323787));
#1488=CARTESIAN_POINT('',(3.74615916565819,2.41282587702834,2.89853735287619));
#1489=CARTESIAN_POINT('',(3.99999995529652,1.8,2.64469656323787));
#1490=CARTESIAN_POINT('Origin',(3.13333328862986,1.8,3.51136322990452));
#1491=CARTESIAN_POINT('',(3.99999995529652,1.8,2.23844656323787));
#1492=CARTESIAN_POINT('',(3.13333328862986,2.66666666666666,2.64469656323787));
#1493=CARTESIAN_POINT('',(3.13333328862986,2.66666666666666,2.23844656323787));
#1494=CARTESIAN_POINT('Origin',(3.13333328862986,1.8,3.51136322990453));
#1495=CARTESIAN_POINT('Origin',(3.99999995529652,-5.99999999999994,1.39886322990454));
#1496=CARTESIAN_POINT('',(3.99999995529652,-13.7999999999999,2.64469656323787));
#1497=CARTESIAN_POINT('',(3.99999995529652,-1.66666666666664,2.64469656323787));
#1498=CARTESIAN_POINT('',(3.99999995529652,-13.7999999999999,2.23844656323787));
#1499=CARTESIAN_POINT('Origin',(3.78333328862985,-1.66666666666664,2.86136322990453));
#1500=CARTESIAN_POINT('',(3.56666662196318,2.23333333333333,3.0780298965712));
#1501=CARTESIAN_POINT('',(3.56666662196318,2.23333333333333,3.0780298965712));
#1502=CARTESIAN_POINT('',(3.56666662196318,-14.2333333333332,3.0780298965712));
#1503=CARTESIAN_POINT('',(3.56666662196318,-1.66666666666664,3.0780298965712));
#1504=CARTESIAN_POINT('',(3.74615916565819,-14.4128258770282,2.89853735287619));
#1505=CARTESIAN_POINT('',(3.99999995529652,-14.6666666666665,2.64469656323787));
#1506=CARTESIAN_POINT('Origin',(3.13333328862986,-13.7999999999999,3.51136322990452));
#1507=CARTESIAN_POINT('Origin',(-8.99999994784584,2.44999999999999,2.86136322990453));
#1508=CARTESIAN_POINT('',(-3.80000004470342,2.66666666666666,2.64469656323786));
#1509=CARTESIAN_POINT('',(-8.99999994784584,2.66666666666666,2.64469656323787));
#1510=CARTESIAN_POINT('',(-3.80000004470342,2.23333333333333,3.0780298965712));
#1511=CARTESIAN_POINT('',(-3.80000004470342,2.23333333333333,3.0780298965712));
#1512=CARTESIAN_POINT('',(-8.99999994784584,2.23333333333333,3.0780298965712));
#1513=CARTESIAN_POINT('Origin',(3.13333328862986,-13.7999999999999,2.23844656323787));
#1514=CARTESIAN_POINT('',(3.13333328862986,-14.6666666666665,2.64469656323787));
#1515=CARTESIAN_POINT('Origin',(3.13333328862986,-13.7999999999999,3.51136322990453));
#1516=CARTESIAN_POINT('',(3.13333328862986,-14.6666666666665,2.23844656323787));
#1517=CARTESIAN_POINT('Origin',(-13.3333331843216,-14.6666666666665,3.0780298965712));
#1518=CARTESIAN_POINT('',(-3.80000004470342,-14.6666666666665,2.64469656323787));
#1519=CARTESIAN_POINT('',(-8.99999994784584,-14.6666666666665,2.64469656323787));
#1520=CARTESIAN_POINT('',(-5.10000004470341,-14.6666666666665,3.94469656323786));
#1521=CARTESIAN_POINT('Origin',(-3.80000004470342,-14.6666666666665,3.94469656323786));
#1522=CARTESIAN_POINT('',(-5.10000004470342,-14.6666666666665,6.00302989657117));
#1523=CARTESIAN_POINT('',(-5.10000004470342,-14.6666666666665,1.39886322990454));
#1524=CARTESIAN_POINT('',(-21.5666663239398,-14.6666666666665,6.00302989657117));
#1525=CARTESIAN_POINT('',(-8.99999994784584,-14.6666666666665,6.00302989657117));
#1526=CARTESIAN_POINT('',(-21.5666663239398,-14.6666666666665,3.94469656323786));
#1527=CARTESIAN_POINT('',(-21.5666663239398,-14.6666666666665,1.39886322990454));
#1528=CARTESIAN_POINT('',(-22.8666663239398,-14.6666666666665,2.64469656323786));
#1529=CARTESIAN_POINT('Origin',(-22.8666663239398,-14.6666666666665,3.94469656323786));
#1530=CARTESIAN_POINT('',(-29.799999657273,-14.6666666666665,2.64469656323787));
#1531=CARTESIAN_POINT('',(-17.6666664207973,-14.6666666666665,2.64469656323787));
#1532=CARTESIAN_POINT('',(-29.799999657273,-14.6666666666665,2.23844656323787));
#1533=CARTESIAN_POINT('',(-19.0749236743722,-14.6666666666665,3.0780298965712));
#1534=CARTESIAN_POINT('Origin',(-16.4749236743722,-14.6666666666665,3.0780298965712));
#1535=CARTESIAN_POINT('',(-12.7915903410389,-14.6666666666665,3.0780298965712));
#1536=CARTESIAN_POINT('Origin',(-10.191590341039,-14.6666666666665,3.0780298965712));
#1537=CARTESIAN_POINT('Origin',(-8.99999994784584,-14.4499999999999,2.86136322990453));
#1538=CARTESIAN_POINT('',(-3.80000004470342,-14.2333333333332,3.0780298965712));
#1539=CARTESIAN_POINT('',(-8.99999994784584,-14.2333333333332,3.0780298965712));
#1540=CARTESIAN_POINT('',(-3.80000004470342,-14.2333333333332,3.0780298965712));
#1541=CARTESIAN_POINT('Origin',(-29.799999657273,-13.7999999999999,2.23844656323787));
#1542=CARTESIAN_POINT('Origin',(-29.799999657273,-13.7999999999999,3.51136322990453));
#1543=CARTESIAN_POINT('Origin',(-17.6666664207973,-14.4499999999999,2.86136322990453));
#1544=CARTESIAN_POINT('',(-22.8666663239398,-14.2333333333332,3.0780298965712));
#1545=CARTESIAN_POINT('',(-22.8666663239398,-14.2333333333332,3.0780298965712));
#1546=CARTESIAN_POINT('',(-17.6666664207973,-14.2333333333332,3.0780298965712));
#1547=CARTESIAN_POINT('Origin',(-21.5666663239398,2.23333333333333,6.4363632299045));
#1548=CARTESIAN_POINT('',(-21.9999996572731,2.23333333333333,6.00302989657117));
#1549=CARTESIAN_POINT('',(-21.5666663239398,2.66666666666666,6.00302989657117));
#1550=CARTESIAN_POINT('',(-21.9999996572731,2.23333333333333,6.00302989657117));
#1551=CARTESIAN_POINT('',(-21.5666663239398,2.23333333333333,6.4363632299045));
#1552=CARTESIAN_POINT('',(-21.5666663239398,2.23333333333333,6.4363632299045));
#1553=CARTESIAN_POINT('',(-21.5666663239398,2.66666666666666,6.00302989657117));
#1554=CARTESIAN_POINT('Origin',(-4.66666671137008,2.23333333333333,6.00302989657117));
#1555=CARTESIAN_POINT('',(-5.10000004470342,2.23333333333333,6.4363632299045));
#1556=CARTESIAN_POINT('',(-5.10000004470342,2.66666666666666,6.00302989657117));
#1557=CARTESIAN_POINT('',(-5.10000004470342,2.23333333333333,6.4363632299045));
#1558=CARTESIAN_POINT('',(-4.66666671137008,2.23333333333333,6.00302989657117));
#1559=CARTESIAN_POINT('',(-4.66666671137008,2.23333333333333,6.00302989657117));
#1560=CARTESIAN_POINT('',(-5.10000004470342,2.66666666666666,6.00302989657117));
#1561=CARTESIAN_POINT('Origin',(-21.9999996572731,-14.2333333333332,6.00302989657117));
#1562=CARTESIAN_POINT('',(-21.5666663239398,-14.2333333333332,6.4363632299045));
#1563=CARTESIAN_POINT('',(-21.5666663239398,-14.2333333333332,6.4363632299045));
#1564=CARTESIAN_POINT('',(-21.9999996572731,-14.2333333333332,6.00302989657117));
#1565=CARTESIAN_POINT('',(-21.9999996572731,-14.2333333333332,6.00302989657117));
#1566=CARTESIAN_POINT('',(-21.5666663239398,-14.6666666666665,6.00302989657117));
#1567=CARTESIAN_POINT('Origin',(-21.7833329906064,-5.99999999999994,6.21969656323784));
#1568=CARTESIAN_POINT('',(-21.9999996572731,-5.99999999999994,6.00302989657117));
#1569=CARTESIAN_POINT('',(-21.5666663239398,-5.99999999999994,6.4363632299045));
#1570=CARTESIAN_POINT('Origin',(-21.7833329906064,-14.4499999999999,1.39886322990454));
#1571=CARTESIAN_POINT('',(-21.9999996572731,-14.2333333333332,3.94469656323786));
#1572=CARTESIAN_POINT('',(-21.9999996572731,-14.2333333333332,3.94469656323786));
#1573=CARTESIAN_POINT('',(-21.9999996572731,-14.2333333333332,1.39886322990454));
#1574=CARTESIAN_POINT('Origin',(-22.8666663239398,-14.4499999999999,3.94469656323786));
#1575=CARTESIAN_POINT('Origin',(-22.8666663239398,-14.2333333333332,3.94469656323786));
#1576=CARTESIAN_POINT('Origin',(-5.10000004470342,-14.2333333333332,6.4363632299045));
#1577=CARTESIAN_POINT('',(-4.66666671137008,-14.2333333333332,6.00302989657117));
#1578=CARTESIAN_POINT('',(-4.66666671137008,-14.2333333333332,6.00302989657117));
#1579=CARTESIAN_POINT('',(-5.10000004470342,-14.2333333333332,6.4363632299045));
#1580=CARTESIAN_POINT('',(-5.10000004470342,-14.2333333333332,6.4363632299045));
#1581=CARTESIAN_POINT('',(-5.10000004470342,-14.6666666666665,6.00302989657117));
#1582=CARTESIAN_POINT('Origin',(-4.88333337803675,-5.99999999999994,6.21969656323784));
#1583=CARTESIAN_POINT('',(-4.66666671137008,-5.99999999999994,6.00302989657117));
#1584=CARTESIAN_POINT('',(-5.10000004470342,-5.99999999999994,6.4363632299045));
#1585=CARTESIAN_POINT('Origin',(-8.99999994784584,-14.4499999999999,6.21969656323784));
#1586=CARTESIAN_POINT('',(-8.99999994784584,-14.2333333333332,6.4363632299045));
#1587=CARTESIAN_POINT('Origin',(-3.80000004470342,-14.4499999999999,3.94469656323786));
#1588=CARTESIAN_POINT('',(-4.66666671137008,-14.2333333333332,3.94469656323786));
#1589=CARTESIAN_POINT('Origin',(-3.80000004470342,-14.2333333333332,3.94469656323786));
#1590=CARTESIAN_POINT('',(-4.66666671137008,-14.2333333333332,3.94469656323786));
#1591=CARTESIAN_POINT('Origin',(-4.88333337803675,-14.4499999999999,1.39886322990454));
#1592=CARTESIAN_POINT('',(-4.66666671137008,-14.2333333333332,1.39886322990454));
#1593=CARTESIAN_POINT('Origin',(-4.88333337803675,2.44999999999999,1.39886322990454));
#1594=CARTESIAN_POINT('',(-4.66666671137008,2.23333333333333,3.94469656323786));
#1595=CARTESIAN_POINT('',(-5.10000004470342,2.66666666666666,3.94469656323786));
#1596=CARTESIAN_POINT('',(-4.66666671137008,2.23333333333333,3.94469656323786));
#1597=CARTESIAN_POINT('',(-5.10000004470342,2.66666666666666,1.39886322990454));
#1598=CARTESIAN_POINT('',(-4.66666671137008,2.23333333333333,1.39886322990454));
#1599=CARTESIAN_POINT('Origin',(-3.80000004470342,2.44999999999999,3.94469656323786));
#1600=CARTESIAN_POINT('Origin',(-3.80000004470342,2.23333333333333,3.94469656323786));
#1601=CARTESIAN_POINT('Origin',(-3.80000004470342,2.66666666666666,3.94469656323786));
#1602=CARTESIAN_POINT('Origin',(-8.99999994784584,2.44999999999999,6.21969656323784));
#1603=CARTESIAN_POINT('',(-8.99999994784584,2.66666666666666,6.00302989657117));
#1604=CARTESIAN_POINT('',(-8.99999994784584,2.23333333333333,6.4363632299045));
#1605=CARTESIAN_POINT('Origin',(-17.6666664207973,2.44999999999999,2.86136322990453));
#1606=CARTESIAN_POINT('',(-22.8666663239398,2.23333333333333,3.0780298965712));
#1607=CARTESIAN_POINT('',(-17.6666664207973,2.23333333333333,3.0780298965712));
#1608=CARTESIAN_POINT('',(-22.8666663239398,2.66666666666666,2.64469656323787));
#1609=CARTESIAN_POINT('',(-22.8666663239398,2.23333333333333,3.0780298965712));
#1610=CARTESIAN_POINT('',(-17.6666664207973,2.66666666666666,2.64469656323787));
#1611=CARTESIAN_POINT('Origin',(-22.8666663239398,2.44999999999999,3.94469656323786));
#1612=CARTESIAN_POINT('',(-21.9999996572731,2.23333333333333,3.94469656323786));
#1613=CARTESIAN_POINT('Origin',(-22.8666663239398,2.23333333333333,3.94469656323786));
#1614=CARTESIAN_POINT('',(-21.5666663239398,2.66666666666666,3.94469656323786));
#1615=CARTESIAN_POINT('',(-21.9999996572731,2.23333333333333,3.94469656323786));
#1616=CARTESIAN_POINT('Origin',(-22.8666663239398,2.66666666666666,3.94469656323786));
#1617=CARTESIAN_POINT('Origin',(-21.7833329906064,2.44999999999999,1.39886322990454));
#1618=CARTESIAN_POINT('',(-21.9999996572731,2.23333333333333,1.39886322990454));
#1619=CARTESIAN_POINT('',(-21.5666663239398,2.66666666666666,1.39886322990454));
#1620=CARTESIAN_POINT('Origin',(-4.66666671137008,-5.99999999999994,-0.280303436762112));
#1621=CARTESIAN_POINT('',(-4.66666671137008,-1.66666666666664,3.94469656323786));
#1622=CARTESIAN_POINT('Origin',(-21.9999996572731,-5.99999999999994,-0.280303436762112));
#1623=CARTESIAN_POINT('',(-21.9999996572731,-10.3333333333332,3.94469656323786));
#1624=CARTESIAN_POINT('Origin',(-4.66666671137008,-5.99999999999994,6.4363632299045));
#1625=CARTESIAN_POINT('',(-20.2666663239398,-3.39999999999996,6.4363632299045));
#1626=CARTESIAN_POINT('',(-20.2666663239398,-8.59999999999992,6.4363632299045));
#1627=CARTESIAN_POINT('',(-20.2666663239398,-7.08333333333327,6.4363632299045));
#1628=CARTESIAN_POINT('',(-6.4000000447034,-3.39999999999996,6.4363632299045));
#1629=CARTESIAN_POINT('',(-8.99999994784584,-3.39999999999996,6.4363632299045));
#1630=CARTESIAN_POINT('',(-6.4000000447034,-8.59999999999992,6.4363632299045));
#1631=CARTESIAN_POINT('',(-6.4000000447034,-7.08333333333327,6.4363632299045));
#1632=CARTESIAN_POINT('',(-8.99999994784584,-8.59999999999992,6.4363632299045));
#1633=CARTESIAN_POINT('Origin',(-17.6666664207973,-8.38333333333326,-0.0636367700954468));
#1634=CARTESIAN_POINT('',(-19.8333329906064,-8.16666666666659,0.153029896571218));
#1635=CARTESIAN_POINT('',(-20.2666663239398,-8.59999999999992,-0.280303436762112));
#1636=CARTESIAN_POINT('',(-6.83333337803673,-8.16666666666659,0.153029896571218));
#1637=CARTESIAN_POINT('',(-17.6666664207973,-8.16666666666659,0.153029896571218));
#1638=CARTESIAN_POINT('',(-6.4000000447034,-8.59999999999992,-0.280303436762113));
#1639=CARTESIAN_POINT('Origin',(-20.0499996572731,-7.08333333333327,-0.063636770095447));
#1640=CARTESIAN_POINT('',(-19.8333329906064,-3.83333333333329,0.153029896571218));
#1641=CARTESIAN_POINT('',(-20.2666663239398,-3.39999999999996,-0.280303436762112));
#1642=CARTESIAN_POINT('',(-19.8333329906064,-7.08333333333327,0.153029896571218));
#1643=CARTESIAN_POINT('Origin',(-17.6666664207973,-3.61666666666663,-0.0636367700954468));
#1644=CARTESIAN_POINT('',(-6.83333337803673,-3.83333333333329,0.153029896571218));
#1645=CARTESIAN_POINT('',(-6.4000000447034,-3.39999999999996,-0.280303436762113));
#1646=CARTESIAN_POINT('',(-17.6666664207973,-3.83333333333329,0.153029896571218));
#1647=CARTESIAN_POINT('Origin',(-6.61666671137007,-7.08333333333327,-0.0636367700954474));
#1648=CARTESIAN_POINT('',(-6.83333337803673,-7.08333333333327,0.153029896571218));
#1649=CARTESIAN_POINT('Origin',(-6.83333337803673,-8.16666666666659,-0.280303436762112));
#1650=CARTESIAN_POINT('',(-6.83333337803673,-8.16666666666659,6.00302989657117));
#1651=CARTESIAN_POINT('',(-6.83333337803673,-8.16666666666659,1.39886322990454));
#1652=CARTESIAN_POINT('',(-6.83333337803673,-3.83333333333329,6.00302989657117));
#1653=CARTESIAN_POINT('',(-6.83333337803673,-7.08333333333327,6.00302989657117));
#1654=CARTESIAN_POINT('',(-6.83333337803673,-3.83333333333329,1.39886322990454));
#1655=CARTESIAN_POINT('Origin',(-13.3333331843216,-8.16666666666659,3.0780298965712));
#1656=CARTESIAN_POINT('',(-19.8333329906064,-8.16666666666659,6.00302989657117));
#1657=CARTESIAN_POINT('',(-19.8333329906064,-8.16666666666659,4.75719656323785));
#1658=CARTESIAN_POINT('',(-8.99999994784584,-8.16666666666659,6.00302989657117));
#1659=CARTESIAN_POINT('',(-12.7915903410389,-8.16666666666659,3.0780298965712));
#1660=CARTESIAN_POINT('Origin',(-10.191590341039,-8.16666666666659,3.0780298965712));
#1661=CARTESIAN_POINT('',(-19.0749236743722,-8.16666666666659,3.0780298965712));
#1662=CARTESIAN_POINT('Origin',(-16.4749236743722,-8.16666666666659,3.0780298965712));
#1663=CARTESIAN_POINT('Origin',(-20.0499996572731,-7.08333333333327,6.21969656323784));
#1664=CARTESIAN_POINT('',(-20.2666663239398,-8.59999999999992,6.4363632299045));
#1665=CARTESIAN_POINT('',(-19.8333329906064,-3.83333333333329,6.00302989657117));
#1666=CARTESIAN_POINT('',(-19.8333329906064,-7.08333333333327,6.00302989657117));
#1667=CARTESIAN_POINT('',(-20.2666663239398,-3.39999999999996,6.4363632299045));
#1668=CARTESIAN_POINT('Origin',(-8.99999994784584,-8.38333333333326,6.21969656323784));
#1669=CARTESIAN_POINT('',(-6.4000000447034,-8.59999999999992,6.4363632299045));
#1670=CARTESIAN_POINT('Origin',(-6.61666671137007,-7.08333333333327,6.21969656323784));
#1671=CARTESIAN_POINT('',(-6.4000000447034,-3.39999999999996,6.4363632299045));
#1672=CARTESIAN_POINT('Origin',(-8.99999994784584,-3.61666666666663,6.21969656323784));
#1673=CARTESIAN_POINT('',(-8.99999994784584,-3.83333333333329,6.00302989657117));
#1674=CARTESIAN_POINT('Origin',(-13.3333331843216,-3.83333333333329,3.0780298965712));
#1675=CARTESIAN_POINT('',(-19.8333329906064,-3.83333333333329,4.75719656323785));
#1676=CARTESIAN_POINT('',(-12.7915903410389,-3.83333333333329,3.0780298965712));
#1677=CARTESIAN_POINT('Origin',(-10.191590341039,-3.83333333333329,3.0780298965712));
#1678=CARTESIAN_POINT('',(-19.0749236743722,-3.83333333333329,3.0780298965712));
#1679=CARTESIAN_POINT('Origin',(-16.4749236743722,-3.83333333333329,3.0780298965712));
#1680=CARTESIAN_POINT('Origin',(-19.8333329906064,-8.16666666666659,6.4363632299045));
#1681=CARTESIAN_POINT('Origin',(-3.80000004470342,-1.66666666666664,3.94469656323786));
#1682=CARTESIAN_POINT('',(-3.80000004470342,-1.66666666666664,3.0780298965712));
#1683=CARTESIAN_POINT('Origin',(-4.66666671137008,2.66666666666666,3.0780298965712));
#1684=CARTESIAN_POINT('',(-2.00000004470343,-10.3333333333332,3.0780298965712));
#1685=CARTESIAN_POINT('Origin',(-1.41666671137011,-10.3333333333332,3.0780298965712));
#1686=CARTESIAN_POINT('',(-2.00000004470343,-1.66666676352419,3.0780298965712));
#1687=CARTESIAN_POINT('Origin',(-1.41666671137011,-1.66666676352419,3.0780298965712));
#1688=CARTESIAN_POINT('Origin',(-22.8666663239398,-10.3333333333332,3.94469656323786));
#1689=CARTESIAN_POINT('',(-22.8666663239398,-10.3333333333332,3.0780298965712));
#1690=CARTESIAN_POINT('Origin',(-21.9999996572731,-14.6666666666665,3.0780298965712));
#1691=CARTESIAN_POINT('',(-25.8333329906064,-10.3333333333332,3.0780298965712));
#1692=CARTESIAN_POINT('Origin',(-25.2499996572731,-10.3333333333332,3.0780298965712));
#1693=CARTESIAN_POINT('',(-25.8333329906064,-1.66666676352419,3.0780298965712));
#1694=CARTESIAN_POINT('Origin',(-25.2499996572731,-1.66666676352419,3.0780298965712));
#1695=CARTESIAN_POINT('Origin',(-25.2499996572731,-1.66666676352419,-0.280303436762112));
#1696=CARTESIAN_POINT('',(-25.8333329906064,-1.66666676352419,-0.280303436762112));
#1697=CARTESIAN_POINT('Origin',(-25.2499996572731,-10.3333333333332,-0.280303436762112));
#1698=CARTESIAN_POINT('',(-25.8333329906064,-10.3333333333332,-0.280303436762112));
#1699=CARTESIAN_POINT('Origin',(-1.41666671137011,-1.66666676352419,-0.280303436762112));
#1700=CARTESIAN_POINT('',(-2.00000004470343,-1.66666676352419,-0.280303436762112));
#1701=CARTESIAN_POINT('Origin',(-1.41666671137011,-10.3333333333332,-0.280303436762112));
#1702=CARTESIAN_POINT('',(-2.00000004470343,-10.3333333333332,-0.280303436762112));
#1703=CARTESIAN_POINT('Origin',(-10.191590341039,-5.99999999999994,3.0780298965712));
#1704=CARTESIAN_POINT('',(-12.7915903410389,2.66666666666666,3.0780298965712));
#1705=CARTESIAN_POINT('Origin',(-10.191590341039,2.66666666666666,3.0780298965712));
#1706=CARTESIAN_POINT('',(-12.7915903410389,-5.99999999999994,3.0780298965712));
#1707=CARTESIAN_POINT('Origin',(-16.4749236743722,-5.99999999999994,3.0780298965712));
#1708=CARTESIAN_POINT('',(-19.0749236743722,2.66666666666666,3.0780298965712));
#1709=CARTESIAN_POINT('Origin',(-16.4749236743722,2.66666666666666,3.0780298965712));
#1710=CARTESIAN_POINT('',(-19.0749236743722,-5.99999999999994,3.0780298965712));
#1711=CARTESIAN_POINT('Origin',(-13.3333331843216,2.66666666666666,3.0780298965712));
#1712=CARTESIAN_POINT('Origin',(-10.191590341039,-5.99999999999994,3.0780298965712));
#1713=CARTESIAN_POINT('',(-12.7915903410389,-5.99999999999994,3.07802989657119));
#1714=CARTESIAN_POINT('Origin',(-16.4749236743722,-5.99999999999994,3.0780298965712));
#1715=CARTESIAN_POINT('',(-19.0749236743722,-5.99999999999994,3.07802989657119));
#1716=UNCERTAINTY_MEASURE_WITH_UNIT(LENGTH_MEASURE(0.01),#1720,
'DISTANCE_ACCURACY_VALUE',
'Maximum model space distance between geometric entities at asserted c
onnectivities');
#1717=UNCERTAINTY_MEASURE_WITH_UNIT(LENGTH_MEASURE(0.01),#1720,
'DISTANCE_ACCURACY_VALUE',
'Maximum model space distance between geometric entities at asserted c
onnectivities');
#1718=(
GEOMETRIC_REPRESENTATION_CONTEXT(3)
GLOBAL_UNCERTAINTY_ASSIGNED_CONTEXT((#1716))
GLOBAL_UNIT_ASSIGNED_CONTEXT((#1720,#1722,#1723))
REPRESENTATION_CONTEXT('','3D')
);
#1719=(
GEOMETRIC_REPRESENTATION_CONTEXT(3)
GLOBAL_UNCERTAINTY_ASSIGNED_CONTEXT((#1717))
GLOBAL_UNIT_ASSIGNED_CONTEXT((#1720,#1722,#1723))
REPRESENTATION_CONTEXT('','3D')
);
#1720=(
LENGTH_UNIT()
NAMED_UNIT(*)
SI_UNIT(.MILLI.,.METRE.)
);
#1721=(
LENGTH_UNIT()
NAMED_UNIT(*)
SI_UNIT($,.METRE.)
);
#1722=(
NAMED_UNIT(*)
PLANE_ANGLE_UNIT()
SI_UNIT($,.RADIAN.)
);
#1723=(
NAMED_UNIT(*)
SI_UNIT($,.STERADIAN.)
SOLID_ANGLE_UNIT()
);
#1724=SHAPE_DEFINITION_REPRESENTATION(#1725,#1726);
#1725=PRODUCT_DEFINITION_SHAPE('',$,#1728);
#1726=SHAPE_REPRESENTATION('',(#1044),#1718);
#1727=PRODUCT_DEFINITION_CONTEXT('part definition',#1732,'design');
#1728=PRODUCT_DEFINITION('2026-06-20-17-14-09-210','FusionComponent',#1729,
#1727);
#1729=PRODUCT_DEFINITION_FORMATION('',$,#1734);
#1730=PRODUCT_RELATED_PRODUCT_CATEGORY('FusionComponent',
'FusionComponent',(#1734));
#1731=APPLICATION_PROTOCOL_DEFINITION('international standard',
'automotive_design',2009,#1732);
#1732=APPLICATION_CONTEXT(
'Core Data for Automotive Mechanical Design Process');
#1733=PRODUCT_CONTEXT('part definition',#1732,'mechanical');
#1734=PRODUCT('2026-06-20-17-14-09-210','FusionComponent',$,(#1733));
#1735=PRESENTATION_STYLE_ASSIGNMENT((#1736));
#1736=SURFACE_STYLE_USAGE(.BOTH.,#1737);
#1737=SURFACE_SIDE_STYLE('',(#1738));
#1738=SURFACE_STYLE_FILL_AREA(#1739);
#1739=FILL_AREA_STYLE('Steel - Satin',(#1740));
#1740=FILL_AREA_STYLE_COLOUR('Steel - Satin',#1741);
#1741=COLOUR_RGB('Steel - Satin',0.627450980392157,0.627450980392157,0.627450980392157);
ENDSEC;
END-ISO-10303-21;
