ISO-10303-21;
HEADER;
/* Generated by software containing ST-Developer
 * from STEP Tools, Inc. (www.steptools.com) 
 */

FILE_DESCRIPTION(
/* description */ (''),
/* implementation_level */ '2;1');

FILE_NAME(
/* name */ 'Power Bank Cover x1.step',
/* time_stamp */ '2026-06-20T12:35:43-05:00',
/* author */ (''),
/* organization */ (''),
/* preprocessor_version */ 'ST-DEVELOPER v20.1',
/* originating_system */ 'Autodesk Translation Framework v15.8.0.0',
/* authorisation */ '');

FILE_SCHEMA (('AUTOMOTIVE_DESIGN { 1 0 10303 214 3 1 1 }'));
ENDSEC;

DATA;
#10=MECHANICAL_DESIGN_GEOMETRIC_PRESENTATION_REPRESENTATION('',(#13),#529);
#11=SHAPE_REPRESENTATION_RELATIONSHIP('SRR','None',#536,#12);
#12=ADVANCED_BREP_SHAPE_REPRESENTATION('',(#14),#528);
#13=STYLED_ITEM('',(#545),#14);
#14=MANIFOLD_SOLID_BREP('Body1',#317);
#15=FACE_BOUND('',#52,.T.);
#16=FACE_BOUND('',#53,.T.);
#17=FACE_BOUND('',#65,.T.);
#18=FACE_BOUND('',#66,.T.);
#19=PLANE('',#337);
#20=PLANE('',#338);
#21=PLANE('',#339);
#22=PLANE('',#342);
#23=PLANE('',#343);
#24=PLANE('',#344);
#25=PLANE('',#347);
#26=PLANE('',#348);
#27=PLANE('',#349);
#28=PLANE('',#352);
#29=PLANE('',#353);
#30=PLANE('',#354);
#31=FACE_OUTER_BOUND('',#47,.T.);
#32=FACE_OUTER_BOUND('',#48,.T.);
#33=FACE_OUTER_BOUND('',#49,.T.);
#34=FACE_OUTER_BOUND('',#50,.T.);
#35=FACE_OUTER_BOUND('',#51,.T.);
#36=FACE_OUTER_BOUND('',#54,.T.);
#37=FACE_OUTER_BOUND('',#55,.T.);
#38=FACE_OUTER_BOUND('',#56,.T.);
#39=FACE_OUTER_BOUND('',#57,.T.);
#40=FACE_OUTER_BOUND('',#58,.T.);
#41=FACE_OUTER_BOUND('',#59,.T.);
#42=FACE_OUTER_BOUND('',#60,.T.);
#43=FACE_OUTER_BOUND('',#61,.T.);
#44=FACE_OUTER_BOUND('',#62,.T.);
#45=FACE_OUTER_BOUND('',#63,.T.);
#46=FACE_OUTER_BOUND('',#64,.T.);
#47=EDGE_LOOP('',(#213,#214,#215,#216));
#48=EDGE_LOOP('',(#217,#218,#219,#220));
#49=EDGE_LOOP('',(#221,#222,#223,#224));
#50=EDGE_LOOP('',(#225,#226,#227,#228));
#51=EDGE_LOOP('',(#229,#230,#231,#232,#233,#234,#235,#236,#237,#238,#239,
#240));
#52=EDGE_LOOP('',(#241));
#53=EDGE_LOOP('',(#242));
#54=EDGE_LOOP('',(#243,#244,#245,#246));
#55=EDGE_LOOP('',(#247,#248,#249,#250));
#56=EDGE_LOOP('',(#251,#252,#253,#254));
#57=EDGE_LOOP('',(#255,#256,#257,#258));
#58=EDGE_LOOP('',(#259,#260,#261,#262));
#59=EDGE_LOOP('',(#263,#264,#265,#266));
#60=EDGE_LOOP('',(#267,#268,#269,#270));
#61=EDGE_LOOP('',(#271,#272,#273,#274));
#62=EDGE_LOOP('',(#275,#276,#277,#278));
#63=EDGE_LOOP('',(#279,#280,#281,#282));
#64=EDGE_LOOP('',(#283,#284,#285,#286,#287,#288,#289,#290,#291,#292,#293,
#294));
#65=EDGE_LOOP('',(#295));
#66=EDGE_LOOP('',(#296));
#67=LINE('',#444,#101);
#68=LINE('',#450,#102);
#69=LINE('',#455,#103);
#70=LINE('',#457,#104);
#71=LINE('',#459,#105);
#72=LINE('',#460,#106);
#73=LINE('',#463,#107);
#74=LINE('',#465,#108);
#75=LINE('',#466,#109);
#76=LINE('',#469,#110);
#77=LINE('',#471,#111);
#78=LINE('',#473,#112);
#79=LINE('',#477,#113);
#80=LINE('',#479,#114);
#81=LINE('',#481,#115);
#82=LINE('',#485,#116);
#83=LINE('',#486,#117);
#84=LINE('',#489,#118);
#85=LINE('',#490,#119);
#86=LINE('',#493,#120);
#87=LINE('',#494,#121);
#88=LINE('',#497,#122);
#89=LINE('',#498,#123);
#90=LINE('',#502,#124);
#91=LINE('',#505,#125);
#92=LINE('',#506,#126);
#93=LINE('',#509,#127);
#94=LINE('',#510,#128);
#95=LINE('',#513,#129);
#96=LINE('',#514,#130);
#97=LINE('',#518,#131);
#98=LINE('',#521,#132);
#99=LINE('',#522,#133);
#100=LINE('',#524,#134);
#101=VECTOR('',#361,3.5);
#102=VECTOR('',#368,3.5);
#103=VECTOR('',#373,10.);
#104=VECTOR('',#374,10.);
#105=VECTOR('',#375,10.);
#106=VECTOR('',#376,10.);
#107=VECTOR('',#379,10.);
#108=VECTOR('',#380,10.);
#109=VECTOR('',#381,10.);
#110=VECTOR('',#384,10.);
#111=VECTOR('',#385,10.);
#112=VECTOR('',#386,10.);
#113=VECTOR('',#389,10.);
#114=VECTOR('',#390,10.);
#115=VECTOR('',#391,10.);
#116=VECTOR('',#394,10.);
#117=VECTOR('',#395,10.);
#118=VECTOR('',#398,10.);
#119=VECTOR('',#399,10.);
#120=VECTOR('',#402,10.);
#121=VECTOR('',#403,10.);
#122=VECTOR('',#406,10.);
#123=VECTOR('',#407,10.);
#124=VECTOR('',#412,10.);
#125=VECTOR('',#415,10.);
#126=VECTOR('',#416,10.);
#127=VECTOR('',#419,10.);
#128=VECTOR('',#420,10.);
#129=VECTOR('',#423,10.);
#130=VECTOR('',#424,10.);
#131=VECTOR('',#429,10.);
#132=VECTOR('',#432,10.);
#133=VECTOR('',#433,10.);
#134=VECTOR('',#436,10.);
#135=CIRCLE('',#332,3.50000000000001);
#136=CIRCLE('',#333,3.50000000000001);
#137=CIRCLE('',#335,3.50000000000001);
#138=CIRCLE('',#336,3.50000000000001);
#139=CIRCLE('',#340,5.);
#140=CIRCLE('',#341,5.);
#141=CIRCLE('',#346,5.);
#142=CIRCLE('',#351,5.);
#143=VERTEX_POINT('',#441);
#144=VERTEX_POINT('',#443);
#145=VERTEX_POINT('',#447);
#146=VERTEX_POINT('',#449);
#147=VERTEX_POINT('',#453);
#148=VERTEX_POINT('',#454);
#149=VERTEX_POINT('',#456);
#150=VERTEX_POINT('',#458);
#151=VERTEX_POINT('',#462);
#152=VERTEX_POINT('',#464);
#153=VERTEX_POINT('',#468);
#154=VERTEX_POINT('',#470);
#155=VERTEX_POINT('',#472);
#156=VERTEX_POINT('',#474);
#157=VERTEX_POINT('',#476);
#158=VERTEX_POINT('',#478);
#159=VERTEX_POINT('',#480);
#160=VERTEX_POINT('',#482);
#161=VERTEX_POINT('',#484);
#162=VERTEX_POINT('',#488);
#163=VERTEX_POINT('',#492);
#164=VERTEX_POINT('',#496);
#165=VERTEX_POINT('',#500);
#166=VERTEX_POINT('',#504);
#167=VERTEX_POINT('',#508);
#168=VERTEX_POINT('',#512);
#169=VERTEX_POINT('',#516);
#170=VERTEX_POINT('',#520);
#171=EDGE_CURVE('',#143,#143,#135,.T.);
#172=EDGE_CURVE('',#143,#144,#67,.T.);
#173=EDGE_CURVE('',#144,#144,#136,.T.);
#174=EDGE_CURVE('',#145,#145,#137,.T.);
#175=EDGE_CURVE('',#145,#146,#68,.T.);
#176=EDGE_CURVE('',#146,#146,#138,.T.);
#177=EDGE_CURVE('',#147,#148,#69,.T.);
#178=EDGE_CURVE('',#147,#149,#70,.T.);
#179=EDGE_CURVE('',#150,#149,#71,.T.);
#180=EDGE_CURVE('',#150,#148,#72,.T.);
#181=EDGE_CURVE('',#151,#149,#73,.T.);
#182=EDGE_CURVE('',#151,#152,#74,.T.);
#183=EDGE_CURVE('',#150,#152,#75,.T.);
#184=EDGE_CURVE('',#153,#148,#76,.T.);
#185=EDGE_CURVE('',#152,#154,#77,.T.);
#186=EDGE_CURVE('',#154,#155,#78,.T.);
#187=EDGE_CURVE('',#155,#156,#139,.T.);
#188=EDGE_CURVE('',#156,#157,#79,.T.);
#189=EDGE_CURVE('',#157,#158,#80,.T.);
#190=EDGE_CURVE('',#158,#159,#81,.T.);
#191=EDGE_CURVE('',#159,#160,#140,.T.);
#192=EDGE_CURVE('',#160,#161,#82,.T.);
#193=EDGE_CURVE('',#161,#153,#83,.T.);
#194=EDGE_CURVE('',#162,#153,#84,.T.);
#195=EDGE_CURVE('',#147,#162,#85,.T.);
#196=EDGE_CURVE('',#162,#163,#86,.T.);
#197=EDGE_CURVE('',#163,#161,#87,.T.);
#198=EDGE_CURVE('',#163,#164,#88,.T.);
#199=EDGE_CURVE('',#164,#160,#89,.T.);
#200=EDGE_CURVE('',#164,#165,#141,.T.);
#201=EDGE_CURVE('',#165,#159,#90,.T.);
#202=EDGE_CURVE('',#165,#166,#91,.T.);
#203=EDGE_CURVE('',#166,#158,#92,.T.);
#204=EDGE_CURVE('',#166,#167,#93,.T.);
#205=EDGE_CURVE('',#167,#157,#94,.T.);
#206=EDGE_CURVE('',#167,#168,#95,.T.);
#207=EDGE_CURVE('',#168,#156,#96,.T.);
#208=EDGE_CURVE('',#168,#169,#142,.T.);
#209=EDGE_CURVE('',#169,#155,#97,.T.);
#210=EDGE_CURVE('',#169,#170,#98,.T.);
#211=EDGE_CURVE('',#170,#154,#99,.T.);
#212=EDGE_CURVE('',#170,#151,#100,.T.);
#213=ORIENTED_EDGE('',*,*,#171,.F.);
#214=ORIENTED_EDGE('',*,*,#172,.T.);
#215=ORIENTED_EDGE('',*,*,#173,.F.);
#216=ORIENTED_EDGE('',*,*,#172,.F.);
#217=ORIENTED_EDGE('',*,*,#174,.F.);
#218=ORIENTED_EDGE('',*,*,#175,.T.);
#219=ORIENTED_EDGE('',*,*,#176,.F.);
#220=ORIENTED_EDGE('',*,*,#175,.F.);
#221=ORIENTED_EDGE('',*,*,#177,.F.);
#222=ORIENTED_EDGE('',*,*,#178,.T.);
#223=ORIENTED_EDGE('',*,*,#179,.F.);
#224=ORIENTED_EDGE('',*,*,#180,.T.);
#225=ORIENTED_EDGE('',*,*,#179,.T.);
#226=ORIENTED_EDGE('',*,*,#181,.F.);
#227=ORIENTED_EDGE('',*,*,#182,.T.);
#228=ORIENTED_EDGE('',*,*,#183,.F.);
#229=ORIENTED_EDGE('',*,*,#184,.T.);
#230=ORIENTED_EDGE('',*,*,#180,.F.);
#231=ORIENTED_EDGE('',*,*,#183,.T.);
#232=ORIENTED_EDGE('',*,*,#185,.T.);
#233=ORIENTED_EDGE('',*,*,#186,.T.);
#234=ORIENTED_EDGE('',*,*,#187,.T.);
#235=ORIENTED_EDGE('',*,*,#188,.T.);
#236=ORIENTED_EDGE('',*,*,#189,.T.);
#237=ORIENTED_EDGE('',*,*,#190,.T.);
#238=ORIENTED_EDGE('',*,*,#191,.T.);
#239=ORIENTED_EDGE('',*,*,#192,.T.);
#240=ORIENTED_EDGE('',*,*,#193,.T.);
#241=ORIENTED_EDGE('',*,*,#171,.T.);
#242=ORIENTED_EDGE('',*,*,#174,.T.);
#243=ORIENTED_EDGE('',*,*,#177,.T.);
#244=ORIENTED_EDGE('',*,*,#184,.F.);
#245=ORIENTED_EDGE('',*,*,#194,.F.);
#246=ORIENTED_EDGE('',*,*,#195,.F.);
#247=ORIENTED_EDGE('',*,*,#196,.F.);
#248=ORIENTED_EDGE('',*,*,#194,.T.);
#249=ORIENTED_EDGE('',*,*,#193,.F.);
#250=ORIENTED_EDGE('',*,*,#197,.F.);
#251=ORIENTED_EDGE('',*,*,#198,.F.);
#252=ORIENTED_EDGE('',*,*,#197,.T.);
#253=ORIENTED_EDGE('',*,*,#192,.F.);
#254=ORIENTED_EDGE('',*,*,#199,.F.);
#255=ORIENTED_EDGE('',*,*,#200,.F.);
#256=ORIENTED_EDGE('',*,*,#199,.T.);
#257=ORIENTED_EDGE('',*,*,#191,.F.);
#258=ORIENTED_EDGE('',*,*,#201,.F.);
#259=ORIENTED_EDGE('',*,*,#202,.F.);
#260=ORIENTED_EDGE('',*,*,#201,.T.);
#261=ORIENTED_EDGE('',*,*,#190,.F.);
#262=ORIENTED_EDGE('',*,*,#203,.F.);
#263=ORIENTED_EDGE('',*,*,#204,.F.);
#264=ORIENTED_EDGE('',*,*,#203,.T.);
#265=ORIENTED_EDGE('',*,*,#189,.F.);
#266=ORIENTED_EDGE('',*,*,#205,.F.);
#267=ORIENTED_EDGE('',*,*,#206,.F.);
#268=ORIENTED_EDGE('',*,*,#205,.T.);
#269=ORIENTED_EDGE('',*,*,#188,.F.);
#270=ORIENTED_EDGE('',*,*,#207,.F.);
#271=ORIENTED_EDGE('',*,*,#208,.F.);
#272=ORIENTED_EDGE('',*,*,#207,.T.);
#273=ORIENTED_EDGE('',*,*,#187,.F.);
#274=ORIENTED_EDGE('',*,*,#209,.F.);
#275=ORIENTED_EDGE('',*,*,#210,.F.);
#276=ORIENTED_EDGE('',*,*,#209,.T.);
#277=ORIENTED_EDGE('',*,*,#186,.F.);
#278=ORIENTED_EDGE('',*,*,#211,.F.);
#279=ORIENTED_EDGE('',*,*,#212,.F.);
#280=ORIENTED_EDGE('',*,*,#211,.T.);
#281=ORIENTED_EDGE('',*,*,#185,.F.);
#282=ORIENTED_EDGE('',*,*,#182,.F.);
#283=ORIENTED_EDGE('',*,*,#195,.T.);
#284=ORIENTED_EDGE('',*,*,#196,.T.);
#285=ORIENTED_EDGE('',*,*,#198,.T.);
#286=ORIENTED_EDGE('',*,*,#200,.T.);
#287=ORIENTED_EDGE('',*,*,#202,.T.);
#288=ORIENTED_EDGE('',*,*,#204,.T.);
#289=ORIENTED_EDGE('',*,*,#206,.T.);
#290=ORIENTED_EDGE('',*,*,#208,.T.);
#291=ORIENTED_EDGE('',*,*,#210,.T.);
#292=ORIENTED_EDGE('',*,*,#212,.T.);
#293=ORIENTED_EDGE('',*,*,#181,.T.);
#294=ORIENTED_EDGE('',*,*,#178,.F.);
#295=ORIENTED_EDGE('',*,*,#173,.T.);
#296=ORIENTED_EDGE('',*,*,#176,.T.);
#297=CYLINDRICAL_SURFACE('',#331,3.50000000000001);
#298=CYLINDRICAL_SURFACE('',#334,3.50000000000001);
#299=CYLINDRICAL_SURFACE('',#345,5.);
#300=CYLINDRICAL_SURFACE('',#350,5.);
#301=ADVANCED_FACE('',(#31),#297,.F.);
#302=ADVANCED_FACE('',(#32),#298,.F.);
#303=ADVANCED_FACE('',(#33),#19,.T.);
#304=ADVANCED_FACE('',(#34),#20,.T.);
#305=ADVANCED_FACE('',(#35,#15,#16),#21,.T.);
#306=ADVANCED_FACE('',(#36),#22,.T.);
#307=ADVANCED_FACE('',(#37),#23,.T.);
#308=ADVANCED_FACE('',(#38),#24,.T.);
#309=ADVANCED_FACE('',(#39),#299,.T.);
#310=ADVANCED_FACE('',(#40),#25,.T.);
#311=ADVANCED_FACE('',(#41),#26,.T.);
#312=ADVANCED_FACE('',(#42),#27,.T.);
#313=ADVANCED_FACE('',(#43),#300,.T.);
#314=ADVANCED_FACE('',(#44),#28,.T.);
#315=ADVANCED_FACE('',(#45),#29,.T.);
#316=ADVANCED_FACE('',(#46,#17,#18),#30,.F.);
#317=CLOSED_SHELL('',(#301,#302,#303,#304,#305,#306,#307,#308,#309,#310,
#311,#312,#313,#314,#315,#316));
#318=DERIVED_UNIT_ELEMENT(#320,1.);
#319=DERIVED_UNIT_ELEMENT(#531,-3.);
#320=(
MASS_UNIT()
NAMED_UNIT(*)
SI_UNIT(.KILO.,.GRAM.)
);
#321=DERIVED_UNIT((#318,#319));
#322=MEASURE_REPRESENTATION_ITEM('density measure',
POSITIVE_RATIO_MEASURE(7850.),#321);
#323=PROPERTY_DEFINITION_REPRESENTATION(#328,#325);
#324=PROPERTY_DEFINITION_REPRESENTATION(#329,#326);
#325=REPRESENTATION('material name',(#327),#528);
#326=REPRESENTATION('density',(#322),#528);
#327=DESCRIPTIVE_REPRESENTATION_ITEM('Steel','Steel');
#328=PROPERTY_DEFINITION('material property','material name',#538);
#329=PROPERTY_DEFINITION('material property','density of part',#538);
#330=AXIS2_PLACEMENT_3D('',#439,#355,#356);
#331=AXIS2_PLACEMENT_3D('',#440,#357,#358);
#332=AXIS2_PLACEMENT_3D('',#442,#359,#360);
#333=AXIS2_PLACEMENT_3D('',#445,#362,#363);
#334=AXIS2_PLACEMENT_3D('',#446,#364,#365);
#335=AXIS2_PLACEMENT_3D('',#448,#366,#367);
#336=AXIS2_PLACEMENT_3D('',#451,#369,#370);
#337=AXIS2_PLACEMENT_3D('',#452,#371,#372);
#338=AXIS2_PLACEMENT_3D('',#461,#377,#378);
#339=AXIS2_PLACEMENT_3D('',#467,#382,#383);
#340=AXIS2_PLACEMENT_3D('',#475,#387,#388);
#341=AXIS2_PLACEMENT_3D('',#483,#392,#393);
#342=AXIS2_PLACEMENT_3D('',#487,#396,#397);
#343=AXIS2_PLACEMENT_3D('',#491,#400,#401);
#344=AXIS2_PLACEMENT_3D('',#495,#404,#405);
#345=AXIS2_PLACEMENT_3D('',#499,#408,#409);
#346=AXIS2_PLACEMENT_3D('',#501,#410,#411);
#347=AXIS2_PLACEMENT_3D('',#503,#413,#414);
#348=AXIS2_PLACEMENT_3D('',#507,#417,#418);
#349=AXIS2_PLACEMENT_3D('',#511,#421,#422);
#350=AXIS2_PLACEMENT_3D('',#515,#425,#426);
#351=AXIS2_PLACEMENT_3D('',#517,#427,#428);
#352=AXIS2_PLACEMENT_3D('',#519,#430,#431);
#353=AXIS2_PLACEMENT_3D('',#523,#434,#435);
#354=AXIS2_PLACEMENT_3D('',#525,#437,#438);
#355=DIRECTION('axis',(0.,0.,1.));
#356=DIRECTION('refdir',(1.,0.,0.));
#357=DIRECTION('center_axis',(0.,1.,0.));
#358=DIRECTION('ref_axis',(1.,0.,0.));
#359=DIRECTION('center_axis',(0.,1.,0.));
#360=DIRECTION('ref_axis',(1.,0.,0.));
#361=DIRECTION('',(0.,1.,0.));
#362=DIRECTION('center_axis',(0.,-1.,0.));
#363=DIRECTION('ref_axis',(1.,0.,0.));
#364=DIRECTION('center_axis',(0.,1.,0.));
#365=DIRECTION('ref_axis',(1.,0.,0.));
#366=DIRECTION('center_axis',(0.,1.,0.));
#367=DIRECTION('ref_axis',(1.,0.,0.));
#368=DIRECTION('',(0.,1.,0.));
#369=DIRECTION('center_axis',(0.,-1.,0.));
#370=DIRECTION('ref_axis',(1.,0.,0.));
#371=DIRECTION('center_axis',(-1.,0.,1.81357454306666E-15));
#372=DIRECTION('ref_axis',(1.81357454306666E-15,0.,1.));
#373=DIRECTION('',(0.,-1.,0.));
#374=DIRECTION('',(-1.808293344293E-15,0.,-1.));
#375=DIRECTION('',(0.,1.,0.));
#376=DIRECTION('',(1.808293344293E-15,0.,1.));
#377=DIRECTION('center_axis',(0.,0.,1.));
#378=DIRECTION('ref_axis',(-1.,0.,0.));
#379=DIRECTION('',(1.,0.,0.));
#380=DIRECTION('',(0.,-1.,0.));
#381=DIRECTION('',(-1.,0.,0.));
#382=DIRECTION('center_axis',(0.,-1.,0.));
#383=DIRECTION('ref_axis',(1.,0.,0.));
#384=DIRECTION('',(1.,0.,0.));
#385=DIRECTION('',(4.99999998112565E-5,0.,-0.99999999875));
#386=DIRECTION('',(1.,0.,0.));
#387=DIRECTION('center_axis',(0.,-1.,0.));
#388=DIRECTION('ref_axis',(0.707106781186547,0.,-0.707106781186547));
#389=DIRECTION('',(0.,0.,1.));
#390=DIRECTION('',(-0.0021820128219683,0.,0.999997619407189));
#391=DIRECTION('',(0.,0.,1.));
#392=DIRECTION('center_axis',(0.,-1.,0.));
#393=DIRECTION('ref_axis',(0.707106781186547,0.,0.707106781186547));
#394=DIRECTION('',(-1.,0.,0.));
#395=DIRECTION('',(0.000936885047624109,0.,-0.999999561123108));
#396=DIRECTION('center_axis',(0.,0.,-1.));
#397=DIRECTION('ref_axis',(1.,0.,0.));
#398=DIRECTION('',(0.,-1.,0.));
#399=DIRECTION('',(-1.,0.,0.));
#400=DIRECTION('center_axis',(-0.999999561123108,0.,-0.000936885047624109));
#401=DIRECTION('ref_axis',(0.000936885047624109,0.,-0.999999561123108));
#402=DIRECTION('',(-0.000936885047624109,0.,0.999999561123108));
#403=DIRECTION('',(0.,-1.,0.));
#404=DIRECTION('center_axis',(0.,0.,1.));
#405=DIRECTION('ref_axis',(-1.,0.,0.));
#406=DIRECTION('',(1.,0.,0.));
#407=DIRECTION('',(0.,-1.,0.));
#408=DIRECTION('center_axis',(0.,-1.,0.));
#409=DIRECTION('ref_axis',(0.707106781186547,0.,0.707106781186547));
#410=DIRECTION('center_axis',(0.,1.,0.));
#411=DIRECTION('ref_axis',(0.707106781186547,0.,0.707106781186547));
#412=DIRECTION('',(0.,-1.,0.));
#413=DIRECTION('center_axis',(1.,0.,0.));
#414=DIRECTION('ref_axis',(0.,0.,1.));
#415=DIRECTION('',(0.,0.,-1.));
#416=DIRECTION('',(0.,-1.,0.));
#417=DIRECTION('center_axis',(0.999997619407189,0.,0.0021820128219683));
#418=DIRECTION('ref_axis',(-0.0021820128219683,0.,0.999997619407189));
#419=DIRECTION('',(0.0021820128219683,0.,-0.999997619407189));
#420=DIRECTION('',(0.,-1.,0.));
#421=DIRECTION('center_axis',(1.,0.,0.));
#422=DIRECTION('ref_axis',(0.,0.,1.));
#423=DIRECTION('',(0.,0.,-1.));
#424=DIRECTION('',(0.,-1.,0.));
#425=DIRECTION('center_axis',(0.,-1.,0.));
#426=DIRECTION('ref_axis',(0.707106781186547,0.,-0.707106781186547));
#427=DIRECTION('center_axis',(0.,1.,0.));
#428=DIRECTION('ref_axis',(0.707106781186547,0.,-0.707106781186547));
#429=DIRECTION('',(0.,-1.,0.));
#430=DIRECTION('center_axis',(0.,0.,-1.));
#431=DIRECTION('ref_axis',(1.,0.,0.));
#432=DIRECTION('',(-1.,0.,0.));
#433=DIRECTION('',(0.,-1.,0.));
#434=DIRECTION('center_axis',(-0.99999999875,0.,-4.99999998112565E-5));
#435=DIRECTION('ref_axis',(4.99999998112565E-5,0.,-0.99999999875));
#436=DIRECTION('',(-4.99999998112565E-5,0.,0.99999999875));
#437=DIRECTION('center_axis',(0.,-1.,0.));
#438=DIRECTION('ref_axis',(1.,0.,0.));
#439=CARTESIAN_POINT('',(0.,0.,0.));
#440=CARTESIAN_POINT('Origin',(75.2025,-185.2,-104.343));
#441=CARTESIAN_POINT('',(71.7025,-185.2,-104.343));
#442=CARTESIAN_POINT('Origin',(75.2025,-185.2,-104.343));
#443=CARTESIAN_POINT('',(71.7025,-175.,-104.343));
#444=CARTESIAN_POINT('',(71.7025,-185.2,-104.343));
#445=CARTESIAN_POINT('Origin',(75.2025,-175.,-104.343));
#446=CARTESIAN_POINT('Origin',(75.,-185.2,-1.53900000000016));
#447=CARTESIAN_POINT('',(71.5,-185.2,-1.53900000000016));
#448=CARTESIAN_POINT('Origin',(75.,-185.2,-1.53900000000016));
#449=CARTESIAN_POINT('',(71.5,-175.,-1.53900000000016));
#450=CARTESIAN_POINT('',(71.5,-185.2,-1.53900000000016));
#451=CARTESIAN_POINT('Origin',(75.,-175.,-1.53900000000016));
#452=CARTESIAN_POINT('Origin',(0.0050000000001571,-175.,-11.539));
#453=CARTESIAN_POINT('',(0.00500000000016598,-175.,-6.53899999999999));
#454=CARTESIAN_POINT('',(0.00500000000016598,-185.2,-6.53899999999999));
#455=CARTESIAN_POINT('',(0.00500000000016616,-175.,-6.53900000000012));
#456=CARTESIAN_POINT('',(0.00499999999999723,-175.,-99.343));
#457=CARTESIAN_POINT('',(0.00500000000012157,-175.,-29.74));
#458=CARTESIAN_POINT('',(0.00499999999999723,-185.2,-99.343));
#459=CARTESIAN_POINT('',(0.00499999999999755,-175.,-99.3430000000001));
#460=CARTESIAN_POINT('',(0.00500000000012157,-185.2,-29.74));
#461=CARTESIAN_POINT('Origin',(65.405,-175.,-99.3430000000001));
#462=CARTESIAN_POINT('',(-0.101749999999408,-175.,-99.3430000000001));
#463=CARTESIAN_POINT('',(55.2024999999999,-175.,-99.3430000000001));
#464=CARTESIAN_POINT('',(-0.101749999999408,-185.2,-99.3430000000001));
#465=CARTESIAN_POINT('',(-0.101749999999408,-175.,-99.3430000000001));
#466=CARTESIAN_POINT('',(55.2024999999999,-185.2,-99.3430000000001));
#467=CARTESIAN_POINT('Origin',(39.9999999999997,-185.2,-52.9410000000002));
#468=CARTESIAN_POINT('',(-0.19313114541265,-185.2,-6.53900000000011));
#469=CARTESIAN_POINT('',(-0.202500000000834,-185.2,-6.53900000000012));
#470=CARTESIAN_POINT('',(-0.101250000000661,-185.2,-109.343));
#471=CARTESIAN_POINT('',(-0.10150000000003,-185.2,-104.343));
#472=CARTESIAN_POINT('',(75.2025,-185.2,-109.343));
#473=CARTESIAN_POINT('',(-0.202500000000838,-185.2,-109.343));
#474=CARTESIAN_POINT('',(80.2025,-185.2,-104.343));
#475=CARTESIAN_POINT('Origin',(75.2025,-185.2,-104.343));
#476=CARTESIAN_POINT('',(80.2025,-185.2,-99.3430000000001));
#477=CARTESIAN_POINT('',(80.2025,-185.2,-81.1420000000001));
#478=CARTESIAN_POINT('',(80.,-185.2,-6.53900000000016));
#479=CARTESIAN_POINT('',(80.1517795353661,-185.2,-76.0982493833143));
#480=CARTESIAN_POINT('',(80.,-185.2,-1.53900000000016));
#481=CARTESIAN_POINT('',(80.,-185.2,-29.7400000000002));
#482=CARTESIAN_POINT('',(75.,-185.2,3.46099999999984));
#483=CARTESIAN_POINT('Origin',(75.,-185.2,-1.53900000000016));
#484=CARTESIAN_POINT('',(-0.202500000000665,-185.2,3.46099999999984));
#485=CARTESIAN_POINT('',(59.9999999999998,-185.2,3.46099999999984));
#486=CARTESIAN_POINT('',(-0.10150000000003,-185.2,-104.343));
#487=CARTESIAN_POINT('Origin',(-0.19313114541265,-175.,-6.53900000000012));
#488=CARTESIAN_POINT('',(-0.19313114541265,-175.,-6.53900000000011));
#489=CARTESIAN_POINT('',(-0.19313114541265,-175.,-6.53900000000011));
#490=CARTESIAN_POINT('',(-0.202500000000834,-175.,-6.53900000000012));
#491=CARTESIAN_POINT('Origin',(-0.202500000000665,-175.,3.46099999999982));
#492=CARTESIAN_POINT('',(-0.202500000000665,-175.,3.46099999999984));
#493=CARTESIAN_POINT('',(-0.10150000000003,-175.,-104.343));
#494=CARTESIAN_POINT('',(-0.202500000000665,-175.,3.46099999999984));
#495=CARTESIAN_POINT('Origin',(75.,-175.,3.46099999999984));
#496=CARTESIAN_POINT('',(75.,-175.,3.46099999999984));
#497=CARTESIAN_POINT('',(59.9999999999998,-175.,3.46099999999984));
#498=CARTESIAN_POINT('',(75.,-175.,3.46099999999984));
#499=CARTESIAN_POINT('Origin',(75.,-175.,-1.53900000000016));
#500=CARTESIAN_POINT('',(80.,-175.,-1.53900000000016));
#501=CARTESIAN_POINT('Origin',(75.,-175.,-1.53900000000016));
#502=CARTESIAN_POINT('',(80.,-175.,-1.53900000000016));
#503=CARTESIAN_POINT('Origin',(80.,-175.,-6.53900000000016));
#504=CARTESIAN_POINT('',(80.,-175.,-6.53900000000016));
#505=CARTESIAN_POINT('',(80.,-175.,-29.7400000000002));
#506=CARTESIAN_POINT('',(80.,-175.,-6.53900000000016));
#507=CARTESIAN_POINT('Origin',(80.2025,-175.,-99.3430000000001));
#508=CARTESIAN_POINT('',(80.2025,-175.,-99.3430000000001));
#509=CARTESIAN_POINT('',(80.1517795353661,-175.,-76.0982493833143));
#510=CARTESIAN_POINT('',(80.2025,-175.,-99.3430000000001));
#511=CARTESIAN_POINT('Origin',(80.2025,-175.,-104.343));
#512=CARTESIAN_POINT('',(80.2025,-175.,-104.343));
#513=CARTESIAN_POINT('',(80.2025,-175.,-81.1420000000001));
#514=CARTESIAN_POINT('',(80.2025,-175.,-104.343));
#515=CARTESIAN_POINT('Origin',(75.2025,-175.,-104.343));
#516=CARTESIAN_POINT('',(75.2025,-175.,-109.343));
#517=CARTESIAN_POINT('Origin',(75.2025,-175.,-104.343));
#518=CARTESIAN_POINT('',(75.2025,-175.,-109.343));
#519=CARTESIAN_POINT('Origin',(-0.101250000000661,-175.,-109.343));
#520=CARTESIAN_POINT('',(-0.101250000000661,-175.,-109.343));
#521=CARTESIAN_POINT('',(-0.202500000000838,-175.,-109.343));
#522=CARTESIAN_POINT('',(-0.101250000000661,-175.,-109.343));
#523=CARTESIAN_POINT('Origin',(-0.101749999999399,-175.,-99.3430000000001));
#524=CARTESIAN_POINT('',(-0.10150000000003,-175.,-104.343));
#525=CARTESIAN_POINT('Origin',(39.9999999999997,-175.,-52.9410000000002));
#526=UNCERTAINTY_MEASURE_WITH_UNIT(LENGTH_MEASURE(0.01),#530,
'DISTANCE_ACCURACY_VALUE',
'Maximum model space distance between geometric entities at asserted c
onnectivities');
#527=UNCERTAINTY_MEASURE_WITH_UNIT(LENGTH_MEASURE(0.01),#530,
'DISTANCE_ACCURACY_VALUE',
'Maximum model space distance between geometric entities at asserted c
onnectivities');
#528=(
GEOMETRIC_REPRESENTATION_CONTEXT(3)
GLOBAL_UNCERTAINTY_ASSIGNED_CONTEXT((#526))
GLOBAL_UNIT_ASSIGNED_CONTEXT((#530,#532,#533))
REPRESENTATION_CONTEXT('','3D')
);
#529=(
GEOMETRIC_REPRESENTATION_CONTEXT(3)
GLOBAL_UNCERTAINTY_ASSIGNED_CONTEXT((#527))
GLOBAL_UNIT_ASSIGNED_CONTEXT((#530,#532,#533))
REPRESENTATION_CONTEXT('','3D')
);
#530=(
LENGTH_UNIT()
NAMED_UNIT(*)
SI_UNIT(.MILLI.,.METRE.)
);
#531=(
LENGTH_UNIT()
NAMED_UNIT(*)
SI_UNIT($,.METRE.)
);
#532=(
NAMED_UNIT(*)
PLANE_ANGLE_UNIT()
SI_UNIT($,.RADIAN.)
);
#533=(
NAMED_UNIT(*)
SI_UNIT($,.STERADIAN.)
SOLID_ANGLE_UNIT()
);
#534=SHAPE_DEFINITION_REPRESENTATION(#535,#536);
#535=PRODUCT_DEFINITION_SHAPE('',$,#538);
#536=SHAPE_REPRESENTATION('',(#330),#528);
#537=PRODUCT_DEFINITION_CONTEXT('part definition',#542,'design');
#538=PRODUCT_DEFINITION('2026-06-20-12-35-42-767','FusionComponent',#539,
#537);
#539=PRODUCT_DEFINITION_FORMATION('',$,#544);
#540=PRODUCT_RELATED_PRODUCT_CATEGORY('FusionComponent',
'FusionComponent',(#544));
#541=APPLICATION_PROTOCOL_DEFINITION('international standard',
'automotive_design',2009,#542);
#542=APPLICATION_CONTEXT(
'Core Data for Automotive Mechanical Design Process');
#543=PRODUCT_CONTEXT('part definition',#542,'mechanical');
#544=PRODUCT('2026-06-20-12-35-42-767','FusionComponent',$,(#543));
#545=PRESENTATION_STYLE_ASSIGNMENT((#546));
#546=SURFACE_STYLE_USAGE(.BOTH.,#547);
#547=SURFACE_SIDE_STYLE('',(#548));
#548=SURFACE_STYLE_FILL_AREA(#549);
#549=FILL_AREA_STYLE('Steel - Satin',(#550));
#550=FILL_AREA_STYLE_COLOUR('Steel - Satin',#551);
#551=COLOUR_RGB('Steel - Satin',0.627450980392157,0.627450980392157,0.627450980392157);
ENDSEC;
END-ISO-10303-21;
