ISO-10303-21;
HEADER;
/* Generated by software containing ST-Developer
 * from STEP Tools, Inc. (www.steptools.com) 
 */

FILE_DESCRIPTION(
/* description */ (''),
/* implementation_level */ '2;1');

FILE_NAME(
/* name */ 'Power Bank mount x1.step',
/* time_stamp */ '2026-06-20T12:33:02-05:00',
/* author */ (''),
/* organization */ (''),
/* preprocessor_version */ 'ST-DEVELOPER v20.1',
/* originating_system */ 'Autodesk Translation Framework v15.8.0.0',
/* authorisation */ '');

FILE_SCHEMA (('AUTOMOTIVE_DESIGN { 1 0 10303 214 3 1 1 }'));
ENDSEC;

DATA;
#10=MECHANICAL_DESIGN_GEOMETRIC_PRESENTATION_REPRESENTATION('',(#13),#1261);
#11=SHAPE_REPRESENTATION_RELATIONSHIP('SRR','None',#1268,#12);
#12=ADVANCED_BREP_SHAPE_REPRESENTATION('',(#14),#1260);
#13=STYLED_ITEM('',(#1277),#14);
#14=MANIFOLD_SOLID_BREP('Body1',#708);
#15=FACE_BOUND('',#84,.T.);
#16=FACE_BOUND('',#85,.T.);
#17=FACE_BOUND('',#86,.T.);
#18=FACE_BOUND('',#92,.T.);
#19=FACE_BOUND('',#95,.T.);
#20=FACE_BOUND('',#101,.T.);
#21=FACE_BOUND('',#103,.T.);
#22=FACE_BOUND('',#105,.T.);
#23=FACE_BOUND('',#106,.T.);
#24=PLANE('',#726);
#25=PLANE('',#744);
#26=PLANE('',#745);
#27=PLANE('',#749);
#28=PLANE('',#754);
#29=PLANE('',#762);
#30=PLANE('',#766);
#31=PLANE('',#770);
#32=PLANE('',#774);
#33=PLANE('',#776);
#34=PLANE('',#777);
#35=PLANE('',#778);
#36=PLANE('',#779);
#37=PLANE('',#781);
#38=PLANE('',#783);
#39=PLANE('',#785);
#40=PLANE('',#791);
#41=PLANE('',#792);
#42=PLANE('',#793);
#43=(
BOUNDED_SURFACE()
B_SPLINE_SURFACE(2,2,((#1056,#1057,#1058,#1059,#1060),(#1061,#1062,#1063,
#1064,#1065),(#1066,#1067,#1068,#1069,#1070)),.UNSPECIFIED.,.F.,.F.,.F.)
B_SPLINE_SURFACE_WITH_KNOTS((3,3),(3,2,3),(-3.14159265358979,-1.5707963267949),
(-3.14159265358979,-2.35510348291561,-1.56861431224143),.UNSPECIFIED.)
GEOMETRIC_REPRESENTATION_ITEM()
RATIONAL_B_SPLINE_SURFACE(((1.,0.923670639855581,1.,0.923670639855581,1.),
(0.707106781186539,0.653133773024791,0.707106781186539,0.653133773024791,
0.707106781186539),(1.,0.923670639855581,1.,0.923670639855581,1.)))
REPRESENTATION_ITEM('')
SURFACE()
);
#44=FACE_OUTER_BOUND('',#81,.T.);
#45=FACE_OUTER_BOUND('',#82,.T.);
#46=FACE_OUTER_BOUND('',#83,.T.);
#47=FACE_OUTER_BOUND('',#87,.T.);
#48=FACE_OUTER_BOUND('',#88,.T.);
#49=FACE_OUTER_BOUND('',#89,.T.);
#50=FACE_OUTER_BOUND('',#90,.T.);
#51=FACE_OUTER_BOUND('',#91,.T.);
#52=FACE_OUTER_BOUND('',#93,.T.);
#53=FACE_OUTER_BOUND('',#94,.T.);
#54=FACE_OUTER_BOUND('',#96,.T.);
#55=FACE_OUTER_BOUND('',#97,.T.);
#56=FACE_OUTER_BOUND('',#98,.T.);
#57=FACE_OUTER_BOUND('',#99,.T.);
#58=FACE_OUTER_BOUND('',#100,.T.);
#59=FACE_OUTER_BOUND('',#102,.T.);
#60=FACE_OUTER_BOUND('',#104,.T.);
#61=FACE_OUTER_BOUND('',#107,.T.);
#62=FACE_OUTER_BOUND('',#108,.T.);
#63=FACE_OUTER_BOUND('',#109,.T.);
#64=FACE_OUTER_BOUND('',#110,.T.);
#65=FACE_OUTER_BOUND('',#111,.T.);
#66=FACE_OUTER_BOUND('',#112,.T.);
#67=FACE_OUTER_BOUND('',#113,.T.);
#68=FACE_OUTER_BOUND('',#114,.T.);
#69=FACE_OUTER_BOUND('',#115,.T.);
#70=FACE_OUTER_BOUND('',#116,.T.);
#71=FACE_OUTER_BOUND('',#117,.T.);
#72=FACE_OUTER_BOUND('',#118,.T.);
#73=FACE_OUTER_BOUND('',#119,.T.);
#74=FACE_OUTER_BOUND('',#120,.T.);
#75=FACE_OUTER_BOUND('',#121,.T.);
#76=FACE_OUTER_BOUND('',#122,.T.);
#77=FACE_OUTER_BOUND('',#123,.T.);
#78=FACE_OUTER_BOUND('',#124,.T.);
#79=FACE_OUTER_BOUND('',#125,.T.);
#80=FACE_OUTER_BOUND('',#126,.T.);
#81=EDGE_LOOP('',(#454,#455,#456,#457,#458,#459,#460));
#82=EDGE_LOOP('',(#461,#462,#463));
#83=EDGE_LOOP('',(#464,#465,#466,#467,#468,#469,#470,#471,#472,#473,#474,
#475,#476,#477,#478,#479,#480,#481,#482,#483,#484,#485,#486));
#84=EDGE_LOOP('',(#487));
#85=EDGE_LOOP('',(#488));
#86=EDGE_LOOP('',(#489));
#87=EDGE_LOOP('',(#490,#491,#492,#493,#494));
#88=EDGE_LOOP('',(#495,#496,#497,#498));
#89=EDGE_LOOP('',(#499,#500,#501,#502));
#90=EDGE_LOOP('',(#503,#504,#505,#506));
#91=EDGE_LOOP('',(#507));
#92=EDGE_LOOP('',(#508));
#93=EDGE_LOOP('',(#509,#510,#511,#512));
#94=EDGE_LOOP('',(#513));
#95=EDGE_LOOP('',(#514));
#96=EDGE_LOOP('',(#515,#516,#517,#518));
#97=EDGE_LOOP('',(#519,#520,#521,#522));
#98=EDGE_LOOP('',(#523,#524,#525,#526,#527,#528));
#99=EDGE_LOOP('',(#529,#530,#531,#532));
#100=EDGE_LOOP('',(#533,#534,#535,#536,#537,#538,#539));
#101=EDGE_LOOP('',(#540));
#102=EDGE_LOOP('',(#541,#542,#543,#544,#545,#546,#547,#548));
#103=EDGE_LOOP('',(#549));
#104=EDGE_LOOP('',(#550,#551,#552,#553,#554,#555,#556,#557,#558,#559,#560,
#561,#562,#563));
#105=EDGE_LOOP('',(#564));
#106=EDGE_LOOP('',(#565));
#107=EDGE_LOOP('',(#566,#567,#568,#569,#570,#571));
#108=EDGE_LOOP('',(#572,#573,#574,#575));
#109=EDGE_LOOP('',(#576,#577,#578,#579));
#110=EDGE_LOOP('',(#580,#581,#582,#583,#584,#585));
#111=EDGE_LOOP('',(#586,#587,#588,#589));
#112=EDGE_LOOP('',(#590,#591,#592,#593));
#113=EDGE_LOOP('',(#594,#595,#596,#597));
#114=EDGE_LOOP('',(#598,#599,#600,#601,#602,#603));
#115=EDGE_LOOP('',(#604,#605,#606,#607));
#116=EDGE_LOOP('',(#608,#609,#610,#611));
#117=EDGE_LOOP('',(#612,#613,#614,#615));
#118=EDGE_LOOP('',(#616,#617,#618,#619,#620,#621));
#119=EDGE_LOOP('',(#622,#623,#624,#625));
#120=EDGE_LOOP('',(#626,#627,#628,#629));
#121=EDGE_LOOP('',(#630,#631,#632,#633));
#122=EDGE_LOOP('',(#634,#635,#636,#637));
#123=EDGE_LOOP('',(#638,#639,#640,#641));
#124=EDGE_LOOP('',(#642,#643,#644,#645));
#125=EDGE_LOOP('',(#646,#647,#648,#649));
#126=EDGE_LOOP('',(#650,#651,#652,#653));
#127=(
BOUNDED_CURVE()
B_SPLINE_CURVE(2,(#1031,#1032,#1033),.UNSPECIFIED.,.F.,.F.)
B_SPLINE_CURVE_WITH_KNOTS((3,3),(1.00322110106816,1.7114614300562),
 .UNSPECIFIED.)
CURVE()
GEOMETRIC_REPRESENTATION_ITEM()
RATIONAL_B_SPLINE_CURVE((0.99781333278955,0.99781333278955,0.998903142522164))
REPRESENTATION_ITEM('')
);
#128=CIRCLE('',#723,5.);
#129=CIRCLE('',#724,5.);
#130=CIRCLE('',#725,5.);
#131=CIRCLE('',#727,5.);
#132=CIRCLE('',#728,5.);
#133=CIRCLE('',#729,5.);
#134=CIRCLE('',#730,5.);
#135=CIRCLE('',#731,5.);
#136=CIRCLE('',#732,5.);
#137=CIRCLE('',#733,5.);
#138=CIRCLE('',#734,5.);
#139=CIRCLE('',#735,5.);
#140=CIRCLE('',#736,5.);
#141=CIRCLE('',#737,0.499999999999998);
#142=CIRCLE('',#738,0.499999999999998);
#143=CIRCLE('',#739,0.499999999999998);
#144=CIRCLE('',#740,0.499999999999998);
#145=CIRCLE('',#741,0.499999999999998);
#146=CIRCLE('',#743,5.);
#147=CIRCLE('',#747,3.5);
#148=CIRCLE('',#748,3.5);
#149=CIRCLE('',#750,0.499999999999998);
#150=CIRCLE('',#752,3.5);
#151=CIRCLE('',#753,3.5);
#152=CIRCLE('',#755,0.499999999999998);
#153=CIRCLE('',#759,0.499999999999998);
#154=CIRCLE('',#761,0.499999999999998);
#155=CIRCLE('',#763,5.);
#156=CIRCLE('',#764,5.);
#157=CIRCLE('',#765,5.);
#158=CIRCLE('',#767,5.);
#159=CIRCLE('',#768,5.);
#160=CIRCLE('',#769,5.);
#161=CIRCLE('',#771,5.);
#162=CIRCLE('',#772,5.);
#163=CIRCLE('',#773,5.);
#164=LINE('',#1025,#225);
#165=LINE('',#1029,#226);
#166=LINE('',#1055,#227);
#167=LINE('',#1078,#228);
#168=LINE('',#1082,#229);
#169=LINE('',#1086,#230);
#170=LINE('',#1090,#231);
#171=LINE('',#1094,#232);
#172=LINE('',#1098,#233);
#173=LINE('',#1104,#234);
#174=LINE('',#1108,#235);
#175=LINE('',#1121,#236);
#176=LINE('',#1124,#237);
#177=LINE('',#1127,#238);
#178=LINE('',#1128,#239);
#179=LINE('',#1131,#240);
#180=LINE('',#1132,#241);
#181=LINE('',#1137,#242);
#182=LINE('',#1146,#243);
#183=LINE('',#1152,#244);
#184=LINE('',#1154,#245);
#185=LINE('',#1158,#246);
#186=LINE('',#1162,#247);
#187=LINE('',#1166,#248);
#188=LINE('',#1168,#249);
#189=LINE('',#1172,#250);
#190=LINE('',#1177,#251);
#191=LINE('',#1181,#252);
#192=LINE('',#1183,#253);
#193=LINE('',#1187,#254);
#194=LINE('',#1191,#255);
#195=LINE('',#1194,#256);
#196=LINE('',#1198,#257);
#197=LINE('',#1199,#258);
#198=LINE('',#1201,#259);
#199=LINE('',#1205,#260);
#200=LINE('',#1207,#261);
#201=LINE('',#1209,#262);
#202=LINE('',#1213,#263);
#203=LINE('',#1216,#264);
#204=LINE('',#1218,#265);
#205=LINE('',#1219,#266);
#206=LINE('',#1220,#267);
#207=LINE('',#1222,#268);
#208=LINE('',#1225,#269);
#209=LINE('',#1226,#270);
#210=LINE('',#1228,#271);
#211=LINE('',#1230,#272);
#212=LINE('',#1232,#273);
#213=LINE('',#1233,#274);
#214=LINE('',#1235,#275);
#215=LINE('',#1237,#276);
#216=LINE('',#1239,#277);
#217=LINE('',#1241,#278);
#218=LINE('',#1242,#279);
#219=LINE('',#1244,#280);
#220=LINE('',#1247,#281);
#221=LINE('',#1249,#282);
#222=LINE('',#1250,#283);
#223=LINE('',#1252,#284);
#224=LINE('',#1254,#285);
#225=VECTOR('',#798,10.);
#226=VECTOR('',#801,10.);
#227=VECTOR('',#802,10.);
#228=VECTOR('',#811,10.);
#229=VECTOR('',#814,10.);
#230=VECTOR('',#817,10.);
#231=VECTOR('',#820,10.);
#232=VECTOR('',#823,10.);
#233=VECTOR('',#826,10.);
#234=VECTOR('',#831,10.);
#235=VECTOR('',#834,10.);
#236=VECTOR('',#849,10.);
#237=VECTOR('',#852,10.);
#238=VECTOR('',#855,10.);
#239=VECTOR('',#856,10.);
#240=VECTOR('',#859,10.);
#241=VECTOR('',#860,10.);
#242=VECTOR('',#865,3.5);
#243=VECTOR('',#876,3.5);
#244=VECTOR('',#885,0.499999999999998);
#245=VECTOR('',#888,0.499999999999998);
#246=VECTOR('',#893,0.499999999999998);
#247=VECTOR('',#898,0.499999999999998);
#248=VECTOR('',#901,10.);
#249=VECTOR('',#902,10.);
#250=VECTOR('',#905,10.);
#251=VECTOR('',#910,10.);
#252=VECTOR('',#913,10.);
#253=VECTOR('',#914,10.);
#254=VECTOR('',#917,10.);
#255=VECTOR('',#920,10.);
#256=VECTOR('',#923,10.);
#257=VECTOR('',#926,10.);
#258=VECTOR('',#927,10.);
#259=VECTOR('',#928,10.);
#260=VECTOR('',#931,10.);
#261=VECTOR('',#932,10.);
#262=VECTOR('',#933,10.);
#263=VECTOR('',#936,10.);
#264=VECTOR('',#939,10.);
#265=VECTOR('',#942,10.);
#266=VECTOR('',#943,10.);
#267=VECTOR('',#944,10.);
#268=VECTOR('',#947,10.);
#269=VECTOR('',#952,10.);
#270=VECTOR('',#953,10.);
#271=VECTOR('',#956,10.);
#272=VECTOR('',#959,10.);
#273=VECTOR('',#962,10.);
#274=VECTOR('',#963,10.);
#275=VECTOR('',#966,10.);
#276=VECTOR('',#969,10.);
#277=VECTOR('',#972,10.);
#278=VECTOR('',#975,10.);
#279=VECTOR('',#976,10.);
#280=VECTOR('',#979,10.);
#281=VECTOR('',#984,10.);
#282=VECTOR('',#987,10.);
#283=VECTOR('',#988,10.);
#284=VECTOR('',#991,10.);
#285=VECTOR('',#994,10.);
#286=B_SPLINE_CURVE_WITH_KNOTS('',3,(#1005,#1006,#1007,#1008,#1009,#1010,
#1011,#1012,#1013,#1014,#1015,#1016,#1017,#1018,#1019,#1020,#1021,#1022,
#1023),.UNSPECIFIED.,.F.,.F.,(4,2,2,2,3,2,2,2,4),(0.227263955222893,0.245024387520924,
0.263870661811142,0.282718384608715,0.301566107406288,0.320413830203861,
0.339261553001433,0.358107827291652,0.375868259589683),.UNSPECIFIED.);
#287=B_SPLINE_CURVE_WITH_KNOTS('',3,(#1035,#1036,#1037,#1038,#1039,#1040,
#1041,#1042,#1043,#1044,#1045,#1046,#1047,#1048,#1049,#1050,#1051,#1052,
#1053,#1054),.UNSPECIFIED.,.F.,.F.,(4,2,2,2,2,2,2,2,2,4),(3.90776981671297,
3.92539953137245,3.94413372594233,3.9816021150821,4.05653889336165,4.20641244992074,
4.50615956303891,4.7051032435914,4.80457508386764,4.88756745750449),
 .UNSPECIFIED.);
#288=VERTEX_POINT('',#1003);
#289=VERTEX_POINT('',#1004);
#290=VERTEX_POINT('',#1024);
#291=VERTEX_POINT('',#1026);
#292=VERTEX_POINT('',#1028);
#293=VERTEX_POINT('',#1030);
#294=VERTEX_POINT('',#1034);
#295=VERTEX_POINT('',#1071);
#296=VERTEX_POINT('',#1075);
#297=VERTEX_POINT('',#1077);
#298=VERTEX_POINT('',#1079);
#299=VERTEX_POINT('',#1081);
#300=VERTEX_POINT('',#1083);
#301=VERTEX_POINT('',#1085);
#302=VERTEX_POINT('',#1087);
#303=VERTEX_POINT('',#1089);
#304=VERTEX_POINT('',#1091);
#305=VERTEX_POINT('',#1093);
#306=VERTEX_POINT('',#1095);
#307=VERTEX_POINT('',#1097);
#308=VERTEX_POINT('',#1099);
#309=VERTEX_POINT('',#1101);
#310=VERTEX_POINT('',#1103);
#311=VERTEX_POINT('',#1105);
#312=VERTEX_POINT('',#1107);
#313=VERTEX_POINT('',#1110);
#314=VERTEX_POINT('',#1113);
#315=VERTEX_POINT('',#1115);
#316=VERTEX_POINT('',#1117);
#317=VERTEX_POINT('',#1120);
#318=VERTEX_POINT('',#1122);
#319=VERTEX_POINT('',#1126);
#320=VERTEX_POINT('',#1130);
#321=VERTEX_POINT('',#1134);
#322=VERTEX_POINT('',#1136);
#323=VERTEX_POINT('',#1140);
#324=VERTEX_POINT('',#1143);
#325=VERTEX_POINT('',#1145);
#326=VERTEX_POINT('',#1149);
#327=VERTEX_POINT('',#1156);
#328=VERTEX_POINT('',#1160);
#329=VERTEX_POINT('',#1164);
#330=VERTEX_POINT('',#1165);
#331=VERTEX_POINT('',#1167);
#332=VERTEX_POINT('',#1169);
#333=VERTEX_POINT('',#1171);
#334=VERTEX_POINT('',#1173);
#335=VERTEX_POINT('',#1175);
#336=VERTEX_POINT('',#1179);
#337=VERTEX_POINT('',#1180);
#338=VERTEX_POINT('',#1182);
#339=VERTEX_POINT('',#1184);
#340=VERTEX_POINT('',#1186);
#341=VERTEX_POINT('',#1188);
#342=VERTEX_POINT('',#1190);
#343=VERTEX_POINT('',#1192);
#344=VERTEX_POINT('',#1196);
#345=VERTEX_POINT('',#1197);
#346=VERTEX_POINT('',#1200);
#347=VERTEX_POINT('',#1202);
#348=VERTEX_POINT('',#1204);
#349=VERTEX_POINT('',#1206);
#350=VERTEX_POINT('',#1208);
#351=VERTEX_POINT('',#1210);
#352=VERTEX_POINT('',#1212);
#353=VERTEX_POINT('',#1214);
#354=EDGE_CURVE('',#288,#289,#286,.T.);
#355=EDGE_CURVE('',#289,#290,#164,.T.);
#356=EDGE_CURVE('',#290,#291,#128,.T.);
#357=EDGE_CURVE('',#291,#292,#165,.T.);
#358=EDGE_CURVE('',#292,#293,#127,.T.);
#359=EDGE_CURVE('',#293,#294,#287,.T.);
#360=EDGE_CURVE('',#294,#288,#166,.T.);
#361=EDGE_CURVE('',#295,#291,#129,.T.);
#362=EDGE_CURVE('',#290,#295,#130,.T.);
#363=EDGE_CURVE('',#296,#294,#131,.F.);
#364=EDGE_CURVE('',#296,#297,#167,.T.);
#365=EDGE_CURVE('',#298,#297,#132,.F.);
#366=EDGE_CURVE('',#298,#299,#168,.T.);
#367=EDGE_CURVE('',#300,#299,#133,.F.);
#368=EDGE_CURVE('',#300,#301,#169,.T.);
#369=EDGE_CURVE('',#301,#302,#134,.T.);
#370=EDGE_CURVE('',#302,#303,#170,.T.);
#371=EDGE_CURVE('',#303,#304,#135,.T.);
#372=EDGE_CURVE('',#304,#305,#171,.T.);
#373=EDGE_CURVE('',#305,#306,#136,.T.);
#374=EDGE_CURVE('',#306,#307,#172,.T.);
#375=EDGE_CURVE('',#307,#308,#137,.T.);
#376=EDGE_CURVE('',#309,#308,#138,.F.);
#377=EDGE_CURVE('',#309,#310,#173,.T.);
#378=EDGE_CURVE('',#311,#310,#139,.F.);
#379=EDGE_CURVE('',#311,#312,#174,.T.);
#380=EDGE_CURVE('',#295,#312,#140,.F.);
#381=EDGE_CURVE('',#289,#313,#141,.T.);
#382=EDGE_CURVE('',#313,#288,#142,.T.);
#383=EDGE_CURVE('',#314,#314,#143,.T.);
#384=EDGE_CURVE('',#315,#315,#144,.T.);
#385=EDGE_CURVE('',#316,#316,#145,.T.);
#386=EDGE_CURVE('',#293,#317,#175,.T.);
#387=EDGE_CURVE('',#317,#318,#146,.T.);
#388=EDGE_CURVE('',#318,#296,#176,.T.);
#389=EDGE_CURVE('',#292,#319,#177,.T.);
#390=EDGE_CURVE('',#319,#317,#178,.T.);
#391=EDGE_CURVE('',#291,#320,#179,.T.);
#392=EDGE_CURVE('',#320,#319,#180,.T.);
#393=EDGE_CURVE('',#321,#321,#147,.T.);
#394=EDGE_CURVE('',#321,#322,#181,.T.);
#395=EDGE_CURVE('',#322,#322,#148,.T.);
#396=EDGE_CURVE('',#323,#323,#149,.T.);
#397=EDGE_CURVE('',#324,#324,#150,.T.);
#398=EDGE_CURVE('',#324,#325,#182,.T.);
#399=EDGE_CURVE('',#325,#325,#151,.T.);
#400=EDGE_CURVE('',#326,#326,#152,.T.);
#401=EDGE_CURVE('',#326,#316,#183,.T.);
#402=EDGE_CURVE('',#323,#315,#184,.T.);
#403=EDGE_CURVE('',#327,#327,#153,.T.);
#404=EDGE_CURVE('',#327,#313,#185,.T.);
#405=EDGE_CURVE('',#328,#328,#154,.T.);
#406=EDGE_CURVE('',#328,#314,#186,.T.);
#407=EDGE_CURVE('',#329,#330,#187,.T.);
#408=EDGE_CURVE('',#330,#331,#188,.T.);
#409=EDGE_CURVE('',#331,#332,#155,.T.);
#410=EDGE_CURVE('',#332,#333,#189,.T.);
#411=EDGE_CURVE('',#333,#334,#156,.T.);
#412=EDGE_CURVE('',#334,#335,#157,.T.);
#413=EDGE_CURVE('',#335,#329,#190,.T.);
#414=EDGE_CURVE('',#336,#337,#191,.T.);
#415=EDGE_CURVE('',#337,#338,#192,.T.);
#416=EDGE_CURVE('',#338,#339,#158,.T.);
#417=EDGE_CURVE('',#339,#340,#193,.T.);
#418=EDGE_CURVE('',#340,#341,#159,.T.);
#419=EDGE_CURVE('',#341,#342,#194,.T.);
#420=EDGE_CURVE('',#342,#343,#160,.T.);
#421=EDGE_CURVE('',#343,#336,#195,.T.);
#422=EDGE_CURVE('',#344,#345,#196,.T.);
#423=EDGE_CURVE('',#318,#344,#197,.T.);
#424=EDGE_CURVE('',#346,#320,#198,.T.);
#425=EDGE_CURVE('',#347,#346,#161,.T.);
#426=EDGE_CURVE('',#348,#347,#199,.T.);
#427=EDGE_CURVE('',#349,#348,#200,.T.);
#428=EDGE_CURVE('',#350,#349,#201,.T.);
#429=EDGE_CURVE('',#351,#350,#162,.T.);
#430=EDGE_CURVE('',#352,#351,#202,.T.);
#431=EDGE_CURVE('',#353,#352,#163,.T.);
#432=EDGE_CURVE('',#345,#353,#203,.T.);
#433=EDGE_CURVE('',#330,#348,#204,.T.);
#434=EDGE_CURVE('',#312,#347,#205,.T.);
#435=EDGE_CURVE('',#331,#311,#206,.T.);
#436=EDGE_CURVE('',#346,#295,#207,.T.);
#437=EDGE_CURVE('',#344,#336,#208,.T.);
#438=EDGE_CURVE('',#297,#343,#209,.T.);
#439=EDGE_CURVE('',#337,#345,#210,.T.);
#440=EDGE_CURVE('',#349,#329,#211,.T.);
#441=EDGE_CURVE('',#307,#335,#212,.T.);
#442=EDGE_CURVE('',#308,#334,#213,.T.);
#443=EDGE_CURVE('',#350,#306,#214,.T.);
#444=EDGE_CURVE('',#305,#351,#215,.T.);
#445=EDGE_CURVE('',#352,#304,#216,.T.);
#446=EDGE_CURVE('',#301,#339,#217,.T.);
#447=EDGE_CURVE('',#338,#302,#218,.T.);
#448=EDGE_CURVE('',#303,#353,#219,.T.);
#449=EDGE_CURVE('',#309,#333,#220,.T.);
#450=EDGE_CURVE('',#340,#300,#221,.T.);
#451=EDGE_CURVE('',#299,#341,#222,.T.);
#452=EDGE_CURVE('',#310,#332,#223,.T.);
#453=EDGE_CURVE('',#298,#342,#224,.T.);
#454=ORIENTED_EDGE('',*,*,#354,.T.);
#455=ORIENTED_EDGE('',*,*,#355,.T.);
#456=ORIENTED_EDGE('',*,*,#356,.T.);
#457=ORIENTED_EDGE('',*,*,#357,.T.);
#458=ORIENTED_EDGE('',*,*,#358,.T.);
#459=ORIENTED_EDGE('',*,*,#359,.T.);
#460=ORIENTED_EDGE('',*,*,#360,.T.);
#461=ORIENTED_EDGE('',*,*,#361,.T.);
#462=ORIENTED_EDGE('',*,*,#356,.F.);
#463=ORIENTED_EDGE('',*,*,#362,.T.);
#464=ORIENTED_EDGE('',*,*,#360,.F.);
#465=ORIENTED_EDGE('',*,*,#363,.F.);
#466=ORIENTED_EDGE('',*,*,#364,.T.);
#467=ORIENTED_EDGE('',*,*,#365,.F.);
#468=ORIENTED_EDGE('',*,*,#366,.T.);
#469=ORIENTED_EDGE('',*,*,#367,.F.);
#470=ORIENTED_EDGE('',*,*,#368,.T.);
#471=ORIENTED_EDGE('',*,*,#369,.T.);
#472=ORIENTED_EDGE('',*,*,#370,.T.);
#473=ORIENTED_EDGE('',*,*,#371,.T.);
#474=ORIENTED_EDGE('',*,*,#372,.T.);
#475=ORIENTED_EDGE('',*,*,#373,.T.);
#476=ORIENTED_EDGE('',*,*,#374,.T.);
#477=ORIENTED_EDGE('',*,*,#375,.T.);
#478=ORIENTED_EDGE('',*,*,#376,.F.);
#479=ORIENTED_EDGE('',*,*,#377,.T.);
#480=ORIENTED_EDGE('',*,*,#378,.F.);
#481=ORIENTED_EDGE('',*,*,#379,.T.);
#482=ORIENTED_EDGE('',*,*,#380,.F.);
#483=ORIENTED_EDGE('',*,*,#362,.F.);
#484=ORIENTED_EDGE('',*,*,#355,.F.);
#485=ORIENTED_EDGE('',*,*,#381,.T.);
#486=ORIENTED_EDGE('',*,*,#382,.T.);
#487=ORIENTED_EDGE('',*,*,#383,.T.);
#488=ORIENTED_EDGE('',*,*,#384,.T.);
#489=ORIENTED_EDGE('',*,*,#385,.T.);
#490=ORIENTED_EDGE('',*,*,#359,.F.);
#491=ORIENTED_EDGE('',*,*,#386,.T.);
#492=ORIENTED_EDGE('',*,*,#387,.T.);
#493=ORIENTED_EDGE('',*,*,#388,.T.);
#494=ORIENTED_EDGE('',*,*,#363,.T.);
#495=ORIENTED_EDGE('',*,*,#358,.F.);
#496=ORIENTED_EDGE('',*,*,#389,.T.);
#497=ORIENTED_EDGE('',*,*,#390,.T.);
#498=ORIENTED_EDGE('',*,*,#386,.F.);
#499=ORIENTED_EDGE('',*,*,#357,.F.);
#500=ORIENTED_EDGE('',*,*,#391,.T.);
#501=ORIENTED_EDGE('',*,*,#392,.T.);
#502=ORIENTED_EDGE('',*,*,#389,.F.);
#503=ORIENTED_EDGE('',*,*,#393,.F.);
#504=ORIENTED_EDGE('',*,*,#394,.T.);
#505=ORIENTED_EDGE('',*,*,#395,.T.);
#506=ORIENTED_EDGE('',*,*,#394,.F.);
#507=ORIENTED_EDGE('',*,*,#395,.F.);
#508=ORIENTED_EDGE('',*,*,#396,.F.);
#509=ORIENTED_EDGE('',*,*,#397,.F.);
#510=ORIENTED_EDGE('',*,*,#398,.T.);
#511=ORIENTED_EDGE('',*,*,#399,.T.);
#512=ORIENTED_EDGE('',*,*,#398,.F.);
#513=ORIENTED_EDGE('',*,*,#399,.F.);
#514=ORIENTED_EDGE('',*,*,#400,.F.);
#515=ORIENTED_EDGE('',*,*,#400,.T.);
#516=ORIENTED_EDGE('',*,*,#401,.T.);
#517=ORIENTED_EDGE('',*,*,#385,.F.);
#518=ORIENTED_EDGE('',*,*,#401,.F.);
#519=ORIENTED_EDGE('',*,*,#396,.T.);
#520=ORIENTED_EDGE('',*,*,#402,.T.);
#521=ORIENTED_EDGE('',*,*,#384,.F.);
#522=ORIENTED_EDGE('',*,*,#402,.F.);
#523=ORIENTED_EDGE('',*,*,#403,.F.);
#524=ORIENTED_EDGE('',*,*,#404,.T.);
#525=ORIENTED_EDGE('',*,*,#381,.F.);
#526=ORIENTED_EDGE('',*,*,#354,.F.);
#527=ORIENTED_EDGE('',*,*,#382,.F.);
#528=ORIENTED_EDGE('',*,*,#404,.F.);
#529=ORIENTED_EDGE('',*,*,#405,.F.);
#530=ORIENTED_EDGE('',*,*,#406,.T.);
#531=ORIENTED_EDGE('',*,*,#383,.F.);
#532=ORIENTED_EDGE('',*,*,#406,.F.);
#533=ORIENTED_EDGE('',*,*,#407,.T.);
#534=ORIENTED_EDGE('',*,*,#408,.T.);
#535=ORIENTED_EDGE('',*,*,#409,.T.);
#536=ORIENTED_EDGE('',*,*,#410,.T.);
#537=ORIENTED_EDGE('',*,*,#411,.T.);
#538=ORIENTED_EDGE('',*,*,#412,.T.);
#539=ORIENTED_EDGE('',*,*,#413,.T.);
#540=ORIENTED_EDGE('',*,*,#397,.T.);
#541=ORIENTED_EDGE('',*,*,#414,.T.);
#542=ORIENTED_EDGE('',*,*,#415,.T.);
#543=ORIENTED_EDGE('',*,*,#416,.T.);
#544=ORIENTED_EDGE('',*,*,#417,.T.);
#545=ORIENTED_EDGE('',*,*,#418,.T.);
#546=ORIENTED_EDGE('',*,*,#419,.T.);
#547=ORIENTED_EDGE('',*,*,#420,.T.);
#548=ORIENTED_EDGE('',*,*,#421,.T.);
#549=ORIENTED_EDGE('',*,*,#393,.T.);
#550=ORIENTED_EDGE('',*,*,#422,.F.);
#551=ORIENTED_EDGE('',*,*,#423,.F.);
#552=ORIENTED_EDGE('',*,*,#387,.F.);
#553=ORIENTED_EDGE('',*,*,#390,.F.);
#554=ORIENTED_EDGE('',*,*,#392,.F.);
#555=ORIENTED_EDGE('',*,*,#424,.F.);
#556=ORIENTED_EDGE('',*,*,#425,.F.);
#557=ORIENTED_EDGE('',*,*,#426,.F.);
#558=ORIENTED_EDGE('',*,*,#427,.F.);
#559=ORIENTED_EDGE('',*,*,#428,.F.);
#560=ORIENTED_EDGE('',*,*,#429,.F.);
#561=ORIENTED_EDGE('',*,*,#430,.F.);
#562=ORIENTED_EDGE('',*,*,#431,.F.);
#563=ORIENTED_EDGE('',*,*,#432,.F.);
#564=ORIENTED_EDGE('',*,*,#403,.T.);
#565=ORIENTED_EDGE('',*,*,#405,.T.);
#566=ORIENTED_EDGE('',*,*,#433,.T.);
#567=ORIENTED_EDGE('',*,*,#426,.T.);
#568=ORIENTED_EDGE('',*,*,#434,.F.);
#569=ORIENTED_EDGE('',*,*,#379,.F.);
#570=ORIENTED_EDGE('',*,*,#435,.F.);
#571=ORIENTED_EDGE('',*,*,#408,.F.);
#572=ORIENTED_EDGE('',*,*,#425,.T.);
#573=ORIENTED_EDGE('',*,*,#436,.T.);
#574=ORIENTED_EDGE('',*,*,#380,.T.);
#575=ORIENTED_EDGE('',*,*,#434,.T.);
#576=ORIENTED_EDGE('',*,*,#361,.F.);
#577=ORIENTED_EDGE('',*,*,#436,.F.);
#578=ORIENTED_EDGE('',*,*,#424,.T.);
#579=ORIENTED_EDGE('',*,*,#391,.F.);
#580=ORIENTED_EDGE('',*,*,#423,.T.);
#581=ORIENTED_EDGE('',*,*,#437,.T.);
#582=ORIENTED_EDGE('',*,*,#421,.F.);
#583=ORIENTED_EDGE('',*,*,#438,.F.);
#584=ORIENTED_EDGE('',*,*,#364,.F.);
#585=ORIENTED_EDGE('',*,*,#388,.F.);
#586=ORIENTED_EDGE('',*,*,#439,.F.);
#587=ORIENTED_EDGE('',*,*,#414,.F.);
#588=ORIENTED_EDGE('',*,*,#437,.F.);
#589=ORIENTED_EDGE('',*,*,#422,.T.);
#590=ORIENTED_EDGE('',*,*,#440,.F.);
#591=ORIENTED_EDGE('',*,*,#427,.T.);
#592=ORIENTED_EDGE('',*,*,#433,.F.);
#593=ORIENTED_EDGE('',*,*,#407,.F.);
#594=ORIENTED_EDGE('',*,*,#375,.F.);
#595=ORIENTED_EDGE('',*,*,#441,.T.);
#596=ORIENTED_EDGE('',*,*,#412,.F.);
#597=ORIENTED_EDGE('',*,*,#442,.F.);
#598=ORIENTED_EDGE('',*,*,#440,.T.);
#599=ORIENTED_EDGE('',*,*,#413,.F.);
#600=ORIENTED_EDGE('',*,*,#441,.F.);
#601=ORIENTED_EDGE('',*,*,#374,.F.);
#602=ORIENTED_EDGE('',*,*,#443,.F.);
#603=ORIENTED_EDGE('',*,*,#428,.T.);
#604=ORIENTED_EDGE('',*,*,#429,.T.);
#605=ORIENTED_EDGE('',*,*,#443,.T.);
#606=ORIENTED_EDGE('',*,*,#373,.F.);
#607=ORIENTED_EDGE('',*,*,#444,.T.);
#608=ORIENTED_EDGE('',*,*,#430,.T.);
#609=ORIENTED_EDGE('',*,*,#444,.F.);
#610=ORIENTED_EDGE('',*,*,#372,.F.);
#611=ORIENTED_EDGE('',*,*,#445,.F.);
#612=ORIENTED_EDGE('',*,*,#369,.F.);
#613=ORIENTED_EDGE('',*,*,#446,.T.);
#614=ORIENTED_EDGE('',*,*,#416,.F.);
#615=ORIENTED_EDGE('',*,*,#447,.T.);
#616=ORIENTED_EDGE('',*,*,#432,.T.);
#617=ORIENTED_EDGE('',*,*,#448,.F.);
#618=ORIENTED_EDGE('',*,*,#370,.F.);
#619=ORIENTED_EDGE('',*,*,#447,.F.);
#620=ORIENTED_EDGE('',*,*,#415,.F.);
#621=ORIENTED_EDGE('',*,*,#439,.T.);
#622=ORIENTED_EDGE('',*,*,#431,.T.);
#623=ORIENTED_EDGE('',*,*,#445,.T.);
#624=ORIENTED_EDGE('',*,*,#371,.F.);
#625=ORIENTED_EDGE('',*,*,#448,.T.);
#626=ORIENTED_EDGE('',*,*,#449,.F.);
#627=ORIENTED_EDGE('',*,*,#376,.T.);
#628=ORIENTED_EDGE('',*,*,#442,.T.);
#629=ORIENTED_EDGE('',*,*,#411,.F.);
#630=ORIENTED_EDGE('',*,*,#450,.T.);
#631=ORIENTED_EDGE('',*,*,#367,.T.);
#632=ORIENTED_EDGE('',*,*,#451,.T.);
#633=ORIENTED_EDGE('',*,*,#418,.F.);
#634=ORIENTED_EDGE('',*,*,#435,.T.);
#635=ORIENTED_EDGE('',*,*,#378,.T.);
#636=ORIENTED_EDGE('',*,*,#452,.T.);
#637=ORIENTED_EDGE('',*,*,#409,.F.);
#638=ORIENTED_EDGE('',*,*,#453,.F.);
#639=ORIENTED_EDGE('',*,*,#365,.T.);
#640=ORIENTED_EDGE('',*,*,#438,.T.);
#641=ORIENTED_EDGE('',*,*,#420,.F.);
#642=ORIENTED_EDGE('',*,*,#451,.F.);
#643=ORIENTED_EDGE('',*,*,#366,.F.);
#644=ORIENTED_EDGE('',*,*,#453,.T.);
#645=ORIENTED_EDGE('',*,*,#419,.F.);
#646=ORIENTED_EDGE('',*,*,#446,.F.);
#647=ORIENTED_EDGE('',*,*,#368,.F.);
#648=ORIENTED_EDGE('',*,*,#450,.F.);
#649=ORIENTED_EDGE('',*,*,#417,.F.);
#650=ORIENTED_EDGE('',*,*,#449,.T.);
#651=ORIENTED_EDGE('',*,*,#410,.F.);
#652=ORIENTED_EDGE('',*,*,#452,.F.);
#653=ORIENTED_EDGE('',*,*,#377,.F.);
#654=CYLINDRICAL_SURFACE('',#722,5.);
#655=CYLINDRICAL_SURFACE('',#742,5.);
#656=CYLINDRICAL_SURFACE('',#746,3.5);
#657=CYLINDRICAL_SURFACE('',#751,3.5);
#658=CYLINDRICAL_SURFACE('',#756,0.499999999999998);
#659=CYLINDRICAL_SURFACE('',#757,0.499999999999998);
#660=CYLINDRICAL_SURFACE('',#758,0.499999999999998);
#661=CYLINDRICAL_SURFACE('',#760,0.499999999999998);
#662=CYLINDRICAL_SURFACE('',#775,5.);
#663=CYLINDRICAL_SURFACE('',#780,5.);
#664=CYLINDRICAL_SURFACE('',#782,5.);
#665=CYLINDRICAL_SURFACE('',#784,5.);
#666=CYLINDRICAL_SURFACE('',#786,5.);
#667=CYLINDRICAL_SURFACE('',#787,5.);
#668=CYLINDRICAL_SURFACE('',#788,5.);
#669=CYLINDRICAL_SURFACE('',#789,5.);
#670=CYLINDRICAL_SURFACE('',#790,5.);
#671=ADVANCED_FACE('',(#44),#654,.T.);
#672=ADVANCED_FACE('',(#45),#43,.T.);
#673=ADVANCED_FACE('',(#46,#15,#16,#17),#24,.F.);
#674=ADVANCED_FACE('',(#47),#655,.T.);
#675=ADVANCED_FACE('',(#48),#25,.T.);
#676=ADVANCED_FACE('',(#49),#26,.T.);
#677=ADVANCED_FACE('',(#50),#656,.F.);
#678=ADVANCED_FACE('',(#51,#18),#27,.T.);
#679=ADVANCED_FACE('',(#52),#657,.F.);
#680=ADVANCED_FACE('',(#53,#19),#28,.T.);
#681=ADVANCED_FACE('',(#54),#658,.F.);
#682=ADVANCED_FACE('',(#55),#659,.F.);
#683=ADVANCED_FACE('',(#56),#660,.F.);
#684=ADVANCED_FACE('',(#57),#661,.F.);
#685=ADVANCED_FACE('',(#58,#20),#29,.T.);
#686=ADVANCED_FACE('',(#59,#21),#30,.T.);
#687=ADVANCED_FACE('',(#60,#22,#23),#31,.T.);
#688=ADVANCED_FACE('',(#61),#32,.T.);
#689=ADVANCED_FACE('',(#62),#662,.T.);
#690=ADVANCED_FACE('',(#63),#33,.T.);
#691=ADVANCED_FACE('',(#64),#34,.T.);
#692=ADVANCED_FACE('',(#65),#35,.F.);
#693=ADVANCED_FACE('',(#66),#36,.F.);
#694=ADVANCED_FACE('',(#67),#663,.F.);
#695=ADVANCED_FACE('',(#68),#37,.T.);
#696=ADVANCED_FACE('',(#69),#664,.F.);
#697=ADVANCED_FACE('',(#70),#38,.T.);
#698=ADVANCED_FACE('',(#71),#665,.F.);
#699=ADVANCED_FACE('',(#72),#39,.T.);
#700=ADVANCED_FACE('',(#73),#666,.F.);
#701=ADVANCED_FACE('',(#74),#667,.T.);
#702=ADVANCED_FACE('',(#75),#668,.T.);
#703=ADVANCED_FACE('',(#76),#669,.T.);
#704=ADVANCED_FACE('',(#77),#670,.T.);
#705=ADVANCED_FACE('',(#78),#40,.T.);
#706=ADVANCED_FACE('',(#79),#41,.T.);
#707=ADVANCED_FACE('',(#80),#42,.T.);
#708=CLOSED_SHELL('',(#671,#672,#673,#674,#675,#676,#677,#678,#679,#680,
#681,#682,#683,#684,#685,#686,#687,#688,#689,#690,#691,#692,#693,#694,#695,
#696,#697,#698,#699,#700,#701,#702,#703,#704,#705,#706,#707));
#709=DERIVED_UNIT_ELEMENT(#711,1.);
#710=DERIVED_UNIT_ELEMENT(#1263,-3.);
#711=(
MASS_UNIT()
NAMED_UNIT(*)
SI_UNIT(.KILO.,.GRAM.)
);
#712=DERIVED_UNIT((#709,#710));
#713=MEASURE_REPRESENTATION_ITEM('density measure',
POSITIVE_RATIO_MEASURE(7850.),#712);
#714=PROPERTY_DEFINITION_REPRESENTATION(#719,#716);
#715=PROPERTY_DEFINITION_REPRESENTATION(#720,#717);
#716=REPRESENTATION('material name',(#718),#1260);
#717=REPRESENTATION('density',(#713),#1260);
#718=DESCRIPTIVE_REPRESENTATION_ITEM('Steel','Steel');
#719=PROPERTY_DEFINITION('material property','material name',#1270);
#720=PROPERTY_DEFINITION('material property','density of part',#1270);
#721=AXIS2_PLACEMENT_3D('',#1001,#794,#795);
#722=AXIS2_PLACEMENT_3D('',#1002,#796,#797);
#723=AXIS2_PLACEMENT_3D('',#1027,#799,#800);
#724=AXIS2_PLACEMENT_3D('',#1072,#803,#804);
#725=AXIS2_PLACEMENT_3D('',#1073,#805,#806);
#726=AXIS2_PLACEMENT_3D('',#1074,#807,#808);
#727=AXIS2_PLACEMENT_3D('',#1076,#809,#810);
#728=AXIS2_PLACEMENT_3D('',#1080,#812,#813);
#729=AXIS2_PLACEMENT_3D('',#1084,#815,#816);
#730=AXIS2_PLACEMENT_3D('',#1088,#818,#819);
#731=AXIS2_PLACEMENT_3D('',#1092,#821,#822);
#732=AXIS2_PLACEMENT_3D('',#1096,#824,#825);
#733=AXIS2_PLACEMENT_3D('',#1100,#827,#828);
#734=AXIS2_PLACEMENT_3D('',#1102,#829,#830);
#735=AXIS2_PLACEMENT_3D('',#1106,#832,#833);
#736=AXIS2_PLACEMENT_3D('',#1109,#835,#836);
#737=AXIS2_PLACEMENT_3D('',#1111,#837,#838);
#738=AXIS2_PLACEMENT_3D('',#1112,#839,#840);
#739=AXIS2_PLACEMENT_3D('',#1114,#841,#842);
#740=AXIS2_PLACEMENT_3D('',#1116,#843,#844);
#741=AXIS2_PLACEMENT_3D('',#1118,#845,#846);
#742=AXIS2_PLACEMENT_3D('',#1119,#847,#848);
#743=AXIS2_PLACEMENT_3D('',#1123,#850,#851);
#744=AXIS2_PLACEMENT_3D('',#1125,#853,#854);
#745=AXIS2_PLACEMENT_3D('',#1129,#857,#858);
#746=AXIS2_PLACEMENT_3D('',#1133,#861,#862);
#747=AXIS2_PLACEMENT_3D('',#1135,#863,#864);
#748=AXIS2_PLACEMENT_3D('',#1138,#866,#867);
#749=AXIS2_PLACEMENT_3D('',#1139,#868,#869);
#750=AXIS2_PLACEMENT_3D('',#1141,#870,#871);
#751=AXIS2_PLACEMENT_3D('',#1142,#872,#873);
#752=AXIS2_PLACEMENT_3D('',#1144,#874,#875);
#753=AXIS2_PLACEMENT_3D('',#1147,#877,#878);
#754=AXIS2_PLACEMENT_3D('',#1148,#879,#880);
#755=AXIS2_PLACEMENT_3D('',#1150,#881,#882);
#756=AXIS2_PLACEMENT_3D('',#1151,#883,#884);
#757=AXIS2_PLACEMENT_3D('',#1153,#886,#887);
#758=AXIS2_PLACEMENT_3D('',#1155,#889,#890);
#759=AXIS2_PLACEMENT_3D('',#1157,#891,#892);
#760=AXIS2_PLACEMENT_3D('',#1159,#894,#895);
#761=AXIS2_PLACEMENT_3D('',#1161,#896,#897);
#762=AXIS2_PLACEMENT_3D('',#1163,#899,#900);
#763=AXIS2_PLACEMENT_3D('',#1170,#903,#904);
#764=AXIS2_PLACEMENT_3D('',#1174,#906,#907);
#765=AXIS2_PLACEMENT_3D('',#1176,#908,#909);
#766=AXIS2_PLACEMENT_3D('',#1178,#911,#912);
#767=AXIS2_PLACEMENT_3D('',#1185,#915,#916);
#768=AXIS2_PLACEMENT_3D('',#1189,#918,#919);
#769=AXIS2_PLACEMENT_3D('',#1193,#921,#922);
#770=AXIS2_PLACEMENT_3D('',#1195,#924,#925);
#771=AXIS2_PLACEMENT_3D('',#1203,#929,#930);
#772=AXIS2_PLACEMENT_3D('',#1211,#934,#935);
#773=AXIS2_PLACEMENT_3D('',#1215,#937,#938);
#774=AXIS2_PLACEMENT_3D('',#1217,#940,#941);
#775=AXIS2_PLACEMENT_3D('',#1221,#945,#946);
#776=AXIS2_PLACEMENT_3D('',#1223,#948,#949);
#777=AXIS2_PLACEMENT_3D('',#1224,#950,#951);
#778=AXIS2_PLACEMENT_3D('',#1227,#954,#955);
#779=AXIS2_PLACEMENT_3D('',#1229,#957,#958);
#780=AXIS2_PLACEMENT_3D('',#1231,#960,#961);
#781=AXIS2_PLACEMENT_3D('',#1234,#964,#965);
#782=AXIS2_PLACEMENT_3D('',#1236,#967,#968);
#783=AXIS2_PLACEMENT_3D('',#1238,#970,#971);
#784=AXIS2_PLACEMENT_3D('',#1240,#973,#974);
#785=AXIS2_PLACEMENT_3D('',#1243,#977,#978);
#786=AXIS2_PLACEMENT_3D('',#1245,#980,#981);
#787=AXIS2_PLACEMENT_3D('',#1246,#982,#983);
#788=AXIS2_PLACEMENT_3D('',#1248,#985,#986);
#789=AXIS2_PLACEMENT_3D('',#1251,#989,#990);
#790=AXIS2_PLACEMENT_3D('',#1253,#992,#993);
#791=AXIS2_PLACEMENT_3D('',#1255,#995,#996);
#792=AXIS2_PLACEMENT_3D('',#1256,#997,#998);
#793=AXIS2_PLACEMENT_3D('',#1257,#999,#1000);
#794=DIRECTION('axis',(0.,0.,1.));
#795=DIRECTION('refdir',(1.,0.,0.));
#796=DIRECTION('center_axis',(0.0021820128219683,-1.11891446342814E-18,
-0.999997619407189));
#797=DIRECTION('ref_axis',(0.707105097853226,0.707106781186549,0.00154291606305008));
#798=DIRECTION('',(-0.0021820128219683,1.11891446342814E-18,0.999997619407189));
#799=DIRECTION('center_axis',(0.0021820128219685,0.,-0.999997619407189));
#800=DIRECTION('ref_axis',(0.,1.,0.));
#801=DIRECTION('',(0.0021820128219683,-1.11891446342814E-18,-0.999997619407189));
#802=DIRECTION('',(-0.0021820128219683,1.11891446342814E-18,0.999997619407189));
#803=DIRECTION('center_axis',(-1.,0.,0.));
#804=DIRECTION('ref_axis',(0.,0.,1.));
#805=DIRECTION('center_axis',(5.12790049702284E-16,1.,0.));
#806=DIRECTION('ref_axis',(0.999997619407189,-4.44089209850063E-16,0.00218201282196873));
#807=DIRECTION('center_axis',(-5.12790049702284E-16,-1.,0.));
#808=DIRECTION('ref_axis',(0.,0.,-1.));
#809=DIRECTION('center_axis',(5.12790049702284E-16,1.,0.));
#810=DIRECTION('ref_axis',(0.707106781186547,0.,-0.707106781186547));
#811=DIRECTION('',(-1.,5.12790049702284E-16,0.));
#812=DIRECTION('center_axis',(5.12790049702284E-16,1.,0.));
#813=DIRECTION('ref_axis',(-0.707106781186547,0.,-0.707106781186547));
#814=DIRECTION('',(0.,0.,1.));
#815=DIRECTION('center_axis',(5.12790049702284E-16,1.,0.));
#816=DIRECTION('ref_axis',(0.707106781186547,0.,0.707106781186547));
#817=DIRECTION('',(0.,0.,-1.));
#818=DIRECTION('center_axis',(-5.12790049702284E-16,-1.,0.));
#819=DIRECTION('ref_axis',(-0.707106781186547,0.,-0.707106781186547));
#820=DIRECTION('',(1.,-5.12790049702284E-16,0.));
#821=DIRECTION('center_axis',(-5.12790049702284E-16,-1.,0.));
#822=DIRECTION('ref_axis',(0.707106781186546,0.,-0.707106781186549));
#823=DIRECTION('',(1.808293344293E-15,-9.27274833896314E-31,1.));
#824=DIRECTION('center_axis',(-5.12790049702284E-16,-1.,0.));
#825=DIRECTION('ref_axis',(0.707106781186548,0.,0.707106781186547));
#826=DIRECTION('',(-1.,5.12790049702284E-16,0.));
#827=DIRECTION('center_axis',(-5.12790049702284E-16,-1.,0.));
#828=DIRECTION('ref_axis',(-0.707106781186548,0.,0.707106781186547));
#829=DIRECTION('center_axis',(5.12790049702284E-16,1.,0.));
#830=DIRECTION('ref_axis',(-0.707106781186547,0.,-0.707106781186547));
#831=DIRECTION('',(0.,0.,1.));
#832=DIRECTION('center_axis',(5.12790049702284E-16,1.,0.));
#833=DIRECTION('ref_axis',(-0.707106781186547,0.,0.707106781186547));
#834=DIRECTION('',(1.,-5.12790049702284E-16,0.));
#835=DIRECTION('center_axis',(5.12790049702284E-16,1.,0.));
#836=DIRECTION('ref_axis',(0.707106781186547,0.,0.707106781186547));
#837=DIRECTION('center_axis',(-5.12790049702284E-16,-1.,0.));
#838=DIRECTION('ref_axis',(1.,0.,0.));
#839=DIRECTION('center_axis',(-5.12790049702284E-16,-1.,0.));
#840=DIRECTION('ref_axis',(1.,0.,0.));
#841=DIRECTION('center_axis',(-5.12790049702284E-16,-1.,0.));
#842=DIRECTION('ref_axis',(1.,0.,0.));
#843=DIRECTION('center_axis',(-5.12790049702284E-16,-1.,0.));
#844=DIRECTION('ref_axis',(1.,0.,0.));
#845=DIRECTION('center_axis',(-5.12790049702284E-16,-1.,0.));
#846=DIRECTION('ref_axis',(1.,0.,0.));
#847=DIRECTION('center_axis',(0.,-1.,0.));
#848=DIRECTION('ref_axis',(0.707106781186547,0.,-0.707106781186547));
#849=DIRECTION('',(0.,-1.,0.));
#850=DIRECTION('center_axis',(0.,1.,0.));
#851=DIRECTION('ref_axis',(0.707106781186547,0.,-0.707106781186547));
#852=DIRECTION('',(0.,1.,0.));
#853=DIRECTION('center_axis',(1.,0.,0.));
#854=DIRECTION('ref_axis',(0.,0.,1.));
#855=DIRECTION('',(0.,-1.,0.));
#856=DIRECTION('',(0.,0.,-1.));
#857=DIRECTION('center_axis',(0.999997619407189,0.,0.0021820128219683));
#858=DIRECTION('ref_axis',(-0.0021820128219683,-3.40010787149007E-31,0.999997619407189));
#859=DIRECTION('',(0.,-1.,0.));
#860=DIRECTION('',(0.0021820128219683,0.,-0.999997619407189));
#861=DIRECTION('center_axis',(0.,1.,0.));
#862=DIRECTION('ref_axis',(1.,0.,0.));
#863=DIRECTION('center_axis',(0.,1.,0.));
#864=DIRECTION('ref_axis',(1.,0.,0.));
#865=DIRECTION('',(0.,1.,0.));
#866=DIRECTION('center_axis',(0.,1.,0.));
#867=DIRECTION('ref_axis',(1.,0.,0.));
#868=DIRECTION('center_axis',(0.,-1.,0.));
#869=DIRECTION('ref_axis',(1.,0.,0.));
#870=DIRECTION('center_axis',(0.,-1.,0.));
#871=DIRECTION('ref_axis',(1.,0.,0.));
#872=DIRECTION('center_axis',(0.,1.,0.));
#873=DIRECTION('ref_axis',(1.,0.,0.));
#874=DIRECTION('center_axis',(0.,1.,0.));
#875=DIRECTION('ref_axis',(1.,0.,0.));
#876=DIRECTION('',(0.,1.,0.));
#877=DIRECTION('center_axis',(0.,1.,0.));
#878=DIRECTION('ref_axis',(1.,0.,0.));
#879=DIRECTION('center_axis',(0.,-1.,0.));
#880=DIRECTION('ref_axis',(1.,0.,0.));
#881=DIRECTION('center_axis',(0.,-1.,0.));
#882=DIRECTION('ref_axis',(1.,0.,0.));
#883=DIRECTION('center_axis',(0.,1.,0.));
#884=DIRECTION('ref_axis',(1.,0.,0.));
#885=DIRECTION('',(0.,1.,0.));
#886=DIRECTION('center_axis',(0.,1.,0.));
#887=DIRECTION('ref_axis',(1.,0.,0.));
#888=DIRECTION('',(0.,1.,0.));
#889=DIRECTION('center_axis',(0.,1.,0.));
#890=DIRECTION('ref_axis',(1.,0.,0.));
#891=DIRECTION('center_axis',(0.,1.,0.));
#892=DIRECTION('ref_axis',(1.,0.,0.));
#893=DIRECTION('',(0.,1.,0.));
#894=DIRECTION('center_axis',(0.,1.,0.));
#895=DIRECTION('ref_axis',(1.,0.,0.));
#896=DIRECTION('center_axis',(0.,1.,0.));
#897=DIRECTION('ref_axis',(1.,0.,0.));
#898=DIRECTION('',(0.,1.,0.));
#899=DIRECTION('center_axis',(0.,-1.,0.));
#900=DIRECTION('ref_axis',(0.,0.,-1.));
#901=DIRECTION('',(-0.000936885047624109,0.,0.999999561123108));
#902=DIRECTION('',(-1.,0.,0.));
#903=DIRECTION('center_axis',(0.,-1.,0.));
#904=DIRECTION('ref_axis',(-0.707106781186547,0.,0.707106781186547));
#905=DIRECTION('',(0.,0.,-1.));
#906=DIRECTION('center_axis',(0.,-1.,0.));
#907=DIRECTION('ref_axis',(-0.707106781186547,0.,-0.707106781186547));
#908=DIRECTION('center_axis',(0.,1.,0.));
#909=DIRECTION('ref_axis',(-0.707106781186548,0.,0.707106781186547));
#910=DIRECTION('',(1.,0.,0.));
#911=DIRECTION('center_axis',(0.,-1.,0.));
#912=DIRECTION('ref_axis',(0.,0.,-1.));
#913=DIRECTION('',(-4.99999998112565E-5,0.,0.99999999875));
#914=DIRECTION('',(-1.,-4.94832286820253E-36,0.));
#915=DIRECTION('center_axis',(0.,1.,0.));
#916=DIRECTION('ref_axis',(-0.707106781186547,0.,-0.707106781186547));
#917=DIRECTION('',(0.,0.,1.));
#918=DIRECTION('center_axis',(0.,-1.,0.));
#919=DIRECTION('ref_axis',(0.707106781186547,0.,0.707106781186547));
#920=DIRECTION('',(0.,0.,-1.));
#921=DIRECTION('center_axis',(0.,-1.,0.));
#922=DIRECTION('ref_axis',(-0.707106781186547,0.,-0.707106781186547));
#923=DIRECTION('',(1.,0.,0.));
#924=DIRECTION('center_axis',(0.,-1.,0.));
#925=DIRECTION('ref_axis',(1.,0.,0.));
#926=DIRECTION('',(-4.99999998112565E-5,0.,0.99999999875));
#927=DIRECTION('',(-1.,0.,0.));
#928=DIRECTION('',(0.,0.,-1.));
#929=DIRECTION('center_axis',(0.,1.,0.));
#930=DIRECTION('ref_axis',(0.707106781186547,0.,0.707106781186547));
#931=DIRECTION('',(1.,0.,0.));
#932=DIRECTION('',(-0.000936885047624109,0.,0.999999561123108));
#933=DIRECTION('',(-1.,0.,0.));
#934=DIRECTION('center_axis',(0.,-1.,0.));
#935=DIRECTION('ref_axis',(0.707106781186548,0.,0.707106781186547));
#936=DIRECTION('',(1.808293344293E-15,0.,1.));
#937=DIRECTION('center_axis',(0.,-1.,0.));
#938=DIRECTION('ref_axis',(0.707106781186546,0.,-0.707106781186549));
#939=DIRECTION('',(1.,0.,0.));
#940=DIRECTION('center_axis',(0.,0.,1.));
#941=DIRECTION('ref_axis',(-1.,0.,0.));
#942=DIRECTION('',(0.,1.,0.));
#943=DIRECTION('',(0.,-1.,0.));
#944=DIRECTION('',(0.,1.,0.));
#945=DIRECTION('center_axis',(0.,-1.,0.));
#946=DIRECTION('ref_axis',(0.707106781186547,0.,0.707106781186547));
#947=DIRECTION('',(0.,1.,0.));
#948=DIRECTION('center_axis',(1.,0.,0.));
#949=DIRECTION('ref_axis',(0.,0.,1.));
#950=DIRECTION('center_axis',(0.,0.,-1.));
#951=DIRECTION('ref_axis',(1.,0.,0.));
#952=DIRECTION('',(0.,-1.,0.));
#953=DIRECTION('',(0.,-1.,0.));
#954=DIRECTION('center_axis',(-0.99999999875,0.,-4.99999998112565E-5));
#955=DIRECTION('ref_axis',(-4.99999998112565E-5,0.,0.99999999875));
#956=DIRECTION('',(0.,1.,0.));
#957=DIRECTION('center_axis',(-0.999999561123108,0.,-0.000936885047624109));
#958=DIRECTION('ref_axis',(-0.000936885047624109,0.,0.999999561123108));
#959=DIRECTION('',(0.,-1.,0.));
#960=DIRECTION('center_axis',(0.,1.,0.));
#961=DIRECTION('ref_axis',(-0.707106781186548,0.,0.707106781186547));
#962=DIRECTION('',(0.,-1.,0.));
#963=DIRECTION('',(0.,-1.,0.));
#964=DIRECTION('center_axis',(0.,0.,-1.));
#965=DIRECTION('ref_axis',(1.,0.,0.));
#966=DIRECTION('',(0.,1.,0.));
#967=DIRECTION('center_axis',(0.,-1.,0.));
#968=DIRECTION('ref_axis',(0.707106781186548,0.,0.707106781186547));
#969=DIRECTION('',(0.,-1.,0.));
#970=DIRECTION('center_axis',(-1.,0.,1.808293344293E-15));
#971=DIRECTION('ref_axis',(-1.808293344293E-15,0.,-1.));
#972=DIRECTION('',(0.,1.,0.));
#973=DIRECTION('center_axis',(0.,-1.,0.));
#974=DIRECTION('ref_axis',(-0.707106781186547,0.,-0.707106781186547));
#975=DIRECTION('',(0.,-1.,0.));
#976=DIRECTION('',(0.,1.,0.));
#977=DIRECTION('center_axis',(0.,0.,1.));
#978=DIRECTION('ref_axis',(-1.,-4.94832286820253E-36,0.));
#979=DIRECTION('',(0.,-1.,0.));
#980=DIRECTION('center_axis',(0.,-1.,0.));
#981=DIRECTION('ref_axis',(0.707106781186546,0.,-0.707106781186549));
#982=DIRECTION('center_axis',(0.,-1.,0.));
#983=DIRECTION('ref_axis',(0.707106781186548,0.,-0.707106781186547));
#984=DIRECTION('',(0.,-1.,0.));
#985=DIRECTION('center_axis',(0.,-1.,0.));
#986=DIRECTION('ref_axis',(-0.707106781186547,0.,0.707106781186547));
#987=DIRECTION('',(0.,1.,0.));
#988=DIRECTION('',(0.,-1.,0.));
#989=DIRECTION('center_axis',(0.,1.,0.));
#990=DIRECTION('ref_axis',(-0.707106781186547,0.,0.707106781186547));
#991=DIRECTION('',(0.,-1.,0.));
#992=DIRECTION('center_axis',(0.,-1.,0.));
#993=DIRECTION('ref_axis',(-0.707106781186547,0.,-0.707106781186547));
#994=DIRECTION('',(0.,-1.,0.));
#995=DIRECTION('center_axis',(-1.,0.,0.));
#996=DIRECTION('ref_axis',(0.,0.,1.));
#997=DIRECTION('center_axis',(1.,0.,0.));
#998=DIRECTION('ref_axis',(0.,1.,0.));
#999=DIRECTION('center_axis',(-1.,0.,0.));
#1000=DIRECTION('ref_axis',(0.,0.,1.));
#1001=CARTESIAN_POINT('',(0.,0.,0.));
#1002=CARTESIAN_POINT('Origin',(75.1516962147311,-155.,-76.0655192948744));
#1003=CARTESIAN_POINT('',(75.2144888824244,-150.,-104.842856246033));
#1004=CARTESIAN_POINT('',(75.212307387979,-150.,-103.843096194112));
#1005=CARTESIAN_POINT('Ctrl Pts',(75.2144888824244,-150.,-104.842856246033));
#1006=CARTESIAN_POINT('Ctrl Pts',(75.2741107338128,-150.,-104.841426236162));
#1007=CARTESIAN_POINT('Ctrl Pts',(75.3369120330182,-150.001162329407,-104.828675111015));
#1008=CARTESIAN_POINT('Ctrl Pts',(75.4564312368682,-150.005483545954,-104.778847681866));
#1009=CARTESIAN_POINT('Ctrl Pts',(75.5125438107527,-150.00870676721,-104.740253085059));
#1010=CARTESIAN_POINT('Ctrl Pts',(75.6010928106624,-150.014802606132,-104.651320538891));
#1011=CARTESIAN_POINT('Ctrl Pts',(75.6394452366895,-150.018071685152,-104.595038705806));
#1012=CARTESIAN_POINT('Ctrl Pts',(75.6902178837121,-150.022694650844,-104.471747472737));
#1013=CARTESIAN_POINT('Ctrl Pts',(75.7026358962796,-150.02397956282,-104.404734586685));
#1014=CARTESIAN_POINT('Ctrl Pts',(75.7024988097036,-150.02397956282,-104.341908993589));
#1015=CARTESIAN_POINT('Ctrl Pts',(75.7023617231276,-150.02397956282,-104.279083400493));
#1016=CARTESIAN_POINT('Ctrl Pts',(75.6896513835518,-150.022694650844,-104.212125344958));
#1017=CARTESIAN_POINT('Ctrl Pts',(75.6383411751827,-150.018071685152,-104.089056858519));
#1018=CARTESIAN_POINT('Ctrl Pts',(75.599743499583,-150.014802606132,-104.032942931942));
#1019=CARTESIAN_POINT('Ctrl Pts',(75.5108072398806,-150.00870676721,-103.944397661809));
#1020=CARTESIAN_POINT('Ctrl Pts',(75.4545267729111,-150.005483545954,-103.906048308641));
#1021=CARTESIAN_POINT('Ctrl Pts',(75.334791259505,-150.001162329407,-103.856742937595));
#1022=CARTESIAN_POINT('Ctrl Pts',(75.2719349122115,-150.,-103.844265999698));
#1023=CARTESIAN_POINT('Ctrl Pts',(75.212307387979,-150.,-103.843096194112));
#1024=CARTESIAN_POINT('',(75.000011902964,-150.,-6.54991006411));
#1025=CARTESIAN_POINT('',(75.1516962147311,-150.,-76.0655192948744));
#1026=CARTESIAN_POINT('',(80.,-155.,-6.53900000000016));
#1027=CARTESIAN_POINT('Origin',(75.000011902964,-155.,-6.54991006411));
#1028=CARTESIAN_POINT('',(80.2025,-155.,-99.3430000000001));
#1029=CARTESIAN_POINT('',(80.151684311767,-155.,-76.0546092307646));
#1030=CARTESIAN_POINT('',(80.2025,-154.66987636922,-104.343));
#1031=CARTESIAN_POINT('Ctrl Pts',(80.2025,-155.,-99.3430000000001));
#1032=CARTESIAN_POINT('Ctrl Pts',(80.2025,-154.834757904427,-99.3429999998474));
#1033=CARTESIAN_POINT('Ctrl Pts',(80.2025,-154.66987636922,-104.343));
#1034=CARTESIAN_POINT('',(75.2243081733957,-150.,-109.342952440131));
#1035=CARTESIAN_POINT('Ctrl Pts',(80.2025,-154.66987636922,-104.343));
#1036=CARTESIAN_POINT('Ctrl Pts',(80.2025,-154.66798546555,-104.400341280424));
#1037=CARTESIAN_POINT('Ctrl Pts',(80.201604155435,-154.652868336302,-104.446581232925));
#1038=CARTESIAN_POINT('Ctrl Pts',(80.1990750772832,-154.615742918011,-104.533363762601));
#1039=CARTESIAN_POINT('Ctrl Pts',(80.1973541058627,-154.592667094818,-104.572991733331));
#1040=CARTESIAN_POINT('Ctrl Pts',(80.1911892103091,-154.518704991021,-104.687759158074));
#1041=CARTESIAN_POINT('Ctrl Pts',(80.1858314225809,-154.463823633042,-104.757012204266));
#1042=CARTESIAN_POINT('Ctrl Pts',(80.1652686896696,-154.288325730254,-104.968273246589));
#1043=CARTESIAN_POINT('Ctrl Pts',(80.1459819986378,-154.159945143596,-105.107173680233));
#1044=CARTESIAN_POINT('Ctrl Pts',(80.0650470557621,-153.748961605689,-105.54447382348));
#1045=CARTESIAN_POINT('Ctrl Pts',(79.9800209309972,-153.442840245111,-105.857109415863));
#1046=CARTESIAN_POINT('Ctrl Pts',(79.6035182688912,-152.504084160986,-106.81281587381));
#1047=CARTESIAN_POINT('Ctrl Pts',(79.1764157129758,-151.83189797926,-107.489357940197));
#1048=CARTESIAN_POINT('Ctrl Pts',(78.1512525514856,-150.910469050439,-108.418475428419));
#1049=CARTESIAN_POINT('Ctrl Pts',(77.6200600731179,-150.564043043541,-108.767872029818));
#1050=CARTESIAN_POINT('Ctrl Pts',(76.7095175859107,-150.214755846799,-109.121589895055));
#1051=CARTESIAN_POINT('Ctrl Pts',(76.3872062576398,-150.125686064035,-109.212135565958));
#1052=CARTESIAN_POINT('Ctrl Pts',(75.7823356524421,-150.02340917479,-109.317109129011));
#1053=CARTESIAN_POINT('Ctrl Pts',(75.5020240130598,-150.,-109.341741133572));
#1054=CARTESIAN_POINT('Ctrl Pts',(75.2243081733957,-150.,-109.342952440131));
#1055=CARTESIAN_POINT('',(75.1516962147311,-150.,-76.0655192948744));
#1056=CARTESIAN_POINT('Ctrl Pts',(80.,-155.,-6.53900000000016));
#1057=CARTESIAN_POINT('Ctrl Pts',(80.,-155.,-6.53900000000016));
#1058=CARTESIAN_POINT('Ctrl Pts',(80.,-155.,-6.53900000000016));
#1059=CARTESIAN_POINT('Ctrl Pts',(80.,-155.,-6.53900000000016));
#1060=CARTESIAN_POINT('Ctrl Pts',(80.,-155.,-6.53900000000016));
#1061=CARTESIAN_POINT('Ctrl Pts',(80.,-150.,-6.53900000000016));
#1062=CARTESIAN_POINT('Ctrl Pts',(80.,-150.,-6.53900000000016));
#1063=CARTESIAN_POINT('Ctrl Pts',(80.,-150.,-6.53900000000016));
#1064=CARTESIAN_POINT('Ctrl Pts',(80.,-150.,-6.53900000000016));
#1065=CARTESIAN_POINT('Ctrl Pts',(80.,-150.,-6.53900000000016));
#1066=CARTESIAN_POINT('Ctrl Pts',(75.000011902964,-150.,-6.54991006411));
#1067=CARTESIAN_POINT('Ctrl Pts',(74.9954858322747,-150.,-4.47565098137581));
#1068=CARTESIAN_POINT('Ctrl Pts',(76.4606109057813,-150.,-3.00732549068798));
#1069=CARTESIAN_POINT('Ctrl Pts',(77.9257359792878,-150.,-1.53900000000016));
#1070=CARTESIAN_POINT('Ctrl Pts',(80.,-150.,-1.53900000000016));
#1071=CARTESIAN_POINT('',(80.,-150.,-1.53900000000016));
#1072=CARTESIAN_POINT('Origin',(80.,-155.,-1.53900000000016));
#1073=CARTESIAN_POINT('Origin',(80.,-150.,-6.53900000000016));
#1074=CARTESIAN_POINT('Origin',(-6.78934025805824E-14,-150.,-52.941));
#1075=CARTESIAN_POINT('',(75.2025,-150.,-109.343));
#1076=CARTESIAN_POINT('Origin',(75.2025,-150.,-104.343));
#1077=CARTESIAN_POINT('',(-75.4050000000013,-150.,-109.343));
#1078=CARTESIAN_POINT('',(23.0987701892212,-150.,-109.343));
#1079=CARTESIAN_POINT('',(-80.4050000000013,-150.,-104.343));
#1080=CARTESIAN_POINT('Origin',(-75.4050000000013,-150.,-104.343));
#1081=CARTESIAN_POINT('',(-80.4050000000013,-150.,-89.3430000000001));
#1082=CARTESIAN_POINT('',(-80.4050000000013,-150.,-49.6715000000001));
#1083=CARTESIAN_POINT('',(-70.4050000000013,-150.,-89.3430000000001));
#1084=CARTESIAN_POINT('Origin',(-75.4050000000013,-150.,-89.3430000000001));
#1085=CARTESIAN_POINT('',(-70.4050000000013,-150.,-94.3430000000001));
#1086=CARTESIAN_POINT('',(-70.4050000000013,-150.,-49.6715000000001));
#1087=CARTESIAN_POINT('',(-65.4050000000013,-150.,-99.3430000000001));
#1088=CARTESIAN_POINT('Origin',(-65.4050000000013,-150.,-94.3430000000001));
#1089=CARTESIAN_POINT('',(65.405,-150.,-99.3430000000001));
#1090=CARTESIAN_POINT('',(23.0987701892212,-150.,-99.3430000000001));
#1091=CARTESIAN_POINT('',(70.405,-150.,-94.3430000000002));
#1092=CARTESIAN_POINT('Origin',(65.405,-150.,-94.3430000000001));
#1093=CARTESIAN_POINT('',(70.4050000000002,-150.,-11.5390000000001));
#1094=CARTESIAN_POINT('',(70.4050000000002,-150.,-3.26950000000006));
#1095=CARTESIAN_POINT('',(65.4050000000002,-150.,-6.53900000000012));
#1096=CARTESIAN_POINT('Origin',(65.4050000000002,-150.,-11.5390000000001));
#1097=CARTESIAN_POINT('',(-65.4050000000013,-150.,-6.53900000000012));
#1098=CARTESIAN_POINT('',(23.0987701892212,-150.,-6.53900000000012));
#1099=CARTESIAN_POINT('',(-70.4050000000013,-150.,-11.5390000000001));
#1100=CARTESIAN_POINT('Origin',(-65.4050000000013,-150.,-11.5390000000001));
#1101=CARTESIAN_POINT('',(-80.4050000000013,-150.,-11.5390000000001));
#1102=CARTESIAN_POINT('Origin',(-75.4050000000013,-150.,-11.5390000000001));
#1103=CARTESIAN_POINT('',(-80.4050000000013,-150.,-1.53900000000016));
#1104=CARTESIAN_POINT('',(-80.4050000000013,-150.,-8.25150000000007));
#1105=CARTESIAN_POINT('',(-75.4050000000013,-150.,3.46099999999984));
#1106=CARTESIAN_POINT('Origin',(-75.4050000000013,-150.,-1.53900000000016));
#1107=CARTESIAN_POINT('',(75.,-150.,3.46099999999984));
#1108=CARTESIAN_POINT('',(23.0987701892212,-150.,3.46099999999984));
#1109=CARTESIAN_POINT('Origin',(75.,-150.,-1.53900000000016));
#1110=CARTESIAN_POINT('',(74.7025,-150.,-104.343));
#1111=CARTESIAN_POINT('Origin',(75.2025,-150.,-104.343));
#1112=CARTESIAN_POINT('Origin',(75.2025,-150.,-104.343));
#1113=CARTESIAN_POINT('',(74.5,-150.,-1.53900000000016));
#1114=CARTESIAN_POINT('Origin',(75.,-150.,-1.53900000000016));
#1115=CARTESIAN_POINT('',(-75.9050000000013,-150.,-104.343));
#1116=CARTESIAN_POINT('Origin',(-75.4050000000013,-150.,-104.343));
#1117=CARTESIAN_POINT('',(-75.9050000000013,-150.,-1.53900000000016));
#1118=CARTESIAN_POINT('Origin',(-75.4050000000013,-150.,-1.53900000000016));
#1119=CARTESIAN_POINT('Origin',(75.2025,-150.,-104.343));
#1120=CARTESIAN_POINT('',(80.2025,-175.,-104.343));
#1121=CARTESIAN_POINT('',(80.2025,-150.,-104.343));
#1122=CARTESIAN_POINT('',(75.2025,-175.,-109.343));
#1123=CARTESIAN_POINT('Origin',(75.2025,-175.,-104.343));
#1124=CARTESIAN_POINT('',(75.2025,-150.,-109.343));
#1125=CARTESIAN_POINT('Origin',(80.2025,-150.,-109.343));
#1126=CARTESIAN_POINT('',(80.2025,-175.,-99.3430000000001));
#1127=CARTESIAN_POINT('',(80.2025,-150.,-99.3430000000001));
#1128=CARTESIAN_POINT('',(80.2025,-175.,-81.1420000000001));
#1129=CARTESIAN_POINT('Origin',(80.2025,-150.,-99.3430000000001));
#1130=CARTESIAN_POINT('',(80.,-175.,-6.53900000000016));
#1131=CARTESIAN_POINT('',(80.,-150.,-6.53900000000016));
#1132=CARTESIAN_POINT('',(80.1517795353661,-175.,-76.0982493833143));
#1133=CARTESIAN_POINT('Origin',(-75.4050000000013,-185.2,-104.343));
#1134=CARTESIAN_POINT('',(-78.9050000000013,-185.2,-104.343));
#1135=CARTESIAN_POINT('Origin',(-75.4050000000013,-185.2,-104.343));
#1136=CARTESIAN_POINT('',(-78.9050000000013,-182.2,-104.343));
#1137=CARTESIAN_POINT('',(-78.9050000000013,-185.2,-104.343));
#1138=CARTESIAN_POINT('Origin',(-75.4050000000013,-182.2,-104.343));
#1139=CARTESIAN_POINT('Origin',(-75.4050000000013,-182.2,-104.343));
#1140=CARTESIAN_POINT('',(-75.9050000000013,-182.2,-104.343));
#1141=CARTESIAN_POINT('Origin',(-75.4050000000013,-182.2,-104.343));
#1142=CARTESIAN_POINT('Origin',(-75.4050000000013,-185.2,-1.53900000000016));
#1143=CARTESIAN_POINT('',(-78.9050000000013,-185.2,-1.53900000000016));
#1144=CARTESIAN_POINT('Origin',(-75.4050000000013,-185.2,-1.53900000000016));
#1145=CARTESIAN_POINT('',(-78.9050000000013,-182.2,-1.53900000000016));
#1146=CARTESIAN_POINT('',(-78.9050000000013,-185.2,-1.53900000000016));
#1147=CARTESIAN_POINT('Origin',(-75.4050000000013,-182.2,-1.53900000000016));
#1148=CARTESIAN_POINT('Origin',(-75.4050000000013,-182.2,-1.53900000000016));
#1149=CARTESIAN_POINT('',(-75.9050000000013,-182.2,-1.53900000000016));
#1150=CARTESIAN_POINT('Origin',(-75.4050000000013,-182.2,-1.53900000000016));
#1151=CARTESIAN_POINT('Origin',(-75.4050000000013,-185.2,-1.53900000000016));
#1152=CARTESIAN_POINT('',(-75.9050000000013,-185.2,-1.53900000000016));
#1153=CARTESIAN_POINT('Origin',(-75.4050000000013,-185.2,-104.343));
#1154=CARTESIAN_POINT('',(-75.9050000000013,-185.2,-104.343));
#1155=CARTESIAN_POINT('Origin',(75.2025,-185.2,-104.343));
#1156=CARTESIAN_POINT('',(74.7025,-175.,-104.343));
#1157=CARTESIAN_POINT('Origin',(75.2025,-175.,-104.343));
#1158=CARTESIAN_POINT('',(74.7025,-185.2,-104.343));
#1159=CARTESIAN_POINT('Origin',(75.,-185.2,-1.53900000000016));
#1160=CARTESIAN_POINT('',(74.5,-175.,-1.53900000000016));
#1161=CARTESIAN_POINT('Origin',(75.,-175.,-1.53900000000016));
#1162=CARTESIAN_POINT('',(74.5,-185.2,-1.53900000000016));
#1163=CARTESIAN_POINT('Origin',(19.8987499999993,-185.2,-52.9410000000002));
#1164=CARTESIAN_POINT('',(-0.19313114541265,-185.2,-6.53900000000011));
#1165=CARTESIAN_POINT('',(-0.202500000000665,-185.2,3.46099999999984));
#1166=CARTESIAN_POINT('',(-0.125570094395708,-185.2,-78.65139152262));
#1167=CARTESIAN_POINT('',(-75.4050000000013,-185.2,3.46099999999984));
#1168=CARTESIAN_POINT('',(70.4050000000001,-185.2,3.46099999999984));
#1169=CARTESIAN_POINT('',(-80.4050000000013,-185.2,-1.53900000000016));
#1170=CARTESIAN_POINT('Origin',(-75.4050000000013,-185.2,-1.53900000000016));
#1171=CARTESIAN_POINT('',(-80.4050000000013,-185.2,-11.5390000000001));
#1172=CARTESIAN_POINT('',(-80.4050000000013,-185.2,-84.3430000000001));
#1173=CARTESIAN_POINT('',(-70.4050000000013,-185.2,-11.5390000000001));
#1174=CARTESIAN_POINT('Origin',(-75.4050000000013,-185.2,-11.5390000000001));
#1175=CARTESIAN_POINT('',(-65.4050000000013,-185.2,-6.53900000000011));
#1176=CARTESIAN_POINT('Origin',(-65.4050000000013,-185.2,-11.5390000000001));
#1177=CARTESIAN_POINT('',(-40.4050000000013,-185.2,-6.53900000000011));
#1178=CARTESIAN_POINT('Origin',(19.8987499999993,-185.2,-52.9410000000002));
#1179=CARTESIAN_POINT('',(-0.101250000000661,-185.2,-109.343));
#1180=CARTESIAN_POINT('',(-0.101749999999399,-185.2,-99.3430000000001));
#1181=CARTESIAN_POINT('',(-0.102660024993577,-185.2,-81.1425000705001));
#1182=CARTESIAN_POINT('',(-65.4050000000013,-185.2,-99.3430000000001));
#1183=CARTESIAN_POINT('',(55.405,-185.2,-99.3430000000001));
#1184=CARTESIAN_POINT('',(-70.4050000000013,-185.2,-94.3430000000001));
#1185=CARTESIAN_POINT('Origin',(-65.4050000000013,-185.2,-94.3430000000001));
#1186=CARTESIAN_POINT('',(-70.4050000000013,-185.2,-89.3430000000001));
#1187=CARTESIAN_POINT('',(-70.4050000000013,-185.2,-99.3430000000001));
#1188=CARTESIAN_POINT('',(-80.4050000000013,-185.2,-89.3430000000001));
#1189=CARTESIAN_POINT('Origin',(-75.4050000000013,-185.2,-89.3430000000001));
#1190=CARTESIAN_POINT('',(-80.4050000000013,-185.2,-104.343));
#1191=CARTESIAN_POINT('',(-80.4050000000013,-185.2,-99.3430000000001));
#1192=CARTESIAN_POINT('',(-75.4050000000013,-185.2,-109.343));
#1193=CARTESIAN_POINT('Origin',(-75.4050000000013,-185.2,-104.343));
#1194=CARTESIAN_POINT('',(-40.4050000000013,-185.2,-109.343));
#1195=CARTESIAN_POINT('Origin',(39.9999999999997,-175.,-52.9410000000002));
#1196=CARTESIAN_POINT('',(-0.101250000000661,-175.,-109.343));
#1197=CARTESIAN_POINT('',(-0.101749999999408,-175.,-99.3430000000001));
#1198=CARTESIAN_POINT('',(-0.10150000000003,-175.,-104.343));
#1199=CARTESIAN_POINT('',(-0.202500000000838,-175.,-109.343));
#1200=CARTESIAN_POINT('',(80.,-175.,-1.53900000000016));
#1201=CARTESIAN_POINT('',(80.,-175.,-29.7400000000002));
#1202=CARTESIAN_POINT('',(75.,-175.,3.46099999999984));
#1203=CARTESIAN_POINT('Origin',(75.,-175.,-1.53900000000016));
#1204=CARTESIAN_POINT('',(-0.202500000000665,-175.,3.46099999999984));
#1205=CARTESIAN_POINT('',(59.9999999999998,-175.,3.46099999999984));
#1206=CARTESIAN_POINT('',(-0.19313114541265,-175.,-6.53900000000011));
#1207=CARTESIAN_POINT('',(-0.10150000000003,-175.,-104.343));
#1208=CARTESIAN_POINT('',(65.4050000000002,-175.,-6.53900000000011));
#1209=CARTESIAN_POINT('',(-0.202500000000834,-175.,-6.53900000000012));
#1210=CARTESIAN_POINT('',(70.4050000000002,-175.,-11.5390000000001));
#1211=CARTESIAN_POINT('Origin',(65.4050000000002,-175.,-11.5390000000001));
#1212=CARTESIAN_POINT('',(70.405,-175.,-94.3430000000002));
#1213=CARTESIAN_POINT('',(70.4050000000001,-175.,-29.7400000000002));
#1214=CARTESIAN_POINT('',(65.405,-175.,-99.3430000000001));
#1215=CARTESIAN_POINT('Origin',(65.405,-175.,-94.3430000000001));
#1216=CARTESIAN_POINT('',(55.2024999999999,-175.,-99.3430000000001));
#1217=CARTESIAN_POINT('Origin',(80.,-150.,3.46099999999984));
#1218=CARTESIAN_POINT('',(-0.202500000000662,-167.5,3.46099999999983));
#1219=CARTESIAN_POINT('',(75.,-150.,3.46099999999984));
#1220=CARTESIAN_POINT('',(-75.4050000000013,-150.,3.46099999999984));
#1221=CARTESIAN_POINT('Origin',(75.,-150.,-1.53900000000016));
#1222=CARTESIAN_POINT('',(80.,-150.,-1.53900000000016));
#1223=CARTESIAN_POINT('Origin',(80.,-150.,-6.53900000000016));
#1224=CARTESIAN_POINT('Origin',(-40.4050000000014,-150.,-109.343));
#1225=CARTESIAN_POINT('',(-0.101250000000661,-185.,-109.343));
#1226=CARTESIAN_POINT('',(-75.4050000000013,-185.,-109.343));
#1227=CARTESIAN_POINT('Origin',(-0.101250000000661,-185.,-109.343));
#1228=CARTESIAN_POINT('',(-0.101749999999399,-167.5,-99.3430000000001));
#1229=CARTESIAN_POINT('Origin',(-0.10150000000003,-185.,-104.343));
#1230=CARTESIAN_POINT('',(-0.19313114541265,-185.,-6.53900000000011));
#1231=CARTESIAN_POINT('Origin',(-65.4050000000013,-167.5,-11.5390000000001));
#1232=CARTESIAN_POINT('',(-65.4050000000013,-167.5,-6.53900000000012));
#1233=CARTESIAN_POINT('',(-70.4050000000013,-176.25,-11.5390000000001));
#1234=CARTESIAN_POINT('Origin',(-40.4050000000013,-150.,-6.53900000000012));
#1235=CARTESIAN_POINT('',(65.4050000000002,-150.,-6.53900000000012));
#1236=CARTESIAN_POINT('Origin',(65.4050000000002,-150.,-11.5390000000001));
#1237=CARTESIAN_POINT('',(70.4050000000002,-150.,-11.5390000000001));
#1238=CARTESIAN_POINT('Origin',(70.4050000000002,-150.,-6.53900000000014));
#1239=CARTESIAN_POINT('',(70.405,-150.,-94.3430000000002));
#1240=CARTESIAN_POINT('Origin',(-65.4050000000013,-167.5,-94.3430000000001));
#1241=CARTESIAN_POINT('',(-70.4050000000013,-167.5,-94.3430000000001));
#1242=CARTESIAN_POINT('',(-65.4050000000013,-167.5,-99.3430000000001));
#1243=CARTESIAN_POINT('Origin',(70.4050000000001,-150.,-99.3430000000001));
#1244=CARTESIAN_POINT('',(65.405,-150.,-99.3430000000001));
#1245=CARTESIAN_POINT('Origin',(65.405,-150.,-94.3430000000001));
#1246=CARTESIAN_POINT('Origin',(-75.4050000000013,-176.25,-11.5390000000001));
#1247=CARTESIAN_POINT('',(-80.4050000000013,-185.,-11.5390000000001));
#1248=CARTESIAN_POINT('Origin',(-75.4050000000013,-158.75,-89.3430000000001));
#1249=CARTESIAN_POINT('',(-70.4050000000013,-176.25,-89.3430000000001));
#1250=CARTESIAN_POINT('',(-80.4050000000013,-185.,-89.3430000000001));
#1251=CARTESIAN_POINT('Origin',(-75.4050000000013,-150.,-1.53900000000016));
#1252=CARTESIAN_POINT('',(-80.4050000000013,-185.,-1.53900000000016));
#1253=CARTESIAN_POINT('Origin',(-75.4050000000013,-150.,-104.343));
#1254=CARTESIAN_POINT('',(-80.4050000000013,-185.,-104.343));
#1255=CARTESIAN_POINT('Origin',(-80.4050000000013,-150.,-99.3430000000001));
#1256=CARTESIAN_POINT('Origin',(-70.4050000000013,-185.,-99.3430000000001));
#1257=CARTESIAN_POINT('Origin',(-80.4050000000013,-150.,3.46099999999984));
#1258=UNCERTAINTY_MEASURE_WITH_UNIT(LENGTH_MEASURE(0.01),#1262,
'DISTANCE_ACCURACY_VALUE',
'Maximum model space distance between geometric entities at asserted c
onnectivities');
#1259=UNCERTAINTY_MEASURE_WITH_UNIT(LENGTH_MEASURE(0.01),#1262,
'DISTANCE_ACCURACY_VALUE',
'Maximum model space distance between geometric entities at asserted c
onnectivities');
#1260=(
GEOMETRIC_REPRESENTATION_CONTEXT(3)
GLOBAL_UNCERTAINTY_ASSIGNED_CONTEXT((#1258))
GLOBAL_UNIT_ASSIGNED_CONTEXT((#1262,#1264,#1265))
REPRESENTATION_CONTEXT('','3D')
);
#1261=(
GEOMETRIC_REPRESENTATION_CONTEXT(3)
GLOBAL_UNCERTAINTY_ASSIGNED_CONTEXT((#1259))
GLOBAL_UNIT_ASSIGNED_CONTEXT((#1262,#1264,#1265))
REPRESENTATION_CONTEXT('','3D')
);
#1262=(
LENGTH_UNIT()
NAMED_UNIT(*)
SI_UNIT(.MILLI.,.METRE.)
);
#1263=(
LENGTH_UNIT()
NAMED_UNIT(*)
SI_UNIT($,.METRE.)
);
#1264=(
NAMED_UNIT(*)
PLANE_ANGLE_UNIT()
SI_UNIT($,.RADIAN.)
);
#1265=(
NAMED_UNIT(*)
SI_UNIT($,.STERADIAN.)
SOLID_ANGLE_UNIT()
);
#1266=SHAPE_DEFINITION_REPRESENTATION(#1267,#1268);
#1267=PRODUCT_DEFINITION_SHAPE('',$,#1270);
#1268=SHAPE_REPRESENTATION('',(#721),#1260);
#1269=PRODUCT_DEFINITION_CONTEXT('part definition',#1274,'design');
#1270=PRODUCT_DEFINITION('2026-06-20-12-33-02-769','FusionComponent',#1271,
#1269);
#1271=PRODUCT_DEFINITION_FORMATION('',$,#1276);
#1272=PRODUCT_RELATED_PRODUCT_CATEGORY('FusionComponent',
'FusionComponent',(#1276));
#1273=APPLICATION_PROTOCOL_DEFINITION('international standard',
'automotive_design',2009,#1274);
#1274=APPLICATION_CONTEXT(
'Core Data for Automotive Mechanical Design Process');
#1275=PRODUCT_CONTEXT('part definition',#1274,'mechanical');
#1276=PRODUCT('2026-06-20-12-33-02-769','FusionComponent',$,(#1275));
#1277=PRESENTATION_STYLE_ASSIGNMENT((#1278));
#1278=SURFACE_STYLE_USAGE(.BOTH.,#1279);
#1279=SURFACE_SIDE_STYLE('',(#1280));
#1280=SURFACE_STYLE_FILL_AREA(#1281);
#1281=FILL_AREA_STYLE('Steel - Satin',(#1282));
#1282=FILL_AREA_STYLE_COLOUR('Steel - Satin',#1283);
#1283=COLOUR_RGB('Steel - Satin',0.627450980392157,0.627450980392157,0.627450980392157);
ENDSEC;
END-ISO-10303-21;
