ISO-10303-21;
HEADER;
/* Generated by software containing ST-Developer
 * from STEP Tools, Inc. (www.steptools.com) 
 */

FILE_DESCRIPTION(
/* description */ (''),
/* implementation_level */ '2;1');

FILE_NAME(
/* name */ 'Rotator A x3.step',
/* time_stamp */ '2026-06-20T16:25:06-05:00',
/* author */ (''),
/* organization */ (''),
/* preprocessor_version */ 'ST-DEVELOPER v20.1',
/* originating_system */ 'Autodesk Translation Framework v15.8.0.0',
/* authorisation */ '');

FILE_SCHEMA (('AUTOMOTIVE_DESIGN { 1 0 10303 214 3 1 1 }'));
ENDSEC;

DATA;
#10=MECHANICAL_DESIGN_GEOMETRIC_PRESENTATION_REPRESENTATION('',(#13),#1142);
#11=SHAPE_REPRESENTATION_RELATIONSHIP('SRR','None',#1149,#12);
#12=ADVANCED_BREP_SHAPE_REPRESENTATION('',(#14),#1141);
#13=STYLED_ITEM('',(#1159),#14);
#14=MANIFOLD_SOLID_BREP('Body2',#647);
#15=FACE_BOUND('',#187,.T.);
#16=FACE_BOUND('',#189,.T.);
#17=FACE_BOUND('',#192,.T.);
#18=FACE_BOUND('',#200,.T.);
#19=FACE_BOUND('',#223,.T.);
#20=PLANE('',#668);
#21=PLANE('',#670);
#22=PLANE('',#676);
#23=PLANE('',#697);
#24=PLANE('',#699);
#25=PLANE('',#700);
#26=PLANE('',#701);
#27=PLANE('',#702);
#28=PLANE('',#703);
#29=PLANE('',#704);
#30=PLANE('',#711);
#31=PLANE('',#712);
#32=PLANE('',#716);
#33=PLANE('',#720);
#34=PLANE('',#727);
#35=PLANE('',#730);
#36=PLANE('',#735);
#37=PLANE('',#736);
#38=PLANE('',#737);
#39=LINE('',#960,#88);
#40=LINE('',#985,#89);
#41=LINE('',#999,#90);
#42=LINE('',#1013,#91);
#43=LINE('',#1015,#92);
#44=LINE('',#1017,#93);
#45=LINE('',#1018,#94);
#46=LINE('',#1022,#95);
#47=LINE('',#1024,#96);
#48=LINE('',#1026,#97);
#49=LINE('',#1027,#98);
#50=LINE('',#1031,#99);
#51=LINE('',#1033,#100);
#52=LINE('',#1035,#101);
#53=LINE('',#1036,#102);
#54=LINE('',#1040,#103);
#55=LINE('',#1042,#104);
#56=LINE('',#1044,#105);
#57=LINE('',#1045,#106);
#58=LINE('',#1048,#107);
#59=LINE('',#1050,#108);
#60=LINE('',#1051,#109);
#61=LINE('',#1054,#110);
#62=LINE('',#1056,#111);
#63=LINE('',#1057,#112);
#64=LINE('',#1062,#113);
#65=LINE('',#1068,#114);
#66=LINE('',#1070,#115);
#67=LINE('',#1071,#116);
#68=LINE('',#1074,#117);
#69=LINE('',#1081,#118);
#70=LINE('',#1084,#119);
#71=LINE('',#1092,#120);
#72=LINE('',#1093,#121);
#73=LINE('',#1096,#122);
#74=LINE('',#1097,#123);
#75=LINE('',#1100,#124);
#76=LINE('',#1104,#125);
#77=LINE('',#1108,#126);
#78=LINE('',#1112,#127);
#79=LINE('',#1114,#128);
#80=LINE('',#1115,#129);
#81=LINE('',#1118,#130);
#82=LINE('',#1121,#131);
#83=LINE('',#1124,#132);
#84=LINE('',#1128,#133);
#85=LINE('',#1131,#134);
#86=LINE('',#1133,#135);
#87=LINE('',#1138,#136);
#88=VECTOR('',#754,10.);
#89=VECTOR('',#787,12.5);
#90=VECTOR('',#806,12.5);
#91=VECTOR('',#823,10.);
#92=VECTOR('',#824,11.1923777684743);
#93=VECTOR('',#825,10.);
#94=VECTOR('',#826,10.);
#95=VECTOR('',#829,10.);
#96=VECTOR('',#830,11.1923777684743);
#97=VECTOR('',#831,10.);
#98=VECTOR('',#832,10.);
#99=VECTOR('',#835,10.);
#100=VECTOR('',#836,10.);
#101=VECTOR('',#837,10.);
#102=VECTOR('',#838,11.1923777684743);
#103=VECTOR('',#841,10.);
#104=VECTOR('',#842,10.);
#105=VECTOR('',#843,10.);
#106=VECTOR('',#844,11.1923777684743);
#107=VECTOR('',#847,10.);
#108=VECTOR('',#848,10.);
#109=VECTOR('',#849,10.);
#110=VECTOR('',#852,10.);
#111=VECTOR('',#853,10.);
#112=VECTOR('',#854,10.);
#113=VECTOR('',#861,10.);
#114=VECTOR('',#870,10.);
#115=VECTOR('',#871,10.);
#116=VECTOR('',#872,10.);
#117=VECTOR('',#875,10.);
#118=VECTOR('',#882,10.);
#119=VECTOR('',#885,10.);
#120=VECTOR('',#892,10.);
#121=VECTOR('',#893,10.);
#122=VECTOR('',#896,2.);
#123=VECTOR('',#897,10.);
#124=VECTOR('',#900,2.);
#125=VECTOR('',#905,2.);
#126=VECTOR('',#910,2.);
#127=VECTOR('',#915,2.);
#128=VECTOR('',#916,10.);
#129=VECTOR('',#917,10.);
#130=VECTOR('',#920,2.);
#131=VECTOR('',#925,10.);
#132=VECTOR('',#928,2.);
#133=VECTOR('',#933,2.);
#134=VECTOR('',#938,10.);
#135=VECTOR('',#941,10.);
#136=VECTOR('',#948,1.35);
#137=CYLINDRICAL_SURFACE('',#666,10.);
#138=CYLINDRICAL_SURFACE('',#682,12.5);
#139=CYLINDRICAL_SURFACE('',#691,12.5);
#140=CYLINDRICAL_SURFACE('',#705,10.);
#141=CYLINDRICAL_SURFACE('',#721,2.);
#142=CYLINDRICAL_SURFACE('',#723,4.15);
#143=CYLINDRICAL_SURFACE('',#725,2.);
#144=CYLINDRICAL_SURFACE('',#728,2.);
#145=CYLINDRICAL_SURFACE('',#731,4.15);
#146=CYLINDRICAL_SURFACE('',#733,2.);
#147=CYLINDRICAL_SURFACE('',#739,1.35);
#148=FACE_OUTER_BOUND('',#184,.T.);
#149=FACE_OUTER_BOUND('',#185,.T.);
#150=FACE_OUTER_BOUND('',#186,.T.);
#151=FACE_OUTER_BOUND('',#188,.T.);
#152=FACE_OUTER_BOUND('',#190,.T.);
#153=FACE_OUTER_BOUND('',#191,.T.);
#154=FACE_OUTER_BOUND('',#193,.T.);
#155=FACE_OUTER_BOUND('',#194,.T.);
#156=FACE_OUTER_BOUND('',#195,.T.);
#157=FACE_OUTER_BOUND('',#196,.T.);
#158=FACE_OUTER_BOUND('',#197,.T.);
#159=FACE_OUTER_BOUND('',#198,.T.);
#160=FACE_OUTER_BOUND('',#199,.T.);
#161=FACE_OUTER_BOUND('',#201,.T.);
#162=FACE_OUTER_BOUND('',#202,.T.);
#163=FACE_OUTER_BOUND('',#203,.T.);
#164=FACE_OUTER_BOUND('',#204,.T.);
#165=FACE_OUTER_BOUND('',#205,.T.);
#166=FACE_OUTER_BOUND('',#206,.T.);
#167=FACE_OUTER_BOUND('',#207,.T.);
#168=FACE_OUTER_BOUND('',#208,.T.);
#169=FACE_OUTER_BOUND('',#209,.T.);
#170=FACE_OUTER_BOUND('',#210,.T.);
#171=FACE_OUTER_BOUND('',#211,.T.);
#172=FACE_OUTER_BOUND('',#212,.T.);
#173=FACE_OUTER_BOUND('',#213,.T.);
#174=FACE_OUTER_BOUND('',#214,.T.);
#175=FACE_OUTER_BOUND('',#215,.T.);
#176=FACE_OUTER_BOUND('',#216,.T.);
#177=FACE_OUTER_BOUND('',#217,.T.);
#178=FACE_OUTER_BOUND('',#218,.T.);
#179=FACE_OUTER_BOUND('',#219,.T.);
#180=FACE_OUTER_BOUND('',#220,.T.);
#181=FACE_OUTER_BOUND('',#221,.T.);
#182=FACE_OUTER_BOUND('',#222,.T.);
#183=FACE_OUTER_BOUND('',#224,.T.);
#184=EDGE_LOOP('',(#421,#422,#423,#424,#425));
#185=EDGE_LOOP('',(#426,#427,#428,#429,#430));
#186=EDGE_LOOP('',(#431));
#187=EDGE_LOOP('',(#432));
#188=EDGE_LOOP('',(#433));
#189=EDGE_LOOP('',(#434));
#190=EDGE_LOOP('',(#435,#436,#437,#438));
#191=EDGE_LOOP('',(#439));
#192=EDGE_LOOP('',(#440));
#193=EDGE_LOOP('',(#441,#442,#443,#444,#445));
#194=EDGE_LOOP('',(#446,#447,#448,#449,#450,#451));
#195=EDGE_LOOP('',(#452,#453,#454,#455,#456));
#196=EDGE_LOOP('',(#457,#458,#459,#460,#461));
#197=EDGE_LOOP('',(#462,#463,#464,#465,#466,#467));
#198=EDGE_LOOP('',(#468,#469,#470,#471,#472));
#199=EDGE_LOOP('',(#473));
#200=EDGE_LOOP('',(#474));
#201=EDGE_LOOP('',(#475,#476,#477,#478));
#202=EDGE_LOOP('',(#479,#480,#481,#482));
#203=EDGE_LOOP('',(#483,#484,#485,#486));
#204=EDGE_LOOP('',(#487,#488,#489,#490));
#205=EDGE_LOOP('',(#491,#492,#493,#494));
#206=EDGE_LOOP('',(#495,#496,#497,#498));
#207=EDGE_LOOP('',(#499,#500,#501,#502,#503,#504,#505,#506,#507,#508,#509,
#510));
#208=EDGE_LOOP('',(#511,#512,#513,#514));
#209=EDGE_LOOP('',(#515,#516,#517,#518,#519,#520,#521,#522,#523,#524));
#210=EDGE_LOOP('',(#525,#526,#527,#528,#529,#530,#531,#532,#533,#534));
#211=EDGE_LOOP('',(#535,#536,#537,#538));
#212=EDGE_LOOP('',(#539,#540,#541,#542));
#213=EDGE_LOOP('',(#543,#544,#545,#546));
#214=EDGE_LOOP('',(#547,#548,#549,#550));
#215=EDGE_LOOP('',(#551,#552,#553,#554));
#216=EDGE_LOOP('',(#555,#556,#557,#558));
#217=EDGE_LOOP('',(#559,#560,#561,#562));
#218=EDGE_LOOP('',(#563,#564,#565,#566));
#219=EDGE_LOOP('',(#567,#568,#569,#570));
#220=EDGE_LOOP('',(#571,#572,#573,#574));
#221=EDGE_LOOP('',(#575,#576,#577,#578));
#222=EDGE_LOOP('',(#579,#580,#581,#582,#583,#584,#585,#586,#587,#588,#589,
#590,#591,#592,#593,#594,#595,#596,#597,#598,#599));
#223=EDGE_LOOP('',(#600));
#224=EDGE_LOOP('',(#601,#602,#603,#604));
#225=CIRCLE('',#662,10.);
#226=CIRCLE('',#663,0.1);
#227=CIRCLE('',#664,10.1);
#228=CIRCLE('',#665,10.);
#229=CIRCLE('',#667,10.);
#230=CIRCLE('',#669,12.);
#231=CIRCLE('',#671,12.);
#232=CIRCLE('',#672,1.35);
#233=CIRCLE('',#674,0.1);
#234=CIRCLE('',#675,10.1);
#235=CIRCLE('',#677,12.);
#236=CIRCLE('',#679,0.5);
#237=CIRCLE('',#680,12.5);
#238=CIRCLE('',#681,12.5);
#239=CIRCLE('',#683,12.5);
#240=CIRCLE('',#684,12.5);
#241=CIRCLE('',#686,0.5);
#242=CIRCLE('',#688,0.5);
#243=CIRCLE('',#689,12.5);
#244=CIRCLE('',#690,12.5);
#245=CIRCLE('',#692,12.5);
#246=CIRCLE('',#693,12.5);
#247=CIRCLE('',#695,0.5);
#248=CIRCLE('',#696,12.);
#249=CIRCLE('',#698,10.);
#250=CIRCLE('',#706,10.);
#251=CIRCLE('',#707,10.);
#252=CIRCLE('',#708,10.);
#253=CIRCLE('',#709,10.);
#254=CIRCLE('',#710,10.);
#255=CIRCLE('',#713,2.);
#256=CIRCLE('',#714,4.15);
#257=CIRCLE('',#715,2.);
#258=CIRCLE('',#717,2.);
#259=CIRCLE('',#718,4.15);
#260=CIRCLE('',#719,2.);
#261=CIRCLE('',#722,2.);
#262=CIRCLE('',#724,4.15);
#263=CIRCLE('',#726,2.);
#264=CIRCLE('',#729,2.);
#265=CIRCLE('',#732,4.15);
#266=CIRCLE('',#734,2.);
#267=CIRCLE('',#738,1.35);
#268=VERTEX_POINT('',#951);
#269=VERTEX_POINT('',#952);
#270=VERTEX_POINT('',#954);
#271=VERTEX_POINT('',#959);
#272=VERTEX_POINT('',#963);
#273=VERTEX_POINT('',#966);
#274=VERTEX_POINT('',#968);
#275=VERTEX_POINT('',#971);
#276=VERTEX_POINT('',#975);
#277=VERTEX_POINT('',#978);
#278=VERTEX_POINT('',#980);
#279=VERTEX_POINT('',#984);
#280=VERTEX_POINT('',#986);
#281=VERTEX_POINT('',#992);
#282=VERTEX_POINT('',#994);
#283=VERTEX_POINT('',#998);
#284=VERTEX_POINT('',#1000);
#285=VERTEX_POINT('',#1004);
#286=VERTEX_POINT('',#1008);
#287=VERTEX_POINT('',#1011);
#288=VERTEX_POINT('',#1012);
#289=VERTEX_POINT('',#1014);
#290=VERTEX_POINT('',#1016);
#291=VERTEX_POINT('',#1020);
#292=VERTEX_POINT('',#1021);
#293=VERTEX_POINT('',#1023);
#294=VERTEX_POINT('',#1025);
#295=VERTEX_POINT('',#1029);
#296=VERTEX_POINT('',#1030);
#297=VERTEX_POINT('',#1032);
#298=VERTEX_POINT('',#1034);
#299=VERTEX_POINT('',#1038);
#300=VERTEX_POINT('',#1039);
#301=VERTEX_POINT('',#1041);
#302=VERTEX_POINT('',#1043);
#303=VERTEX_POINT('',#1047);
#304=VERTEX_POINT('',#1049);
#305=VERTEX_POINT('',#1053);
#306=VERTEX_POINT('',#1055);
#307=VERTEX_POINT('',#1060);
#308=VERTEX_POINT('',#1067);
#309=VERTEX_POINT('',#1069);
#310=VERTEX_POINT('',#1073);
#311=VERTEX_POINT('',#1075);
#312=VERTEX_POINT('',#1077);
#313=VERTEX_POINT('',#1079);
#314=VERTEX_POINT('',#1083);
#315=VERTEX_POINT('',#1085);
#316=VERTEX_POINT('',#1087);
#317=VERTEX_POINT('',#1089);
#318=VERTEX_POINT('',#1091);
#319=VERTEX_POINT('',#1095);
#320=VERTEX_POINT('',#1099);
#321=VERTEX_POINT('',#1103);
#322=VERTEX_POINT('',#1107);
#323=VERTEX_POINT('',#1111);
#324=VERTEX_POINT('',#1113);
#325=VERTEX_POINT('',#1117);
#326=VERTEX_POINT('',#1123);
#327=VERTEX_POINT('',#1127);
#328=VERTEX_POINT('',#1135);
#329=EDGE_CURVE('',#268,#269,#225,.T.);
#330=EDGE_CURVE('',#269,#270,#226,.T.);
#331=EDGE_CURVE('',#270,#270,#227,.T.);
#332=EDGE_CURVE('',#269,#268,#228,.T.);
#333=EDGE_CURVE('',#268,#271,#39,.T.);
#334=EDGE_CURVE('',#271,#271,#229,.T.);
#335=EDGE_CURVE('',#272,#272,#230,.T.);
#336=EDGE_CURVE('',#273,#273,#231,.T.);
#337=EDGE_CURVE('',#274,#274,#232,.T.);
#338=EDGE_CURVE('',#271,#275,#233,.T.);
#339=EDGE_CURVE('',#275,#275,#234,.T.);
#340=EDGE_CURVE('',#276,#276,#235,.T.);
#341=EDGE_CURVE('',#273,#277,#236,.T.);
#342=EDGE_CURVE('',#277,#278,#237,.T.);
#343=EDGE_CURVE('',#278,#277,#238,.T.);
#344=EDGE_CURVE('',#278,#279,#40,.T.);
#345=EDGE_CURVE('',#280,#279,#239,.T.);
#346=EDGE_CURVE('',#279,#280,#240,.T.);
#347=EDGE_CURVE('',#280,#272,#241,.T.);
#348=EDGE_CURVE('',#276,#281,#242,.T.);
#349=EDGE_CURVE('',#281,#282,#243,.T.);
#350=EDGE_CURVE('',#282,#281,#244,.T.);
#351=EDGE_CURVE('',#282,#283,#41,.T.);
#352=EDGE_CURVE('',#284,#283,#245,.T.);
#353=EDGE_CURVE('',#283,#284,#246,.T.);
#354=EDGE_CURVE('',#284,#285,#247,.T.);
#355=EDGE_CURVE('',#285,#285,#248,.T.);
#356=EDGE_CURVE('',#286,#286,#249,.T.);
#357=EDGE_CURVE('',#287,#288,#42,.T.);
#358=EDGE_CURVE('',#287,#289,#43,.T.);
#359=EDGE_CURVE('',#290,#289,#44,.T.);
#360=EDGE_CURVE('',#288,#290,#45,.T.);
#361=EDGE_CURVE('',#291,#292,#46,.T.);
#362=EDGE_CURVE('',#291,#293,#47,.T.);
#363=EDGE_CURVE('',#294,#293,#48,.T.);
#364=EDGE_CURVE('',#292,#294,#49,.T.);
#365=EDGE_CURVE('',#295,#296,#50,.T.);
#366=EDGE_CURVE('',#297,#295,#51,.T.);
#367=EDGE_CURVE('',#298,#297,#52,.T.);
#368=EDGE_CURVE('',#296,#298,#53,.T.);
#369=EDGE_CURVE('',#299,#300,#54,.T.);
#370=EDGE_CURVE('',#301,#299,#55,.T.);
#371=EDGE_CURVE('',#302,#301,#56,.T.);
#372=EDGE_CURVE('',#300,#302,#57,.T.);
#373=EDGE_CURVE('',#303,#289,#58,.T.);
#374=EDGE_CURVE('',#304,#303,#59,.T.);
#375=EDGE_CURVE('',#290,#304,#60,.T.);
#376=EDGE_CURVE('',#305,#297,#61,.T.);
#377=EDGE_CURVE('',#306,#305,#62,.T.);
#378=EDGE_CURVE('',#298,#306,#63,.T.);
#379=EDGE_CURVE('',#299,#288,#250,.T.);
#380=EDGE_CURVE('',#300,#307,#251,.T.);
#381=EDGE_CURVE('',#307,#286,#64,.T.);
#382=EDGE_CURVE('',#307,#291,#252,.T.);
#383=EDGE_CURVE('',#295,#292,#253,.T.);
#384=EDGE_CURVE('',#296,#287,#254,.T.);
#385=EDGE_CURVE('',#308,#293,#65,.T.);
#386=EDGE_CURVE('',#309,#308,#66,.T.);
#387=EDGE_CURVE('',#294,#309,#67,.T.);
#388=EDGE_CURVE('',#310,#309,#68,.T.);
#389=EDGE_CURVE('',#311,#310,#255,.T.);
#390=EDGE_CURVE('',#312,#311,#256,.T.);
#391=EDGE_CURVE('',#313,#312,#257,.T.);
#392=EDGE_CURVE('',#305,#313,#69,.T.);
#393=EDGE_CURVE('',#314,#304,#70,.T.);
#394=EDGE_CURVE('',#315,#314,#258,.T.);
#395=EDGE_CURVE('',#316,#315,#259,.T.);
#396=EDGE_CURVE('',#317,#316,#260,.T.);
#397=EDGE_CURVE('',#318,#317,#71,.T.);
#398=EDGE_CURVE('',#318,#301,#72,.T.);
#399=EDGE_CURVE('',#319,#313,#73,.T.);
#400=EDGE_CURVE('',#319,#306,#74,.T.);
#401=EDGE_CURVE('',#312,#320,#75,.T.);
#402=EDGE_CURVE('',#320,#319,#261,.F.);
#403=EDGE_CURVE('',#321,#311,#76,.T.);
#404=EDGE_CURVE('',#321,#320,#262,.T.);
#405=EDGE_CURVE('',#310,#322,#77,.T.);
#406=EDGE_CURVE('',#321,#322,#263,.T.);
#407=EDGE_CURVE('',#323,#317,#78,.T.);
#408=EDGE_CURVE('',#323,#324,#79,.T.);
#409=EDGE_CURVE('',#324,#318,#80,.T.);
#410=EDGE_CURVE('',#316,#325,#81,.T.);
#411=EDGE_CURVE('',#325,#323,#264,.F.);
#412=EDGE_CURVE('',#308,#322,#82,.T.);
#413=EDGE_CURVE('',#326,#315,#83,.T.);
#414=EDGE_CURVE('',#326,#325,#265,.T.);
#415=EDGE_CURVE('',#314,#327,#84,.T.);
#416=EDGE_CURVE('',#326,#327,#266,.T.);
#417=EDGE_CURVE('',#303,#327,#85,.T.);
#418=EDGE_CURVE('',#302,#324,#86,.T.);
#419=EDGE_CURVE('',#328,#328,#267,.T.);
#420=EDGE_CURVE('',#328,#274,#87,.T.);
#421=ORIENTED_EDGE('',*,*,#329,.T.);
#422=ORIENTED_EDGE('',*,*,#330,.T.);
#423=ORIENTED_EDGE('',*,*,#331,.T.);
#424=ORIENTED_EDGE('',*,*,#330,.F.);
#425=ORIENTED_EDGE('',*,*,#332,.T.);
#426=ORIENTED_EDGE('',*,*,#329,.F.);
#427=ORIENTED_EDGE('',*,*,#333,.T.);
#428=ORIENTED_EDGE('',*,*,#334,.F.);
#429=ORIENTED_EDGE('',*,*,#333,.F.);
#430=ORIENTED_EDGE('',*,*,#332,.F.);
#431=ORIENTED_EDGE('',*,*,#335,.F.);
#432=ORIENTED_EDGE('',*,*,#331,.F.);
#433=ORIENTED_EDGE('',*,*,#336,.F.);
#434=ORIENTED_EDGE('',*,*,#337,.T.);
#435=ORIENTED_EDGE('',*,*,#334,.T.);
#436=ORIENTED_EDGE('',*,*,#338,.T.);
#437=ORIENTED_EDGE('',*,*,#339,.T.);
#438=ORIENTED_EDGE('',*,*,#338,.F.);
#439=ORIENTED_EDGE('',*,*,#340,.F.);
#440=ORIENTED_EDGE('',*,*,#339,.F.);
#441=ORIENTED_EDGE('',*,*,#336,.T.);
#442=ORIENTED_EDGE('',*,*,#341,.T.);
#443=ORIENTED_EDGE('',*,*,#342,.T.);
#444=ORIENTED_EDGE('',*,*,#343,.T.);
#445=ORIENTED_EDGE('',*,*,#341,.F.);
#446=ORIENTED_EDGE('',*,*,#343,.F.);
#447=ORIENTED_EDGE('',*,*,#344,.T.);
#448=ORIENTED_EDGE('',*,*,#345,.F.);
#449=ORIENTED_EDGE('',*,*,#346,.F.);
#450=ORIENTED_EDGE('',*,*,#344,.F.);
#451=ORIENTED_EDGE('',*,*,#342,.F.);
#452=ORIENTED_EDGE('',*,*,#346,.T.);
#453=ORIENTED_EDGE('',*,*,#347,.T.);
#454=ORIENTED_EDGE('',*,*,#335,.T.);
#455=ORIENTED_EDGE('',*,*,#347,.F.);
#456=ORIENTED_EDGE('',*,*,#345,.T.);
#457=ORIENTED_EDGE('',*,*,#340,.T.);
#458=ORIENTED_EDGE('',*,*,#348,.T.);
#459=ORIENTED_EDGE('',*,*,#349,.T.);
#460=ORIENTED_EDGE('',*,*,#350,.T.);
#461=ORIENTED_EDGE('',*,*,#348,.F.);
#462=ORIENTED_EDGE('',*,*,#350,.F.);
#463=ORIENTED_EDGE('',*,*,#351,.T.);
#464=ORIENTED_EDGE('',*,*,#352,.F.);
#465=ORIENTED_EDGE('',*,*,#353,.F.);
#466=ORIENTED_EDGE('',*,*,#351,.F.);
#467=ORIENTED_EDGE('',*,*,#349,.F.);
#468=ORIENTED_EDGE('',*,*,#353,.T.);
#469=ORIENTED_EDGE('',*,*,#354,.T.);
#470=ORIENTED_EDGE('',*,*,#355,.T.);
#471=ORIENTED_EDGE('',*,*,#354,.F.);
#472=ORIENTED_EDGE('',*,*,#352,.T.);
#473=ORIENTED_EDGE('',*,*,#355,.F.);
#474=ORIENTED_EDGE('',*,*,#356,.F.);
#475=ORIENTED_EDGE('',*,*,#357,.F.);
#476=ORIENTED_EDGE('',*,*,#358,.T.);
#477=ORIENTED_EDGE('',*,*,#359,.F.);
#478=ORIENTED_EDGE('',*,*,#360,.F.);
#479=ORIENTED_EDGE('',*,*,#361,.F.);
#480=ORIENTED_EDGE('',*,*,#362,.T.);
#481=ORIENTED_EDGE('',*,*,#363,.F.);
#482=ORIENTED_EDGE('',*,*,#364,.F.);
#483=ORIENTED_EDGE('',*,*,#365,.F.);
#484=ORIENTED_EDGE('',*,*,#366,.F.);
#485=ORIENTED_EDGE('',*,*,#367,.F.);
#486=ORIENTED_EDGE('',*,*,#368,.F.);
#487=ORIENTED_EDGE('',*,*,#369,.F.);
#488=ORIENTED_EDGE('',*,*,#370,.F.);
#489=ORIENTED_EDGE('',*,*,#371,.F.);
#490=ORIENTED_EDGE('',*,*,#372,.F.);
#491=ORIENTED_EDGE('',*,*,#359,.T.);
#492=ORIENTED_EDGE('',*,*,#373,.F.);
#493=ORIENTED_EDGE('',*,*,#374,.F.);
#494=ORIENTED_EDGE('',*,*,#375,.F.);
#495=ORIENTED_EDGE('',*,*,#367,.T.);
#496=ORIENTED_EDGE('',*,*,#376,.F.);
#497=ORIENTED_EDGE('',*,*,#377,.F.);
#498=ORIENTED_EDGE('',*,*,#378,.F.);
#499=ORIENTED_EDGE('',*,*,#357,.T.);
#500=ORIENTED_EDGE('',*,*,#379,.F.);
#501=ORIENTED_EDGE('',*,*,#369,.T.);
#502=ORIENTED_EDGE('',*,*,#380,.T.);
#503=ORIENTED_EDGE('',*,*,#381,.T.);
#504=ORIENTED_EDGE('',*,*,#356,.T.);
#505=ORIENTED_EDGE('',*,*,#381,.F.);
#506=ORIENTED_EDGE('',*,*,#382,.T.);
#507=ORIENTED_EDGE('',*,*,#361,.T.);
#508=ORIENTED_EDGE('',*,*,#383,.F.);
#509=ORIENTED_EDGE('',*,*,#365,.T.);
#510=ORIENTED_EDGE('',*,*,#384,.T.);
#511=ORIENTED_EDGE('',*,*,#363,.T.);
#512=ORIENTED_EDGE('',*,*,#385,.F.);
#513=ORIENTED_EDGE('',*,*,#386,.F.);
#514=ORIENTED_EDGE('',*,*,#387,.F.);
#515=ORIENTED_EDGE('',*,*,#366,.T.);
#516=ORIENTED_EDGE('',*,*,#383,.T.);
#517=ORIENTED_EDGE('',*,*,#364,.T.);
#518=ORIENTED_EDGE('',*,*,#387,.T.);
#519=ORIENTED_EDGE('',*,*,#388,.F.);
#520=ORIENTED_EDGE('',*,*,#389,.F.);
#521=ORIENTED_EDGE('',*,*,#390,.F.);
#522=ORIENTED_EDGE('',*,*,#391,.F.);
#523=ORIENTED_EDGE('',*,*,#392,.F.);
#524=ORIENTED_EDGE('',*,*,#376,.T.);
#525=ORIENTED_EDGE('',*,*,#360,.T.);
#526=ORIENTED_EDGE('',*,*,#375,.T.);
#527=ORIENTED_EDGE('',*,*,#393,.F.);
#528=ORIENTED_EDGE('',*,*,#394,.F.);
#529=ORIENTED_EDGE('',*,*,#395,.F.);
#530=ORIENTED_EDGE('',*,*,#396,.F.);
#531=ORIENTED_EDGE('',*,*,#397,.F.);
#532=ORIENTED_EDGE('',*,*,#398,.T.);
#533=ORIENTED_EDGE('',*,*,#370,.T.);
#534=ORIENTED_EDGE('',*,*,#379,.T.);
#535=ORIENTED_EDGE('',*,*,#392,.T.);
#536=ORIENTED_EDGE('',*,*,#399,.F.);
#537=ORIENTED_EDGE('',*,*,#400,.T.);
#538=ORIENTED_EDGE('',*,*,#377,.T.);
#539=ORIENTED_EDGE('',*,*,#391,.T.);
#540=ORIENTED_EDGE('',*,*,#401,.T.);
#541=ORIENTED_EDGE('',*,*,#402,.T.);
#542=ORIENTED_EDGE('',*,*,#399,.T.);
#543=ORIENTED_EDGE('',*,*,#390,.T.);
#544=ORIENTED_EDGE('',*,*,#403,.F.);
#545=ORIENTED_EDGE('',*,*,#404,.T.);
#546=ORIENTED_EDGE('',*,*,#401,.F.);
#547=ORIENTED_EDGE('',*,*,#389,.T.);
#548=ORIENTED_EDGE('',*,*,#405,.T.);
#549=ORIENTED_EDGE('',*,*,#406,.F.);
#550=ORIENTED_EDGE('',*,*,#403,.T.);
#551=ORIENTED_EDGE('',*,*,#397,.T.);
#552=ORIENTED_EDGE('',*,*,#407,.F.);
#553=ORIENTED_EDGE('',*,*,#408,.T.);
#554=ORIENTED_EDGE('',*,*,#409,.T.);
#555=ORIENTED_EDGE('',*,*,#396,.T.);
#556=ORIENTED_EDGE('',*,*,#410,.T.);
#557=ORIENTED_EDGE('',*,*,#411,.T.);
#558=ORIENTED_EDGE('',*,*,#407,.T.);
#559=ORIENTED_EDGE('',*,*,#388,.T.);
#560=ORIENTED_EDGE('',*,*,#386,.T.);
#561=ORIENTED_EDGE('',*,*,#412,.T.);
#562=ORIENTED_EDGE('',*,*,#405,.F.);
#563=ORIENTED_EDGE('',*,*,#395,.T.);
#564=ORIENTED_EDGE('',*,*,#413,.F.);
#565=ORIENTED_EDGE('',*,*,#414,.T.);
#566=ORIENTED_EDGE('',*,*,#410,.F.);
#567=ORIENTED_EDGE('',*,*,#394,.T.);
#568=ORIENTED_EDGE('',*,*,#415,.T.);
#569=ORIENTED_EDGE('',*,*,#416,.F.);
#570=ORIENTED_EDGE('',*,*,#413,.T.);
#571=ORIENTED_EDGE('',*,*,#393,.T.);
#572=ORIENTED_EDGE('',*,*,#374,.T.);
#573=ORIENTED_EDGE('',*,*,#417,.T.);
#574=ORIENTED_EDGE('',*,*,#415,.F.);
#575=ORIENTED_EDGE('',*,*,#371,.T.);
#576=ORIENTED_EDGE('',*,*,#398,.F.);
#577=ORIENTED_EDGE('',*,*,#409,.F.);
#578=ORIENTED_EDGE('',*,*,#418,.F.);
#579=ORIENTED_EDGE('',*,*,#358,.F.);
#580=ORIENTED_EDGE('',*,*,#384,.F.);
#581=ORIENTED_EDGE('',*,*,#368,.T.);
#582=ORIENTED_EDGE('',*,*,#378,.T.);
#583=ORIENTED_EDGE('',*,*,#400,.F.);
#584=ORIENTED_EDGE('',*,*,#402,.F.);
#585=ORIENTED_EDGE('',*,*,#404,.F.);
#586=ORIENTED_EDGE('',*,*,#406,.T.);
#587=ORIENTED_EDGE('',*,*,#412,.F.);
#588=ORIENTED_EDGE('',*,*,#385,.T.);
#589=ORIENTED_EDGE('',*,*,#362,.F.);
#590=ORIENTED_EDGE('',*,*,#382,.F.);
#591=ORIENTED_EDGE('',*,*,#380,.F.);
#592=ORIENTED_EDGE('',*,*,#372,.T.);
#593=ORIENTED_EDGE('',*,*,#418,.T.);
#594=ORIENTED_EDGE('',*,*,#408,.F.);
#595=ORIENTED_EDGE('',*,*,#411,.F.);
#596=ORIENTED_EDGE('',*,*,#414,.F.);
#597=ORIENTED_EDGE('',*,*,#416,.T.);
#598=ORIENTED_EDGE('',*,*,#417,.F.);
#599=ORIENTED_EDGE('',*,*,#373,.T.);
#600=ORIENTED_EDGE('',*,*,#419,.F.);
#601=ORIENTED_EDGE('',*,*,#419,.T.);
#602=ORIENTED_EDGE('',*,*,#420,.T.);
#603=ORIENTED_EDGE('',*,*,#337,.F.);
#604=ORIENTED_EDGE('',*,*,#420,.F.);
#605=TOROIDAL_SURFACE('',#661,10.1,0.1);
#606=TOROIDAL_SURFACE('',#673,10.1,0.1);
#607=TOROIDAL_SURFACE('',#678,12.,0.5);
#608=TOROIDAL_SURFACE('',#685,12.,0.5);
#609=TOROIDAL_SURFACE('',#687,12.,0.5);
#610=TOROIDAL_SURFACE('',#694,12.,0.5);
#611=ADVANCED_FACE('',(#148),#605,.F.);
#612=ADVANCED_FACE('',(#149),#137,.T.);
#613=ADVANCED_FACE('',(#150,#15),#20,.F.);
#614=ADVANCED_FACE('',(#151,#16),#21,.T.);
#615=ADVANCED_FACE('',(#152),#606,.F.);
#616=ADVANCED_FACE('',(#153,#17),#22,.T.);
#617=ADVANCED_FACE('',(#154),#607,.T.);
#618=ADVANCED_FACE('',(#155),#138,.T.);
#619=ADVANCED_FACE('',(#156),#608,.T.);
#620=ADVANCED_FACE('',(#157),#609,.T.);
#621=ADVANCED_FACE('',(#158),#139,.T.);
#622=ADVANCED_FACE('',(#159),#610,.T.);
#623=ADVANCED_FACE('',(#160,#18),#23,.F.);
#624=ADVANCED_FACE('',(#161),#24,.F.);
#625=ADVANCED_FACE('',(#162),#25,.F.);
#626=ADVANCED_FACE('',(#163),#26,.T.);
#627=ADVANCED_FACE('',(#164),#27,.T.);
#628=ADVANCED_FACE('',(#165),#28,.T.);
#629=ADVANCED_FACE('',(#166),#29,.T.);
#630=ADVANCED_FACE('',(#167),#140,.T.);
#631=ADVANCED_FACE('',(#168),#30,.T.);
#632=ADVANCED_FACE('',(#169),#31,.T.);
#633=ADVANCED_FACE('',(#170),#32,.T.);
#634=ADVANCED_FACE('',(#171),#33,.F.);
#635=ADVANCED_FACE('',(#172),#141,.T.);
#636=ADVANCED_FACE('',(#173),#142,.F.);
#637=ADVANCED_FACE('',(#174),#143,.T.);
#638=ADVANCED_FACE('',(#175),#34,.F.);
#639=ADVANCED_FACE('',(#176),#144,.T.);
#640=ADVANCED_FACE('',(#177),#35,.F.);
#641=ADVANCED_FACE('',(#178),#145,.F.);
#642=ADVANCED_FACE('',(#179),#146,.T.);
#643=ADVANCED_FACE('',(#180),#36,.F.);
#644=ADVANCED_FACE('',(#181),#37,.T.);
#645=ADVANCED_FACE('',(#182,#19),#38,.T.);
#646=ADVANCED_FACE('',(#183),#147,.F.);
#647=CLOSED_SHELL('',(#611,#612,#613,#614,#615,#616,#617,#618,#619,#620,
#621,#622,#623,#624,#625,#626,#627,#628,#629,#630,#631,#632,#633,#634,#635,
#636,#637,#638,#639,#640,#641,#642,#643,#644,#645,#646));
#648=DERIVED_UNIT_ELEMENT(#650,1.);
#649=DERIVED_UNIT_ELEMENT(#1144,-3.);
#650=(
MASS_UNIT()
NAMED_UNIT(*)
SI_UNIT(.KILO.,.GRAM.)
);
#651=DERIVED_UNIT((#648,#649));
#652=MEASURE_REPRESENTATION_ITEM('density measure',
POSITIVE_RATIO_MEASURE(1060.),#651);
#653=PROPERTY_DEFINITION_REPRESENTATION(#658,#655);
#654=PROPERTY_DEFINITION_REPRESENTATION(#659,#656);
#655=REPRESENTATION('material name',(#657),#1141);
#656=REPRESENTATION('density',(#652),#1141);
#657=DESCRIPTIVE_REPRESENTATION_ITEM('Plastica ABS','Plastica ABS');
#658=PROPERTY_DEFINITION('material property','material name',#1151);
#659=PROPERTY_DEFINITION('material property','density of part',#1151);
#660=AXIS2_PLACEMENT_3D('',#949,#740,#741);
#661=AXIS2_PLACEMENT_3D('',#950,#742,#743);
#662=AXIS2_PLACEMENT_3D('',#953,#744,#745);
#663=AXIS2_PLACEMENT_3D('',#955,#746,#747);
#664=AXIS2_PLACEMENT_3D('',#956,#748,#749);
#665=AXIS2_PLACEMENT_3D('',#957,#750,#751);
#666=AXIS2_PLACEMENT_3D('',#958,#752,#753);
#667=AXIS2_PLACEMENT_3D('',#961,#755,#756);
#668=AXIS2_PLACEMENT_3D('',#962,#757,#758);
#669=AXIS2_PLACEMENT_3D('',#964,#759,#760);
#670=AXIS2_PLACEMENT_3D('',#965,#761,#762);
#671=AXIS2_PLACEMENT_3D('',#967,#763,#764);
#672=AXIS2_PLACEMENT_3D('',#969,#765,#766);
#673=AXIS2_PLACEMENT_3D('',#970,#767,#768);
#674=AXIS2_PLACEMENT_3D('',#972,#769,#770);
#675=AXIS2_PLACEMENT_3D('',#973,#771,#772);
#676=AXIS2_PLACEMENT_3D('',#974,#773,#774);
#677=AXIS2_PLACEMENT_3D('',#976,#775,#776);
#678=AXIS2_PLACEMENT_3D('',#977,#777,#778);
#679=AXIS2_PLACEMENT_3D('',#979,#779,#780);
#680=AXIS2_PLACEMENT_3D('',#981,#781,#782);
#681=AXIS2_PLACEMENT_3D('',#982,#783,#784);
#682=AXIS2_PLACEMENT_3D('',#983,#785,#786);
#683=AXIS2_PLACEMENT_3D('',#987,#788,#789);
#684=AXIS2_PLACEMENT_3D('',#988,#790,#791);
#685=AXIS2_PLACEMENT_3D('',#989,#792,#793);
#686=AXIS2_PLACEMENT_3D('',#990,#794,#795);
#687=AXIS2_PLACEMENT_3D('',#991,#796,#797);
#688=AXIS2_PLACEMENT_3D('',#993,#798,#799);
#689=AXIS2_PLACEMENT_3D('',#995,#800,#801);
#690=AXIS2_PLACEMENT_3D('',#996,#802,#803);
#691=AXIS2_PLACEMENT_3D('',#997,#804,#805);
#692=AXIS2_PLACEMENT_3D('',#1001,#807,#808);
#693=AXIS2_PLACEMENT_3D('',#1002,#809,#810);
#694=AXIS2_PLACEMENT_3D('',#1003,#811,#812);
#695=AXIS2_PLACEMENT_3D('',#1005,#813,#814);
#696=AXIS2_PLACEMENT_3D('',#1006,#815,#816);
#697=AXIS2_PLACEMENT_3D('',#1007,#817,#818);
#698=AXIS2_PLACEMENT_3D('',#1009,#819,#820);
#699=AXIS2_PLACEMENT_3D('',#1010,#821,#822);
#700=AXIS2_PLACEMENT_3D('',#1019,#827,#828);
#701=AXIS2_PLACEMENT_3D('',#1028,#833,#834);
#702=AXIS2_PLACEMENT_3D('',#1037,#839,#840);
#703=AXIS2_PLACEMENT_3D('',#1046,#845,#846);
#704=AXIS2_PLACEMENT_3D('',#1052,#850,#851);
#705=AXIS2_PLACEMENT_3D('',#1058,#855,#856);
#706=AXIS2_PLACEMENT_3D('',#1059,#857,#858);
#707=AXIS2_PLACEMENT_3D('',#1061,#859,#860);
#708=AXIS2_PLACEMENT_3D('',#1063,#862,#863);
#709=AXIS2_PLACEMENT_3D('',#1064,#864,#865);
#710=AXIS2_PLACEMENT_3D('',#1065,#866,#867);
#711=AXIS2_PLACEMENT_3D('',#1066,#868,#869);
#712=AXIS2_PLACEMENT_3D('',#1072,#873,#874);
#713=AXIS2_PLACEMENT_3D('',#1076,#876,#877);
#714=AXIS2_PLACEMENT_3D('',#1078,#878,#879);
#715=AXIS2_PLACEMENT_3D('',#1080,#880,#881);
#716=AXIS2_PLACEMENT_3D('',#1082,#883,#884);
#717=AXIS2_PLACEMENT_3D('',#1086,#886,#887);
#718=AXIS2_PLACEMENT_3D('',#1088,#888,#889);
#719=AXIS2_PLACEMENT_3D('',#1090,#890,#891);
#720=AXIS2_PLACEMENT_3D('',#1094,#894,#895);
#721=AXIS2_PLACEMENT_3D('',#1098,#898,#899);
#722=AXIS2_PLACEMENT_3D('',#1101,#901,#902);
#723=AXIS2_PLACEMENT_3D('',#1102,#903,#904);
#724=AXIS2_PLACEMENT_3D('',#1105,#906,#907);
#725=AXIS2_PLACEMENT_3D('',#1106,#908,#909);
#726=AXIS2_PLACEMENT_3D('',#1109,#911,#912);
#727=AXIS2_PLACEMENT_3D('',#1110,#913,#914);
#728=AXIS2_PLACEMENT_3D('',#1116,#918,#919);
#729=AXIS2_PLACEMENT_3D('',#1119,#921,#922);
#730=AXIS2_PLACEMENT_3D('',#1120,#923,#924);
#731=AXIS2_PLACEMENT_3D('',#1122,#926,#927);
#732=AXIS2_PLACEMENT_3D('',#1125,#929,#930);
#733=AXIS2_PLACEMENT_3D('',#1126,#931,#932);
#734=AXIS2_PLACEMENT_3D('',#1129,#934,#935);
#735=AXIS2_PLACEMENT_3D('',#1130,#936,#937);
#736=AXIS2_PLACEMENT_3D('',#1132,#939,#940);
#737=AXIS2_PLACEMENT_3D('',#1134,#942,#943);
#738=AXIS2_PLACEMENT_3D('',#1136,#944,#945);
#739=AXIS2_PLACEMENT_3D('',#1137,#946,#947);
#740=DIRECTION('axis',(0.,0.,1.));
#741=DIRECTION('refdir',(1.,0.,0.));
#742=DIRECTION('center_axis',(-2.16844156809857E-19,1.29246970711411E-26,
1.));
#743=DIRECTION('ref_axis',(1.,0.,0.));
#744=DIRECTION('center_axis',(-2.16844156809857E-19,1.29246970711411E-26,
1.));
#745=DIRECTION('ref_axis',(-1.,-6.51001781024221E-22,0.));
#746=DIRECTION('center_axis',(1.22464679914735E-16,-1.,1.29246970976968E-26));
#747=DIRECTION('ref_axis',(-1.,-1.22464679914735E-16,0.));
#748=DIRECTION('center_axis',(2.16844156809857E-19,-1.29246970711411E-26,
-1.));
#749=DIRECTION('ref_axis',(-1.,-6.51001781024221E-22,-2.16844156809857E-19));
#750=DIRECTION('center_axis',(-2.16844156809857E-19,1.29246970711411E-26,
1.));
#751=DIRECTION('ref_axis',(-1.,-6.51001781024221E-22,0.));
#752=DIRECTION('center_axis',(1.11022302462516E-16,-6.50951269388768E-20,
1.));
#753=DIRECTION('ref_axis',(-1.,-5.03823533300958E-26,1.11022302462516E-16));
#754=DIRECTION('',(-1.11022302462516E-16,6.50951269388768E-20,-1.));
#755=DIRECTION('center_axis',(2.16844156809857E-19,-1.29246970711411E-26,
-1.));
#756=DIRECTION('ref_axis',(-1.,6.50901016270923E-22,0.));
#757=DIRECTION('center_axis',(-2.16844156809857E-19,1.29246970711411E-26,
1.));
#758=DIRECTION('ref_axis',(-1.,-5.24742797189779E-26,-2.16844156809857E-19));
#759=DIRECTION('center_axis',(-2.16844156809857E-19,1.29246970711411E-26,
1.));
#760=DIRECTION('ref_axis',(-1.,-5.2474309551878E-26,-2.16844156809857E-19));
#761=DIRECTION('center_axis',(-2.16844156809857E-19,1.29246970711411E-26,
1.));
#762=DIRECTION('ref_axis',(-1.,-5.24742797189779E-26,-2.16844156809857E-19));
#763=DIRECTION('center_axis',(2.16844156809857E-19,-1.29246970711411E-26,
-1.));
#764=DIRECTION('ref_axis',(-1.,-5.24742464430055E-26,-2.16844156809857E-19));
#765=DIRECTION('center_axis',(-1.02125069211737E-16,6.50951204765283E-20,
-1.));
#766=DIRECTION('ref_axis',(-1.,-5.03823533335125E-26,1.02125069487464E-16));
#767=DIRECTION('center_axis',(2.16844156809857E-19,-1.29246970711411E-26,
-1.));
#768=DIRECTION('ref_axis',(-1.,0.,0.));
#769=DIRECTION('center_axis',(-1.22464679914735E-16,-1.,1.29246970445853E-26));
#770=DIRECTION('ref_axis',(1.,-1.22464679914735E-16,0.));
#771=DIRECTION('center_axis',(-2.16844156809857E-19,1.29246970711411E-26,
1.));
#772=DIRECTION('ref_axis',(-1.,6.50901016270923E-22,-2.16844156809857E-19));
#773=DIRECTION('center_axis',(-2.16844156809857E-19,1.29246970711411E-26,
1.));
#774=DIRECTION('ref_axis',(-1.,-5.24742797189779E-26,-2.16844156809857E-19));
#775=DIRECTION('center_axis',(2.16844156809857E-19,-1.29246970711411E-26,
-1.));
#776=DIRECTION('ref_axis',(-1.,-5.24742464430055E-26,-2.16844156809857E-19));
#777=DIRECTION('center_axis',(-2.16844156809857E-19,1.29246970711411E-26,
1.));
#778=DIRECTION('ref_axis',(1.,0.,0.));
#779=DIRECTION('center_axis',(1.22464679914735E-16,-1.,1.29246970976968E-26));
#780=DIRECTION('ref_axis',(-1.,-1.22464679914735E-16,0.));
#781=DIRECTION('center_axis',(-2.16844156809857E-19,1.29246970711411E-26,
1.));
#782=DIRECTION('ref_axis',(-1.,-5.24742464430055E-26,0.));
#783=DIRECTION('center_axis',(-2.16844156809857E-19,1.29246970711411E-26,
1.));
#784=DIRECTION('ref_axis',(-1.,-5.24742464430055E-26,0.));
#785=DIRECTION('center_axis',(0.,1.29247463749476E-26,1.));
#786=DIRECTION('ref_axis',(-1.,-5.24742797189779E-26,0.));
#787=DIRECTION('',(0.,-1.29247463749476E-26,-1.));
#788=DIRECTION('center_axis',(2.16844156809857E-19,-1.29246970711411E-26,
-1.));
#789=DIRECTION('ref_axis',(-1.,-5.2474309551878E-26,0.));
#790=DIRECTION('center_axis',(2.16844156809857E-19,-1.29246970711411E-26,
-1.));
#791=DIRECTION('ref_axis',(-1.,-5.2474309551878E-26,0.));
#792=DIRECTION('center_axis',(-2.16844156809857E-19,1.29246970711411E-26,
1.));
#793=DIRECTION('ref_axis',(1.,0.,0.));
#794=DIRECTION('center_axis',(1.22464679914735E-16,-1.,1.29246970976968E-26));
#795=DIRECTION('ref_axis',(-1.,-1.22464679914735E-16,0.));
#796=DIRECTION('center_axis',(-2.16844156809857E-19,1.29246970711411E-26,
1.));
#797=DIRECTION('ref_axis',(1.,0.,0.));
#798=DIRECTION('center_axis',(1.22464679914735E-16,-1.,1.29246970976968E-26));
#799=DIRECTION('ref_axis',(-1.,-1.22464679914735E-16,0.));
#800=DIRECTION('center_axis',(-2.16844156809857E-19,1.29246970711411E-26,
1.));
#801=DIRECTION('ref_axis',(-1.,-5.24742464430055E-26,0.));
#802=DIRECTION('center_axis',(-2.16844156809857E-19,1.29246970711411E-26,
1.));
#803=DIRECTION('ref_axis',(-1.,-5.24742464430055E-26,0.));
#804=DIRECTION('center_axis',(0.,1.29248285479586E-26,1.));
#805=DIRECTION('ref_axis',(-1.,-5.24742797189779E-26,0.));
#806=DIRECTION('',(0.,-1.29248285479586E-26,-1.));
#807=DIRECTION('center_axis',(2.16844156809857E-19,-1.29246970711411E-26,
-1.));
#808=DIRECTION('ref_axis',(-1.,-5.2474309551878E-26,0.));
#809=DIRECTION('center_axis',(2.16844156809857E-19,-1.29246970711411E-26,
-1.));
#810=DIRECTION('ref_axis',(-1.,-5.2474309551878E-26,0.));
#811=DIRECTION('center_axis',(-2.16844156809857E-19,1.29246970711411E-26,
1.));
#812=DIRECTION('ref_axis',(1.,0.,0.));
#813=DIRECTION('center_axis',(1.22464679914735E-16,-1.,1.29246970976968E-26));
#814=DIRECTION('ref_axis',(-1.,-1.22464679914735E-16,0.));
#815=DIRECTION('center_axis',(-2.16844156809857E-19,1.29246970711411E-26,
1.));
#816=DIRECTION('ref_axis',(-1.,-5.2474309551878E-26,-2.16844156809857E-19));
#817=DIRECTION('center_axis',(-2.16844156809857E-19,1.29246970711411E-26,
1.));
#818=DIRECTION('ref_axis',(-1.,-5.24742797189779E-26,-2.16844156809857E-19));
#819=DIRECTION('center_axis',(0.,0.,-1.));
#820=DIRECTION('ref_axis',(-1.,-5.24742797189779E-26,0.));
#821=DIRECTION('center_axis',(-0.0354139201848027,-0.999372730394994,7.5047758930501E-16));
#822=DIRECTION('ref_axis',(2.11915988229697E-14,2.59525826670128E-30,1.));
#823=DIRECTION('',(0.,0.,-1.));
#824=DIRECTION('',(0.999372730394993,-0.0354139201848027,-2.11783059771465E-14));
#825=DIRECTION('',(1.94774083073773E-31,7.50948636559645E-16,1.));
#826=DIRECTION('',(0.999372730394994,-0.0354139201848027,0.));
#827=DIRECTION('center_axis',(0.0354139201848025,0.999372730394994,-7.50477589305005E-16));
#828=DIRECTION('ref_axis',(-2.11915988229697E-14,-2.59525826670128E-30,
-1.));
#829=DIRECTION('',(0.,0.,-1.));
#830=DIRECTION('',(-0.999372730394994,0.0354139201848025,2.11783059771465E-14));
#831=DIRECTION('',(0.,7.5094863655964E-16,1.));
#832=DIRECTION('',(-0.999372730394994,0.0354139201848025,0.));
#833=DIRECTION('center_axis',(0.0354139201848025,-0.999372730394994,-7.50477589304999E-16));
#834=DIRECTION('ref_axis',(2.11915988229697E-14,2.59525826670128E-30,1.));
#835=DIRECTION('',(0.,0.,1.));
#836=DIRECTION('',(-0.999372730394994,-0.0354139201848025,0.));
#837=DIRECTION('',(1.9477408307377E-31,7.50948636559634E-16,-1.));
#838=DIRECTION('',(0.999372730394994,0.0354139201848024,-2.11783059771465E-14));
#839=DIRECTION('center_axis',(-0.0354139201848025,0.999372730394994,7.50477589304999E-16));
#840=DIRECTION('ref_axis',(-2.11915988229697E-14,-2.59525826670128E-30,
-1.));
#841=DIRECTION('',(0.,0.,1.));
#842=DIRECTION('',(0.999372730394994,0.0354139201848025,0.));
#843=DIRECTION('',(0.,7.50948636559634E-16,-1.));
#844=DIRECTION('',(-0.999372730394994,-0.0354139201848025,2.11783059771465E-14));
#845=DIRECTION('center_axis',(1.,-2.59370712710926E-16,0.));
#846=DIRECTION('ref_axis',(-2.59370712710926E-16,-1.,0.));
#847=DIRECTION('',(2.59370712710926E-16,1.,0.));
#848=DIRECTION('',(0.,0.,1.));
#849=DIRECTION('',(-2.59370712710926E-16,-1.,0.));
#850=DIRECTION('center_axis',(1.,-2.59370712710926E-16,0.));
#851=DIRECTION('ref_axis',(-2.59370712710926E-16,-1.,0.));
#852=DIRECTION('',(-2.59370712710926E-16,-1.,0.));
#853=DIRECTION('',(0.,0.,-1.));
#854=DIRECTION('',(2.59370712710926E-16,1.,0.));
#855=DIRECTION('center_axis',(0.,0.,-1.));
#856=DIRECTION('ref_axis',(-1.,-5.24742797189779E-26,0.));
#857=DIRECTION('center_axis',(2.16844156809857E-19,-1.29246970711411E-26,
-1.));
#858=DIRECTION('ref_axis',(-1.,-5.24742797189779E-26,-2.16844156809857E-19));
#859=DIRECTION('center_axis',(2.11915988229697E-14,2.59525826670128E-30,
1.));
#860=DIRECTION('ref_axis',(-1.,-5.24742797189779E-26,0.));
#861=DIRECTION('',(0.,0.,1.));
#862=DIRECTION('center_axis',(2.11915988229697E-14,2.59525826670128E-30,
1.));
#863=DIRECTION('ref_axis',(-1.,-5.24742797189779E-26,0.));
#864=DIRECTION('center_axis',(2.16844156809857E-19,-1.29246970711411E-26,
-1.));
#865=DIRECTION('ref_axis',(-1.,-5.24742797189779E-26,-2.16844156809857E-19));
#866=DIRECTION('center_axis',(2.11915988229697E-14,2.59525826670128E-30,
1.));
#867=DIRECTION('ref_axis',(-1.,-5.24742797189779E-26,0.));
#868=DIRECTION('center_axis',(-1.,0.,0.));
#869=DIRECTION('ref_axis',(0.,1.,0.));
#870=DIRECTION('',(0.,-1.,0.));
#871=DIRECTION('',(0.,0.,1.));
#872=DIRECTION('',(0.,1.,0.));
#873=DIRECTION('center_axis',(0.,0.,-1.));
#874=DIRECTION('ref_axis',(-1.,0.,0.));
#875=DIRECTION('',(0.995912562138425,-0.090322580647791,0.));
#876=DIRECTION('center_axis',(0.,0.,1.));
#877=DIRECTION('ref_axis',(0.0903225806477911,0.995912562138426,0.));
#878=DIRECTION('center_axis',(0.,0.,-1.));
#879=DIRECTION('ref_axis',(-1.,0.,0.));
#880=DIRECTION('center_axis',(0.,0.,1.));
#881=DIRECTION('ref_axis',(-0.0900157801540899,0.995940339238878,0.));
#882=DIRECTION('',(0.995940339238878,0.0900157801540897,0.));
#883=DIRECTION('center_axis',(0.,0.,-1.));
#884=DIRECTION('ref_axis',(-1.,0.,0.));
#885=DIRECTION('',(-0.995940339238836,0.0900157801545503,0.));
#886=DIRECTION('center_axis',(0.,0.,1.));
#887=DIRECTION('ref_axis',(-0.0900157801545503,-0.995940339238836,0.));
#888=DIRECTION('center_axis',(0.,0.,-1.));
#889=DIRECTION('ref_axis',(-1.,0.,0.));
#890=DIRECTION('center_axis',(0.,0.,1.));
#891=DIRECTION('ref_axis',(0.0903225806570463,-0.995912562137586,0.));
#892=DIRECTION('',(-0.995912562137586,-0.0903225806570462,0.));
#893=DIRECTION('',(0.,1.,0.));
#894=DIRECTION('center_axis',(-0.0900157801540897,0.995940339238878,0.));
#895=DIRECTION('ref_axis',(-0.995940339238878,-0.0900157801540897,0.));
#896=DIRECTION('',(0.,0.,-1.));
#897=DIRECTION('',(-0.995940339238878,-0.0900157801540897,0.));
#898=DIRECTION('center_axis',(0.,0.,1.));
#899=DIRECTION('ref_axis',(-0.0900157801540899,0.995940339238878,0.));
#900=DIRECTION('',(0.,0.,1.));
#901=DIRECTION('center_axis',(0.,0.,1.));
#902=DIRECTION('ref_axis',(-0.0900157801540899,0.995940339238878,0.));
#903=DIRECTION('center_axis',(0.,0.,1.));
#904=DIRECTION('ref_axis',(-1.,0.,0.));
#905=DIRECTION('',(0.,0.,-1.));
#906=DIRECTION('center_axis',(0.,0.,1.));
#907=DIRECTION('ref_axis',(-1.,0.,0.));
#908=DIRECTION('center_axis',(0.,0.,-1.));
#909=DIRECTION('ref_axis',(0.0903225806477911,0.995912562138426,0.));
#910=DIRECTION('',(0.,0.,1.));
#911=DIRECTION('center_axis',(0.,0.,1.));
#912=DIRECTION('ref_axis',(0.0903225806477911,0.995912562138426,0.));
#913=DIRECTION('center_axis',(0.0903225806570462,-0.995912562137586,0.));
#914=DIRECTION('ref_axis',(0.995912562137586,0.0903225806570462,0.));
#915=DIRECTION('',(0.,0.,-1.));
#916=DIRECTION('',(0.995912562137586,0.0903225806570462,0.));
#917=DIRECTION('',(0.,0.,-1.));
#918=DIRECTION('center_axis',(0.,0.,1.));
#919=DIRECTION('ref_axis',(0.0903225806570463,-0.995912562137586,0.));
#920=DIRECTION('',(0.,0.,1.));
#921=DIRECTION('center_axis',(0.,0.,1.));
#922=DIRECTION('ref_axis',(0.0903225806570463,-0.995912562137586,0.));
#923=DIRECTION('center_axis',(0.0903225806477911,0.995912562138426,0.));
#924=DIRECTION('ref_axis',(-0.995912562138426,0.0903225806477911,0.));
#925=DIRECTION('',(-0.995912562138425,0.0903225806477911,0.));
#926=DIRECTION('center_axis',(0.,0.,1.));
#927=DIRECTION('ref_axis',(-1.,0.,0.));
#928=DIRECTION('',(0.,0.,-1.));
#929=DIRECTION('center_axis',(0.,0.,1.));
#930=DIRECTION('ref_axis',(-1.,0.,0.));
#931=DIRECTION('center_axis',(0.,0.,-1.));
#932=DIRECTION('ref_axis',(-0.0900157801545503,-0.995940339238836,0.));
#933=DIRECTION('',(0.,0.,1.));
#934=DIRECTION('center_axis',(0.,0.,1.));
#935=DIRECTION('ref_axis',(-0.0900157801545503,-0.995940339238836,0.));
#936=DIRECTION('center_axis',(-0.0900157801545503,-0.995940339238836,0.));
#937=DIRECTION('ref_axis',(0.995940339238836,-0.0900157801545503,0.));
#938=DIRECTION('',(0.995940339238836,-0.0900157801545503,0.));
#939=DIRECTION('center_axis',(-1.,0.,0.));
#940=DIRECTION('ref_axis',(0.,1.,0.));
#941=DIRECTION('',(0.,-1.,0.));
#942=DIRECTION('center_axis',(0.,0.,-1.));
#943=DIRECTION('ref_axis',(-1.,0.,0.));
#944=DIRECTION('center_axis',(0.,0.,-1.));
#945=DIRECTION('ref_axis',(1.,0.,0.));
#946=DIRECTION('center_axis',(0.,0.,1.));
#947=DIRECTION('ref_axis',(1.,0.,0.));
#948=DIRECTION('',(0.,0.,1.));
#949=CARTESIAN_POINT('',(0.,0.,0.));
#950=CARTESIAN_POINT('Origin',(7.86870568703075E-16,4.44073587019597E-15,
1.90000000000001));
#951=CARTESIAN_POINT('',(10.,5.66538917936114E-15,1.90000000000001));
#952=CARTESIAN_POINT('',(-10.,3.21608907104862E-15,1.90000000000001));
#953=CARTESIAN_POINT('Origin',(7.86870568703075E-16,4.44073587019597E-15,
1.90000000000001));
#954=CARTESIAN_POINT('',(-10.1,3.20384260305844E-15,2.00000000000001));
#955=CARTESIAN_POINT('Origin',(-10.1,3.20384260305715E-15,1.90000000000001));
#956=CARTESIAN_POINT('Origin',(7.86848884287394E-16,4.44073587019727E-15,
2.00000000000001));
#957=CARTESIAN_POINT('Origin',(7.86870568703075E-16,4.44073587019597E-15,
1.90000000000001));
#958=CARTESIAN_POINT('Origin',(5.20417042793042E-16,4.44089209850063E-15,
-0.499999999999954));
#959=CARTESIAN_POINT('',(10.,3.21623228083042E-15,-0.399999999999993));
#960=CARTESIAN_POINT('',(10.,5.6655388981518E-15,-0.499999999999955));
#961=CARTESIAN_POINT('Origin',(5.31519273039289E-16,4.44088558898793E-15,
-0.399999999999993));
#962=CARTESIAN_POINT('Origin',(0.,4.44089209855232E-15,2.00000000000001));
#963=CARTESIAN_POINT('',(-12.,2.9713159395755E-15,2.00000000000001));
#964=CARTESIAN_POINT('Origin',(2.42969708715158E-16,4.44089209855232E-15,
2.00000000000001));
#965=CARTESIAN_POINT('Origin',(0.,4.44089209857171E-15,3.50000000000001));
#966=CARTESIAN_POINT('',(-12.,2.97131593959489E-15,3.50000000000001));
#967=CARTESIAN_POINT('Origin',(2.42752864558348E-16,4.44089209857171E-15,
3.50000000000001));
#968=CARTESIAN_POINT('',(-1.35,-1.65327317884893E-16,3.50000000000005));
#969=CARTESIAN_POINT('Origin',(1.07552855510562E-15,4.44063171799287E-15,
3.50000000000005));
#970=CARTESIAN_POINT('Origin',(5.31519273039289E-16,4.44088558898793E-15,
-0.399999999999993));
#971=CARTESIAN_POINT('',(10.1,5.6777722820252E-15,-0.499999999999993));
#972=CARTESIAN_POINT('Origin',(10.1,3.20399232184911E-15,-0.399999999999993));
#973=CARTESIAN_POINT('Origin',(5.3154095745497E-16,4.44088558898664E-15,
-0.499999999999993));
#974=CARTESIAN_POINT('Origin',(0.,4.44089209852001E-15,-0.499999999999993));
#975=CARTESIAN_POINT('',(-12.,2.97131593954319E-15,-0.499999999999993));
#976=CARTESIAN_POINT('Origin',(2.42752864558348E-16,4.44089209852001E-15,
-0.499999999999993));
#977=CARTESIAN_POINT('Origin',(2.42861286636753E-16,4.44089209856525E-15,
3.00000000000001));
#978=CARTESIAN_POINT('',(-12.5,2.91008359963106E-15,3.00000000000001));
#979=CARTESIAN_POINT('Origin',(-12.,2.97131593958843E-15,3.00000000000001));
#980=CARTESIAN_POINT('',(12.5,5.97170059815537E-15,3.00000000000001));
#981=CARTESIAN_POINT('Origin',(2.42861286636753E-16,4.44089209856525E-15,
3.00000000000001));
#982=CARTESIAN_POINT('Origin',(2.42861286636753E-16,4.44089209856525E-15,
3.00000000000001));
#983=CARTESIAN_POINT('Origin',(2.42861286636753E-16,4.44089209852001E-15,
-0.499999999999993));
#984=CARTESIAN_POINT('',(12.5,2.91008360028053E-15,2.50000000000001));
#985=CARTESIAN_POINT('',(12.5,5.97170059811013E-15,-0.499999999999993));
#986=CARTESIAN_POINT('',(-12.5,2.9100835996246E-15,2.50000000000001));
#987=CARTESIAN_POINT('Origin',(2.42861286636753E-16,4.44089209855879E-15,
2.50000000000001));
#988=CARTESIAN_POINT('Origin',(2.42861286636753E-16,4.44089209855879E-15,
2.50000000000001));
#989=CARTESIAN_POINT('Origin',(2.42861286636753E-16,4.44089209855879E-15,
2.50000000000001));
#990=CARTESIAN_POINT('Origin',(-12.,2.97131593958196E-15,2.50000000000001));
#991=CARTESIAN_POINT('Origin',(2.42861286636753E-16,4.44089209851355E-15,
-0.999999999999993));
#992=CARTESIAN_POINT('',(-12.5,2.91008359957936E-15,-0.999999999999993));
#993=CARTESIAN_POINT('Origin',(-12.,2.97131593953673E-15,-0.999999999999993));
#994=CARTESIAN_POINT('',(12.5,5.97170059810367E-15,-0.999999999999993));
#995=CARTESIAN_POINT('Origin',(2.42861286636753E-16,4.44089209851355E-15,
-0.999999999999993));
#996=CARTESIAN_POINT('Origin',(2.42861286636753E-16,4.44089209851355E-15,
-0.999999999999993));
#997=CARTESIAN_POINT('Origin',(2.42861286636753E-16,4.44089209850063E-15,
-1.99999999999999));
#998=CARTESIAN_POINT('',(12.5,2.91008360022883E-15,-1.49999999999999));
#999=CARTESIAN_POINT('',(12.5,5.97170059809075E-15,-1.99999999999999));
#1000=CARTESIAN_POINT('',(-12.5,2.9100835995729E-15,-1.49999999999999));
#1001=CARTESIAN_POINT('Origin',(2.42861286636753E-16,4.44089209850709E-15,
-1.49999999999999));
#1002=CARTESIAN_POINT('Origin',(2.42861286636753E-16,4.44089209850709E-15,
-1.49999999999999));
#1003=CARTESIAN_POINT('Origin',(2.42861286636753E-16,4.44089209850709E-15,
-1.49999999999999));
#1004=CARTESIAN_POINT('',(-12.,2.9713159395238E-15,-1.99999999999999));
#1005=CARTESIAN_POINT('Origin',(-12.,2.97131593953027E-15,-1.49999999999999));
#1006=CARTESIAN_POINT('Origin',(2.42969708715158E-16,4.44089209850063E-15,
-1.99999999999999));
#1007=CARTESIAN_POINT('Origin',(0.,4.44089209850063E-15,-1.99999999999999));
#1008=CARTESIAN_POINT('',(10.,4.44089209850063E-15,-1.99999999999998));
#1009=CARTESIAN_POINT('Origin',(2.77555756156289E-16,4.44089209850063E-15,
-2.));
#1010=CARTESIAN_POINT('Origin',(-0.088385880769629,-2.49422934631705,-5.49999999999999));
#1011=CARTESIAN_POINT('',(-9.76585483673556,-2.15129712215878,-3.49999999999978));
#1012=CARTESIAN_POINT('',(-9.76585483673556,-2.15129712215878,-4.49999999999998));
#1013=CARTESIAN_POINT('',(-9.76585483673556,-2.15129712215877,1.77635683940025E-14));
#1014=CARTESIAN_POINT('',(-4.42079110507524,-2.34070559271099,-3.49999999999989));
#1015=CARTESIAN_POINT('',(-14.0708278403696,-1.99874546078998,-3.49999999999969));
#1016=CARTESIAN_POINT('',(-4.42079110507524,-2.34070559271099,-4.5));
#1017=CARTESIAN_POINT('',(-4.42079110507524,-2.34070559271099,-4.49999999999999));
#1018=CARTESIAN_POINT('',(-3.5335512711904,-2.37214595495657,-4.5));
#1019=CARTESIAN_POINT('Origin',(0.0883858807695373,2.49422934631706,-5.49999999999999));
#1020=CARTESIAN_POINT('',(9.76585483673556,2.15129712215879,-3.50000000000019));
#1021=CARTESIAN_POINT('',(9.76585483673556,2.15129712215879,-4.49999999999998));
#1022=CARTESIAN_POINT('',(9.76585483673556,2.15129712215879,1.77635683940025E-14));
#1023=CARTESIAN_POINT('',(4.27556164299109,2.34585196545292,-3.50000000000008));
#1024=CARTESIAN_POINT('',(14.0708278403696,1.99874546078999,-3.50000000000029));
#1025=CARTESIAN_POINT('',(4.27556164299109,2.34585196545292,-4.5));
#1026=CARTESIAN_POINT('',(4.27556164299109,2.34585196545292,-4.5));
#1027=CARTESIAN_POINT('',(-3.35677950965124,2.61631273767754,-4.5));
#1028=CARTESIAN_POINT('Origin',(-0.0883858807696283,2.49422934631706,-5.49999999999999));
#1029=CARTESIAN_POINT('',(-9.76585483673556,2.15129712215879,-4.49999999999998));
#1030=CARTESIAN_POINT('',(-9.76585483673556,2.15129712215879,-3.49999999999978));
#1031=CARTESIAN_POINT('',(-9.76585483673556,2.15129712215878,1.77635683940025E-14));
#1032=CARTESIAN_POINT('',(-4.42079110507524,2.340705592711,-4.5));
#1033=CARTESIAN_POINT('',(-3.53355127119038,2.37214595495658,-4.5));
#1034=CARTESIAN_POINT('',(-4.42079110507524,2.340705592711,-3.49999999999989));
#1035=CARTESIAN_POINT('',(-4.42079110507524,2.340705592711,-4.49999999999999));
#1036=CARTESIAN_POINT('',(-14.0708278403696,1.99874546078999,-3.49999999999969));
#1037=CARTESIAN_POINT('Origin',(0.0883858807695373,-2.49422934631705,-5.49999999999999));
#1038=CARTESIAN_POINT('',(9.76585483673556,-2.15129712215878,-4.49999999999998));
#1039=CARTESIAN_POINT('',(9.76585483673556,-2.15129712215878,-3.50000000000019));
#1040=CARTESIAN_POINT('',(9.76585483673556,-2.15129712215878,1.77635683940025E-14));
#1041=CARTESIAN_POINT('',(4.27556164299109,-2.34585196545291,-4.5));
#1042=CARTESIAN_POINT('',(-3.35677950965122,-2.61631273767753,-4.5));
#1043=CARTESIAN_POINT('',(4.27556164299109,-2.34585196545291,-3.50000000000008));
#1044=CARTESIAN_POINT('',(4.27556164299109,-2.34585196545291,-4.49999999999999));
#1045=CARTESIAN_POINT('',(14.0708278403696,-1.99874546078998,-3.50000000000029));
#1046=CARTESIAN_POINT('Origin',(-4.42079110507524,3.21033650933843,-3.5));
#1047=CARTESIAN_POINT('',(-4.42079110507524,-3.21033650933729,-3.5));
#1048=CARTESIAN_POINT('',(-4.42079110507524,1.60516825466921,-3.5));
#1049=CARTESIAN_POINT('',(-4.42079110507524,-3.21033650933729,-4.5));
#1050=CARTESIAN_POINT('',(-4.42079110507524,-3.2103365093373,-4.75));
#1051=CARTESIAN_POINT('',(-4.42079110507524,3.21033650933843,-4.5));
#1052=CARTESIAN_POINT('Origin',(-4.42079110507524,3.21033650933843,-3.5));
#1053=CARTESIAN_POINT('',(-4.42079110507524,3.21033650933843,-4.5));
#1054=CARTESIAN_POINT('',(-4.42079110507524,3.21033650933843,-4.5));
#1055=CARTESIAN_POINT('',(-4.42079110507524,3.21033650933843,-3.5));
#1056=CARTESIAN_POINT('',(-4.42079110507524,3.21033650933842,-4.75));
#1057=CARTESIAN_POINT('',(-4.42079110507524,1.60516825466921,-3.5));
#1058=CARTESIAN_POINT('Origin',(2.77555756156289E-16,4.44089209850063E-15,
1.77635683940025E-14));
#1059=CARTESIAN_POINT('Origin',(2.77555756156289E-16,4.44089209850063E-15,
-4.49999999999998));
#1060=CARTESIAN_POINT('',(10.,3.21624529987802E-15,-3.5000000000002));
#1061=CARTESIAN_POINT('Origin',(2.77555756156289E-16,4.44089209850063E-15,
-3.49999999999999));
#1062=CARTESIAN_POINT('',(10.,3.21624529987802E-15,1.77635683940025E-14));
#1063=CARTESIAN_POINT('Origin',(2.77555756156289E-16,4.44089209850063E-15,
-3.49999999999999));
#1064=CARTESIAN_POINT('Origin',(2.77555756156289E-16,4.44089209850063E-15,
-4.49999999999998));
#1065=CARTESIAN_POINT('Origin',(2.77555756156289E-16,4.44089209850063E-15,
-3.49999999999999));
#1066=CARTESIAN_POINT('Origin',(4.27556164299109,-3.22701044342909,-3.5));
#1067=CARTESIAN_POINT('',(4.27556164299109,3.22701044338167,-3.5));
#1068=CARTESIAN_POINT('',(4.27556164299109,-1.61350522171455,-3.5));
#1069=CARTESIAN_POINT('',(4.27556164299109,3.22701044338167,-4.5));
#1070=CARTESIAN_POINT('',(4.27556164299109,3.22701044338167,-4.75));
#1071=CARTESIAN_POINT('',(4.27556164299109,-3.22701044342909,-4.5));
#1072=CARTESIAN_POINT('Origin',(-6.89898311114044,5.63160629241111E-13,
-4.5));
#1073=CARTESIAN_POINT('',(2.85691519529044,3.35567214828879,-4.5));
#1074=CARTESIAN_POINT('',(3.35386341440723,3.31060228241365,-4.5));
#1075=CARTESIAN_POINT('',(2.04973585037919,3.60847376929226,-4.5));
#1076=CARTESIAN_POINT('Origin',(3.03756035658602,5.34749727256564,-4.5));
#1077=CARTESIAN_POINT('',(-2.05535801420077,3.60527439086967,-4.5));
#1078=CARTESIAN_POINT('Origin',(0.,0.,-4.5));
#1079=CARTESIAN_POINT('',(-2.86586043663995,3.35087534654597,-4.5));
#1080=CARTESIAN_POINT('Origin',(-3.04589199694813,5.34275602502373,-4.5));
#1081=CARTESIAN_POINT('',(-0.793700858694253,3.53816273080345,-4.5));
#1082=CARTESIAN_POINT('Origin',(-6.89898311114044,5.63160629241111E-13,
-4.5));
#1083=CARTESIAN_POINT('',(-2.86586043663986,-3.35087534654558,-4.5));
#1084=CARTESIAN_POINT('',(-4.85728932783221,-3.17088461999263,-4.5));
#1085=CARTESIAN_POINT('',(-2.05535801420133,-3.60527439086935,-4.5));
#1086=CARTESIAN_POINT('Origin',(-3.04589199694896,-5.34275602502325,-4.5));
#1087=CARTESIAN_POINT('',(2.04973585029336,-3.60847376934101,-4.5));
#1088=CARTESIAN_POINT('Origin',(0.,0.,-4.5));
#1089=CARTESIAN_POINT('',(2.85691519514475,-3.35567214836272,-4.5));
#1090=CARTESIAN_POINT('Origin',(3.03756035645884,-5.34749727263789,-4.5));
#1091=CARTESIAN_POINT('',(4.27556164299109,-3.22701044342909,-4.5));
#1092=CARTESIAN_POINT('',(1.56789634660881,-3.47257750064128,-4.5));
#1093=CARTESIAN_POINT('',(4.27556164299109,-3.22701044342909,-4.5));
#1094=CARTESIAN_POINT('Origin',(-2.04010504048479,3.42550935148864,-6.));
#1095=CARTESIAN_POINT('',(-2.86586043663995,3.35087534654597,-3.5));
#1096=CARTESIAN_POINT('',(-2.86586043663995,3.35087534654597,-6.));
#1097=CARTESIAN_POINT('',(-8.61461783933919,2.83128711205791,-3.5));
#1098=CARTESIAN_POINT('Origin',(-3.04589199694813,5.34275602502373,-6.));
#1099=CARTESIAN_POINT('',(-2.05535801420077,3.60527439086967,-3.5));
#1100=CARTESIAN_POINT('',(-2.05535801420077,3.60527439086967,-6.));
#1101=CARTESIAN_POINT('Origin',(-3.04589199694813,5.34275602502373,-3.5));
#1102=CARTESIAN_POINT('Origin',(0.,0.,-6.));
#1103=CARTESIAN_POINT('',(2.04973585037919,3.60847376929226,-3.5));
#1104=CARTESIAN_POINT('',(2.04973585037919,3.60847376929226,-6.));
#1105=CARTESIAN_POINT('Origin',(0.,0.,-3.5));
#1106=CARTESIAN_POINT('Origin',(3.03756035658602,5.34749727256564,-6.));
#1107=CARTESIAN_POINT('',(2.85691519529044,3.35567214828879,-3.5));
#1108=CARTESIAN_POINT('',(2.85691519529044,3.35567214828879,-6.));
#1109=CARTESIAN_POINT('Origin',(3.03756035658602,5.34749727256564,-3.5));
#1110=CARTESIAN_POINT('Origin',(2.03167508869329,-3.4305158835561,-6.));
#1111=CARTESIAN_POINT('',(2.85691519514475,-3.35567214836272,-3.5));
#1112=CARTESIAN_POINT('',(2.85691519514475,-3.35567214836272,-6.));
#1113=CARTESIAN_POINT('',(4.27556164299109,-3.22701044342909,-3.5));
#1114=CARTESIAN_POINT('',(8.61387220400502,-2.83355481242324,-3.5));
#1115=CARTESIAN_POINT('',(4.27556164299109,-3.22701044342909,-4.75));
#1116=CARTESIAN_POINT('Origin',(3.03756035645884,-5.34749727263789,-6.));
#1117=CARTESIAN_POINT('',(2.04973585029336,-3.60847376934101,-3.5));
#1118=CARTESIAN_POINT('',(2.04973585029336,-3.60847376934101,-6.));
#1119=CARTESIAN_POINT('Origin',(3.03756035645884,-5.34749727263789,-3.5));
#1120=CARTESIAN_POINT('Origin',(7.16152185254928,2.96527323503235,-6.));
#1121=CARTESIAN_POINT('',(2.0090322581231,3.43256943614682,-3.5));
#1122=CARTESIAN_POINT('Origin',(0.,0.,-6.));
#1123=CARTESIAN_POINT('',(-2.05535801420133,-3.60527439086935,-3.5));
#1124=CARTESIAN_POINT('',(-2.05535801420133,-3.60527439086935,-6.));
#1125=CARTESIAN_POINT('Origin',(0.,0.,-3.5));
#1126=CARTESIAN_POINT('Origin',(-3.04589199694896,-5.34275602502325,-6.));
#1127=CARTESIAN_POINT('',(-2.86586043663986,-3.35087534654558,-3.5));
#1128=CARTESIAN_POINT('',(-2.86586043663986,-3.35087534654558,-6.));
#1129=CARTESIAN_POINT('Origin',(-3.04589199694896,-5.34275602502325,-3.5));
#1130=CARTESIAN_POINT('Origin',(-8.61461783890263,-2.83128711209429,-6.));
#1131=CARTESIAN_POINT('',(-2.00900157801552,-3.42832056650761,-3.5));
#1132=CARTESIAN_POINT('Origin',(4.27556164299109,-3.22701044342909,-3.5));
#1133=CARTESIAN_POINT('',(4.27556164299109,-1.61350522171455,-3.5));
#1134=CARTESIAN_POINT('Origin',(-5.60186622977152,2.77555756156289E-16,
-3.5));
#1135=CARTESIAN_POINT('',(-1.35,1.65327317884893E-16,-3.5));
#1136=CARTESIAN_POINT('Origin',(0.,0.,-3.5));
#1137=CARTESIAN_POINT('Origin',(0.,0.,-27.439713995935));
#1138=CARTESIAN_POINT('',(-1.35,-1.65327317884893E-16,-27.439713995935));
#1139=UNCERTAINTY_MEASURE_WITH_UNIT(LENGTH_MEASURE(0.01),#1143,
'DISTANCE_ACCURACY_VALUE',
'Maximum model space distance between geometric entities at asserted c
onnectivities');
#1140=UNCERTAINTY_MEASURE_WITH_UNIT(LENGTH_MEASURE(0.01),#1143,
'DISTANCE_ACCURACY_VALUE',
'Maximum model space distance between geometric entities at asserted c
onnectivities');
#1141=(
GEOMETRIC_REPRESENTATION_CONTEXT(3)
GLOBAL_UNCERTAINTY_ASSIGNED_CONTEXT((#1139))
GLOBAL_UNIT_ASSIGNED_CONTEXT((#1143,#1145,#1146))
REPRESENTATION_CONTEXT('','3D')
);
#1142=(
GEOMETRIC_REPRESENTATION_CONTEXT(3)
GLOBAL_UNCERTAINTY_ASSIGNED_CONTEXT((#1140))
GLOBAL_UNIT_ASSIGNED_CONTEXT((#1143,#1145,#1146))
REPRESENTATION_CONTEXT('','3D')
);
#1143=(
LENGTH_UNIT()
NAMED_UNIT(*)
SI_UNIT(.MILLI.,.METRE.)
);
#1144=(
LENGTH_UNIT()
NAMED_UNIT(*)
SI_UNIT($,.METRE.)
);
#1145=(
NAMED_UNIT(*)
PLANE_ANGLE_UNIT()
SI_UNIT($,.RADIAN.)
);
#1146=(
NAMED_UNIT(*)
SI_UNIT($,.STERADIAN.)
SOLID_ANGLE_UNIT()
);
#1147=SHAPE_DEFINITION_REPRESENTATION(#1148,#1149);
#1148=PRODUCT_DEFINITION_SHAPE('',$,#1151);
#1149=SHAPE_REPRESENTATION('',(#660),#1141);
#1150=PRODUCT_DEFINITION_CONTEXT('part definition',#1155,'design');
#1151=PRODUCT_DEFINITION('2026-06-20-16-25-06-565','pignone_17mm',#1152,
#1150);
#1152=PRODUCT_DEFINITION_FORMATION('',$,#1157);
#1153=PRODUCT_RELATED_PRODUCT_CATEGORY('pignone_17mm','pignone_17mm',(#1157));
#1154=APPLICATION_PROTOCOL_DEFINITION('international standard',
'automotive_design',2009,#1155);
#1155=APPLICATION_CONTEXT(
'Core Data for Automotive Mechanical Design Process');
#1156=PRODUCT_CONTEXT('part definition',#1155,'mechanical');
#1157=PRODUCT('2026-06-20-16-25-06-565','pignone_17mm',$,(#1156));
#1158=PRESENTATION_STYLE_ASSIGNMENT((#1160));
#1159=PRESENTATION_STYLE_ASSIGNMENT((#1161));
#1160=SURFACE_STYLE_USAGE(.BOTH.,#1162);
#1161=SURFACE_STYLE_USAGE(.BOTH.,#1163);
#1162=SURFACE_SIDE_STYLE('',(#1164));
#1163=SURFACE_SIDE_STYLE('',(#1165));
#1164=SURFACE_STYLE_FILL_AREA(#1166);
#1165=SURFACE_STYLE_FILL_AREA(#1167);
#1166=FILL_AREA_STYLE('Steel - Satin',(#1168));
#1167=FILL_AREA_STYLE('Opaque(178,0,0)',(#1169));
#1168=FILL_AREA_STYLE_COLOUR('Steel - Satin',#1170);
#1169=FILL_AREA_STYLE_COLOUR('Opaque(178,0,0)',#1171);
#1170=COLOUR_RGB('Steel - Satin',0.627450980392157,0.627450980392157,0.627450980392157);
#1171=COLOUR_RGB('Opaque(178,0,0)',0.698039215686274,0.,0.);
ENDSEC;
END-ISO-10303-21;
