ISO-10303-21;
HEADER;
/* Generated by software containing ST-Developer
 * from STEP Tools, Inc. (www.steptools.com) 
 */

FILE_DESCRIPTION(
/* description */ (''),
/* implementation_level */ '2;1');

FILE_NAME(
/* name */ 'Servo Side C x1.step',
/* time_stamp */ '2026-06-20T16:37:06-05:00',
/* author */ (''),
/* organization */ (''),
/* preprocessor_version */ 'ST-DEVELOPER v20.1',
/* originating_system */ 'Autodesk Translation Framework v15.8.0.0',
/* authorisation */ '');

FILE_SCHEMA (('AUTOMOTIVE_DESIGN { 1 0 10303 214 3 1 1 }'));
ENDSEC;

DATA;
#10=MECHANICAL_DESIGN_GEOMETRIC_PRESENTATION_REPRESENTATION('',(#13),#1807);
#11=SHAPE_REPRESENTATION_RELATIONSHIP('SRR','None',#1814,#12);
#12=ADVANCED_BREP_SHAPE_REPRESENTATION('',(#14),#1806);
#13=STYLED_ITEM('',(#1823),#14);
#14=MANIFOLD_SOLID_BREP('Body1',#1083);
#15=FACE_BOUND('',#115,.T.);
#16=FACE_BOUND('',#143,.T.);
#17=PLANE('',#1100);
#18=PLANE('',#1101);
#19=PLANE('',#1105);
#20=PLANE('',#1106);
#21=PLANE('',#1107);
#22=PLANE('',#1108);
#23=PLANE('',#1118);
#24=PLANE('',#1122);
#25=PLANE('',#1123);
#26=PLANE('',#1124);
#27=PLANE('',#1127);
#28=PLANE('',#1128);
#29=PLANE('',#1131);
#30=PLANE('',#1134);
#31=PLANE('',#1137);
#32=PLANE('',#1140);
#33=PLANE('',#1144);
#34=PLANE('',#1148);
#35=PLANE('',#1151);
#36=PLANE('',#1154);
#37=PLANE('',#1155);
#38=PLANE('',#1156);
#39=PLANE('',#1157);
#40=PLANE('',#1158);
#41=PLANE('',#1159);
#42=PLANE('',#1163);
#43=PLANE('',#1165);
#44=PLANE('',#1168);
#45=PLANE('',#1169);
#46=PLANE('',#1172);
#47=PLANE('',#1174);
#48=PLANE('',#1182);
#49=PLANE('',#1183);
#50=PLANE('',#1184);
#51=PLANE('',#1185);
#52=PLANE('',#1186);
#53=FACE_OUTER_BOUND('',#107,.T.);
#54=FACE_OUTER_BOUND('',#108,.T.);
#55=FACE_OUTER_BOUND('',#109,.T.);
#56=FACE_OUTER_BOUND('',#110,.T.);
#57=FACE_OUTER_BOUND('',#111,.T.);
#58=FACE_OUTER_BOUND('',#112,.T.);
#59=FACE_OUTER_BOUND('',#113,.T.);
#60=FACE_OUTER_BOUND('',#114,.T.);
#61=FACE_OUTER_BOUND('',#116,.T.);
#62=FACE_OUTER_BOUND('',#117,.T.);
#63=FACE_OUTER_BOUND('',#118,.T.);
#64=FACE_OUTER_BOUND('',#119,.T.);
#65=FACE_OUTER_BOUND('',#120,.T.);
#66=FACE_OUTER_BOUND('',#121,.T.);
#67=FACE_OUTER_BOUND('',#122,.T.);
#68=FACE_OUTER_BOUND('',#123,.T.);
#69=FACE_OUTER_BOUND('',#124,.T.);
#70=FACE_OUTER_BOUND('',#125,.T.);
#71=FACE_OUTER_BOUND('',#126,.T.);
#72=FACE_OUTER_BOUND('',#127,.T.);
#73=FACE_OUTER_BOUND('',#128,.T.);
#74=FACE_OUTER_BOUND('',#129,.T.);
#75=FACE_OUTER_BOUND('',#130,.T.);
#76=FACE_OUTER_BOUND('',#131,.T.);
#77=FACE_OUTER_BOUND('',#132,.T.);
#78=FACE_OUTER_BOUND('',#133,.T.);
#79=FACE_OUTER_BOUND('',#134,.T.);
#80=FACE_OUTER_BOUND('',#135,.T.);
#81=FACE_OUTER_BOUND('',#136,.T.);
#82=FACE_OUTER_BOUND('',#137,.T.);
#83=FACE_OUTER_BOUND('',#138,.T.);
#84=FACE_OUTER_BOUND('',#139,.T.);
#85=FACE_OUTER_BOUND('',#140,.T.);
#86=FACE_OUTER_BOUND('',#141,.T.);
#87=FACE_OUTER_BOUND('',#142,.T.);
#88=FACE_OUTER_BOUND('',#144,.T.);
#89=FACE_OUTER_BOUND('',#145,.T.);
#90=FACE_OUTER_BOUND('',#146,.T.);
#91=FACE_OUTER_BOUND('',#147,.T.);
#92=FACE_OUTER_BOUND('',#148,.T.);
#93=FACE_OUTER_BOUND('',#149,.T.);
#94=FACE_OUTER_BOUND('',#150,.T.);
#95=FACE_OUTER_BOUND('',#151,.T.);
#96=FACE_OUTER_BOUND('',#152,.T.);
#97=FACE_OUTER_BOUND('',#153,.T.);
#98=FACE_OUTER_BOUND('',#154,.T.);
#99=FACE_OUTER_BOUND('',#155,.T.);
#100=FACE_OUTER_BOUND('',#156,.T.);
#101=FACE_OUTER_BOUND('',#157,.T.);
#102=FACE_OUTER_BOUND('',#158,.T.);
#103=FACE_OUTER_BOUND('',#159,.T.);
#104=FACE_OUTER_BOUND('',#160,.T.);
#105=FACE_OUTER_BOUND('',#161,.T.);
#106=FACE_OUTER_BOUND('',#162,.T.);
#107=EDGE_LOOP('',(#699,#700,#701,#702));
#108=EDGE_LOOP('',(#703,#704,#705,#706));
#109=EDGE_LOOP('',(#707,#708,#709,#710));
#110=EDGE_LOOP('',(#711,#712,#713,#714));
#111=EDGE_LOOP('',(#715,#716,#717,#718));
#112=EDGE_LOOP('',(#719,#720,#721,#722));
#113=EDGE_LOOP('',(#723,#724,#725,#726,#727,#728,#729,#730,#731,#732,#733,
#734));
#114=EDGE_LOOP('',(#735,#736,#737,#738,#739,#740,#741,#742,#743,#744,#745,
#746,#747,#748,#749,#750));
#115=EDGE_LOOP('',(#751,#752,#753,#754,#755,#756,#757,#758));
#116=EDGE_LOOP('',(#759,#760,#761,#762));
#117=EDGE_LOOP('',(#763,#764,#765,#766));
#118=EDGE_LOOP('',(#767,#768,#769,#770));
#119=EDGE_LOOP('',(#771,#772,#773,#774));
#120=EDGE_LOOP('',(#775,#776,#777,#778));
#121=EDGE_LOOP('',(#779,#780,#781,#782,#783,#784,#785,#786,#787,#788,#789,
#790,#791,#792,#793,#794));
#122=EDGE_LOOP('',(#795,#796,#797,#798,#799,#800,#801,#802,#803,#804,#805,
#806));
#123=EDGE_LOOP('',(#807,#808,#809,#810));
#124=EDGE_LOOP('',(#811,#812,#813,#814));
#125=EDGE_LOOP('',(#815,#816,#817,#818));
#126=EDGE_LOOP('',(#819,#820,#821,#822));
#127=EDGE_LOOP('',(#823,#824,#825,#826));
#128=EDGE_LOOP('',(#827,#828,#829,#830));
#129=EDGE_LOOP('',(#831,#832,#833,#834));
#130=EDGE_LOOP('',(#835,#836,#837,#838));
#131=EDGE_LOOP('',(#839,#840,#841,#842));
#132=EDGE_LOOP('',(#843,#844,#845,#846));
#133=EDGE_LOOP('',(#847,#848,#849,#850));
#134=EDGE_LOOP('',(#851,#852,#853,#854));
#135=EDGE_LOOP('',(#855,#856,#857,#858));
#136=EDGE_LOOP('',(#859,#860,#861,#862));
#137=EDGE_LOOP('',(#863,#864,#865,#866));
#138=EDGE_LOOP('',(#867,#868,#869,#870));
#139=EDGE_LOOP('',(#871,#872,#873,#874));
#140=EDGE_LOOP('',(#875,#876,#877,#878));
#141=EDGE_LOOP('',(#879,#880,#881,#882,#883,#884));
#142=EDGE_LOOP('',(#885,#886,#887,#888,#889,#890,#891,#892,#893,#894,#895,
#896,#897,#898,#899,#900));
#143=EDGE_LOOP('',(#901,#902,#903,#904,#905,#906,#907,#908));
#144=EDGE_LOOP('',(#909,#910,#911,#912));
#145=EDGE_LOOP('',(#913,#914,#915,#916,#917,#918));
#146=EDGE_LOOP('',(#919,#920,#921,#922));
#147=EDGE_LOOP('',(#923,#924,#925,#926,#927,#928));
#148=EDGE_LOOP('',(#929,#930,#931,#932));
#149=EDGE_LOOP('',(#933,#934,#935,#936));
#150=EDGE_LOOP('',(#937,#938,#939,#940));
#151=EDGE_LOOP('',(#941,#942,#943,#944));
#152=EDGE_LOOP('',(#945,#946,#947,#948));
#153=EDGE_LOOP('',(#949,#950,#951,#952,#953,#954));
#154=EDGE_LOOP('',(#955,#956,#957,#958));
#155=EDGE_LOOP('',(#959,#960,#961,#962));
#156=EDGE_LOOP('',(#963,#964,#965,#966));
#157=EDGE_LOOP('',(#967,#968,#969,#970));
#158=EDGE_LOOP('',(#971,#972,#973,#974));
#159=EDGE_LOOP('',(#975,#976,#977,#978));
#160=EDGE_LOOP('',(#979,#980,#981,#982,#983,#984,#985,#986,#987,#988,#989,
#990,#991,#992,#993,#994));
#161=EDGE_LOOP('',(#995,#996,#997,#998,#999,#1000,#1001,#1002));
#162=EDGE_LOOP('',(#1003,#1004,#1005,#1006,#1007,#1008,#1009,#1010));
#163=LINE('',#1495,#283);
#164=LINE('',#1498,#284);
#165=LINE('',#1501,#285);
#166=LINE('',#1503,#286);
#167=LINE('',#1504,#287);
#168=LINE('',#1508,#288);
#169=LINE('',#1510,#289);
#170=LINE('',#1512,#290);
#171=LINE('',#1513,#291);
#172=LINE('',#1519,#292);
#173=LINE('',#1521,#293);
#174=LINE('',#1522,#294);
#175=LINE('',#1525,#295);
#176=LINE('',#1527,#296);
#177=LINE('',#1528,#297);
#178=LINE('',#1531,#298);
#179=LINE('',#1533,#299);
#180=LINE('',#1535,#300);
#181=LINE('',#1537,#301);
#182=LINE('',#1539,#302);
#183=LINE('',#1541,#303);
#184=LINE('',#1543,#304);
#185=LINE('',#1545,#305);
#186=LINE('',#1547,#306);
#187=LINE('',#1549,#307);
#188=LINE('',#1550,#308);
#189=LINE('',#1553,#309);
#190=LINE('',#1555,#310);
#191=LINE('',#1556,#311);
#192=LINE('',#1558,#312);
#193=LINE('',#1562,#313);
#194=LINE('',#1565,#314);
#195=LINE('',#1568,#315);
#196=LINE('',#1572,#316);
#197=LINE('',#1576,#317);
#198=LINE('',#1580,#318);
#199=LINE('',#1587,#319);
#200=LINE('',#1590,#320);
#201=LINE('',#1593,#321);
#202=LINE('',#1595,#322);
#203=LINE('',#1596,#323);
#204=LINE('',#1601,#324);
#205=LINE('',#1605,#325);
#206=LINE('',#1607,#326);
#207=LINE('',#1608,#327);
#208=LINE('',#1611,#328);
#209=LINE('',#1613,#329);
#210=LINE('',#1614,#330);
#211=LINE('',#1617,#331);
#212=LINE('',#1619,#332);
#213=LINE('',#1623,#333);
#214=LINE('',#1627,#334);
#215=LINE('',#1629,#335);
#216=LINE('',#1631,#336);
#217=LINE('',#1633,#337);
#218=LINE('',#1635,#338);
#219=LINE('',#1636,#339);
#220=LINE('',#1639,#340);
#221=LINE('',#1641,#341);
#222=LINE('',#1643,#342);
#223=LINE('',#1645,#343);
#224=LINE('',#1647,#344);
#225=LINE('',#1648,#345);
#226=LINE('',#1650,#346);
#227=LINE('',#1652,#347);
#228=LINE('',#1653,#348);
#229=LINE('',#1656,#349);
#230=LINE('',#1657,#350);
#231=LINE('',#1660,#351);
#232=LINE('',#1663,#352);
#233=LINE('',#1666,#353);
#234=LINE('',#1667,#354);
#235=LINE('',#1670,#355);
#236=LINE('',#1673,#356);
#237=LINE('',#1675,#357);
#238=LINE('',#1678,#358);
#239=LINE('',#1681,#359);
#240=LINE('',#1683,#360);
#241=LINE('',#1686,#361);
#242=LINE('',#1689,#362);
#243=LINE('',#1695,#363);
#244=LINE('',#1698,#364);
#245=LINE('',#1701,#365);
#246=LINE('',#1703,#366);
#247=LINE('',#1704,#367);
#248=LINE('',#1710,#368);
#249=LINE('',#1712,#369);
#250=LINE('',#1713,#370);
#251=LINE('',#1718,#371);
#252=LINE('',#1719,#372);
#253=LINE('',#1721,#373);
#254=LINE('',#1726,#374);
#255=LINE('',#1727,#375);
#256=LINE('',#1729,#376);
#257=LINE('',#1731,#377);
#258=LINE('',#1732,#378);
#259=LINE('',#1736,#379);
#260=LINE('',#1738,#380);
#261=LINE('',#1739,#381);
#262=LINE('',#1741,#382);
#263=LINE('',#1748,#383);
#264=LINE('',#1751,#384);
#265=LINE('',#1754,#385);
#266=LINE('',#1757,#386);
#267=LINE('',#1758,#387);
#268=LINE('',#1761,#388);
#269=LINE('',#1762,#389);
#270=LINE('',#1766,#390);
#271=LINE('',#1768,#391);
#272=LINE('',#1770,#392);
#273=LINE('',#1775,#393);
#274=LINE('',#1776,#394);
#275=LINE('',#1779,#395);
#276=LINE('',#1782,#396);
#277=LINE('',#1783,#397);
#278=LINE('',#1785,#398);
#279=LINE('',#1787,#399);
#280=LINE('',#1792,#400);
#281=LINE('',#1800,#401);
#282=LINE('',#1801,#402);
#283=VECTOR('',#1193,10.);
#284=VECTOR('',#1196,10.);
#285=VECTOR('',#1199,10.);
#286=VECTOR('',#1200,10.);
#287=VECTOR('',#1201,10.);
#288=VECTOR('',#1204,10.);
#289=VECTOR('',#1205,10.);
#290=VECTOR('',#1206,10.);
#291=VECTOR('',#1207,10.);
#292=VECTOR('',#1214,10.);
#293=VECTOR('',#1217,10.);
#294=VECTOR('',#1218,10.);
#295=VECTOR('',#1221,10.);
#296=VECTOR('',#1222,10.);
#297=VECTOR('',#1223,10.);
#298=VECTOR('',#1226,10.);
#299=VECTOR('',#1227,10.);
#300=VECTOR('',#1228,10.);
#301=VECTOR('',#1229,10.);
#302=VECTOR('',#1230,10.);
#303=VECTOR('',#1231,10.);
#304=VECTOR('',#1232,10.);
#305=VECTOR('',#1233,10.);
#306=VECTOR('',#1234,10.);
#307=VECTOR('',#1235,10.);
#308=VECTOR('',#1236,10.);
#309=VECTOR('',#1239,10.);
#310=VECTOR('',#1240,10.);
#311=VECTOR('',#1241,10.);
#312=VECTOR('',#1242,10.);
#313=VECTOR('',#1245,10.);
#314=VECTOR('',#1248,10.);
#315=VECTOR('',#1249,10.);
#316=VECTOR('',#1252,10.);
#317=VECTOR('',#1255,10.);
#318=VECTOR('',#1258,10.);
#319=VECTOR('',#1265,10.);
#320=VECTOR('',#1268,10.);
#321=VECTOR('',#1271,10.);
#322=VECTOR('',#1272,10.);
#323=VECTOR('',#1273,10.);
#324=VECTOR('',#1278,10.);
#325=VECTOR('',#1283,10.);
#326=VECTOR('',#1284,10.);
#327=VECTOR('',#1285,10.);
#328=VECTOR('',#1288,10.);
#329=VECTOR('',#1289,10.);
#330=VECTOR('',#1290,10.);
#331=VECTOR('',#1293,10.);
#332=VECTOR('',#1294,10.);
#333=VECTOR('',#1297,10.);
#334=VECTOR('',#1300,10.);
#335=VECTOR('',#1301,10.);
#336=VECTOR('',#1302,10.);
#337=VECTOR('',#1303,10.);
#338=VECTOR('',#1304,10.);
#339=VECTOR('',#1305,10.);
#340=VECTOR('',#1308,10.);
#341=VECTOR('',#1309,10.);
#342=VECTOR('',#1310,10.);
#343=VECTOR('',#1311,10.);
#344=VECTOR('',#1312,10.);
#345=VECTOR('',#1313,10.);
#346=VECTOR('',#1314,10.);
#347=VECTOR('',#1315,10.);
#348=VECTOR('',#1316,10.);
#349=VECTOR('',#1319,10.);
#350=VECTOR('',#1320,10.);
#351=VECTOR('',#1323,10.);
#352=VECTOR('',#1326,10.);
#353=VECTOR('',#1329,10.);
#354=VECTOR('',#1330,10.);
#355=VECTOR('',#1333,10.);
#356=VECTOR('',#1336,10.);
#357=VECTOR('',#1339,10.);
#358=VECTOR('',#1342,10.);
#359=VECTOR('',#1345,10.);
#360=VECTOR('',#1348,10.);
#361=VECTOR('',#1351,10.);
#362=VECTOR('',#1356,10.);
#363=VECTOR('',#1361,10.);
#364=VECTOR('',#1364,10.);
#365=VECTOR('',#1367,10.);
#366=VECTOR('',#1368,10.);
#367=VECTOR('',#1369,10.);
#368=VECTOR('',#1376,10.);
#369=VECTOR('',#1379,10.);
#370=VECTOR('',#1380,10.);
#371=VECTOR('',#1385,10.);
#372=VECTOR('',#1386,10.);
#373=VECTOR('',#1389,10.);
#374=VECTOR('',#1394,10.);
#375=VECTOR('',#1395,10.);
#376=VECTOR('',#1398,10.);
#377=VECTOR('',#1401,10.);
#378=VECTOR('',#1402,10.);
#379=VECTOR('',#1407,10.);
#380=VECTOR('',#1408,10.);
#381=VECTOR('',#1409,10.);
#382=VECTOR('',#1412,10.);
#383=VECTOR('',#1419,10.);
#384=VECTOR('',#1422,10.);
#385=VECTOR('',#1425,10.);
#386=VECTOR('',#1428,10.);
#387=VECTOR('',#1429,10.);
#388=VECTOR('',#1432,10.);
#389=VECTOR('',#1433,10.);
#390=VECTOR('',#1438,10.);
#391=VECTOR('',#1441,10.);
#392=VECTOR('',#1444,10.);
#393=VECTOR('',#1449,10.);
#394=VECTOR('',#1450,10.);
#395=VECTOR('',#1453,10.);
#396=VECTOR('',#1456,10.);
#397=VECTOR('',#1457,10.);
#398=VECTOR('',#1460,10.);
#399=VECTOR('',#1463,10.);
#400=VECTOR('',#1468,10.);
#401=VECTOR('',#1483,10.);
#402=VECTOR('',#1484,10.);
#403=CIRCLE('',#1098,0.999999999999988);
#404=CIRCLE('',#1099,0.999999999999988);
#405=CIRCLE('',#1103,0.999999999999996);
#406=CIRCLE('',#1104,0.999999999999996);
#407=CIRCLE('',#1109,1.);
#408=CIRCLE('',#1110,1.);
#409=CIRCLE('',#1111,1.);
#410=CIRCLE('',#1112,1.);
#411=CIRCLE('',#1113,1.);
#412=CIRCLE('',#1114,1.);
#413=CIRCLE('',#1116,1.);
#414=CIRCLE('',#1117,1.);
#415=CIRCLE('',#1120,1.);
#416=CIRCLE('',#1121,1.);
#417=CIRCLE('',#1125,1.);
#418=CIRCLE('',#1126,1.);
#419=CIRCLE('',#1130,1.);
#420=CIRCLE('',#1133,1.);
#421=CIRCLE('',#1136,1.);
#422=CIRCLE('',#1139,1.);
#423=CIRCLE('',#1142,1.);
#424=CIRCLE('',#1143,1.);
#425=CIRCLE('',#1146,1.);
#426=CIRCLE('',#1147,1.);
#427=CIRCLE('',#1150,1.);
#428=CIRCLE('',#1153,1.);
#429=CIRCLE('',#1161,1.);
#430=CIRCLE('',#1162,1.);
#431=CIRCLE('',#1164,1.);
#432=CIRCLE('',#1167,1.);
#433=CIRCLE('',#1171,1.);
#434=CIRCLE('',#1173,1.);
#435=CIRCLE('',#1177,15.);
#436=CIRCLE('',#1178,15.);
#437=CIRCLE('',#1180,15.);
#438=CIRCLE('',#1181,15.);
#439=VERTEX_POINT('',#1491);
#440=VERTEX_POINT('',#1492);
#441=VERTEX_POINT('',#1494);
#442=VERTEX_POINT('',#1496);
#443=VERTEX_POINT('',#1500);
#444=VERTEX_POINT('',#1502);
#445=VERTEX_POINT('',#1506);
#446=VERTEX_POINT('',#1507);
#447=VERTEX_POINT('',#1509);
#448=VERTEX_POINT('',#1511);
#449=VERTEX_POINT('',#1515);
#450=VERTEX_POINT('',#1517);
#451=VERTEX_POINT('',#1524);
#452=VERTEX_POINT('',#1526);
#453=VERTEX_POINT('',#1530);
#454=VERTEX_POINT('',#1532);
#455=VERTEX_POINT('',#1534);
#456=VERTEX_POINT('',#1536);
#457=VERTEX_POINT('',#1538);
#458=VERTEX_POINT('',#1540);
#459=VERTEX_POINT('',#1542);
#460=VERTEX_POINT('',#1544);
#461=VERTEX_POINT('',#1546);
#462=VERTEX_POINT('',#1548);
#463=VERTEX_POINT('',#1552);
#464=VERTEX_POINT('',#1554);
#465=VERTEX_POINT('',#1557);
#466=VERTEX_POINT('',#1559);
#467=VERTEX_POINT('',#1561);
#468=VERTEX_POINT('',#1563);
#469=VERTEX_POINT('',#1566);
#470=VERTEX_POINT('',#1567);
#471=VERTEX_POINT('',#1569);
#472=VERTEX_POINT('',#1571);
#473=VERTEX_POINT('',#1573);
#474=VERTEX_POINT('',#1575);
#475=VERTEX_POINT('',#1577);
#476=VERTEX_POINT('',#1579);
#477=VERTEX_POINT('',#1583);
#478=VERTEX_POINT('',#1584);
#479=VERTEX_POINT('',#1586);
#480=VERTEX_POINT('',#1588);
#481=VERTEX_POINT('',#1592);
#482=VERTEX_POINT('',#1594);
#483=VERTEX_POINT('',#1598);
#484=VERTEX_POINT('',#1600);
#485=VERTEX_POINT('',#1604);
#486=VERTEX_POINT('',#1606);
#487=VERTEX_POINT('',#1610);
#488=VERTEX_POINT('',#1612);
#489=VERTEX_POINT('',#1616);
#490=VERTEX_POINT('',#1618);
#491=VERTEX_POINT('',#1620);
#492=VERTEX_POINT('',#1622);
#493=VERTEX_POINT('',#1624);
#494=VERTEX_POINT('',#1626);
#495=VERTEX_POINT('',#1628);
#496=VERTEX_POINT('',#1630);
#497=VERTEX_POINT('',#1632);
#498=VERTEX_POINT('',#1634);
#499=VERTEX_POINT('',#1638);
#500=VERTEX_POINT('',#1640);
#501=VERTEX_POINT('',#1642);
#502=VERTEX_POINT('',#1644);
#503=VERTEX_POINT('',#1646);
#504=VERTEX_POINT('',#1649);
#505=VERTEX_POINT('',#1651);
#506=VERTEX_POINT('',#1655);
#507=VERTEX_POINT('',#1659);
#508=VERTEX_POINT('',#1661);
#509=VERTEX_POINT('',#1665);
#510=VERTEX_POINT('',#1669);
#511=VERTEX_POINT('',#1671);
#512=VERTEX_POINT('',#1677);
#513=VERTEX_POINT('',#1679);
#514=VERTEX_POINT('',#1685);
#515=VERTEX_POINT('',#1691);
#516=VERTEX_POINT('',#1692);
#517=VERTEX_POINT('',#1694);
#518=VERTEX_POINT('',#1696);
#519=VERTEX_POINT('',#1700);
#520=VERTEX_POINT('',#1702);
#521=VERTEX_POINT('',#1706);
#522=VERTEX_POINT('',#1708);
#523=VERTEX_POINT('',#1715);
#524=VERTEX_POINT('',#1716);
#525=VERTEX_POINT('',#1723);
#526=VERTEX_POINT('',#1724);
#527=VERTEX_POINT('',#1735);
#528=VERTEX_POINT('',#1737);
#529=VERTEX_POINT('',#1744);
#530=VERTEX_POINT('',#1745);
#531=VERTEX_POINT('',#1747);
#532=VERTEX_POINT('',#1749);
#533=VERTEX_POINT('',#1753);
#534=VERTEX_POINT('',#1755);
#535=VERTEX_POINT('',#1760);
#536=VERTEX_POINT('',#1764);
#537=VERTEX_POINT('',#1772);
#538=VERTEX_POINT('',#1773);
#539=VERTEX_POINT('',#1778);
#540=VERTEX_POINT('',#1780);
#541=VERTEX_POINT('',#1789);
#542=VERTEX_POINT('',#1791);
#543=EDGE_CURVE('',#439,#440,#403,.T.);
#544=EDGE_CURVE('',#441,#439,#163,.T.);
#545=EDGE_CURVE('',#442,#441,#404,.T.);
#546=EDGE_CURVE('',#442,#440,#164,.T.);
#547=EDGE_CURVE('',#440,#443,#165,.T.);
#548=EDGE_CURVE('',#444,#442,#166,.T.);
#549=EDGE_CURVE('',#443,#444,#167,.T.);
#550=EDGE_CURVE('',#445,#446,#168,.T.);
#551=EDGE_CURVE('',#447,#445,#169,.T.);
#552=EDGE_CURVE('',#448,#447,#170,.T.);
#553=EDGE_CURVE('',#448,#446,#171,.T.);
#554=EDGE_CURVE('',#446,#449,#405,.T.);
#555=EDGE_CURVE('',#450,#448,#406,.T.);
#556=EDGE_CURVE('',#450,#449,#172,.T.);
#557=EDGE_CURVE('',#449,#439,#173,.T.);
#558=EDGE_CURVE('',#441,#450,#174,.T.);
#559=EDGE_CURVE('',#445,#451,#175,.T.);
#560=EDGE_CURVE('',#451,#452,#176,.T.);
#561=EDGE_CURVE('',#452,#447,#177,.T.);
#562=EDGE_CURVE('',#444,#453,#178,.T.);
#563=EDGE_CURVE('',#453,#454,#179,.T.);
#564=EDGE_CURVE('',#454,#455,#180,.T.);
#565=EDGE_CURVE('',#455,#456,#181,.T.);
#566=EDGE_CURVE('',#456,#457,#182,.T.);
#567=EDGE_CURVE('',#457,#458,#183,.T.);
#568=EDGE_CURVE('',#458,#459,#184,.T.);
#569=EDGE_CURVE('',#459,#460,#185,.T.);
#570=EDGE_CURVE('',#460,#461,#186,.T.);
#571=EDGE_CURVE('',#461,#462,#187,.T.);
#572=EDGE_CURVE('',#462,#443,#188,.T.);
#573=EDGE_CURVE('',#463,#452,#189,.T.);
#574=EDGE_CURVE('',#463,#464,#190,.T.);
#575=EDGE_CURVE('',#457,#464,#191,.T.);
#576=EDGE_CURVE('',#456,#465,#192,.T.);
#577=EDGE_CURVE('',#466,#465,#407,.T.);
#578=EDGE_CURVE('',#466,#467,#193,.T.);
#579=EDGE_CURVE('',#468,#467,#408,.T.);
#580=EDGE_CURVE('',#468,#453,#194,.T.);
#581=EDGE_CURVE('',#469,#470,#195,.T.);
#582=EDGE_CURVE('',#471,#470,#409,.T.);
#583=EDGE_CURVE('',#471,#472,#196,.T.);
#584=EDGE_CURVE('',#473,#472,#410,.T.);
#585=EDGE_CURVE('',#473,#474,#197,.T.);
#586=EDGE_CURVE('',#475,#474,#411,.T.);
#587=EDGE_CURVE('',#475,#476,#198,.T.);
#588=EDGE_CURVE('',#469,#476,#412,.T.);
#589=EDGE_CURVE('',#477,#478,#413,.T.);
#590=EDGE_CURVE('',#478,#479,#199,.T.);
#591=EDGE_CURVE('',#479,#480,#414,.T.);
#592=EDGE_CURVE('',#480,#477,#200,.T.);
#593=EDGE_CURVE('',#481,#478,#201,.T.);
#594=EDGE_CURVE('',#482,#481,#202,.T.);
#595=EDGE_CURVE('',#479,#482,#203,.T.);
#596=EDGE_CURVE('',#481,#483,#415,.T.);
#597=EDGE_CURVE('',#483,#484,#204,.T.);
#598=EDGE_CURVE('',#484,#482,#416,.T.);
#599=EDGE_CURVE('',#485,#483,#205,.T.);
#600=EDGE_CURVE('',#486,#485,#206,.T.);
#601=EDGE_CURVE('',#484,#486,#207,.T.);
#602=EDGE_CURVE('',#487,#480,#208,.T.);
#603=EDGE_CURVE('',#488,#487,#209,.T.);
#604=EDGE_CURVE('',#477,#488,#210,.T.);
#605=EDGE_CURVE('',#489,#488,#211,.T.);
#606=EDGE_CURVE('',#489,#490,#212,.T.);
#607=EDGE_CURVE('',#491,#490,#417,.T.);
#608=EDGE_CURVE('',#491,#492,#213,.T.);
#609=EDGE_CURVE('',#493,#492,#418,.T.);
#610=EDGE_CURVE('',#493,#494,#214,.T.);
#611=EDGE_CURVE('',#495,#494,#215,.T.);
#612=EDGE_CURVE('',#496,#495,#216,.T.);
#613=EDGE_CURVE('',#497,#496,#217,.T.);
#614=EDGE_CURVE('',#498,#497,#218,.T.);
#615=EDGE_CURVE('',#485,#498,#219,.T.);
#616=EDGE_CURVE('',#487,#499,#220,.T.);
#617=EDGE_CURVE('',#499,#500,#221,.T.);
#618=EDGE_CURVE('',#500,#501,#222,.T.);
#619=EDGE_CURVE('',#501,#502,#223,.T.);
#620=EDGE_CURVE('',#502,#503,#224,.T.);
#621=EDGE_CURVE('',#503,#495,#225,.T.);
#622=EDGE_CURVE('',#494,#504,#226,.T.);
#623=EDGE_CURVE('',#504,#505,#227,.T.);
#624=EDGE_CURVE('',#505,#489,#228,.T.);
#625=EDGE_CURVE('',#498,#506,#229,.T.);
#626=EDGE_CURVE('',#506,#486,#230,.T.);
#627=EDGE_CURVE('',#474,#507,#231,.T.);
#628=EDGE_CURVE('',#507,#508,#419,.T.);
#629=EDGE_CURVE('',#508,#475,#232,.T.);
#630=EDGE_CURVE('',#509,#473,#233,.T.);
#631=EDGE_CURVE('',#507,#509,#234,.T.);
#632=EDGE_CURVE('',#476,#510,#235,.T.);
#633=EDGE_CURVE('',#510,#511,#420,.T.);
#634=EDGE_CURVE('',#511,#469,#236,.T.);
#635=EDGE_CURVE('',#510,#508,#237,.T.);
#636=EDGE_CURVE('',#470,#512,#238,.T.);
#637=EDGE_CURVE('',#512,#513,#421,.T.);
#638=EDGE_CURVE('',#513,#471,#239,.T.);
#639=EDGE_CURVE('',#512,#511,#240,.T.);
#640=EDGE_CURVE('',#472,#514,#241,.T.);
#641=EDGE_CURVE('',#514,#509,#422,.T.);
#642=EDGE_CURVE('',#514,#513,#242,.T.);
#643=EDGE_CURVE('',#515,#516,#423,.T.);
#644=EDGE_CURVE('',#515,#517,#243,.T.);
#645=EDGE_CURVE('',#517,#518,#424,.T.);
#646=EDGE_CURVE('',#518,#516,#244,.T.);
#647=EDGE_CURVE('',#519,#518,#245,.T.);
#648=EDGE_CURVE('',#520,#519,#246,.T.);
#649=EDGE_CURVE('',#516,#520,#247,.T.);
#650=EDGE_CURVE('',#520,#521,#425,.T.);
#651=EDGE_CURVE('',#519,#522,#426,.T.);
#652=EDGE_CURVE('',#522,#521,#248,.T.);
#653=EDGE_CURVE('',#462,#522,#249,.T.);
#654=EDGE_CURVE('',#521,#461,#250,.T.);
#655=EDGE_CURVE('',#523,#524,#427,.T.);
#656=EDGE_CURVE('',#523,#466,#251,.T.);
#657=EDGE_CURVE('',#465,#524,#252,.T.);
#658=EDGE_CURVE('',#455,#524,#253,.T.);
#659=EDGE_CURVE('',#525,#526,#428,.T.);
#660=EDGE_CURVE('',#525,#468,#254,.T.);
#661=EDGE_CURVE('',#467,#526,#255,.T.);
#662=EDGE_CURVE('',#523,#526,#256,.T.);
#663=EDGE_CURVE('',#460,#515,#257,.T.);
#664=EDGE_CURVE('',#517,#459,#258,.T.);
#665=EDGE_CURVE('',#527,#458,#259,.T.);
#666=EDGE_CURVE('',#528,#527,#260,.T.);
#667=EDGE_CURVE('',#451,#528,#261,.T.);
#668=EDGE_CURVE('',#525,#454,#262,.T.);
#669=EDGE_CURVE('',#529,#530,#429,.T.);
#670=EDGE_CURVE('',#529,#531,#263,.T.);
#671=EDGE_CURVE('',#531,#532,#430,.T.);
#672=EDGE_CURVE('',#532,#530,#264,.T.);
#673=EDGE_CURVE('',#530,#533,#265,.T.);
#674=EDGE_CURVE('',#533,#534,#431,.T.);
#675=EDGE_CURVE('',#534,#501,#266,.T.);
#676=EDGE_CURVE('',#500,#529,#267,.T.);
#677=EDGE_CURVE('',#535,#532,#268,.T.);
#678=EDGE_CURVE('',#533,#535,#269,.T.);
#679=EDGE_CURVE('',#535,#536,#432,.T.);
#680=EDGE_CURVE('',#536,#534,#270,.T.);
#681=EDGE_CURVE('',#502,#536,#271,.T.);
#682=EDGE_CURVE('',#531,#499,#272,.T.);
#683=EDGE_CURVE('',#537,#538,#433,.T.);
#684=EDGE_CURVE('',#537,#493,#273,.T.);
#685=EDGE_CURVE('',#492,#538,#274,.T.);
#686=EDGE_CURVE('',#539,#538,#275,.T.);
#687=EDGE_CURVE('',#539,#540,#434,.T.);
#688=EDGE_CURVE('',#505,#540,#276,.T.);
#689=EDGE_CURVE('',#537,#504,#277,.T.);
#690=EDGE_CURVE('',#539,#491,#278,.T.);
#691=EDGE_CURVE('',#490,#540,#279,.T.);
#692=EDGE_CURVE('',#541,#527,#435,.T.);
#693=EDGE_CURVE('',#542,#541,#280,.T.);
#694=EDGE_CURVE('',#528,#542,#436,.T.);
#695=EDGE_CURVE('',#464,#496,#437,.T.);
#696=EDGE_CURVE('',#497,#463,#438,.T.);
#697=EDGE_CURVE('',#542,#506,#281,.T.);
#698=EDGE_CURVE('',#503,#541,#282,.T.);
#699=ORIENTED_EDGE('',*,*,#543,.F.);
#700=ORIENTED_EDGE('',*,*,#544,.F.);
#701=ORIENTED_EDGE('',*,*,#545,.F.);
#702=ORIENTED_EDGE('',*,*,#546,.T.);
#703=ORIENTED_EDGE('',*,*,#547,.F.);
#704=ORIENTED_EDGE('',*,*,#546,.F.);
#705=ORIENTED_EDGE('',*,*,#548,.F.);
#706=ORIENTED_EDGE('',*,*,#549,.F.);
#707=ORIENTED_EDGE('',*,*,#550,.F.);
#708=ORIENTED_EDGE('',*,*,#551,.F.);
#709=ORIENTED_EDGE('',*,*,#552,.F.);
#710=ORIENTED_EDGE('',*,*,#553,.T.);
#711=ORIENTED_EDGE('',*,*,#554,.F.);
#712=ORIENTED_EDGE('',*,*,#553,.F.);
#713=ORIENTED_EDGE('',*,*,#555,.F.);
#714=ORIENTED_EDGE('',*,*,#556,.T.);
#715=ORIENTED_EDGE('',*,*,#557,.F.);
#716=ORIENTED_EDGE('',*,*,#556,.F.);
#717=ORIENTED_EDGE('',*,*,#558,.F.);
#718=ORIENTED_EDGE('',*,*,#544,.T.);
#719=ORIENTED_EDGE('',*,*,#551,.T.);
#720=ORIENTED_EDGE('',*,*,#559,.T.);
#721=ORIENTED_EDGE('',*,*,#560,.T.);
#722=ORIENTED_EDGE('',*,*,#561,.T.);
#723=ORIENTED_EDGE('',*,*,#549,.T.);
#724=ORIENTED_EDGE('',*,*,#562,.T.);
#725=ORIENTED_EDGE('',*,*,#563,.T.);
#726=ORIENTED_EDGE('',*,*,#564,.T.);
#727=ORIENTED_EDGE('',*,*,#565,.T.);
#728=ORIENTED_EDGE('',*,*,#566,.T.);
#729=ORIENTED_EDGE('',*,*,#567,.T.);
#730=ORIENTED_EDGE('',*,*,#568,.T.);
#731=ORIENTED_EDGE('',*,*,#569,.T.);
#732=ORIENTED_EDGE('',*,*,#570,.T.);
#733=ORIENTED_EDGE('',*,*,#571,.T.);
#734=ORIENTED_EDGE('',*,*,#572,.T.);
#735=ORIENTED_EDGE('',*,*,#548,.T.);
#736=ORIENTED_EDGE('',*,*,#545,.T.);
#737=ORIENTED_EDGE('',*,*,#558,.T.);
#738=ORIENTED_EDGE('',*,*,#555,.T.);
#739=ORIENTED_EDGE('',*,*,#552,.T.);
#740=ORIENTED_EDGE('',*,*,#561,.F.);
#741=ORIENTED_EDGE('',*,*,#573,.F.);
#742=ORIENTED_EDGE('',*,*,#574,.T.);
#743=ORIENTED_EDGE('',*,*,#575,.F.);
#744=ORIENTED_EDGE('',*,*,#566,.F.);
#745=ORIENTED_EDGE('',*,*,#576,.T.);
#746=ORIENTED_EDGE('',*,*,#577,.F.);
#747=ORIENTED_EDGE('',*,*,#578,.T.);
#748=ORIENTED_EDGE('',*,*,#579,.F.);
#749=ORIENTED_EDGE('',*,*,#580,.T.);
#750=ORIENTED_EDGE('',*,*,#562,.F.);
#751=ORIENTED_EDGE('',*,*,#581,.T.);
#752=ORIENTED_EDGE('',*,*,#582,.F.);
#753=ORIENTED_EDGE('',*,*,#583,.T.);
#754=ORIENTED_EDGE('',*,*,#584,.F.);
#755=ORIENTED_EDGE('',*,*,#585,.T.);
#756=ORIENTED_EDGE('',*,*,#586,.F.);
#757=ORIENTED_EDGE('',*,*,#587,.T.);
#758=ORIENTED_EDGE('',*,*,#588,.F.);
#759=ORIENTED_EDGE('',*,*,#589,.T.);
#760=ORIENTED_EDGE('',*,*,#590,.T.);
#761=ORIENTED_EDGE('',*,*,#591,.T.);
#762=ORIENTED_EDGE('',*,*,#592,.T.);
#763=ORIENTED_EDGE('',*,*,#590,.F.);
#764=ORIENTED_EDGE('',*,*,#593,.F.);
#765=ORIENTED_EDGE('',*,*,#594,.F.);
#766=ORIENTED_EDGE('',*,*,#595,.F.);
#767=ORIENTED_EDGE('',*,*,#596,.T.);
#768=ORIENTED_EDGE('',*,*,#597,.T.);
#769=ORIENTED_EDGE('',*,*,#598,.T.);
#770=ORIENTED_EDGE('',*,*,#594,.T.);
#771=ORIENTED_EDGE('',*,*,#597,.F.);
#772=ORIENTED_EDGE('',*,*,#599,.F.);
#773=ORIENTED_EDGE('',*,*,#600,.F.);
#774=ORIENTED_EDGE('',*,*,#601,.F.);
#775=ORIENTED_EDGE('',*,*,#592,.F.);
#776=ORIENTED_EDGE('',*,*,#602,.F.);
#777=ORIENTED_EDGE('',*,*,#603,.F.);
#778=ORIENTED_EDGE('',*,*,#604,.F.);
#779=ORIENTED_EDGE('',*,*,#599,.T.);
#780=ORIENTED_EDGE('',*,*,#596,.F.);
#781=ORIENTED_EDGE('',*,*,#593,.T.);
#782=ORIENTED_EDGE('',*,*,#589,.F.);
#783=ORIENTED_EDGE('',*,*,#604,.T.);
#784=ORIENTED_EDGE('',*,*,#605,.F.);
#785=ORIENTED_EDGE('',*,*,#606,.T.);
#786=ORIENTED_EDGE('',*,*,#607,.F.);
#787=ORIENTED_EDGE('',*,*,#608,.T.);
#788=ORIENTED_EDGE('',*,*,#609,.F.);
#789=ORIENTED_EDGE('',*,*,#610,.T.);
#790=ORIENTED_EDGE('',*,*,#611,.F.);
#791=ORIENTED_EDGE('',*,*,#612,.F.);
#792=ORIENTED_EDGE('',*,*,#613,.F.);
#793=ORIENTED_EDGE('',*,*,#614,.F.);
#794=ORIENTED_EDGE('',*,*,#615,.F.);
#795=ORIENTED_EDGE('',*,*,#603,.T.);
#796=ORIENTED_EDGE('',*,*,#616,.T.);
#797=ORIENTED_EDGE('',*,*,#617,.T.);
#798=ORIENTED_EDGE('',*,*,#618,.T.);
#799=ORIENTED_EDGE('',*,*,#619,.T.);
#800=ORIENTED_EDGE('',*,*,#620,.T.);
#801=ORIENTED_EDGE('',*,*,#621,.T.);
#802=ORIENTED_EDGE('',*,*,#611,.T.);
#803=ORIENTED_EDGE('',*,*,#622,.T.);
#804=ORIENTED_EDGE('',*,*,#623,.T.);
#805=ORIENTED_EDGE('',*,*,#624,.T.);
#806=ORIENTED_EDGE('',*,*,#605,.T.);
#807=ORIENTED_EDGE('',*,*,#600,.T.);
#808=ORIENTED_EDGE('',*,*,#615,.T.);
#809=ORIENTED_EDGE('',*,*,#625,.T.);
#810=ORIENTED_EDGE('',*,*,#626,.T.);
#811=ORIENTED_EDGE('',*,*,#586,.T.);
#812=ORIENTED_EDGE('',*,*,#627,.T.);
#813=ORIENTED_EDGE('',*,*,#628,.T.);
#814=ORIENTED_EDGE('',*,*,#629,.T.);
#815=ORIENTED_EDGE('',*,*,#627,.F.);
#816=ORIENTED_EDGE('',*,*,#585,.F.);
#817=ORIENTED_EDGE('',*,*,#630,.F.);
#818=ORIENTED_EDGE('',*,*,#631,.F.);
#819=ORIENTED_EDGE('',*,*,#588,.T.);
#820=ORIENTED_EDGE('',*,*,#632,.T.);
#821=ORIENTED_EDGE('',*,*,#633,.T.);
#822=ORIENTED_EDGE('',*,*,#634,.T.);
#823=ORIENTED_EDGE('',*,*,#629,.F.);
#824=ORIENTED_EDGE('',*,*,#635,.F.);
#825=ORIENTED_EDGE('',*,*,#632,.F.);
#826=ORIENTED_EDGE('',*,*,#587,.F.);
#827=ORIENTED_EDGE('',*,*,#582,.T.);
#828=ORIENTED_EDGE('',*,*,#636,.T.);
#829=ORIENTED_EDGE('',*,*,#637,.T.);
#830=ORIENTED_EDGE('',*,*,#638,.T.);
#831=ORIENTED_EDGE('',*,*,#634,.F.);
#832=ORIENTED_EDGE('',*,*,#639,.F.);
#833=ORIENTED_EDGE('',*,*,#636,.F.);
#834=ORIENTED_EDGE('',*,*,#581,.F.);
#835=ORIENTED_EDGE('',*,*,#584,.T.);
#836=ORIENTED_EDGE('',*,*,#640,.T.);
#837=ORIENTED_EDGE('',*,*,#641,.T.);
#838=ORIENTED_EDGE('',*,*,#630,.T.);
#839=ORIENTED_EDGE('',*,*,#638,.F.);
#840=ORIENTED_EDGE('',*,*,#642,.F.);
#841=ORIENTED_EDGE('',*,*,#640,.F.);
#842=ORIENTED_EDGE('',*,*,#583,.F.);
#843=ORIENTED_EDGE('',*,*,#643,.F.);
#844=ORIENTED_EDGE('',*,*,#644,.T.);
#845=ORIENTED_EDGE('',*,*,#645,.T.);
#846=ORIENTED_EDGE('',*,*,#646,.T.);
#847=ORIENTED_EDGE('',*,*,#646,.F.);
#848=ORIENTED_EDGE('',*,*,#647,.F.);
#849=ORIENTED_EDGE('',*,*,#648,.F.);
#850=ORIENTED_EDGE('',*,*,#649,.F.);
#851=ORIENTED_EDGE('',*,*,#650,.F.);
#852=ORIENTED_EDGE('',*,*,#648,.T.);
#853=ORIENTED_EDGE('',*,*,#651,.T.);
#854=ORIENTED_EDGE('',*,*,#652,.T.);
#855=ORIENTED_EDGE('',*,*,#652,.F.);
#856=ORIENTED_EDGE('',*,*,#653,.F.);
#857=ORIENTED_EDGE('',*,*,#571,.F.);
#858=ORIENTED_EDGE('',*,*,#654,.F.);
#859=ORIENTED_EDGE('',*,*,#655,.F.);
#860=ORIENTED_EDGE('',*,*,#656,.T.);
#861=ORIENTED_EDGE('',*,*,#577,.T.);
#862=ORIENTED_EDGE('',*,*,#657,.T.);
#863=ORIENTED_EDGE('',*,*,#657,.F.);
#864=ORIENTED_EDGE('',*,*,#576,.F.);
#865=ORIENTED_EDGE('',*,*,#565,.F.);
#866=ORIENTED_EDGE('',*,*,#658,.T.);
#867=ORIENTED_EDGE('',*,*,#659,.F.);
#868=ORIENTED_EDGE('',*,*,#660,.T.);
#869=ORIENTED_EDGE('',*,*,#579,.T.);
#870=ORIENTED_EDGE('',*,*,#661,.T.);
#871=ORIENTED_EDGE('',*,*,#656,.F.);
#872=ORIENTED_EDGE('',*,*,#662,.T.);
#873=ORIENTED_EDGE('',*,*,#661,.F.);
#874=ORIENTED_EDGE('',*,*,#578,.F.);
#875=ORIENTED_EDGE('',*,*,#644,.F.);
#876=ORIENTED_EDGE('',*,*,#663,.F.);
#877=ORIENTED_EDGE('',*,*,#569,.F.);
#878=ORIENTED_EDGE('',*,*,#664,.F.);
#879=ORIENTED_EDGE('',*,*,#643,.T.);
#880=ORIENTED_EDGE('',*,*,#649,.T.);
#881=ORIENTED_EDGE('',*,*,#650,.T.);
#882=ORIENTED_EDGE('',*,*,#654,.T.);
#883=ORIENTED_EDGE('',*,*,#570,.F.);
#884=ORIENTED_EDGE('',*,*,#663,.T.);
#885=ORIENTED_EDGE('',*,*,#547,.T.);
#886=ORIENTED_EDGE('',*,*,#572,.F.);
#887=ORIENTED_EDGE('',*,*,#653,.T.);
#888=ORIENTED_EDGE('',*,*,#651,.F.);
#889=ORIENTED_EDGE('',*,*,#647,.T.);
#890=ORIENTED_EDGE('',*,*,#645,.F.);
#891=ORIENTED_EDGE('',*,*,#664,.T.);
#892=ORIENTED_EDGE('',*,*,#568,.F.);
#893=ORIENTED_EDGE('',*,*,#665,.F.);
#894=ORIENTED_EDGE('',*,*,#666,.F.);
#895=ORIENTED_EDGE('',*,*,#667,.F.);
#896=ORIENTED_EDGE('',*,*,#559,.F.);
#897=ORIENTED_EDGE('',*,*,#550,.T.);
#898=ORIENTED_EDGE('',*,*,#554,.T.);
#899=ORIENTED_EDGE('',*,*,#557,.T.);
#900=ORIENTED_EDGE('',*,*,#543,.T.);
#901=ORIENTED_EDGE('',*,*,#639,.T.);
#902=ORIENTED_EDGE('',*,*,#633,.F.);
#903=ORIENTED_EDGE('',*,*,#635,.T.);
#904=ORIENTED_EDGE('',*,*,#628,.F.);
#905=ORIENTED_EDGE('',*,*,#631,.T.);
#906=ORIENTED_EDGE('',*,*,#641,.F.);
#907=ORIENTED_EDGE('',*,*,#642,.T.);
#908=ORIENTED_EDGE('',*,*,#637,.F.);
#909=ORIENTED_EDGE('',*,*,#660,.F.);
#910=ORIENTED_EDGE('',*,*,#668,.T.);
#911=ORIENTED_EDGE('',*,*,#563,.F.);
#912=ORIENTED_EDGE('',*,*,#580,.F.);
#913=ORIENTED_EDGE('',*,*,#655,.T.);
#914=ORIENTED_EDGE('',*,*,#658,.F.);
#915=ORIENTED_EDGE('',*,*,#564,.F.);
#916=ORIENTED_EDGE('',*,*,#668,.F.);
#917=ORIENTED_EDGE('',*,*,#659,.T.);
#918=ORIENTED_EDGE('',*,*,#662,.F.);
#919=ORIENTED_EDGE('',*,*,#669,.F.);
#920=ORIENTED_EDGE('',*,*,#670,.T.);
#921=ORIENTED_EDGE('',*,*,#671,.T.);
#922=ORIENTED_EDGE('',*,*,#672,.T.);
#923=ORIENTED_EDGE('',*,*,#669,.T.);
#924=ORIENTED_EDGE('',*,*,#673,.T.);
#925=ORIENTED_EDGE('',*,*,#674,.T.);
#926=ORIENTED_EDGE('',*,*,#675,.T.);
#927=ORIENTED_EDGE('',*,*,#618,.F.);
#928=ORIENTED_EDGE('',*,*,#676,.T.);
#929=ORIENTED_EDGE('',*,*,#672,.F.);
#930=ORIENTED_EDGE('',*,*,#677,.F.);
#931=ORIENTED_EDGE('',*,*,#678,.F.);
#932=ORIENTED_EDGE('',*,*,#673,.F.);
#933=ORIENTED_EDGE('',*,*,#674,.F.);
#934=ORIENTED_EDGE('',*,*,#678,.T.);
#935=ORIENTED_EDGE('',*,*,#679,.T.);
#936=ORIENTED_EDGE('',*,*,#680,.T.);
#937=ORIENTED_EDGE('',*,*,#680,.F.);
#938=ORIENTED_EDGE('',*,*,#681,.F.);
#939=ORIENTED_EDGE('',*,*,#619,.F.);
#940=ORIENTED_EDGE('',*,*,#675,.F.);
#941=ORIENTED_EDGE('',*,*,#670,.F.);
#942=ORIENTED_EDGE('',*,*,#676,.F.);
#943=ORIENTED_EDGE('',*,*,#617,.F.);
#944=ORIENTED_EDGE('',*,*,#682,.F.);
#945=ORIENTED_EDGE('',*,*,#683,.F.);
#946=ORIENTED_EDGE('',*,*,#684,.T.);
#947=ORIENTED_EDGE('',*,*,#609,.T.);
#948=ORIENTED_EDGE('',*,*,#685,.T.);
#949=ORIENTED_EDGE('',*,*,#683,.T.);
#950=ORIENTED_EDGE('',*,*,#686,.F.);
#951=ORIENTED_EDGE('',*,*,#687,.T.);
#952=ORIENTED_EDGE('',*,*,#688,.F.);
#953=ORIENTED_EDGE('',*,*,#623,.F.);
#954=ORIENTED_EDGE('',*,*,#689,.F.);
#955=ORIENTED_EDGE('',*,*,#685,.F.);
#956=ORIENTED_EDGE('',*,*,#608,.F.);
#957=ORIENTED_EDGE('',*,*,#690,.F.);
#958=ORIENTED_EDGE('',*,*,#686,.T.);
#959=ORIENTED_EDGE('',*,*,#687,.F.);
#960=ORIENTED_EDGE('',*,*,#690,.T.);
#961=ORIENTED_EDGE('',*,*,#607,.T.);
#962=ORIENTED_EDGE('',*,*,#691,.T.);
#963=ORIENTED_EDGE('',*,*,#666,.T.);
#964=ORIENTED_EDGE('',*,*,#692,.F.);
#965=ORIENTED_EDGE('',*,*,#693,.F.);
#966=ORIENTED_EDGE('',*,*,#694,.F.);
#967=ORIENTED_EDGE('',*,*,#613,.T.);
#968=ORIENTED_EDGE('',*,*,#695,.F.);
#969=ORIENTED_EDGE('',*,*,#574,.F.);
#970=ORIENTED_EDGE('',*,*,#696,.F.);
#971=ORIENTED_EDGE('',*,*,#684,.F.);
#972=ORIENTED_EDGE('',*,*,#689,.T.);
#973=ORIENTED_EDGE('',*,*,#622,.F.);
#974=ORIENTED_EDGE('',*,*,#610,.F.);
#975=ORIENTED_EDGE('',*,*,#691,.F.);
#976=ORIENTED_EDGE('',*,*,#606,.F.);
#977=ORIENTED_EDGE('',*,*,#624,.F.);
#978=ORIENTED_EDGE('',*,*,#688,.T.);
#979=ORIENTED_EDGE('',*,*,#601,.T.);
#980=ORIENTED_EDGE('',*,*,#626,.F.);
#981=ORIENTED_EDGE('',*,*,#697,.F.);
#982=ORIENTED_EDGE('',*,*,#693,.T.);
#983=ORIENTED_EDGE('',*,*,#698,.F.);
#984=ORIENTED_EDGE('',*,*,#620,.F.);
#985=ORIENTED_EDGE('',*,*,#681,.T.);
#986=ORIENTED_EDGE('',*,*,#679,.F.);
#987=ORIENTED_EDGE('',*,*,#677,.T.);
#988=ORIENTED_EDGE('',*,*,#671,.F.);
#989=ORIENTED_EDGE('',*,*,#682,.T.);
#990=ORIENTED_EDGE('',*,*,#616,.F.);
#991=ORIENTED_EDGE('',*,*,#602,.T.);
#992=ORIENTED_EDGE('',*,*,#591,.F.);
#993=ORIENTED_EDGE('',*,*,#595,.T.);
#994=ORIENTED_EDGE('',*,*,#598,.F.);
#995=ORIENTED_EDGE('',*,*,#567,.F.);
#996=ORIENTED_EDGE('',*,*,#575,.T.);
#997=ORIENTED_EDGE('',*,*,#695,.T.);
#998=ORIENTED_EDGE('',*,*,#612,.T.);
#999=ORIENTED_EDGE('',*,*,#621,.F.);
#1000=ORIENTED_EDGE('',*,*,#698,.T.);
#1001=ORIENTED_EDGE('',*,*,#692,.T.);
#1002=ORIENTED_EDGE('',*,*,#665,.T.);
#1003=ORIENTED_EDGE('',*,*,#560,.F.);
#1004=ORIENTED_EDGE('',*,*,#667,.T.);
#1005=ORIENTED_EDGE('',*,*,#694,.T.);
#1006=ORIENTED_EDGE('',*,*,#697,.T.);
#1007=ORIENTED_EDGE('',*,*,#625,.F.);
#1008=ORIENTED_EDGE('',*,*,#614,.T.);
#1009=ORIENTED_EDGE('',*,*,#696,.T.);
#1010=ORIENTED_EDGE('',*,*,#573,.T.);
#1011=CYLINDRICAL_SURFACE('',#1097,0.999999999999988);
#1012=CYLINDRICAL_SURFACE('',#1102,0.999999999999996);
#1013=CYLINDRICAL_SURFACE('',#1115,1.);
#1014=CYLINDRICAL_SURFACE('',#1119,1.);
#1015=CYLINDRICAL_SURFACE('',#1129,1.);
#1016=CYLINDRICAL_SURFACE('',#1132,1.);
#1017=CYLINDRICAL_SURFACE('',#1135,1.);
#1018=CYLINDRICAL_SURFACE('',#1138,1.);
#1019=CYLINDRICAL_SURFACE('',#1141,1.);
#1020=CYLINDRICAL_SURFACE('',#1145,1.);
#1021=CYLINDRICAL_SURFACE('',#1149,1.);
#1022=CYLINDRICAL_SURFACE('',#1152,1.);
#1023=CYLINDRICAL_SURFACE('',#1160,1.);
#1024=CYLINDRICAL_SURFACE('',#1166,1.);
#1025=CYLINDRICAL_SURFACE('',#1170,1.);
#1026=CYLINDRICAL_SURFACE('',#1175,1.);
#1027=CYLINDRICAL_SURFACE('',#1176,15.);
#1028=CYLINDRICAL_SURFACE('',#1179,15.);
#1029=ADVANCED_FACE('',(#53),#1011,.F.);
#1030=ADVANCED_FACE('',(#54),#17,.F.);
#1031=ADVANCED_FACE('',(#55),#18,.F.);
#1032=ADVANCED_FACE('',(#56),#1012,.F.);
#1033=ADVANCED_FACE('',(#57),#19,.F.);
#1034=ADVANCED_FACE('',(#58),#20,.T.);
#1035=ADVANCED_FACE('',(#59),#21,.T.);
#1036=ADVANCED_FACE('',(#60,#15),#22,.T.);
#1037=ADVANCED_FACE('',(#61),#1013,.F.);
#1038=ADVANCED_FACE('',(#62),#23,.F.);
#1039=ADVANCED_FACE('',(#63),#1014,.F.);
#1040=ADVANCED_FACE('',(#64),#24,.F.);
#1041=ADVANCED_FACE('',(#65),#25,.F.);
#1042=ADVANCED_FACE('',(#66),#26,.T.);
#1043=ADVANCED_FACE('',(#67),#27,.T.);
#1044=ADVANCED_FACE('',(#68),#28,.T.);
#1045=ADVANCED_FACE('',(#69),#1015,.F.);
#1046=ADVANCED_FACE('',(#70),#29,.F.);
#1047=ADVANCED_FACE('',(#71),#1016,.F.);
#1048=ADVANCED_FACE('',(#72),#30,.F.);
#1049=ADVANCED_FACE('',(#73),#1017,.F.);
#1050=ADVANCED_FACE('',(#74),#31,.F.);
#1051=ADVANCED_FACE('',(#75),#1018,.F.);
#1052=ADVANCED_FACE('',(#76),#32,.F.);
#1053=ADVANCED_FACE('',(#77),#1019,.F.);
#1054=ADVANCED_FACE('',(#78),#33,.F.);
#1055=ADVANCED_FACE('',(#79),#1020,.F.);
#1056=ADVANCED_FACE('',(#80),#34,.F.);
#1057=ADVANCED_FACE('',(#81),#1021,.F.);
#1058=ADVANCED_FACE('',(#82),#35,.F.);
#1059=ADVANCED_FACE('',(#83),#1022,.F.);
#1060=ADVANCED_FACE('',(#84),#36,.F.);
#1061=ADVANCED_FACE('',(#85),#37,.F.);
#1062=ADVANCED_FACE('',(#86),#38,.T.);
#1063=ADVANCED_FACE('',(#87,#16),#39,.T.);
#1064=ADVANCED_FACE('',(#88),#40,.F.);
#1065=ADVANCED_FACE('',(#89),#41,.F.);
#1066=ADVANCED_FACE('',(#90),#1023,.F.);
#1067=ADVANCED_FACE('',(#91),#42,.T.);
#1068=ADVANCED_FACE('',(#92),#43,.F.);
#1069=ADVANCED_FACE('',(#93),#1024,.F.);
#1070=ADVANCED_FACE('',(#94),#44,.F.);
#1071=ADVANCED_FACE('',(#95),#45,.F.);
#1072=ADVANCED_FACE('',(#96),#1025,.F.);
#1073=ADVANCED_FACE('',(#97),#46,.F.);
#1074=ADVANCED_FACE('',(#98),#47,.F.);
#1075=ADVANCED_FACE('',(#99),#1026,.F.);
#1076=ADVANCED_FACE('',(#100),#1027,.F.);
#1077=ADVANCED_FACE('',(#101),#1028,.T.);
#1078=ADVANCED_FACE('',(#102),#48,.F.);
#1079=ADVANCED_FACE('',(#103),#49,.F.);
#1080=ADVANCED_FACE('',(#104),#50,.T.);
#1081=ADVANCED_FACE('',(#105),#51,.F.);
#1082=ADVANCED_FACE('',(#106),#52,.T.);
#1083=CLOSED_SHELL('',(#1029,#1030,#1031,#1032,#1033,#1034,#1035,#1036,
#1037,#1038,#1039,#1040,#1041,#1042,#1043,#1044,#1045,#1046,#1047,#1048,
#1049,#1050,#1051,#1052,#1053,#1054,#1055,#1056,#1057,#1058,#1059,#1060,
#1061,#1062,#1063,#1064,#1065,#1066,#1067,#1068,#1069,#1070,#1071,#1072,
#1073,#1074,#1075,#1076,#1077,#1078,#1079,#1080,#1081,#1082));
#1084=DERIVED_UNIT_ELEMENT(#1086,1.);
#1085=DERIVED_UNIT_ELEMENT(#1809,-3.);
#1086=(
MASS_UNIT()
NAMED_UNIT(*)
SI_UNIT(.KILO.,.GRAM.)
);
#1087=DERIVED_UNIT((#1084,#1085));
#1088=MEASURE_REPRESENTATION_ITEM('density measure',
POSITIVE_RATIO_MEASURE(7850.),#1087);
#1089=PROPERTY_DEFINITION_REPRESENTATION(#1094,#1091);
#1090=PROPERTY_DEFINITION_REPRESENTATION(#1095,#1092);
#1091=REPRESENTATION('material name',(#1093),#1806);
#1092=REPRESENTATION('density',(#1088),#1806);
#1093=DESCRIPTIVE_REPRESENTATION_ITEM('Steel','Steel');
#1094=PROPERTY_DEFINITION('material property','material name',#1816);
#1095=PROPERTY_DEFINITION('material property','density of part',#1816);
#1096=AXIS2_PLACEMENT_3D('',#1489,#1187,#1188);
#1097=AXIS2_PLACEMENT_3D('',#1490,#1189,#1190);
#1098=AXIS2_PLACEMENT_3D('',#1493,#1191,#1192);
#1099=AXIS2_PLACEMENT_3D('',#1497,#1194,#1195);
#1100=AXIS2_PLACEMENT_3D('',#1499,#1197,#1198);
#1101=AXIS2_PLACEMENT_3D('',#1505,#1202,#1203);
#1102=AXIS2_PLACEMENT_3D('',#1514,#1208,#1209);
#1103=AXIS2_PLACEMENT_3D('',#1516,#1210,#1211);
#1104=AXIS2_PLACEMENT_3D('',#1518,#1212,#1213);
#1105=AXIS2_PLACEMENT_3D('',#1520,#1215,#1216);
#1106=AXIS2_PLACEMENT_3D('',#1523,#1219,#1220);
#1107=AXIS2_PLACEMENT_3D('',#1529,#1224,#1225);
#1108=AXIS2_PLACEMENT_3D('',#1551,#1237,#1238);
#1109=AXIS2_PLACEMENT_3D('',#1560,#1243,#1244);
#1110=AXIS2_PLACEMENT_3D('',#1564,#1246,#1247);
#1111=AXIS2_PLACEMENT_3D('',#1570,#1250,#1251);
#1112=AXIS2_PLACEMENT_3D('',#1574,#1253,#1254);
#1113=AXIS2_PLACEMENT_3D('',#1578,#1256,#1257);
#1114=AXIS2_PLACEMENT_3D('',#1581,#1259,#1260);
#1115=AXIS2_PLACEMENT_3D('',#1582,#1261,#1262);
#1116=AXIS2_PLACEMENT_3D('',#1585,#1263,#1264);
#1117=AXIS2_PLACEMENT_3D('',#1589,#1266,#1267);
#1118=AXIS2_PLACEMENT_3D('',#1591,#1269,#1270);
#1119=AXIS2_PLACEMENT_3D('',#1597,#1274,#1275);
#1120=AXIS2_PLACEMENT_3D('',#1599,#1276,#1277);
#1121=AXIS2_PLACEMENT_3D('',#1602,#1279,#1280);
#1122=AXIS2_PLACEMENT_3D('',#1603,#1281,#1282);
#1123=AXIS2_PLACEMENT_3D('',#1609,#1286,#1287);
#1124=AXIS2_PLACEMENT_3D('',#1615,#1291,#1292);
#1125=AXIS2_PLACEMENT_3D('',#1621,#1295,#1296);
#1126=AXIS2_PLACEMENT_3D('',#1625,#1298,#1299);
#1127=AXIS2_PLACEMENT_3D('',#1637,#1306,#1307);
#1128=AXIS2_PLACEMENT_3D('',#1654,#1317,#1318);
#1129=AXIS2_PLACEMENT_3D('',#1658,#1321,#1322);
#1130=AXIS2_PLACEMENT_3D('',#1662,#1324,#1325);
#1131=AXIS2_PLACEMENT_3D('',#1664,#1327,#1328);
#1132=AXIS2_PLACEMENT_3D('',#1668,#1331,#1332);
#1133=AXIS2_PLACEMENT_3D('',#1672,#1334,#1335);
#1134=AXIS2_PLACEMENT_3D('',#1674,#1337,#1338);
#1135=AXIS2_PLACEMENT_3D('',#1676,#1340,#1341);
#1136=AXIS2_PLACEMENT_3D('',#1680,#1343,#1344);
#1137=AXIS2_PLACEMENT_3D('',#1682,#1346,#1347);
#1138=AXIS2_PLACEMENT_3D('',#1684,#1349,#1350);
#1139=AXIS2_PLACEMENT_3D('',#1687,#1352,#1353);
#1140=AXIS2_PLACEMENT_3D('',#1688,#1354,#1355);
#1141=AXIS2_PLACEMENT_3D('',#1690,#1357,#1358);
#1142=AXIS2_PLACEMENT_3D('',#1693,#1359,#1360);
#1143=AXIS2_PLACEMENT_3D('',#1697,#1362,#1363);
#1144=AXIS2_PLACEMENT_3D('',#1699,#1365,#1366);
#1145=AXIS2_PLACEMENT_3D('',#1705,#1370,#1371);
#1146=AXIS2_PLACEMENT_3D('',#1707,#1372,#1373);
#1147=AXIS2_PLACEMENT_3D('',#1709,#1374,#1375);
#1148=AXIS2_PLACEMENT_3D('',#1711,#1377,#1378);
#1149=AXIS2_PLACEMENT_3D('',#1714,#1381,#1382);
#1150=AXIS2_PLACEMENT_3D('',#1717,#1383,#1384);
#1151=AXIS2_PLACEMENT_3D('',#1720,#1387,#1388);
#1152=AXIS2_PLACEMENT_3D('',#1722,#1390,#1391);
#1153=AXIS2_PLACEMENT_3D('',#1725,#1392,#1393);
#1154=AXIS2_PLACEMENT_3D('',#1728,#1396,#1397);
#1155=AXIS2_PLACEMENT_3D('',#1730,#1399,#1400);
#1156=AXIS2_PLACEMENT_3D('',#1733,#1403,#1404);
#1157=AXIS2_PLACEMENT_3D('',#1734,#1405,#1406);
#1158=AXIS2_PLACEMENT_3D('',#1740,#1410,#1411);
#1159=AXIS2_PLACEMENT_3D('',#1742,#1413,#1414);
#1160=AXIS2_PLACEMENT_3D('',#1743,#1415,#1416);
#1161=AXIS2_PLACEMENT_3D('',#1746,#1417,#1418);
#1162=AXIS2_PLACEMENT_3D('',#1750,#1420,#1421);
#1163=AXIS2_PLACEMENT_3D('',#1752,#1423,#1424);
#1164=AXIS2_PLACEMENT_3D('',#1756,#1426,#1427);
#1165=AXIS2_PLACEMENT_3D('',#1759,#1430,#1431);
#1166=AXIS2_PLACEMENT_3D('',#1763,#1434,#1435);
#1167=AXIS2_PLACEMENT_3D('',#1765,#1436,#1437);
#1168=AXIS2_PLACEMENT_3D('',#1767,#1439,#1440);
#1169=AXIS2_PLACEMENT_3D('',#1769,#1442,#1443);
#1170=AXIS2_PLACEMENT_3D('',#1771,#1445,#1446);
#1171=AXIS2_PLACEMENT_3D('',#1774,#1447,#1448);
#1172=AXIS2_PLACEMENT_3D('',#1777,#1451,#1452);
#1173=AXIS2_PLACEMENT_3D('',#1781,#1454,#1455);
#1174=AXIS2_PLACEMENT_3D('',#1784,#1458,#1459);
#1175=AXIS2_PLACEMENT_3D('',#1786,#1461,#1462);
#1176=AXIS2_PLACEMENT_3D('',#1788,#1464,#1465);
#1177=AXIS2_PLACEMENT_3D('',#1790,#1466,#1467);
#1178=AXIS2_PLACEMENT_3D('',#1793,#1469,#1470);
#1179=AXIS2_PLACEMENT_3D('',#1794,#1471,#1472);
#1180=AXIS2_PLACEMENT_3D('',#1795,#1473,#1474);
#1181=AXIS2_PLACEMENT_3D('',#1796,#1475,#1476);
#1182=AXIS2_PLACEMENT_3D('',#1797,#1477,#1478);
#1183=AXIS2_PLACEMENT_3D('',#1798,#1479,#1480);
#1184=AXIS2_PLACEMENT_3D('',#1799,#1481,#1482);
#1185=AXIS2_PLACEMENT_3D('',#1802,#1485,#1486);
#1186=AXIS2_PLACEMENT_3D('',#1803,#1487,#1488);
#1187=DIRECTION('axis',(0.,0.,1.));
#1188=DIRECTION('refdir',(1.,0.,0.));
#1189=DIRECTION('center_axis',(6.05576195250085E-15,-1.,1.00929365875014E-16));
#1190=DIRECTION('ref_axis',(1.,6.05576195250085E-15,8.65366805971864E-15));
#1191=DIRECTION('center_axis',(5.39778999686614E-16,1.,0.));
#1192=DIRECTION('ref_axis',(1.,6.05576195250085E-15,8.65366805971864E-15));
#1193=DIRECTION('',(6.05576195250085E-15,-1.,1.00929365875014E-16));
#1194=DIRECTION('center_axis',(-2.84883360945713E-16,-1.,0.));
#1195=DIRECTION('ref_axis',(1.,6.05576195250085E-15,8.65366805971864E-15));
#1196=DIRECTION('',(6.05576195250085E-15,-1.,1.00929365875014E-16));
#1197=DIRECTION('center_axis',(-2.28116137282726E-16,-1.00929365875016E-16,
-1.));
#1198=DIRECTION('ref_axis',(1.,9.40914013369853E-15,-2.28116137282727E-16));
#1199=DIRECTION('',(-1.,5.39778999686614E-16,2.28116137282726E-16));
#1200=DIRECTION('',(1.,-2.84883360945713E-16,-2.28116137282726E-16));
#1201=DIRECTION('',(1.26882645701022E-15,1.,-1.00929365875016E-16));
#1202=DIRECTION('center_axis',(2.28116137282726E-16,1.00929365875016E-16,
1.));
#1203=DIRECTION('ref_axis',(-1.,-6.24694558003462E-15,2.28116137282726E-16));
#1204=DIRECTION('',(1.,-5.39778999686614E-16,-2.28116137282726E-16));
#1205=DIRECTION('',(-1.26882645701022E-15,-1.,1.00929365875016E-16));
#1206=DIRECTION('',(-1.,2.84883360945713E-16,2.28116137282726E-16));
#1207=DIRECTION('',(6.05576195250085E-15,-1.,1.00929365875014E-16));
#1208=DIRECTION('center_axis',(6.05576195250085E-15,-1.,1.00929365875014E-16));
#1209=DIRECTION('ref_axis',(2.28116137282726E-16,1.00929365875016E-16,1.));
#1210=DIRECTION('center_axis',(5.39778999686614E-16,1.,0.));
#1211=DIRECTION('ref_axis',(2.28116137282726E-16,1.00929365875016E-16,1.));
#1212=DIRECTION('center_axis',(-2.84883360945713E-16,-1.,0.));
#1213=DIRECTION('ref_axis',(2.28116137282726E-16,1.00929365875016E-16,1.));
#1214=DIRECTION('',(6.05576195250085E-15,-1.,1.00929365875014E-16));
#1215=DIRECTION('center_axis',(1.,6.05576195250085E-15,-2.28116137282726E-16));
#1216=DIRECTION('ref_axis',(2.28116137282726E-16,1.12233825043905E-16,1.));
#1217=DIRECTION('',(-2.28116137282726E-16,1.23132300394844E-31,-1.));
#1218=DIRECTION('',(2.28116137282726E-16,-6.49864918750568E-32,1.));
#1219=DIRECTION('center_axis',(-1.,1.26882645701022E-15,0.));
#1220=DIRECTION('ref_axis',(-1.26882645701022E-15,-1.,0.));
#1221=DIRECTION('',(0.,0.,1.));
#1222=DIRECTION('',(1.26882645701022E-15,1.,0.));
#1223=DIRECTION('',(0.,0.,-1.));
#1224=DIRECTION('center_axis',(-1.,1.26882645701022E-15,0.));
#1225=DIRECTION('ref_axis',(-1.26882645701022E-15,-1.,0.));
#1226=DIRECTION('',(0.,0.,-1.));
#1227=DIRECTION('',(-1.26882645701022E-15,-1.,1.77635683940025E-15));
#1228=DIRECTION('',(-2.2538885549221E-30,-1.77635683940025E-15,-1.));
#1229=DIRECTION('',(1.26882645701022E-15,1.,-1.77635683940025E-15));
#1230=DIRECTION('',(0.,0.,-1.));
#1231=DIRECTION('',(-1.26882645701022E-15,-1.,0.));
#1232=DIRECTION('',(0.,0.,1.));
#1233=DIRECTION('',(1.26882645701022E-15,1.,-1.97372982155583E-15));
#1234=DIRECTION('',(2.81736069365262E-30,2.22044604925031E-15,1.));
#1235=DIRECTION('',(-1.26882645701022E-15,-1.,1.97372982155583E-15));
#1236=DIRECTION('',(0.,0.,1.));
#1237=DIRECTION('center_axis',(2.84883360945713E-16,1.,0.));
#1238=DIRECTION('ref_axis',(1.,-2.84883360945713E-16,0.));
#1239=DIRECTION('',(-1.,2.84883360945713E-16,0.));
#1240=DIRECTION('',(0.,0.,-1.));
#1241=DIRECTION('',(1.,-2.84883360945713E-16,0.));
#1242=DIRECTION('',(1.,-2.84883360945713E-16,5.06054506647248E-31));
#1243=DIRECTION('center_axis',(2.84883360945713E-16,1.,0.));
#1244=DIRECTION('ref_axis',(0.707106781186544,0.,-0.707106781186551));
#1245=DIRECTION('',(0.,0.,1.));
#1246=DIRECTION('center_axis',(2.84883360945713E-16,1.,0.));
#1247=DIRECTION('ref_axis',(0.707106781186546,0.,0.707106781186549));
#1248=DIRECTION('',(-1.,2.84883360945713E-16,4.69418512945653E-30));
#1249=DIRECTION('',(1.,-2.84883360945713E-16,0.));
#1250=DIRECTION('center_axis',(2.84883360945713E-16,1.,0.));
#1251=DIRECTION('ref_axis',(0.707106781186548,0.,-0.707106781186548));
#1252=DIRECTION('',(0.,0.,1.));
#1253=DIRECTION('center_axis',(2.84883360945713E-16,1.,0.));
#1254=DIRECTION('ref_axis',(0.707106781186549,0.,0.707106781186546));
#1255=DIRECTION('',(-1.,2.84883360945713E-16,0.));
#1256=DIRECTION('center_axis',(2.84883360945713E-16,1.,0.));
#1257=DIRECTION('ref_axis',(-0.707106781186546,0.,0.707106781186549));
#1258=DIRECTION('',(0.,0.,-1.));
#1259=DIRECTION('center_axis',(2.84883360945713E-16,1.,0.));
#1260=DIRECTION('ref_axis',(-0.707106781186548,0.,-0.707106781186547));
#1261=DIRECTION('center_axis',(-0.866025403784441,0.499999999999996,-1.05735526154854E-16));
#1262=DIRECTION('ref_axis',(0.353553390587023,0.612372435684956,-0.707106781199059));
#1263=DIRECTION('center_axis',(0.866025403784439,-0.5,0.));
#1264=DIRECTION('ref_axis',(0.353553390587023,0.612372435684956,-0.707106781199059));
#1265=DIRECTION('',(-0.866025403784441,0.499999999999995,-1.05735526154854E-16));
#1266=DIRECTION('center_axis',(-0.866025403784439,0.5,0.));
#1267=DIRECTION('ref_axis',(0.353553390587023,0.612372435684956,-0.707106781199059));
#1268=DIRECTION('',(0.866025403784441,-0.499999999999995,1.05735526154854E-16));
#1269=DIRECTION('center_axis',(0.499999999999996,0.866025403784441,-1.769629590731E-11));
#1270=DIRECTION('ref_axis',(-8.85867777972598E-12,-1.53193624107004E-11,
-1.));
#1271=DIRECTION('',(-8.84814795365498E-12,-1.5325441808617E-11,-1.));
#1272=DIRECTION('',(0.866025403784441,-0.499999999999995,1.05735526154854E-16));
#1273=DIRECTION('',(8.84814795365499E-12,1.5325441808617E-11,1.));
#1274=DIRECTION('center_axis',(-0.866025403784441,0.499999999999996,-1.05735526154854E-16));
#1275=DIRECTION('ref_axis',(0.353553390599534,0.612372435706631,0.707106781174033));
#1276=DIRECTION('center_axis',(0.866025403784439,-0.5,0.));
#1277=DIRECTION('ref_axis',(0.353553390599534,0.612372435706631,0.707106781174033));
#1278=DIRECTION('',(-0.866025403784441,0.499999999999995,-1.05735526154854E-16));
#1279=DIRECTION('center_axis',(-0.866025403784439,0.5,0.));
#1280=DIRECTION('ref_axis',(0.353553390599534,0.612372435706631,0.707106781174033));
#1281=DIRECTION('center_axis',(8.84805638400317E-12,1.53254946763801E-11,
1.));
#1282=DIRECTION('ref_axis',(0.499999999999996,0.866025403784441,-1.769629590731E-11));
#1283=DIRECTION('',(0.5,0.866025403784439,-1.769629590731E-11));
#1284=DIRECTION('',(0.866025403784439,-0.499999999999999,1.05735526232402E-16));
#1285=DIRECTION('',(-0.5,-0.866025403784438,1.769629590731E-11));
#1286=DIRECTION('center_axis',(-8.84805638400317E-12,-1.53254946763801E-11,
-1.));
#1287=DIRECTION('ref_axis',(-0.49999999999999,-0.866025403784444,1.769629590731E-11));
#1288=DIRECTION('',(0.5,0.866025403784438,-1.769629590731E-11));
#1289=DIRECTION('',(-0.866025403784439,0.499999999999999,-1.05735526232402E-16));
#1290=DIRECTION('',(-0.5,-0.866025403784439,1.769629590731E-11));
#1291=DIRECTION('center_axis',(0.866025403784439,-0.5,0.));
#1292=DIRECTION('ref_axis',(-0.5,-0.866025403784439,0.));
#1293=DIRECTION('',(0.,0.,1.));
#1294=DIRECTION('',(0.5,0.866025403784439,0.));
#1295=DIRECTION('center_axis',(0.866025403784439,-0.5,0.));
#1296=DIRECTION('ref_axis',(0.353553390593277,0.612372435695795,0.707106781186545));
#1297=DIRECTION('',(0.,0.,-1.));
#1298=DIRECTION('center_axis',(0.866025403784439,-0.5,0.));
#1299=DIRECTION('ref_axis',(0.353553390593278,0.612372435695796,-0.707106781186544));
#1300=DIRECTION('',(-0.5,-0.866025403784439,0.));
#1301=DIRECTION('',(0.,0.,1.));
#1302=DIRECTION('',(-0.5,-0.866025403784439,0.));
#1303=DIRECTION('',(0.,0.,-1.));
#1304=DIRECTION('',(0.5,0.866025403784439,0.));
#1305=DIRECTION('',(0.,0.,1.));
#1306=DIRECTION('center_axis',(-0.499999999999999,-0.866025403784439,0.));
#1307=DIRECTION('ref_axis',(0.866025403784439,-0.499999999999999,0.));
#1308=DIRECTION('',(0.,0.,-1.));
#1309=DIRECTION('',(0.866025403784439,-0.499999999999999,0.));
#1310=DIRECTION('',(0.,0.,-1.));
#1311=DIRECTION('',(-0.866025403784439,0.499999999999999,0.));
#1312=DIRECTION('',(0.,0.,-1.));
#1313=DIRECTION('',(0.866025403784439,-0.499999999999999,0.));
#1314=DIRECTION('',(-0.866025403784439,0.499999999999999,0.));
#1315=DIRECTION('',(0.,0.,1.));
#1316=DIRECTION('',(0.866025403784439,-0.499999999999999,0.));
#1317=DIRECTION('center_axis',(-0.499999999999999,-0.866025403784439,0.));
#1318=DIRECTION('ref_axis',(0.866025403784439,-0.499999999999999,0.));
#1319=DIRECTION('',(-0.866025403784439,0.499999999999999,0.));
#1320=DIRECTION('',(0.,0.,-1.));
#1321=DIRECTION('center_axis',(0.,-1.,0.));
#1322=DIRECTION('ref_axis',(-0.707106781186546,0.,0.707106781186549));
#1323=DIRECTION('',(0.,-1.,0.));
#1324=DIRECTION('center_axis',(-5.39778999686614E-16,-1.,0.));
#1325=DIRECTION('ref_axis',(-0.707106781186546,0.,0.707106781186549));
#1326=DIRECTION('',(0.,1.,0.));
#1327=DIRECTION('center_axis',(0.,0.,1.));
#1328=DIRECTION('ref_axis',(-1.,0.,0.));
#1329=DIRECTION('',(0.,1.,0.));
#1330=DIRECTION('',(1.,-5.39778999686614E-16,0.));
#1331=DIRECTION('center_axis',(0.,-1.,0.));
#1332=DIRECTION('ref_axis',(-0.707106781186548,0.,-0.707106781186547));
#1333=DIRECTION('',(0.,-1.,0.));
#1334=DIRECTION('center_axis',(-5.39778999686614E-16,-1.,0.));
#1335=DIRECTION('ref_axis',(-0.707106781186548,0.,-0.707106781186547));
#1336=DIRECTION('',(0.,1.,0.));
#1337=DIRECTION('center_axis',(-1.,0.,0.));
#1338=DIRECTION('ref_axis',(0.,0.,-1.));
#1339=DIRECTION('',(0.,0.,1.));
#1340=DIRECTION('center_axis',(0.,-1.,0.));
#1341=DIRECTION('ref_axis',(0.707106781186548,0.,-0.707106781186548));
#1342=DIRECTION('',(0.,-1.,0.));
#1343=DIRECTION('center_axis',(-5.39778999686614E-16,-1.,0.));
#1344=DIRECTION('ref_axis',(0.707106781186548,0.,-0.707106781186548));
#1345=DIRECTION('',(0.,1.,0.));
#1346=DIRECTION('center_axis',(0.,0.,-1.));
#1347=DIRECTION('ref_axis',(1.,-9.378091492587E-33,0.));
#1348=DIRECTION('',(-1.,5.39778999686614E-16,0.));
#1349=DIRECTION('center_axis',(0.,-1.,0.));
#1350=DIRECTION('ref_axis',(0.707106781186549,0.,0.707106781186546));
#1351=DIRECTION('',(0.,-1.,0.));
#1352=DIRECTION('center_axis',(-5.39778999686614E-16,-1.,0.));
#1353=DIRECTION('ref_axis',(0.707106781186549,0.,0.707106781186546));
#1354=DIRECTION('center_axis',(1.,0.,0.));
#1355=DIRECTION('ref_axis',(0.,1.88932698106247E-32,1.));
#1356=DIRECTION('',(0.,0.,-1.));
#1357=DIRECTION('center_axis',(0.,-1.,1.97372982155583E-15));
#1358=DIRECTION('ref_axis',(0.707106781186548,0.,-0.707106781186548));
#1359=DIRECTION('center_axis',(0.,-1.,2.22044604925031E-15));
#1360=DIRECTION('ref_axis',(0.707106781186548,0.,-0.707106781186548));
#1361=DIRECTION('',(0.,-1.,1.97372982155583E-15));
#1362=DIRECTION('center_axis',(-5.39778999686614E-16,-1.,0.));
#1363=DIRECTION('ref_axis',(0.707106781186548,0.,-0.707106781186548));
#1364=DIRECTION('',(0.,1.,-1.97372982155583E-15));
#1365=DIRECTION('center_axis',(1.,0.,0.));
#1366=DIRECTION('ref_axis',(0.,0.,1.));
#1367=DIRECTION('',(0.,0.,-1.));
#1368=DIRECTION('',(0.,-1.,1.97372982155583E-15));
#1369=DIRECTION('',(0.,2.22044604925031E-15,1.));
#1370=DIRECTION('center_axis',(0.,-1.,1.97372982155583E-15));
#1371=DIRECTION('ref_axis',(0.707106781186546,0.,0.707106781186549));
#1372=DIRECTION('center_axis',(0.,-1.,2.22044604925031E-15));
#1373=DIRECTION('ref_axis',(0.707106781186546,0.,0.707106781186549));
#1374=DIRECTION('center_axis',(-5.39778999686614E-16,-1.,0.));
#1375=DIRECTION('ref_axis',(0.707106781186546,0.,0.707106781186549));
#1376=DIRECTION('',(0.,1.,-1.97372982155583E-15));
#1377=DIRECTION('center_axis',(5.77804404011531E-30,1.97372982155583E-15,
1.));
#1378=DIRECTION('ref_axis',(-1.,2.92747466092428E-15,0.));
#1379=DIRECTION('',(1.,-5.39778999686614E-16,-4.71266613138426E-30));
#1380=DIRECTION('',(-1.,1.28298350612683E-44,5.77804404011531E-30));
#1381=DIRECTION('center_axis',(0.,-1.,1.77635683940025E-15));
#1382=DIRECTION('ref_axis',(0.707106781186544,0.,-0.707106781186551));
#1383=DIRECTION('center_axis',(0.,1.,-1.77635683940025E-15));
#1384=DIRECTION('ref_axis',(0.707106781186544,0.,-0.707106781186551));
#1385=DIRECTION('',(0.,1.,-1.77635683940025E-15));
#1386=DIRECTION('',(0.,-1.,1.77635683940025E-15));
#1387=DIRECTION('center_axis',(0.,-1.77635683940025E-15,-1.));
#1388=DIRECTION('ref_axis',(1.,0.,0.));
#1389=DIRECTION('',(1.,0.,0.));
#1390=DIRECTION('center_axis',(0.,-1.,1.77635683940025E-15));
#1391=DIRECTION('ref_axis',(0.707106781186546,0.,0.707106781186549));
#1392=DIRECTION('center_axis',(0.,1.,-1.77635683940025E-15));
#1393=DIRECTION('ref_axis',(0.707106781186546,0.,0.707106781186549));
#1394=DIRECTION('',(0.,1.,-1.77635683940025E-15));
#1395=DIRECTION('',(0.,-1.,1.77635683940025E-15));
#1396=DIRECTION('center_axis',(1.,0.,0.));
#1397=DIRECTION('ref_axis',(0.,0.,1.));
#1398=DIRECTION('',(0.,0.,1.));
#1399=DIRECTION('center_axis',(0.,-1.97372982155583E-15,-1.));
#1400=DIRECTION('ref_axis',(1.,0.,0.));
#1401=DIRECTION('',(1.,0.,0.));
#1402=DIRECTION('',(-1.,5.39778999686614E-16,-1.06537790873105E-30));
#1403=DIRECTION('center_axis',(0.,-1.,2.22044604925031E-15));
#1404=DIRECTION('ref_axis',(0.,-2.22044604925031E-15,-1.));
#1405=DIRECTION('center_axis',(-5.39778999686614E-16,-1.,0.));
#1406=DIRECTION('ref_axis',(-1.,5.39778999686614E-16,0.));
#1407=DIRECTION('',(-1.,5.39778999686614E-16,0.));
#1408=DIRECTION('',(0.,0.,-1.));
#1409=DIRECTION('',(1.,-5.39778999686614E-16,0.));
#1410=DIRECTION('center_axis',(5.20023963610378E-30,1.77635683940025E-15,
1.));
#1411=DIRECTION('ref_axis',(-1.,2.92747466092428E-15,0.));
#1412=DIRECTION('',(-1.,2.92747466092428E-15,0.));
#1413=DIRECTION('center_axis',(0.,-1.,1.77635683940025E-15));
#1414=DIRECTION('ref_axis',(0.,-1.77635683940025E-15,-1.));
#1415=DIRECTION('center_axis',(-0.866025403784439,0.5,0.));
#1416=DIRECTION('ref_axis',(0.353553390593277,0.612372435695795,0.707106781186545));
#1417=DIRECTION('center_axis',(-0.866025403784438,0.5,0.));
#1418=DIRECTION('ref_axis',(0.353553390593277,0.612372435695795,0.707106781186545));
#1419=DIRECTION('',(-0.866025403784439,0.5,0.));
#1420=DIRECTION('center_axis',(-0.866025403784439,0.5,0.));
#1421=DIRECTION('ref_axis',(0.353553390593277,0.612372435695795,0.707106781186545));
#1422=DIRECTION('',(0.866025403784439,-0.5,0.));
#1423=DIRECTION('center_axis',(-0.866025403784438,0.5,0.));
#1424=DIRECTION('ref_axis',(0.,0.,1.));
#1425=DIRECTION('',(0.,0.,-1.));
#1426=DIRECTION('center_axis',(-0.866025403784438,0.5,0.));
#1427=DIRECTION('ref_axis',(0.353553390593278,0.612372435695796,-0.707106781186544));
#1428=DIRECTION('',(-0.5,-0.866025403784438,0.));
#1429=DIRECTION('',(0.5,0.866025403784438,0.));
#1430=DIRECTION('center_axis',(0.5,0.866025403784439,0.));
#1431=DIRECTION('ref_axis',(0.,0.,-1.));
#1432=DIRECTION('',(0.,0.,1.));
#1433=DIRECTION('',(-0.866025403784439,0.5,0.));
#1434=DIRECTION('center_axis',(-0.866025403784439,0.5,0.));
#1435=DIRECTION('ref_axis',(0.353553390593278,0.612372435695796,-0.707106781186544));
#1436=DIRECTION('center_axis',(-0.866025403784439,0.5,0.));
#1437=DIRECTION('ref_axis',(0.353553390593278,0.612372435695796,-0.707106781186544));
#1438=DIRECTION('',(0.866025403784439,-0.5,0.));
#1439=DIRECTION('center_axis',(0.,0.,-1.));
#1440=DIRECTION('ref_axis',(-0.5,-0.866025403784439,0.));
#1441=DIRECTION('',(0.5,0.866025403784438,0.));
#1442=DIRECTION('center_axis',(0.,0.,1.));
#1443=DIRECTION('ref_axis',(0.5,0.866025403784439,0.));
#1444=DIRECTION('',(-0.5,-0.866025403784438,0.));
#1445=DIRECTION('center_axis',(-0.866025403784439,0.499999999999999,0.));
#1446=DIRECTION('ref_axis',(0.353553390593278,0.612372435695796,-0.707106781186544));
#1447=DIRECTION('center_axis',(0.866025403784439,-0.499999999999999,0.));
#1448=DIRECTION('ref_axis',(0.353553390593278,0.612372435695796,-0.707106781186544));
#1449=DIRECTION('',(0.866025403784439,-0.499999999999999,0.));
#1450=DIRECTION('',(-0.866025403784439,0.499999999999999,0.));
#1451=DIRECTION('center_axis',(-0.866025403784439,0.499999999999999,0.));
#1452=DIRECTION('ref_axis',(0.,0.,1.));
#1453=DIRECTION('',(0.,0.,-1.));
#1454=DIRECTION('center_axis',(0.866025403784439,-0.499999999999999,0.));
#1455=DIRECTION('ref_axis',(0.353553390593277,0.612372435695795,0.707106781186545));
#1456=DIRECTION('',(0.5,0.866025403784439,0.));
#1457=DIRECTION('',(-0.5,-0.866025403784439,0.));
#1458=DIRECTION('center_axis',(0.499999999999999,0.866025403784439,0.));
#1459=DIRECTION('ref_axis',(0.,0.,-1.));
#1460=DIRECTION('',(0.866025403784439,-0.499999999999999,0.));
#1461=DIRECTION('center_axis',(-0.866025403784439,0.499999999999999,0.));
#1462=DIRECTION('ref_axis',(0.353553390593277,0.612372435695795,0.707106781186545));
#1463=DIRECTION('',(-0.866025403784439,0.499999999999999,0.));
#1464=DIRECTION('center_axis',(0.,0.,-1.));
#1465=DIRECTION('ref_axis',(0.866025403784439,-0.5,0.));
#1466=DIRECTION('center_axis',(0.,0.,1.));
#1467=DIRECTION('ref_axis',(0.866025403784439,-0.5,0.));
#1468=DIRECTION('',(0.,0.,-1.));
#1469=DIRECTION('center_axis',(0.,0.,-1.));
#1470=DIRECTION('ref_axis',(0.866025403784439,-0.5,0.));
#1471=DIRECTION('center_axis',(0.,0.,-1.));
#1472=DIRECTION('ref_axis',(0.866025403784439,-0.499999999999999,0.));
#1473=DIRECTION('center_axis',(0.,0.,-1.));
#1474=DIRECTION('ref_axis',(0.866025403784439,-0.499999999999999,0.));
#1475=DIRECTION('center_axis',(0.,0.,1.));
#1476=DIRECTION('ref_axis',(0.866025403784439,-0.499999999999999,0.));
#1477=DIRECTION('center_axis',(0.,0.,-1.));
#1478=DIRECTION('ref_axis',(-0.5,-0.866025403784439,0.));
#1479=DIRECTION('center_axis',(0.,0.,1.));
#1480=DIRECTION('ref_axis',(0.5,0.866025403784439,0.));
#1481=DIRECTION('center_axis',(-0.866025403784439,0.5,0.));
#1482=DIRECTION('ref_axis',(0.5,0.866025403784438,0.));
#1483=DIRECTION('',(-0.5,-0.866025403784438,0.));
#1484=DIRECTION('',(0.5,0.866025403784439,0.));
#1485=DIRECTION('center_axis',(0.,0.,1.));
#1486=DIRECTION('ref_axis',(1.,0.,0.));
#1487=DIRECTION('center_axis',(0.,0.,1.));
#1488=DIRECTION('ref_axis',(1.,0.,0.));
#1489=CARTESIAN_POINT('',(0.,0.,0.));
#1490=CARTESIAN_POINT('Origin',(-51.8179306876184,59.9999999999994,-7.64899999999975));
#1491=CARTESIAN_POINT('',(-50.8179306876184,53.,-7.64899999999975));
#1492=CARTESIAN_POINT('',(-51.8179306876184,53.,-8.64899999999974));
#1493=CARTESIAN_POINT('Origin',(-51.8179306876184,52.9999999999993,-7.64899999999975));
#1494=CARTESIAN_POINT('',(-50.8179306876184,59.9999999999994,-7.64899999999975));
#1495=CARTESIAN_POINT('',(-50.8179306876184,59.9999999999994,-7.64899999999975));
#1496=CARTESIAN_POINT('',(-51.8179306876184,59.9999999999994,-8.64899999999974));
#1497=CARTESIAN_POINT('Origin',(-51.8179306876184,59.9999999999995,-7.64899999999975));
#1498=CARTESIAN_POINT('',(-51.8179306876184,59.9999999999994,-8.64899999999974));
#1499=CARTESIAN_POINT('Origin',(-59.8179306876184,59.9999999999993,-8.64899999999974));
#1500=CARTESIAN_POINT('',(-55.8179306876174,53.,-8.64899999999974));
#1501=CARTESIAN_POINT('',(2.99999999999947,53.,-8.64899999999975));
#1502=CARTESIAN_POINT('',(-55.8179306876173,60.,-8.64899999999974));
#1503=CARTESIAN_POINT('',(-14.8089656790854,60.,-8.64899999999975));
#1504=CARTESIAN_POINT('',(-55.8179306876173,59.9999999999997,-8.64899999999974));
#1505=CARTESIAN_POINT('Origin',(-51.8179306876184,59.9999999999994,-3.64899999999975));
#1506=CARTESIAN_POINT('',(-55.8179306876174,53.,-3.64899999999975));
#1507=CARTESIAN_POINT('',(-51.8179306876184,53.,-3.64899999999975));
#1508=CARTESIAN_POINT('',(6.99999999999947,53.,-3.64899999999976));
#1509=CARTESIAN_POINT('',(-55.8179306876173,60.,-3.64899999999975));
#1510=CARTESIAN_POINT('',(-55.8179306876173,59.9999999999997,-3.64899999999975));
#1511=CARTESIAN_POINT('',(-51.8179306876184,59.9999999999994,-3.64899999999975));
#1512=CARTESIAN_POINT('',(-10.8089656790854,60.,-3.64899999999976));
#1513=CARTESIAN_POINT('',(-51.8179306876184,59.9999999999994,-3.64899999999975));
#1514=CARTESIAN_POINT('Origin',(-51.8179306876184,59.9999999999994,-4.64899999999974));
#1515=CARTESIAN_POINT('',(-50.8179306876184,53.,-4.64899999999974));
#1516=CARTESIAN_POINT('Origin',(-51.8179306876184,52.9999999999993,-4.64899999999974));
#1517=CARTESIAN_POINT('',(-50.8179306876184,59.9999999999994,-4.64899999999974));
#1518=CARTESIAN_POINT('Origin',(-51.8179306876184,59.9999999999995,-4.64899999999974));
#1519=CARTESIAN_POINT('',(-50.8179306876184,59.9999999999994,-4.64899999999974));
#1520=CARTESIAN_POINT('Origin',(-50.8179306876184,59.9999999999994,-7.64899999999975));
#1521=CARTESIAN_POINT('',(-50.8179306876184,53.,-3.82449999999986));
#1522=CARTESIAN_POINT('',(-50.8179306876184,60.,-3.82449999999986));
#1523=CARTESIAN_POINT('Origin',(-55.8179306876173,60.,-8.149));
#1524=CARTESIAN_POINT('',(-55.8179306876174,53.0000000000001,-1.149));
#1525=CARTESIAN_POINT('',(-55.8179306876174,53.,-4.0745));
#1526=CARTESIAN_POINT('',(-55.8179306876173,60.,-1.149));
#1527=CARTESIAN_POINT('',(-55.8179306876174,39.708154241552,-1.149));
#1528=CARTESIAN_POINT('',(-55.8179306876173,60.,-4.0745));
#1529=CARTESIAN_POINT('Origin',(-55.8179306876173,60.,-8.149));
#1530=CARTESIAN_POINT('',(-55.8179306876173,60.,-11.149));
#1531=CARTESIAN_POINT('',(-55.8179306876173,60.,-4.0745));
#1532=CARTESIAN_POINT('',(-55.8179306876173,57.5,-11.149));
#1533=CARTESIAN_POINT('',(-55.8179306876173,60.,-11.149));
#1534=CARTESIAN_POINT('',(-55.8179306876173,57.5,-35.149));
#1535=CARTESIAN_POINT('',(-55.8179306876173,57.5,-15.649));
#1536=CARTESIAN_POINT('',(-55.8179306876173,60.,-35.149));
#1537=CARTESIAN_POINT('',(-55.8179306876173,60.,-35.149));
#1538=CARTESIAN_POINT('',(-55.8179306876173,60.,-45.149));
#1539=CARTESIAN_POINT('',(-55.8179306876173,60.,-4.0745));
#1540=CARTESIAN_POINT('',(-55.8179306876174,53.,-45.149));
#1541=CARTESIAN_POINT('',(-55.8179306876174,44.0533629969855,-45.149));
#1542=CARTESIAN_POINT('',(-55.8179306876174,53.,-35.149));
#1543=CARTESIAN_POINT('',(-55.8179306876174,53.,-4.0745));
#1544=CARTESIAN_POINT('',(-55.8179306876174,55.5,-35.149));
#1545=CARTESIAN_POINT('',(-55.8179306876173,58.75,-35.149));
#1546=CARTESIAN_POINT('',(-55.8179306876174,55.5,-11.149));
#1547=CARTESIAN_POINT('',(-55.8179306876174,55.5,-15.649));
#1548=CARTESIAN_POINT('',(-55.8179306876174,53.,-11.149));
#1549=CARTESIAN_POINT('',(-55.8179306876173,58.75,-11.149));
#1550=CARTESIAN_POINT('',(-55.8179306876174,53.,-4.0745));
#1551=CARTESIAN_POINT('Origin',(30.1999993294477,60.,0.));
#1552=CARTESIAN_POINT('',(77.9422863405995,60.,-1.149));
#1553=CARTESIAN_POINT('',(45.8855710822357,60.,-1.149));
#1554=CARTESIAN_POINT('',(77.9422863405995,60.,-45.149));
#1555=CARTESIAN_POINT('',(77.9422863405995,60.,0.));
#1556=CARTESIAN_POINT('',(77.9422863405995,60.,-45.149));
#1557=CARTESIAN_POINT('',(-49.3179306876174,60.,-35.149));
#1558=CARTESIAN_POINT('',(-16.5589656790848,60.,-35.149));
#1559=CARTESIAN_POINT('',(-48.3179306876174,60.,-34.149));
#1560=CARTESIAN_POINT('Origin',(-49.3179306876174,59.9999999999999,-34.149));
#1561=CARTESIAN_POINT('',(-48.3179306876174,60.,-12.149));
#1562=CARTESIAN_POINT('',(-48.3179306876174,60.,-17.5745));
#1563=CARTESIAN_POINT('',(-49.3179306876174,60.,-11.149));
#1564=CARTESIAN_POINT('Origin',(-49.3179306876174,60.,-12.149));
#1565=CARTESIAN_POINT('',(-9.05896567908481,60.,-11.149));
#1566=CARTESIAN_POINT('',(-9.54910261727174,60.,-33.3485270010292));
#1567=CARTESIAN_POINT('',(29.5490999798568,60.,-33.3485270010292));
#1568=CARTESIAN_POINT('',(9.825448356088,60.,-33.3485270010292));
#1569=CARTESIAN_POINT('',(30.5490999798568,60.,-32.3485270010292));
#1570=CARTESIAN_POINT('Origin',(29.5490999798568,60.,-32.3485270010292));
#1571=CARTESIAN_POINT('',(30.5490999798568,60.,-13.948527001029));
#1572=CARTESIAN_POINT('',(30.5490999798568,60.,-16.6742635005146));
#1573=CARTESIAN_POINT('',(29.5490999798568,60.,-12.948527001029));
#1574=CARTESIAN_POINT('Origin',(29.5490999798568,60.,-13.948527001029));
#1575=CARTESIAN_POINT('',(-9.54910261727174,60.,-12.948527001029));
#1576=CARTESIAN_POINT('',(30.3745496546522,60.,-12.948527001029));
#1577=CARTESIAN_POINT('',(-10.5491026172717,60.,-13.948527001029));
#1578=CARTESIAN_POINT('Origin',(-9.54910261727174,60.,-13.948527001029));
#1579=CARTESIAN_POINT('',(-10.5491026172717,60.,-32.3485270010292));
#1580=CARTESIAN_POINT('',(-10.5491026172717,60.,-6.47426350051451));
#1581=CARTESIAN_POINT('Origin',(-9.54910261727174,60.,-32.3485270010292));
#1582=CARTESIAN_POINT('Origin',(81.8704895708403,21.8038475772318,-7.64899999998203));
#1583=CARTESIAN_POINT('',(81.8704895708308,21.8038475772168,-8.64899999998203));
#1584=CARTESIAN_POINT('',(82.3704895708397,22.6698729810166,-7.64899999999972));
#1585=CARTESIAN_POINT('Origin',(81.8704895708398,21.8038475772321,-7.64899999998203));
#1586=CARTESIAN_POINT('',(76.3083117443486,26.1698729810165,-7.64899999999972));
#1587=CARTESIAN_POINT('',(82.3704895708403,22.6698729810162,-7.64899999999972));
#1588=CARTESIAN_POINT('',(75.8083117443397,25.3038475772168,-8.64899999998203));
#1589=CARTESIAN_POINT('Origin',(75.8083117443484,25.3038475772322,-7.64899999998203));
#1590=CARTESIAN_POINT('',(81.8704895708314,21.8038475772165,-8.64899999998203));
#1591=CARTESIAN_POINT('Origin',(82.3704895708757,22.6698729810775,-3.64899999999972));
#1592=CARTESIAN_POINT('',(82.3704895708662,22.6698729810625,-4.64899999999972));
#1593=CARTESIAN_POINT('',(82.3704895708912,22.6698729811058,-1.82449999984834));
#1594=CARTESIAN_POINT('',(76.3083117443751,26.1698729810625,-4.64899999999972));
#1595=CARTESIAN_POINT('',(82.3704895708668,22.6698729810622,-4.64899999999972));
#1596=CARTESIAN_POINT('',(76.3083117444001,26.1698729811058,-1.82450000044775));
#1597=CARTESIAN_POINT('Origin',(81.8704895708669,21.8038475772778,-4.64899999998202));
#1598=CARTESIAN_POINT('',(81.8704895708751,21.8038475772934,-3.64899999998202));
#1599=CARTESIAN_POINT('Origin',(81.8704895708663,21.8038475772781,-4.64899999998202));
#1600=CARTESIAN_POINT('',(75.808311744384,25.3038475772934,-3.64899999998203));
#1601=CARTESIAN_POINT('',(81.8704895708757,21.8038475772931,-3.64899999998202));
#1602=CARTESIAN_POINT('Origin',(75.8083117443749,25.3038475772782,-4.64899999998202));
#1603=CARTESIAN_POINT('Origin',(77.3704895708757,14.0096189432331,-3.64899999982276));
#1604=CARTESIAN_POINT('',(79.8704895708757,18.3397459621552,-3.64899999991124));
#1605=CARTESIAN_POINT('',(84.1515784841044,25.7548094715888,-3.64900000006276));
#1606=CARTESIAN_POINT('',(73.808311744384,21.8397459621556,-3.64899999991124));
#1607=CARTESIAN_POINT('',(78.3549451142526,19.2147459621554,-3.64899999991124));
#1608=CARTESIAN_POINT('',(61.1535859640079,-0.0788820453073585,-3.64899999946336));
#1609=CARTESIAN_POINT('Origin',(82.3704895708314,22.6698729810009,-8.64899999999972));
#1610=CARTESIAN_POINT('',(73.808311744384,21.8397459621556,-8.64899999991124));
#1611=CARTESIAN_POINT('',(63.6535859639637,4.2512449735382,-8.64899999955184));
#1612=CARTESIAN_POINT('',(79.8704895708756,18.3397459621553,-8.64899999991124));
#1613=CARTESIAN_POINT('',(78.3549451142525,19.2147459621554,-8.64899999991124));
#1614=CARTESIAN_POINT('',(86.6515784840602,30.0849364904343,-8.64900000015124));
#1615=CARTESIAN_POINT('Origin',(90.9326673973661,37.4999999999999,0.));
#1616=CARTESIAN_POINT('',(79.870489570875,18.3397459621556,-11.149));
#1617=CARTESIAN_POINT('',(79.870489570875,18.3397459621556,-4.0745));
#1618=CARTESIAN_POINT('',(83.120489570875,23.9689110867545,-11.149));
#1619=CARTESIAN_POINT('',(83.5265784841206,24.6722777168861,-11.149));
#1620=CARTESIAN_POINT('',(83.620489570875,24.8349364905389,-12.149));
#1621=CARTESIAN_POINT('Origin',(83.1204895708751,23.9689110867545,-12.149));
#1622=CARTESIAN_POINT('',(83.620489570875,24.8349364905389,-34.149));
#1623=CARTESIAN_POINT('',(83.620489570875,24.8349364905389,-5.5745));
#1624=CARTESIAN_POINT('',(83.120489570875,23.9689110867545,-35.149));
#1625=CARTESIAN_POINT('Origin',(83.1204895708751,23.9689110867545,-34.149));
#1626=CARTESIAN_POINT('',(79.870489570875,18.3397459621556,-35.149));
#1627=CARTESIAN_POINT('',(87.2765784841206,31.1674682452694,-35.149));
#1628=CARTESIAN_POINT('',(79.870489570875,18.3397459621556,-45.149));
#1629=CARTESIAN_POINT('',(79.870489570875,18.3397459621556,-4.0745));
#1630=CARTESIAN_POINT('',(90.932667397366,37.5,-45.149));
#1631=CARTESIAN_POINT('',(12.9903810567666,-97.5,-45.149));
#1632=CARTESIAN_POINT('',(90.9326673973661,37.5,-1.149));
#1633=CARTESIAN_POINT('',(90.9326673973661,37.5,0.));
#1634=CARTESIAN_POINT('',(79.870489570875,18.3397459621556,-1.149));
#1635=CARTESIAN_POINT('',(28.5904517573297,-70.479884944958,-1.149));
#1636=CARTESIAN_POINT('',(79.870489570875,18.3397459621556,-4.0745));
#1637=CARTESIAN_POINT('Origin',(76.8394006576295,20.0897459621556,-8.149));
#1638=CARTESIAN_POINT('',(73.808311744384,21.8397459621556,-11.149));
#1639=CARTESIAN_POINT('',(73.808311744384,21.8397459621556,-4.0745));
#1640=CARTESIAN_POINT('',(75.9733752538451,20.5897459621556,-11.149));
#1641=CARTESIAN_POINT('',(78.3549451142523,19.2147459621556,-11.149));
#1642=CARTESIAN_POINT('',(75.9733752538451,20.5897459621556,-35.149));
#1643=CARTESIAN_POINT('',(75.9733752538451,20.5897459621556,-15.649));
#1644=CARTESIAN_POINT('',(73.808311744384,21.8397459621556,-35.149));
#1645=CARTESIAN_POINT('',(78.3549451142523,19.2147459621556,-35.149));
#1646=CARTESIAN_POINT('',(73.808311744384,21.8397459621556,-45.149));
#1647=CARTESIAN_POINT('',(73.808311744384,21.8397459621556,-4.0745));
#1648=CARTESIAN_POINT('',(26.9497196717693,48.8935667091265,-45.149));
#1649=CARTESIAN_POINT('',(77.7054260614139,19.5897459621556,-35.149));
#1650=CARTESIAN_POINT('',(78.3549451142523,19.2147459621556,-35.149));
#1651=CARTESIAN_POINT('',(77.7054260614139,19.5897459621556,-11.149));
#1652=CARTESIAN_POINT('',(77.7054260614139,19.5897459621556,-15.649));
#1653=CARTESIAN_POINT('',(78.3549451142523,19.2147459621556,-11.149));
#1654=CARTESIAN_POINT('Origin',(76.8394006576295,20.0897459621556,-8.149));
#1655=CARTESIAN_POINT('',(73.808311744384,21.8397459621556,-1.149));
#1656=CARTESIAN_POINT('',(71.2596074653321,23.3112410637509,-1.149));
#1657=CARTESIAN_POINT('',(73.808311744384,21.8397459621556,-4.0745));
#1658=CARTESIAN_POINT('Origin',(-9.54910261727174,60.,-13.948527001029));
#1659=CARTESIAN_POINT('',(-9.54910261727174,53.,-12.948527001029));
#1660=CARTESIAN_POINT('',(-9.54910261727174,60.,-12.948527001029));
#1661=CARTESIAN_POINT('',(-10.5491026172717,53.,-13.948527001029));
#1662=CARTESIAN_POINT('Origin',(-9.54910261727174,53.,-13.948527001029));
#1663=CARTESIAN_POINT('',(-10.5491026172717,60.,-13.948527001029));
#1664=CARTESIAN_POINT('Origin',(30.5490999798568,60.,-12.948527001029));
#1665=CARTESIAN_POINT('',(29.5490999798568,53.,-12.948527001029));
#1666=CARTESIAN_POINT('',(29.5490999798568,60.,-12.948527001029));
#1667=CARTESIAN_POINT('',(48.1835153337371,53.,-12.948527001029));
#1668=CARTESIAN_POINT('Origin',(-9.54910261727174,60.,-32.3485270010292));
#1669=CARTESIAN_POINT('',(-10.5491026172717,53.,-32.3485270010292));
#1670=CARTESIAN_POINT('',(-10.5491026172717,60.,-32.3485270010292));
#1671=CARTESIAN_POINT('',(-9.54910261727174,53.,-33.3485270010292));
#1672=CARTESIAN_POINT('Origin',(-9.54910261727174,53.,-32.3485270010292));
#1673=CARTESIAN_POINT('',(-9.54910261727174,60.,-33.3485270010292));
#1674=CARTESIAN_POINT('Origin',(-10.5491026172717,60.,-12.948527001029));
#1675=CARTESIAN_POINT('',(-10.5491026172717,53.,-6.47426350051451));
#1676=CARTESIAN_POINT('Origin',(29.5490999798568,60.,-32.3485270010292));
#1677=CARTESIAN_POINT('',(29.5490999798568,53.,-33.3485270010292));
#1678=CARTESIAN_POINT('',(29.5490999798568,60.,-33.3485270010292));
#1679=CARTESIAN_POINT('',(30.5490999798568,53.,-32.3485270010292));
#1680=CARTESIAN_POINT('Origin',(29.5490999798568,53.,-32.3485270010292));
#1681=CARTESIAN_POINT('',(30.5490999798568,60.,-32.3485270010292));
#1682=CARTESIAN_POINT('Origin',(-10.5491026172717,60.,-33.3485270010292));
#1683=CARTESIAN_POINT('',(27.6344140351728,53.,-33.3485270010292));
#1684=CARTESIAN_POINT('Origin',(29.5490999798568,60.,-13.948527001029));
#1685=CARTESIAN_POINT('',(30.5490999798568,53.,-13.948527001029));
#1686=CARTESIAN_POINT('',(30.5490999798568,60.,-13.948527001029));
#1687=CARTESIAN_POINT('Origin',(29.5490999798568,53.,-13.948527001029));
#1688=CARTESIAN_POINT('Origin',(30.5490999798568,60.,-33.3485270010292));
#1689=CARTESIAN_POINT('',(30.5490999798568,53.,-16.6742635005146));
#1690=CARTESIAN_POINT('Origin',(-49.3179306876174,57.5,-34.149));
#1691=CARTESIAN_POINT('',(-49.3179306876174,55.5,-35.149));
#1692=CARTESIAN_POINT('',(-48.3179306876174,55.5,-34.149));
#1693=CARTESIAN_POINT('Origin',(-49.3179306876174,55.5,-34.149));
#1694=CARTESIAN_POINT('',(-49.3179306876174,53.,-35.149));
#1695=CARTESIAN_POINT('',(-49.3179306876174,57.5,-35.149));
#1696=CARTESIAN_POINT('',(-48.3179306876174,53.,-34.149));
#1697=CARTESIAN_POINT('Origin',(-49.3179306876174,52.9999999999999,-34.149));
#1698=CARTESIAN_POINT('',(-48.3179306876174,57.5,-34.149));
#1699=CARTESIAN_POINT('Origin',(-48.3179306876174,57.5,-35.149));
#1700=CARTESIAN_POINT('',(-48.3179306876174,53.,-12.149));
#1701=CARTESIAN_POINT('',(-48.3179306876174,53.,-17.5745));
#1702=CARTESIAN_POINT('',(-48.3179306876174,55.5,-12.149));
#1703=CARTESIAN_POINT('',(-48.3179306876174,57.5,-12.149));
#1704=CARTESIAN_POINT('',(-48.3179306876174,55.5,-29.149));
#1705=CARTESIAN_POINT('Origin',(-49.3179306876174,57.5,-12.149));
#1706=CARTESIAN_POINT('',(-49.3179306876174,55.5,-11.149));
#1707=CARTESIAN_POINT('Origin',(-49.3179306876174,55.5,-12.149));
#1708=CARTESIAN_POINT('',(-49.3179306876174,53.,-11.149));
#1709=CARTESIAN_POINT('Origin',(-49.3179306876174,53.,-12.149));
#1710=CARTESIAN_POINT('',(-49.3179306876174,57.5,-11.149));
#1711=CARTESIAN_POINT('Origin',(-55.8179306876173,57.5,-11.149));
#1712=CARTESIAN_POINT('',(5.00000000000002,53.,-11.149));
#1713=CARTESIAN_POINT('',(-55.8179306876174,55.5,-11.149));
#1714=CARTESIAN_POINT('Origin',(-49.3179306876174,60.,-34.149));
#1715=CARTESIAN_POINT('',(-48.3179306876174,57.5,-34.149));
#1716=CARTESIAN_POINT('',(-49.3179306876174,57.5,-35.149));
#1717=CARTESIAN_POINT('Origin',(-49.3179306876174,57.5,-34.149));
#1718=CARTESIAN_POINT('',(-48.3179306876174,60.,-34.149));
#1719=CARTESIAN_POINT('',(-49.3179306876174,60.,-35.149));
#1720=CARTESIAN_POINT('Origin',(-63.3179306876174,60.,-35.149));
#1721=CARTESIAN_POINT('',(-48.3179306876174,57.5,-35.149));
#1722=CARTESIAN_POINT('Origin',(-49.3179306876174,60.,-12.149));
#1723=CARTESIAN_POINT('',(-49.3179306876174,57.5,-11.149));
#1724=CARTESIAN_POINT('',(-48.3179306876174,57.5,-12.149));
#1725=CARTESIAN_POINT('Origin',(-49.3179306876174,57.5,-12.149));
#1726=CARTESIAN_POINT('',(-49.3179306876174,60.,-11.149));
#1727=CARTESIAN_POINT('',(-48.3179306876174,60.,-12.149));
#1728=CARTESIAN_POINT('Origin',(-48.3179306876174,60.,-35.149));
#1729=CARTESIAN_POINT('',(-48.3179306876174,57.5,-11.149));
#1730=CARTESIAN_POINT('Origin',(-63.3179306876174,57.5,-35.149));
#1731=CARTESIAN_POINT('',(-55.8179306876174,55.5,-35.149));
#1732=CARTESIAN_POINT('',(1.25000000000001,53.,-35.149));
#1733=CARTESIAN_POINT('Origin',(-55.8179306876174,55.5,-23.149));
#1734=CARTESIAN_POINT('Origin',(65.8179306876174,53.,0.));
#1735=CARTESIAN_POINT('',(65.8179306876174,53.,-45.149));
#1736=CARTESIAN_POINT('',(65.8179306876174,53.,-45.149));
#1737=CARTESIAN_POINT('',(65.8179306876174,53.,-1.149));
#1738=CARTESIAN_POINT('',(65.8179306876174,53.,0.));
#1739=CARTESIAN_POINT('',(-30.8855714175118,53.,-1.149));
#1740=CARTESIAN_POINT('Origin',(-48.3179306876174,60.,-11.149));
#1741=CARTESIAN_POINT('',(-63.3179306876174,57.5,-11.149));
#1742=CARTESIAN_POINT('Origin',(-55.8179306876174,57.5,-23.149));
#1743=CARTESIAN_POINT('Origin',(83.120489570875,23.9689110867545,-12.149));
#1744=CARTESIAN_POINT('',(79.2233752538451,26.2189110867545,-11.149));
#1745=CARTESIAN_POINT('',(79.7233752538451,27.0849364905389,-12.149));
#1746=CARTESIAN_POINT('Origin',(79.2233752538451,26.2189110867545,-12.149));
#1747=CARTESIAN_POINT('',(77.058311744384,27.4689110867545,-11.149));
#1748=CARTESIAN_POINT('',(83.120489570875,23.9689110867545,-11.149));
#1749=CARTESIAN_POINT('',(77.558311744384,28.3349364905389,-12.149));
#1750=CARTESIAN_POINT('Origin',(77.058311744384,27.4689110867545,-12.149));
#1751=CARTESIAN_POINT('',(83.620489570875,24.8349364905389,-12.149));
#1752=CARTESIAN_POINT('Origin',(75.9733752538451,20.5897459621556,-23.149));
#1753=CARTESIAN_POINT('',(79.7233752538451,27.0849364905389,-34.149));
#1754=CARTESIAN_POINT('',(79.7233752538451,27.0849364905389,-17.149));
#1755=CARTESIAN_POINT('',(79.2233752538451,26.2189110867545,-35.149));
#1756=CARTESIAN_POINT('Origin',(79.2233752538451,26.2189110867545,-34.149));
#1757=CARTESIAN_POINT('',(77.8483752538451,23.8373412263472,-35.149));
#1758=CARTESIAN_POINT('',(74.0983752538451,17.342150697964,-11.149));
#1759=CARTESIAN_POINT('Origin',(83.620489570875,24.8349364905389,-11.149));
#1760=CARTESIAN_POINT('',(77.558311744384,28.3349364905389,-34.149));
#1761=CARTESIAN_POINT('',(77.558311744384,28.3349364905389,-5.5745));
#1762=CARTESIAN_POINT('',(83.620489570875,24.8349364905389,-34.149));
#1763=CARTESIAN_POINT('Origin',(83.120489570875,23.9689110867545,-34.149));
#1764=CARTESIAN_POINT('',(77.058311744384,27.4689110867545,-35.149));
#1765=CARTESIAN_POINT('Origin',(77.058311744384,27.4689110867545,-34.149));
#1766=CARTESIAN_POINT('',(83.120489570875,23.9689110867545,-35.149));
#1767=CARTESIAN_POINT('Origin',(83.620489570875,24.8349364905389,-35.149));
#1768=CARTESIAN_POINT('',(64.2785859640241,5.33377672837331,-35.149));
#1769=CARTESIAN_POINT('Origin',(76.120489570875,11.8445554337723,-11.149));
#1770=CARTESIAN_POINT('',(60.5285859640241,-1.16141380000998,-11.149));
#1771=CARTESIAN_POINT('Origin',(83.120489570875,23.9689110867545,-34.149));
#1772=CARTESIAN_POINT('',(80.9554260614139,25.2189110867545,-35.149));
#1773=CARTESIAN_POINT('',(81.4554260614139,26.0849364905389,-34.149));
#1774=CARTESIAN_POINT('Origin',(80.9554260614139,25.2189110867545,-34.149));
#1775=CARTESIAN_POINT('',(83.120489570875,23.9689110867545,-35.149));
#1776=CARTESIAN_POINT('',(83.620489570875,24.8349364905389,-34.149));
#1777=CARTESIAN_POINT('Origin',(77.7054260614139,19.5897459621556,-23.149));
#1778=CARTESIAN_POINT('',(81.4554260614139,26.0849364905389,-12.149));
#1779=CARTESIAN_POINT('',(81.4554260614139,26.0849364905389,-11.149));
#1780=CARTESIAN_POINT('',(80.9554260614139,25.2189110867545,-11.149));
#1781=CARTESIAN_POINT('Origin',(80.9554260614139,25.2189110867545,-12.149));
#1782=CARTESIAN_POINT('',(73.9554260614139,13.0945554337723,-11.149));
#1783=CARTESIAN_POINT('',(81.4554260614139,26.0849364905389,-35.149));
#1784=CARTESIAN_POINT('Origin',(83.620489570875,24.8349364905389,-11.149));
#1785=CARTESIAN_POINT('',(83.620489570875,24.8349364905389,-12.149));
#1786=CARTESIAN_POINT('Origin',(83.120489570875,23.9689110867545,-12.149));
#1787=CARTESIAN_POINT('',(83.120489570875,23.9689110867545,-11.149));
#1788=CARTESIAN_POINT('Origin',(65.8179306876174,38.,0.));
#1789=CARTESIAN_POINT('',(78.808311744384,30.5,-45.149));
#1790=CARTESIAN_POINT('Origin',(65.8179306876174,38.,-45.149));
#1791=CARTESIAN_POINT('',(78.808311744384,30.5,-1.149));
#1792=CARTESIAN_POINT('',(78.808311744384,30.5,0.));
#1793=CARTESIAN_POINT('Origin',(65.8179306876174,38.,-1.149));
#1794=CARTESIAN_POINT('Origin',(77.9422863405995,45.,0.));
#1795=CARTESIAN_POINT('Origin',(77.9422863405995,45.,-45.149));
#1796=CARTESIAN_POINT('Origin',(77.9422863405995,45.,-1.149));
#1797=CARTESIAN_POINT('Origin',(83.620489570875,24.8349364905389,-35.149));
#1798=CARTESIAN_POINT('Origin',(76.120489570875,11.8445554337723,-11.149));
#1799=CARTESIAN_POINT('Origin',(50.9988601836642,-17.6673830337923,0.));
#1800=CARTESIAN_POINT('',(60.3492502450185,-1.47203237693954,-1.149));
#1801=CARTESIAN_POINT('',(12.9903810567666,-83.5,-45.149));
#1802=CARTESIAN_POINT('Origin',(-51.571143058541,28.1067259939711,-45.149));
#1803=CARTESIAN_POINT('Origin',(61.5711428350236,19.4163084831039,-1.149));
#1804=UNCERTAINTY_MEASURE_WITH_UNIT(LENGTH_MEASURE(0.01),#1808,
'DISTANCE_ACCURACY_VALUE',
'Maximum model space distance between geometric entities at asserted c
onnectivities');
#1805=UNCERTAINTY_MEASURE_WITH_UNIT(LENGTH_MEASURE(0.01),#1808,
'DISTANCE_ACCURACY_VALUE',
'Maximum model space distance between geometric entities at asserted c
onnectivities');
#1806=(
GEOMETRIC_REPRESENTATION_CONTEXT(3)
GLOBAL_UNCERTAINTY_ASSIGNED_CONTEXT((#1804))
GLOBAL_UNIT_ASSIGNED_CONTEXT((#1808,#1810,#1811))
REPRESENTATION_CONTEXT('','3D')
);
#1807=(
GEOMETRIC_REPRESENTATION_CONTEXT(3)
GLOBAL_UNCERTAINTY_ASSIGNED_CONTEXT((#1805))
GLOBAL_UNIT_ASSIGNED_CONTEXT((#1808,#1810,#1811))
REPRESENTATION_CONTEXT('','3D')
);
#1808=(
LENGTH_UNIT()
NAMED_UNIT(*)
SI_UNIT(.MILLI.,.METRE.)
);
#1809=(
LENGTH_UNIT()
NAMED_UNIT(*)
SI_UNIT($,.METRE.)
);
#1810=(
NAMED_UNIT(*)
PLANE_ANGLE_UNIT()
SI_UNIT($,.RADIAN.)
);
#1811=(
NAMED_UNIT(*)
SI_UNIT($,.STERADIAN.)
SOLID_ANGLE_UNIT()
);
#1812=SHAPE_DEFINITION_REPRESENTATION(#1813,#1814);
#1813=PRODUCT_DEFINITION_SHAPE('',$,#1816);
#1814=SHAPE_REPRESENTATION('',(#1096),#1806);
#1815=PRODUCT_DEFINITION_CONTEXT('part definition',#1820,'design');
#1816=PRODUCT_DEFINITION('2026-06-20-16-37-06-007','FusionComponent',#1817,
#1815);
#1817=PRODUCT_DEFINITION_FORMATION('',$,#1822);
#1818=PRODUCT_RELATED_PRODUCT_CATEGORY('FusionComponent',
'FusionComponent',(#1822));
#1819=APPLICATION_PROTOCOL_DEFINITION('international standard',
'automotive_design',2009,#1820);
#1820=APPLICATION_CONTEXT(
'Core Data for Automotive Mechanical Design Process');
#1821=PRODUCT_CONTEXT('part definition',#1820,'mechanical');
#1822=PRODUCT('2026-06-20-16-37-06-007','FusionComponent',$,(#1821));
#1823=PRESENTATION_STYLE_ASSIGNMENT((#1824));
#1824=SURFACE_STYLE_USAGE(.BOTH.,#1825);
#1825=SURFACE_SIDE_STYLE('',(#1826));
#1826=SURFACE_STYLE_FILL_AREA(#1827);
#1827=FILL_AREA_STYLE('Steel - Satin',(#1828));
#1828=FILL_AREA_STYLE_COLOUR('Steel - Satin',#1829);
#1829=COLOUR_RGB('Steel - Satin',0.627450980392157,0.627450980392157,0.627450980392157);
ENDSEC;
END-ISO-10303-21;
