ISO-10303-21;
HEADER;
/* Generated by software containing ST-Developer
 * from STEP Tools, Inc. (www.steptools.com) 
 */

FILE_DESCRIPTION(
/* description */ (''),
/* implementation_level */ '2;1');

FILE_NAME(
/* name */ 'Spring Holder x3.step',
/* time_stamp */ '2026-06-20T16:45:31-05:00',
/* author */ (''),
/* organization */ (''),
/* preprocessor_version */ 'ST-DEVELOPER v20.1',
/* originating_system */ 'Autodesk Translation Framework v15.8.0.0',
/* authorisation */ '');

FILE_SCHEMA (('AUTOMOTIVE_DESIGN { 1 0 10303 214 3 1 1 }'));
ENDSEC;

DATA;
#10=MECHANICAL_DESIGN_GEOMETRIC_PRESENTATION_REPRESENTATION('',(#17),#1148);
#11=SHAPE_REPRESENTATION_RELATIONSHIP('SRR','None',#1158,#12);
#12=ADVANCED_BREP_SHAPE_REPRESENTATION('',(#18),#1146);
#13=ITEM_DEFINED_TRANSFORMATION($,$,#676,#742);
#14=(
REPRESENTATION_RELATIONSHIP($,$,#1159,#1158)
REPRESENTATION_RELATIONSHIP_WITH_TRANSFORMATION(#13)
SHAPE_REPRESENTATION_RELATIONSHIP()
);
#15=CONTEXT_DEPENDENT_SHAPE_REPRESENTATION(#14,#1157);
#16=NEXT_ASSEMBLY_USAGE_OCCURRENCE('Component2:1','Component2:1',
'Component2:1',#1161,#1162,'Component2:1');
#17=STYLED_ITEM('',(#1172),#18);
#18=MANIFOLD_SOLID_BREP('Body1',#662);
#19=B_SPLINE_CURVE_WITH_KNOTS('',3,(#1089,#1090,#1091,#1092,#1093,#1094),
 .UNSPECIFIED.,.F.,.F.,(4,2,4),(1.81979176948595,1.8224221328356,1.86800849812381),
 .UNSPECIFIED.);
#20=B_SPLINE_CURVE_WITH_KNOTS('',3,(#1097,#1098,#1099,#1100,#1101,#1102),
 .UNSPECIFIED.,.F.,.F.,(4,2,4),(1.08278772127949,1.1283740865677,1.13100444991714),
 .UNSPECIFIED.);
#21=FACE_BOUND('',#85,.T.);
#22=FACE_BOUND('',#86,.T.);
#23=FACE_BOUND('',#113,.T.);
#24=FACE_BOUND('',#118,.T.);
#25=PLANE('',#680);
#26=PLANE('',#684);
#27=PLANE('',#685);
#28=PLANE('',#686);
#29=PLANE('',#691);
#30=PLANE('',#695);
#31=PLANE('',#701);
#32=PLANE('',#704);
#33=PLANE('',#707);
#34=PLANE('',#708);
#35=PLANE('',#709);
#36=PLANE('',#710);
#37=PLANE('',#713);
#38=PLANE('',#719);
#39=PLANE('',#722);
#40=PLANE('',#724);
#41=PLANE('',#732);
#42=PLANE('',#733);
#43=PLANE('',#738);
#44=PLANE('',#741);
#45=FACE_OUTER_BOUND('',#80,.T.);
#46=FACE_OUTER_BOUND('',#81,.T.);
#47=FACE_OUTER_BOUND('',#82,.T.);
#48=FACE_OUTER_BOUND('',#83,.T.);
#49=FACE_OUTER_BOUND('',#84,.T.);
#50=FACE_OUTER_BOUND('',#87,.T.);
#51=FACE_OUTER_BOUND('',#88,.T.);
#52=FACE_OUTER_BOUND('',#89,.T.);
#53=FACE_OUTER_BOUND('',#90,.T.);
#54=FACE_OUTER_BOUND('',#91,.T.);
#55=FACE_OUTER_BOUND('',#92,.T.);
#56=FACE_OUTER_BOUND('',#93,.T.);
#57=FACE_OUTER_BOUND('',#94,.T.);
#58=FACE_OUTER_BOUND('',#95,.T.);
#59=FACE_OUTER_BOUND('',#96,.T.);
#60=FACE_OUTER_BOUND('',#97,.T.);
#61=FACE_OUTER_BOUND('',#98,.T.);
#62=FACE_OUTER_BOUND('',#99,.T.);
#63=FACE_OUTER_BOUND('',#100,.T.);
#64=FACE_OUTER_BOUND('',#101,.T.);
#65=FACE_OUTER_BOUND('',#102,.T.);
#66=FACE_OUTER_BOUND('',#103,.T.);
#67=FACE_OUTER_BOUND('',#104,.T.);
#68=FACE_OUTER_BOUND('',#105,.T.);
#69=FACE_OUTER_BOUND('',#106,.T.);
#70=FACE_OUTER_BOUND('',#107,.T.);
#71=FACE_OUTER_BOUND('',#108,.T.);
#72=FACE_OUTER_BOUND('',#109,.T.);
#73=FACE_OUTER_BOUND('',#110,.T.);
#74=FACE_OUTER_BOUND('',#111,.T.);
#75=FACE_OUTER_BOUND('',#112,.T.);
#76=FACE_OUTER_BOUND('',#114,.T.);
#77=FACE_OUTER_BOUND('',#115,.T.);
#78=FACE_OUTER_BOUND('',#116,.T.);
#79=FACE_OUTER_BOUND('',#117,.T.);
#80=EDGE_LOOP('',(#426,#427,#428,#429));
#81=EDGE_LOOP('',(#430));
#82=EDGE_LOOP('',(#431,#432,#433,#434));
#83=EDGE_LOOP('',(#435));
#84=EDGE_LOOP('',(#436,#437,#438,#439));
#85=EDGE_LOOP('',(#440));
#86=EDGE_LOOP('',(#441));
#87=EDGE_LOOP('',(#442,#443,#444,#445,#446,#447,#448,#449,#450,#451,#452,
#453,#454,#455,#456,#457));
#88=EDGE_LOOP('',(#458,#459,#460,#461,#462,#463,#464,#465,#466));
#89=EDGE_LOOP('',(#467,#468,#469,#470,#471,#472,#473,#474,#475));
#90=EDGE_LOOP('',(#476,#477,#478,#479));
#91=EDGE_LOOP('',(#480,#481,#482,#483,#484,#485,#486,#487));
#92=EDGE_LOOP('',(#488,#489,#490,#491));
#93=EDGE_LOOP('',(#492,#493,#494,#495));
#94=EDGE_LOOP('',(#496,#497,#498,#499));
#95=EDGE_LOOP('',(#500,#501,#502,#503));
#96=EDGE_LOOP('',(#504,#505,#506,#507));
#97=EDGE_LOOP('',(#508,#509,#510,#511,#512,#513,#514,#515));
#98=EDGE_LOOP('',(#516,#517,#518,#519,#520,#521,#522,#523,#524,#525,#526,
#527,#528,#529));
#99=EDGE_LOOP('',(#530,#531,#532,#533,#534));
#100=EDGE_LOOP('',(#535,#536,#537,#538));
#101=EDGE_LOOP('',(#539,#540,#541,#542,#543));
#102=EDGE_LOOP('',(#544,#545,#546,#547));
#103=EDGE_LOOP('',(#548,#549,#550,#551));
#104=EDGE_LOOP('',(#552,#553,#554,#555));
#105=EDGE_LOOP('',(#556,#557,#558,#559));
#106=EDGE_LOOP('',(#560,#561,#562,#563,#564));
#107=EDGE_LOOP('',(#565,#566,#567,#568,#569));
#108=EDGE_LOOP('',(#570,#571,#572,#573));
#109=EDGE_LOOP('',(#574,#575,#576,#577));
#110=EDGE_LOOP('',(#578,#579,#580,#581));
#111=EDGE_LOOP('',(#582,#583,#584,#585));
#112=EDGE_LOOP('',(#586,#587,#588,#589,#590,#591));
#113=EDGE_LOOP('',(#592));
#114=EDGE_LOOP('',(#593,#594,#595,#596));
#115=EDGE_LOOP('',(#597,#598,#599,#600));
#116=EDGE_LOOP('',(#601,#602,#603,#604));
#117=EDGE_LOOP('',(#605,#606,#607,#608,#609,#610));
#118=EDGE_LOOP('',(#611));
#119=LINE('',#946,#180);
#120=LINE('',#953,#181);
#121=LINE('',#959,#182);
#122=LINE('',#961,#183);
#123=LINE('',#963,#184);
#124=LINE('',#964,#185);
#125=LINE('',#967,#186);
#126=LINE('',#969,#187);
#127=LINE('',#971,#188);
#128=LINE('',#975,#189);
#129=LINE('',#979,#190);
#130=LINE('',#981,#191);
#131=LINE('',#983,#192);
#132=LINE('',#987,#193);
#133=LINE('',#991,#194);
#134=LINE('',#993,#195);
#135=LINE('',#994,#196);
#136=LINE('',#997,#197);
#137=LINE('',#1001,#198);
#138=LINE('',#1005,#199);
#139=LINE('',#1007,#200);
#140=LINE('',#1013,#201);
#141=LINE('',#1015,#202);
#142=LINE('',#1019,#203);
#143=LINE('',#1022,#204);
#144=LINE('',#1025,#205);
#145=LINE('',#1028,#206);
#146=LINE('',#1031,#207);
#147=LINE('',#1033,#208);
#148=LINE('',#1036,#209);
#149=LINE('',#1039,#210);
#150=LINE('',#1041,#211);
#151=LINE('',#1046,#212);
#152=LINE('',#1047,#213);
#153=LINE('',#1050,#214);
#154=LINE('',#1051,#215);
#155=LINE('',#1054,#216);
#156=LINE('',#1055,#217);
#157=LINE('',#1057,#218);
#158=LINE('',#1060,#219);
#159=LINE('',#1063,#220);
#160=LINE('',#1067,#221);
#161=LINE('',#1071,#222);
#162=LINE('',#1075,#223);
#163=LINE('',#1077,#224);
#164=LINE('',#1079,#225);
#165=LINE('',#1083,#226);
#166=LINE('',#1086,#227);
#167=LINE('',#1088,#228);
#168=LINE('',#1103,#229);
#169=LINE('',#1105,#230);
#170=LINE('',#1106,#231);
#171=LINE('',#1108,#232);
#172=LINE('',#1110,#233);
#173=LINE('',#1111,#234);
#174=LINE('',#1113,#235);
#175=LINE('',#1123,#236);
#176=LINE('',#1126,#237);
#177=LINE('',#1128,#238);
#178=LINE('',#1129,#239);
#179=LINE('',#1140,#240);
#180=VECTOR('',#751,0.499999999999998);
#181=VECTOR('',#760,0.5);
#182=VECTOR('',#767,10.);
#183=VECTOR('',#768,10.);
#184=VECTOR('',#769,10.);
#185=VECTOR('',#770,10.);
#186=VECTOR('',#773,10.);
#187=VECTOR('',#774,10.);
#188=VECTOR('',#775,10.);
#189=VECTOR('',#778,10.);
#190=VECTOR('',#781,10.);
#191=VECTOR('',#782,10.);
#192=VECTOR('',#783,10.);
#193=VECTOR('',#786,10.);
#194=VECTOR('',#789,10.);
#195=VECTOR('',#790,10.);
#196=VECTOR('',#791,10.);
#197=VECTOR('',#794,10.);
#198=VECTOR('',#797,10.);
#199=VECTOR('',#800,10.);
#200=VECTOR('',#801,10.);
#201=VECTOR('',#808,10.);
#202=VECTOR('',#809,10.);
#203=VECTOR('',#812,10.);
#204=VECTOR('',#815,10.);
#205=VECTOR('',#818,10.);
#206=VECTOR('',#821,10.);
#207=VECTOR('',#824,10.);
#208=VECTOR('',#825,10.);
#209=VECTOR('',#828,10.);
#210=VECTOR('',#831,10.);
#211=VECTOR('',#834,10.);
#212=VECTOR('',#839,10.);
#213=VECTOR('',#840,10.);
#214=VECTOR('',#843,10.);
#215=VECTOR('',#844,10.);
#216=VECTOR('',#847,10.);
#217=VECTOR('',#848,10.);
#218=VECTOR('',#851,10.);
#219=VECTOR('',#854,10.);
#220=VECTOR('',#857,10.);
#221=VECTOR('',#862,10.);
#222=VECTOR('',#865,10.);
#223=VECTOR('',#868,10.);
#224=VECTOR('',#869,10.);
#225=VECTOR('',#870,10.);
#226=VECTOR('',#873,10.);
#227=VECTOR('',#876,10.);
#228=VECTOR('',#879,10.);
#229=VECTOR('',#884,10.);
#230=VECTOR('',#887,10.);
#231=VECTOR('',#888,10.);
#232=VECTOR('',#891,10.);
#233=VECTOR('',#894,10.);
#234=VECTOR('',#895,10.);
#235=VECTOR('',#898,10.);
#236=VECTOR('',#913,10.);
#237=VECTOR('',#916,10.);
#238=VECTOR('',#917,10.);
#239=VECTOR('',#918,10.);
#240=VECTOR('',#935,0.499999999999998);
#241=CIRCLE('',#678,0.499999999999998);
#242=CIRCLE('',#679,0.499999999999998);
#243=CIRCLE('',#682,0.5);
#244=CIRCLE('',#683,0.5);
#245=CIRCLE('',#687,2.5);
#246=CIRCLE('',#688,1.);
#247=CIRCLE('',#689,1.);
#248=CIRCLE('',#690,2.5);
#249=CIRCLE('',#692,2.5);
#250=CIRCLE('',#693,2.5);
#251=CIRCLE('',#694,2.5);
#252=CIRCLE('',#696,2.5);
#253=CIRCLE('',#697,2.5);
#254=CIRCLE('',#698,2.5);
#255=CIRCLE('',#700,2.5);
#256=CIRCLE('',#702,2.5);
#257=CIRCLE('',#703,2.5);
#258=CIRCLE('',#706,2.5);
#259=CIRCLE('',#711,2.5);
#260=CIRCLE('',#712,2.5);
#261=CIRCLE('',#714,2.5);
#262=CIRCLE('',#715,1.);
#263=CIRCLE('',#716,1.);
#264=CIRCLE('',#717,2.5);
#265=CIRCLE('',#730,2.5);
#266=CIRCLE('',#731,2.5);
#267=CIRCLE('',#734,2.5);
#268=CIRCLE('',#735,0.499999999999998);
#269=CIRCLE('',#737,2.5);
#270=CIRCLE('',#740,0.499999999999998);
#271=VERTEX_POINT('',#943);
#272=VERTEX_POINT('',#945);
#273=VERTEX_POINT('',#950);
#274=VERTEX_POINT('',#952);
#275=VERTEX_POINT('',#957);
#276=VERTEX_POINT('',#958);
#277=VERTEX_POINT('',#960);
#278=VERTEX_POINT('',#962);
#279=VERTEX_POINT('',#966);
#280=VERTEX_POINT('',#968);
#281=VERTEX_POINT('',#970);
#282=VERTEX_POINT('',#972);
#283=VERTEX_POINT('',#974);
#284=VERTEX_POINT('',#976);
#285=VERTEX_POINT('',#978);
#286=VERTEX_POINT('',#980);
#287=VERTEX_POINT('',#982);
#288=VERTEX_POINT('',#984);
#289=VERTEX_POINT('',#986);
#290=VERTEX_POINT('',#988);
#291=VERTEX_POINT('',#990);
#292=VERTEX_POINT('',#992);
#293=VERTEX_POINT('',#996);
#294=VERTEX_POINT('',#998);
#295=VERTEX_POINT('',#1000);
#296=VERTEX_POINT('',#1002);
#297=VERTEX_POINT('',#1004);
#298=VERTEX_POINT('',#1006);
#299=VERTEX_POINT('',#1010);
#300=VERTEX_POINT('',#1012);
#301=VERTEX_POINT('',#1014);
#302=VERTEX_POINT('',#1016);
#303=VERTEX_POINT('',#1018);
#304=VERTEX_POINT('',#1020);
#305=VERTEX_POINT('',#1024);
#306=VERTEX_POINT('',#1026);
#307=VERTEX_POINT('',#1030);
#308=VERTEX_POINT('',#1032);
#309=VERTEX_POINT('',#1035);
#310=VERTEX_POINT('',#1037);
#311=VERTEX_POINT('',#1043);
#312=VERTEX_POINT('',#1044);
#313=VERTEX_POINT('',#1049);
#314=VERTEX_POINT('',#1053);
#315=VERTEX_POINT('',#1059);
#316=VERTEX_POINT('',#1061);
#317=VERTEX_POINT('',#1066);
#318=VERTEX_POINT('',#1068);
#319=VERTEX_POINT('',#1070);
#320=VERTEX_POINT('',#1072);
#321=VERTEX_POINT('',#1074);
#322=VERTEX_POINT('',#1076);
#323=VERTEX_POINT('',#1078);
#324=VERTEX_POINT('',#1080);
#325=VERTEX_POINT('',#1082);
#326=VERTEX_POINT('',#1084);
#327=VERTEX_POINT('',#1119);
#328=VERTEX_POINT('',#1121);
#329=VERTEX_POINT('',#1125);
#330=VERTEX_POINT('',#1127);
#331=VERTEX_POINT('',#1132);
#332=VERTEX_POINT('',#1138);
#333=EDGE_CURVE('',#271,#271,#241,.T.);
#334=EDGE_CURVE('',#271,#272,#119,.T.);
#335=EDGE_CURVE('',#272,#272,#242,.T.);
#336=EDGE_CURVE('',#273,#273,#243,.T.);
#337=EDGE_CURVE('',#273,#274,#120,.T.);
#338=EDGE_CURVE('',#274,#274,#244,.T.);
#339=EDGE_CURVE('',#275,#276,#121,.T.);
#340=EDGE_CURVE('',#277,#275,#122,.T.);
#341=EDGE_CURVE('',#278,#277,#123,.T.);
#342=EDGE_CURVE('',#276,#278,#124,.T.);
#343=EDGE_CURVE('',#275,#279,#125,.T.);
#344=EDGE_CURVE('',#280,#279,#126,.T.);
#345=EDGE_CURVE('',#281,#280,#127,.T.);
#346=EDGE_CURVE('',#282,#281,#245,.T.);
#347=EDGE_CURVE('',#282,#283,#128,.T.);
#348=EDGE_CURVE('',#284,#283,#246,.T.);
#349=EDGE_CURVE('',#284,#285,#129,.T.);
#350=EDGE_CURVE('',#286,#285,#130,.T.);
#351=EDGE_CURVE('',#286,#287,#131,.T.);
#352=EDGE_CURVE('',#288,#287,#247,.T.);
#353=EDGE_CURVE('',#288,#289,#132,.T.);
#354=EDGE_CURVE('',#290,#289,#248,.T.);
#355=EDGE_CURVE('',#291,#290,#133,.T.);
#356=EDGE_CURVE('',#292,#291,#134,.T.);
#357=EDGE_CURVE('',#277,#292,#135,.T.);
#358=EDGE_CURVE('',#293,#276,#136,.T.);
#359=EDGE_CURVE('',#294,#293,#249,.T.);
#360=EDGE_CURVE('',#294,#295,#137,.T.);
#361=EDGE_CURVE('',#296,#295,#250,.T.);
#362=EDGE_CURVE('',#297,#296,#138,.T.);
#363=EDGE_CURVE('',#297,#298,#139,.T.);
#364=EDGE_CURVE('',#279,#298,#251,.T.);
#365=EDGE_CURVE('',#299,#292,#252,.T.);
#366=EDGE_CURVE('',#299,#300,#140,.T.);
#367=EDGE_CURVE('',#301,#300,#141,.T.);
#368=EDGE_CURVE('',#302,#301,#253,.T.);
#369=EDGE_CURVE('',#303,#302,#142,.T.);
#370=EDGE_CURVE('',#304,#303,#254,.T.);
#371=EDGE_CURVE('',#304,#278,#143,.T.);
#372=EDGE_CURVE('',#301,#305,#144,.T.);
#373=EDGE_CURVE('',#305,#306,#255,.T.);
#374=EDGE_CURVE('',#306,#302,#145,.T.);
#375=EDGE_CURVE('',#307,#305,#146,.T.);
#376=EDGE_CURVE('',#307,#308,#147,.T.);
#377=EDGE_CURVE('',#291,#308,#256,.T.);
#378=EDGE_CURVE('',#309,#290,#148,.F.);
#379=EDGE_CURVE('',#309,#310,#257,.F.);
#380=EDGE_CURVE('',#310,#306,#149,.T.);
#381=EDGE_CURVE('',#300,#307,#150,.T.);
#382=EDGE_CURVE('',#311,#312,#258,.T.);
#383=EDGE_CURVE('',#312,#296,#151,.T.);
#384=EDGE_CURVE('',#295,#311,#152,.T.);
#385=EDGE_CURVE('',#312,#313,#153,.T.);
#386=EDGE_CURVE('',#313,#297,#154,.T.);
#387=EDGE_CURVE('',#314,#313,#155,.T.);
#388=EDGE_CURVE('',#298,#314,#156,.T.);
#389=EDGE_CURVE('',#308,#299,#157,.T.);
#390=EDGE_CURVE('',#315,#311,#158,.T.);
#391=EDGE_CURVE('',#316,#315,#259,.T.);
#392=EDGE_CURVE('',#281,#316,#159,.T.);
#393=EDGE_CURVE('',#314,#280,#260,.T.);
#394=EDGE_CURVE('',#317,#304,#160,.T.);
#395=EDGE_CURVE('',#318,#317,#261,.T.);
#396=EDGE_CURVE('',#318,#319,#161,.T.);
#397=EDGE_CURVE('',#320,#319,#262,.T.);
#398=EDGE_CURVE('',#321,#320,#162,.T.);
#399=EDGE_CURVE('',#322,#321,#163,.T.);
#400=EDGE_CURVE('',#322,#323,#164,.T.);
#401=EDGE_CURVE('',#324,#323,#263,.T.);
#402=EDGE_CURVE('',#324,#325,#165,.T.);
#403=EDGE_CURVE('',#326,#325,#264,.T.);
#404=EDGE_CURVE('',#293,#326,#166,.T.);
#405=EDGE_CURVE('',#315,#294,#167,.T.);
#406=EDGE_CURVE('',#326,#316,#19,.T.);
#407=EDGE_CURVE('',#317,#309,#20,.F.);
#408=EDGE_CURVE('',#303,#310,#168,.T.);
#409=EDGE_CURVE('',#319,#288,#169,.T.);
#410=EDGE_CURVE('',#287,#320,#170,.T.);
#411=EDGE_CURVE('',#289,#318,#171,.T.);
#412=EDGE_CURVE('',#283,#324,#172,.T.);
#413=EDGE_CURVE('',#323,#284,#173,.T.);
#414=EDGE_CURVE('',#325,#282,#174,.T.);
#415=EDGE_CURVE('',#327,#286,#265,.T.);
#416=EDGE_CURVE('',#285,#328,#266,.T.);
#417=EDGE_CURVE('',#328,#327,#175,.T.);
#418=EDGE_CURVE('',#328,#329,#176,.T.);
#419=EDGE_CURVE('',#330,#329,#177,.T.);
#420=EDGE_CURVE('',#327,#330,#178,.T.);
#421=EDGE_CURVE('',#329,#322,#267,.T.);
#422=EDGE_CURVE('',#331,#331,#268,.T.);
#423=EDGE_CURVE('',#321,#330,#269,.T.);
#424=EDGE_CURVE('',#332,#332,#270,.T.);
#425=EDGE_CURVE('',#332,#331,#179,.T.);
#426=ORIENTED_EDGE('',*,*,#333,.F.);
#427=ORIENTED_EDGE('',*,*,#334,.T.);
#428=ORIENTED_EDGE('',*,*,#335,.T.);
#429=ORIENTED_EDGE('',*,*,#334,.F.);
#430=ORIENTED_EDGE('',*,*,#335,.F.);
#431=ORIENTED_EDGE('',*,*,#336,.F.);
#432=ORIENTED_EDGE('',*,*,#337,.T.);
#433=ORIENTED_EDGE('',*,*,#338,.T.);
#434=ORIENTED_EDGE('',*,*,#337,.F.);
#435=ORIENTED_EDGE('',*,*,#338,.F.);
#436=ORIENTED_EDGE('',*,*,#339,.F.);
#437=ORIENTED_EDGE('',*,*,#340,.F.);
#438=ORIENTED_EDGE('',*,*,#341,.F.);
#439=ORIENTED_EDGE('',*,*,#342,.F.);
#440=ORIENTED_EDGE('',*,*,#333,.T.);
#441=ORIENTED_EDGE('',*,*,#336,.T.);
#442=ORIENTED_EDGE('',*,*,#340,.T.);
#443=ORIENTED_EDGE('',*,*,#343,.T.);
#444=ORIENTED_EDGE('',*,*,#344,.F.);
#445=ORIENTED_EDGE('',*,*,#345,.F.);
#446=ORIENTED_EDGE('',*,*,#346,.F.);
#447=ORIENTED_EDGE('',*,*,#347,.T.);
#448=ORIENTED_EDGE('',*,*,#348,.F.);
#449=ORIENTED_EDGE('',*,*,#349,.T.);
#450=ORIENTED_EDGE('',*,*,#350,.F.);
#451=ORIENTED_EDGE('',*,*,#351,.T.);
#452=ORIENTED_EDGE('',*,*,#352,.F.);
#453=ORIENTED_EDGE('',*,*,#353,.T.);
#454=ORIENTED_EDGE('',*,*,#354,.F.);
#455=ORIENTED_EDGE('',*,*,#355,.F.);
#456=ORIENTED_EDGE('',*,*,#356,.F.);
#457=ORIENTED_EDGE('',*,*,#357,.F.);
#458=ORIENTED_EDGE('',*,*,#339,.T.);
#459=ORIENTED_EDGE('',*,*,#358,.F.);
#460=ORIENTED_EDGE('',*,*,#359,.F.);
#461=ORIENTED_EDGE('',*,*,#360,.T.);
#462=ORIENTED_EDGE('',*,*,#361,.F.);
#463=ORIENTED_EDGE('',*,*,#362,.F.);
#464=ORIENTED_EDGE('',*,*,#363,.T.);
#465=ORIENTED_EDGE('',*,*,#364,.F.);
#466=ORIENTED_EDGE('',*,*,#343,.F.);
#467=ORIENTED_EDGE('',*,*,#341,.T.);
#468=ORIENTED_EDGE('',*,*,#357,.T.);
#469=ORIENTED_EDGE('',*,*,#365,.F.);
#470=ORIENTED_EDGE('',*,*,#366,.T.);
#471=ORIENTED_EDGE('',*,*,#367,.F.);
#472=ORIENTED_EDGE('',*,*,#368,.F.);
#473=ORIENTED_EDGE('',*,*,#369,.F.);
#474=ORIENTED_EDGE('',*,*,#370,.F.);
#475=ORIENTED_EDGE('',*,*,#371,.T.);
#476=ORIENTED_EDGE('',*,*,#368,.T.);
#477=ORIENTED_EDGE('',*,*,#372,.T.);
#478=ORIENTED_EDGE('',*,*,#373,.T.);
#479=ORIENTED_EDGE('',*,*,#374,.T.);
#480=ORIENTED_EDGE('',*,*,#373,.F.);
#481=ORIENTED_EDGE('',*,*,#375,.F.);
#482=ORIENTED_EDGE('',*,*,#376,.T.);
#483=ORIENTED_EDGE('',*,*,#377,.F.);
#484=ORIENTED_EDGE('',*,*,#355,.T.);
#485=ORIENTED_EDGE('',*,*,#378,.F.);
#486=ORIENTED_EDGE('',*,*,#379,.T.);
#487=ORIENTED_EDGE('',*,*,#380,.T.);
#488=ORIENTED_EDGE('',*,*,#372,.F.);
#489=ORIENTED_EDGE('',*,*,#367,.T.);
#490=ORIENTED_EDGE('',*,*,#381,.T.);
#491=ORIENTED_EDGE('',*,*,#375,.T.);
#492=ORIENTED_EDGE('',*,*,#382,.T.);
#493=ORIENTED_EDGE('',*,*,#383,.T.);
#494=ORIENTED_EDGE('',*,*,#361,.T.);
#495=ORIENTED_EDGE('',*,*,#384,.T.);
#496=ORIENTED_EDGE('',*,*,#383,.F.);
#497=ORIENTED_EDGE('',*,*,#385,.T.);
#498=ORIENTED_EDGE('',*,*,#386,.T.);
#499=ORIENTED_EDGE('',*,*,#362,.T.);
#500=ORIENTED_EDGE('',*,*,#387,.F.);
#501=ORIENTED_EDGE('',*,*,#388,.F.);
#502=ORIENTED_EDGE('',*,*,#363,.F.);
#503=ORIENTED_EDGE('',*,*,#386,.F.);
#504=ORIENTED_EDGE('',*,*,#366,.F.);
#505=ORIENTED_EDGE('',*,*,#389,.F.);
#506=ORIENTED_EDGE('',*,*,#376,.F.);
#507=ORIENTED_EDGE('',*,*,#381,.F.);
#508=ORIENTED_EDGE('',*,*,#382,.F.);
#509=ORIENTED_EDGE('',*,*,#390,.F.);
#510=ORIENTED_EDGE('',*,*,#391,.F.);
#511=ORIENTED_EDGE('',*,*,#392,.F.);
#512=ORIENTED_EDGE('',*,*,#345,.T.);
#513=ORIENTED_EDGE('',*,*,#393,.F.);
#514=ORIENTED_EDGE('',*,*,#387,.T.);
#515=ORIENTED_EDGE('',*,*,#385,.F.);
#516=ORIENTED_EDGE('',*,*,#342,.T.);
#517=ORIENTED_EDGE('',*,*,#371,.F.);
#518=ORIENTED_EDGE('',*,*,#394,.F.);
#519=ORIENTED_EDGE('',*,*,#395,.F.);
#520=ORIENTED_EDGE('',*,*,#396,.T.);
#521=ORIENTED_EDGE('',*,*,#397,.F.);
#522=ORIENTED_EDGE('',*,*,#398,.F.);
#523=ORIENTED_EDGE('',*,*,#399,.F.);
#524=ORIENTED_EDGE('',*,*,#400,.T.);
#525=ORIENTED_EDGE('',*,*,#401,.F.);
#526=ORIENTED_EDGE('',*,*,#402,.T.);
#527=ORIENTED_EDGE('',*,*,#403,.F.);
#528=ORIENTED_EDGE('',*,*,#404,.F.);
#529=ORIENTED_EDGE('',*,*,#358,.T.);
#530=ORIENTED_EDGE('',*,*,#391,.T.);
#531=ORIENTED_EDGE('',*,*,#405,.T.);
#532=ORIENTED_EDGE('',*,*,#359,.T.);
#533=ORIENTED_EDGE('',*,*,#404,.T.);
#534=ORIENTED_EDGE('',*,*,#406,.T.);
#535=ORIENTED_EDGE('',*,*,#384,.F.);
#536=ORIENTED_EDGE('',*,*,#360,.F.);
#537=ORIENTED_EDGE('',*,*,#405,.F.);
#538=ORIENTED_EDGE('',*,*,#390,.T.);
#539=ORIENTED_EDGE('',*,*,#407,.F.);
#540=ORIENTED_EDGE('',*,*,#394,.T.);
#541=ORIENTED_EDGE('',*,*,#370,.T.);
#542=ORIENTED_EDGE('',*,*,#408,.T.);
#543=ORIENTED_EDGE('',*,*,#379,.F.);
#544=ORIENTED_EDGE('',*,*,#397,.T.);
#545=ORIENTED_EDGE('',*,*,#409,.T.);
#546=ORIENTED_EDGE('',*,*,#352,.T.);
#547=ORIENTED_EDGE('',*,*,#410,.T.);
#548=ORIENTED_EDGE('',*,*,#409,.F.);
#549=ORIENTED_EDGE('',*,*,#396,.F.);
#550=ORIENTED_EDGE('',*,*,#411,.F.);
#551=ORIENTED_EDGE('',*,*,#353,.F.);
#552=ORIENTED_EDGE('',*,*,#348,.T.);
#553=ORIENTED_EDGE('',*,*,#412,.T.);
#554=ORIENTED_EDGE('',*,*,#401,.T.);
#555=ORIENTED_EDGE('',*,*,#413,.T.);
#556=ORIENTED_EDGE('',*,*,#412,.F.);
#557=ORIENTED_EDGE('',*,*,#347,.F.);
#558=ORIENTED_EDGE('',*,*,#414,.F.);
#559=ORIENTED_EDGE('',*,*,#402,.F.);
#560=ORIENTED_EDGE('',*,*,#395,.T.);
#561=ORIENTED_EDGE('',*,*,#407,.T.);
#562=ORIENTED_EDGE('',*,*,#378,.T.);
#563=ORIENTED_EDGE('',*,*,#354,.T.);
#564=ORIENTED_EDGE('',*,*,#411,.T.);
#565=ORIENTED_EDGE('',*,*,#346,.T.);
#566=ORIENTED_EDGE('',*,*,#392,.T.);
#567=ORIENTED_EDGE('',*,*,#406,.F.);
#568=ORIENTED_EDGE('',*,*,#403,.T.);
#569=ORIENTED_EDGE('',*,*,#414,.T.);
#570=ORIENTED_EDGE('',*,*,#364,.T.);
#571=ORIENTED_EDGE('',*,*,#388,.T.);
#572=ORIENTED_EDGE('',*,*,#393,.T.);
#573=ORIENTED_EDGE('',*,*,#344,.T.);
#574=ORIENTED_EDGE('',*,*,#365,.T.);
#575=ORIENTED_EDGE('',*,*,#356,.T.);
#576=ORIENTED_EDGE('',*,*,#377,.T.);
#577=ORIENTED_EDGE('',*,*,#389,.T.);
#578=ORIENTED_EDGE('',*,*,#415,.T.);
#579=ORIENTED_EDGE('',*,*,#350,.T.);
#580=ORIENTED_EDGE('',*,*,#416,.T.);
#581=ORIENTED_EDGE('',*,*,#417,.T.);
#582=ORIENTED_EDGE('',*,*,#417,.F.);
#583=ORIENTED_EDGE('',*,*,#418,.T.);
#584=ORIENTED_EDGE('',*,*,#419,.F.);
#585=ORIENTED_EDGE('',*,*,#420,.F.);
#586=ORIENTED_EDGE('',*,*,#413,.F.);
#587=ORIENTED_EDGE('',*,*,#400,.F.);
#588=ORIENTED_EDGE('',*,*,#421,.F.);
#589=ORIENTED_EDGE('',*,*,#418,.F.);
#590=ORIENTED_EDGE('',*,*,#416,.F.);
#591=ORIENTED_EDGE('',*,*,#349,.F.);
#592=ORIENTED_EDGE('',*,*,#422,.F.);
#593=ORIENTED_EDGE('',*,*,#423,.T.);
#594=ORIENTED_EDGE('',*,*,#419,.T.);
#595=ORIENTED_EDGE('',*,*,#421,.T.);
#596=ORIENTED_EDGE('',*,*,#399,.T.);
#597=ORIENTED_EDGE('',*,*,#374,.F.);
#598=ORIENTED_EDGE('',*,*,#380,.F.);
#599=ORIENTED_EDGE('',*,*,#408,.F.);
#600=ORIENTED_EDGE('',*,*,#369,.T.);
#601=ORIENTED_EDGE('',*,*,#424,.F.);
#602=ORIENTED_EDGE('',*,*,#425,.T.);
#603=ORIENTED_EDGE('',*,*,#422,.T.);
#604=ORIENTED_EDGE('',*,*,#425,.F.);
#605=ORIENTED_EDGE('',*,*,#410,.F.);
#606=ORIENTED_EDGE('',*,*,#351,.F.);
#607=ORIENTED_EDGE('',*,*,#415,.F.);
#608=ORIENTED_EDGE('',*,*,#420,.T.);
#609=ORIENTED_EDGE('',*,*,#423,.F.);
#610=ORIENTED_EDGE('',*,*,#398,.T.);
#611=ORIENTED_EDGE('',*,*,#424,.T.);
#612=CYLINDRICAL_SURFACE('',#677,0.499999999999998);
#613=CYLINDRICAL_SURFACE('',#681,0.5);
#614=CYLINDRICAL_SURFACE('',#699,2.5);
#615=CYLINDRICAL_SURFACE('',#705,2.5);
#616=CYLINDRICAL_SURFACE('',#718,2.5);
#617=CYLINDRICAL_SURFACE('',#720,2.5);
#618=CYLINDRICAL_SURFACE('',#721,1.);
#619=CYLINDRICAL_SURFACE('',#723,1.);
#620=CYLINDRICAL_SURFACE('',#725,2.5);
#621=CYLINDRICAL_SURFACE('',#726,2.5);
#622=CYLINDRICAL_SURFACE('',#727,2.5);
#623=CYLINDRICAL_SURFACE('',#728,2.5);
#624=CYLINDRICAL_SURFACE('',#729,2.5);
#625=CYLINDRICAL_SURFACE('',#736,2.5);
#626=CYLINDRICAL_SURFACE('',#739,0.499999999999998);
#627=ADVANCED_FACE('',(#45),#612,.F.);
#628=ADVANCED_FACE('',(#46),#25,.T.);
#629=ADVANCED_FACE('',(#47),#613,.F.);
#630=ADVANCED_FACE('',(#48),#26,.T.);
#631=ADVANCED_FACE('',(#49,#21,#22),#27,.F.);
#632=ADVANCED_FACE('',(#50),#28,.T.);
#633=ADVANCED_FACE('',(#51),#29,.F.);
#634=ADVANCED_FACE('',(#52),#30,.T.);
#635=ADVANCED_FACE('',(#53),#614,.T.);
#636=ADVANCED_FACE('',(#54),#31,.T.);
#637=ADVANCED_FACE('',(#55),#32,.T.);
#638=ADVANCED_FACE('',(#56),#615,.T.);
#639=ADVANCED_FACE('',(#57),#33,.T.);
#640=ADVANCED_FACE('',(#58),#34,.F.);
#641=ADVANCED_FACE('',(#59),#35,.F.);
#642=ADVANCED_FACE('',(#60),#36,.T.);
#643=ADVANCED_FACE('',(#61),#37,.T.);
#644=ADVANCED_FACE('',(#62),#616,.F.);
#645=ADVANCED_FACE('',(#63),#38,.T.);
#646=ADVANCED_FACE('',(#64),#617,.F.);
#647=ADVANCED_FACE('',(#65),#618,.F.);
#648=ADVANCED_FACE('',(#66),#39,.T.);
#649=ADVANCED_FACE('',(#67),#619,.F.);
#650=ADVANCED_FACE('',(#68),#40,.T.);
#651=ADVANCED_FACE('',(#69),#620,.F.);
#652=ADVANCED_FACE('',(#70),#621,.F.);
#653=ADVANCED_FACE('',(#71),#622,.T.);
#654=ADVANCED_FACE('',(#72),#623,.T.);
#655=ADVANCED_FACE('',(#73),#624,.T.);
#656=ADVANCED_FACE('',(#74),#41,.T.);
#657=ADVANCED_FACE('',(#75,#23),#42,.T.);
#658=ADVANCED_FACE('',(#76),#625,.T.);
#659=ADVANCED_FACE('',(#77),#43,.T.);
#660=ADVANCED_FACE('',(#78),#626,.F.);
#661=ADVANCED_FACE('',(#79,#24),#44,.F.);
#662=CLOSED_SHELL('',(#627,#628,#629,#630,#631,#632,#633,#634,#635,#636,
#637,#638,#639,#640,#641,#642,#643,#644,#645,#646,#647,#648,#649,#650,#651,
#652,#653,#654,#655,#656,#657,#658,#659,#660,#661));
#663=DERIVED_UNIT_ELEMENT(#665,1.);
#664=DERIVED_UNIT_ELEMENT(#1150,-3.);
#665=(
MASS_UNIT()
NAMED_UNIT(*)
SI_UNIT(.KILO.,.GRAM.)
);
#666=DERIVED_UNIT((#663,#664));
#667=MEASURE_REPRESENTATION_ITEM('density measure',
POSITIVE_RATIO_MEASURE(7850.),#666);
#668=PROPERTY_DEFINITION_REPRESENTATION(#673,#670);
#669=PROPERTY_DEFINITION_REPRESENTATION(#674,#671);
#670=REPRESENTATION('material name',(#672),#1147);
#671=REPRESENTATION('density',(#667),#1147);
#672=DESCRIPTIVE_REPRESENTATION_ITEM('Steel','Steel');
#673=PROPERTY_DEFINITION('material property','material name',#1162);
#674=PROPERTY_DEFINITION('material property','density of part',#1162);
#675=AXIS2_PLACEMENT_3D('',#940,#743,#744);
#676=AXIS2_PLACEMENT_3D('',#941,#745,#746);
#677=AXIS2_PLACEMENT_3D('',#942,#747,#748);
#678=AXIS2_PLACEMENT_3D('',#944,#749,#750);
#679=AXIS2_PLACEMENT_3D('',#947,#752,#753);
#680=AXIS2_PLACEMENT_3D('',#948,#754,#755);
#681=AXIS2_PLACEMENT_3D('',#949,#756,#757);
#682=AXIS2_PLACEMENT_3D('',#951,#758,#759);
#683=AXIS2_PLACEMENT_3D('',#954,#761,#762);
#684=AXIS2_PLACEMENT_3D('',#955,#763,#764);
#685=AXIS2_PLACEMENT_3D('',#956,#765,#766);
#686=AXIS2_PLACEMENT_3D('',#965,#771,#772);
#687=AXIS2_PLACEMENT_3D('',#973,#776,#777);
#688=AXIS2_PLACEMENT_3D('',#977,#779,#780);
#689=AXIS2_PLACEMENT_3D('',#985,#784,#785);
#690=AXIS2_PLACEMENT_3D('',#989,#787,#788);
#691=AXIS2_PLACEMENT_3D('',#995,#792,#793);
#692=AXIS2_PLACEMENT_3D('',#999,#795,#796);
#693=AXIS2_PLACEMENT_3D('',#1003,#798,#799);
#694=AXIS2_PLACEMENT_3D('',#1008,#802,#803);
#695=AXIS2_PLACEMENT_3D('',#1009,#804,#805);
#696=AXIS2_PLACEMENT_3D('',#1011,#806,#807);
#697=AXIS2_PLACEMENT_3D('',#1017,#810,#811);
#698=AXIS2_PLACEMENT_3D('',#1021,#813,#814);
#699=AXIS2_PLACEMENT_3D('',#1023,#816,#817);
#700=AXIS2_PLACEMENT_3D('',#1027,#819,#820);
#701=AXIS2_PLACEMENT_3D('',#1029,#822,#823);
#702=AXIS2_PLACEMENT_3D('',#1034,#826,#827);
#703=AXIS2_PLACEMENT_3D('',#1038,#829,#830);
#704=AXIS2_PLACEMENT_3D('',#1040,#832,#833);
#705=AXIS2_PLACEMENT_3D('',#1042,#835,#836);
#706=AXIS2_PLACEMENT_3D('',#1045,#837,#838);
#707=AXIS2_PLACEMENT_3D('',#1048,#841,#842);
#708=AXIS2_PLACEMENT_3D('',#1052,#845,#846);
#709=AXIS2_PLACEMENT_3D('',#1056,#849,#850);
#710=AXIS2_PLACEMENT_3D('',#1058,#852,#853);
#711=AXIS2_PLACEMENT_3D('',#1062,#855,#856);
#712=AXIS2_PLACEMENT_3D('',#1064,#858,#859);
#713=AXIS2_PLACEMENT_3D('',#1065,#860,#861);
#714=AXIS2_PLACEMENT_3D('',#1069,#863,#864);
#715=AXIS2_PLACEMENT_3D('',#1073,#866,#867);
#716=AXIS2_PLACEMENT_3D('',#1081,#871,#872);
#717=AXIS2_PLACEMENT_3D('',#1085,#874,#875);
#718=AXIS2_PLACEMENT_3D('',#1087,#877,#878);
#719=AXIS2_PLACEMENT_3D('',#1095,#880,#881);
#720=AXIS2_PLACEMENT_3D('',#1096,#882,#883);
#721=AXIS2_PLACEMENT_3D('',#1104,#885,#886);
#722=AXIS2_PLACEMENT_3D('',#1107,#889,#890);
#723=AXIS2_PLACEMENT_3D('',#1109,#892,#893);
#724=AXIS2_PLACEMENT_3D('',#1112,#896,#897);
#725=AXIS2_PLACEMENT_3D('',#1114,#899,#900);
#726=AXIS2_PLACEMENT_3D('',#1115,#901,#902);
#727=AXIS2_PLACEMENT_3D('',#1116,#903,#904);
#728=AXIS2_PLACEMENT_3D('',#1117,#905,#906);
#729=AXIS2_PLACEMENT_3D('',#1118,#907,#908);
#730=AXIS2_PLACEMENT_3D('',#1120,#909,#910);
#731=AXIS2_PLACEMENT_3D('',#1122,#911,#912);
#732=AXIS2_PLACEMENT_3D('',#1124,#914,#915);
#733=AXIS2_PLACEMENT_3D('',#1130,#919,#920);
#734=AXIS2_PLACEMENT_3D('',#1131,#921,#922);
#735=AXIS2_PLACEMENT_3D('',#1133,#923,#924);
#736=AXIS2_PLACEMENT_3D('',#1134,#925,#926);
#737=AXIS2_PLACEMENT_3D('',#1135,#927,#928);
#738=AXIS2_PLACEMENT_3D('',#1136,#929,#930);
#739=AXIS2_PLACEMENT_3D('',#1137,#931,#932);
#740=AXIS2_PLACEMENT_3D('',#1139,#933,#934);
#741=AXIS2_PLACEMENT_3D('',#1141,#936,#937);
#742=AXIS2_PLACEMENT_3D('',#1142,#938,#939);
#743=DIRECTION('axis',(0.,0.,1.));
#744=DIRECTION('refdir',(1.,0.,0.));
#745=DIRECTION('axis',(0.,0.,1.));
#746=DIRECTION('refdir',(1.,0.,0.));
#747=DIRECTION('center_axis',(0.,0.,1.));
#748=DIRECTION('ref_axis',(1.,0.,0.));
#749=DIRECTION('center_axis',(0.,0.,1.));
#750=DIRECTION('ref_axis',(1.,0.,0.));
#751=DIRECTION('',(0.,0.,1.));
#752=DIRECTION('center_axis',(0.,0.,1.));
#753=DIRECTION('ref_axis',(1.,0.,0.));
#754=DIRECTION('center_axis',(0.,0.,-1.));
#755=DIRECTION('ref_axis',(1.,0.,0.));
#756=DIRECTION('center_axis',(0.,0.,1.));
#757=DIRECTION('ref_axis',(1.,0.,0.));
#758=DIRECTION('center_axis',(0.,0.,1.));
#759=DIRECTION('ref_axis',(1.,0.,0.));
#760=DIRECTION('',(0.,0.,1.));
#761=DIRECTION('center_axis',(0.,0.,1.));
#762=DIRECTION('ref_axis',(1.,0.,0.));
#763=DIRECTION('center_axis',(0.,0.,-1.));
#764=DIRECTION('ref_axis',(1.,0.,0.));
#765=DIRECTION('center_axis',(0.,0.,1.));
#766=DIRECTION('ref_axis',(1.,0.,0.));
#767=DIRECTION('',(0.,1.,0.));
#768=DIRECTION('',(1.,0.,0.));
#769=DIRECTION('',(0.,-1.,0.));
#770=DIRECTION('',(-1.,0.,0.));
#771=DIRECTION('center_axis',(0.,-1.,0.));
#772=DIRECTION('ref_axis',(0.,0.,1.));
#773=DIRECTION('',(0.,0.,1.));
#774=DIRECTION('',(1.,0.,0.));
#775=DIRECTION('',(0.,0.,1.));
#776=DIRECTION('center_axis',(0.,-1.,0.));
#777=DIRECTION('ref_axis',(0.707106781186547,0.,-0.707106781186547));
#778=DIRECTION('',(-1.,0.,0.));
#779=DIRECTION('center_axis',(0.,-1.,0.));
#780=DIRECTION('ref_axis',(-0.707106781186547,0.,-0.707106781186548));
#781=DIRECTION('',(0.,0.,1.));
#782=DIRECTION('',(1.,0.,0.));
#783=DIRECTION('',(0.,0.,-1.));
#784=DIRECTION('center_axis',(0.,-1.,0.));
#785=DIRECTION('ref_axis',(0.707106781186547,0.,-0.707106781186548));
#786=DIRECTION('',(-1.,0.,0.));
#787=DIRECTION('center_axis',(0.,-1.,0.));
#788=DIRECTION('ref_axis',(-0.707106781186547,0.,-0.707106781186547));
#789=DIRECTION('',(0.,0.,-1.));
#790=DIRECTION('',(1.,0.,0.));
#791=DIRECTION('',(0.,0.,1.));
#792=DIRECTION('center_axis',(-1.,0.,0.));
#793=DIRECTION('ref_axis',(0.,0.,1.));
#794=DIRECTION('',(0.,0.,-1.));
#795=DIRECTION('center_axis',(1.,0.,0.));
#796=DIRECTION('ref_axis',(0.,-0.707106781186547,0.707106781186547));
#797=DIRECTION('',(0.,1.,0.));
#798=DIRECTION('center_axis',(-1.,0.,0.));
#799=DIRECTION('ref_axis',(0.,0.707106781186547,-0.707106781186547));
#800=DIRECTION('',(0.,0.,-1.));
#801=DIRECTION('',(0.,-1.,0.));
#802=DIRECTION('center_axis',(-1.,0.,0.));
#803=DIRECTION('ref_axis',(0.,-0.707106781186547,0.707106781186547));
#804=DIRECTION('center_axis',(-1.,0.,0.));
#805=DIRECTION('ref_axis',(0.,0.,1.));
#806=DIRECTION('center_axis',(1.,0.,0.));
#807=DIRECTION('ref_axis',(0.,-0.707106781186547,0.707106781186547));
#808=DIRECTION('',(0.,1.,0.));
#809=DIRECTION('',(0.,0.,1.));
#810=DIRECTION('center_axis',(1.,0.,0.));
#811=DIRECTION('ref_axis',(0.,0.707106781186547,-0.707106781186547));
#812=DIRECTION('',(0.,1.,0.));
#813=DIRECTION('center_axis',(-1.,0.,0.));
#814=DIRECTION('ref_axis',(0.,-0.707106781186547,0.707106781186547));
#815=DIRECTION('',(0.,0.,-1.));
#816=DIRECTION('center_axis',(-1.,0.,0.));
#817=DIRECTION('ref_axis',(0.,0.707106781186547,-0.707106781186547));
#818=DIRECTION('',(1.,0.,0.));
#819=DIRECTION('center_axis',(-1.,0.,0.));
#820=DIRECTION('ref_axis',(0.,0.707106781186547,-0.707106781186547));
#821=DIRECTION('',(-1.,0.,0.));
#822=DIRECTION('center_axis',(1.,0.,0.));
#823=DIRECTION('ref_axis',(0.,0.,-1.));
#824=DIRECTION('',(0.,0.,-1.));
#825=DIRECTION('',(0.,-1.,0.));
#826=DIRECTION('center_axis',(-1.,0.,0.));
#827=DIRECTION('ref_axis',(0.,-0.707106781186547,0.707106781186547));
#828=DIRECTION('',(0.,1.,0.));
#829=DIRECTION('center_axis',(1.,0.,0.));
#830=DIRECTION('ref_axis',(0.,-0.707106781186547,0.707106781186547));
#831=DIRECTION('',(0.,1.,0.));
#832=DIRECTION('center_axis',(0.,1.,0.));
#833=DIRECTION('ref_axis',(0.,0.,1.));
#834=DIRECTION('',(1.,0.,0.));
#835=DIRECTION('center_axis',(-1.,0.,0.));
#836=DIRECTION('ref_axis',(0.,0.707106781186547,-0.707106781186547));
#837=DIRECTION('center_axis',(1.,0.,0.));
#838=DIRECTION('ref_axis',(0.,0.707106781186547,-0.707106781186547));
#839=DIRECTION('',(1.,0.,0.));
#840=DIRECTION('',(-1.,0.,0.));
#841=DIRECTION('center_axis',(0.,1.,0.));
#842=DIRECTION('ref_axis',(0.,0.,1.));
#843=DIRECTION('',(0.,0.,1.));
#844=DIRECTION('',(1.,0.,0.));
#845=DIRECTION('center_axis',(0.,0.,-1.));
#846=DIRECTION('ref_axis',(-1.,0.,0.));
#847=DIRECTION('',(0.,1.,0.));
#848=DIRECTION('',(-1.,0.,0.));
#849=DIRECTION('center_axis',(0.,0.,-1.));
#850=DIRECTION('ref_axis',(-1.,0.,0.));
#851=DIRECTION('',(-1.,0.,0.));
#852=DIRECTION('center_axis',(-1.,0.,0.));
#853=DIRECTION('ref_axis',(0.,0.,1.));
#854=DIRECTION('',(0.,1.,0.));
#855=DIRECTION('center_axis',(-1.,0.,0.));
#856=DIRECTION('ref_axis',(0.,-0.707106781186547,0.707106781186547));
#857=DIRECTION('',(0.,1.,0.));
#858=DIRECTION('center_axis',(1.,0.,0.));
#859=DIRECTION('ref_axis',(0.,-0.707106781186547,0.707106781186547));
#860=DIRECTION('center_axis',(0.,1.,0.));
#861=DIRECTION('ref_axis',(0.,0.,-1.));
#862=DIRECTION('',(-1.,0.,0.));
#863=DIRECTION('center_axis',(0.,1.,0.));
#864=DIRECTION('ref_axis',(-0.707106781186547,0.,-0.707106781186547));
#865=DIRECTION('',(1.,0.,0.));
#866=DIRECTION('center_axis',(0.,1.,0.));
#867=DIRECTION('ref_axis',(0.707106781186547,0.,-0.707106781186548));
#868=DIRECTION('',(0.,0.,-1.));
#869=DIRECTION('',(-1.,0.,0.));
#870=DIRECTION('',(0.,0.,-1.));
#871=DIRECTION('center_axis',(0.,1.,0.));
#872=DIRECTION('ref_axis',(-0.707106781186547,0.,-0.707106781186548));
#873=DIRECTION('',(1.,0.,0.));
#874=DIRECTION('center_axis',(0.,1.,0.));
#875=DIRECTION('ref_axis',(0.707106781186547,0.,-0.707106781186547));
#876=DIRECTION('',(-1.,0.,0.));
#877=DIRECTION('center_axis',(1.,0.,0.));
#878=DIRECTION('ref_axis',(0.,-0.707106781186547,0.707106781186547));
#879=DIRECTION('',(1.,0.,0.));
#880=DIRECTION('center_axis',(0.,0.,-1.));
#881=DIRECTION('ref_axis',(-1.,0.,0.));
#882=DIRECTION('center_axis',(1.,0.,0.));
#883=DIRECTION('ref_axis',(0.,-0.707106781186547,0.707106781186547));
#884=DIRECTION('',(1.,0.,0.));
#885=DIRECTION('center_axis',(0.,-1.,0.));
#886=DIRECTION('ref_axis',(0.707106781186547,0.,-0.707106781186548));
#887=DIRECTION('',(0.,-1.,0.));
#888=DIRECTION('',(0.,1.,0.));
#889=DIRECTION('center_axis',(0.,0.,1.));
#890=DIRECTION('ref_axis',(0.,-1.,0.));
#891=DIRECTION('',(0.,1.,0.));
#892=DIRECTION('center_axis',(0.,1.,0.));
#893=DIRECTION('ref_axis',(-0.707106781186547,0.,-0.707106781186548));
#894=DIRECTION('',(0.,1.,0.));
#895=DIRECTION('',(0.,-1.,0.));
#896=DIRECTION('center_axis',(0.,0.,1.));
#897=DIRECTION('ref_axis',(0.,-1.,0.));
#898=DIRECTION('',(0.,-1.,0.));
#899=DIRECTION('center_axis',(0.,-1.,0.));
#900=DIRECTION('ref_axis',(-0.707106781186547,0.,-0.707106781186547));
#901=DIRECTION('center_axis',(0.,1.,0.));
#902=DIRECTION('ref_axis',(0.707106781186547,0.,-0.707106781186547));
#903=DIRECTION('center_axis',(-1.,0.,0.));
#904=DIRECTION('ref_axis',(0.,-0.707106781186547,0.707106781186547));
#905=DIRECTION('center_axis',(-1.,0.,0.));
#906=DIRECTION('ref_axis',(0.,-0.707106781186547,0.707106781186547));
#907=DIRECTION('center_axis',(-1.,0.,0.));
#908=DIRECTION('ref_axis',(0.,-0.707106781186547,0.707106781186547));
#909=DIRECTION('center_axis',(1.,0.,0.));
#910=DIRECTION('ref_axis',(0.,-0.707106781186547,0.707106781186547));
#911=DIRECTION('center_axis',(-1.,0.,0.));
#912=DIRECTION('ref_axis',(0.,-0.707106781186547,0.707106781186547));
#913=DIRECTION('',(-1.,0.,0.));
#914=DIRECTION('center_axis',(0.,-1.81166789361767E-15,1.));
#915=DIRECTION('ref_axis',(0.,1.,1.81166789361767E-15));
#916=DIRECTION('',(0.,1.,1.81166789361767E-15));
#917=DIRECTION('',(1.,0.,0.));
#918=DIRECTION('',(0.,1.,1.81166789361767E-15));
#919=DIRECTION('center_axis',(1.,0.,0.));
#920=DIRECTION('ref_axis',(0.,1.,0.));
#921=DIRECTION('center_axis',(-1.,0.,0.));
#922=DIRECTION('ref_axis',(0.,0.707106781186547,0.707106781186547));
#923=DIRECTION('center_axis',(1.,0.,0.));
#924=DIRECTION('ref_axis',(0.,1.,0.));
#925=DIRECTION('center_axis',(-1.,0.,0.));
#926=DIRECTION('ref_axis',(0.,0.707106781186547,0.707106781186547));
#927=DIRECTION('center_axis',(1.,0.,0.));
#928=DIRECTION('ref_axis',(0.,0.707106781186547,0.707106781186547));
#929=DIRECTION('center_axis',(0.,0.,-1.));
#930=DIRECTION('ref_axis',(-1.,0.,0.));
#931=DIRECTION('center_axis',(-1.,0.,0.));
#932=DIRECTION('ref_axis',(0.,1.,0.));
#933=DIRECTION('center_axis',(1.,0.,0.));
#934=DIRECTION('ref_axis',(0.,1.,0.));
#935=DIRECTION('',(1.,0.,0.));
#936=DIRECTION('center_axis',(1.,0.,0.));
#937=DIRECTION('ref_axis',(0.,1.,0.));
#938=DIRECTION('',(0.,0.,1.));
#939=DIRECTION('',(1.,0.,0.));
#940=CARTESIAN_POINT('',(0.,0.,0.));
#941=CARTESIAN_POINT('',(0.,0.,0.));
#942=CARTESIAN_POINT('Origin',(46.9618551013977,-30.205,-17.5000001490116));
#943=CARTESIAN_POINT('',(46.4618551013977,-30.205,-12.5000001490116));
#944=CARTESIAN_POINT('Origin',(46.9618551013977,-30.205,-12.5000001490116));
#945=CARTESIAN_POINT('',(46.4618551013977,-30.205,-7.5000001490116));
#946=CARTESIAN_POINT('',(46.4618551013977,-30.205,-17.5000001490116));
#947=CARTESIAN_POINT('Origin',(46.9618551013977,-30.205,-7.5000001490116));
#948=CARTESIAN_POINT('Origin',(46.9618551013977,-30.205,-7.5000001490116));
#949=CARTESIAN_POINT('Origin',(18.9618551013977,-30.205,-17.5000001490116));
#950=CARTESIAN_POINT('',(18.4618551013977,-30.205,-12.5000001490116));
#951=CARTESIAN_POINT('Origin',(18.9618551013977,-30.205,-12.5000001490116));
#952=CARTESIAN_POINT('',(18.4618551013977,-30.205,-7.5000001490116));
#953=CARTESIAN_POINT('',(18.4618551013977,-30.205,-17.5000001490116));
#954=CARTESIAN_POINT('Origin',(18.9618551013977,-30.205,-7.5000001490116));
#955=CARTESIAN_POINT('Origin',(18.9618551013977,-30.205,-7.5000001490116));
#956=CARTESIAN_POINT('Origin',(48.4618551013977,-26.205,-12.5000001490116));
#957=CARTESIAN_POINT('',(49.4618551013977,-33.705,-12.5000001490116));
#958=CARTESIAN_POINT('',(49.4618551013977,-26.205,-12.5000001490116));
#959=CARTESIAN_POINT('',(49.4618551013977,-28.08,-12.5000001490116));
#960=CARTESIAN_POINT('',(16.4618551013977,-33.705,-12.5000001490116));
#961=CARTESIAN_POINT('',(48.4618551013977,-33.705,-12.5000001490116));
#962=CARTESIAN_POINT('',(16.4618551013977,-26.205,-12.5000001490116));
#963=CARTESIAN_POINT('',(16.4618551013977,-28.08,-12.5000001490116));
#964=CARTESIAN_POINT('',(48.4618551013977,-26.205,-12.5000001490116));
#965=CARTESIAN_POINT('Origin',(48.4618551013977,-33.705,-10.));
#966=CARTESIAN_POINT('',(49.4618551013977,-33.705,-2.7));
#967=CARTESIAN_POINT('',(49.4618551013977,-33.705,-10.75));
#968=CARTESIAN_POINT('',(44.4618551013977,-33.705,-2.7));
#969=CARTESIAN_POINT('',(52.2118551013977,-33.705,-2.7));
#970=CARTESIAN_POINT('',(44.4618551013977,-33.705,-7.));
#971=CARTESIAN_POINT('',(44.4618551013977,-33.705,-9.5));
#972=CARTESIAN_POINT('',(41.9618551013977,-33.705,-9.5));
#973=CARTESIAN_POINT('Origin',(41.9618551013977,-33.705,-7.));
#974=CARTESIAN_POINT('',(35.2118551013977,-33.705,-9.5));
#975=CARTESIAN_POINT('',(34.2118551013977,-33.705,-9.5));
#976=CARTESIAN_POINT('',(34.2118551013977,-33.705,-8.5));
#977=CARTESIAN_POINT('Origin',(35.2118551013977,-33.705,-8.5));
#978=CARTESIAN_POINT('',(34.2118551013977,-33.705,-7.50000000000006));
#979=CARTESIAN_POINT('',(34.2118551013977,-33.705,-8.75000003725292));
#980=CARTESIAN_POINT('',(31.7118551013977,-33.705,-7.50000000000006));
#981=CARTESIAN_POINT('',(48.4618551013977,-33.705,-7.50000000000006));
#982=CARTESIAN_POINT('',(31.7118551013977,-33.705,-8.5));
#983=CARTESIAN_POINT('',(31.7118551013977,-33.705,-10.));
#984=CARTESIAN_POINT('',(30.7118551013977,-33.705,-9.5));
#985=CARTESIAN_POINT('Origin',(30.7118551013977,-33.705,-8.5));
#986=CARTESIAN_POINT('',(23.9618551013977,-33.705,-9.5));
#987=CARTESIAN_POINT('',(34.2118551013977,-33.705,-9.5));
#988=CARTESIAN_POINT('',(21.4618551013977,-33.705,-7.));
#989=CARTESIAN_POINT('Origin',(23.9618551013977,-33.705,-7.));
#990=CARTESIAN_POINT('',(21.4618551013977,-33.705,-2.7));
#991=CARTESIAN_POINT('',(21.4618551013977,-33.705,-9.5));
#992=CARTESIAN_POINT('',(16.4618551013977,-33.705,-2.7));
#993=CARTESIAN_POINT('',(29.2118551013977,-33.705,-2.7));
#994=CARTESIAN_POINT('',(16.4618551013977,-33.705,-10.75));
#995=CARTESIAN_POINT('Origin',(49.4618551013977,-29.9549999999999,-12.));
#996=CARTESIAN_POINT('',(49.4618551013977,-26.2049999999999,-7.5));
#997=CARTESIAN_POINT('',(49.4618551013977,-26.2049999999999,-13.25));
#998=CARTESIAN_POINT('',(49.4618551013977,-23.705,-5.));
#999=CARTESIAN_POINT('Origin',(49.4618551013977,-23.705,-7.5));
#1000=CARTESIAN_POINT('',(49.4618551013977,-13.7049999999999,-5.));
#1001=CARTESIAN_POINT('',(49.4618551013977,-26.2049999999999,-5.));
#1002=CARTESIAN_POINT('',(49.4618551013977,-11.2049999999999,-2.5));
#1003=CARTESIAN_POINT('Origin',(49.4618551013977,-13.7049999999999,-2.5));
#1004=CARTESIAN_POINT('',(49.4618551013977,-11.2049999999999,-0.2));
#1005=CARTESIAN_POINT('',(49.4618551013977,-11.2049999999999,-1.11022302462516E-15));
#1006=CARTESIAN_POINT('',(49.4618551013977,-31.205,-0.2));
#1007=CARTESIAN_POINT('',(49.4618551013977,-29.9549999999999,-0.2));
#1008=CARTESIAN_POINT('Origin',(49.4618551013977,-31.205,-2.7));
#1009=CARTESIAN_POINT('Origin',(16.4618551013977,-29.9549999999999,-12.));
#1010=CARTESIAN_POINT('',(16.4618551013977,-31.205,-0.2));
#1011=CARTESIAN_POINT('Origin',(16.4618551013977,-31.205,-2.7));
#1012=CARTESIAN_POINT('',(16.4618551013977,-11.2049999999999,-0.2));
#1013=CARTESIAN_POINT('',(16.4618551013977,-29.9549999999999,-0.2));
#1014=CARTESIAN_POINT('',(16.4618551013977,-11.2049999999999,-2.5));
#1015=CARTESIAN_POINT('',(16.4618551013977,-11.2049999999999,-1.11022302462516E-15));
#1016=CARTESIAN_POINT('',(16.4618551013977,-13.7049999999999,-5.));
#1017=CARTESIAN_POINT('Origin',(16.4618551013977,-13.7049999999999,-2.5));
#1018=CARTESIAN_POINT('',(16.4618551013977,-23.705,-5.));
#1019=CARTESIAN_POINT('',(16.4618551013977,-26.2049999999999,-5.));
#1020=CARTESIAN_POINT('',(16.4618551013977,-26.2049999999999,-7.5));
#1021=CARTESIAN_POINT('Origin',(16.4618551013977,-23.705,-7.5));
#1022=CARTESIAN_POINT('',(16.4618551013977,-26.2049999999999,-13.25));
#1023=CARTESIAN_POINT('Origin',(20.2118551013977,-13.7049999999999,-2.5));
#1024=CARTESIAN_POINT('',(21.4618551013977,-11.2049999999999,-2.5));
#1025=CARTESIAN_POINT('',(20.2118551013977,-11.2049999999999,-2.5));
#1026=CARTESIAN_POINT('',(21.4618551013977,-13.7049999999999,-5.));
#1027=CARTESIAN_POINT('Origin',(21.4618551013977,-13.7049999999999,-2.5));
#1028=CARTESIAN_POINT('',(20.2118551013977,-13.7049999999999,-5.));
#1029=CARTESIAN_POINT('Origin',(21.4618551013977,-33.705,-9.5));
#1030=CARTESIAN_POINT('',(21.4618551013977,-11.2049999999999,-0.2));
#1031=CARTESIAN_POINT('',(21.4618551013977,-11.2049999999999,-5.));
#1032=CARTESIAN_POINT('',(21.4618551013977,-31.205,-0.2));
#1033=CARTESIAN_POINT('',(21.4618551013977,-31.83,-0.2));
#1034=CARTESIAN_POINT('Origin',(21.4618551013977,-31.205,-2.7));
#1035=CARTESIAN_POINT('',(21.4618551013977,-26.1544897427832,-7.));
#1036=CARTESIAN_POINT('',(21.4618551013977,-29.955,-7.));
#1037=CARTESIAN_POINT('',(21.4618551013977,-23.705,-5.));
#1038=CARTESIAN_POINT('Origin',(21.4618551013977,-23.705,-7.5));
#1039=CARTESIAN_POINT('',(21.4618551013977,-26.2049999999999,-5.));
#1040=CARTESIAN_POINT('Origin',(18.9618551013977,-11.2049999999999,-2.5));
#1041=CARTESIAN_POINT('',(14.4618551013977,-11.2049999999999,-0.2));
#1042=CARTESIAN_POINT('Origin',(48.2118551013977,-13.7049999999999,-2.5));
#1043=CARTESIAN_POINT('',(44.4618551013977,-13.7049999999999,-5.));
#1044=CARTESIAN_POINT('',(44.4618551013977,-11.2049999999999,-2.5));
#1045=CARTESIAN_POINT('Origin',(44.4618551013977,-13.7049999999999,-2.5));
#1046=CARTESIAN_POINT('',(48.2118551013977,-11.2049999999999,-2.5));
#1047=CARTESIAN_POINT('',(48.2118551013977,-13.7049999999999,-5.));
#1048=CARTESIAN_POINT('Origin',(46.9618551013977,-11.2049999999999,-2.5));
#1049=CARTESIAN_POINT('',(44.4618551013977,-11.2049999999999,-0.2));
#1050=CARTESIAN_POINT('',(44.4618551013977,-11.2049999999999,-5.));
#1051=CARTESIAN_POINT('',(51.4618551013977,-11.2049999999999,-0.2));
#1052=CARTESIAN_POINT('Origin',(55.9618551013977,-29.9549999999999,-0.2));
#1053=CARTESIAN_POINT('',(44.4618551013977,-31.205,-0.2));
#1054=CARTESIAN_POINT('',(44.4618551013977,-28.0799999999999,-0.2));
#1055=CARTESIAN_POINT('',(52.2118551013977,-31.205,-0.2));
#1056=CARTESIAN_POINT('Origin',(9.96185510139769,-29.9549999999999,-0.2));
#1057=CARTESIAN_POINT('',(29.2118551013977,-31.205,-0.2));
#1058=CARTESIAN_POINT('Origin',(44.4618551013977,-26.2049999999999,-9.5));
#1059=CARTESIAN_POINT('',(44.4618551013977,-23.705,-5.));
#1060=CARTESIAN_POINT('',(44.4618551013977,-26.2049999999999,-5.));
#1061=CARTESIAN_POINT('',(44.4618551013977,-26.1544897427832,-7.));
#1062=CARTESIAN_POINT('Origin',(44.4618551013977,-23.705,-7.5));
#1063=CARTESIAN_POINT('',(44.4618551013977,-26.2049999999999,-7.));
#1064=CARTESIAN_POINT('Origin',(44.4618551013977,-31.205,-2.7));
#1065=CARTESIAN_POINT('Origin',(48.4618551013977,-26.205,-5.00000000000005));
#1066=CARTESIAN_POINT('',(21.5123653586145,-26.205,-7.5));
#1067=CARTESIAN_POINT('',(34.9618551013977,-26.205,-7.5));
#1068=CARTESIAN_POINT('',(23.9618551013977,-26.2049999999999,-9.5));
#1069=CARTESIAN_POINT('Origin',(23.9618551013977,-26.205,-7.));
#1070=CARTESIAN_POINT('',(30.7118551013977,-26.2049999999999,-9.5));
#1071=CARTESIAN_POINT('',(34.2118551013977,-26.2049999999999,-9.5));
#1072=CARTESIAN_POINT('',(31.7118551013977,-26.205,-8.5));
#1073=CARTESIAN_POINT('Origin',(30.7118551013977,-26.205,-8.5));
#1074=CARTESIAN_POINT('',(31.7118551013977,-26.205,-7.50000000000005));
#1075=CARTESIAN_POINT('',(31.7118551013977,-26.205,-6.61659661993983E-33));
#1076=CARTESIAN_POINT('',(34.2118551013977,-26.205,-7.50000000000005));
#1077=CARTESIAN_POINT('',(48.4618551013977,-26.205,-7.50000000000005));
#1078=CARTESIAN_POINT('',(34.2118551013977,-26.205,-8.5));
#1079=CARTESIAN_POINT('',(34.2118551013977,-26.205,-10.0000001490116));
#1080=CARTESIAN_POINT('',(35.2118551013977,-26.2049999999999,-9.5));
#1081=CARTESIAN_POINT('Origin',(35.2118551013977,-26.205,-8.5));
#1082=CARTESIAN_POINT('',(41.9618551013977,-26.2049999999999,-9.5));
#1083=CARTESIAN_POINT('',(34.2118551013977,-26.2049999999999,-9.5));
#1084=CARTESIAN_POINT('',(44.4113448441809,-26.205,-7.5));
#1085=CARTESIAN_POINT('Origin',(41.9618551013977,-26.205,-7.));
#1086=CARTESIAN_POINT('',(48.9618551013977,-26.205,-7.5));
#1087=CARTESIAN_POINT('Origin',(48.9618551013977,-23.705,-7.5));
#1088=CARTESIAN_POINT('',(48.9618551013977,-23.705,-5.));
#1089=CARTESIAN_POINT('Ctrl Pts',(44.4113448441804,-26.205,-7.50000000000211));
#1090=CARTESIAN_POINT('Ctrl Pts',(44.4131987030571,-26.205,-7.49091798339626));
#1091=CARTESIAN_POINT('Ctrl Pts',(44.4150019405963,-26.204950506111,-7.48182617930484));
#1092=CARTESIAN_POINT('Ctrl Pts',(44.4471238780767,-26.203130560526,-7.3150147545892));
#1093=CARTESIAN_POINT('Ctrl Pts',(44.4618551013977,-26.1860210672419,-7.15447131167604));
#1094=CARTESIAN_POINT('Ctrl Pts',(44.4618551013977,-26.1544897427831,-7.));
#1095=CARTESIAN_POINT('Origin',(49.4618551013977,-26.2049999999999,-5.));
#1096=CARTESIAN_POINT('Origin',(34.9618551013977,-23.705,-7.5));
#1097=CARTESIAN_POINT('Ctrl Pts',(21.4618551013977,-26.1544897427831,-7.));
#1098=CARTESIAN_POINT('Ctrl Pts',(21.4618551013977,-26.1860210672419,-7.15447131167604));
#1099=CARTESIAN_POINT('Ctrl Pts',(21.4765863247187,-26.203130560526,-7.3150147545892));
#1100=CARTESIAN_POINT('Ctrl Pts',(21.5087082621989,-26.204950506111,-7.48182617930414));
#1101=CARTESIAN_POINT('Ctrl Pts',(21.510511499738,-26.205,-7.49091798339485));
#1102=CARTESIAN_POINT('Ctrl Pts',(21.5123653586145,-26.205,-7.5));
#1103=CARTESIAN_POINT('',(34.9618551013977,-23.705,-5.));
#1104=CARTESIAN_POINT('Origin',(30.7118551013977,-28.0799999999999,-8.5));
#1105=CARTESIAN_POINT('',(30.7118551013977,-28.0799999999999,-9.5));
#1106=CARTESIAN_POINT('',(31.7118551013977,-28.0799999999999,-8.5));
#1107=CARTESIAN_POINT('Origin',(34.2118551013977,-26.2049999999999,-9.5));
#1108=CARTESIAN_POINT('',(23.9618551013977,-29.9549999999999,-9.5));
#1109=CARTESIAN_POINT('Origin',(35.2118551013977,-28.0799999999999,-8.5));
#1110=CARTESIAN_POINT('',(35.2118551013977,-28.0799999999999,-9.5));
#1111=CARTESIAN_POINT('',(34.2118551013977,-28.0799999999999,-8.5));
#1112=CARTESIAN_POINT('Origin',(34.2118551013977,-26.2049999999999,-9.5));
#1113=CARTESIAN_POINT('',(41.9618551013977,-26.2049999999999,-9.5));
#1114=CARTESIAN_POINT('Origin',(23.9618551013977,-29.9549999999999,-7.));
#1115=CARTESIAN_POINT('Origin',(41.9618551013977,-26.2049999999999,-7.));
#1116=CARTESIAN_POINT('Origin',(52.2118551013977,-31.205,-2.7));
#1117=CARTESIAN_POINT('Origin',(29.2118551013977,-31.205,-2.7));
#1118=CARTESIAN_POINT('Origin',(48.4618551013977,-31.205,-7.50000000000006));
#1119=CARTESIAN_POINT('',(31.7118551013977,-31.205,-5.00000000000006));
#1120=CARTESIAN_POINT('Origin',(31.7118551013977,-31.205,-7.50000000000006));
#1121=CARTESIAN_POINT('',(34.2118551013977,-31.205,-5.00000000000006));
#1122=CARTESIAN_POINT('Origin',(34.2118551013977,-31.205,-7.50000000000006));
#1123=CARTESIAN_POINT('',(48.4618551013977,-31.205,-5.00000000000006));
#1124=CARTESIAN_POINT('Origin',(48.4618551013977,-33.705,-5.00000000000006));
#1125=CARTESIAN_POINT('',(34.2118551013977,-28.705,-5.00000000000005));
#1126=CARTESIAN_POINT('',(34.2118551013977,-31.83,-5.00000000000006));
#1127=CARTESIAN_POINT('',(31.7118551013977,-28.705,-5.00000000000005));
#1128=CARTESIAN_POINT('',(48.4618551013977,-28.705,-5.00000000000005));
#1129=CARTESIAN_POINT('',(31.7118551013977,-33.705,-5.00000000000006));
#1130=CARTESIAN_POINT('Origin',(34.2118551013977,-29.955,-7.50000007450583));
#1131=CARTESIAN_POINT('Origin',(34.2118551013977,-28.705,-7.50000000000005));
#1132=CARTESIAN_POINT('',(34.2118551013977,-30.455,-7.));
#1133=CARTESIAN_POINT('Origin',(34.2118551013977,-29.955,-7.));
#1134=CARTESIAN_POINT('Origin',(48.4618551013977,-28.705,-7.50000000000005));
#1135=CARTESIAN_POINT('Origin',(31.7118551013977,-28.705,-7.50000000000005));
#1136=CARTESIAN_POINT('Origin',(21.4618551013977,-26.2049999999999,-5.));
#1137=CARTESIAN_POINT('Origin',(48.4618551013977,-29.955,-7.));
#1138=CARTESIAN_POINT('',(31.7118551013977,-30.455,-7.));
#1139=CARTESIAN_POINT('Origin',(31.7118551013977,-29.955,-7.));
#1140=CARTESIAN_POINT('',(48.4618551013977,-30.455,-7.));
#1141=CARTESIAN_POINT('Origin',(31.7118551013977,-29.955,-7.50000007450583));
#1142=CARTESIAN_POINT('',(0.,0.,0.));
#1143=UNCERTAINTY_MEASURE_WITH_UNIT(LENGTH_MEASURE(0.01),#1149,
'DISTANCE_ACCURACY_VALUE',
'Maximum model space distance between geometric entities at asserted c
onnectivities');
#1144=UNCERTAINTY_MEASURE_WITH_UNIT(LENGTH_MEASURE(0.01),#1149,
'DISTANCE_ACCURACY_VALUE',
'Maximum model space distance between geometric entities at asserted c
onnectivities');
#1145=UNCERTAINTY_MEASURE_WITH_UNIT(LENGTH_MEASURE(0.01),#1149,
'DISTANCE_ACCURACY_VALUE',
'Maximum model space distance between geometric entities at asserted c
onnectivities');
#1146=(
GEOMETRIC_REPRESENTATION_CONTEXT(3)
GLOBAL_UNCERTAINTY_ASSIGNED_CONTEXT((#1143))
GLOBAL_UNIT_ASSIGNED_CONTEXT((#1149,#1151,#1152))
REPRESENTATION_CONTEXT('','3D')
);
#1147=(
GEOMETRIC_REPRESENTATION_CONTEXT(3)
GLOBAL_UNCERTAINTY_ASSIGNED_CONTEXT((#1144))
GLOBAL_UNIT_ASSIGNED_CONTEXT((#1149,#1151,#1152))
REPRESENTATION_CONTEXT('','3D')
);
#1148=(
GEOMETRIC_REPRESENTATION_CONTEXT(3)
GLOBAL_UNCERTAINTY_ASSIGNED_CONTEXT((#1145))
GLOBAL_UNIT_ASSIGNED_CONTEXT((#1149,#1151,#1152))
REPRESENTATION_CONTEXT('','3D')
);
#1149=(
LENGTH_UNIT()
NAMED_UNIT(*)
SI_UNIT(.MILLI.,.METRE.)
);
#1150=(
LENGTH_UNIT()
NAMED_UNIT(*)
SI_UNIT($,.METRE.)
);
#1151=(
NAMED_UNIT(*)
PLANE_ANGLE_UNIT()
SI_UNIT($,.RADIAN.)
);
#1152=(
NAMED_UNIT(*)
SI_UNIT($,.STERADIAN.)
SOLID_ANGLE_UNIT()
);
#1153=SHAPE_DEFINITION_REPRESENTATION(#1155,#1158);
#1154=SHAPE_DEFINITION_REPRESENTATION(#1156,#1159);
#1155=PRODUCT_DEFINITION_SHAPE('',$,#1161);
#1156=PRODUCT_DEFINITION_SHAPE('',$,#1162);
#1157=PRODUCT_DEFINITION_SHAPE($,$,#16);
#1158=SHAPE_REPRESENTATION('',(#675,#742),#1146);
#1159=SHAPE_REPRESENTATION('',(#676),#1147);
#1160=PRODUCT_DEFINITION_CONTEXT('part definition',#1168,'design');
#1161=PRODUCT_DEFINITION('2026-06-20-16-45-31-173','FusionComponent',#1163,
#1160);
#1162=PRODUCT_DEFINITION('2026-06-20-16-45-31-179','Component2',#1164,#1160);
#1163=PRODUCT_DEFINITION_FORMATION('',$,#1170);
#1164=PRODUCT_DEFINITION_FORMATION('',$,#1171);
#1165=PRODUCT_RELATED_PRODUCT_CATEGORY('FusionComponent',
'FusionComponent',(#1170));
#1166=PRODUCT_RELATED_PRODUCT_CATEGORY('Component2','Component2',(#1171));
#1167=APPLICATION_PROTOCOL_DEFINITION('international standard',
'automotive_design',2009,#1168);
#1168=APPLICATION_CONTEXT(
'Core Data for Automotive Mechanical Design Process');
#1169=PRODUCT_CONTEXT('part definition',#1168,'mechanical');
#1170=PRODUCT('2026-06-20-16-45-31-173','FusionComponent',$,(#1169));
#1171=PRODUCT('2026-06-20-16-45-31-179','Component2',$,(#1169));
#1172=PRESENTATION_STYLE_ASSIGNMENT((#1173));
#1173=SURFACE_STYLE_USAGE(.BOTH.,#1174);
#1174=SURFACE_SIDE_STYLE('',(#1175));
#1175=SURFACE_STYLE_FILL_AREA(#1176);
#1176=FILL_AREA_STYLE('Steel - Satin',(#1177));
#1177=FILL_AREA_STYLE_COLOUR('Steel - Satin',#1178);
#1178=COLOUR_RGB('Steel - Satin',0.627450980392157,0.627450980392157,0.627450980392157);
ENDSEC;
END-ISO-10303-21;
