ISO-10303-21;
HEADER;
/* Generated by software containing ST-Developer
 * from STEP Tools, Inc. (www.steptools.com) 
 */

FILE_DESCRIPTION(
/* description */ ('STEP AP203'),
/* implementation_level */ '2;1');

FILE_NAME(
/* name */ 'Winch Pulley x3.step',
/* time_stamp */ '2026-06-20T16:37:52-05:00',
/* author */ (''),
/* organization */ (''),
/* preprocessor_version */ 'ST-DEVELOPER v20.1',
/* originating_system */ 'Autodesk Translation Framework v15.8.0.0',
/* authorisation */ '');

FILE_SCHEMA (('AUTOMOTIVE_DESIGN { 1 0 10303 214 3 1 1 }'));
ENDSEC;

DATA;
#10=MECHANICAL_DESIGN_GEOMETRIC_PRESENTATION_REPRESENTATION('',(#13),#1104);
#11=SHAPE_REPRESENTATION_RELATIONSHIP('SRR','None',#1111,#12);
#12=ADVANCED_BREP_SHAPE_REPRESENTATION('',(#14),#1103);
#13=STYLED_ITEM('',(#1120),#14);
#14=MANIFOLD_SOLID_BREP('Body1',#475);
#15=TOROIDAL_SURFACE('',#527,20.75,0.5);
#16=TOROIDAL_SURFACE('',#529,20.75,0.5);
#17=TOROIDAL_SURFACE('',#531,20.75,0.5);
#18=TOROIDAL_SURFACE('',#533,20.75,0.5);
#19=TOROIDAL_SURFACE('',#536,16.25,0.125);
#20=TOROIDAL_SURFACE('',#538,17.9503536262923,0.125);
#21=TOROIDAL_SURFACE('',#540,17.9503536262923,0.125);
#22=B_SPLINE_CURVE_WITH_KNOTS('',3,(#737,#738,#739,#740,#741,#742,#743,
#744,#745,#746,#747,#748,#749,#750,#751,#752,#753,#754),.UNSPECIFIED.,.F.,
 .F.,(4,2,2,2,2,2,2,2,4),(-0.844601145257186,-0.797641342033299,-0.750681538809413,
-0.690382300258782,-0.630083061708152,-0.57270976223686,-0.515336462765568,
-0.46881851769708,-0.422300572628593),.UNSPECIFIED.);
#23=B_SPLINE_CURVE_WITH_KNOTS('',3,(#755,#756,#757,#758,#759,#760,#761,
#762,#763,#764,#765,#766,#767,#768,#769,#770,#771,#772),.UNSPECIFIED.,.F.,
 .F.,(4,2,2,2,2,2,2,2,4),(-0.422300572628593,-0.375782627560105,-0.329264682491618,
-0.271891383020326,-0.214518083549034,-0.154218844998404,-0.0939196064477733,
-0.0469598032238866,0.),.UNSPECIFIED.);
#24=B_SPLINE_CURVE_WITH_KNOTS('',3,(#775,#776,#777,#778,#779,#780,#781,
#782,#783,#784,#785,#786,#787,#788,#789,#790,#791,#792),.UNSPECIFIED.,.F.,
 .F.,(4,2,2,2,2,2,2,2,4),(0.625532983842414,0.700541218969966,0.775549454097517,
0.855258910916733,0.93496836773595,1.01764367534368,1.10031898295141,1.17569247531812,
1.25106596768483),.UNSPECIFIED.);
#25=B_SPLINE_CURVE_WITH_KNOTS('',3,(#793,#794,#795,#796,#797,#798,#799,
#800,#801,#802,#803,#804,#805,#806,#807,#808,#809,#810),.UNSPECIFIED.,.F.,
 .F.,(4,2,2,2,2,2,2,2,4),(0.,0.0753734923667077,0.150746984733415,0.233422292341147,
0.316097599948878,0.395807056768094,0.475516513587311,0.550524748714862,
0.625532983842414),.UNSPECIFIED.);
#26=B_SPLINE_CURVE_WITH_KNOTS('',3,(#813,#814,#815,#816,#817,#818,#819,
#820,#821,#822,#823,#824,#825,#826,#827,#828,#829,#830),.UNSPECIFIED.,.F.,
 .F.,(4,2,2,2,2,2,2,2,4),(-1.09425629146116,-1.02835016167241,-0.96244403188366,
-0.890297476428054,-0.818150920972447,-0.748270845122054,-0.678390769271661,
-0.612759457501121,-0.54712814573058),.UNSPECIFIED.);
#27=B_SPLINE_CURVE_WITH_KNOTS('',3,(#831,#832,#833,#834,#835,#836,#837,
#838,#839,#840,#841,#842,#843,#844,#845,#846,#847,#848),.UNSPECIFIED.,.F.,
 .F.,(4,2,2,2,2,2,2,2,4),(-0.54712814573058,-0.48149683396004,-0.415865522189499,
-0.345985446339107,-0.276105370488714,-0.203958815033107,-0.1318122595775,
-0.0659061297887502,0.),.UNSPECIFIED.);
#28=B_SPLINE_CURVE_WITH_KNOTS('',3,(#850,#851,#852,#853,#854,#855,#856,
#857,#858,#859,#860,#861,#862,#863,#864,#865,#866,#867,#868,#869,#870,#871,
#872,#873,#874,#875,#876,#877,#878,#879,#880,#881,#882,#883),
 .UNSPECIFIED.,.T.,.F.,(4,2,2,2,2,2,2,2,2,2,2,2,2,2,2,2,4),(0.,0.0469598032238866,
0.0939196064477733,0.154218844998404,0.214518083549034,0.271891383020326,
0.329264682491618,0.375782627560105,0.422300572628593,0.46881851769708,
0.515336462765568,0.57270976223686,0.630083061708152,0.690382300258782,
0.750681538809413,0.797641342033299,0.844601145257186),.UNSPECIFIED.);
#29=B_SPLINE_CURVE_WITH_KNOTS('',3,(#891,#892,#893,#894,#895,#896,#897,
#898,#899,#900,#901,#902,#903,#904,#905,#906,#907,#908,#909,#910,#911,#912,
#913,#914,#915,#916,#917,#918,#919,#920,#921,#922,#923,#924),
 .UNSPECIFIED.,.T.,.F.,(4,2,2,2,2,2,2,2,2,2,2,2,2,2,2,2,4),(0.,0.0659325691429994,
0.131865138285999,0.205653497537674,0.279441856789349,0.350302501109367,
0.421163145429385,0.486723906233941,0.552284667038496,0.617845427843052,
0.683406188647607,0.754266832967625,0.825127477287643,0.898915836539318,
0.972704195790993,1.03863676493399,1.10456933407699),.UNSPECIFIED.);
#30=B_SPLINE_CURVE_WITH_KNOTS('',3,(#927,#928,#929,#930,#931,#932,#933,
#934,#935,#936,#937,#938,#939,#940,#941,#942,#943,#944),.UNSPECIFIED.,.F.,
 .F.,(4,2,2,2,2,2,2,2,4),(-0.876824999888584,-0.829739187745919,-0.782653375603253,
-0.717592227804046,-0.652531080004839,-0.591829529097353,-0.531127978189866,
-0.484770239067079,-0.438412499944292),.UNSPECIFIED.);
#31=B_SPLINE_CURVE_WITH_KNOTS('',3,(#945,#946,#947,#948,#949,#950,#951,
#952,#953,#954,#955,#956,#957,#958,#959,#960,#961,#962),.UNSPECIFIED.,.F.,
 .F.,(4,2,2,2,2,2,2,2,4),(-0.438412499944292,-0.392054760821505,-0.345697021698718,
-0.284995470791232,-0.224293919883745,-0.159232772084538,-0.0941716242853314,
-0.0470858121426657,0.),.UNSPECIFIED.);
#32=B_SPLINE_CURVE_WITH_KNOTS('',3,(#965,#966,#967,#968,#969,#970,#971,
#972,#973,#974,#975,#976,#977,#978,#979,#980,#981,#982),.UNSPECIFIED.,.F.,
 .F.,(4,2,2,2,2,2,2,2,4),(0.631528166084242,0.706455953204147,0.781383740324053,
0.862172829729437,0.942961919134821,1.02758471256818,1.11220750600155,1.18763191908502,
1.26305633216848),.UNSPECIFIED.);
#33=B_SPLINE_CURVE_WITH_KNOTS('',3,(#983,#984,#985,#986,#987,#988,#989,
#990,#991,#992,#993,#994,#995,#996,#997,#998,#999,#1000),.UNSPECIFIED.,
 .F.,.F.,(4,2,2,2,2,2,2,2,4),(0.,0.0754244130834681,0.150848826166936,0.235471619600299,
0.320094413033663,0.400883502439046,0.48167259184443,0.556600378964336,
0.631528166084242),.UNSPECIFIED.);
#34=B_SPLINE_CURVE_WITH_KNOTS('',3,(#1002,#1003,#1004,#1005,#1006,#1007,
#1008,#1009,#1010,#1011,#1012,#1013,#1014,#1015,#1016,#1017,#1018,#1019,
#1020,#1021,#1022,#1023,#1024,#1025,#1026,#1027,#1028,#1029,#1030,#1031,
#1032,#1033,#1034,#1035),.UNSPECIFIED.,.T.,.F.,(4,2,2,2,2,2,2,2,2,2,2,2,
2,2,2,2,4),(0.,0.0470858121426657,0.0941716242853314,0.159232772084538,
0.224293919883745,0.284995470791232,0.345697021698718,0.392054760821505,
0.438412499944292,0.484770239067079,0.531127978189866,0.591829529097353,
0.652531080004839,0.717592227804046,0.782653375603253,0.829739187745919,
0.876824999888584),.UNSPECIFIED.);
#35=LINE('',#731,#48);
#36=LINE('',#889,#49);
#37=LINE('',#1042,#50);
#38=LINE('',#1052,#51);
#39=LINE('',#1057,#52);
#40=LINE('',#1059,#53);
#41=LINE('',#1061,#54);
#42=LINE('',#1063,#55);
#43=LINE('',#1082,#56);
#44=LINE('',#1086,#57);
#45=LINE('',#1090,#58);
#46=LINE('',#1094,#59);
#47=LINE('',#1098,#60);
#48=VECTOR('',#593,17.8253536262923);
#49=VECTOR('',#604,16.125);
#50=VECTOR('',#611,21.25);
#51=VECTOR('',#622,21.25);
#52=VECTOR('',#629,1.75);
#53=VECTOR('',#632,1.25);
#54=VECTOR('',#635,1.75);
#55=VECTOR('',#638,1.25);
#56=VECTOR('',#671,2.);
#57=VECTOR('',#676,2.);
#58=VECTOR('',#681,2.);
#59=VECTOR('',#686,7.);
#60=VECTOR('',#691,2.);
#61=CYLINDRICAL_SURFACE('',#505,17.8253536262923);
#62=CYLINDRICAL_SURFACE('',#510,16.125);
#63=CYLINDRICAL_SURFACE('',#513,21.25);
#64=CYLINDRICAL_SURFACE('',#518,21.25);
#65=CYLINDRICAL_SURFACE('',#523,2.);
#66=CYLINDRICAL_SURFACE('',#524,1.25);
#67=CYLINDRICAL_SURFACE('',#525,1.75);
#68=CYLINDRICAL_SURFACE('',#526,1.25);
#69=CYLINDRICAL_SURFACE('',#542,2.);
#70=CYLINDRICAL_SURFACE('',#544,2.);
#71=CYLINDRICAL_SURFACE('',#546,2.);
#72=CYLINDRICAL_SURFACE('',#548,7.);
#73=CYLINDRICAL_SURFACE('',#550,2.);
#74=FACE_BOUND('',#121,.T.);
#75=FACE_BOUND('',#123,.T.);
#76=FACE_BOUND('',#124,.T.);
#77=FACE_BOUND('',#125,.T.);
#78=FACE_BOUND('',#126,.T.);
#79=FACE_BOUND('',#127,.T.);
#80=FACE_BOUND('',#129,.T.);
#81=FACE_BOUND('',#131,.T.);
#82=FACE_BOUND('',#133,.T.);
#83=FACE_BOUND('',#134,.T.);
#84=FACE_BOUND('',#135,.T.);
#85=FACE_BOUND('',#136,.T.);
#86=FACE_BOUND('',#138,.T.);
#87=FACE_BOUND('',#139,.T.);
#88=FACE_BOUND('',#140,.T.);
#89=FACE_BOUND('',#141,.T.);
#90=FACE_BOUND('',#161,.T.);
#91=FACE_BOUND('',#162,.T.);
#92=FACE_BOUND('',#163,.T.);
#93=FACE_BOUND('',#164,.T.);
#94=FACE_BOUND('',#165,.T.);
#95=FACE_OUTER_BOUND('',#120,.T.);
#96=FACE_OUTER_BOUND('',#122,.T.);
#97=FACE_OUTER_BOUND('',#128,.T.);
#98=FACE_OUTER_BOUND('',#130,.T.);
#99=FACE_OUTER_BOUND('',#132,.T.);
#100=FACE_OUTER_BOUND('',#137,.T.);
#101=FACE_OUTER_BOUND('',#142,.T.);
#102=FACE_OUTER_BOUND('',#143,.T.);
#103=FACE_OUTER_BOUND('',#144,.T.);
#104=FACE_OUTER_BOUND('',#145,.T.);
#105=FACE_OUTER_BOUND('',#146,.T.);
#106=FACE_OUTER_BOUND('',#147,.T.);
#107=FACE_OUTER_BOUND('',#148,.T.);
#108=FACE_OUTER_BOUND('',#149,.T.);
#109=FACE_OUTER_BOUND('',#150,.T.);
#110=FACE_OUTER_BOUND('',#151,.T.);
#111=FACE_OUTER_BOUND('',#152,.T.);
#112=FACE_OUTER_BOUND('',#153,.T.);
#113=FACE_OUTER_BOUND('',#154,.T.);
#114=FACE_OUTER_BOUND('',#155,.T.);
#115=FACE_OUTER_BOUND('',#156,.T.);
#116=FACE_OUTER_BOUND('',#157,.T.);
#117=FACE_OUTER_BOUND('',#158,.T.);
#118=FACE_OUTER_BOUND('',#159,.T.);
#119=FACE_OUTER_BOUND('',#160,.T.);
#120=EDGE_LOOP('',(#315));
#121=EDGE_LOOP('',(#316));
#122=EDGE_LOOP('',(#317));
#123=EDGE_LOOP('',(#318));
#124=EDGE_LOOP('',(#319));
#125=EDGE_LOOP('',(#320));
#126=EDGE_LOOP('',(#321));
#127=EDGE_LOOP('',(#322));
#128=EDGE_LOOP('',(#323));
#129=EDGE_LOOP('',(#324));
#130=EDGE_LOOP('',(#325));
#131=EDGE_LOOP('',(#326));
#132=EDGE_LOOP('',(#327,#328,#329,#330,#331,#332));
#133=EDGE_LOOP('',(#333,#334));
#134=EDGE_LOOP('',(#335,#336));
#135=EDGE_LOOP('',(#337,#338));
#136=EDGE_LOOP('',(#339));
#137=EDGE_LOOP('',(#340,#341,#342,#343,#344));
#138=EDGE_LOOP('',(#345));
#139=EDGE_LOOP('',(#346,#347));
#140=EDGE_LOOP('',(#348,#349));
#141=EDGE_LOOP('',(#350));
#142=EDGE_LOOP('',(#351,#352,#353,#354,#355,#356));
#143=EDGE_LOOP('',(#357,#358,#359,#360,#361,#362));
#144=EDGE_LOOP('',(#363,#364,#365,#366,#367,#368));
#145=EDGE_LOOP('',(#369,#370,#371,#372,#373));
#146=EDGE_LOOP('',(#374,#375,#376,#377,#378));
#147=EDGE_LOOP('',(#379,#380,#381,#382,#383));
#148=EDGE_LOOP('',(#384,#385,#386,#387,#388));
#149=EDGE_LOOP('',(#389,#390,#391,#392,#393));
#150=EDGE_LOOP('',(#394,#395,#396,#397,#398));
#151=EDGE_LOOP('',(#399,#400,#401,#402,#403));
#152=EDGE_LOOP('',(#404,#405,#406,#407,#408));
#153=EDGE_LOOP('',(#409,#410,#411,#412,#413));
#154=EDGE_LOOP('',(#414,#415,#416,#417,#418));
#155=EDGE_LOOP('',(#419,#420,#421,#422));
#156=EDGE_LOOP('',(#423,#424,#425,#426));
#157=EDGE_LOOP('',(#427,#428,#429,#430));
#158=EDGE_LOOP('',(#431,#432,#433,#434));
#159=EDGE_LOOP('',(#435,#436,#437,#438));
#160=EDGE_LOOP('',(#439));
#161=EDGE_LOOP('',(#440));
#162=EDGE_LOOP('',(#441));
#163=EDGE_LOOP('',(#442));
#164=EDGE_LOOP('',(#443));
#165=EDGE_LOOP('',(#444));
#166=CIRCLE('',#490,20.75);
#167=CIRCLE('',#491,16.25);
#168=CIRCLE('',#493,16.125);
#169=CIRCLE('',#494,7.);
#170=CIRCLE('',#495,2.);
#171=CIRCLE('',#496,2.);
#172=CIRCLE('',#497,2.);
#173=CIRCLE('',#498,2.);
#174=CIRCLE('',#500,20.75);
#175=CIRCLE('',#501,17.9503536262923);
#176=CIRCLE('',#503,20.75);
#177=CIRCLE('',#504,17.9503536262923);
#178=CIRCLE('',#506,17.8253536262923);
#179=CIRCLE('',#507,17.8253536262923);
#180=CIRCLE('',#508,17.8253536262923);
#181=CIRCLE('',#509,17.8253536262923);
#182=CIRCLE('',#511,16.125);
#183=CIRCLE('',#512,16.125);
#184=CIRCLE('',#514,21.25);
#185=CIRCLE('',#515,21.25);
#186=CIRCLE('',#516,21.25);
#187=CIRCLE('',#517,21.25);
#188=CIRCLE('',#519,21.25);
#189=CIRCLE('',#520,21.25);
#190=CIRCLE('',#521,21.25);
#191=CIRCLE('',#522,21.25);
#192=CIRCLE('',#528,0.5);
#193=CIRCLE('',#530,0.5);
#194=CIRCLE('',#532,0.5);
#195=CIRCLE('',#534,0.5);
#196=CIRCLE('',#535,20.75);
#197=CIRCLE('',#537,0.125);
#198=CIRCLE('',#539,0.125);
#199=CIRCLE('',#541,0.125);
#200=CIRCLE('',#543,2.);
#201=CIRCLE('',#545,2.);
#202=CIRCLE('',#547,2.);
#203=CIRCLE('',#549,7.);
#204=CIRCLE('',#551,2.);
#205=VERTEX_POINT('',#698);
#206=VERTEX_POINT('',#700);
#207=VERTEX_POINT('',#703);
#208=VERTEX_POINT('',#705);
#209=VERTEX_POINT('',#707);
#210=VERTEX_POINT('',#709);
#211=VERTEX_POINT('',#711);
#212=VERTEX_POINT('',#713);
#213=VERTEX_POINT('',#716);
#214=VERTEX_POINT('',#718);
#215=VERTEX_POINT('',#721);
#216=VERTEX_POINT('',#723);
#217=VERTEX_POINT('',#726);
#218=VERTEX_POINT('',#727);
#219=VERTEX_POINT('',#730);
#220=VERTEX_POINT('',#732);
#221=VERTEX_POINT('',#735);
#222=VERTEX_POINT('',#736);
#223=VERTEX_POINT('',#773);
#224=VERTEX_POINT('',#774);
#225=VERTEX_POINT('',#811);
#226=VERTEX_POINT('',#812);
#227=VERTEX_POINT('',#849);
#228=VERTEX_POINT('',#885);
#229=VERTEX_POINT('',#886);
#230=VERTEX_POINT('',#890);
#231=VERTEX_POINT('',#925);
#232=VERTEX_POINT('',#926);
#233=VERTEX_POINT('',#963);
#234=VERTEX_POINT('',#964);
#235=VERTEX_POINT('',#1001);
#236=VERTEX_POINT('',#1037);
#237=VERTEX_POINT('',#1038);
#238=VERTEX_POINT('',#1041);
#239=VERTEX_POINT('',#1043);
#240=VERTEX_POINT('',#1047);
#241=VERTEX_POINT('',#1048);
#242=VERTEX_POINT('',#1051);
#243=VERTEX_POINT('',#1053);
#244=VERTEX_POINT('',#1071);
#245=VERTEX_POINT('',#1081);
#246=VERTEX_POINT('',#1085);
#247=VERTEX_POINT('',#1089);
#248=VERTEX_POINT('',#1093);
#249=VERTEX_POINT('',#1097);
#250=EDGE_CURVE('',#205,#205,#166,.T.);
#251=EDGE_CURVE('',#206,#206,#167,.T.);
#252=EDGE_CURVE('',#207,#207,#168,.T.);
#253=EDGE_CURVE('',#208,#208,#169,.T.);
#254=EDGE_CURVE('',#209,#209,#170,.T.);
#255=EDGE_CURVE('',#210,#210,#171,.T.);
#256=EDGE_CURVE('',#211,#211,#172,.T.);
#257=EDGE_CURVE('',#212,#212,#173,.T.);
#258=EDGE_CURVE('',#213,#213,#174,.T.);
#259=EDGE_CURVE('',#214,#214,#175,.T.);
#260=EDGE_CURVE('',#215,#215,#176,.T.);
#261=EDGE_CURVE('',#216,#216,#177,.T.);
#262=EDGE_CURVE('',#217,#218,#178,.T.);
#263=EDGE_CURVE('',#218,#217,#179,.T.);
#264=EDGE_CURVE('',#217,#219,#35,.T.);
#265=EDGE_CURVE('',#219,#220,#180,.T.);
#266=EDGE_CURVE('',#220,#219,#181,.T.);
#267=EDGE_CURVE('',#221,#222,#22,.T.);
#268=EDGE_CURVE('',#222,#221,#23,.T.);
#269=EDGE_CURVE('',#223,#224,#24,.F.);
#270=EDGE_CURVE('',#224,#223,#25,.F.);
#271=EDGE_CURVE('',#225,#226,#26,.T.);
#272=EDGE_CURVE('',#226,#225,#27,.T.);
#273=EDGE_CURVE('',#227,#227,#28,.T.);
#274=EDGE_CURVE('',#228,#229,#182,.T.);
#275=EDGE_CURVE('',#229,#228,#183,.T.);
#276=EDGE_CURVE('',#228,#207,#36,.T.);
#277=EDGE_CURVE('',#230,#230,#29,.T.);
#278=EDGE_CURVE('',#231,#232,#30,.T.);
#279=EDGE_CURVE('',#232,#231,#31,.T.);
#280=EDGE_CURVE('',#233,#234,#32,.F.);
#281=EDGE_CURVE('',#234,#233,#33,.F.);
#282=EDGE_CURVE('',#235,#235,#34,.T.);
#283=EDGE_CURVE('',#236,#237,#184,.T.);
#284=EDGE_CURVE('',#237,#236,#185,.T.);
#285=EDGE_CURVE('',#236,#238,#37,.T.);
#286=EDGE_CURVE('',#238,#239,#186,.T.);
#287=EDGE_CURVE('',#239,#238,#187,.T.);
#288=EDGE_CURVE('',#240,#241,#188,.T.);
#289=EDGE_CURVE('',#241,#240,#189,.T.);
#290=EDGE_CURVE('',#240,#242,#38,.T.);
#291=EDGE_CURVE('',#242,#243,#190,.T.);
#292=EDGE_CURVE('',#243,#242,#191,.T.);
#293=EDGE_CURVE('',#224,#234,#39,.T.);
#294=EDGE_CURVE('',#222,#235,#40,.T.);
#295=EDGE_CURVE('',#226,#230,#41,.T.);
#296=EDGE_CURVE('',#227,#232,#42,.T.);
#297=EDGE_CURVE('',#205,#239,#192,.T.);
#298=EDGE_CURVE('',#237,#215,#193,.T.);
#299=EDGE_CURVE('',#213,#243,#194,.T.);
#300=EDGE_CURVE('',#241,#244,#195,.T.);
#301=EDGE_CURVE('',#244,#244,#196,.T.);
#302=EDGE_CURVE('',#229,#206,#197,.T.);
#303=EDGE_CURVE('',#216,#220,#198,.T.);
#304=EDGE_CURVE('',#218,#214,#199,.T.);
#305=EDGE_CURVE('',#211,#245,#43,.T.);
#306=EDGE_CURVE('',#245,#245,#200,.T.);
#307=EDGE_CURVE('',#210,#246,#44,.T.);
#308=EDGE_CURVE('',#246,#246,#201,.T.);
#309=EDGE_CURVE('',#209,#247,#45,.T.);
#310=EDGE_CURVE('',#247,#247,#202,.T.);
#311=EDGE_CURVE('',#208,#248,#46,.T.);
#312=EDGE_CURVE('',#248,#248,#203,.T.);
#313=EDGE_CURVE('',#212,#249,#47,.T.);
#314=EDGE_CURVE('',#249,#249,#204,.T.);
#315=ORIENTED_EDGE('',*,*,#250,.T.);
#316=ORIENTED_EDGE('',*,*,#251,.T.);
#317=ORIENTED_EDGE('',*,*,#252,.T.);
#318=ORIENTED_EDGE('',*,*,#253,.F.);
#319=ORIENTED_EDGE('',*,*,#254,.F.);
#320=ORIENTED_EDGE('',*,*,#255,.F.);
#321=ORIENTED_EDGE('',*,*,#256,.F.);
#322=ORIENTED_EDGE('',*,*,#257,.F.);
#323=ORIENTED_EDGE('',*,*,#258,.T.);
#324=ORIENTED_EDGE('',*,*,#259,.T.);
#325=ORIENTED_EDGE('',*,*,#260,.T.);
#326=ORIENTED_EDGE('',*,*,#261,.T.);
#327=ORIENTED_EDGE('',*,*,#262,.T.);
#328=ORIENTED_EDGE('',*,*,#263,.T.);
#329=ORIENTED_EDGE('',*,*,#264,.T.);
#330=ORIENTED_EDGE('',*,*,#265,.T.);
#331=ORIENTED_EDGE('',*,*,#266,.T.);
#332=ORIENTED_EDGE('',*,*,#264,.F.);
#333=ORIENTED_EDGE('',*,*,#267,.F.);
#334=ORIENTED_EDGE('',*,*,#268,.F.);
#335=ORIENTED_EDGE('',*,*,#269,.F.);
#336=ORIENTED_EDGE('',*,*,#270,.F.);
#337=ORIENTED_EDGE('',*,*,#271,.F.);
#338=ORIENTED_EDGE('',*,*,#272,.F.);
#339=ORIENTED_EDGE('',*,*,#273,.T.);
#340=ORIENTED_EDGE('',*,*,#274,.T.);
#341=ORIENTED_EDGE('',*,*,#275,.T.);
#342=ORIENTED_EDGE('',*,*,#276,.T.);
#343=ORIENTED_EDGE('',*,*,#252,.F.);
#344=ORIENTED_EDGE('',*,*,#276,.F.);
#345=ORIENTED_EDGE('',*,*,#277,.T.);
#346=ORIENTED_EDGE('',*,*,#278,.F.);
#347=ORIENTED_EDGE('',*,*,#279,.F.);
#348=ORIENTED_EDGE('',*,*,#280,.T.);
#349=ORIENTED_EDGE('',*,*,#281,.T.);
#350=ORIENTED_EDGE('',*,*,#282,.T.);
#351=ORIENTED_EDGE('',*,*,#283,.T.);
#352=ORIENTED_EDGE('',*,*,#284,.T.);
#353=ORIENTED_EDGE('',*,*,#285,.T.);
#354=ORIENTED_EDGE('',*,*,#286,.T.);
#355=ORIENTED_EDGE('',*,*,#287,.T.);
#356=ORIENTED_EDGE('',*,*,#285,.F.);
#357=ORIENTED_EDGE('',*,*,#288,.T.);
#358=ORIENTED_EDGE('',*,*,#289,.T.);
#359=ORIENTED_EDGE('',*,*,#290,.T.);
#360=ORIENTED_EDGE('',*,*,#291,.T.);
#361=ORIENTED_EDGE('',*,*,#292,.T.);
#362=ORIENTED_EDGE('',*,*,#290,.F.);
#363=ORIENTED_EDGE('',*,*,#269,.T.);
#364=ORIENTED_EDGE('',*,*,#293,.T.);
#365=ORIENTED_EDGE('',*,*,#280,.F.);
#366=ORIENTED_EDGE('',*,*,#281,.F.);
#367=ORIENTED_EDGE('',*,*,#293,.F.);
#368=ORIENTED_EDGE('',*,*,#270,.T.);
#369=ORIENTED_EDGE('',*,*,#267,.T.);
#370=ORIENTED_EDGE('',*,*,#294,.T.);
#371=ORIENTED_EDGE('',*,*,#282,.F.);
#372=ORIENTED_EDGE('',*,*,#294,.F.);
#373=ORIENTED_EDGE('',*,*,#268,.T.);
#374=ORIENTED_EDGE('',*,*,#271,.T.);
#375=ORIENTED_EDGE('',*,*,#295,.T.);
#376=ORIENTED_EDGE('',*,*,#277,.F.);
#377=ORIENTED_EDGE('',*,*,#295,.F.);
#378=ORIENTED_EDGE('',*,*,#272,.T.);
#379=ORIENTED_EDGE('',*,*,#273,.F.);
#380=ORIENTED_EDGE('',*,*,#296,.T.);
#381=ORIENTED_EDGE('',*,*,#279,.T.);
#382=ORIENTED_EDGE('',*,*,#278,.T.);
#383=ORIENTED_EDGE('',*,*,#296,.F.);
#384=ORIENTED_EDGE('',*,*,#250,.F.);
#385=ORIENTED_EDGE('',*,*,#297,.T.);
#386=ORIENTED_EDGE('',*,*,#286,.F.);
#387=ORIENTED_EDGE('',*,*,#287,.F.);
#388=ORIENTED_EDGE('',*,*,#297,.F.);
#389=ORIENTED_EDGE('',*,*,#283,.F.);
#390=ORIENTED_EDGE('',*,*,#284,.F.);
#391=ORIENTED_EDGE('',*,*,#298,.T.);
#392=ORIENTED_EDGE('',*,*,#260,.F.);
#393=ORIENTED_EDGE('',*,*,#298,.F.);
#394=ORIENTED_EDGE('',*,*,#258,.F.);
#395=ORIENTED_EDGE('',*,*,#299,.T.);
#396=ORIENTED_EDGE('',*,*,#291,.F.);
#397=ORIENTED_EDGE('',*,*,#292,.F.);
#398=ORIENTED_EDGE('',*,*,#299,.F.);
#399=ORIENTED_EDGE('',*,*,#288,.F.);
#400=ORIENTED_EDGE('',*,*,#289,.F.);
#401=ORIENTED_EDGE('',*,*,#300,.T.);
#402=ORIENTED_EDGE('',*,*,#301,.F.);
#403=ORIENTED_EDGE('',*,*,#300,.F.);
#404=ORIENTED_EDGE('',*,*,#274,.F.);
#405=ORIENTED_EDGE('',*,*,#275,.F.);
#406=ORIENTED_EDGE('',*,*,#302,.T.);
#407=ORIENTED_EDGE('',*,*,#251,.F.);
#408=ORIENTED_EDGE('',*,*,#302,.F.);
#409=ORIENTED_EDGE('',*,*,#261,.F.);
#410=ORIENTED_EDGE('',*,*,#303,.T.);
#411=ORIENTED_EDGE('',*,*,#265,.F.);
#412=ORIENTED_EDGE('',*,*,#266,.F.);
#413=ORIENTED_EDGE('',*,*,#303,.F.);
#414=ORIENTED_EDGE('',*,*,#262,.F.);
#415=ORIENTED_EDGE('',*,*,#263,.F.);
#416=ORIENTED_EDGE('',*,*,#304,.T.);
#417=ORIENTED_EDGE('',*,*,#259,.F.);
#418=ORIENTED_EDGE('',*,*,#304,.F.);
#419=ORIENTED_EDGE('',*,*,#256,.T.);
#420=ORIENTED_EDGE('',*,*,#305,.T.);
#421=ORIENTED_EDGE('',*,*,#306,.F.);
#422=ORIENTED_EDGE('',*,*,#305,.F.);
#423=ORIENTED_EDGE('',*,*,#255,.T.);
#424=ORIENTED_EDGE('',*,*,#307,.T.);
#425=ORIENTED_EDGE('',*,*,#308,.F.);
#426=ORIENTED_EDGE('',*,*,#307,.F.);
#427=ORIENTED_EDGE('',*,*,#254,.T.);
#428=ORIENTED_EDGE('',*,*,#309,.T.);
#429=ORIENTED_EDGE('',*,*,#310,.F.);
#430=ORIENTED_EDGE('',*,*,#309,.F.);
#431=ORIENTED_EDGE('',*,*,#253,.T.);
#432=ORIENTED_EDGE('',*,*,#311,.T.);
#433=ORIENTED_EDGE('',*,*,#312,.F.);
#434=ORIENTED_EDGE('',*,*,#311,.F.);
#435=ORIENTED_EDGE('',*,*,#257,.T.);
#436=ORIENTED_EDGE('',*,*,#313,.T.);
#437=ORIENTED_EDGE('',*,*,#314,.F.);
#438=ORIENTED_EDGE('',*,*,#313,.F.);
#439=ORIENTED_EDGE('',*,*,#301,.T.);
#440=ORIENTED_EDGE('',*,*,#314,.T.);
#441=ORIENTED_EDGE('',*,*,#312,.T.);
#442=ORIENTED_EDGE('',*,*,#310,.T.);
#443=ORIENTED_EDGE('',*,*,#308,.T.);
#444=ORIENTED_EDGE('',*,*,#306,.T.);
#445=PLANE('',#489);
#446=PLANE('',#492);
#447=PLANE('',#499);
#448=PLANE('',#502);
#449=PLANE('',#552);
#450=ADVANCED_FACE('',(#95,#74),#445,.T.);
#451=ADVANCED_FACE('',(#96,#75,#76,#77,#78,#79),#446,.T.);
#452=ADVANCED_FACE('',(#97,#80),#447,.T.);
#453=ADVANCED_FACE('',(#98,#81),#448,.F.);
#454=ADVANCED_FACE('',(#99,#82,#83,#84,#85),#61,.T.);
#455=ADVANCED_FACE('',(#100,#86,#87,#88,#89),#62,.F.);
#456=ADVANCED_FACE('',(#101),#63,.T.);
#457=ADVANCED_FACE('',(#102),#64,.T.);
#458=ADVANCED_FACE('',(#103),#65,.F.);
#459=ADVANCED_FACE('',(#104),#66,.F.);
#460=ADVANCED_FACE('',(#105),#67,.F.);
#461=ADVANCED_FACE('',(#106),#68,.F.);
#462=ADVANCED_FACE('',(#107),#15,.T.);
#463=ADVANCED_FACE('',(#108),#16,.T.);
#464=ADVANCED_FACE('',(#109),#17,.T.);
#465=ADVANCED_FACE('',(#110),#18,.T.);
#466=ADVANCED_FACE('',(#111),#19,.T.);
#467=ADVANCED_FACE('',(#112),#20,.F.);
#468=ADVANCED_FACE('',(#113),#21,.F.);
#469=ADVANCED_FACE('',(#114),#69,.F.);
#470=ADVANCED_FACE('',(#115),#70,.F.);
#471=ADVANCED_FACE('',(#116),#71,.F.);
#472=ADVANCED_FACE('',(#117),#72,.F.);
#473=ADVANCED_FACE('',(#118),#73,.F.);
#474=ADVANCED_FACE('',(#119,#90,#91,#92,#93,#94),#449,.T.);
#475=CLOSED_SHELL('',(#450,#451,#452,#453,#454,#455,#456,#457,#458,#459,
#460,#461,#462,#463,#464,#465,#466,#467,#468,#469,#470,#471,#472,#473,#474));
#476=DERIVED_UNIT_ELEMENT(#478,1.);
#477=DERIVED_UNIT_ELEMENT(#1106,-3.);
#478=(
MASS_UNIT()
NAMED_UNIT(*)
SI_UNIT(.KILO.,.GRAM.)
);
#479=DERIVED_UNIT((#476,#477));
#480=MEASURE_REPRESENTATION_ITEM('density measure',
POSITIVE_RATIO_MEASURE(7850.),#479);
#481=PROPERTY_DEFINITION_REPRESENTATION(#486,#483);
#482=PROPERTY_DEFINITION_REPRESENTATION(#487,#484);
#483=REPRESENTATION('material name',(#485),#1103);
#484=REPRESENTATION('density',(#480),#1103);
#485=DESCRIPTIVE_REPRESENTATION_ITEM('Steel','Steel');
#486=PROPERTY_DEFINITION('material property','material name',#1113);
#487=PROPERTY_DEFINITION('material property','density of part',#1113);
#488=AXIS2_PLACEMENT_3D('',#696,#553,#554);
#489=AXIS2_PLACEMENT_3D('',#697,#555,#556);
#490=AXIS2_PLACEMENT_3D('',#699,#557,#558);
#491=AXIS2_PLACEMENT_3D('',#701,#559,#560);
#492=AXIS2_PLACEMENT_3D('',#702,#561,#562);
#493=AXIS2_PLACEMENT_3D('',#704,#563,#564);
#494=AXIS2_PLACEMENT_3D('',#706,#565,#566);
#495=AXIS2_PLACEMENT_3D('',#708,#567,#568);
#496=AXIS2_PLACEMENT_3D('',#710,#569,#570);
#497=AXIS2_PLACEMENT_3D('',#712,#571,#572);
#498=AXIS2_PLACEMENT_3D('',#714,#573,#574);
#499=AXIS2_PLACEMENT_3D('',#715,#575,#576);
#500=AXIS2_PLACEMENT_3D('',#717,#577,#578);
#501=AXIS2_PLACEMENT_3D('',#719,#579,#580);
#502=AXIS2_PLACEMENT_3D('',#720,#581,#582);
#503=AXIS2_PLACEMENT_3D('',#722,#583,#584);
#504=AXIS2_PLACEMENT_3D('',#724,#585,#586);
#505=AXIS2_PLACEMENT_3D('',#725,#587,#588);
#506=AXIS2_PLACEMENT_3D('',#728,#589,#590);
#507=AXIS2_PLACEMENT_3D('',#729,#591,#592);
#508=AXIS2_PLACEMENT_3D('',#733,#594,#595);
#509=AXIS2_PLACEMENT_3D('',#734,#596,#597);
#510=AXIS2_PLACEMENT_3D('',#884,#598,#599);
#511=AXIS2_PLACEMENT_3D('',#887,#600,#601);
#512=AXIS2_PLACEMENT_3D('',#888,#602,#603);
#513=AXIS2_PLACEMENT_3D('',#1036,#605,#606);
#514=AXIS2_PLACEMENT_3D('',#1039,#607,#608);
#515=AXIS2_PLACEMENT_3D('',#1040,#609,#610);
#516=AXIS2_PLACEMENT_3D('',#1044,#612,#613);
#517=AXIS2_PLACEMENT_3D('',#1045,#614,#615);
#518=AXIS2_PLACEMENT_3D('',#1046,#616,#617);
#519=AXIS2_PLACEMENT_3D('',#1049,#618,#619);
#520=AXIS2_PLACEMENT_3D('',#1050,#620,#621);
#521=AXIS2_PLACEMENT_3D('',#1054,#623,#624);
#522=AXIS2_PLACEMENT_3D('',#1055,#625,#626);
#523=AXIS2_PLACEMENT_3D('',#1056,#627,#628);
#524=AXIS2_PLACEMENT_3D('',#1058,#630,#631);
#525=AXIS2_PLACEMENT_3D('',#1060,#633,#634);
#526=AXIS2_PLACEMENT_3D('',#1062,#636,#637);
#527=AXIS2_PLACEMENT_3D('',#1064,#639,#640);
#528=AXIS2_PLACEMENT_3D('',#1065,#641,#642);
#529=AXIS2_PLACEMENT_3D('',#1066,#643,#644);
#530=AXIS2_PLACEMENT_3D('',#1067,#645,#646);
#531=AXIS2_PLACEMENT_3D('',#1068,#647,#648);
#532=AXIS2_PLACEMENT_3D('',#1069,#649,#650);
#533=AXIS2_PLACEMENT_3D('',#1070,#651,#652);
#534=AXIS2_PLACEMENT_3D('',#1072,#653,#654);
#535=AXIS2_PLACEMENT_3D('',#1073,#655,#656);
#536=AXIS2_PLACEMENT_3D('',#1074,#657,#658);
#537=AXIS2_PLACEMENT_3D('',#1075,#659,#660);
#538=AXIS2_PLACEMENT_3D('',#1076,#661,#662);
#539=AXIS2_PLACEMENT_3D('',#1077,#663,#664);
#540=AXIS2_PLACEMENT_3D('',#1078,#665,#666);
#541=AXIS2_PLACEMENT_3D('',#1079,#667,#668);
#542=AXIS2_PLACEMENT_3D('',#1080,#669,#670);
#543=AXIS2_PLACEMENT_3D('',#1083,#672,#673);
#544=AXIS2_PLACEMENT_3D('',#1084,#674,#675);
#545=AXIS2_PLACEMENT_3D('',#1087,#677,#678);
#546=AXIS2_PLACEMENT_3D('',#1088,#679,#680);
#547=AXIS2_PLACEMENT_3D('',#1091,#682,#683);
#548=AXIS2_PLACEMENT_3D('',#1092,#684,#685);
#549=AXIS2_PLACEMENT_3D('',#1095,#687,#688);
#550=AXIS2_PLACEMENT_3D('',#1096,#689,#690);
#551=AXIS2_PLACEMENT_3D('',#1099,#692,#693);
#552=AXIS2_PLACEMENT_3D('',#1100,#694,#695);
#553=DIRECTION('axis',(0.,0.,1.));
#554=DIRECTION('refdir',(1.,0.,0.));
#555=DIRECTION('center_axis',(2.21987155289765E-15,-1.,1.31193225419034E-15));
#556=DIRECTION('ref_axis',(1.,2.21987155289764E-15,-2.18401830814817E-15));
#557=DIRECTION('center_axis',(2.21987155289765E-15,-1.,1.31193225419034E-15));
#558=DIRECTION('ref_axis',(-2.18401830814817E-15,-1.31193225419035E-15,
-1.));
#559=DIRECTION('center_axis',(-2.21987155289765E-15,1.,-1.31193225419034E-15));
#560=DIRECTION('ref_axis',(1.,2.21987155289764E-15,-2.24525064810554E-15));
#561=DIRECTION('center_axis',(2.21987155289765E-15,-1.,1.31193225419034E-15));
#562=DIRECTION('ref_axis',(1.,2.21987155289764E-15,-2.18401830814817E-15));
#563=DIRECTION('center_axis',(2.21987155289765E-15,-1.,1.31193225419034E-15));
#564=DIRECTION('ref_axis',(-2.18401830814817E-15,-1.31193225419035E-15,
-1.));
#565=DIRECTION('center_axis',(2.21987155289765E-15,-1.,1.31193225419034E-15));
#566=DIRECTION('ref_axis',(-2.18401830814817E-15,-1.31193225419035E-15,
-1.));
#567=DIRECTION('center_axis',(2.21987155289765E-15,-1.,1.31193225419034E-15));
#568=DIRECTION('ref_axis',(-2.24525064810553E-15,-1.31193225419035E-15,
-1.));
#569=DIRECTION('center_axis',(2.21987155289765E-15,-1.,1.31193225419034E-15));
#570=DIRECTION('ref_axis',(-2.18401830814817E-15,-1.31193225419035E-15,
-1.));
#571=DIRECTION('center_axis',(2.21987155289765E-15,-1.,1.31193225419034E-15));
#572=DIRECTION('ref_axis',(-2.18401830814817E-15,-1.31193225419035E-15,
-1.));
#573=DIRECTION('center_axis',(2.21987155289765E-15,-1.,1.31193225419034E-15));
#574=DIRECTION('ref_axis',(-2.24525064810553E-15,-1.31193225419035E-15,
-1.));
#575=DIRECTION('center_axis',(2.21987155289765E-15,-1.,1.31193225419034E-15));
#576=DIRECTION('ref_axis',(1.,2.21987155289764E-15,-2.18401830814817E-15));
#577=DIRECTION('center_axis',(2.21987155289765E-15,-1.,1.31193225419034E-15));
#578=DIRECTION('ref_axis',(-2.18401830814817E-15,-1.31193225419035E-15,
-1.));
#579=DIRECTION('center_axis',(-2.21987155289765E-15,1.,-1.31193225419034E-15));
#580=DIRECTION('ref_axis',(1.,2.21987155289764E-15,-2.24525064810554E-15));
#581=DIRECTION('center_axis',(2.21987155289765E-15,-1.,1.31193225419034E-15));
#582=DIRECTION('ref_axis',(1.,2.21987155289764E-15,-2.18401830814817E-15));
#583=DIRECTION('center_axis',(-2.21987155289765E-15,1.,-1.31193225419034E-15));
#584=DIRECTION('ref_axis',(-2.18401830814817E-15,-1.31193225419035E-15,
-1.));
#585=DIRECTION('center_axis',(2.21987155289765E-15,-1.,1.31193225419034E-15));
#586=DIRECTION('ref_axis',(1.,2.21987155289764E-15,-2.24525064810554E-15));
#587=DIRECTION('center_axis',(-2.21987155289765E-15,1.,-1.31193225419034E-15));
#588=DIRECTION('ref_axis',(2.18401830814817E-15,1.31193225419035E-15,1.));
#589=DIRECTION('center_axis',(2.21987155289765E-15,-1.,1.31193225419034E-15));
#590=DIRECTION('ref_axis',(1.,2.21987155289764E-15,-2.24525064810554E-15));
#591=DIRECTION('center_axis',(2.21987155289765E-15,-1.,1.31193225419034E-15));
#592=DIRECTION('ref_axis',(1.,2.21987155289764E-15,-2.24525064810554E-15));
#593=DIRECTION('',(2.21987155289765E-15,-1.,1.31193225419034E-15));
#594=DIRECTION('center_axis',(-2.21987155289765E-15,1.,-1.31193225419034E-15));
#595=DIRECTION('ref_axis',(1.,2.21987155289764E-15,-2.24525064810554E-15));
#596=DIRECTION('center_axis',(-2.21987155289765E-15,1.,-1.31193225419034E-15));
#597=DIRECTION('ref_axis',(1.,2.21987155289764E-15,-2.24525064810554E-15));
#598=DIRECTION('center_axis',(-2.21987155289765E-15,1.,-1.31193225419034E-15));
#599=DIRECTION('ref_axis',(2.18401830814817E-15,1.31193225419035E-15,1.));
#600=DIRECTION('center_axis',(2.21987155289765E-15,-1.,1.31193225419034E-15));
#601=DIRECTION('ref_axis',(1.,2.21987155289764E-15,-2.24525064810554E-15));
#602=DIRECTION('center_axis',(2.21987155289765E-15,-1.,1.31193225419034E-15));
#603=DIRECTION('ref_axis',(1.,2.21987155289764E-15,-2.24525064810554E-15));
#604=DIRECTION('',(-2.21987155289765E-15,1.,-1.31193225419034E-15));
#605=DIRECTION('center_axis',(-2.21987155289765E-15,1.,-1.31193225419034E-15));
#606=DIRECTION('ref_axis',(2.18401830814817E-15,1.31193225419035E-15,1.));
#607=DIRECTION('center_axis',(2.21987155289765E-15,-1.,1.31193225419034E-15));
#608=DIRECTION('ref_axis',(-2.18401830814817E-15,-1.31193225419035E-15,
-1.));
#609=DIRECTION('center_axis',(2.21987155289765E-15,-1.,1.31193225419034E-15));
#610=DIRECTION('ref_axis',(-2.18401830814817E-15,-1.31193225419035E-15,
-1.));
#611=DIRECTION('',(2.21987155289765E-15,-1.,1.31193225419034E-15));
#612=DIRECTION('center_axis',(-2.21987155289765E-15,1.,-1.31193225419034E-15));
#613=DIRECTION('ref_axis',(-2.18401830814817E-15,-1.31193225419035E-15,
-1.));
#614=DIRECTION('center_axis',(-2.21987155289765E-15,1.,-1.31193225419034E-15));
#615=DIRECTION('ref_axis',(-2.18401830814817E-15,-1.31193225419035E-15,
-1.));
#616=DIRECTION('center_axis',(-2.21987155289765E-15,1.,-1.31193225419034E-15));
#617=DIRECTION('ref_axis',(2.18401830814817E-15,1.31193225419035E-15,1.));
#618=DIRECTION('center_axis',(2.21987155289765E-15,-1.,1.31193225419034E-15));
#619=DIRECTION('ref_axis',(-2.18401830814817E-15,-1.31193225419035E-15,
-1.));
#620=DIRECTION('center_axis',(2.21987155289765E-15,-1.,1.31193225419034E-15));
#621=DIRECTION('ref_axis',(-2.18401830814817E-15,-1.31193225419035E-15,
-1.));
#622=DIRECTION('',(2.21987155289765E-15,-1.,1.31193225419034E-15));
#623=DIRECTION('center_axis',(-2.21987155289765E-15,1.,-1.31193225419034E-15));
#624=DIRECTION('ref_axis',(-2.18401830814817E-15,-1.31193225419035E-15,
-1.));
#625=DIRECTION('center_axis',(-2.21987155289765E-15,1.,-1.31193225419034E-15));
#626=DIRECTION('ref_axis',(-2.18401830814817E-15,-1.31193225419035E-15,
-1.));
#627=DIRECTION('center_axis',(-2.18401830814817E-15,-1.31193225419035E-15,
-1.));
#628=DIRECTION('ref_axis',(-1.,-2.21987155289764E-15,2.18401830814817E-15));
#629=DIRECTION('',(-2.18401830814817E-15,-1.31193225419035E-15,-1.));
#630=DIRECTION('center_axis',(-2.18401830814817E-15,-1.31193225419035E-15,
-1.));
#631=DIRECTION('ref_axis',(-1.,-2.21987155289764E-15,2.18401830814817E-15));
#632=DIRECTION('',(-2.18401830814817E-15,-1.31193225419035E-15,-1.));
#633=DIRECTION('center_axis',(2.18401830814817E-15,1.31193225419035E-15,
1.));
#634=DIRECTION('ref_axis',(1.,2.21987155289764E-15,-2.18401830814817E-15));
#635=DIRECTION('',(2.18401830814817E-15,1.31193225419035E-15,1.));
#636=DIRECTION('center_axis',(2.18401830814817E-15,1.31193225419035E-15,
1.));
#637=DIRECTION('ref_axis',(1.,2.21987155289764E-15,-2.18401830814817E-15));
#638=DIRECTION('',(2.18401830814817E-15,1.31193225419035E-15,1.));
#639=DIRECTION('center_axis',(2.21987155289765E-15,-1.,1.31193225419034E-15));
#640=DIRECTION('ref_axis',(-2.1734248387956E-15,-1.3374922084896E-15,-1.));
#641=DIRECTION('center_axis',(-1.,-2.21987155289764E-15,2.089831575765E-15));
#642=DIRECTION('ref_axis',(2.089831575765E-15,1.35839052424725E-15,1.));
#643=DIRECTION('center_axis',(2.21987155289765E-15,-1.,1.31193225419034E-15));
#644=DIRECTION('ref_axis',(-2.1734248387956E-15,-1.3374922084896E-15,-1.));
#645=DIRECTION('center_axis',(-1.,-2.21987155289764E-15,2.089831575765E-15));
#646=DIRECTION('ref_axis',(2.089831575765E-15,1.35839052424725E-15,1.));
#647=DIRECTION('center_axis',(2.21987155289765E-15,-1.,1.31193225419034E-15));
#648=DIRECTION('ref_axis',(-2.1734248387956E-15,-1.3374922084896E-15,-1.));
#649=DIRECTION('center_axis',(-1.,-2.21987155289764E-15,2.089831575765E-15));
#650=DIRECTION('ref_axis',(2.089831575765E-15,1.253898945459E-15,1.));
#651=DIRECTION('center_axis',(2.21987155289765E-15,-1.,1.31193225419034E-15));
#652=DIRECTION('ref_axis',(-2.1734248387956E-15,-1.3374922084896E-15,-1.));
#653=DIRECTION('center_axis',(-1.,-2.21987155289764E-15,2.089831575765E-15));
#654=DIRECTION('ref_axis',(2.089831575765E-15,1.253898945459E-15,1.));
#655=DIRECTION('center_axis',(-2.21987155289765E-15,1.,-1.31193225419034E-15));
#656=DIRECTION('ref_axis',(-2.18401830814817E-15,-1.31193225419035E-15,
-1.));
#657=DIRECTION('center_axis',(2.21987155289765E-15,-1.,1.31193225419034E-15));
#658=DIRECTION('ref_axis',(1.,2.1695961397255E-15,-2.6035153676706E-15));
#659=DIRECTION('center_axis',(-2.16959613972549E-15,-1.31193225419035E-15,
-1.));
#660=DIRECTION('ref_axis',(-1.,-2.1695961397255E-15,2.1695961397255E-15));
#661=DIRECTION('center_axis',(2.21987155289765E-15,-1.,1.31193225419034E-15));
#662=DIRECTION('ref_axis',(1.,2.16205177916742E-15,-2.35860194090991E-15));
#663=DIRECTION('center_axis',(1.96550161742492E-15,1.31193225419035E-15,
1.));
#664=DIRECTION('ref_axis',(-1.,-2.21118931960304E-15,1.96550161742493E-15));
#665=DIRECTION('center_axis',(2.21987155289765E-15,-1.,1.31193225419034E-15));
#666=DIRECTION('ref_axis',(1.,2.16205177916742E-15,-2.35860194090991E-15));
#667=DIRECTION('center_axis',(1.96550161742492E-15,1.31193225419035E-15,
1.));
#668=DIRECTION('ref_axis',(-1.,-2.21118931960304E-15,1.96550161742493E-15));
#669=DIRECTION('center_axis',(-2.21987155289765E-15,1.,-1.31193225419034E-15));
#670=DIRECTION('ref_axis',(2.18401830814817E-15,1.31193225419035E-15,1.));
#671=DIRECTION('',(-2.21987155289765E-15,1.,-1.31193225419034E-15));
#672=DIRECTION('center_axis',(2.21987155289765E-15,-1.,1.31193225419034E-15));
#673=DIRECTION('ref_axis',(2.18401830814817E-15,1.31193225419035E-15,1.));
#674=DIRECTION('center_axis',(-2.21987155289765E-15,1.,-1.31193225419034E-15));
#675=DIRECTION('ref_axis',(2.18401830814817E-15,1.31193225419035E-15,1.));
#676=DIRECTION('',(-2.21987155289765E-15,1.,-1.31193225419034E-15));
#677=DIRECTION('center_axis',(2.21987155289765E-15,-1.,1.31193225419034E-15));
#678=DIRECTION('ref_axis',(2.18401830814817E-15,1.31193225419035E-15,1.));
#679=DIRECTION('center_axis',(-2.21987155289765E-15,1.,-1.31193225419034E-15));
#680=DIRECTION('ref_axis',(2.24525064810553E-15,1.31193225419035E-15,1.));
#681=DIRECTION('',(-2.21987155289765E-15,1.,-1.31193225419034E-15));
#682=DIRECTION('center_axis',(2.21987155289765E-15,-1.,1.31193225419034E-15));
#683=DIRECTION('ref_axis',(2.24525064810553E-15,1.31193225419035E-15,1.));
#684=DIRECTION('center_axis',(-2.21987155289765E-15,1.,-1.31193225419034E-15));
#685=DIRECTION('ref_axis',(2.18401830814817E-15,1.31193225419035E-15,1.));
#686=DIRECTION('',(-2.21987155289765E-15,1.,-1.31193225419034E-15));
#687=DIRECTION('center_axis',(2.21987155289765E-15,-1.,1.31193225419034E-15));
#688=DIRECTION('ref_axis',(2.18401830814817E-15,1.31193225419035E-15,1.));
#689=DIRECTION('center_axis',(-2.21987155289765E-15,1.,-1.31193225419034E-15));
#690=DIRECTION('ref_axis',(2.24525064810553E-15,1.31193225419035E-15,1.));
#691=DIRECTION('',(-2.21987155289765E-15,1.,-1.31193225419034E-15));
#692=DIRECTION('center_axis',(2.21987155289765E-15,-1.,1.31193225419034E-15));
#693=DIRECTION('ref_axis',(2.24525064810553E-15,1.31193225419035E-15,1.));
#694=DIRECTION('center_axis',(-2.21987155289765E-15,1.,-1.31193225419034E-15));
#695=DIRECTION('ref_axis',(-1.,-2.21987155289764E-15,2.24525064810554E-15));
#696=CARTESIAN_POINT('',(0.,0.,0.));
#697=CARTESIAN_POINT('Origin',(24.3417446343866,16.8582545838002,-116.041132254924));
#698=CARTESIAN_POINT('',(24.3417446343866,16.8582545838002,-95.2911322549236));
#699=CARTESIAN_POINT('Origin',(24.3417446343866,16.8582545838002,-116.041132254924));
#700=CARTESIAN_POINT('',(8.09174463438657,16.8582545838002,-116.041132254924));
#701=CARTESIAN_POINT('Origin',(24.3417446343866,16.8582545838002,-116.041132254924));
#702=CARTESIAN_POINT('Origin',(24.3417446343866,24.8582545838002,-116.041132254924));
#703=CARTESIAN_POINT('',(24.3417446343865,24.8582545838002,-132.166132254924));
#704=CARTESIAN_POINT('Origin',(24.3417446343866,24.8582545838002,-116.041132254924));
#705=CARTESIAN_POINT('',(24.3417446343865,24.8582545838002,-123.041132254924));
#706=CARTESIAN_POINT('Origin',(24.3417446343866,24.8582545838002,-116.041132254924));
#707=CARTESIAN_POINT('',(13.0280361354017,24.8582545838002,-118.041132254924));
#708=CARTESIAN_POINT('Origin',(13.0280361354018,24.8582545838002,-116.041132254924));
#709=CARTESIAN_POINT('',(24.3417446343865,24.8582545838002,-129.354840753908));
#710=CARTESIAN_POINT('Origin',(24.3417446343865,24.8582545838002,-127.354840753908));
#711=CARTESIAN_POINT('',(24.3417446343866,24.8582545838002,-106.727423755939));
#712=CARTESIAN_POINT('Origin',(24.3417446343866,24.8582545838002,-104.727423755939));
#713=CARTESIAN_POINT('',(35.6554531333714,24.8582545838002,-118.041132254924));
#714=CARTESIAN_POINT('Origin',(35.6554531333714,24.8582545838002,-116.041132254924));
#715=CARTESIAN_POINT('Origin',(24.3417446343866,24.1082545838002,-116.041132254924));
#716=CARTESIAN_POINT('',(24.3417446343866,24.1082545838002,-95.2911322549236));
#717=CARTESIAN_POINT('Origin',(24.3417446343866,24.1082545838002,-116.041132254924));
#718=CARTESIAN_POINT('',(6.39139100809425,24.1082545838002,-116.041132254924));
#719=CARTESIAN_POINT('Origin',(24.3417446343866,24.1082545838002,-116.041132254924));
#720=CARTESIAN_POINT('Origin',(24.3417446343866,18.3582545838002,-116.041132254924));
#721=CARTESIAN_POINT('',(24.3417446343866,18.3582545838002,-95.2911322549236));
#722=CARTESIAN_POINT('Origin',(24.3417446343866,18.3582545838002,-116.041132254924));
#723=CARTESIAN_POINT('',(6.39139100809427,18.3582545838002,-116.041132254924));
#724=CARTESIAN_POINT('Origin',(24.3417446343866,18.3582545838002,-116.041132254924));
#725=CARTESIAN_POINT('Origin',(24.3417446343866,16.8582545838002,-116.041132254924));
#726=CARTESIAN_POINT('',(24.3417446343865,23.9832545838002,-133.866485881216));
#727=CARTESIAN_POINT('',(6.51639100809425,23.9832545838002,-116.041132254924));
#728=CARTESIAN_POINT('Origin',(24.3417446343866,23.9832545838002,-116.041132254924));
#729=CARTESIAN_POINT('Origin',(24.3417446343866,23.9832545838002,-116.041132254924));
#730=CARTESIAN_POINT('',(24.3417446343865,18.4832545838002,-133.866485881216));
#731=CARTESIAN_POINT('',(24.3417446343865,16.8582545838002,-133.866485881216));
#732=CARTESIAN_POINT('',(6.51639100809427,18.4832545838002,-116.041132254924));
#733=CARTESIAN_POINT('Origin',(24.3417446343866,18.4832545838002,-116.041132254924));
#734=CARTESIAN_POINT('Origin',(24.3417446343866,18.4832545838002,-116.041132254924));
#735=CARTESIAN_POINT('',(12.6811946343866,20.8582545838002,-102.558743534824));
#736=CARTESIAN_POINT('',(15.1811946343866,20.8582545838002,-100.749711274522));
#737=CARTESIAN_POINT('Ctrl Pts',(12.6811946343866,20.8582545838002,-102.558743534824));
#738=CARTESIAN_POINT('Ctrl Pts',(12.6811946343866,20.7017219063873,-102.558743534824));
#739=CARTESIAN_POINT('Ctrl Pts',(12.7124372978933,20.5391953358383,-102.531567543708));
#740=CARTESIAN_POINT('Ctrl Pts',(12.8292548322766,20.2476016231307,-102.431881490436));
#741=CARTESIAN_POINT('Ctrl Pts',(12.9145283216756,20.1182346077627,-102.35989656324));
#742=CARTESIAN_POINT('Ctrl Pts',(13.1249631349956,19.886972218666,-102.186510585712));
#743=CARTESIAN_POINT('Ctrl Pts',(13.2730608632916,19.781194892887,-102.067271823777));
#744=CARTESIAN_POINT('Ctrl Pts',(13.594539178121,19.6417593063014,-101.818540695988));
#745=CARTESIAN_POINT('Ctrl Pts',(13.7680386186863,19.6082545838002,-101.689115916597));
#746=CARTESIAN_POINT('Ctrl Pts',(14.0864337248679,19.6082545838002,-101.460034750077));
#747=CARTESIAN_POINT('Ctrl Pts',(14.2559697700823,19.6387935458841,-101.342241007397));
#748=CARTESIAN_POINT('Ctrl Pts',(14.575629198845,19.7732346482372,-101.127941861128));
#749=CARTESIAN_POINT('Ctrl Pts',(14.725624966455,19.8773042254791,-101.031351201346));
#750=CARTESIAN_POINT('Ctrl Pts',(14.9426304060389,20.1100568295661,-100.894744365037));
#751=CARTESIAN_POINT('Ctrl Pts',(15.0310622169035,20.2431628659279,-100.840497355887));
#752=CARTESIAN_POINT('Ctrl Pts',(15.1504442598457,20.5397000219339,-100.768015163548));
#753=CARTESIAN_POINT('Ctrl Pts',(15.1811946343866,20.7031947669053,-100.749711274522));
#754=CARTESIAN_POINT('Ctrl Pts',(15.1811946343866,20.8582545838002,-100.749711274522));
#755=CARTESIAN_POINT('Ctrl Pts',(15.1811946343866,20.8582545838002,-100.749711274522));
#756=CARTESIAN_POINT('Ctrl Pts',(15.1811946343866,21.0133144006952,-100.749711274522));
#757=CARTESIAN_POINT('Ctrl Pts',(15.1504442598457,21.1768091456665,-100.768015163548));
#758=CARTESIAN_POINT('Ctrl Pts',(15.0310622169035,21.4733463016726,-100.840497355887));
#759=CARTESIAN_POINT('Ctrl Pts',(14.9426304060389,21.6064523380344,-100.894744365037));
#760=CARTESIAN_POINT('Ctrl Pts',(14.725624966455,21.8392049421213,-101.031351201346));
#761=CARTESIAN_POINT('Ctrl Pts',(14.575629198845,21.9432745193632,-101.127941861128));
#762=CARTESIAN_POINT('Ctrl Pts',(14.2559697700822,22.0777156217163,-101.342241007397));
#763=CARTESIAN_POINT('Ctrl Pts',(14.0864337248679,22.1082545838002,-101.460034750077));
#764=CARTESIAN_POINT('Ctrl Pts',(13.7680386186863,22.1082545838002,-101.689115916597));
#765=CARTESIAN_POINT('Ctrl Pts',(13.594539178121,22.074749861299,-101.818540695988));
#766=CARTESIAN_POINT('Ctrl Pts',(13.2730608632916,21.9353142747134,-102.067271823777));
#767=CARTESIAN_POINT('Ctrl Pts',(13.1249631349956,21.8295369489345,-102.186510585712));
#768=CARTESIAN_POINT('Ctrl Pts',(12.9145283216756,21.5982745598377,-102.35989656324));
#769=CARTESIAN_POINT('Ctrl Pts',(12.8292548322766,21.4689075444698,-102.431881490436));
#770=CARTESIAN_POINT('Ctrl Pts',(12.7124372978933,21.1773138317622,-102.531567543708));
#771=CARTESIAN_POINT('Ctrl Pts',(12.6811946343866,21.0147872612132,-102.558743534824));
#772=CARTESIAN_POINT('Ctrl Pts',(12.6811946343866,20.8582545838002,-102.558743534824));
#773=CARTESIAN_POINT('',(15.9311946343866,20.8582545838002,-100.324711523731));
#774=CARTESIAN_POINT('',(19.9311946343866,20.8582545838002,-98.7700500479549));
#775=CARTESIAN_POINT('Ctrl Pts',(19.9311946343866,20.8582545838002,-98.7700500479549));
#776=CARTESIAN_POINT('Ctrl Pts',(19.9311946343866,20.6082271333751,-98.7700500479549));
#777=CARTESIAN_POINT('Ctrl Pts',(19.8813668726429,20.3420444891481,-98.7825392746688));
#778=CARTESIAN_POINT('Ctrl Pts',(19.6807217440753,19.8538645552063,-98.8356428049993));
#779=CARTESIAN_POINT('Ctrl Pts',(19.5299528331074,19.6318825516378,-98.8765802147517));
#780=CARTESIAN_POINT('Ctrl Pts',(19.175931336093,19.2713060668502,-98.9796642282564));
#781=CARTESIAN_POINT('Ctrl Pts',(18.9456612095406,19.1136527795928,-99.050118009056));
#782=CARTESIAN_POINT('Ctrl Pts',(18.4471680156902,18.9072165868801,-99.2165595120866));
#783=CARTESIAN_POINT('Ctrl Pts',(18.1791161803141,18.8582545838002,-99.3128377223875));
#784=CARTESIAN_POINT('Ctrl Pts',(17.6740483572688,18.8582545838002,-99.5074997140317));
#785=CARTESIAN_POINT('Ctrl Pts',(17.4016032603761,18.9105726780324,-99.6200317927322));
#786=CARTESIAN_POINT('Ctrl Pts',(16.900852913888,19.1226487271668,-99.8407855581657));
#787=CARTESIAN_POINT('Ctrl Pts',(16.6724024519247,19.2823420849576,-99.9487397983164));
#788=CARTESIAN_POINT('Ctrl Pts',(16.3262677836488,19.641382778428,-100.118532961372));
#789=CARTESIAN_POINT('Ctrl Pts',(16.1791498883049,19.8590763383284,-100.194122574504));
#790=CARTESIAN_POINT('Ctrl Pts',(15.9815080266798,20.3417861077765,-100.297495033708));
#791=CARTESIAN_POINT('Ctrl Pts',(15.9311946343866,20.6070096092445,-100.324711523731));
#792=CARTESIAN_POINT('Ctrl Pts',(15.9311946343866,20.8582545838002,-100.324711523731));
#793=CARTESIAN_POINT('Ctrl Pts',(15.9311946343866,20.8582545838002,-100.324711523731));
#794=CARTESIAN_POINT('Ctrl Pts',(15.9311946343866,21.1094995583559,-100.324711523731));
#795=CARTESIAN_POINT('Ctrl Pts',(15.9815080266798,21.3747230598239,-100.297495033708));
#796=CARTESIAN_POINT('Ctrl Pts',(16.1791498883049,21.8574328292721,-100.194122574504));
#797=CARTESIAN_POINT('Ctrl Pts',(16.3262677836488,22.0751263891724,-100.118532961372));
#798=CARTESIAN_POINT('Ctrl Pts',(16.6724024519247,22.4341670826428,-99.9487397983164));
#799=CARTESIAN_POINT('Ctrl Pts',(16.9008529138879,22.5938604404337,-99.8407855581657));
#800=CARTESIAN_POINT('Ctrl Pts',(17.4016032603761,22.8059364895681,-99.6200317927322));
#801=CARTESIAN_POINT('Ctrl Pts',(17.6740483572688,22.8582545838002,-99.5074997140317));
#802=CARTESIAN_POINT('Ctrl Pts',(18.1791161803141,22.8582545838002,-99.3128377223875));
#803=CARTESIAN_POINT('Ctrl Pts',(18.4471680156902,22.8092925807203,-99.2165595120866));
#804=CARTESIAN_POINT('Ctrl Pts',(18.9456612095406,22.6028563880077,-99.050118009056));
#805=CARTESIAN_POINT('Ctrl Pts',(19.175931336093,22.4452031007503,-98.9796642282564));
#806=CARTESIAN_POINT('Ctrl Pts',(19.5299528331074,22.0846266159627,-98.8765802147517));
#807=CARTESIAN_POINT('Ctrl Pts',(19.6807217440753,21.8626446123941,-98.8356428049993));
#808=CARTESIAN_POINT('Ctrl Pts',(19.8813668726429,21.3744646784524,-98.7825392746688));
#809=CARTESIAN_POINT('Ctrl Pts',(19.9311946343866,21.1082820342254,-98.7700500479549));
#810=CARTESIAN_POINT('Ctrl Pts',(19.9311946343866,20.8582545838002,-98.7700500479549));
#811=CARTESIAN_POINT('',(32.5022946343865,20.8582545838002,-131.888802607372));
#812=CARTESIAN_POINT('',(29.0022946343865,20.8582545838002,-133.246436832288));
#813=CARTESIAN_POINT('Ctrl Pts',(32.5022946343865,20.8582545838002,-131.888802607372));
#814=CARTESIAN_POINT('Ctrl Pts',(32.5022946343865,20.6385674845044,-131.888802607372));
#815=CARTESIAN_POINT('Ctrl Pts',(32.458326750875,20.4064592268847,-131.911662329507));
#816=CARTESIAN_POINT('Ctrl Pts',(32.2852268160562,19.9837353945929,-131.999005570214));
#817=CARTESIAN_POINT('Ctrl Pts',(32.1562689509059,19.7929600916673,-132.063060558775));
#818=CARTESIAN_POINT('Ctrl Pts',(31.8528734333133,19.4786352411575,-132.207672616298));
#819=CARTESIAN_POINT('Ctrl Pts',(31.6528290900194,19.3390171596125,-132.299922687528));
#820=CARTESIAN_POINT('Ctrl Pts',(31.2147924999138,19.1538073318025,-132.489884039754));
#821=CARTESIAN_POINT('Ctrl Pts',(30.9766931722221,19.1082545838002,-132.587386348525));
#822=CARTESIAN_POINT('Ctrl Pts',(30.5349455628246,19.1082545838002,-132.757643619976));
#823=CARTESIAN_POINT('Ctrl Pts',(30.3002022167342,19.1512438626538,-132.842712941605));
#824=CARTESIAN_POINT('Ctrl Pts',(29.863890764661,19.3321445674043,-132.991124361272));
#825=CARTESIAN_POINT('Ctrl Pts',(29.6624586570513,19.4702034654715,-133.054686372824));
#826=CARTESIAN_POINT('Ctrl Pts',(29.353037316975,19.7856946935523,-133.148285453588));
#827=CARTESIAN_POINT('Ctrl Pts',(29.2212910175641,19.9797448366222,-133.185855905476));
#828=CARTESIAN_POINT('Ctrl Pts',(29.0458952323855,20.4066433989901,-133.234808097978));
#829=CARTESIAN_POINT('Ctrl Pts',(29.0022946343865,20.6394835445651,-133.246436832288));
#830=CARTESIAN_POINT('Ctrl Pts',(29.0022946343865,20.8582545838002,-133.246436832288));
#831=CARTESIAN_POINT('Ctrl Pts',(29.0022946343865,20.8582545838002,-133.246436832288));
#832=CARTESIAN_POINT('Ctrl Pts',(29.0022946343865,21.0770256230353,-133.246436832288));
#833=CARTESIAN_POINT('Ctrl Pts',(29.0458952323855,21.3098657686103,-133.234808097978));
#834=CARTESIAN_POINT('Ctrl Pts',(29.2212910175641,21.7367643309782,-133.185855905476));
#835=CARTESIAN_POINT('Ctrl Pts',(29.353037316975,21.9308144740481,-133.148285453588));
#836=CARTESIAN_POINT('Ctrl Pts',(29.6624586570513,22.246305702129,-133.054686372824));
#837=CARTESIAN_POINT('Ctrl Pts',(29.863890764661,22.3843646001962,-132.991124361272));
#838=CARTESIAN_POINT('Ctrl Pts',(30.3002022167342,22.5652653049466,-132.842712941605));
#839=CARTESIAN_POINT('Ctrl Pts',(30.5349455628246,22.6082545838002,-132.757643619976));
#840=CARTESIAN_POINT('Ctrl Pts',(30.9766931722221,22.6082545838002,-132.587386348525));
#841=CARTESIAN_POINT('Ctrl Pts',(31.2147924999138,22.5627018357979,-132.489884039754));
#842=CARTESIAN_POINT('Ctrl Pts',(31.6528290900194,22.3774920079879,-132.299922687528));
#843=CARTESIAN_POINT('Ctrl Pts',(31.8528734333133,22.237873926443,-132.207672616298));
#844=CARTESIAN_POINT('Ctrl Pts',(32.1562689509059,21.9235490759331,-132.063060558775));
#845=CARTESIAN_POINT('Ctrl Pts',(32.2852268160562,21.7327737730076,-131.999005570214));
#846=CARTESIAN_POINT('Ctrl Pts',(32.458326750875,21.3100499407158,-131.911662329507));
#847=CARTESIAN_POINT('Ctrl Pts',(32.5022946343865,21.077941683096,-131.888802607372));
#848=CARTESIAN_POINT('Ctrl Pts',(32.5022946343865,20.8582545838002,-131.888802607372));
#849=CARTESIAN_POINT('',(33.5022946343865,20.8582546967449,-131.332553235325));
#850=CARTESIAN_POINT('Ctrl Pts',(36.0022946343865,20.8582545838002,-129.523520975023));
#851=CARTESIAN_POINT('Ctrl Pts',(36.0022946343865,21.0147872612132,-129.523520975023));
#852=CARTESIAN_POINT('Ctrl Pts',(35.9710519708799,21.1773138317622,-129.550696966139));
#853=CARTESIAN_POINT('Ctrl Pts',(35.8542344364965,21.4689075444698,-129.650383019411));
#854=CARTESIAN_POINT('Ctrl Pts',(35.7689609470975,21.5982745598377,-129.722367946607));
#855=CARTESIAN_POINT('Ctrl Pts',(35.5585261337776,21.8295369489345,-129.895753924135));
#856=CARTESIAN_POINT('Ctrl Pts',(35.4104284054815,21.9353142747134,-130.01499268607));
#857=CARTESIAN_POINT('Ctrl Pts',(35.0889500906522,22.074749861299,-130.263723813859));
#858=CARTESIAN_POINT('Ctrl Pts',(34.9154506500868,22.1082545838002,-130.39314859325));
#859=CARTESIAN_POINT('Ctrl Pts',(34.5970555439052,22.1082545838002,-130.62222975977));
#860=CARTESIAN_POINT('Ctrl Pts',(34.4275194986909,22.0777156217163,-130.740023502451));
#861=CARTESIAN_POINT('Ctrl Pts',(34.1078600699281,21.9432745193632,-130.95432264872));
#862=CARTESIAN_POINT('Ctrl Pts',(33.9578643023181,21.8392049421213,-131.050913308501));
#863=CARTESIAN_POINT('Ctrl Pts',(33.7408588627342,21.6064523380344,-131.187520144811));
#864=CARTESIAN_POINT('Ctrl Pts',(33.6524270518696,21.4733463016726,-131.24176715396));
#865=CARTESIAN_POINT('Ctrl Pts',(33.5330450089274,21.1768091456665,-131.314249346299));
#866=CARTESIAN_POINT('Ctrl Pts',(33.5022946343865,21.0133144006952,-131.332553235325));
#867=CARTESIAN_POINT('Ctrl Pts',(33.5022946343865,20.7031947669053,-131.332553235325));
#868=CARTESIAN_POINT('Ctrl Pts',(33.5330450089274,20.5397000219339,-131.314249346299));
#869=CARTESIAN_POINT('Ctrl Pts',(33.6524270518696,20.2431628659279,-131.24176715396));
#870=CARTESIAN_POINT('Ctrl Pts',(33.7408588627342,20.1100568295661,-131.187520144811));
#871=CARTESIAN_POINT('Ctrl Pts',(33.9578643023181,19.8773042254791,-131.050913308501));
#872=CARTESIAN_POINT('Ctrl Pts',(34.1078600699281,19.7732346482372,-130.95432264872));
#873=CARTESIAN_POINT('Ctrl Pts',(34.4275194986909,19.6387935458841,-130.740023502451));
#874=CARTESIAN_POINT('Ctrl Pts',(34.5970555439052,19.6082545838002,-130.62222975977));
#875=CARTESIAN_POINT('Ctrl Pts',(34.9154506500868,19.6082545838002,-130.39314859325));
#876=CARTESIAN_POINT('Ctrl Pts',(35.0889500906522,19.6417593063014,-130.263723813859));
#877=CARTESIAN_POINT('Ctrl Pts',(35.4104284054815,19.781194892887,-130.01499268607));
#878=CARTESIAN_POINT('Ctrl Pts',(35.5585261337776,19.886972218666,-129.895753924135));
#879=CARTESIAN_POINT('Ctrl Pts',(35.7689609470975,20.1182346077628,-129.722367946607));
#880=CARTESIAN_POINT('Ctrl Pts',(35.8542344364965,20.2476016231307,-129.650383019411));
#881=CARTESIAN_POINT('Ctrl Pts',(35.9710519708799,20.5391953358383,-129.550696966139));
#882=CARTESIAN_POINT('Ctrl Pts',(36.0022946343865,20.7017219063873,-129.523520975023));
#883=CARTESIAN_POINT('Ctrl Pts',(36.0022946343865,20.8582545838002,-129.523520975023));
#884=CARTESIAN_POINT('Origin',(24.3417446343866,16.8582545838002,-116.041132254924));
#885=CARTESIAN_POINT('',(24.3417446343865,16.9832545838002,-132.166132254924));
#886=CARTESIAN_POINT('',(8.21674463438657,16.9832545838002,-116.041132254924));
#887=CARTESIAN_POINT('Origin',(24.3417446343866,16.9832545838002,-116.041132254924));
#888=CARTESIAN_POINT('Origin',(24.3417446343866,16.9832545838002,-116.041132254924));
#889=CARTESIAN_POINT('',(24.3417446343865,16.8582545838002,-132.166132254924));
#890=CARTESIAN_POINT('',(29.0022946343865,20.858254582612,-131.477935638316));
#891=CARTESIAN_POINT('Ctrl Pts',(32.5022946343865,20.8582545838002,-129.94872186267));
#892=CARTESIAN_POINT('Ctrl Pts',(32.5022946343865,20.6384793533236,-129.94872186267));
#893=CARTESIAN_POINT('Ctrl Pts',(32.4582890197704,20.406959502525,-129.974801401072));
#894=CARTESIAN_POINT('Ctrl Pts',(32.2865689388573,19.9864250233474,-130.073423414271));
#895=CARTESIAN_POINT('Ctrl Pts',(32.1590725546957,19.7971956831377,-130.14542909107));
#896=CARTESIAN_POINT('Ctrl Pts',(31.8575197457582,19.4820112311659,-130.308631679918));
#897=CARTESIAN_POINT('Ctrl Pts',(31.6567647613639,19.3411844612226,-130.413537904479));
#898=CARTESIAN_POINT('Ctrl Pts',(31.2170651486988,19.1542720731163,-130.628987869455));
#899=CARTESIAN_POINT('Ctrl Pts',(30.9779834643866,19.1082545838002,-130.739310921067));
#900=CARTESIAN_POINT('Ctrl Pts',(30.5355605035314,19.1082545838002,-130.930996640932));
#901=CARTESIAN_POINT('Ctrl Pts',(30.300772276083,19.1510017359286,-131.026472300315));
#902=CARTESIAN_POINT('Ctrl Pts',(29.8632478731366,19.3324168923118,-131.193142967406));
#903=CARTESIAN_POINT('Ctrl Pts',(29.6606795551846,19.4712694337882,-131.26457757345));
#904=CARTESIAN_POINT('Ctrl Pts',(29.3515001250767,19.78796683623,-131.368968662458));
#905=CARTESIAN_POINT('Ctrl Pts',(29.2204515255751,19.9813711979546,-131.410654263368));
#906=CARTESIAN_POINT('Ctrl Pts',(29.0458174044739,20.4072519113537,-131.464999698819));
#907=CARTESIAN_POINT('Ctrl Pts',(29.0022946343865,20.6397187144517,-131.477935638316));
#908=CARTESIAN_POINT('Ctrl Pts',(29.0022946343865,21.0767904531487,-131.477935638316));
#909=CARTESIAN_POINT('Ctrl Pts',(29.0458174044739,21.3092572562467,-131.464999698819));
#910=CARTESIAN_POINT('Ctrl Pts',(29.2204515255751,21.7351379696458,-131.410654263368));
#911=CARTESIAN_POINT('Ctrl Pts',(29.3515001250767,21.9285423313705,-131.368968662459));
#912=CARTESIAN_POINT('Ctrl Pts',(29.6606795551846,22.2452397338122,-131.26457757345));
#913=CARTESIAN_POINT('Ctrl Pts',(29.8632478731366,22.3840922752886,-131.193142967406));
#914=CARTESIAN_POINT('Ctrl Pts',(30.300772276083,22.5655074316719,-131.026472300315));
#915=CARTESIAN_POINT('Ctrl Pts',(30.5355605035314,22.6082545838002,-130.930996640932));
#916=CARTESIAN_POINT('Ctrl Pts',(30.9779834643866,22.6082545838002,-130.739310921067));
#917=CARTESIAN_POINT('Ctrl Pts',(31.2170651486987,22.5622370944842,-130.628987869455));
#918=CARTESIAN_POINT('Ctrl Pts',(31.6567647613639,22.3753247063778,-130.413537904479));
#919=CARTESIAN_POINT('Ctrl Pts',(31.8575197457582,22.2344979364345,-130.308631679918));
#920=CARTESIAN_POINT('Ctrl Pts',(32.1590725546957,21.9193134844628,-130.14542909107));
#921=CARTESIAN_POINT('Ctrl Pts',(32.2865689388573,21.7300841442531,-130.073423414271));
#922=CARTESIAN_POINT('Ctrl Pts',(32.4582890197704,21.3095496650755,-129.974801401072));
#923=CARTESIAN_POINT('Ctrl Pts',(32.5022946343865,21.0780298142769,-129.94872186267));
#924=CARTESIAN_POINT('Ctrl Pts',(32.5022946343865,20.8582545838002,-129.94872186267));
#925=CARTESIAN_POINT('',(36.0022946343865,20.8582545838002,-127.178780063034));
#926=CARTESIAN_POINT('',(33.5022946343865,20.8582545838002,-129.311397839964));
#927=CARTESIAN_POINT('Ctrl Pts',(36.0022946343865,20.8582545838002,-127.178780063034));
#928=CARTESIAN_POINT('Ctrl Pts',(36.0022946343865,21.0152072909424,-127.178780063034));
#929=CARTESIAN_POINT('Ctrl Pts',(35.9709899119221,21.1760092227083,-127.211759692079));
#930=CARTESIAN_POINT('Ctrl Pts',(35.8575156639745,21.46213598883,-127.328704214491));
#931=CARTESIAN_POINT('Ctrl Pts',(35.7756948634346,21.5878944850236,-127.41194466537));
#932=CARTESIAN_POINT('Ctrl Pts',(35.5686603632826,21.8220641759038,-127.616993577421));
#933=CARTESIAN_POINT('Ctrl Pts',(35.4187662790021,21.930588390617,-127.761372678792));
#934=CARTESIAN_POINT('Ctrl Pts',(35.0934780559204,22.0738524341059,-128.060478016624));
#935=CARTESIAN_POINT('Ctrl Pts',(34.9179105264186,22.1082545838002,-128.215177303091));
#936=CARTESIAN_POINT('Ctrl Pts',(34.5977762798641,22.1082545838002,-128.485825130072));
#937=CARTESIAN_POINT('Ctrl Pts',(34.4278725680218,22.0780651877861,-128.623961355461));
#938=CARTESIAN_POINT('Ctrl Pts',(34.1050599331367,21.9418942453831,-128.876054891397));
#939=CARTESIAN_POINT('Ctrl Pts',(33.9522949421854,21.8357451849894,-128.990105969385));
#940=CARTESIAN_POINT('Ctrl Pts',(33.7361500728296,21.599327917375,-129.147396781931));
#941=CARTESIAN_POINT('Ctrl Pts',(33.649915582583,21.4683215577948,-129.20846625112));
#942=CARTESIAN_POINT('Ctrl Pts',(33.5328545582973,21.1750942595562,-129.29044276962));
#943=CARTESIAN_POINT('Ctrl Pts',(33.5022946343865,21.0127803808762,-129.311397839964));
#944=CARTESIAN_POINT('Ctrl Pts',(33.5022946343865,20.8582545838002,-129.311397839964));
#945=CARTESIAN_POINT('Ctrl Pts',(33.5022946343865,20.8582545838002,-129.311397839964));
#946=CARTESIAN_POINT('Ctrl Pts',(33.5022946343865,20.7037287867243,-129.311397839964));
#947=CARTESIAN_POINT('Ctrl Pts',(33.5328545582973,20.5414149080442,-129.29044276962));
#948=CARTESIAN_POINT('Ctrl Pts',(33.649915582583,20.2481876098057,-129.20846625112));
#949=CARTESIAN_POINT('Ctrl Pts',(33.7361500728296,20.1171812502255,-129.147396781931));
#950=CARTESIAN_POINT('Ctrl Pts',(33.9522949421854,19.8807639826111,-128.990105969385));
#951=CARTESIAN_POINT('Ctrl Pts',(34.1050599331367,19.7746149222173,-128.876054891397));
#952=CARTESIAN_POINT('Ctrl Pts',(34.4278725680218,19.6384439798143,-128.623961355461));
#953=CARTESIAN_POINT('Ctrl Pts',(34.5977762798641,19.6082545838002,-128.485825130072));
#954=CARTESIAN_POINT('Ctrl Pts',(34.9179105264186,19.6082545838002,-128.215177303091));
#955=CARTESIAN_POINT('Ctrl Pts',(35.0934780559204,19.6426567334945,-128.060478016624));
#956=CARTESIAN_POINT('Ctrl Pts',(35.4187662790021,19.7859207769835,-127.761372678792));
#957=CARTESIAN_POINT('Ctrl Pts',(35.5686603632826,19.8944449916967,-127.616993577421));
#958=CARTESIAN_POINT('Ctrl Pts',(35.7756948634346,20.1286146825769,-127.41194466537));
#959=CARTESIAN_POINT('Ctrl Pts',(35.8575156639745,20.2543731787705,-127.328704214491));
#960=CARTESIAN_POINT('Ctrl Pts',(35.9709899119221,20.5404999448922,-127.211759692079));
#961=CARTESIAN_POINT('Ctrl Pts',(36.0022946343865,20.701301876658,-127.178780063034));
#962=CARTESIAN_POINT('Ctrl Pts',(36.0022946343865,20.8582545838002,-127.178780063034));
#963=CARTESIAN_POINT('',(15.9311946343866,20.8582545838002,-102.28328817609));
#964=CARTESIAN_POINT('',(19.9311946343866,20.8582545838002,-100.531049286174));
#965=CARTESIAN_POINT('Ctrl Pts',(19.9311946343866,20.8582545838002,-100.531049286174));
#966=CARTESIAN_POINT('Ctrl Pts',(19.9311946343866,20.6084952934006,-100.531049286174));
#967=CARTESIAN_POINT('Ctrl Pts',(19.8814561287222,20.3427190682152,-100.544929450396));
#968=CARTESIAN_POINT('Ctrl Pts',(19.6816336497766,19.855628139212,-100.603844904963));
#969=CARTESIAN_POINT('Ctrl Pts',(19.5316119098436,19.6343317028879,-100.649241727346));
#970=CARTESIAN_POINT('Ctrl Pts',(19.1777710494209,19.2723749912081,-100.764147690235));
#971=CARTESIAN_POINT('Ctrl Pts',(18.946185667638,19.1138460937866,-100.843278624032));
#972=CARTESIAN_POINT('Ctrl Pts',(18.4463421358318,18.9068984621757,-101.03010161001));
#973=CARTESIAN_POINT('Ctrl Pts',(18.1782958743327,18.8582545838002,-101.138110908989));
#974=CARTESIAN_POINT('Ctrl Pts',(17.6723676400612,18.8582545838002,-101.357311145792));
#975=CARTESIAN_POINT('Ctrl Pts',(17.3986963942027,18.9111836603683,-101.484739088596));
#976=CARTESIAN_POINT('Ctrl Pts',(16.8960049591574,19.1253316757335,-101.735348054925));
#977=CARTESIAN_POINT('Ctrl Pts',(16.6668001427701,19.2864455969442,-101.858248353518));
#978=CARTESIAN_POINT('Ctrl Pts',(16.3229483686326,19.6464052559832,-102.050100681847));
#979=CARTESIAN_POINT('Ctrl Pts',(16.177581623404,19.86222997808,-102.135194990479));
#980=CARTESIAN_POINT('Ctrl Pts',(15.9815737539,20.3423073825496,-102.252144181984));
#981=CARTESIAN_POINT('Ctrl Pts',(15.9311946343866,20.606839873522,-102.28328817609));
#982=CARTESIAN_POINT('Ctrl Pts',(15.9311946343866,20.8582545838002,-102.28328817609));
#983=CARTESIAN_POINT('Ctrl Pts',(15.9311946343866,20.8582545838002,-102.28328817609));
#984=CARTESIAN_POINT('Ctrl Pts',(15.9311946343866,21.1096692940784,-102.28328817609));
#985=CARTESIAN_POINT('Ctrl Pts',(15.9815737539,21.3742017850509,-102.252144181984));
#986=CARTESIAN_POINT('Ctrl Pts',(16.177581623404,21.8542791895205,-102.135194990479));
#987=CARTESIAN_POINT('Ctrl Pts',(16.3229483686326,22.0701039116172,-102.050100681847));
#988=CARTESIAN_POINT('Ctrl Pts',(16.6668001427701,22.4300635706563,-101.858248353518));
#989=CARTESIAN_POINT('Ctrl Pts',(16.8960049591574,22.591177491867,-101.735348054925));
#990=CARTESIAN_POINT('Ctrl Pts',(17.3986963942027,22.8053255072321,-101.484739088596));
#991=CARTESIAN_POINT('Ctrl Pts',(17.6723676400612,22.8582545838002,-101.357311145792));
#992=CARTESIAN_POINT('Ctrl Pts',(18.1782958743327,22.8582545838002,-101.138110908989));
#993=CARTESIAN_POINT('Ctrl Pts',(18.4463421358318,22.8096107054247,-101.03010161001));
#994=CARTESIAN_POINT('Ctrl Pts',(18.946185667638,22.6026630738138,-100.843278624032));
#995=CARTESIAN_POINT('Ctrl Pts',(19.1777710494209,22.4441341763924,-100.764147690235));
#996=CARTESIAN_POINT('Ctrl Pts',(19.5316119098436,22.0821774647125,-100.649241727346));
#997=CARTESIAN_POINT('Ctrl Pts',(19.6816336497766,21.8608810283884,-100.603844904963));
#998=CARTESIAN_POINT('Ctrl Pts',(19.8814561287222,21.3737900993853,-100.544929450396));
#999=CARTESIAN_POINT('Ctrl Pts',(19.9311946343866,21.1080138741999,-100.531049286174));
#1000=CARTESIAN_POINT('Ctrl Pts',(19.9311946343866,20.8582545838002,-100.531049286174));
#1001=CARTESIAN_POINT('',(15.1811946343866,20.8582545756745,-102.770866669883));
#1002=CARTESIAN_POINT('Ctrl Pts',(12.6811946343866,20.8582545838002,-104.903484446813));
#1003=CARTESIAN_POINT('Ctrl Pts',(12.6811946343866,20.701301876658,-104.903484446813));
#1004=CARTESIAN_POINT('Ctrl Pts',(12.712499356851,20.5404999448922,-104.870504817768));
#1005=CARTESIAN_POINT('Ctrl Pts',(12.8259736047986,20.2543731787705,-104.753560295356));
#1006=CARTESIAN_POINT('Ctrl Pts',(12.9077944053385,20.1286146825768,-104.670319844477));
#1007=CARTESIAN_POINT('Ctrl Pts',(13.1148289054905,19.8944449916967,-104.465270932426));
#1008=CARTESIAN_POINT('Ctrl Pts',(13.264722989771,19.7859207769834,-104.320891831055));
#1009=CARTESIAN_POINT('Ctrl Pts',(13.5900112128527,19.6426567334945,-104.021786493224));
#1010=CARTESIAN_POINT('Ctrl Pts',(13.7655787423546,19.6082545838002,-103.867087206756));
#1011=CARTESIAN_POINT('Ctrl Pts',(14.085712988909,19.6082545838002,-103.596439379775));
#1012=CARTESIAN_POINT('Ctrl Pts',(14.2556167007513,19.6384439798143,-103.458303154387));
#1013=CARTESIAN_POINT('Ctrl Pts',(14.5784293356365,19.7746149222173,-103.20620961845));
#1014=CARTESIAN_POINT('Ctrl Pts',(14.7311943265877,19.880763982611,-103.092158540462));
#1015=CARTESIAN_POINT('Ctrl Pts',(14.9473391959435,20.1171812502255,-102.934867727916));
#1016=CARTESIAN_POINT('Ctrl Pts',(15.0335736861901,20.2481876098056,-102.873798258727));
#1017=CARTESIAN_POINT('Ctrl Pts',(15.1506347104758,20.5414149080442,-102.791821740227));
#1018=CARTESIAN_POINT('Ctrl Pts',(15.1811946343866,20.7037287867243,-102.770866669883));
#1019=CARTESIAN_POINT('Ctrl Pts',(15.1811946343866,21.0127803808762,-102.770866669883));
#1020=CARTESIAN_POINT('Ctrl Pts',(15.1506347104758,21.1750942595562,-102.791821740227));
#1021=CARTESIAN_POINT('Ctrl Pts',(15.0335736861901,21.4683215577948,-102.873798258727));
#1022=CARTESIAN_POINT('Ctrl Pts',(14.9473391959435,21.599327917375,-102.934867727916));
#1023=CARTESIAN_POINT('Ctrl Pts',(14.7311943265877,21.8357451849894,-103.092158540462));
#1024=CARTESIAN_POINT('Ctrl Pts',(14.5784293356364,21.9418942453831,-103.20620961845));
#1025=CARTESIAN_POINT('Ctrl Pts',(14.2556167007513,22.0780651877861,-103.458303154387));
#1026=CARTESIAN_POINT('Ctrl Pts',(14.085712988909,22.1082545838002,-103.596439379775));
#1027=CARTESIAN_POINT('Ctrl Pts',(13.7655787423545,22.1082545838002,-103.867087206756));
#1028=CARTESIAN_POINT('Ctrl Pts',(13.5900112128527,22.0738524341059,-104.021786493224));
#1029=CARTESIAN_POINT('Ctrl Pts',(13.264722989771,21.930588390617,-104.320891831055));
#1030=CARTESIAN_POINT('Ctrl Pts',(13.1148289054905,21.8220641759038,-104.465270932426));
#1031=CARTESIAN_POINT('Ctrl Pts',(12.9077944053385,21.5878944850236,-104.670319844477));
#1032=CARTESIAN_POINT('Ctrl Pts',(12.8259736047986,21.4621359888299,-104.753560295356));
#1033=CARTESIAN_POINT('Ctrl Pts',(12.712499356851,21.1760092227083,-104.870504817768));
#1034=CARTESIAN_POINT('Ctrl Pts',(12.6811946343866,21.0152072909424,-104.903484446813));
#1035=CARTESIAN_POINT('Ctrl Pts',(12.6811946343866,20.8582545838002,-104.903484446813));
#1036=CARTESIAN_POINT('Origin',(24.3417446343866,16.8582545838002,-116.041132254924));
#1037=CARTESIAN_POINT('',(24.3417446343865,17.8582545838002,-137.291132254924));
#1038=CARTESIAN_POINT('',(24.3417446343866,17.8582545838003,-94.7911322549236));
#1039=CARTESIAN_POINT('Origin',(24.3417446343866,17.8582545838002,-116.041132254924));
#1040=CARTESIAN_POINT('Origin',(24.3417446343866,17.8582545838002,-116.041132254924));
#1041=CARTESIAN_POINT('',(24.3417446343865,17.3582545838002,-137.291132254924));
#1042=CARTESIAN_POINT('',(24.3417446343865,16.8582545838002,-137.291132254924));
#1043=CARTESIAN_POINT('',(24.3417446343866,17.3582545838003,-94.7911322549236));
#1044=CARTESIAN_POINT('Origin',(24.3417446343866,17.3582545838002,-116.041132254924));
#1045=CARTESIAN_POINT('Origin',(24.3417446343866,17.3582545838002,-116.041132254924));
#1046=CARTESIAN_POINT('Origin',(24.3417446343866,24.1082545838002,-116.041132254924));
#1047=CARTESIAN_POINT('',(24.3417446343865,25.1082545838002,-137.291132254924));
#1048=CARTESIAN_POINT('',(24.3417446343866,25.1082545838002,-94.7911322549236));
#1049=CARTESIAN_POINT('Origin',(24.3417446343866,25.1082545838002,-116.041132254924));
#1050=CARTESIAN_POINT('Origin',(24.3417446343866,25.1082545838002,-116.041132254924));
#1051=CARTESIAN_POINT('',(24.3417446343865,24.6082545838002,-137.291132254924));
#1052=CARTESIAN_POINT('',(24.3417446343865,24.1082545838002,-137.291132254924));
#1053=CARTESIAN_POINT('',(24.3417446343866,24.6082545838002,-94.7911322549236));
#1054=CARTESIAN_POINT('Origin',(24.3417446343866,24.6082545838002,-116.041132254924));
#1055=CARTESIAN_POINT('Origin',(24.3417446343866,24.6082545838002,-116.041132254924));
#1056=CARTESIAN_POINT('Origin',(17.9311946343867,20.8582545838003,-74.9411322549236));
#1057=CARTESIAN_POINT('',(19.9311946343867,20.8582545838003,-74.9411322549236));
#1058=CARTESIAN_POINT('Origin',(13.9311946343867,20.8582545838003,-74.9411322549236));
#1059=CARTESIAN_POINT('',(15.1811946343867,20.8582545838003,-74.9411322549236));
#1060=CARTESIAN_POINT('Origin',(30.7522946343865,20.8582545838002,-160.441132254924));
#1061=CARTESIAN_POINT('',(29.0022946343865,20.8582545838002,-160.441132254924));
#1062=CARTESIAN_POINT('Origin',(34.7522946343865,20.8582545838002,-160.441132254924));
#1063=CARTESIAN_POINT('',(33.5022946343865,20.8582545838002,-160.441132254924));
#1064=CARTESIAN_POINT('Origin',(24.3417446343866,17.3582545838002,-116.041132254924));
#1065=CARTESIAN_POINT('Origin',(24.3417446343866,17.3582545838003,-95.2911322549236));
#1066=CARTESIAN_POINT('Origin',(24.3417446343866,17.8582545838002,-116.041132254924));
#1067=CARTESIAN_POINT('Origin',(24.3417446343866,17.8582545838003,-95.2911322549236));
#1068=CARTESIAN_POINT('Origin',(24.3417446343866,24.6082545838002,-116.041132254924));
#1069=CARTESIAN_POINT('Origin',(24.3417446343866,24.6082545838002,-95.2911322549236));
#1070=CARTESIAN_POINT('Origin',(24.3417446343866,25.1082545838002,-116.041132254924));
#1071=CARTESIAN_POINT('',(24.3417446343866,25.6082545838002,-95.2911322549236));
#1072=CARTESIAN_POINT('Origin',(24.3417446343866,25.1082545838002,-95.2911322549236));
#1073=CARTESIAN_POINT('Origin',(24.3417446343866,25.6082545838002,-116.041132254924));
#1074=CARTESIAN_POINT('Origin',(24.3417446343866,16.9832545838002,-116.041132254924));
#1075=CARTESIAN_POINT('Origin',(8.09174463438657,16.9832545838002,-116.041132254924));
#1076=CARTESIAN_POINT('Origin',(24.3417446343866,18.4832545838002,-116.041132254924));
#1077=CARTESIAN_POINT('Origin',(6.39139100809427,18.4832545838002,-116.041132254924));
#1078=CARTESIAN_POINT('Origin',(24.3417446343866,23.9832545838002,-116.041132254924));
#1079=CARTESIAN_POINT('Origin',(6.39139100809425,23.9832545838002,-116.041132254924));
#1080=CARTESIAN_POINT('Origin',(24.3417446343866,31.3582545838002,-104.727423755939));
#1081=CARTESIAN_POINT('',(24.3417446343866,25.6082545838002,-106.727423755939));
#1082=CARTESIAN_POINT('',(24.3417446343866,31.3582545838002,-106.727423755939));
#1083=CARTESIAN_POINT('Origin',(24.3417446343866,25.6082545838002,-104.727423755939));
#1084=CARTESIAN_POINT('Origin',(24.3417446343865,31.3582545838002,-127.354840753908));
#1085=CARTESIAN_POINT('',(24.3417446343865,25.6082545838002,-129.354840753908));
#1086=CARTESIAN_POINT('',(24.3417446343865,31.3582545838002,-129.354840753908));
#1087=CARTESIAN_POINT('Origin',(24.3417446343865,25.6082545838002,-127.354840753908));
#1088=CARTESIAN_POINT('Origin',(13.0280361354017,31.3582545838002,-116.041132254924));
#1089=CARTESIAN_POINT('',(13.0280361354017,25.6082545838002,-118.041132254924));
#1090=CARTESIAN_POINT('',(13.0280361354017,31.3582545838002,-118.041132254924));
#1091=CARTESIAN_POINT('Origin',(13.0280361354018,25.6082545838002,-116.041132254924));
#1092=CARTESIAN_POINT('Origin',(24.3417446343865,31.3582545838002,-116.041132254924));
#1093=CARTESIAN_POINT('',(24.3417446343865,25.6082545838002,-123.041132254924));
#1094=CARTESIAN_POINT('',(24.3417446343865,31.3582545838002,-123.041132254924));
#1095=CARTESIAN_POINT('Origin',(24.3417446343866,25.6082545838002,-116.041132254924));
#1096=CARTESIAN_POINT('Origin',(35.6554531333713,31.3582545838002,-116.041132254924));
#1097=CARTESIAN_POINT('',(35.6554531333714,25.6082545838002,-118.041132254924));
#1098=CARTESIAN_POINT('',(35.6554531333713,31.3582545838002,-118.041132254924));
#1099=CARTESIAN_POINT('Origin',(35.6554531333714,25.6082545838002,-116.041132254924));
#1100=CARTESIAN_POINT('Origin',(24.3417446343866,25.6082545838002,-116.041132254924));
#1101=UNCERTAINTY_MEASURE_WITH_UNIT(LENGTH_MEASURE(0.01),#1105,
'DISTANCE_ACCURACY_VALUE',
'Maximum model space distance between geometric entities at asserted c
onnectivities');
#1102=UNCERTAINTY_MEASURE_WITH_UNIT(LENGTH_MEASURE(0.01),#1105,
'DISTANCE_ACCURACY_VALUE',
'Maximum model space distance between geometric entities at asserted c
onnectivities');
#1103=(
GEOMETRIC_REPRESENTATION_CONTEXT(3)
GLOBAL_UNCERTAINTY_ASSIGNED_CONTEXT((#1101))
GLOBAL_UNIT_ASSIGNED_CONTEXT((#1105,#1107,#1108))
REPRESENTATION_CONTEXT('','3D')
);
#1104=(
GEOMETRIC_REPRESENTATION_CONTEXT(3)
GLOBAL_UNCERTAINTY_ASSIGNED_CONTEXT((#1102))
GLOBAL_UNIT_ASSIGNED_CONTEXT((#1105,#1107,#1108))
REPRESENTATION_CONTEXT('','3D')
);
#1105=(
LENGTH_UNIT()
NAMED_UNIT(*)
SI_UNIT(.MILLI.,.METRE.)
);
#1106=(
LENGTH_UNIT()
NAMED_UNIT(*)
SI_UNIT($,.METRE.)
);
#1107=(
NAMED_UNIT(*)
PLANE_ANGLE_UNIT()
SI_UNIT($,.RADIAN.)
);
#1108=(
NAMED_UNIT(*)
SI_UNIT($,.STERADIAN.)
SOLID_ANGLE_UNIT()
);
#1109=SHAPE_DEFINITION_REPRESENTATION(#1110,#1111);
#1110=PRODUCT_DEFINITION_SHAPE('',$,#1113);
#1111=SHAPE_REPRESENTATION('',(#488),#1103);
#1112=PRODUCT_DEFINITION_CONTEXT('part definition',#1117,'design');
#1113=PRODUCT_DEFINITION('2026-06-20-16-37-52-728',
'Hub-Mount Winch Pulley (Dual Spool, 112mm Circumference)',#1114,#1112);
#1114=PRODUCT_DEFINITION_FORMATION('',$,#1119);
#1115=PRODUCT_RELATED_PRODUCT_CATEGORY(
'Hub-Mount Winch Pulley (Dual Spool, 112mm Circumference)',
'Hub-Mount Winch Pulley (Dual Spool, 112mm Circumference)',(#1119));
#1116=APPLICATION_PROTOCOL_DEFINITION('international standard',
'automotive_design',2009,#1117);
#1117=APPLICATION_CONTEXT(
'Core Data for Automotive Mechanical Design Process');
#1118=PRODUCT_CONTEXT('part definition',#1117,'mechanical');
#1119=PRODUCT('2026-06-20-16-37-52-728',
'Hub-Mount Winch Pulley (Dual Spool, 112mm Circumference)','STEP AP203',
(#1118));
#1120=PRESENTATION_STYLE_ASSIGNMENT((#1121));
#1121=SURFACE_STYLE_USAGE(.BOTH.,#1122);
#1122=SURFACE_SIDE_STYLE('',(#1123));
#1123=SURFACE_STYLE_FILL_AREA(#1124);
#1124=FILL_AREA_STYLE('Steel - Satin',(#1125));
#1125=FILL_AREA_STYLE_COLOUR('Steel - Satin',#1126);
#1126=COLOUR_RGB('Steel - Satin',0.627450980392157,0.627450980392157,0.627450980392157);
ENDSEC;
END-ISO-10303-21;
