ISO-10303-21;
HEADER;
/* Generated by software containing ST-Developer
 * from STEP Tools, Inc. (www.steptools.com) 
 */

FILE_DESCRIPTION(
/* description */ (''),
/* implementation_level */ '2;1');

FILE_NAME(
/* name */ 'Electronic Hub Top A  x1.step',
/* time_stamp */ '2026-06-20T16:29:09-05:00',
/* author */ (''),
/* organization */ (''),
/* preprocessor_version */ 'ST-DEVELOPER v20.1',
/* originating_system */ 'Autodesk Translation Framework v15.8.0.0',
/* authorisation */ '');

FILE_SCHEMA (('AUTOMOTIVE_DESIGN { 1 0 10303 214 3 1 1 }'));
ENDSEC;

DATA;
#10=MECHANICAL_DESIGN_GEOMETRIC_PRESENTATION_REPRESENTATION('',(#13),#983);
#11=SHAPE_REPRESENTATION_RELATIONSHIP('SRR','None',#990,#12);
#12=ADVANCED_BREP_SHAPE_REPRESENTATION('',(#14),#982);
#13=STYLED_ITEM('',(#999),#14);
#14=MANIFOLD_SOLID_BREP('Body1',#572);
#15=B_SPLINE_CURVE_WITH_KNOTS('',3,(#932,#933,#934,#935,#936,#937,#938,
#939,#940,#941),.UNSPECIFIED.,.F.,.F.,(4,2,2,2,4),(0.,0.0740362931926645,
0.148085790527563,0.222160816216116,0.296285138526711),.UNSPECIFIED.);
#16=TOROIDAL_SURFACE('',#607,2.99999999999999,2.);
#17=TOROIDAL_SURFACE('',#626,3.,2.);
#18=CYLINDRICAL_SURFACE('',#594,1.5);
#19=CYLINDRICAL_SURFACE('',#598,1.5);
#20=CYLINDRICAL_SURFACE('',#602,4.99999999999999);
#21=CYLINDRICAL_SURFACE('',#605,5.);
#22=CYLINDRICAL_SURFACE('',#611,2.);
#23=CYLINDRICAL_SURFACE('',#614,4.99999999999988);
#24=CYLINDRICAL_SURFACE('',#617,5.);
#25=CYLINDRICAL_SURFACE('',#619,0.500000000000007);
#26=CYLINDRICAL_SURFACE('',#621,2.);
#27=CYLINDRICAL_SURFACE('',#628,0.500000000000007);
#28=CYLINDRICAL_SURFACE('',#638,25.);
#29=FACE_BOUND('',#62,.T.);
#30=FACE_BOUND('',#88,.T.);
#31=FACE_OUTER_BOUND('',#61,.T.);
#32=FACE_OUTER_BOUND('',#63,.T.);
#33=FACE_OUTER_BOUND('',#64,.T.);
#34=FACE_OUTER_BOUND('',#65,.T.);
#35=FACE_OUTER_BOUND('',#66,.T.);
#36=FACE_OUTER_BOUND('',#67,.T.);
#37=FACE_OUTER_BOUND('',#68,.T.);
#38=FACE_OUTER_BOUND('',#69,.T.);
#39=FACE_OUTER_BOUND('',#70,.T.);
#40=FACE_OUTER_BOUND('',#71,.T.);
#41=FACE_OUTER_BOUND('',#72,.T.);
#42=FACE_OUTER_BOUND('',#73,.T.);
#43=FACE_OUTER_BOUND('',#74,.T.);
#44=FACE_OUTER_BOUND('',#75,.T.);
#45=FACE_OUTER_BOUND('',#76,.T.);
#46=FACE_OUTER_BOUND('',#77,.T.);
#47=FACE_OUTER_BOUND('',#78,.T.);
#48=FACE_OUTER_BOUND('',#79,.T.);
#49=FACE_OUTER_BOUND('',#80,.T.);
#50=FACE_OUTER_BOUND('',#81,.T.);
#51=FACE_OUTER_BOUND('',#82,.T.);
#52=FACE_OUTER_BOUND('',#83,.T.);
#53=FACE_OUTER_BOUND('',#84,.T.);
#54=FACE_OUTER_BOUND('',#85,.T.);
#55=FACE_OUTER_BOUND('',#86,.T.);
#56=FACE_OUTER_BOUND('',#87,.T.);
#57=FACE_OUTER_BOUND('',#89,.T.);
#58=FACE_OUTER_BOUND('',#90,.T.);
#59=FACE_OUTER_BOUND('',#91,.T.);
#60=FACE_OUTER_BOUND('',#92,.T.);
#61=EDGE_LOOP('',(#363,#364,#365,#366,#367,#368,#369,#370,#371,#372,#373,
#374,#375,#376));
#62=EDGE_LOOP('',(#377));
#63=EDGE_LOOP('',(#378,#379,#380,#381));
#64=EDGE_LOOP('',(#382,#383,#384,#385));
#65=EDGE_LOOP('',(#386,#387,#388,#389));
#66=EDGE_LOOP('',(#390,#391,#392,#393));
#67=EDGE_LOOP('',(#394,#395,#396,#397));
#68=EDGE_LOOP('',(#398,#399,#400,#401));
#69=EDGE_LOOP('',(#402,#403,#404,#405));
#70=EDGE_LOOP('',(#406,#407,#408,#409));
#71=EDGE_LOOP('',(#410,#411,#412,#413));
#72=EDGE_LOOP('',(#414,#415,#416,#417));
#73=EDGE_LOOP('',(#418,#419,#420,#421));
#74=EDGE_LOOP('',(#422,#423,#424,#425));
#75=EDGE_LOOP('',(#426,#427,#428,#429));
#76=EDGE_LOOP('',(#430,#431,#432,#433));
#77=EDGE_LOOP('',(#434,#435,#436,#437));
#78=EDGE_LOOP('',(#438,#439,#440,#441,#442,#443,#444,#445,#446,#447,#448));
#79=EDGE_LOOP('',(#449,#450,#451,#452));
#80=EDGE_LOOP('',(#453,#454,#455,#456));
#81=EDGE_LOOP('',(#457,#458,#459,#460));
#82=EDGE_LOOP('',(#461,#462,#463,#464));
#83=EDGE_LOOP('',(#465,#466,#467,#468));
#84=EDGE_LOOP('',(#469,#470,#471,#472,#473,#474,#475));
#85=EDGE_LOOP('',(#476,#477,#478,#479,#480,#481,#482,#483,#484));
#86=EDGE_LOOP('',(#485,#486,#487,#488));
#87=EDGE_LOOP('',(#489,#490,#491,#492,#493,#494,#495,#496,#497,#498,#499,
#500,#501,#502,#503,#504));
#88=EDGE_LOOP('',(#505));
#89=EDGE_LOOP('',(#506,#507,#508,#509));
#90=EDGE_LOOP('',(#510,#511,#512,#513,#514));
#91=EDGE_LOOP('',(#515,#516,#517,#518));
#92=EDGE_LOOP('',(#519,#520,#521,#522,#523,#524));
#93=CIRCLE('',#587,25.);
#94=CIRCLE('',#588,4.99999999999999);
#95=CIRCLE('',#589,5.);
#96=CIRCLE('',#590,0.500000000000007);
#97=CIRCLE('',#591,5.);
#98=CIRCLE('',#592,4.99999999999988);
#99=CIRCLE('',#593,0.500000000000007);
#100=CIRCLE('',#595,1.5);
#101=CIRCLE('',#596,1.5);
#102=CIRCLE('',#599,1.5);
#103=CIRCLE('',#600,1.5);
#104=CIRCLE('',#603,5.);
#105=CIRCLE('',#606,5.);
#106=CIRCLE('',#608,1.99999999999999);
#107=CIRCLE('',#609,2.99999999999999);
#108=CIRCLE('',#610,2.00000000000001);
#109=CIRCLE('',#612,1.99999999999997);
#110=CIRCLE('',#615,4.99999999999988);
#111=CIRCLE('',#618,5.);
#112=CIRCLE('',#620,0.500000000000007);
#113=CIRCLE('',#622,2.);
#114=CIRCLE('',#624,3.);
#115=CIRCLE('',#629,0.500000000000007);
#116=CIRCLE('',#637,25.);
#117=LINE('',#810,#173);
#118=LINE('',#814,#174);
#119=LINE('',#816,#175);
#120=LINE('',#820,#176);
#121=LINE('',#824,#177);
#122=LINE('',#828,#178);
#123=LINE('',#832,#179);
#124=LINE('',#835,#180);
#125=LINE('',#843,#181);
#126=LINE('',#846,#182);
#127=LINE('',#849,#183);
#128=LINE('',#851,#184);
#129=LINE('',#852,#185);
#130=LINE('',#858,#186);
#131=LINE('',#862,#187);
#132=LINE('',#863,#188);
#133=LINE('',#864,#189);
#134=LINE('',#869,#190);
#135=LINE('',#870,#191);
#136=LINE('',#873,#192);
#137=LINE('',#874,#193);
#138=LINE('',#877,#194);
#139=LINE('',#887,#195);
#140=LINE('',#892,#196);
#141=LINE('',#894,#197);
#142=LINE('',#896,#198);
#143=LINE('',#897,#199);
#144=LINE('',#900,#200);
#145=LINE('',#903,#201);
#146=LINE('',#906,#202);
#147=LINE('',#907,#203);
#148=LINE('',#910,#204);
#149=LINE('',#914,#205);
#150=LINE('',#920,#206);
#151=LINE('',#921,#207);
#152=LINE('',#925,#208);
#153=LINE('',#927,#209);
#154=LINE('',#928,#210);
#155=LINE('',#930,#211);
#156=LINE('',#944,#212);
#157=LINE('',#945,#213);
#158=LINE('',#948,#214);
#159=LINE('',#950,#215);
#160=LINE('',#953,#216);
#161=LINE('',#955,#217);
#162=LINE('',#958,#218);
#163=LINE('',#959,#219);
#164=LINE('',#960,#220);
#165=LINE('',#963,#221);
#166=LINE('',#964,#222);
#167=LINE('',#967,#223);
#168=LINE('',#968,#224);
#169=LINE('',#971,#225);
#170=LINE('',#972,#226);
#171=LINE('',#975,#227);
#172=LINE('',#978,#228);
#173=VECTOR('',#644,10.);
#174=VECTOR('',#647,10.);
#175=VECTOR('',#648,10.);
#176=VECTOR('',#651,10.);
#177=VECTOR('',#654,10.);
#178=VECTOR('',#657,10.);
#179=VECTOR('',#660,10.);
#180=VECTOR('',#663,10.);
#181=VECTOR('',#670,10.);
#182=VECTOR('',#673,10.);
#183=VECTOR('',#676,10.);
#184=VECTOR('',#677,10.);
#185=VECTOR('',#678,10.);
#186=VECTOR('',#685,10.);
#187=VECTOR('',#688,10.);
#188=VECTOR('',#689,10.);
#189=VECTOR('',#690,10.);
#190=VECTOR('',#695,5.);
#191=VECTOR('',#696,5.);
#192=VECTOR('',#699,10.);
#193=VECTOR('',#700,10.);
#194=VECTOR('',#703,10.);
#195=VECTOR('',#716,10.);
#196=VECTOR('',#721,10.);
#197=VECTOR('',#722,10.);
#198=VECTOR('',#723,10.);
#199=VECTOR('',#724,10.);
#200=VECTOR('',#727,10.);
#201=VECTOR('',#730,10.);
#202=VECTOR('',#733,10.);
#203=VECTOR('',#734,10.);
#204=VECTOR('',#737,10.);
#205=VECTOR('',#742,0.500000000000007);
#206=VECTOR('',#749,10.);
#207=VECTOR('',#750,10.);
#208=VECTOR('',#753,10.);
#209=VECTOR('',#756,10.);
#210=VECTOR('',#757,10.);
#211=VECTOR('',#760,10.);
#212=VECTOR('',#765,10.);
#213=VECTOR('',#766,10.);
#214=VECTOR('',#769,10.);
#215=VECTOR('',#770,10.);
#216=VECTOR('',#775,10.);
#217=VECTOR('',#778,10.);
#218=VECTOR('',#781,10.);
#219=VECTOR('',#782,10.);
#220=VECTOR('',#783,10.);
#221=VECTOR('',#786,10.);
#222=VECTOR('',#787,10.);
#223=VECTOR('',#790,10.);
#224=VECTOR('',#791,10.);
#225=VECTOR('',#794,10.);
#226=VECTOR('',#795,10.);
#227=VECTOR('',#798,10.);
#228=VECTOR('',#803,10.);
#229=VERTEX_POINT('',#808);
#230=VERTEX_POINT('',#809);
#231=VERTEX_POINT('',#811);
#232=VERTEX_POINT('',#813);
#233=VERTEX_POINT('',#815);
#234=VERTEX_POINT('',#817);
#235=VERTEX_POINT('',#819);
#236=VERTEX_POINT('',#821);
#237=VERTEX_POINT('',#823);
#238=VERTEX_POINT('',#825);
#239=VERTEX_POINT('',#827);
#240=VERTEX_POINT('',#829);
#241=VERTEX_POINT('',#831);
#242=VERTEX_POINT('',#833);
#243=VERTEX_POINT('',#836);
#244=VERTEX_POINT('',#839);
#245=VERTEX_POINT('',#840);
#246=VERTEX_POINT('',#842);
#247=VERTEX_POINT('',#844);
#248=VERTEX_POINT('',#848);
#249=VERTEX_POINT('',#850);
#250=VERTEX_POINT('',#854);
#251=VERTEX_POINT('',#856);
#252=VERTEX_POINT('',#860);
#253=VERTEX_POINT('',#861);
#254=VERTEX_POINT('',#866);
#255=VERTEX_POINT('',#867);
#256=VERTEX_POINT('',#872);
#257=VERTEX_POINT('',#876);
#258=VERTEX_POINT('',#880);
#259=VERTEX_POINT('',#882);
#260=VERTEX_POINT('',#886);
#261=VERTEX_POINT('',#890);
#262=VERTEX_POINT('',#891);
#263=VERTEX_POINT('',#893);
#264=VERTEX_POINT('',#895);
#265=VERTEX_POINT('',#899);
#266=VERTEX_POINT('',#901);
#267=VERTEX_POINT('',#905);
#268=VERTEX_POINT('',#909);
#269=VERTEX_POINT('',#913);
#270=VERTEX_POINT('',#917);
#271=VERTEX_POINT('',#918);
#272=VERTEX_POINT('',#923);
#273=VERTEX_POINT('',#924);
#274=VERTEX_POINT('',#943);
#275=VERTEX_POINT('',#947);
#276=VERTEX_POINT('',#949);
#277=VERTEX_POINT('',#957);
#278=VERTEX_POINT('',#962);
#279=VERTEX_POINT('',#966);
#280=VERTEX_POINT('',#970);
#281=VERTEX_POINT('',#974);
#282=EDGE_CURVE('',#229,#230,#117,.T.);
#283=EDGE_CURVE('',#229,#231,#93,.T.);
#284=EDGE_CURVE('',#232,#231,#118,.T.);
#285=EDGE_CURVE('',#232,#233,#119,.T.);
#286=EDGE_CURVE('',#233,#234,#94,.F.);
#287=EDGE_CURVE('',#234,#235,#120,.T.);
#288=EDGE_CURVE('',#236,#235,#95,.T.);
#289=EDGE_CURVE('',#237,#236,#121,.T.);
#290=EDGE_CURVE('',#237,#238,#96,.T.);
#291=EDGE_CURVE('',#239,#238,#122,.T.);
#292=EDGE_CURVE('',#239,#240,#97,.T.);
#293=EDGE_CURVE('',#240,#241,#123,.T.);
#294=EDGE_CURVE('',#241,#242,#98,.T.);
#295=EDGE_CURVE('',#242,#230,#124,.T.);
#296=EDGE_CURVE('',#243,#243,#99,.T.);
#297=EDGE_CURVE('',#244,#245,#100,.T.);
#298=EDGE_CURVE('',#245,#246,#125,.T.);
#299=EDGE_CURVE('',#246,#247,#101,.T.);
#300=EDGE_CURVE('',#247,#244,#126,.T.);
#301=EDGE_CURVE('',#248,#244,#127,.T.);
#302=EDGE_CURVE('',#249,#247,#128,.T.);
#303=EDGE_CURVE('',#248,#249,#129,.T.);
#304=EDGE_CURVE('',#250,#248,#102,.T.);
#305=EDGE_CURVE('',#249,#251,#103,.T.);
#306=EDGE_CURVE('',#251,#250,#130,.T.);
#307=EDGE_CURVE('',#252,#253,#131,.T.);
#308=EDGE_CURVE('',#252,#250,#132,.T.);
#309=EDGE_CURVE('',#253,#251,#133,.T.);
#310=EDGE_CURVE('',#254,#255,#104,.T.);
#311=EDGE_CURVE('',#254,#234,#134,.T.);
#312=EDGE_CURVE('',#233,#255,#135,.T.);
#313=EDGE_CURVE('',#256,#254,#136,.T.);
#314=EDGE_CURVE('',#235,#256,#137,.T.);
#315=EDGE_CURVE('',#236,#257,#138,.T.);
#316=EDGE_CURVE('',#257,#256,#105,.T.);
#317=EDGE_CURVE('',#255,#258,#106,.T.);
#318=EDGE_CURVE('',#258,#259,#107,.T.);
#319=EDGE_CURVE('',#254,#259,#108,.T.);
#320=EDGE_CURVE('',#259,#260,#139,.T.);
#321=EDGE_CURVE('',#256,#260,#109,.T.);
#322=EDGE_CURVE('',#261,#262,#140,.T.);
#323=EDGE_CURVE('',#261,#263,#141,.T.);
#324=EDGE_CURVE('',#263,#264,#142,.T.);
#325=EDGE_CURVE('',#262,#264,#143,.T.);
#326=EDGE_CURVE('',#265,#241,#144,.T.);
#327=EDGE_CURVE('',#266,#265,#110,.T.);
#328=EDGE_CURVE('',#266,#242,#145,.T.);
#329=EDGE_CURVE('',#267,#240,#146,.T.);
#330=EDGE_CURVE('',#265,#267,#147,.T.);
#331=EDGE_CURVE('',#268,#239,#148,.T.);
#332=EDGE_CURVE('',#267,#268,#111,.T.);
#333=EDGE_CURVE('',#243,#269,#149,.T.);
#334=EDGE_CURVE('',#269,#269,#112,.T.);
#335=EDGE_CURVE('',#270,#271,#113,.T.);
#336=EDGE_CURVE('',#270,#258,#150,.T.);
#337=EDGE_CURVE('',#255,#271,#151,.T.);
#338=EDGE_CURVE('',#272,#273,#152,.T.);
#339=EDGE_CURVE('',#260,#272,#114,.T.);
#340=EDGE_CURVE('',#253,#270,#153,.T.);
#341=EDGE_CURVE('',#246,#273,#154,.T.);
#342=EDGE_CURVE('',#271,#232,#155,.T.);
#343=EDGE_CURVE('',#257,#272,#15,.T.);
#344=EDGE_CURVE('',#273,#274,#156,.T.);
#345=EDGE_CURVE('',#245,#274,#157,.T.);
#346=EDGE_CURVE('',#238,#275,#158,.T.);
#347=EDGE_CURVE('',#276,#237,#159,.T.);
#348=EDGE_CURVE('',#275,#276,#115,.T.);
#349=EDGE_CURVE('',#275,#268,#160,.T.);
#350=EDGE_CURVE('',#274,#276,#161,.T.);
#351=EDGE_CURVE('',#231,#277,#162,.T.);
#352=EDGE_CURVE('',#277,#261,#163,.T.);
#353=EDGE_CURVE('',#262,#252,#164,.T.);
#354=EDGE_CURVE('',#230,#278,#165,.T.);
#355=EDGE_CURVE('',#278,#266,#166,.T.);
#356=EDGE_CURVE('',#278,#279,#167,.T.);
#357=EDGE_CURVE('',#279,#264,#168,.T.);
#358=EDGE_CURVE('',#279,#280,#169,.T.);
#359=EDGE_CURVE('',#280,#263,#170,.T.);
#360=EDGE_CURVE('',#280,#281,#171,.T.);
#361=EDGE_CURVE('',#281,#277,#116,.T.);
#362=EDGE_CURVE('',#281,#229,#172,.T.);
#363=ORIENTED_EDGE('',*,*,#282,.F.);
#364=ORIENTED_EDGE('',*,*,#283,.T.);
#365=ORIENTED_EDGE('',*,*,#284,.F.);
#366=ORIENTED_EDGE('',*,*,#285,.T.);
#367=ORIENTED_EDGE('',*,*,#286,.T.);
#368=ORIENTED_EDGE('',*,*,#287,.T.);
#369=ORIENTED_EDGE('',*,*,#288,.F.);
#370=ORIENTED_EDGE('',*,*,#289,.F.);
#371=ORIENTED_EDGE('',*,*,#290,.T.);
#372=ORIENTED_EDGE('',*,*,#291,.F.);
#373=ORIENTED_EDGE('',*,*,#292,.T.);
#374=ORIENTED_EDGE('',*,*,#293,.T.);
#375=ORIENTED_EDGE('',*,*,#294,.T.);
#376=ORIENTED_EDGE('',*,*,#295,.T.);
#377=ORIENTED_EDGE('',*,*,#296,.T.);
#378=ORIENTED_EDGE('',*,*,#297,.T.);
#379=ORIENTED_EDGE('',*,*,#298,.T.);
#380=ORIENTED_EDGE('',*,*,#299,.T.);
#381=ORIENTED_EDGE('',*,*,#300,.T.);
#382=ORIENTED_EDGE('',*,*,#301,.T.);
#383=ORIENTED_EDGE('',*,*,#300,.F.);
#384=ORIENTED_EDGE('',*,*,#302,.F.);
#385=ORIENTED_EDGE('',*,*,#303,.F.);
#386=ORIENTED_EDGE('',*,*,#304,.T.);
#387=ORIENTED_EDGE('',*,*,#303,.T.);
#388=ORIENTED_EDGE('',*,*,#305,.T.);
#389=ORIENTED_EDGE('',*,*,#306,.T.);
#390=ORIENTED_EDGE('',*,*,#307,.F.);
#391=ORIENTED_EDGE('',*,*,#308,.T.);
#392=ORIENTED_EDGE('',*,*,#306,.F.);
#393=ORIENTED_EDGE('',*,*,#309,.F.);
#394=ORIENTED_EDGE('',*,*,#310,.F.);
#395=ORIENTED_EDGE('',*,*,#311,.T.);
#396=ORIENTED_EDGE('',*,*,#286,.F.);
#397=ORIENTED_EDGE('',*,*,#312,.T.);
#398=ORIENTED_EDGE('',*,*,#313,.F.);
#399=ORIENTED_EDGE('',*,*,#314,.F.);
#400=ORIENTED_EDGE('',*,*,#287,.F.);
#401=ORIENTED_EDGE('',*,*,#311,.F.);
#402=ORIENTED_EDGE('',*,*,#315,.F.);
#403=ORIENTED_EDGE('',*,*,#288,.T.);
#404=ORIENTED_EDGE('',*,*,#314,.T.);
#405=ORIENTED_EDGE('',*,*,#316,.F.);
#406=ORIENTED_EDGE('',*,*,#317,.T.);
#407=ORIENTED_EDGE('',*,*,#318,.T.);
#408=ORIENTED_EDGE('',*,*,#319,.F.);
#409=ORIENTED_EDGE('',*,*,#310,.T.);
#410=ORIENTED_EDGE('',*,*,#319,.T.);
#411=ORIENTED_EDGE('',*,*,#320,.T.);
#412=ORIENTED_EDGE('',*,*,#321,.F.);
#413=ORIENTED_EDGE('',*,*,#313,.T.);
#414=ORIENTED_EDGE('',*,*,#322,.F.);
#415=ORIENTED_EDGE('',*,*,#323,.T.);
#416=ORIENTED_EDGE('',*,*,#324,.T.);
#417=ORIENTED_EDGE('',*,*,#325,.F.);
#418=ORIENTED_EDGE('',*,*,#294,.F.);
#419=ORIENTED_EDGE('',*,*,#326,.F.);
#420=ORIENTED_EDGE('',*,*,#327,.F.);
#421=ORIENTED_EDGE('',*,*,#328,.T.);
#422=ORIENTED_EDGE('',*,*,#293,.F.);
#423=ORIENTED_EDGE('',*,*,#329,.F.);
#424=ORIENTED_EDGE('',*,*,#330,.F.);
#425=ORIENTED_EDGE('',*,*,#326,.T.);
#426=ORIENTED_EDGE('',*,*,#331,.F.);
#427=ORIENTED_EDGE('',*,*,#332,.F.);
#428=ORIENTED_EDGE('',*,*,#329,.T.);
#429=ORIENTED_EDGE('',*,*,#292,.F.);
#430=ORIENTED_EDGE('',*,*,#296,.F.);
#431=ORIENTED_EDGE('',*,*,#333,.T.);
#432=ORIENTED_EDGE('',*,*,#334,.F.);
#433=ORIENTED_EDGE('',*,*,#333,.F.);
#434=ORIENTED_EDGE('',*,*,#335,.F.);
#435=ORIENTED_EDGE('',*,*,#336,.T.);
#436=ORIENTED_EDGE('',*,*,#317,.F.);
#437=ORIENTED_EDGE('',*,*,#337,.T.);
#438=ORIENTED_EDGE('',*,*,#338,.F.);
#439=ORIENTED_EDGE('',*,*,#339,.F.);
#440=ORIENTED_EDGE('',*,*,#320,.F.);
#441=ORIENTED_EDGE('',*,*,#318,.F.);
#442=ORIENTED_EDGE('',*,*,#336,.F.);
#443=ORIENTED_EDGE('',*,*,#340,.F.);
#444=ORIENTED_EDGE('',*,*,#309,.T.);
#445=ORIENTED_EDGE('',*,*,#305,.F.);
#446=ORIENTED_EDGE('',*,*,#302,.T.);
#447=ORIENTED_EDGE('',*,*,#299,.F.);
#448=ORIENTED_EDGE('',*,*,#341,.T.);
#449=ORIENTED_EDGE('',*,*,#342,.F.);
#450=ORIENTED_EDGE('',*,*,#337,.F.);
#451=ORIENTED_EDGE('',*,*,#312,.F.);
#452=ORIENTED_EDGE('',*,*,#285,.F.);
#453=ORIENTED_EDGE('',*,*,#343,.F.);
#454=ORIENTED_EDGE('',*,*,#316,.T.);
#455=ORIENTED_EDGE('',*,*,#321,.T.);
#456=ORIENTED_EDGE('',*,*,#339,.T.);
#457=ORIENTED_EDGE('',*,*,#344,.F.);
#458=ORIENTED_EDGE('',*,*,#341,.F.);
#459=ORIENTED_EDGE('',*,*,#298,.F.);
#460=ORIENTED_EDGE('',*,*,#345,.T.);
#461=ORIENTED_EDGE('',*,*,#346,.F.);
#462=ORIENTED_EDGE('',*,*,#290,.F.);
#463=ORIENTED_EDGE('',*,*,#347,.F.);
#464=ORIENTED_EDGE('',*,*,#348,.F.);
#465=ORIENTED_EDGE('',*,*,#291,.T.);
#466=ORIENTED_EDGE('',*,*,#346,.T.);
#467=ORIENTED_EDGE('',*,*,#349,.T.);
#468=ORIENTED_EDGE('',*,*,#331,.T.);
#469=ORIENTED_EDGE('',*,*,#343,.T.);
#470=ORIENTED_EDGE('',*,*,#338,.T.);
#471=ORIENTED_EDGE('',*,*,#344,.T.);
#472=ORIENTED_EDGE('',*,*,#350,.T.);
#473=ORIENTED_EDGE('',*,*,#347,.T.);
#474=ORIENTED_EDGE('',*,*,#289,.T.);
#475=ORIENTED_EDGE('',*,*,#315,.T.);
#476=ORIENTED_EDGE('',*,*,#335,.T.);
#477=ORIENTED_EDGE('',*,*,#342,.T.);
#478=ORIENTED_EDGE('',*,*,#284,.T.);
#479=ORIENTED_EDGE('',*,*,#351,.T.);
#480=ORIENTED_EDGE('',*,*,#352,.T.);
#481=ORIENTED_EDGE('',*,*,#322,.T.);
#482=ORIENTED_EDGE('',*,*,#353,.T.);
#483=ORIENTED_EDGE('',*,*,#307,.T.);
#484=ORIENTED_EDGE('',*,*,#340,.T.);
#485=ORIENTED_EDGE('',*,*,#354,.F.);
#486=ORIENTED_EDGE('',*,*,#295,.F.);
#487=ORIENTED_EDGE('',*,*,#328,.F.);
#488=ORIENTED_EDGE('',*,*,#355,.F.);
#489=ORIENTED_EDGE('',*,*,#356,.F.);
#490=ORIENTED_EDGE('',*,*,#355,.T.);
#491=ORIENTED_EDGE('',*,*,#327,.T.);
#492=ORIENTED_EDGE('',*,*,#330,.T.);
#493=ORIENTED_EDGE('',*,*,#332,.T.);
#494=ORIENTED_EDGE('',*,*,#349,.F.);
#495=ORIENTED_EDGE('',*,*,#348,.T.);
#496=ORIENTED_EDGE('',*,*,#350,.F.);
#497=ORIENTED_EDGE('',*,*,#345,.F.);
#498=ORIENTED_EDGE('',*,*,#297,.F.);
#499=ORIENTED_EDGE('',*,*,#301,.F.);
#500=ORIENTED_EDGE('',*,*,#304,.F.);
#501=ORIENTED_EDGE('',*,*,#308,.F.);
#502=ORIENTED_EDGE('',*,*,#353,.F.);
#503=ORIENTED_EDGE('',*,*,#325,.T.);
#504=ORIENTED_EDGE('',*,*,#357,.F.);
#505=ORIENTED_EDGE('',*,*,#334,.T.);
#506=ORIENTED_EDGE('',*,*,#358,.F.);
#507=ORIENTED_EDGE('',*,*,#357,.T.);
#508=ORIENTED_EDGE('',*,*,#324,.F.);
#509=ORIENTED_EDGE('',*,*,#359,.F.);
#510=ORIENTED_EDGE('',*,*,#360,.F.);
#511=ORIENTED_EDGE('',*,*,#359,.T.);
#512=ORIENTED_EDGE('',*,*,#323,.F.);
#513=ORIENTED_EDGE('',*,*,#352,.F.);
#514=ORIENTED_EDGE('',*,*,#361,.F.);
#515=ORIENTED_EDGE('',*,*,#362,.F.);
#516=ORIENTED_EDGE('',*,*,#361,.T.);
#517=ORIENTED_EDGE('',*,*,#351,.F.);
#518=ORIENTED_EDGE('',*,*,#283,.F.);
#519=ORIENTED_EDGE('',*,*,#358,.T.);
#520=ORIENTED_EDGE('',*,*,#360,.T.);
#521=ORIENTED_EDGE('',*,*,#362,.T.);
#522=ORIENTED_EDGE('',*,*,#282,.T.);
#523=ORIENTED_EDGE('',*,*,#354,.T.);
#524=ORIENTED_EDGE('',*,*,#356,.T.);
#525=PLANE('',#586);
#526=PLANE('',#597);
#527=PLANE('',#601);
#528=PLANE('',#604);
#529=PLANE('',#613);
#530=PLANE('',#616);
#531=PLANE('',#623);
#532=PLANE('',#625);
#533=PLANE('',#627);
#534=PLANE('',#630);
#535=PLANE('',#631);
#536=PLANE('',#632);
#537=PLANE('',#633);
#538=PLANE('',#634);
#539=PLANE('',#635);
#540=PLANE('',#636);
#541=PLANE('',#639);
#542=ADVANCED_FACE('',(#31,#29),#525,.T.);
#543=ADVANCED_FACE('',(#32),#18,.F.);
#544=ADVANCED_FACE('',(#33),#526,.F.);
#545=ADVANCED_FACE('',(#34),#19,.F.);
#546=ADVANCED_FACE('',(#35),#527,.F.);
#547=ADVANCED_FACE('',(#36),#20,.F.);
#548=ADVANCED_FACE('',(#37),#528,.T.);
#549=ADVANCED_FACE('',(#38),#21,.F.);
#550=ADVANCED_FACE('',(#39),#16,.F.);
#551=ADVANCED_FACE('',(#40),#22,.F.);
#552=ADVANCED_FACE('',(#41),#529,.F.);
#553=ADVANCED_FACE('',(#42),#23,.T.);
#554=ADVANCED_FACE('',(#43),#530,.F.);
#555=ADVANCED_FACE('',(#44),#24,.T.);
#556=ADVANCED_FACE('',(#45),#25,.F.);
#557=ADVANCED_FACE('',(#46),#26,.F.);
#558=ADVANCED_FACE('',(#47),#531,.F.);
#559=ADVANCED_FACE('',(#48),#532,.T.);
#560=ADVANCED_FACE('',(#49),#17,.F.);
#561=ADVANCED_FACE('',(#50),#533,.F.);
#562=ADVANCED_FACE('',(#51),#27,.F.);
#563=ADVANCED_FACE('',(#52),#534,.T.);
#564=ADVANCED_FACE('',(#53),#535,.T.);
#565=ADVANCED_FACE('',(#54),#536,.T.);
#566=ADVANCED_FACE('',(#55),#537,.T.);
#567=ADVANCED_FACE('',(#56,#30),#538,.T.);
#568=ADVANCED_FACE('',(#57),#539,.T.);
#569=ADVANCED_FACE('',(#58),#540,.T.);
#570=ADVANCED_FACE('',(#59),#28,.F.);
#571=ADVANCED_FACE('',(#60),#541,.T.);
#572=CLOSED_SHELL('',(#542,#543,#544,#545,#546,#547,#548,#549,#550,#551,
#552,#553,#554,#555,#556,#557,#558,#559,#560,#561,#562,#563,#564,#565,#566,
#567,#568,#569,#570,#571));
#573=DERIVED_UNIT_ELEMENT(#575,1.);
#574=DERIVED_UNIT_ELEMENT(#985,-3.);
#575=(
MASS_UNIT()
NAMED_UNIT(*)
SI_UNIT(.KILO.,.GRAM.)
);
#576=DERIVED_UNIT((#573,#574));
#577=MEASURE_REPRESENTATION_ITEM('density measure',
POSITIVE_RATIO_MEASURE(7850.),#576);
#578=PROPERTY_DEFINITION_REPRESENTATION(#583,#580);
#579=PROPERTY_DEFINITION_REPRESENTATION(#584,#581);
#580=REPRESENTATION('material name',(#582),#982);
#581=REPRESENTATION('density',(#577),#982);
#582=DESCRIPTIVE_REPRESENTATION_ITEM('Steel','Steel');
#583=PROPERTY_DEFINITION('material property','material name',#992);
#584=PROPERTY_DEFINITION('material property','density of part',#992);
#585=AXIS2_PLACEMENT_3D('',#806,#640,#641);
#586=AXIS2_PLACEMENT_3D('',#807,#642,#643);
#587=AXIS2_PLACEMENT_3D('',#812,#645,#646);
#588=AXIS2_PLACEMENT_3D('',#818,#649,#650);
#589=AXIS2_PLACEMENT_3D('',#822,#652,#653);
#590=AXIS2_PLACEMENT_3D('',#826,#655,#656);
#591=AXIS2_PLACEMENT_3D('',#830,#658,#659);
#592=AXIS2_PLACEMENT_3D('',#834,#661,#662);
#593=AXIS2_PLACEMENT_3D('',#837,#664,#665);
#594=AXIS2_PLACEMENT_3D('',#838,#666,#667);
#595=AXIS2_PLACEMENT_3D('',#841,#668,#669);
#596=AXIS2_PLACEMENT_3D('',#845,#671,#672);
#597=AXIS2_PLACEMENT_3D('',#847,#674,#675);
#598=AXIS2_PLACEMENT_3D('',#853,#679,#680);
#599=AXIS2_PLACEMENT_3D('',#855,#681,#682);
#600=AXIS2_PLACEMENT_3D('',#857,#683,#684);
#601=AXIS2_PLACEMENT_3D('',#859,#686,#687);
#602=AXIS2_PLACEMENT_3D('',#865,#691,#692);
#603=AXIS2_PLACEMENT_3D('',#868,#693,#694);
#604=AXIS2_PLACEMENT_3D('',#871,#697,#698);
#605=AXIS2_PLACEMENT_3D('',#875,#701,#702);
#606=AXIS2_PLACEMENT_3D('',#878,#704,#705);
#607=AXIS2_PLACEMENT_3D('',#879,#706,#707);
#608=AXIS2_PLACEMENT_3D('',#881,#708,#709);
#609=AXIS2_PLACEMENT_3D('',#883,#710,#711);
#610=AXIS2_PLACEMENT_3D('',#884,#712,#713);
#611=AXIS2_PLACEMENT_3D('',#885,#714,#715);
#612=AXIS2_PLACEMENT_3D('',#888,#717,#718);
#613=AXIS2_PLACEMENT_3D('',#889,#719,#720);
#614=AXIS2_PLACEMENT_3D('',#898,#725,#726);
#615=AXIS2_PLACEMENT_3D('',#902,#728,#729);
#616=AXIS2_PLACEMENT_3D('',#904,#731,#732);
#617=AXIS2_PLACEMENT_3D('',#908,#735,#736);
#618=AXIS2_PLACEMENT_3D('',#911,#738,#739);
#619=AXIS2_PLACEMENT_3D('',#912,#740,#741);
#620=AXIS2_PLACEMENT_3D('',#915,#743,#744);
#621=AXIS2_PLACEMENT_3D('',#916,#745,#746);
#622=AXIS2_PLACEMENT_3D('',#919,#747,#748);
#623=AXIS2_PLACEMENT_3D('',#922,#751,#752);
#624=AXIS2_PLACEMENT_3D('',#926,#754,#755);
#625=AXIS2_PLACEMENT_3D('',#929,#758,#759);
#626=AXIS2_PLACEMENT_3D('',#931,#761,#762);
#627=AXIS2_PLACEMENT_3D('',#942,#763,#764);
#628=AXIS2_PLACEMENT_3D('',#946,#767,#768);
#629=AXIS2_PLACEMENT_3D('',#951,#771,#772);
#630=AXIS2_PLACEMENT_3D('',#952,#773,#774);
#631=AXIS2_PLACEMENT_3D('',#954,#776,#777);
#632=AXIS2_PLACEMENT_3D('',#956,#779,#780);
#633=AXIS2_PLACEMENT_3D('',#961,#784,#785);
#634=AXIS2_PLACEMENT_3D('',#965,#788,#789);
#635=AXIS2_PLACEMENT_3D('',#969,#792,#793);
#636=AXIS2_PLACEMENT_3D('',#973,#796,#797);
#637=AXIS2_PLACEMENT_3D('',#976,#799,#800);
#638=AXIS2_PLACEMENT_3D('',#977,#801,#802);
#639=AXIS2_PLACEMENT_3D('',#979,#804,#805);
#640=DIRECTION('axis',(0.,0.,1.));
#641=DIRECTION('refdir',(1.,0.,0.));
#642=DIRECTION('center_axis',(0.,0.,1.));
#643=DIRECTION('ref_axis',(1.,0.,0.));
#644=DIRECTION('',(2.17755844326097E-33,1.,0.));
#645=DIRECTION('center_axis',(0.,0.,-1.));
#646=DIRECTION('ref_axis',(1.,0.,0.));
#647=DIRECTION('',(-1.,0.,0.));
#648=DIRECTION('',(0.,1.,0.));
#649=DIRECTION('center_axis',(0.,0.,1.));
#650=DIRECTION('ref_axis',(0.866025403784438,0.500000000000001,0.));
#651=DIRECTION('',(0.5,-0.866025403784439,0.));
#652=DIRECTION('center_axis',(0.,0.,1.));
#653=DIRECTION('ref_axis',(1.,-1.34607388046849E-15,0.));
#654=DIRECTION('',(-1.,0.,0.));
#655=DIRECTION('center_axis',(0.,0.,-1.));
#656=DIRECTION('ref_axis',(-1.,0.,0.));
#657=DIRECTION('',(-1.,0.,0.));
#658=DIRECTION('center_axis',(0.,0.,1.));
#659=DIRECTION('ref_axis',(0.866025403784434,0.500000000000009,0.));
#660=DIRECTION('',(-0.500000000000001,0.866025403784438,0.));
#661=DIRECTION('center_axis',(0.,0.,1.));
#662=DIRECTION('ref_axis',(-1.06581410364018E-14,1.,0.));
#663=DIRECTION('',(-1.,-3.18283479125555E-16,0.));
#664=DIRECTION('center_axis',(0.,0.,-1.));
#665=DIRECTION('ref_axis',(-1.,0.,0.));
#666=DIRECTION('center_axis',(0.,0.,-1.));
#667=DIRECTION('ref_axis',(0.707106781186552,0.707106781186543,0.));
#668=DIRECTION('center_axis',(0.,0.,-1.));
#669=DIRECTION('ref_axis',(0.707106781186552,0.707106781186543,0.));
#670=DIRECTION('',(0.,0.,1.));
#671=DIRECTION('center_axis',(0.,0.,1.));
#672=DIRECTION('ref_axis',(0.707106781186552,0.707106781186543,0.));
#673=DIRECTION('',(0.,0.,-1.));
#674=DIRECTION('center_axis',(0.,1.,0.));
#675=DIRECTION('ref_axis',(1.,0.,0.));
#676=DIRECTION('',(1.,0.,0.));
#677=DIRECTION('',(1.,0.,0.));
#678=DIRECTION('',(0.,0.,1.));
#679=DIRECTION('center_axis',(0.,0.,-1.));
#680=DIRECTION('ref_axis',(-0.707106781186548,0.707106781186548,0.));
#681=DIRECTION('center_axis',(0.,0.,-1.));
#682=DIRECTION('ref_axis',(-0.707106781186548,0.707106781186548,0.));
#683=DIRECTION('center_axis',(0.,0.,1.));
#684=DIRECTION('ref_axis',(-0.707106781186548,0.707106781186548,0.));
#685=DIRECTION('',(0.,0.,-1.));
#686=DIRECTION('center_axis',(-1.,0.,0.));
#687=DIRECTION('ref_axis',(0.,1.,0.));
#688=DIRECTION('',(0.,6.12323399573677E-17,1.));
#689=DIRECTION('',(0.,1.,0.));
#690=DIRECTION('',(0.,1.,0.));
#691=DIRECTION('center_axis',(0.,0.,1.));
#692=DIRECTION('ref_axis',(0.866025403784438,0.500000000000001,0.));
#693=DIRECTION('center_axis',(0.,0.,1.));
#694=DIRECTION('ref_axis',(-0.258819045102522,0.965925826289068,0.));
#695=DIRECTION('',(0.,0.,1.));
#696=DIRECTION('',(0.,0.,-1.));
#697=DIRECTION('center_axis',(-0.866025403784439,-0.5,0.));
#698=DIRECTION('ref_axis',(-0.5,0.866025403784439,0.));
#699=DIRECTION('',(-0.5,0.866025403784439,0.));
#700=DIRECTION('',(0.,0.,-1.));
#701=DIRECTION('center_axis',(0.,0.,-1.));
#702=DIRECTION('ref_axis',(1.,-1.34607388046849E-15,0.));
#703=DIRECTION('',(0.,0.,-1.));
#704=DIRECTION('center_axis',(0.,0.,1.));
#705=DIRECTION('ref_axis',(1.,1.15192792493811E-15,0.));
#706=DIRECTION('center_axis',(0.,0.,1.));
#707=DIRECTION('ref_axis',(1.,0.,0.));
#708=DIRECTION('center_axis',(0.,-1.,0.));
#709=DIRECTION('ref_axis',(-1.,0.,0.));
#710=DIRECTION('center_axis',(0.,0.,-1.));
#711=DIRECTION('ref_axis',(-0.258819045102522,0.965925826289068,0.));
#712=DIRECTION('center_axis',(-0.499999999999997,0.86602540378444,0.));
#713=DIRECTION('ref_axis',(0.86602540378444,0.499999999999997,0.));
#714=DIRECTION('center_axis',(0.5,-0.866025403784439,0.));
#715=DIRECTION('ref_axis',(0.612372435695792,0.353553390593276,-0.707106781186549));
#716=DIRECTION('',(0.5,-0.866025403784439,0.));
#717=DIRECTION('center_axis',(-0.500000000000002,0.866025403784437,0.));
#718=DIRECTION('ref_axis',(0.866025403784437,0.500000000000002,0.));
#719=DIRECTION('center_axis',(1.,0.,0.));
#720=DIRECTION('ref_axis',(0.,1.,0.));
#721=DIRECTION('',(0.,-6.12323399573677E-17,-1.));
#722=DIRECTION('',(0.,1.,0.));
#723=DIRECTION('',(0.,-2.49903460072715E-30,-1.));
#724=DIRECTION('',(0.,1.,0.));
#725=DIRECTION('center_axis',(0.,0.,1.));
#726=DIRECTION('ref_axis',(-1.06581410364018E-14,1.,0.));
#727=DIRECTION('',(0.,0.,1.));
#728=DIRECTION('center_axis',(0.,0.,-1.));
#729=DIRECTION('ref_axis',(-1.06581410364018E-14,1.,0.));
#730=DIRECTION('',(0.,0.,1.));
#731=DIRECTION('center_axis',(-0.866025403784438,-0.500000000000001,0.));
#732=DIRECTION('ref_axis',(0.500000000000001,-0.866025403784438,0.));
#733=DIRECTION('',(0.,0.,1.));
#734=DIRECTION('',(0.500000000000001,-0.866025403784438,0.));
#735=DIRECTION('center_axis',(0.,0.,1.));
#736=DIRECTION('ref_axis',(0.866025403784434,0.500000000000009,0.));
#737=DIRECTION('',(0.,0.,1.));
#738=DIRECTION('center_axis',(0.,0.,-1.));
#739=DIRECTION('ref_axis',(0.866025403784434,0.500000000000009,0.));
#740=DIRECTION('center_axis',(0.,0.,-1.));
#741=DIRECTION('ref_axis',(-1.,0.,0.));
#742=DIRECTION('',(0.,0.,-1.));
#743=DIRECTION('center_axis',(0.,0.,1.));
#744=DIRECTION('ref_axis',(-1.,0.,0.));
#745=DIRECTION('center_axis',(0.,-1.,0.));
#746=DIRECTION('ref_axis',(-0.707106781186546,0.,-0.707106781186549));
#747=DIRECTION('center_axis',(0.,1.,-6.12323399573677E-17));
#748=DIRECTION('ref_axis',(-0.707106781186546,0.,-0.707106781186549));
#749=DIRECTION('',(0.,1.,0.));
#750=DIRECTION('',(0.,-1.,0.));
#751=DIRECTION('center_axis',(0.,0.,-1.));
#752=DIRECTION('ref_axis',(-1.,0.,0.));
#753=DIRECTION('',(-1.,0.,0.));
#754=DIRECTION('center_axis',(0.,0.,-1.));
#755=DIRECTION('ref_axis',(1.,1.15192792493811E-15,0.));
#756=DIRECTION('',(-1.,0.,0.));
#757=DIRECTION('',(0.,-1.,0.));
#758=DIRECTION('center_axis',(1.,0.,0.));
#759=DIRECTION('ref_axis',(0.,1.,0.));
#760=DIRECTION('',(0.,6.12323399573677E-17,1.));
#761=DIRECTION('center_axis',(0.,0.,1.));
#762=DIRECTION('ref_axis',(1.,0.,0.));
#763=DIRECTION('center_axis',(1.,0.,0.));
#764=DIRECTION('ref_axis',(0.,-1.,0.));
#765=DIRECTION('',(0.,-6.12323399573677E-17,-1.));
#766=DIRECTION('',(0.,-1.,0.));
#767=DIRECTION('center_axis',(0.,0.,-1.));
#768=DIRECTION('ref_axis',(-1.,0.,0.));
#769=DIRECTION('',(0.,0.,-1.));
#770=DIRECTION('',(0.,0.,1.));
#771=DIRECTION('center_axis',(0.,0.,1.));
#772=DIRECTION('ref_axis',(-1.,0.,0.));
#773=DIRECTION('center_axis',(0.,-1.,6.12323399573677E-17));
#774=DIRECTION('ref_axis',(0.,-6.12323399573677E-17,-1.));
#775=DIRECTION('',(1.,0.,0.));
#776=DIRECTION('center_axis',(0.,-1.,6.12323399573677E-17));
#777=DIRECTION('ref_axis',(0.,-6.12323399573677E-17,-1.));
#778=DIRECTION('',(1.,0.,0.));
#779=DIRECTION('center_axis',(0.,-1.,6.12323399573677E-17));
#780=DIRECTION('ref_axis',(0.,-6.12323399573677E-17,-1.));
#781=DIRECTION('',(0.,0.,-1.));
#782=DIRECTION('',(1.,0.,0.));
#783=DIRECTION('',(1.,0.,0.));
#784=DIRECTION('center_axis',(-3.18283479125555E-16,1.,-1.74501554016292E-30));
#785=DIRECTION('ref_axis',(-1.,-3.18283479125555E-16,-5.62787313698787E-15));
#786=DIRECTION('',(-6.12323399573677E-17,-1.76450478235955E-30,-1.));
#787=DIRECTION('',(1.,4.24377972167407E-16,0.));
#788=DIRECTION('center_axis',(0.,0.,-1.));
#789=DIRECTION('ref_axis',(-1.,0.,0.));
#790=DIRECTION('',(-2.17755844326097E-33,-1.,0.));
#791=DIRECTION('',(1.,4.55813377513141E-16,5.62787313698787E-15));
#792=DIRECTION('center_axis',(4.55813377513141E-16,-1.,2.49903460072715E-30));
#793=DIRECTION('ref_axis',(1.,4.55813377513141E-16,5.62787313698787E-15));
#794=DIRECTION('',(6.12323399573677E-17,2.52694512041615E-30,1.));
#795=DIRECTION('',(1.,4.55813377513141E-16,0.));
#796=DIRECTION('center_axis',(0.,0.,-1.));
#797=DIRECTION('ref_axis',(-1.,0.,0.));
#798=DIRECTION('',(-2.17755844326097E-33,-1.,0.));
#799=DIRECTION('center_axis',(0.,0.,-1.));
#800=DIRECTION('ref_axis',(1.,0.,0.));
#801=DIRECTION('center_axis',(0.,0.,1.));
#802=DIRECTION('ref_axis',(1.,0.,0.));
#803=DIRECTION('',(0.,0.,1.));
#804=DIRECTION('center_axis',(-1.,2.17755844326097E-33,6.12323399573677E-17));
#805=DIRECTION('ref_axis',(6.12323399573677E-17,0.,1.));
#806=CARTESIAN_POINT('',(0.,0.,0.));
#807=CARTESIAN_POINT('Origin',(-37.5,0.,-18.));
#808=CARTESIAN_POINT('',(-0.669565675449686,24.9910320275726,-18.));
#809=CARTESIAN_POINT('',(-0.669565675449686,150.132312867624,-18.));
#810=CARTESIAN_POINT('',(-0.669565675449685,37.565298326508,-18.));
#811=CARTESIAN_POINT('',(24.9996498636123,0.132312867623862,-18.));
#812=CARTESIAN_POINT('Origin',(-3.66640051652212E-11,-6.30251406619209E-11,
-18.));
#813=CARTESIAN_POINT('',(75.,0.132312867623856,-18.));
#814=CARTESIAN_POINT('',(-19.0847828377248,0.132312867623862,-18.));
#815=CARTESIAN_POINT('',(75.,131.43593539449,-18.));
#816=CARTESIAN_POINT('',(75.,100.,-18.));
#817=CARTESIAN_POINT('',(84.3301270189222,133.93593539449,-18.));
#818=CARTESIAN_POINT('Origin',(80.,131.43593539449,-18.));
#819=CARTESIAN_POINT('',(160.214699700121,2.49999999999998,-18.));
#820=CARTESIAN_POINT('',(161.658075373095,-4.44089209850063E-14,-18.));
#821=CARTESIAN_POINT('',(160.882821705113,0.132312867623862,-18.));
#822=CARTESIAN_POINT('Origin',(155.884572681199,-1.77635683940025E-14,-18.));
#823=CARTESIAN_POINT('',(165.488509697645,0.132312867623862,-18.));
#824=CARTESIAN_POINT('',(-19.0847828377248,0.132312867623862,-18.));
#825=CARTESIAN_POINT('',(166.488509697645,0.132312867623879,-18.));
#826=CARTESIAN_POINT('Origin',(165.988509697645,0.132312867623878,-18.));
#827=CARTESIAN_POINT('',(171.762012389542,0.132312867623862,-18.));
#828=CARTESIAN_POINT('',(-19.0847828377248,0.132312867623862,-18.));
#829=CARTESIAN_POINT('',(171.092139408465,2.63231286762387,-18.));
#830=CARTESIAN_POINT('Origin',(166.762012389542,0.13231286762383,-18.));
#831=CARTESIAN_POINT('',(87.3763503759687,147.632312867624,-18.));
#832=CARTESIAN_POINT('',(103.730139919676,119.306718481634,-18.));
#833=CARTESIAN_POINT('',(83.0462233570465,150.132312867624,-18.));
#834=CARTESIAN_POINT('Origin',(83.0462233570465,145.132312867624,-18.));
#835=CARTESIAN_POINT('',(32.1652171622752,150.132312867624,-18.));
#836=CARTESIAN_POINT('',(83.1594720110977,144.462439886546,-18.));
#837=CARTESIAN_POINT('Origin',(82.6594720110977,144.462439886546,-18.));
#838=CARTESIAN_POINT('Origin',(100.5,29.4999999992271,-34.2));
#839=CARTESIAN_POINT('',(100.5,30.9999999992271,-44.2));
#840=CARTESIAN_POINT('',(102.,29.4999999992271,-44.2));
#841=CARTESIAN_POINT('Origin',(100.5,29.4999999992271,-44.2));
#842=CARTESIAN_POINT('',(102.,29.4999999992271,-34.2));
#843=CARTESIAN_POINT('',(102.,29.4999999992271,-34.2));
#844=CARTESIAN_POINT('',(100.5,30.9999999992271,-34.2));
#845=CARTESIAN_POINT('Origin',(100.5,29.4999999992271,-34.2));
#846=CARTESIAN_POINT('',(100.5,30.9999999992271,-34.2));
#847=CARTESIAN_POINT('Origin',(79.4999999999997,30.9999999992271,-34.2));
#848=CARTESIAN_POINT('',(79.4999999999997,30.9999999992271,-44.2));
#849=CARTESIAN_POINT('',(84.7499999999998,30.9999999992271,-44.2));
#850=CARTESIAN_POINT('',(79.4999999999997,30.9999999992271,-34.2));
#851=CARTESIAN_POINT('',(39.7499999999999,30.9999999992271,-34.2));
#852=CARTESIAN_POINT('',(79.4999999999997,30.9999999992271,-34.2));
#853=CARTESIAN_POINT('Origin',(79.4999999999997,29.4999999992271,-34.2));
#854=CARTESIAN_POINT('',(77.9999999999997,29.4999999992271,-44.2));
#855=CARTESIAN_POINT('Origin',(79.4999999999997,29.4999999992271,-44.2));
#856=CARTESIAN_POINT('',(77.9999999999997,29.4999999992271,-34.2));
#857=CARTESIAN_POINT('Origin',(79.4999999999997,29.4999999992271,-34.2));
#858=CARTESIAN_POINT('',(77.9999999999997,29.4999999992271,-34.2));
#859=CARTESIAN_POINT('Origin',(77.9999999999997,-9.50000000077291,-34.2));
#860=CARTESIAN_POINT('',(77.9999999999997,0.13231286762386,-44.2));
#861=CARTESIAN_POINT('',(77.9999999999997,0.132312867623861,-34.2));
#862=CARTESIAN_POINT('',(77.9999999999997,0.132312867623862,-32.6500000000003));
#863=CARTESIAN_POINT('',(77.9999999999997,0.249999999227093,-44.2));
#864=CARTESIAN_POINT('',(77.9999999999997,-4.75000000038645,-34.2));
#865=CARTESIAN_POINT('Origin',(80.,131.43593539449,-18.));
#866=CARTESIAN_POINT('',(84.3301270189222,133.93593539449,-32.2));
#867=CARTESIAN_POINT('',(75.,131.43593539449,-32.2));
#868=CARTESIAN_POINT('Origin',(80.,131.43593539449,-32.2));
#869=CARTESIAN_POINT('',(84.3301270189222,133.93593539449,-18.));
#870=CARTESIAN_POINT('',(75.,131.43593539449,-18.));
#871=CARTESIAN_POINT('Origin',(161.658075373095,-4.44089209850063E-14,-18.));
#872=CARTESIAN_POINT('',(160.214699700121,2.49999999999998,-32.2));
#873=CARTESIAN_POINT('',(141.450815951458,35.,-32.2));
#874=CARTESIAN_POINT('',(160.214699700121,2.49999999999998,-18.));
#875=CARTESIAN_POINT('Origin',(155.884572681199,-1.77635683940025E-14,-18.));
#876=CARTESIAN_POINT('',(160.882821705113,0.132312867623861,-32.2));
#877=CARTESIAN_POINT('',(160.882821705113,0.132312867623862,-18.));
#878=CARTESIAN_POINT('Origin',(155.884572681199,-1.77635683940025E-14,-32.2));
#879=CARTESIAN_POINT('Origin',(80.,131.43593539449,-32.2));
#880=CARTESIAN_POINT('',(77.,131.43593539449,-34.2));
#881=CARTESIAN_POINT('Origin',(77.,131.43593539449,-32.2));
#882=CARTESIAN_POINT('',(82.5980762113533,132.93593539449,-34.2));
#883=CARTESIAN_POINT('Origin',(80.,131.43593539449,-34.2));
#884=CARTESIAN_POINT('Origin',(82.5980762113533,132.93593539449,-32.2));
#885=CARTESIAN_POINT('Origin',(139.718765143889,34.,-32.2));
#886=CARTESIAN_POINT('',(158.482648892552,1.49999999999999,-34.2));
#887=CARTESIAN_POINT('',(139.718765143889,34.,-34.2));
#888=CARTESIAN_POINT('Origin',(158.482648892552,1.49999999999999,-32.2));
#889=CARTESIAN_POINT('Origin',(65.,-160.000000000015,-115.));
#890=CARTESIAN_POINT('',(65.,0.132312867623865,-28.));
#891=CARTESIAN_POINT('',(65.,0.132312867623865,-44.2));
#892=CARTESIAN_POINT('',(65.,0.132312867623865,-73.0500000000003));
#893=CARTESIAN_POINT('',(64.9999999999999,140.132312867624,-27.9999999999997));
#894=CARTESIAN_POINT('',(65.,79.9999999999926,-28.));
#895=CARTESIAN_POINT('',(65.,140.132312867624,-44.1999999999997));
#896=CARTESIAN_POINT('',(65.,140.132312867624,-79.6000000000003));
#897=CARTESIAN_POINT('',(65.,-53.7500008009374,-44.2));
#898=CARTESIAN_POINT('Origin',(83.0462233570465,145.132312867624,-44.2));
#899=CARTESIAN_POINT('',(87.3763503759687,147.632312867624,-44.2));
#900=CARTESIAN_POINT('',(87.3763503759687,147.632312867624,-44.2));
#901=CARTESIAN_POINT('',(83.0462233570465,150.132312867624,-44.2));
#902=CARTESIAN_POINT('Origin',(83.0462233570465,145.132312867624,-44.2));
#903=CARTESIAN_POINT('',(83.0462233570465,150.132312867624,-44.2));
#904=CARTESIAN_POINT('Origin',(87.3763503759687,147.632312867624,-44.2));
#905=CARTESIAN_POINT('',(171.092139408465,2.63231286762387,-44.2));
#906=CARTESIAN_POINT('',(171.092139408465,2.63231286762387,-44.2));
#907=CARTESIAN_POINT('',(108.417639919676,111.187730321155,-44.2));
#908=CARTESIAN_POINT('Origin',(166.762012389542,0.13231286762383,-44.2));
#909=CARTESIAN_POINT('',(171.762012389542,0.13231286762386,-44.2));
#910=CARTESIAN_POINT('',(171.762012389542,0.13231286762386,-44.2));
#911=CARTESIAN_POINT('Origin',(166.762012389542,0.13231286762383,-44.2));
#912=CARTESIAN_POINT('Origin',(82.6594720110977,144.462439886546,-18.));
#913=CARTESIAN_POINT('',(83.1594720110977,144.462439886546,-44.2));
#914=CARTESIAN_POINT('',(83.1594720110977,144.462439886546,-18.));
#915=CARTESIAN_POINT('Origin',(82.6594720110977,144.462439886546,-44.2));
#916=CARTESIAN_POINT('Origin',(77.,-53.75,-32.2));
#917=CARTESIAN_POINT('',(77.,0.132312867623865,-34.2));
#918=CARTESIAN_POINT('',(75.,0.132312867623865,-32.2));
#919=CARTESIAN_POINT('Origin',(77.,0.132312867623865,-32.2));
#920=CARTESIAN_POINT('',(77.,-53.75,-34.2));
#921=CARTESIAN_POINT('',(75.,-53.75,-32.2));
#922=CARTESIAN_POINT('Origin',(0.,0.,-34.2));
#923=CARTESIAN_POINT('',(158.881653478418,0.132312867623861,-34.2));
#924=CARTESIAN_POINT('',(102.,0.132312867623861,-34.2));
#925=CARTESIAN_POINT('',(-0.334782837724807,0.132312867623861,-34.2));
#926=CARTESIAN_POINT('Origin',(155.884572681199,-1.77635683940025E-14,-34.2));
#927=CARTESIAN_POINT('',(-0.334782837724807,0.132312867623861,-34.2));
#928=CARTESIAN_POINT('',(102.,14.7499999996135,-34.2));
#929=CARTESIAN_POINT('Origin',(75.,-107.5,-34.2));
#930=CARTESIAN_POINT('',(75.,0.132312867623856,-32.6500000000003));
#931=CARTESIAN_POINT('Origin',(155.884572681199,-1.77635683940025E-14,-32.2));
#932=CARTESIAN_POINT('Ctrl Pts',(160.882821705113,0.132312867623861,-32.2));
#933=CARTESIAN_POINT('Ctrl Pts',(160.882821705113,0.132312867623861,-32.4467876439755));
#934=CARTESIAN_POINT('Ctrl Pts',(160.825035272142,0.132312867623861,-32.7372402072623));
#935=CARTESIAN_POINT('Ctrl Pts',(160.636107446638,0.132312867623861,-33.1932734207663));
#936=CARTESIAN_POINT('Ctrl Pts',(160.471520563793,0.132312867623861,-33.4395342720687));
#937=CARTESIAN_POINT('Ctrl Pts',(160.122349297701,0.132312867623861,-33.788628699682));
#938=CARTESIAN_POINT('Ctrl Pts',(159.875957726179,0.132312867623861,-33.9532037414565));
#939=CARTESIAN_POINT('Ctrl Pts',(159.419543688333,0.132312867623861,-34.1422013044193));
#940=CARTESIAN_POINT('Ctrl Pts',(159.128734552787,0.132312867623861,-34.2));
#941=CARTESIAN_POINT('Ctrl Pts',(158.881653478418,0.132312867623861,-34.2));
#942=CARTESIAN_POINT('Origin',(102.,29.4999999992271,-34.2));
#943=CARTESIAN_POINT('',(102.,0.132312867623861,-44.2));
#944=CARTESIAN_POINT('',(102.,0.132312867623861,-32.6500000000003));
#945=CARTESIAN_POINT('',(102.,19.7499999992271,-44.2));
#946=CARTESIAN_POINT('Origin',(165.988509697645,0.132312867623878,-18.));
#947=CARTESIAN_POINT('',(166.488509697645,0.132312867623879,-44.2));
#948=CARTESIAN_POINT('',(166.488509697645,0.132312867623862,-18.));
#949=CARTESIAN_POINT('',(165.488509697645,0.13231286762386,-44.2));
#950=CARTESIAN_POINT('',(165.488509697645,0.132312867623862,-18.));
#951=CARTESIAN_POINT('Origin',(165.988509697645,0.132312867623878,-44.2));
#952=CARTESIAN_POINT('Origin',(-0.669565675449615,0.132312867623861,-31.1000000000005));
#953=CARTESIAN_POINT('',(-0.334782837724807,0.13231286762386,-44.2));
#954=CARTESIAN_POINT('Origin',(-0.669565675449615,0.132312867623861,-31.1000000000005));
#955=CARTESIAN_POINT('',(-0.334782837724807,0.13231286762386,-44.2));
#956=CARTESIAN_POINT('Origin',(-0.669565675449615,0.132312867623861,-31.1000000000005));
#957=CARTESIAN_POINT('',(24.9996498636123,0.132312867623861,-28.));
#958=CARTESIAN_POINT('',(24.9996498636123,0.132312867623856,-115.));
#959=CARTESIAN_POINT('',(-0.334782837743122,0.132312867623856,-28.));
#960=CARTESIAN_POINT('',(-0.334782837724807,0.13231286762386,-44.2));
#961=CARTESIAN_POINT('Origin',(65.,150.132312867624,-44.1999999999997));
#962=CARTESIAN_POINT('',(-0.669565675449686,150.132312867624,-44.2));
#963=CARTESIAN_POINT('',(-0.669565675449686,150.132312867624,-37.6500000000001));
#964=CARTESIAN_POINT('',(-42.1926773539729,150.132312867624,-44.2));
#965=CARTESIAN_POINT('Origin',(0.,0.,-44.2));
#966=CARTESIAN_POINT('',(-0.669565675449686,140.132312867624,-44.2000000000001));
#967=CARTESIAN_POINT('',(-0.669565675449688,37.565298326508,-44.2));
#968=CARTESIAN_POINT('',(-78.6118520160495,140.132312867624,-44.2000000000005));
#969=CARTESIAN_POINT('Origin',(-78.6118520160495,140.132312867624,-44.2000000000005));
#970=CARTESIAN_POINT('',(-0.669565675449686,140.132312867624,-28.));
#971=CARTESIAN_POINT('',(-0.669565675449686,140.132312867624,-37.6500000000005));
#972=CARTESIAN_POINT('',(-39.3059260080431,140.132312867624,-28.));
#973=CARTESIAN_POINT('Origin',(-3.66284780284332E-11,111.249999999968,-28.));
#974=CARTESIAN_POINT('',(-0.669565675449686,24.9910320275726,-28.));
#975=CARTESIAN_POINT('',(-0.669565675449687,93.1902983264923,-28.));
#976=CARTESIAN_POINT('Origin',(-3.66640051652212E-11,-6.30251406619209E-11,
-28.));
#977=CARTESIAN_POINT('Origin',(-3.66640051652212E-11,-6.30251406619209E-11,
-115.));
#978=CARTESIAN_POINT('',(-0.669565675449692,24.9910320275726,-115.));
#979=CARTESIAN_POINT('Origin',(-0.669565675449687,75.1305966530161,-31.1000000000005));
#980=UNCERTAINTY_MEASURE_WITH_UNIT(LENGTH_MEASURE(0.01),#984,
'DISTANCE_ACCURACY_VALUE',
'Maximum model space distance between geometric entities at asserted c
onnectivities');
#981=UNCERTAINTY_MEASURE_WITH_UNIT(LENGTH_MEASURE(0.01),#984,
'DISTANCE_ACCURACY_VALUE',
'Maximum model space distance between geometric entities at asserted c
onnectivities');
#982=(
GEOMETRIC_REPRESENTATION_CONTEXT(3)
GLOBAL_UNCERTAINTY_ASSIGNED_CONTEXT((#980))
GLOBAL_UNIT_ASSIGNED_CONTEXT((#984,#986,#987))
REPRESENTATION_CONTEXT('','3D')
);
#983=(
GEOMETRIC_REPRESENTATION_CONTEXT(3)
GLOBAL_UNCERTAINTY_ASSIGNED_CONTEXT((#981))
GLOBAL_UNIT_ASSIGNED_CONTEXT((#984,#986,#987))
REPRESENTATION_CONTEXT('','3D')
);
#984=(
LENGTH_UNIT()
NAMED_UNIT(*)
SI_UNIT(.MILLI.,.METRE.)
);
#985=(
LENGTH_UNIT()
NAMED_UNIT(*)
SI_UNIT($,.METRE.)
);
#986=(
NAMED_UNIT(*)
PLANE_ANGLE_UNIT()
SI_UNIT($,.RADIAN.)
);
#987=(
NAMED_UNIT(*)
SI_UNIT($,.STERADIAN.)
SOLID_ANGLE_UNIT()
);
#988=SHAPE_DEFINITION_REPRESENTATION(#989,#990);
#989=PRODUCT_DEFINITION_SHAPE('',$,#992);
#990=SHAPE_REPRESENTATION('',(#585),#982);
#991=PRODUCT_DEFINITION_CONTEXT('part definition',#996,'design');
#992=PRODUCT_DEFINITION('2026-06-20-16-29-08-982','FusionComponent',#993,
#991);
#993=PRODUCT_DEFINITION_FORMATION('',$,#998);
#994=PRODUCT_RELATED_PRODUCT_CATEGORY('FusionComponent',
'FusionComponent',(#998));
#995=APPLICATION_PROTOCOL_DEFINITION('international standard',
'automotive_design',2009,#996);
#996=APPLICATION_CONTEXT(
'Core Data for Automotive Mechanical Design Process');
#997=PRODUCT_CONTEXT('part definition',#996,'mechanical');
#998=PRODUCT('2026-06-20-16-29-08-982','FusionComponent',$,(#997));
#999=PRESENTATION_STYLE_ASSIGNMENT((#1000));
#1000=SURFACE_STYLE_USAGE(.BOTH.,#1001);
#1001=SURFACE_SIDE_STYLE('',(#1002));
#1002=SURFACE_STYLE_FILL_AREA(#1003);
#1003=FILL_AREA_STYLE('Steel - Satin',(#1004));
#1004=FILL_AREA_STYLE_COLOUR('Steel - Satin',#1005);
#1005=COLOUR_RGB('Steel - Satin',0.627450980392157,0.627450980392157,0.627450980392157);
ENDSEC;
END-ISO-10303-21;
