ISO-10303-21;
HEADER;
/* Generated by software containing ST-Developer
 * from STEP Tools, Inc. (www.steptools.com) 
 */

FILE_DESCRIPTION(
/* description */ (''),
/* implementation_level */ '2;1');

FILE_NAME(
/* name */ 'Electronic Hub Top C x1.step',
/* time_stamp */ '2026-06-20T16:29:32-05:00',
/* author */ (''),
/* organization */ (''),
/* preprocessor_version */ 'ST-DEVELOPER v20.1',
/* originating_system */ 'Autodesk Translation Framework v15.8.0.0',
/* authorisation */ '');

FILE_SCHEMA (('AUTOMOTIVE_DESIGN { 1 0 10303 214 3 1 1 }'));
ENDSEC;

DATA;
#10=MECHANICAL_DESIGN_GEOMETRIC_PRESENTATION_REPRESENTATION('',(#13),#1489);
#11=SHAPE_REPRESENTATION_RELATIONSHIP('SRR','None',#1496,#12);
#12=ADVANCED_BREP_SHAPE_REPRESENTATION('',(#14),#1488);
#13=STYLED_ITEM('',(#1505),#14);
#14=MANIFOLD_SOLID_BREP('Body1',#885);
#15=FACE_BOUND('',#151,.T.);
#16=FACE_BOUND('',#152,.T.);
#17=FACE_BOUND('',#153,.T.);
#18=FACE_BOUND('',#158,.T.);
#19=FACE_BOUND('',#161,.T.);
#20=FACE_BOUND('',#162,.T.);
#21=FACE_BOUND('',#163,.T.);
#22=FACE_BOUND('',#164,.T.);
#23=CIRCLE('',#901,3.00000000000001);
#24=CIRCLE('',#902,3.00000000000001);
#25=CIRCLE('',#905,2.99999999999998);
#26=CIRCLE('',#906,2.99999999999998);
#27=CIRCLE('',#909,3.00000000000001);
#28=CIRCLE('',#910,3.00000000000001);
#29=CIRCLE('',#913,3.00000000000002);
#30=CIRCLE('',#914,3.00000000000002);
#31=CIRCLE('',#917,2.);
#32=CIRCLE('',#918,2.);
#33=CIRCLE('',#921,2.);
#34=CIRCLE('',#922,2.);
#35=CIRCLE('',#927,0.500000000000007);
#36=CIRCLE('',#928,0.500000000000007);
#37=CIRCLE('',#930,0.499999999999998);
#38=CIRCLE('',#931,0.499999999999998);
#39=CIRCLE('',#933,1.);
#40=CIRCLE('',#934,1.);
#41=CIRCLE('',#937,1.);
#42=CIRCLE('',#938,1.);
#43=CIRCLE('',#940,1.);
#44=CIRCLE('',#943,1.);
#45=CIRCLE('',#944,1.);
#46=CIRCLE('',#948,1.);
#47=CIRCLE('',#953,25.);
#48=CIRCLE('',#954,4.99999999999999);
#49=CIRCLE('',#958,4.99999999999999);
#50=CIRCLE('',#960,4.99999999999984);
#51=CIRCLE('',#961,5.00000000000006);
#52=CIRCLE('',#962,0.500000000000007);
#53=CIRCLE('',#963,0.500000000000007);
#54=CIRCLE('',#965,25.);
#55=CIRCLE('',#967,0.500000000000007);
#56=CIRCLE('',#968,5.0000000000001);
#57=CIRCLE('',#969,4.99999999999982);
#58=CIRCLE('',#970,0.500000000000007);
#59=CYLINDRICAL_SURFACE('',#900,3.00000000000001);
#60=CYLINDRICAL_SURFACE('',#904,2.99999999999998);
#61=CYLINDRICAL_SURFACE('',#908,3.00000000000001);
#62=CYLINDRICAL_SURFACE('',#912,3.00000000000002);
#63=CYLINDRICAL_SURFACE('',#916,2.);
#64=CYLINDRICAL_SURFACE('',#920,2.);
#65=CYLINDRICAL_SURFACE('',#926,0.500000000000007);
#66=CYLINDRICAL_SURFACE('',#929,0.499999999999998);
#67=CYLINDRICAL_SURFACE('',#932,1.);
#68=CYLINDRICAL_SURFACE('',#936,1.);
#69=CYLINDRICAL_SURFACE('',#942,1.);
#70=CYLINDRICAL_SURFACE('',#947,1.);
#71=CYLINDRICAL_SURFACE('',#957,4.99999999999999);
#72=CYLINDRICAL_SURFACE('',#964,25.);
#73=CYLINDRICAL_SURFACE('',#971,5.00000000000006);
#74=CYLINDRICAL_SURFACE('',#973,4.99999999999984);
#75=CYLINDRICAL_SURFACE('',#975,0.500000000000007);
#76=CYLINDRICAL_SURFACE('',#976,0.500000000000007);
#77=FACE_OUTER_BOUND('',#121,.T.);
#78=FACE_OUTER_BOUND('',#122,.T.);
#79=FACE_OUTER_BOUND('',#123,.T.);
#80=FACE_OUTER_BOUND('',#124,.T.);
#81=FACE_OUTER_BOUND('',#125,.T.);
#82=FACE_OUTER_BOUND('',#126,.T.);
#83=FACE_OUTER_BOUND('',#127,.T.);
#84=FACE_OUTER_BOUND('',#128,.T.);
#85=FACE_OUTER_BOUND('',#129,.T.);
#86=FACE_OUTER_BOUND('',#130,.T.);
#87=FACE_OUTER_BOUND('',#131,.T.);
#88=FACE_OUTER_BOUND('',#132,.T.);
#89=FACE_OUTER_BOUND('',#133,.T.);
#90=FACE_OUTER_BOUND('',#134,.T.);
#91=FACE_OUTER_BOUND('',#135,.T.);
#92=FACE_OUTER_BOUND('',#136,.T.);
#93=FACE_OUTER_BOUND('',#137,.T.);
#94=FACE_OUTER_BOUND('',#138,.T.);
#95=FACE_OUTER_BOUND('',#139,.T.);
#96=FACE_OUTER_BOUND('',#140,.T.);
#97=FACE_OUTER_BOUND('',#141,.T.);
#98=FACE_OUTER_BOUND('',#142,.T.);
#99=FACE_OUTER_BOUND('',#143,.T.);
#100=FACE_OUTER_BOUND('',#144,.T.);
#101=FACE_OUTER_BOUND('',#145,.T.);
#102=FACE_OUTER_BOUND('',#146,.T.);
#103=FACE_OUTER_BOUND('',#147,.T.);
#104=FACE_OUTER_BOUND('',#148,.T.);
#105=FACE_OUTER_BOUND('',#149,.T.);
#106=FACE_OUTER_BOUND('',#150,.T.);
#107=FACE_OUTER_BOUND('',#154,.T.);
#108=FACE_OUTER_BOUND('',#155,.T.);
#109=FACE_OUTER_BOUND('',#156,.T.);
#110=FACE_OUTER_BOUND('',#157,.T.);
#111=FACE_OUTER_BOUND('',#159,.T.);
#112=FACE_OUTER_BOUND('',#160,.T.);
#113=FACE_OUTER_BOUND('',#165,.T.);
#114=FACE_OUTER_BOUND('',#166,.T.);
#115=FACE_OUTER_BOUND('',#167,.T.);
#116=FACE_OUTER_BOUND('',#168,.T.);
#117=FACE_OUTER_BOUND('',#169,.T.);
#118=FACE_OUTER_BOUND('',#170,.T.);
#119=FACE_OUTER_BOUND('',#171,.T.);
#120=FACE_OUTER_BOUND('',#172,.T.);
#121=EDGE_LOOP('',(#563,#564,#565,#566));
#122=EDGE_LOOP('',(#567,#568,#569,#570));
#123=EDGE_LOOP('',(#571,#572,#573,#574));
#124=EDGE_LOOP('',(#575,#576,#577,#578));
#125=EDGE_LOOP('',(#579,#580,#581,#582));
#126=EDGE_LOOP('',(#583,#584,#585,#586));
#127=EDGE_LOOP('',(#587,#588,#589,#590));
#128=EDGE_LOOP('',(#591,#592,#593,#594));
#129=EDGE_LOOP('',(#595,#596,#597,#598));
#130=EDGE_LOOP('',(#599,#600,#601,#602));
#131=EDGE_LOOP('',(#603,#604,#605,#606));
#132=EDGE_LOOP('',(#607,#608,#609,#610));
#133=EDGE_LOOP('',(#611,#612,#613,#614));
#134=EDGE_LOOP('',(#615,#616,#617,#618,#619,#620,#621,#622,#623,#624));
#135=EDGE_LOOP('',(#625,#626,#627,#628,#629,#630,#631,#632,#633,#634));
#136=EDGE_LOOP('',(#635,#636,#637,#638));
#137=EDGE_LOOP('',(#639,#640,#641,#642));
#138=EDGE_LOOP('',(#643,#644,#645,#646));
#139=EDGE_LOOP('',(#647,#648,#649,#650));
#140=EDGE_LOOP('',(#651,#652,#653,#654));
#141=EDGE_LOOP('',(#655,#656,#657,#658,#659,#660));
#142=EDGE_LOOP('',(#661,#662,#663,#664));
#143=EDGE_LOOP('',(#665,#666,#667,#668));
#144=EDGE_LOOP('',(#669,#670,#671,#672,#673,#674));
#145=EDGE_LOOP('',(#675,#676,#677,#678));
#146=EDGE_LOOP('',(#679,#680,#681,#682));
#147=EDGE_LOOP('',(#683,#684,#685,#686));
#148=EDGE_LOOP('',(#687,#688,#689,#690));
#149=EDGE_LOOP('',(#691,#692,#693,#694));
#150=EDGE_LOOP('',(#695,#696,#697,#698,#699,#700,#701,#702,#703,#704,#705,
#706,#707,#708,#709,#710,#711,#712));
#151=EDGE_LOOP('',(#713,#714,#715,#716,#717,#718,#719,#720));
#152=EDGE_LOOP('',(#721));
#153=EDGE_LOOP('',(#722));
#154=EDGE_LOOP('',(#723,#724,#725,#726,#727,#728,#729,#730,#731,#732));
#155=EDGE_LOOP('',(#733,#734,#735,#736));
#156=EDGE_LOOP('',(#737,#738,#739,#740));
#157=EDGE_LOOP('',(#741,#742,#743,#744,#745,#746,#747,#748,#749,#750,#751));
#158=EDGE_LOOP('',(#752));
#159=EDGE_LOOP('',(#753,#754,#755,#756));
#160=EDGE_LOOP('',(#757,#758,#759,#760,#761,#762,#763,#764,#765));
#161=EDGE_LOOP('',(#766,#767,#768,#769,#770,#771,#772,#773));
#162=EDGE_LOOP('',(#774));
#163=EDGE_LOOP('',(#775));
#164=EDGE_LOOP('',(#776));
#165=EDGE_LOOP('',(#777,#778,#779,#780));
#166=EDGE_LOOP('',(#781,#782,#783,#784));
#167=EDGE_LOOP('',(#785,#786,#787,#788));
#168=EDGE_LOOP('',(#789,#790,#791,#792));
#169=EDGE_LOOP('',(#793,#794,#795,#796));
#170=EDGE_LOOP('',(#797,#798,#799,#800));
#171=EDGE_LOOP('',(#801,#802,#803,#804,#805,#806,#807,#808,#809,#810));
#172=EDGE_LOOP('',(#811,#812,#813,#814));
#173=LINE('',#1235,#263);
#174=LINE('',#1237,#264);
#175=LINE('',#1239,#265);
#176=LINE('',#1240,#266);
#177=LINE('',#1246,#267);
#178=LINE('',#1249,#268);
#179=LINE('',#1251,#269);
#180=LINE('',#1252,#270);
#181=LINE('',#1258,#271);
#182=LINE('',#1261,#272);
#183=LINE('',#1263,#273);
#184=LINE('',#1264,#274);
#185=LINE('',#1270,#275);
#186=LINE('',#1273,#276);
#187=LINE('',#1275,#277);
#188=LINE('',#1276,#278);
#189=LINE('',#1283,#279);
#190=LINE('',#1285,#280);
#191=LINE('',#1287,#281);
#192=LINE('',#1288,#282);
#193=LINE('',#1293,#283);
#194=LINE('',#1297,#284);
#195=LINE('',#1299,#285);
#196=LINE('',#1300,#286);
#197=LINE('',#1305,#287);
#198=LINE('',#1310,#288);
#199=LINE('',#1311,#289);
#200=LINE('',#1312,#290);
#201=LINE('',#1315,#291);
#202=LINE('',#1317,#292);
#203=LINE('',#1319,#293);
#204=LINE('',#1321,#294);
#205=LINE('',#1322,#295);
#206=LINE('',#1325,#296);
#207=LINE('',#1327,#297);
#208=LINE('',#1329,#298);
#209=LINE('',#1331,#299);
#210=LINE('',#1333,#300);
#211=LINE('',#1335,#301);
#212=LINE('',#1337,#302);
#213=LINE('',#1338,#303);
#214=LINE('',#1343,#304);
#215=LINE('',#1349,#305);
#216=LINE('',#1356,#306);
#217=LINE('',#1359,#307);
#218=LINE('',#1361,#308);
#219=LINE('',#1362,#309);
#220=LINE('',#1368,#310);
#221=LINE('',#1371,#311);
#222=LINE('',#1374,#312);
#223=LINE('',#1378,#313);
#224=LINE('',#1380,#314);
#225=LINE('',#1381,#315);
#226=LINE('',#1384,#316);
#227=LINE('',#1385,#317);
#228=LINE('',#1391,#318);
#229=LINE('',#1394,#319);
#230=LINE('',#1396,#320);
#231=LINE('',#1397,#321);
#232=LINE('',#1399,#322);
#233=LINE('',#1403,#323);
#234=LINE('',#1406,#324);
#235=LINE('',#1407,#325);
#236=LINE('',#1410,#326);
#237=LINE('',#1411,#327);
#238=LINE('',#1413,#328);
#239=LINE('',#1416,#329);
#240=LINE('',#1419,#330);
#241=LINE('',#1421,#331);
#242=LINE('',#1424,#332);
#243=LINE('',#1427,#333);
#244=LINE('',#1429,#334);
#245=LINE('',#1431,#335);
#246=LINE('',#1433,#336);
#247=LINE('',#1434,#337);
#248=LINE('',#1438,#338);
#249=LINE('',#1440,#339);
#250=LINE('',#1442,#340);
#251=LINE('',#1443,#341);
#252=LINE('',#1446,#342);
#253=LINE('',#1450,#343);
#254=LINE('',#1452,#344);
#255=LINE('',#1453,#345);
#256=LINE('',#1457,#346);
#257=LINE('',#1469,#347);
#258=LINE('',#1474,#348);
#259=LINE('',#1476,#349);
#260=LINE('',#1479,#350);
#261=LINE('',#1482,#351);
#262=LINE('',#1484,#352);
#263=VECTOR('',#983,10.);
#264=VECTOR('',#984,10.);
#265=VECTOR('',#985,10.);
#266=VECTOR('',#986,10.);
#267=VECTOR('',#993,10.);
#268=VECTOR('',#996,10.);
#269=VECTOR('',#997,10.);
#270=VECTOR('',#998,10.);
#271=VECTOR('',#1005,10.);
#272=VECTOR('',#1008,10.);
#273=VECTOR('',#1009,10.);
#274=VECTOR('',#1010,10.);
#275=VECTOR('',#1017,10.);
#276=VECTOR('',#1020,10.);
#277=VECTOR('',#1021,10.);
#278=VECTOR('',#1022,10.);
#279=VECTOR('',#1031,10.);
#280=VECTOR('',#1032,10.);
#281=VECTOR('',#1033,10.);
#282=VECTOR('',#1034,10.);
#283=VECTOR('',#1039,10.);
#284=VECTOR('',#1044,10.);
#285=VECTOR('',#1045,10.);
#286=VECTOR('',#1046,10.);
#287=VECTOR('',#1051,10.);
#288=VECTOR('',#1056,10.);
#289=VECTOR('',#1057,10.);
#290=VECTOR('',#1058,10.);
#291=VECTOR('',#1061,10.);
#292=VECTOR('',#1062,10.);
#293=VECTOR('',#1063,10.);
#294=VECTOR('',#1064,10.);
#295=VECTOR('',#1065,10.);
#296=VECTOR('',#1068,10.);
#297=VECTOR('',#1069,10.);
#298=VECTOR('',#1070,10.);
#299=VECTOR('',#1071,10.);
#300=VECTOR('',#1072,10.);
#301=VECTOR('',#1073,10.);
#302=VECTOR('',#1074,10.);
#303=VECTOR('',#1075,10.);
#304=VECTOR('',#1080,0.500000000000007);
#305=VECTOR('',#1087,0.499999999999998);
#306=VECTOR('',#1094,10.);
#307=VECTOR('',#1097,10.);
#308=VECTOR('',#1100,10.);
#309=VECTOR('',#1101,10.);
#310=VECTOR('',#1106,10.);
#311=VECTOR('',#1109,10.);
#312=VECTOR('',#1112,10.);
#313=VECTOR('',#1115,10.);
#314=VECTOR('',#1116,10.);
#315=VECTOR('',#1117,10.);
#316=VECTOR('',#1120,10.);
#317=VECTOR('',#1121,10.);
#318=VECTOR('',#1126,10.);
#319=VECTOR('',#1129,10.);
#320=VECTOR('',#1132,10.);
#321=VECTOR('',#1133,10.);
#322=VECTOR('',#1136,10.);
#323=VECTOR('',#1141,10.);
#324=VECTOR('',#1144,10.);
#325=VECTOR('',#1145,10.);
#326=VECTOR('',#1148,10.);
#327=VECTOR('',#1149,10.);
#328=VECTOR('',#1152,10.);
#329=VECTOR('',#1155,10.);
#330=VECTOR('',#1158,10.);
#331=VECTOR('',#1159,10.);
#332=VECTOR('',#1162,10.);
#333=VECTOR('',#1165,10.);
#334=VECTOR('',#1166,10.);
#335=VECTOR('',#1167,10.);
#336=VECTOR('',#1168,10.);
#337=VECTOR('',#1169,10.);
#338=VECTOR('',#1172,10.);
#339=VECTOR('',#1173,10.);
#340=VECTOR('',#1174,10.);
#341=VECTOR('',#1175,10.);
#342=VECTOR('',#1178,10.);
#343=VECTOR('',#1183,10.);
#344=VECTOR('',#1184,10.);
#345=VECTOR('',#1185,10.);
#346=VECTOR('',#1188,10.);
#347=VECTOR('',#1205,10.);
#348=VECTOR('',#1212,10.);
#349=VECTOR('',#1215,10.);
#350=VECTOR('',#1220,10.);
#351=VECTOR('',#1225,0.500000000000007);
#352=VECTOR('',#1228,10.);
#353=VERTEX_POINT('',#1233);
#354=VERTEX_POINT('',#1234);
#355=VERTEX_POINT('',#1236);
#356=VERTEX_POINT('',#1238);
#357=VERTEX_POINT('',#1242);
#358=VERTEX_POINT('',#1244);
#359=VERTEX_POINT('',#1248);
#360=VERTEX_POINT('',#1250);
#361=VERTEX_POINT('',#1254);
#362=VERTEX_POINT('',#1256);
#363=VERTEX_POINT('',#1260);
#364=VERTEX_POINT('',#1262);
#365=VERTEX_POINT('',#1266);
#366=VERTEX_POINT('',#1268);
#367=VERTEX_POINT('',#1272);
#368=VERTEX_POINT('',#1274);
#369=VERTEX_POINT('',#1281);
#370=VERTEX_POINT('',#1282);
#371=VERTEX_POINT('',#1284);
#372=VERTEX_POINT('',#1286);
#373=VERTEX_POINT('',#1290);
#374=VERTEX_POINT('',#1292);
#375=VERTEX_POINT('',#1296);
#376=VERTEX_POINT('',#1298);
#377=VERTEX_POINT('',#1302);
#378=VERTEX_POINT('',#1304);
#379=VERTEX_POINT('',#1308);
#380=VERTEX_POINT('',#1309);
#381=VERTEX_POINT('',#1314);
#382=VERTEX_POINT('',#1316);
#383=VERTEX_POINT('',#1318);
#384=VERTEX_POINT('',#1320);
#385=VERTEX_POINT('',#1324);
#386=VERTEX_POINT('',#1326);
#387=VERTEX_POINT('',#1328);
#388=VERTEX_POINT('',#1330);
#389=VERTEX_POINT('',#1332);
#390=VERTEX_POINT('',#1334);
#391=VERTEX_POINT('',#1336);
#392=VERTEX_POINT('',#1340);
#393=VERTEX_POINT('',#1342);
#394=VERTEX_POINT('',#1346);
#395=VERTEX_POINT('',#1348);
#396=VERTEX_POINT('',#1352);
#397=VERTEX_POINT('',#1353);
#398=VERTEX_POINT('',#1355);
#399=VERTEX_POINT('',#1357);
#400=VERTEX_POINT('',#1364);
#401=VERTEX_POINT('',#1365);
#402=VERTEX_POINT('',#1367);
#403=VERTEX_POINT('',#1369);
#404=VERTEX_POINT('',#1373);
#405=VERTEX_POINT('',#1375);
#406=VERTEX_POINT('',#1377);
#407=VERTEX_POINT('',#1379);
#408=VERTEX_POINT('',#1383);
#409=VERTEX_POINT('',#1387);
#410=VERTEX_POINT('',#1388);
#411=VERTEX_POINT('',#1390);
#412=VERTEX_POINT('',#1392);
#413=VERTEX_POINT('',#1401);
#414=VERTEX_POINT('',#1405);
#415=VERTEX_POINT('',#1409);
#416=VERTEX_POINT('',#1415);
#417=VERTEX_POINT('',#1418);
#418=VERTEX_POINT('',#1420);
#419=VERTEX_POINT('',#1422);
#420=VERTEX_POINT('',#1426);
#421=VERTEX_POINT('',#1428);
#422=VERTEX_POINT('',#1430);
#423=VERTEX_POINT('',#1432);
#424=VERTEX_POINT('',#1436);
#425=VERTEX_POINT('',#1437);
#426=VERTEX_POINT('',#1439);
#427=VERTEX_POINT('',#1441);
#428=VERTEX_POINT('',#1445);
#429=VERTEX_POINT('',#1449);
#430=VERTEX_POINT('',#1451);
#431=VERTEX_POINT('',#1454);
#432=VERTEX_POINT('',#1456);
#433=VERTEX_POINT('',#1460);
#434=VERTEX_POINT('',#1466);
#435=VERTEX_POINT('',#1468);
#436=VERTEX_POINT('',#1471);
#437=EDGE_CURVE('',#353,#354,#173,.T.);
#438=EDGE_CURVE('',#355,#353,#174,.T.);
#439=EDGE_CURVE('',#356,#355,#175,.T.);
#440=EDGE_CURVE('',#356,#354,#176,.T.);
#441=EDGE_CURVE('',#354,#357,#23,.T.);
#442=EDGE_CURVE('',#358,#356,#24,.T.);
#443=EDGE_CURVE('',#358,#357,#177,.T.);
#444=EDGE_CURVE('',#357,#359,#178,.T.);
#445=EDGE_CURVE('',#360,#358,#179,.T.);
#446=EDGE_CURVE('',#360,#359,#180,.T.);
#447=EDGE_CURVE('',#359,#361,#25,.T.);
#448=EDGE_CURVE('',#362,#360,#26,.T.);
#449=EDGE_CURVE('',#362,#361,#181,.T.);
#450=EDGE_CURVE('',#361,#363,#182,.T.);
#451=EDGE_CURVE('',#364,#362,#183,.T.);
#452=EDGE_CURVE('',#364,#363,#184,.T.);
#453=EDGE_CURVE('',#363,#365,#27,.T.);
#454=EDGE_CURVE('',#366,#364,#28,.T.);
#455=EDGE_CURVE('',#366,#365,#185,.T.);
#456=EDGE_CURVE('',#365,#367,#186,.T.);
#457=EDGE_CURVE('',#368,#366,#187,.T.);
#458=EDGE_CURVE('',#368,#367,#188,.T.);
#459=EDGE_CURVE('',#367,#353,#29,.T.);
#460=EDGE_CURVE('',#355,#368,#30,.T.);
#461=EDGE_CURVE('',#369,#370,#189,.T.);
#462=EDGE_CURVE('',#371,#369,#190,.T.);
#463=EDGE_CURVE('',#371,#372,#191,.T.);
#464=EDGE_CURVE('',#370,#372,#192,.T.);
#465=EDGE_CURVE('',#373,#371,#31,.T.);
#466=EDGE_CURVE('',#373,#374,#193,.T.);
#467=EDGE_CURVE('',#372,#374,#32,.T.);
#468=EDGE_CURVE('',#375,#373,#194,.T.);
#469=EDGE_CURVE('',#375,#376,#195,.T.);
#470=EDGE_CURVE('',#374,#376,#196,.T.);
#471=EDGE_CURVE('',#377,#375,#33,.T.);
#472=EDGE_CURVE('',#377,#378,#197,.T.);
#473=EDGE_CURVE('',#376,#378,#34,.T.);
#474=EDGE_CURVE('',#379,#380,#198,.T.);
#475=EDGE_CURVE('',#378,#379,#199,.T.);
#476=EDGE_CURVE('',#380,#377,#200,.T.);
#477=EDGE_CURVE('',#381,#369,#201,.T.);
#478=EDGE_CURVE('',#382,#381,#202,.T.);
#479=EDGE_CURVE('',#383,#382,#203,.T.);
#480=EDGE_CURVE('',#383,#384,#204,.T.);
#481=EDGE_CURVE('',#380,#384,#205,.T.);
#482=EDGE_CURVE('',#370,#385,#206,.T.);
#483=EDGE_CURVE('',#385,#386,#207,.T.);
#484=EDGE_CURVE('',#386,#387,#208,.T.);
#485=EDGE_CURVE('',#387,#388,#209,.T.);
#486=EDGE_CURVE('',#388,#389,#210,.T.);
#487=EDGE_CURVE('',#389,#390,#211,.T.);
#488=EDGE_CURVE('',#390,#391,#212,.T.);
#489=EDGE_CURVE('',#391,#381,#213,.T.);
#490=EDGE_CURVE('',#392,#392,#35,.T.);
#491=EDGE_CURVE('',#392,#393,#214,.T.);
#492=EDGE_CURVE('',#393,#393,#36,.T.);
#493=EDGE_CURVE('',#394,#394,#37,.T.);
#494=EDGE_CURVE('',#394,#395,#215,.T.);
#495=EDGE_CURVE('',#395,#395,#38,.T.);
#496=EDGE_CURVE('',#396,#397,#39,.T.);
#497=EDGE_CURVE('',#396,#398,#216,.T.);
#498=EDGE_CURVE('',#398,#399,#40,.T.);
#499=EDGE_CURVE('',#399,#397,#217,.T.);
#500=EDGE_CURVE('',#396,#387,#218,.T.);
#501=EDGE_CURVE('',#398,#386,#219,.T.);
#502=EDGE_CURVE('',#400,#401,#41,.T.);
#503=EDGE_CURVE('',#400,#402,#220,.T.);
#504=EDGE_CURVE('',#402,#403,#42,.T.);
#505=EDGE_CURVE('',#403,#401,#221,.T.);
#506=EDGE_CURVE('',#404,#401,#222,.T.);
#507=EDGE_CURVE('',#404,#405,#43,.T.);
#508=EDGE_CURVE('',#406,#405,#223,.T.);
#509=EDGE_CURVE('',#407,#406,#224,.T.);
#510=EDGE_CURVE('',#400,#407,#225,.T.);
#511=EDGE_CURVE('',#408,#403,#226,.T.);
#512=EDGE_CURVE('',#404,#408,#227,.T.);
#513=EDGE_CURVE('',#409,#410,#44,.T.);
#514=EDGE_CURVE('',#409,#411,#228,.T.);
#515=EDGE_CURVE('',#411,#412,#45,.T.);
#516=EDGE_CURVE('',#412,#410,#229,.T.);
#517=EDGE_CURVE('',#409,#397,#230,.T.);
#518=EDGE_CURVE('',#388,#410,#231,.T.);
#519=EDGE_CURVE('',#389,#412,#232,.T.);
#520=EDGE_CURVE('',#408,#413,#46,.T.);
#521=EDGE_CURVE('',#413,#405,#233,.T.);
#522=EDGE_CURVE('',#414,#413,#234,.T.);
#523=EDGE_CURVE('',#406,#414,#235,.T.);
#524=EDGE_CURVE('',#415,#407,#236,.T.);
#525=EDGE_CURVE('',#402,#415,#237,.T.);
#526=EDGE_CURVE('',#411,#399,#238,.T.);
#527=EDGE_CURVE('',#415,#416,#239,.T.);
#528=EDGE_CURVE('',#390,#416,#47,.T.);
#529=EDGE_CURVE('',#385,#417,#240,.T.);
#530=EDGE_CURVE('',#417,#418,#241,.T.);
#531=EDGE_CURVE('',#418,#419,#48,.T.);
#532=EDGE_CURVE('',#419,#414,#242,.T.);
#533=EDGE_CURVE('',#420,#419,#243,.T.);
#534=EDGE_CURVE('',#421,#420,#244,.T.);
#535=EDGE_CURVE('',#422,#421,#245,.T.);
#536=EDGE_CURVE('',#423,#422,#246,.T.);
#537=EDGE_CURVE('',#416,#423,#247,.T.);
#538=EDGE_CURVE('',#424,#425,#248,.T.);
#539=EDGE_CURVE('',#426,#424,#249,.T.);
#540=EDGE_CURVE('',#427,#426,#250,.T.);
#541=EDGE_CURVE('',#425,#427,#251,.T.);
#542=EDGE_CURVE('',#428,#418,#252,.T.);
#543=EDGE_CURVE('',#420,#428,#49,.T.);
#544=EDGE_CURVE('',#429,#428,#253,.T.);
#545=EDGE_CURVE('',#430,#429,#254,.T.);
#546=EDGE_CURVE('',#384,#430,#255,.T.);
#547=EDGE_CURVE('',#431,#383,#50,.T.);
#548=EDGE_CURVE('',#432,#431,#256,.T.);
#549=EDGE_CURVE('',#427,#432,#51,.T.);
#550=EDGE_CURVE('',#426,#421,#52,.T.);
#551=EDGE_CURVE('',#433,#433,#53,.T.);
#552=EDGE_CURVE('',#391,#423,#54,.T.);
#553=EDGE_CURVE('',#422,#424,#55,.T.);
#554=EDGE_CURVE('',#425,#434,#56,.T.);
#555=EDGE_CURVE('',#434,#435,#257,.T.);
#556=EDGE_CURVE('',#435,#382,#57,.T.);
#557=EDGE_CURVE('',#436,#436,#58,.T.);
#558=EDGE_CURVE('',#432,#434,#258,.T.);
#559=EDGE_CURVE('',#431,#435,#259,.T.);
#560=EDGE_CURVE('',#429,#417,#260,.T.);
#561=EDGE_CURVE('',#436,#433,#261,.T.);
#562=EDGE_CURVE('',#430,#379,#262,.T.);
#563=ORIENTED_EDGE('',*,*,#437,.F.);
#564=ORIENTED_EDGE('',*,*,#438,.F.);
#565=ORIENTED_EDGE('',*,*,#439,.F.);
#566=ORIENTED_EDGE('',*,*,#440,.T.);
#567=ORIENTED_EDGE('',*,*,#441,.F.);
#568=ORIENTED_EDGE('',*,*,#440,.F.);
#569=ORIENTED_EDGE('',*,*,#442,.F.);
#570=ORIENTED_EDGE('',*,*,#443,.T.);
#571=ORIENTED_EDGE('',*,*,#444,.F.);
#572=ORIENTED_EDGE('',*,*,#443,.F.);
#573=ORIENTED_EDGE('',*,*,#445,.F.);
#574=ORIENTED_EDGE('',*,*,#446,.T.);
#575=ORIENTED_EDGE('',*,*,#447,.F.);
#576=ORIENTED_EDGE('',*,*,#446,.F.);
#577=ORIENTED_EDGE('',*,*,#448,.F.);
#578=ORIENTED_EDGE('',*,*,#449,.T.);
#579=ORIENTED_EDGE('',*,*,#450,.F.);
#580=ORIENTED_EDGE('',*,*,#449,.F.);
#581=ORIENTED_EDGE('',*,*,#451,.F.);
#582=ORIENTED_EDGE('',*,*,#452,.T.);
#583=ORIENTED_EDGE('',*,*,#453,.F.);
#584=ORIENTED_EDGE('',*,*,#452,.F.);
#585=ORIENTED_EDGE('',*,*,#454,.F.);
#586=ORIENTED_EDGE('',*,*,#455,.T.);
#587=ORIENTED_EDGE('',*,*,#456,.F.);
#588=ORIENTED_EDGE('',*,*,#455,.F.);
#589=ORIENTED_EDGE('',*,*,#457,.F.);
#590=ORIENTED_EDGE('',*,*,#458,.T.);
#591=ORIENTED_EDGE('',*,*,#459,.F.);
#592=ORIENTED_EDGE('',*,*,#458,.F.);
#593=ORIENTED_EDGE('',*,*,#460,.F.);
#594=ORIENTED_EDGE('',*,*,#438,.T.);
#595=ORIENTED_EDGE('',*,*,#461,.F.);
#596=ORIENTED_EDGE('',*,*,#462,.F.);
#597=ORIENTED_EDGE('',*,*,#463,.T.);
#598=ORIENTED_EDGE('',*,*,#464,.F.);
#599=ORIENTED_EDGE('',*,*,#465,.F.);
#600=ORIENTED_EDGE('',*,*,#466,.T.);
#601=ORIENTED_EDGE('',*,*,#467,.F.);
#602=ORIENTED_EDGE('',*,*,#463,.F.);
#603=ORIENTED_EDGE('',*,*,#468,.F.);
#604=ORIENTED_EDGE('',*,*,#469,.T.);
#605=ORIENTED_EDGE('',*,*,#470,.F.);
#606=ORIENTED_EDGE('',*,*,#466,.F.);
#607=ORIENTED_EDGE('',*,*,#471,.F.);
#608=ORIENTED_EDGE('',*,*,#472,.T.);
#609=ORIENTED_EDGE('',*,*,#473,.F.);
#610=ORIENTED_EDGE('',*,*,#469,.F.);
#611=ORIENTED_EDGE('',*,*,#474,.F.);
#612=ORIENTED_EDGE('',*,*,#475,.F.);
#613=ORIENTED_EDGE('',*,*,#472,.F.);
#614=ORIENTED_EDGE('',*,*,#476,.F.);
#615=ORIENTED_EDGE('',*,*,#476,.T.);
#616=ORIENTED_EDGE('',*,*,#471,.T.);
#617=ORIENTED_EDGE('',*,*,#468,.T.);
#618=ORIENTED_EDGE('',*,*,#465,.T.);
#619=ORIENTED_EDGE('',*,*,#462,.T.);
#620=ORIENTED_EDGE('',*,*,#477,.F.);
#621=ORIENTED_EDGE('',*,*,#478,.F.);
#622=ORIENTED_EDGE('',*,*,#479,.F.);
#623=ORIENTED_EDGE('',*,*,#480,.T.);
#624=ORIENTED_EDGE('',*,*,#481,.F.);
#625=ORIENTED_EDGE('',*,*,#461,.T.);
#626=ORIENTED_EDGE('',*,*,#482,.T.);
#627=ORIENTED_EDGE('',*,*,#483,.T.);
#628=ORIENTED_EDGE('',*,*,#484,.T.);
#629=ORIENTED_EDGE('',*,*,#485,.T.);
#630=ORIENTED_EDGE('',*,*,#486,.T.);
#631=ORIENTED_EDGE('',*,*,#487,.T.);
#632=ORIENTED_EDGE('',*,*,#488,.T.);
#633=ORIENTED_EDGE('',*,*,#489,.T.);
#634=ORIENTED_EDGE('',*,*,#477,.T.);
#635=ORIENTED_EDGE('',*,*,#490,.F.);
#636=ORIENTED_EDGE('',*,*,#491,.T.);
#637=ORIENTED_EDGE('',*,*,#492,.F.);
#638=ORIENTED_EDGE('',*,*,#491,.F.);
#639=ORIENTED_EDGE('',*,*,#493,.F.);
#640=ORIENTED_EDGE('',*,*,#494,.T.);
#641=ORIENTED_EDGE('',*,*,#495,.F.);
#642=ORIENTED_EDGE('',*,*,#494,.F.);
#643=ORIENTED_EDGE('',*,*,#496,.F.);
#644=ORIENTED_EDGE('',*,*,#497,.T.);
#645=ORIENTED_EDGE('',*,*,#498,.T.);
#646=ORIENTED_EDGE('',*,*,#499,.T.);
#647=ORIENTED_EDGE('',*,*,#497,.F.);
#648=ORIENTED_EDGE('',*,*,#500,.T.);
#649=ORIENTED_EDGE('',*,*,#484,.F.);
#650=ORIENTED_EDGE('',*,*,#501,.F.);
#651=ORIENTED_EDGE('',*,*,#502,.F.);
#652=ORIENTED_EDGE('',*,*,#503,.T.);
#653=ORIENTED_EDGE('',*,*,#504,.T.);
#654=ORIENTED_EDGE('',*,*,#505,.T.);
#655=ORIENTED_EDGE('',*,*,#502,.T.);
#656=ORIENTED_EDGE('',*,*,#506,.F.);
#657=ORIENTED_EDGE('',*,*,#507,.T.);
#658=ORIENTED_EDGE('',*,*,#508,.F.);
#659=ORIENTED_EDGE('',*,*,#509,.F.);
#660=ORIENTED_EDGE('',*,*,#510,.F.);
#661=ORIENTED_EDGE('',*,*,#505,.F.);
#662=ORIENTED_EDGE('',*,*,#511,.F.);
#663=ORIENTED_EDGE('',*,*,#512,.F.);
#664=ORIENTED_EDGE('',*,*,#506,.T.);
#665=ORIENTED_EDGE('',*,*,#513,.F.);
#666=ORIENTED_EDGE('',*,*,#514,.T.);
#667=ORIENTED_EDGE('',*,*,#515,.T.);
#668=ORIENTED_EDGE('',*,*,#516,.T.);
#669=ORIENTED_EDGE('',*,*,#496,.T.);
#670=ORIENTED_EDGE('',*,*,#517,.F.);
#671=ORIENTED_EDGE('',*,*,#513,.T.);
#672=ORIENTED_EDGE('',*,*,#518,.F.);
#673=ORIENTED_EDGE('',*,*,#485,.F.);
#674=ORIENTED_EDGE('',*,*,#500,.F.);
#675=ORIENTED_EDGE('',*,*,#516,.F.);
#676=ORIENTED_EDGE('',*,*,#519,.F.);
#677=ORIENTED_EDGE('',*,*,#486,.F.);
#678=ORIENTED_EDGE('',*,*,#518,.T.);
#679=ORIENTED_EDGE('',*,*,#507,.F.);
#680=ORIENTED_EDGE('',*,*,#512,.T.);
#681=ORIENTED_EDGE('',*,*,#520,.T.);
#682=ORIENTED_EDGE('',*,*,#521,.T.);
#683=ORIENTED_EDGE('',*,*,#521,.F.);
#684=ORIENTED_EDGE('',*,*,#522,.F.);
#685=ORIENTED_EDGE('',*,*,#523,.F.);
#686=ORIENTED_EDGE('',*,*,#508,.T.);
#687=ORIENTED_EDGE('',*,*,#503,.F.);
#688=ORIENTED_EDGE('',*,*,#510,.T.);
#689=ORIENTED_EDGE('',*,*,#524,.F.);
#690=ORIENTED_EDGE('',*,*,#525,.F.);
#691=ORIENTED_EDGE('',*,*,#499,.F.);
#692=ORIENTED_EDGE('',*,*,#526,.F.);
#693=ORIENTED_EDGE('',*,*,#514,.F.);
#694=ORIENTED_EDGE('',*,*,#517,.T.);
#695=ORIENTED_EDGE('',*,*,#522,.T.);
#696=ORIENTED_EDGE('',*,*,#520,.F.);
#697=ORIENTED_EDGE('',*,*,#511,.T.);
#698=ORIENTED_EDGE('',*,*,#504,.F.);
#699=ORIENTED_EDGE('',*,*,#525,.T.);
#700=ORIENTED_EDGE('',*,*,#527,.T.);
#701=ORIENTED_EDGE('',*,*,#528,.F.);
#702=ORIENTED_EDGE('',*,*,#487,.F.);
#703=ORIENTED_EDGE('',*,*,#519,.T.);
#704=ORIENTED_EDGE('',*,*,#515,.F.);
#705=ORIENTED_EDGE('',*,*,#526,.T.);
#706=ORIENTED_EDGE('',*,*,#498,.F.);
#707=ORIENTED_EDGE('',*,*,#501,.T.);
#708=ORIENTED_EDGE('',*,*,#483,.F.);
#709=ORIENTED_EDGE('',*,*,#529,.T.);
#710=ORIENTED_EDGE('',*,*,#530,.T.);
#711=ORIENTED_EDGE('',*,*,#531,.T.);
#712=ORIENTED_EDGE('',*,*,#532,.T.);
#713=ORIENTED_EDGE('',*,*,#450,.T.);
#714=ORIENTED_EDGE('',*,*,#453,.T.);
#715=ORIENTED_EDGE('',*,*,#456,.T.);
#716=ORIENTED_EDGE('',*,*,#459,.T.);
#717=ORIENTED_EDGE('',*,*,#437,.T.);
#718=ORIENTED_EDGE('',*,*,#441,.T.);
#719=ORIENTED_EDGE('',*,*,#444,.T.);
#720=ORIENTED_EDGE('',*,*,#447,.T.);
#721=ORIENTED_EDGE('',*,*,#492,.T.);
#722=ORIENTED_EDGE('',*,*,#495,.T.);
#723=ORIENTED_EDGE('',*,*,#523,.T.);
#724=ORIENTED_EDGE('',*,*,#532,.F.);
#725=ORIENTED_EDGE('',*,*,#533,.F.);
#726=ORIENTED_EDGE('',*,*,#534,.F.);
#727=ORIENTED_EDGE('',*,*,#535,.F.);
#728=ORIENTED_EDGE('',*,*,#536,.F.);
#729=ORIENTED_EDGE('',*,*,#537,.F.);
#730=ORIENTED_EDGE('',*,*,#527,.F.);
#731=ORIENTED_EDGE('',*,*,#524,.T.);
#732=ORIENTED_EDGE('',*,*,#509,.T.);
#733=ORIENTED_EDGE('',*,*,#538,.F.);
#734=ORIENTED_EDGE('',*,*,#539,.F.);
#735=ORIENTED_EDGE('',*,*,#540,.F.);
#736=ORIENTED_EDGE('',*,*,#541,.F.);
#737=ORIENTED_EDGE('',*,*,#533,.T.);
#738=ORIENTED_EDGE('',*,*,#531,.F.);
#739=ORIENTED_EDGE('',*,*,#542,.F.);
#740=ORIENTED_EDGE('',*,*,#543,.F.);
#741=ORIENTED_EDGE('',*,*,#534,.T.);
#742=ORIENTED_EDGE('',*,*,#543,.T.);
#743=ORIENTED_EDGE('',*,*,#544,.F.);
#744=ORIENTED_EDGE('',*,*,#545,.F.);
#745=ORIENTED_EDGE('',*,*,#546,.F.);
#746=ORIENTED_EDGE('',*,*,#480,.F.);
#747=ORIENTED_EDGE('',*,*,#547,.F.);
#748=ORIENTED_EDGE('',*,*,#548,.F.);
#749=ORIENTED_EDGE('',*,*,#549,.F.);
#750=ORIENTED_EDGE('',*,*,#540,.T.);
#751=ORIENTED_EDGE('',*,*,#550,.T.);
#752=ORIENTED_EDGE('',*,*,#551,.T.);
#753=ORIENTED_EDGE('',*,*,#537,.T.);
#754=ORIENTED_EDGE('',*,*,#552,.F.);
#755=ORIENTED_EDGE('',*,*,#488,.F.);
#756=ORIENTED_EDGE('',*,*,#528,.T.);
#757=ORIENTED_EDGE('',*,*,#536,.T.);
#758=ORIENTED_EDGE('',*,*,#553,.T.);
#759=ORIENTED_EDGE('',*,*,#538,.T.);
#760=ORIENTED_EDGE('',*,*,#554,.T.);
#761=ORIENTED_EDGE('',*,*,#555,.T.);
#762=ORIENTED_EDGE('',*,*,#556,.T.);
#763=ORIENTED_EDGE('',*,*,#478,.T.);
#764=ORIENTED_EDGE('',*,*,#489,.F.);
#765=ORIENTED_EDGE('',*,*,#552,.T.);
#766=ORIENTED_EDGE('',*,*,#451,.T.);
#767=ORIENTED_EDGE('',*,*,#448,.T.);
#768=ORIENTED_EDGE('',*,*,#445,.T.);
#769=ORIENTED_EDGE('',*,*,#442,.T.);
#770=ORIENTED_EDGE('',*,*,#439,.T.);
#771=ORIENTED_EDGE('',*,*,#460,.T.);
#772=ORIENTED_EDGE('',*,*,#457,.T.);
#773=ORIENTED_EDGE('',*,*,#454,.T.);
#774=ORIENTED_EDGE('',*,*,#490,.T.);
#775=ORIENTED_EDGE('',*,*,#493,.T.);
#776=ORIENTED_EDGE('',*,*,#557,.T.);
#777=ORIENTED_EDGE('',*,*,#541,.T.);
#778=ORIENTED_EDGE('',*,*,#549,.T.);
#779=ORIENTED_EDGE('',*,*,#558,.T.);
#780=ORIENTED_EDGE('',*,*,#554,.F.);
#781=ORIENTED_EDGE('',*,*,#548,.T.);
#782=ORIENTED_EDGE('',*,*,#559,.T.);
#783=ORIENTED_EDGE('',*,*,#555,.F.);
#784=ORIENTED_EDGE('',*,*,#558,.F.);
#785=ORIENTED_EDGE('',*,*,#547,.T.);
#786=ORIENTED_EDGE('',*,*,#479,.T.);
#787=ORIENTED_EDGE('',*,*,#556,.F.);
#788=ORIENTED_EDGE('',*,*,#559,.F.);
#789=ORIENTED_EDGE('',*,*,#544,.T.);
#790=ORIENTED_EDGE('',*,*,#542,.T.);
#791=ORIENTED_EDGE('',*,*,#530,.F.);
#792=ORIENTED_EDGE('',*,*,#560,.F.);
#793=ORIENTED_EDGE('',*,*,#535,.T.);
#794=ORIENTED_EDGE('',*,*,#550,.F.);
#795=ORIENTED_EDGE('',*,*,#539,.T.);
#796=ORIENTED_EDGE('',*,*,#553,.F.);
#797=ORIENTED_EDGE('',*,*,#557,.F.);
#798=ORIENTED_EDGE('',*,*,#561,.T.);
#799=ORIENTED_EDGE('',*,*,#551,.F.);
#800=ORIENTED_EDGE('',*,*,#561,.F.);
#801=ORIENTED_EDGE('',*,*,#475,.T.);
#802=ORIENTED_EDGE('',*,*,#562,.F.);
#803=ORIENTED_EDGE('',*,*,#545,.T.);
#804=ORIENTED_EDGE('',*,*,#560,.T.);
#805=ORIENTED_EDGE('',*,*,#529,.F.);
#806=ORIENTED_EDGE('',*,*,#482,.F.);
#807=ORIENTED_EDGE('',*,*,#464,.T.);
#808=ORIENTED_EDGE('',*,*,#467,.T.);
#809=ORIENTED_EDGE('',*,*,#470,.T.);
#810=ORIENTED_EDGE('',*,*,#473,.T.);
#811=ORIENTED_EDGE('',*,*,#474,.T.);
#812=ORIENTED_EDGE('',*,*,#481,.T.);
#813=ORIENTED_EDGE('',*,*,#546,.T.);
#814=ORIENTED_EDGE('',*,*,#562,.T.);
#815=PLANE('',#899);
#816=PLANE('',#903);
#817=PLANE('',#907);
#818=PLANE('',#911);
#819=PLANE('',#915);
#820=PLANE('',#919);
#821=PLANE('',#923);
#822=PLANE('',#924);
#823=PLANE('',#925);
#824=PLANE('',#935);
#825=PLANE('',#939);
#826=PLANE('',#941);
#827=PLANE('',#945);
#828=PLANE('',#946);
#829=PLANE('',#949);
#830=PLANE('',#950);
#831=PLANE('',#951);
#832=PLANE('',#952);
#833=PLANE('',#955);
#834=PLANE('',#956);
#835=PLANE('',#959);
#836=PLANE('',#966);
#837=PLANE('',#972);
#838=PLANE('',#974);
#839=PLANE('',#977);
#840=PLANE('',#978);
#841=ADVANCED_FACE('',(#77),#815,.F.);
#842=ADVANCED_FACE('',(#78),#59,.F.);
#843=ADVANCED_FACE('',(#79),#816,.F.);
#844=ADVANCED_FACE('',(#80),#60,.F.);
#845=ADVANCED_FACE('',(#81),#817,.F.);
#846=ADVANCED_FACE('',(#82),#61,.F.);
#847=ADVANCED_FACE('',(#83),#818,.F.);
#848=ADVANCED_FACE('',(#84),#62,.F.);
#849=ADVANCED_FACE('',(#85),#819,.F.);
#850=ADVANCED_FACE('',(#86),#63,.F.);
#851=ADVANCED_FACE('',(#87),#820,.F.);
#852=ADVANCED_FACE('',(#88),#64,.F.);
#853=ADVANCED_FACE('',(#89),#821,.F.);
#854=ADVANCED_FACE('',(#90),#822,.T.);
#855=ADVANCED_FACE('',(#91),#823,.T.);
#856=ADVANCED_FACE('',(#92),#65,.F.);
#857=ADVANCED_FACE('',(#93),#66,.F.);
#858=ADVANCED_FACE('',(#94),#67,.F.);
#859=ADVANCED_FACE('',(#95),#824,.F.);
#860=ADVANCED_FACE('',(#96),#68,.F.);
#861=ADVANCED_FACE('',(#97),#825,.F.);
#862=ADVANCED_FACE('',(#98),#826,.F.);
#863=ADVANCED_FACE('',(#99),#69,.F.);
#864=ADVANCED_FACE('',(#100),#827,.F.);
#865=ADVANCED_FACE('',(#101),#828,.F.);
#866=ADVANCED_FACE('',(#102),#70,.F.);
#867=ADVANCED_FACE('',(#103),#829,.F.);
#868=ADVANCED_FACE('',(#104),#830,.F.);
#869=ADVANCED_FACE('',(#105),#831,.F.);
#870=ADVANCED_FACE('',(#106,#15,#16,#17),#832,.T.);
#871=ADVANCED_FACE('',(#107),#833,.F.);
#872=ADVANCED_FACE('',(#108),#834,.F.);
#873=ADVANCED_FACE('',(#109),#71,.F.);
#874=ADVANCED_FACE('',(#110,#18),#835,.T.);
#875=ADVANCED_FACE('',(#111),#72,.F.);
#876=ADVANCED_FACE('',(#112,#19,#20,#21,#22),#836,.T.);
#877=ADVANCED_FACE('',(#113),#73,.T.);
#878=ADVANCED_FACE('',(#114),#837,.T.);
#879=ADVANCED_FACE('',(#115),#74,.T.);
#880=ADVANCED_FACE('',(#116),#838,.T.);
#881=ADVANCED_FACE('',(#117),#75,.F.);
#882=ADVANCED_FACE('',(#118),#76,.F.);
#883=ADVANCED_FACE('',(#119),#839,.T.);
#884=ADVANCED_FACE('',(#120),#840,.T.);
#885=CLOSED_SHELL('',(#841,#842,#843,#844,#845,#846,#847,#848,#849,#850,
#851,#852,#853,#854,#855,#856,#857,#858,#859,#860,#861,#862,#863,#864,#865,
#866,#867,#868,#869,#870,#871,#872,#873,#874,#875,#876,#877,#878,#879,#880,
#881,#882,#883,#884));
#886=DERIVED_UNIT_ELEMENT(#888,1.);
#887=DERIVED_UNIT_ELEMENT(#1491,-3.);
#888=(
MASS_UNIT()
NAMED_UNIT(*)
SI_UNIT(.KILO.,.GRAM.)
);
#889=DERIVED_UNIT((#886,#887));
#890=MEASURE_REPRESENTATION_ITEM('density measure',
POSITIVE_RATIO_MEASURE(7850.),#889);
#891=PROPERTY_DEFINITION_REPRESENTATION(#896,#893);
#892=PROPERTY_DEFINITION_REPRESENTATION(#897,#894);
#893=REPRESENTATION('material name',(#895),#1488);
#894=REPRESENTATION('density',(#890),#1488);
#895=DESCRIPTIVE_REPRESENTATION_ITEM('Steel','Steel');
#896=PROPERTY_DEFINITION('material property','material name',#1498);
#897=PROPERTY_DEFINITION('material property','density of part',#1498);
#898=AXIS2_PLACEMENT_3D('',#1231,#979,#980);
#899=AXIS2_PLACEMENT_3D('',#1232,#981,#982);
#900=AXIS2_PLACEMENT_3D('',#1241,#987,#988);
#901=AXIS2_PLACEMENT_3D('',#1243,#989,#990);
#902=AXIS2_PLACEMENT_3D('',#1245,#991,#992);
#903=AXIS2_PLACEMENT_3D('',#1247,#994,#995);
#904=AXIS2_PLACEMENT_3D('',#1253,#999,#1000);
#905=AXIS2_PLACEMENT_3D('',#1255,#1001,#1002);
#906=AXIS2_PLACEMENT_3D('',#1257,#1003,#1004);
#907=AXIS2_PLACEMENT_3D('',#1259,#1006,#1007);
#908=AXIS2_PLACEMENT_3D('',#1265,#1011,#1012);
#909=AXIS2_PLACEMENT_3D('',#1267,#1013,#1014);
#910=AXIS2_PLACEMENT_3D('',#1269,#1015,#1016);
#911=AXIS2_PLACEMENT_3D('',#1271,#1018,#1019);
#912=AXIS2_PLACEMENT_3D('',#1277,#1023,#1024);
#913=AXIS2_PLACEMENT_3D('',#1278,#1025,#1026);
#914=AXIS2_PLACEMENT_3D('',#1279,#1027,#1028);
#915=AXIS2_PLACEMENT_3D('',#1280,#1029,#1030);
#916=AXIS2_PLACEMENT_3D('',#1289,#1035,#1036);
#917=AXIS2_PLACEMENT_3D('',#1291,#1037,#1038);
#918=AXIS2_PLACEMENT_3D('',#1294,#1040,#1041);
#919=AXIS2_PLACEMENT_3D('',#1295,#1042,#1043);
#920=AXIS2_PLACEMENT_3D('',#1301,#1047,#1048);
#921=AXIS2_PLACEMENT_3D('',#1303,#1049,#1050);
#922=AXIS2_PLACEMENT_3D('',#1306,#1052,#1053);
#923=AXIS2_PLACEMENT_3D('',#1307,#1054,#1055);
#924=AXIS2_PLACEMENT_3D('',#1313,#1059,#1060);
#925=AXIS2_PLACEMENT_3D('',#1323,#1066,#1067);
#926=AXIS2_PLACEMENT_3D('',#1339,#1076,#1077);
#927=AXIS2_PLACEMENT_3D('',#1341,#1078,#1079);
#928=AXIS2_PLACEMENT_3D('',#1344,#1081,#1082);
#929=AXIS2_PLACEMENT_3D('',#1345,#1083,#1084);
#930=AXIS2_PLACEMENT_3D('',#1347,#1085,#1086);
#931=AXIS2_PLACEMENT_3D('',#1350,#1088,#1089);
#932=AXIS2_PLACEMENT_3D('',#1351,#1090,#1091);
#933=AXIS2_PLACEMENT_3D('',#1354,#1092,#1093);
#934=AXIS2_PLACEMENT_3D('',#1358,#1095,#1096);
#935=AXIS2_PLACEMENT_3D('',#1360,#1098,#1099);
#936=AXIS2_PLACEMENT_3D('',#1363,#1102,#1103);
#937=AXIS2_PLACEMENT_3D('',#1366,#1104,#1105);
#938=AXIS2_PLACEMENT_3D('',#1370,#1107,#1108);
#939=AXIS2_PLACEMENT_3D('',#1372,#1110,#1111);
#940=AXIS2_PLACEMENT_3D('',#1376,#1113,#1114);
#941=AXIS2_PLACEMENT_3D('',#1382,#1118,#1119);
#942=AXIS2_PLACEMENT_3D('',#1386,#1122,#1123);
#943=AXIS2_PLACEMENT_3D('',#1389,#1124,#1125);
#944=AXIS2_PLACEMENT_3D('',#1393,#1127,#1128);
#945=AXIS2_PLACEMENT_3D('',#1395,#1130,#1131);
#946=AXIS2_PLACEMENT_3D('',#1398,#1134,#1135);
#947=AXIS2_PLACEMENT_3D('',#1400,#1137,#1138);
#948=AXIS2_PLACEMENT_3D('',#1402,#1139,#1140);
#949=AXIS2_PLACEMENT_3D('',#1404,#1142,#1143);
#950=AXIS2_PLACEMENT_3D('',#1408,#1146,#1147);
#951=AXIS2_PLACEMENT_3D('',#1412,#1150,#1151);
#952=AXIS2_PLACEMENT_3D('',#1414,#1153,#1154);
#953=AXIS2_PLACEMENT_3D('',#1417,#1156,#1157);
#954=AXIS2_PLACEMENT_3D('',#1423,#1160,#1161);
#955=AXIS2_PLACEMENT_3D('',#1425,#1163,#1164);
#956=AXIS2_PLACEMENT_3D('',#1435,#1170,#1171);
#957=AXIS2_PLACEMENT_3D('',#1444,#1176,#1177);
#958=AXIS2_PLACEMENT_3D('',#1447,#1179,#1180);
#959=AXIS2_PLACEMENT_3D('',#1448,#1181,#1182);
#960=AXIS2_PLACEMENT_3D('',#1455,#1186,#1187);
#961=AXIS2_PLACEMENT_3D('',#1458,#1189,#1190);
#962=AXIS2_PLACEMENT_3D('',#1459,#1191,#1192);
#963=AXIS2_PLACEMENT_3D('',#1461,#1193,#1194);
#964=AXIS2_PLACEMENT_3D('',#1462,#1195,#1196);
#965=AXIS2_PLACEMENT_3D('',#1463,#1197,#1198);
#966=AXIS2_PLACEMENT_3D('',#1464,#1199,#1200);
#967=AXIS2_PLACEMENT_3D('',#1465,#1201,#1202);
#968=AXIS2_PLACEMENT_3D('',#1467,#1203,#1204);
#969=AXIS2_PLACEMENT_3D('',#1470,#1206,#1207);
#970=AXIS2_PLACEMENT_3D('',#1472,#1208,#1209);
#971=AXIS2_PLACEMENT_3D('',#1473,#1210,#1211);
#972=AXIS2_PLACEMENT_3D('',#1475,#1213,#1214);
#973=AXIS2_PLACEMENT_3D('',#1477,#1216,#1217);
#974=AXIS2_PLACEMENT_3D('',#1478,#1218,#1219);
#975=AXIS2_PLACEMENT_3D('',#1480,#1221,#1222);
#976=AXIS2_PLACEMENT_3D('',#1481,#1223,#1224);
#977=AXIS2_PLACEMENT_3D('',#1483,#1226,#1227);
#978=AXIS2_PLACEMENT_3D('',#1485,#1229,#1230);
#979=DIRECTION('axis',(0.,0.,1.));
#980=DIRECTION('refdir',(1.,0.,0.));
#981=DIRECTION('center_axis',(-1.,0.,0.));
#982=DIRECTION('ref_axis',(0.,1.,0.));
#983=DIRECTION('',(0.,-1.,0.));
#984=DIRECTION('',(0.,0.,-1.));
#985=DIRECTION('',(0.,1.,0.));
#986=DIRECTION('',(0.,0.,-1.));
#987=DIRECTION('center_axis',(0.,0.,-1.));
#988=DIRECTION('ref_axis',(-1.,-2.96059473233374E-15,0.));
#989=DIRECTION('center_axis',(0.,0.,1.));
#990=DIRECTION('ref_axis',(-1.,-2.96059473233374E-15,0.));
#991=DIRECTION('center_axis',(0.,0.,-1.));
#992=DIRECTION('ref_axis',(-1.,-2.96059473233374E-15,0.));
#993=DIRECTION('',(0.,0.,-1.));
#994=DIRECTION('center_axis',(0.,-1.,0.));
#995=DIRECTION('ref_axis',(-1.,0.,0.));
#996=DIRECTION('',(1.,0.,0.));
#997=DIRECTION('',(-1.,0.,0.));
#998=DIRECTION('',(0.,0.,-1.));
#999=DIRECTION('center_axis',(0.,0.,-1.));
#1000=DIRECTION('ref_axis',(-4.44089209850066E-15,-1.,0.));
#1001=DIRECTION('center_axis',(0.,0.,1.));
#1002=DIRECTION('ref_axis',(-4.44089209850066E-15,-1.,0.));
#1003=DIRECTION('center_axis',(0.,0.,-1.));
#1004=DIRECTION('ref_axis',(-4.44089209850066E-15,-1.,0.));
#1005=DIRECTION('',(0.,0.,-1.));
#1006=DIRECTION('center_axis',(1.,-1.85110294326988E-16,0.));
#1007=DIRECTION('ref_axis',(-1.85110294326988E-16,-1.,0.));
#1008=DIRECTION('',(1.85110294326988E-16,1.,0.));
#1009=DIRECTION('',(-1.85110294326988E-16,-1.,0.));
#1010=DIRECTION('',(0.,0.,-1.));
#1011=DIRECTION('center_axis',(0.,0.,-1.));
#1012=DIRECTION('ref_axis',(1.,5.92118946466749E-15,0.));
#1013=DIRECTION('center_axis',(0.,0.,1.));
#1014=DIRECTION('ref_axis',(1.,5.92118946466749E-15,0.));
#1015=DIRECTION('center_axis',(0.,0.,-1.));
#1016=DIRECTION('ref_axis',(1.,5.92118946466749E-15,0.));
#1017=DIRECTION('',(0.,0.,-1.));
#1018=DIRECTION('center_axis',(0.,1.,0.));
#1019=DIRECTION('ref_axis',(1.,0.,0.));
#1020=DIRECTION('',(-1.,0.,0.));
#1021=DIRECTION('',(1.,0.,0.));
#1022=DIRECTION('',(0.,0.,-1.));
#1023=DIRECTION('center_axis',(0.,0.,-1.));
#1024=DIRECTION('ref_axis',(-5.92118946466745E-15,1.,0.));
#1025=DIRECTION('center_axis',(0.,0.,1.));
#1026=DIRECTION('ref_axis',(-5.92118946466745E-15,1.,0.));
#1027=DIRECTION('center_axis',(0.,0.,-1.));
#1028=DIRECTION('ref_axis',(-5.92118946466745E-15,1.,0.));
#1029=DIRECTION('center_axis',(0.,0.,1.));
#1030=DIRECTION('ref_axis',(1.,0.,0.));
#1031=DIRECTION('',(0.,1.,0.));
#1032=DIRECTION('',(1.,5.30472465209259E-16,0.));
#1033=DIRECTION('',(0.,1.,0.));
#1034=DIRECTION('',(-1.,-4.47525861558356E-16,0.));
#1035=DIRECTION('center_axis',(0.,1.,0.));
#1036=DIRECTION('ref_axis',(-2.22044604925031E-15,0.,1.));
#1037=DIRECTION('center_axis',(-5.30472465209259E-16,1.,-2.90835923360487E-30));
#1038=DIRECTION('ref_axis',(-2.22044604925031E-15,0.,1.));
#1039=DIRECTION('',(0.,1.,0.));
#1040=DIRECTION('center_axis',(4.47525861558356E-16,-1.,2.45359760798665E-30));
#1041=DIRECTION('ref_axis',(-2.22044604925031E-15,0.,1.));
#1042=DIRECTION('center_axis',(-1.,0.,0.));
#1043=DIRECTION('ref_axis',(0.,2.72700755976562E-29,1.));
#1044=DIRECTION('',(0.,2.90835923360487E-30,1.));
#1045=DIRECTION('',(0.,1.,0.));
#1046=DIRECTION('',(0.,-2.45359760798665E-30,-1.));
#1047=DIRECTION('center_axis',(0.,1.,0.));
#1048=DIRECTION('ref_axis',(-1.,0.,0.));
#1049=DIRECTION('center_axis',(-5.30472465209259E-16,1.,-2.90835923360487E-30));
#1050=DIRECTION('ref_axis',(-1.,0.,0.));
#1051=DIRECTION('',(0.,1.,0.));
#1052=DIRECTION('center_axis',(4.47525861558356E-16,-1.,2.45359760798665E-30));
#1053=DIRECTION('ref_axis',(-1.,0.,0.));
#1054=DIRECTION('center_axis',(0.,0.,-1.));
#1055=DIRECTION('ref_axis',(-1.,-1.09080302390625E-29,0.));
#1056=DIRECTION('',(0.,-1.,0.));
#1057=DIRECTION('',(1.,4.47525861558356E-16,0.));
#1058=DIRECTION('',(-1.,-5.30472465209259E-16,0.));
#1059=DIRECTION('center_axis',(5.30472465209259E-16,-1.,2.90835923360487E-30));
#1060=DIRECTION('ref_axis',(1.,5.30472465209259E-16,5.62787313698787E-15));
#1061=DIRECTION('',(6.12323399573677E-17,-2.87587716327715E-30,-1.));
#1062=DIRECTION('',(1.,5.30472465209259E-16,0.));
#1063=DIRECTION('',(-5.48258283765509E-15,0.,1.));
#1064=DIRECTION('',(1.,5.30472465209259E-16,5.62787313698787E-15));
#1065=DIRECTION('',(6.12323399573677E-17,-2.87587716327715E-30,-1.));
#1066=DIRECTION('center_axis',(1.,0.,6.12323399573677E-17));
#1067=DIRECTION('ref_axis',(6.12323399573677E-17,0.,-1.));
#1068=DIRECTION('',(-6.12323399573677E-17,2.426194552292E-30,1.));
#1069=DIRECTION('',(0.,1.,0.));
#1070=DIRECTION('',(-6.12323399573677E-17,0.,1.));
#1071=DIRECTION('',(0.,1.,0.));
#1072=DIRECTION('',(6.12323399573677E-17,0.,-1.));
#1073=DIRECTION('',(0.,1.,0.));
#1074=DIRECTION('',(0.,0.,1.));
#1075=DIRECTION('',(0.,-1.,0.));
#1076=DIRECTION('center_axis',(0.,0.,-1.));
#1077=DIRECTION('ref_axis',(-1.,0.,0.));
#1078=DIRECTION('center_axis',(0.,0.,-1.));
#1079=DIRECTION('ref_axis',(-1.,0.,0.));
#1080=DIRECTION('',(0.,0.,-1.));
#1081=DIRECTION('center_axis',(0.,0.,1.));
#1082=DIRECTION('ref_axis',(-1.,0.,0.));
#1083=DIRECTION('center_axis',(0.,0.,-1.));
#1084=DIRECTION('ref_axis',(-1.,0.,0.));
#1085=DIRECTION('center_axis',(0.,0.,-1.));
#1086=DIRECTION('ref_axis',(-1.,0.,0.));
#1087=DIRECTION('',(0.,0.,-1.));
#1088=DIRECTION('center_axis',(0.,0.,1.));
#1089=DIRECTION('ref_axis',(-1.,0.,0.));
#1090=DIRECTION('center_axis',(0.,0.,1.));
#1091=DIRECTION('ref_axis',(-0.707106781186542,-0.707106781186553,0.));
#1092=DIRECTION('center_axis',(0.,0.,-1.));
#1093=DIRECTION('ref_axis',(-0.707106781186542,-0.707106781186553,0.));
#1094=DIRECTION('',(0.,0.,-1.));
#1095=DIRECTION('center_axis',(0.,0.,-1.));
#1096=DIRECTION('ref_axis',(-0.707106781186542,-0.707106781186553,0.));
#1097=DIRECTION('',(0.,0.,1.));
#1098=DIRECTION('center_axis',(0.,-1.,0.));
#1099=DIRECTION('ref_axis',(1.,0.,0.));
#1100=DIRECTION('',(1.,0.,0.));
#1101=DIRECTION('',(1.,0.,0.));
#1102=DIRECTION('center_axis',(0.,0.,1.));
#1103=DIRECTION('ref_axis',(0.707106781186546,-0.707106781186549,0.));
#1104=DIRECTION('center_axis',(0.,0.,-1.));
#1105=DIRECTION('ref_axis',(0.707106781186546,-0.707106781186549,0.));
#1106=DIRECTION('',(0.,0.,-1.));
#1107=DIRECTION('center_axis',(0.,0.,-1.));
#1108=DIRECTION('ref_axis',(0.707106781186546,-0.707106781186549,0.));
#1109=DIRECTION('',(0.,0.,1.));
#1110=DIRECTION('center_axis',(0.,0.,1.));
#1111=DIRECTION('ref_axis',(1.,0.,0.));
#1112=DIRECTION('',(1.,0.,0.));
#1113=DIRECTION('center_axis',(0.,0.,-1.));
#1114=DIRECTION('ref_axis',(-0.707106781186552,-0.707106781186543,0.));
#1115=DIRECTION('',(0.,-1.,0.));
#1116=DIRECTION('',(-1.,0.,0.));
#1117=DIRECTION('',(0.,1.,0.));
#1118=DIRECTION('center_axis',(0.,-1.,0.));
#1119=DIRECTION('ref_axis',(1.,0.,0.));
#1120=DIRECTION('',(1.,0.,0.));
#1121=DIRECTION('',(0.,0.,-1.));
#1122=DIRECTION('center_axis',(0.,0.,1.));
#1123=DIRECTION('ref_axis',(-0.707106781186549,0.707106781186546,0.));
#1124=DIRECTION('center_axis',(0.,0.,-1.));
#1125=DIRECTION('ref_axis',(-0.707106781186549,0.707106781186546,0.));
#1126=DIRECTION('',(0.,0.,-1.));
#1127=DIRECTION('center_axis',(0.,0.,-1.));
#1128=DIRECTION('ref_axis',(-0.707106781186549,0.707106781186546,0.));
#1129=DIRECTION('',(0.,0.,1.));
#1130=DIRECTION('center_axis',(0.,0.,1.));
#1131=DIRECTION('ref_axis',(1.,0.,0.));
#1132=DIRECTION('',(0.,-1.,0.));
#1133=DIRECTION('',(-1.,0.,0.));
#1134=DIRECTION('center_axis',(0.,1.,0.));
#1135=DIRECTION('ref_axis',(-1.,0.,0.));
#1136=DIRECTION('',(-1.,0.,0.));
#1137=DIRECTION('center_axis',(0.,0.,1.));
#1138=DIRECTION('ref_axis',(-0.707106781186552,-0.707106781186543,0.));
#1139=DIRECTION('center_axis',(0.,0.,-1.));
#1140=DIRECTION('ref_axis',(-0.707106781186552,-0.707106781186543,0.));
#1141=DIRECTION('',(0.,0.,1.));
#1142=DIRECTION('center_axis',(-1.,0.,0.));
#1143=DIRECTION('ref_axis',(0.,-1.,0.));
#1144=DIRECTION('',(0.,-1.,0.));
#1145=DIRECTION('',(0.,-6.12323399573677E-17,-1.));
#1146=DIRECTION('center_axis',(1.,0.,0.));
#1147=DIRECTION('ref_axis',(0.,1.,0.));
#1148=DIRECTION('',(0.,6.12323399573677E-17,1.));
#1149=DIRECTION('',(0.,1.,0.));
#1150=DIRECTION('center_axis',(-1.,0.,0.));
#1151=DIRECTION('ref_axis',(0.,-1.,0.));
#1152=DIRECTION('',(0.,-1.,0.));
#1153=DIRECTION('center_axis',(0.,0.,-1.));
#1154=DIRECTION('ref_axis',(-1.,0.,0.));
#1155=DIRECTION('',(1.,0.,0.));
#1156=DIRECTION('center_axis',(0.,0.,-1.));
#1157=DIRECTION('ref_axis',(1.,0.,0.));
#1158=DIRECTION('',(-1.,-4.47525861558356E-16,0.));
#1159=DIRECTION('',(-0.500000000000001,0.866025403784438,0.));
#1160=DIRECTION('center_axis',(0.,0.,-1.));
#1161=DIRECTION('ref_axis',(-0.866025403784439,0.499999999999999,-4.74805601576189E-15));
#1162=DIRECTION('',(1.,0.,0.));
#1163=DIRECTION('center_axis',(0.,-1.,6.12323399573677E-17));
#1164=DIRECTION('ref_axis',(0.,-6.12323399573677E-17,-1.));
#1165=DIRECTION('',(-5.48258283765509E-15,0.,1.));
#1166=DIRECTION('',(1.,0.,0.));
#1167=DIRECTION('',(0.,0.,-1.));
#1168=DIRECTION('',(-1.,0.,0.));
#1169=DIRECTION('',(0.,0.,1.));
#1170=DIRECTION('center_axis',(0.,-1.,6.12323399573677E-17));
#1171=DIRECTION('ref_axis',(0.,-6.12323399573677E-17,-1.));
#1172=DIRECTION('',(-1.,0.,0.));
#1173=DIRECTION('',(0.,0.,1.));
#1174=DIRECTION('',(1.,0.,0.));
#1175=DIRECTION('',(5.48258283765509E-15,0.,-1.));
#1176=DIRECTION('center_axis',(-5.48258283765509E-15,0.,1.));
#1177=DIRECTION('ref_axis',(-0.866025403784439,0.499999999999999,-4.74805601576189E-15));
#1178=DIRECTION('',(-5.48258283765509E-15,0.,1.));
#1179=DIRECTION('center_axis',(-5.62787313698787E-15,4.15249437711115E-16,
1.));
#1180=DIRECTION('ref_axis',(-0.866025403784439,0.499999999999999,-5.08150582476308E-15));
#1181=DIRECTION('center_axis',(0.,0.,-1.));
#1182=DIRECTION('ref_axis',(-1.,0.,0.));
#1183=DIRECTION('',(-0.500000000000001,0.866025403784438,-3.17355313045897E-15));
#1184=DIRECTION('',(-1.,-4.47525861558356E-16,-5.62787313698787E-15));
#1185=DIRECTION('',(0.,1.,0.));
#1186=DIRECTION('center_axis',(-5.62787313698787E-15,4.15249437711115E-16,
1.));
#1187=DIRECTION('ref_axis',(-0.866025403784444,-0.499999999999991,-4.66625638705199E-15));
#1188=DIRECTION('',(0.500000000000001,-0.866025403784438,3.17355313045897E-15));
#1189=DIRECTION('center_axis',(-5.62787313698787E-15,4.15249437711115E-16,
1.));
#1190=DIRECTION('ref_axis',(-0.866025403784444,0.49999999999999,-5.08150582476311E-15));
#1191=DIRECTION('center_axis',(0.,0.,1.));
#1192=DIRECTION('ref_axis',(-1.,0.,0.));
#1193=DIRECTION('center_axis',(0.,0.,1.));
#1194=DIRECTION('ref_axis',(-1.,0.,0.));
#1195=DIRECTION('center_axis',(0.,0.,1.));
#1196=DIRECTION('ref_axis',(-0.718356759589593,-0.695674899613275,0.));
#1197=DIRECTION('center_axis',(0.,0.,-1.));
#1198=DIRECTION('ref_axis',(1.,0.,0.));
#1199=DIRECTION('center_axis',(0.,0.,1.));
#1200=DIRECTION('ref_axis',(1.,0.,0.));
#1201=DIRECTION('center_axis',(0.,0.,-1.));
#1202=DIRECTION('ref_axis',(-1.,0.,0.));
#1203=DIRECTION('center_axis',(0.,0.,1.));
#1204=DIRECTION('ref_axis',(-0.866025403784444,-0.49999999999999,0.));
#1205=DIRECTION('',(0.500000000000001,-0.866025403784438,0.));
#1206=DIRECTION('center_axis',(0.,0.,1.));
#1207=DIRECTION('ref_axis',(3.19744231092056E-14,-1.,0.));
#1208=DIRECTION('center_axis',(0.,0.,-1.));
#1209=DIRECTION('ref_axis',(-1.,0.,0.));
#1210=DIRECTION('center_axis',(-5.48258283765509E-15,0.,1.));
#1211=DIRECTION('ref_axis',(-0.866025403784444,0.49999999999999,-4.74805601576192E-15));
#1212=DIRECTION('',(-5.48258283765509E-15,0.,1.));
#1213=DIRECTION('center_axis',(-0.866025403784438,-0.500000000000001,-4.74805601576188E-15));
#1214=DIRECTION('ref_axis',(0.500000000000001,-0.866025403784438,3.17355313045897E-15));
#1215=DIRECTION('',(-5.48258283765509E-15,0.,1.));
#1216=DIRECTION('center_axis',(-5.48258283765509E-15,0.,1.));
#1217=DIRECTION('ref_axis',(-0.866025403784444,-0.499999999999991,-4.74805601576192E-15));
#1218=DIRECTION('center_axis',(0.866025403784438,0.500000000000001,4.74805601576188E-15));
#1219=DIRECTION('ref_axis',(-0.500000000000001,0.866025403784438,-3.17355313045897E-15));
#1220=DIRECTION('',(-5.48258283765509E-15,0.,1.));
#1221=DIRECTION('center_axis',(0.,0.,-1.));
#1222=DIRECTION('ref_axis',(-1.,0.,0.));
#1223=DIRECTION('center_axis',(0.,0.,-1.));
#1224=DIRECTION('ref_axis',(-1.,0.,0.));
#1225=DIRECTION('',(0.,0.,-1.));
#1226=DIRECTION('center_axis',(-4.47525861558356E-16,1.,-2.45359760798665E-30));
#1227=DIRECTION('ref_axis',(-1.,-4.47525861558356E-16,-5.62787313698787E-15));
#1228=DIRECTION('',(-6.12323399573677E-17,2.426194552292E-30,1.));
#1229=DIRECTION('center_axis',(1.,0.,6.12323399573677E-17));
#1230=DIRECTION('ref_axis',(6.12323399573677E-17,0.,-1.));
#1231=CARTESIAN_POINT('',(0.,0.,0.));
#1232=CARTESIAN_POINT('Origin',(-93.000001385808,-78.5939315532223,-18.));
#1233=CARTESIAN_POINT('',(-93.000001385808,-54.6034122001709,-28.));
#1234=CARTESIAN_POINT('',(-93.000001385808,-78.5939315532223,-28.));
#1235=CARTESIAN_POINT('',(-93.000001385808,16.3280342233731,-28.));
#1236=CARTESIAN_POINT('',(-93.000001385808,-54.6034122001709,-18.));
#1237=CARTESIAN_POINT('',(-93.000001385808,-54.6034122001709,-18.));
#1238=CARTESIAN_POINT('',(-93.000001385808,-78.5939315532223,-18.));
#1239=CARTESIAN_POINT('',(-93.000001385808,-39.2969657766111,-18.));
#1240=CARTESIAN_POINT('',(-93.000001385808,-78.5939315532223,-18.));
#1241=CARTESIAN_POINT('Origin',(-90.000001385808,-78.5939315532222,-18.));
#1242=CARTESIAN_POINT('',(-90.000001385808,-81.5939315532223,-28.));
#1243=CARTESIAN_POINT('Origin',(-90.000001385808,-78.5939315532222,-28.));
#1244=CARTESIAN_POINT('',(-90.000001385808,-81.5939315532223,-18.));
#1245=CARTESIAN_POINT('Origin',(-90.000001385808,-78.5939315532222,-18.));
#1246=CARTESIAN_POINT('',(-90.000001385808,-81.5939315532223,-18.));
#1247=CARTESIAN_POINT('Origin',(-30.9905207388601,-81.5939315532223,-18.));
#1248=CARTESIAN_POINT('',(-30.9905207388601,-81.5939315532223,-28.));
#1249=CARTESIAN_POINT('',(-15.4952603694484,-81.5939315532222,-28.));
#1250=CARTESIAN_POINT('',(-30.9905207388601,-81.5939315532223,-18.));
#1251=CARTESIAN_POINT('',(-34.2452603694301,-81.5939315532223,-18.));
#1252=CARTESIAN_POINT('',(-30.9905207388601,-81.5939315532223,-18.));
#1253=CARTESIAN_POINT('Origin',(-30.9905207388601,-78.5939315532223,-18.));
#1254=CARTESIAN_POINT('',(-27.9905207388601,-78.5939315532222,-28.));
#1255=CARTESIAN_POINT('Origin',(-30.9905207388601,-78.5939315532223,-28.));
#1256=CARTESIAN_POINT('',(-27.9905207388601,-78.5939315532222,-18.));
#1257=CARTESIAN_POINT('Origin',(-30.9905207388601,-78.5939315532223,-18.));
#1258=CARTESIAN_POINT('',(-27.9905207388601,-78.5939315532222,-18.));
#1259=CARTESIAN_POINT('Origin',(-27.9905207388601,-54.6034122001709,-18.));
#1260=CARTESIAN_POINT('',(-27.9905207388601,-54.6034122001709,-28.));
#1261=CARTESIAN_POINT('',(-27.9905207388601,28.3232938998988,-28.));
#1262=CARTESIAN_POINT('',(-27.9905207388601,-54.6034122001709,-18.));
#1263=CARTESIAN_POINT('',(-27.9905207388601,-27.3017061000855,-18.));
#1264=CARTESIAN_POINT('',(-27.9905207388601,-54.6034122001709,-18.));
#1265=CARTESIAN_POINT('Origin',(-30.9905207388601,-54.6034122001709,-18.));
#1266=CARTESIAN_POINT('',(-30.9905207388601,-51.6034122001709,-28.));
#1267=CARTESIAN_POINT('Origin',(-30.9905207388601,-54.6034122001709,-28.));
#1268=CARTESIAN_POINT('',(-30.9905207388601,-51.6034122001709,-18.));
#1269=CARTESIAN_POINT('Origin',(-30.9905207388601,-54.6034122001709,-18.));
#1270=CARTESIAN_POINT('',(-30.9905207388601,-51.6034122001709,-18.));
#1271=CARTESIAN_POINT('Origin',(-90.000001385808,-51.6034122001709,-18.));
#1272=CARTESIAN_POINT('',(-90.000001385808,-51.6034122001709,-28.));
#1273=CARTESIAN_POINT('',(-45.0000006929223,-51.6034122001709,-28.));
#1274=CARTESIAN_POINT('',(-90.000001385808,-51.6034122001709,-18.));
#1275=CARTESIAN_POINT('',(-63.750000692904,-51.6034122001709,-18.));
#1276=CARTESIAN_POINT('',(-90.000001385808,-51.6034122001709,-18.));
#1277=CARTESIAN_POINT('Origin',(-90.000001385808,-54.603412200171,-18.));
#1278=CARTESIAN_POINT('Origin',(-90.000001385808,-54.603412200171,-28.));
#1279=CARTESIAN_POINT('Origin',(-90.000001385808,-54.603412200171,-18.));
#1280=CARTESIAN_POINT('Origin',(-11.1695656754498,-149.867687132376,-28.1));
#1281=CARTESIAN_POINT('',(-0.669565675449686,-149.867687132376,-28.1));
#1282=CARTESIAN_POINT('',(-0.669565675449686,-139.867687132376,-28.1));
#1283=CARTESIAN_POINT('',(-0.669565675449685,-74.8676871323762,-28.1));
#1284=CARTESIAN_POINT('',(-11.1695656754498,-149.867687132376,-28.1));
#1285=CARTESIAN_POINT('',(-47.7774601916977,-149.867687132376,-28.1));
#1286=CARTESIAN_POINT('',(-11.1695656754498,-139.867687132376,-28.1));
#1287=CARTESIAN_POINT('',(-11.1695656754498,-149.867687132376,-28.1));
#1288=CARTESIAN_POINT('',(26.9152171622751,-139.867687132376,-28.1));
#1289=CARTESIAN_POINT('Origin',(-11.1695656754498,-149.867687132376,-30.1));
#1290=CARTESIAN_POINT('',(-13.1695656754498,-149.867687132376,-30.1));
#1291=CARTESIAN_POINT('Origin',(-11.1695656754498,-149.867687132376,-30.1));
#1292=CARTESIAN_POINT('',(-13.1695656754498,-139.867687132376,-30.1));
#1293=CARTESIAN_POINT('',(-13.1695656754498,-149.867687132376,-30.1));
#1294=CARTESIAN_POINT('Origin',(-11.1695656754498,-139.867687132376,-30.1));
#1295=CARTESIAN_POINT('Origin',(-13.1695656754498,-149.867687132376,-36.1));
#1296=CARTESIAN_POINT('',(-13.1695656754498,-149.867687132376,-36.1));
#1297=CARTESIAN_POINT('',(-13.1695656754498,-149.867687132376,-40.1500000000002));
#1298=CARTESIAN_POINT('',(-13.1695656754498,-139.867687132376,-36.1));
#1299=CARTESIAN_POINT('',(-13.1695656754498,-149.867687132376,-36.1));
#1300=CARTESIAN_POINT('',(-13.1695656754498,-139.867687132376,-40.1499999999998));
#1301=CARTESIAN_POINT('Origin',(-11.1695656754498,-149.867687132376,-36.1));
#1302=CARTESIAN_POINT('',(-11.1695656754498,-149.867687132376,-38.1));
#1303=CARTESIAN_POINT('Origin',(-11.1695656754498,-149.867687132376,-36.1));
#1304=CARTESIAN_POINT('',(-11.1695656754498,-139.867687132376,-38.1));
#1305=CARTESIAN_POINT('',(-11.1695656754498,-149.867687132376,-38.1));
#1306=CARTESIAN_POINT('Origin',(-11.1695656754498,-139.867687132376,-36.1));
#1307=CARTESIAN_POINT('Origin',(9.83043432455023,-149.867687132376,-38.1));
#1308=CARTESIAN_POINT('',(-0.669565675449686,-139.867687132376,-38.1));
#1309=CARTESIAN_POINT('',(-0.669565675449686,-149.867687132376,-38.1));
#1310=CARTESIAN_POINT('',(-0.669565675449685,-74.8676871323762,-38.1));
#1311=CARTESIAN_POINT('',(37.4152171622751,-139.867687132376,-38.1));
#1312=CARTESIAN_POINT('',(-37.2774601916977,-149.867687132376,-38.1));
#1313=CARTESIAN_POINT('Origin',(-84.3853547079456,-149.867687132376,-44.2000000000005));
#1314=CARTESIAN_POINT('',(-0.669565675449686,-149.867687132376,-18.));
#1315=CARTESIAN_POINT('',(-0.669565675449686,-149.867687132376,-37.6500000000005));
#1316=CARTESIAN_POINT('',(-84.3853547079457,-149.867687132376,-18.));
#1317=CARTESIAN_POINT('',(22.7731116785233,-149.867687132376,-18.));
#1318=CARTESIAN_POINT('',(-84.3853547079456,-149.867687132376,-44.2000000000005));
#1319=CARTESIAN_POINT('',(-84.3853547079456,-149.867687132376,-44.2000000000005));
#1320=CARTESIAN_POINT('',(-0.669565675449686,-149.867687132376,-44.2));
#1321=CARTESIAN_POINT('',(-84.3853547079456,-149.867687132376,-44.2000000000005));
#1322=CARTESIAN_POINT('',(-0.669565675449686,-149.867687132376,-37.6500000000005));
#1323=CARTESIAN_POINT('Origin',(-0.669565675449685,0.132312867623785,-31.1000000000005));
#1324=CARTESIAN_POINT('',(-0.669565675449686,-139.867687132376,-28.));
#1325=CARTESIAN_POINT('',(-0.669565675449686,-139.867687132376,-37.6500000000001));
#1326=CARTESIAN_POINT('',(-0.669565675449685,-112.429359580037,-28.));
#1327=CARTESIAN_POINT('',(-0.669565675449685,55.6911564337961,-28.));
#1328=CARTESIAN_POINT('',(-0.669565675449686,-112.429359580037,-25.5));
#1329=CARTESIAN_POINT('',(-0.669565675449685,-112.429359580037,-29.5500000000003));
#1330=CARTESIAN_POINT('',(-0.669565675449685,-52.4293595800374,-25.5));
#1331=CARTESIAN_POINT('',(-0.669565675449685,-41.1485233562068,-25.5));
#1332=CARTESIAN_POINT('',(-0.669565675449685,-52.4293595800374,-28.));
#1333=CARTESIAN_POINT('',(-0.669565675449685,-52.4293595800374,-29.5500000000003));
#1334=CARTESIAN_POINT('',(-0.669565675449685,-24.9910320276986,-28.));
#1335=CARTESIAN_POINT('',(-0.669565675449685,55.6911564337961,-28.));
#1336=CARTESIAN_POINT('',(-0.669565675449686,-24.9910320276986,-18.));
#1337=CARTESIAN_POINT('',(-0.66956567544968,-24.9910320276986,-115.));
#1338=CARTESIAN_POINT('',(-0.669565675449686,0.0661564338118925,-18.));
#1339=CARTESIAN_POINT('Origin',(-19.3557001600888,-120.1575787052,-18.));
#1340=CARTESIAN_POINT('',(-18.8557001600888,-120.1575787052,-18.));
#1341=CARTESIAN_POINT('Origin',(-19.3557001600888,-120.1575787052,-18.));
#1342=CARTESIAN_POINT('',(-18.8557001600888,-120.1575787052,-28.));
#1343=CARTESIAN_POINT('',(-18.8557001600888,-120.1575787052,-18.));
#1344=CARTESIAN_POINT('Origin',(-19.3557001600888,-120.1575787052,-28.));
#1345=CARTESIAN_POINT('Origin',(-39.3557001600888,-132.6575787052,-18.));
#1346=CARTESIAN_POINT('',(-38.8557001600888,-132.6575787052,-18.));
#1347=CARTESIAN_POINT('Origin',(-39.3557001600888,-132.6575787052,-18.));
#1348=CARTESIAN_POINT('',(-38.8557001600888,-132.6575787052,-28.));
#1349=CARTESIAN_POINT('',(-38.8557001600888,-132.6575787052,-18.));
#1350=CARTESIAN_POINT('Origin',(-39.3557001600888,-132.6575787052,-28.));
#1351=CARTESIAN_POINT('Origin',(-9.66956567544968,-111.429359580037,-28.));
#1352=CARTESIAN_POINT('',(-9.66956567544968,-112.429359580037,-25.5));
#1353=CARTESIAN_POINT('',(-10.6695656754497,-111.429359580037,-25.5));
#1354=CARTESIAN_POINT('Origin',(-9.66956567544968,-111.429359580037,-25.5));
#1355=CARTESIAN_POINT('',(-9.66956567544968,-112.429359580037,-28.));
#1356=CARTESIAN_POINT('',(-9.66956567544968,-112.429359580037,-28.));
#1357=CARTESIAN_POINT('',(-10.6695656754497,-111.429359580037,-28.));
#1358=CARTESIAN_POINT('Origin',(-9.66956567544968,-111.429359580037,-28.));
#1359=CARTESIAN_POINT('',(-10.6695656754497,-111.429359580037,-28.));
#1360=CARTESIAN_POINT('Origin',(-10.6695656754497,-112.429359580037,-28.));
#1361=CARTESIAN_POINT('',(9.33043432455032,-112.429359580037,-25.5));
#1362=CARTESIAN_POINT('',(-5.33478283774315,-112.429359580037,-28.));
#1363=CARTESIAN_POINT('Origin',(-64.2768941101673,-8.86768713237614,-28.));
#1364=CARTESIAN_POINT('',(-63.2768941101673,-8.86768713237614,-25.5));
#1365=CARTESIAN_POINT('',(-64.2768941101673,-9.86768713237614,-25.5));
#1366=CARTESIAN_POINT('Origin',(-64.2768941101673,-8.86768713237614,-25.5));
#1367=CARTESIAN_POINT('',(-63.2768941101673,-8.86768713237614,-28.));
#1368=CARTESIAN_POINT('',(-63.2768941101673,-8.86768713237614,-28.));
#1369=CARTESIAN_POINT('',(-64.2768941101673,-9.86768713237614,-28.));
#1370=CARTESIAN_POINT('Origin',(-64.2768941101673,-8.86768713237614,-28.));
#1371=CARTESIAN_POINT('',(-64.2768941101673,-9.86768713237614,-28.));
#1372=CARTESIAN_POINT('Origin',(-93.2768941101673,0.132312867623861,-25.5));
#1373=CARTESIAN_POINT('',(-122.276894110167,-9.86768713237614,-25.5));
#1374=CARTESIAN_POINT('',(-63.2768941101673,-9.86768713237614,-25.5));
#1375=CARTESIAN_POINT('',(-123.276894110167,-8.86768713237614,-25.5));
#1376=CARTESIAN_POINT('Origin',(-122.276894110167,-8.86768713237614,-25.5));
#1377=CARTESIAN_POINT('',(-123.276894110167,0.132312867623862,-25.5));
#1378=CARTESIAN_POINT('',(-123.276894110167,-9.86768713237614,-25.5));
#1379=CARTESIAN_POINT('',(-63.2768941101673,0.132312867623862,-25.5));
#1380=CARTESIAN_POINT('',(-46.9732298928085,0.132312867623861,-25.5));
#1381=CARTESIAN_POINT('',(-63.2768941101673,10.1323128676239,-25.5));
#1382=CARTESIAN_POINT('Origin',(-123.276894110167,-9.86768713237614,-28.));
#1383=CARTESIAN_POINT('',(-122.276894110167,-9.86768713237614,-28.));
#1384=CARTESIAN_POINT('',(-61.638447055102,-9.86768713237614,-28.));
#1385=CARTESIAN_POINT('',(-122.276894110167,-9.86768713237614,-28.));
#1386=CARTESIAN_POINT('Origin',(-9.66956567544968,-53.4293595800374,-28.));
#1387=CARTESIAN_POINT('',(-10.6695656754497,-53.4293595800374,-25.5));
#1388=CARTESIAN_POINT('',(-9.66956567544968,-52.4293595800374,-25.5));
#1389=CARTESIAN_POINT('Origin',(-9.66956567544968,-53.4293595800374,-25.5));
#1390=CARTESIAN_POINT('',(-10.6695656754497,-53.4293595800374,-28.));
#1391=CARTESIAN_POINT('',(-10.6695656754497,-53.4293595800374,-28.));
#1392=CARTESIAN_POINT('',(-9.66956567544968,-52.4293595800374,-28.));
#1393=CARTESIAN_POINT('Origin',(-9.66956567544968,-53.4293595800374,-28.));
#1394=CARTESIAN_POINT('',(-9.66956567544968,-52.4293595800374,-28.));
#1395=CARTESIAN_POINT('Origin',(-0.669565675449681,-82.4293595800374,-25.5));
#1396=CARTESIAN_POINT('',(-10.6695656754497,-112.429359580037,-25.5));
#1397=CARTESIAN_POINT('',(-10.6695656754497,-52.4293595800374,-25.5));
#1398=CARTESIAN_POINT('Origin',(9.33043432455032,-52.4293595800374,-28.));
#1399=CARTESIAN_POINT('',(4.66521716225684,-52.4293595800374,-28.));
#1400=CARTESIAN_POINT('Origin',(-122.276894110167,-8.86768713237614,-28.));
#1401=CARTESIAN_POINT('',(-123.276894110167,-8.86768713237614,-28.));
#1402=CARTESIAN_POINT('Origin',(-122.276894110167,-8.86768713237614,-28.));
#1403=CARTESIAN_POINT('',(-123.276894110167,-8.86768713237614,-28.));
#1404=CARTESIAN_POINT('Origin',(-123.276894110167,10.1323128676239,-28.));
#1405=CARTESIAN_POINT('',(-123.276894110167,0.132312867623862,-28.));
#1406=CARTESIAN_POINT('',(-123.276894110167,60.6911564337962,-28.));
#1407=CARTESIAN_POINT('',(-123.276894110167,0.132312867623861,-29.5500000000003));
#1408=CARTESIAN_POINT('Origin',(-63.2768941101673,-9.86768713237614,-28.));
#1409=CARTESIAN_POINT('',(-63.2768941101673,0.132312867623862,-28.));
#1410=CARTESIAN_POINT('',(-63.2768941101673,0.132312867623861,-29.5500000000003));
#1411=CARTESIAN_POINT('',(-63.2768941101673,50.6911564337962,-28.));
#1412=CARTESIAN_POINT('Origin',(-10.6695656754497,-52.4293595800374,-28.));
#1413=CARTESIAN_POINT('',(-10.6695656754497,29.4103202099656,-28.));
#1414=CARTESIAN_POINT('Origin',(-3.66284780284332E-11,111.249999999968,
-28.));
#1415=CARTESIAN_POINT('',(-24.9996498636856,0.132312867623861,-28.));
#1416=CARTESIAN_POINT('',(-0.334782837743122,0.132312867623856,-28.));
#1417=CARTESIAN_POINT('Origin',(-3.66640051652212E-11,-6.30251406619209E-11,
-28.));
#1418=CARTESIAN_POINT('',(-81.4986033619976,-139.867687132376,-28.0000000000005));
#1419=CARTESIAN_POINT('',(32.4999999999817,-139.867687132376,-28.));
#1420=CARTESIAN_POINT('',(-160.884265375571,-2.36768713237621,-28.000000000001));
#1421=CARTESIAN_POINT('',(-125.679852040803,-63.3435196788496,-28.));
#1422=CARTESIAN_POINT('',(-161.554138356649,0.132312867623861,-28.0000000000009));
#1423=CARTESIAN_POINT('Origin',(-156.554138356649,0.13231286762376,-28.0000000000009));
#1424=CARTESIAN_POINT('',(-0.334782837743122,0.132312867623856,-28.));
#1425=CARTESIAN_POINT('Origin',(-0.669565675449615,0.132312867623861,-31.1000000000005));
#1426=CARTESIAN_POINT('',(-161.554138356649,0.13231286762386,-44.200000000001));
#1427=CARTESIAN_POINT('',(-161.554138356649,0.13231286762386,-44.200000000001));
#1428=CARTESIAN_POINT('',(-166.827641048545,0.132312867623757,-44.2));
#1429=CARTESIAN_POINT('',(-0.334782837724807,0.13231286762386,-44.2));
#1430=CARTESIAN_POINT('',(-166.827641048545,0.132312867623757,-18.));
#1431=CARTESIAN_POINT('',(-166.827641048545,0.132312867623862,-18.));
#1432=CARTESIAN_POINT('',(-24.9996498636856,0.132312867623862,-18.));
#1433=CARTESIAN_POINT('',(-19.0847828377248,0.132312867623862,-18.));
#1434=CARTESIAN_POINT('',(-24.9996498636856,0.132312867623856,-115.));
#1435=CARTESIAN_POINT('Origin',(-0.669565675449615,0.132312867623861,-31.1000000000005));
#1436=CARTESIAN_POINT('',(-167.827641048545,0.132312867623862,-18.));
#1437=CARTESIAN_POINT('',(-173.101143740442,0.132312867623862,-18.));
#1438=CARTESIAN_POINT('',(-19.0847828377248,0.132312867623862,-18.));
#1439=CARTESIAN_POINT('',(-167.827641048545,0.13231286762386,-44.2));
#1440=CARTESIAN_POINT('',(-167.827641048545,0.132312867623862,-18.));
#1441=CARTESIAN_POINT('',(-173.101143740441,0.13231286762386,-44.200000000001));
#1442=CARTESIAN_POINT('',(-0.334782837724807,0.13231286762386,-44.2));
#1443=CARTESIAN_POINT('',(-173.101143740441,0.13231286762386,-44.200000000001));
#1444=CARTESIAN_POINT('Origin',(-156.554138356649,0.13231286762376,-44.2000000000009));
#1445=CARTESIAN_POINT('',(-160.884265375571,-2.36768713237622,-44.200000000001));
#1446=CARTESIAN_POINT('',(-160.884265375571,-2.36768713237622,-44.200000000001));
#1447=CARTESIAN_POINT('Origin',(-156.554138356649,0.13231286762376,-44.2000000000009));
#1448=CARTESIAN_POINT('Origin',(0.,0.,-44.2));
#1449=CARTESIAN_POINT('',(-81.4986033619975,-139.867687132376,-44.2000000000005));
#1450=CARTESIAN_POINT('',(-81.4986033619975,-139.867687132376,-44.2000000000005));
#1451=CARTESIAN_POINT('',(-0.669565675449686,-139.867687132376,-44.2));
#1452=CARTESIAN_POINT('',(77.2727206651497,-139.867687132376,-44.1999999999996));
#1453=CARTESIAN_POINT('',(-0.669565675449684,0.0661564338118925,-44.2));
#1454=CARTESIAN_POINT('',(-88.7154817268678,-147.367687132376,-44.2000000000005));
#1455=CARTESIAN_POINT('Origin',(-84.3853547079457,-144.867687132376,-44.2000000000005));
#1456=CARTESIAN_POINT('',(-172.431270759364,-2.36768713237622,-44.200000000001));
#1457=CARTESIAN_POINT('',(-172.431270759364,-2.36768713237622,-44.200000000001));
#1458=CARTESIAN_POINT('Origin',(-168.101143740441,0.132312867623767,-44.200000000001));
#1459=CARTESIAN_POINT('Origin',(-167.327641048545,0.132312867623757,-44.2));
#1460=CARTESIAN_POINT('',(-83.6919790349716,-144.532750641837,-44.2));
#1461=CARTESIAN_POINT('Origin',(-84.1919790349716,-144.532750641837,-44.2));
#1462=CARTESIAN_POINT('Origin',(-3.66640051652212E-11,-6.30251406619209E-11,
-115.));
#1463=CARTESIAN_POINT('Origin',(-3.66640051652212E-11,-6.30251406619209E-11,
-18.));
#1464=CARTESIAN_POINT('Origin',(-37.5,0.,-18.));
#1465=CARTESIAN_POINT('Origin',(-167.327641048545,0.132312867623757,-18.));
#1466=CARTESIAN_POINT('',(-172.431270759364,-2.36768713237625,-18.));
#1467=CARTESIAN_POINT('Origin',(-168.101143740441,0.132312867623758,-18.));
#1468=CARTESIAN_POINT('',(-88.7154817268679,-147.367687132376,-18.));
#1469=CARTESIAN_POINT('',(-114.219586699408,-103.193281518367,-18.));
#1470=CARTESIAN_POINT('Origin',(-84.3853547079458,-144.867687132376,-18.));
#1471=CARTESIAN_POINT('',(-83.6919790349716,-144.532750641837,-18.));
#1472=CARTESIAN_POINT('Origin',(-84.1919790349716,-144.532750641837,-18.));
#1473=CARTESIAN_POINT('Origin',(-168.101143740441,0.132312867623767,-44.200000000001));
#1474=CARTESIAN_POINT('',(-172.431270759364,-2.36768713237622,-44.200000000001));
#1475=CARTESIAN_POINT('Origin',(-172.431270759364,-2.36768713237622,-44.200000000001));
#1476=CARTESIAN_POINT('',(-88.7154817268678,-147.367687132376,-44.2000000000005));
#1477=CARTESIAN_POINT('Origin',(-84.3853547079457,-144.867687132376,-44.2000000000005));
#1478=CARTESIAN_POINT('Origin',(-81.4986033619975,-139.867687132376,-44.2000000000005));
#1479=CARTESIAN_POINT('',(-81.4986033619975,-139.867687132376,-44.2000000000005));
#1480=CARTESIAN_POINT('Origin',(-167.327641048545,0.132312867623757,-18.));
#1481=CARTESIAN_POINT('Origin',(-84.1919790349716,-144.532750641837,-18.));
#1482=CARTESIAN_POINT('',(-83.6919790349716,-144.532750641837,-18.));
#1483=CARTESIAN_POINT('Origin',(65.,-139.867687132376,-44.1999999999996));
#1484=CARTESIAN_POINT('',(-0.669565675449686,-139.867687132376,-37.6500000000001));
#1485=CARTESIAN_POINT('Origin',(-0.669565675449685,0.132312867623785,-31.1000000000005));
#1486=UNCERTAINTY_MEASURE_WITH_UNIT(LENGTH_MEASURE(0.01),#1490,
'DISTANCE_ACCURACY_VALUE',
'Maximum model space distance between geometric entities at asserted c
onnectivities');
#1487=UNCERTAINTY_MEASURE_WITH_UNIT(LENGTH_MEASURE(0.01),#1490,
'DISTANCE_ACCURACY_VALUE',
'Maximum model space distance between geometric entities at asserted c
onnectivities');
#1488=(
GEOMETRIC_REPRESENTATION_CONTEXT(3)
GLOBAL_UNCERTAINTY_ASSIGNED_CONTEXT((#1486))
GLOBAL_UNIT_ASSIGNED_CONTEXT((#1490,#1492,#1493))
REPRESENTATION_CONTEXT('','3D')
);
#1489=(
GEOMETRIC_REPRESENTATION_CONTEXT(3)
GLOBAL_UNCERTAINTY_ASSIGNED_CONTEXT((#1487))
GLOBAL_UNIT_ASSIGNED_CONTEXT((#1490,#1492,#1493))
REPRESENTATION_CONTEXT('','3D')
);
#1490=(
LENGTH_UNIT()
NAMED_UNIT(*)
SI_UNIT(.MILLI.,.METRE.)
);
#1491=(
LENGTH_UNIT()
NAMED_UNIT(*)
SI_UNIT($,.METRE.)
);
#1492=(
NAMED_UNIT(*)
PLANE_ANGLE_UNIT()
SI_UNIT($,.RADIAN.)
);
#1493=(
NAMED_UNIT(*)
SI_UNIT($,.STERADIAN.)
SOLID_ANGLE_UNIT()
);
#1494=SHAPE_DEFINITION_REPRESENTATION(#1495,#1496);
#1495=PRODUCT_DEFINITION_SHAPE('',$,#1498);
#1496=SHAPE_REPRESENTATION('',(#898),#1488);
#1497=PRODUCT_DEFINITION_CONTEXT('part definition',#1502,'design');
#1498=PRODUCT_DEFINITION('2026-06-20-16-29-32-311','FusionComponent',#1499,
#1497);
#1499=PRODUCT_DEFINITION_FORMATION('',$,#1504);
#1500=PRODUCT_RELATED_PRODUCT_CATEGORY('FusionComponent',
'FusionComponent',(#1504));
#1501=APPLICATION_PROTOCOL_DEFINITION('international standard',
'automotive_design',2009,#1502);
#1502=APPLICATION_CONTEXT(
'Core Data for Automotive Mechanical Design Process');
#1503=PRODUCT_CONTEXT('part definition',#1502,'mechanical');
#1504=PRODUCT('2026-06-20-16-29-32-311','FusionComponent',$,(#1503));
#1505=PRESENTATION_STYLE_ASSIGNMENT((#1506));
#1506=SURFACE_STYLE_USAGE(.BOTH.,#1507);
#1507=SURFACE_SIDE_STYLE('',(#1508));
#1508=SURFACE_STYLE_FILL_AREA(#1509);
#1509=FILL_AREA_STYLE('Steel - Satin',(#1510));
#1510=FILL_AREA_STYLE_COLOUR('Steel - Satin',#1511);
#1511=COLOUR_RGB('Steel - Satin',0.627450980392157,0.627450980392157,0.627450980392157);
ENDSEC;
END-ISO-10303-21;
