ISO-10303-21;
HEADER;
/* Generated by software containing ST-Developer
 * from STEP Tools, Inc. (www.steptools.com) 
 */

FILE_DESCRIPTION(
/* description */ (''),
/* implementation_level */ '2;1');

FILE_NAME(
/* name */ 'Electronics Hub Part C.step',
/* time_stamp */ '2026-06-20T12:35:07-05:00',
/* author */ (''),
/* organization */ (''),
/* preprocessor_version */ 'ST-DEVELOPER v20.1',
/* originating_system */ 'Autodesk Translation Framework v15.8.0.0',
/* authorisation */ '');

FILE_SCHEMA (('AUTOMOTIVE_DESIGN { 1 0 10303 214 3 1 1 }'));
ENDSEC;

DATA;
#10=MECHANICAL_DESIGN_GEOMETRIC_PRESENTATION_REPRESENTATION('',(#13),#1656);
#11=SHAPE_REPRESENTATION_RELATIONSHIP('SRR','None',#1663,#12);
#12=ADVANCED_BREP_SHAPE_REPRESENTATION('',(#14),#1655);
#13=STYLED_ITEM('',(#1672),#14);
#14=MANIFOLD_SOLID_BREP('Body1',#973);
#15=TOROIDAL_SURFACE('',#1025,22.5,2.5);
#16=TOROIDAL_SURFACE('',#1037,22.5,2.5);
#17=FACE_BOUND('',#120,.T.);
#18=FACE_BOUND('',#121,.T.);
#19=FACE_BOUND('',#123,.T.);
#20=FACE_BOUND('',#124,.T.);
#21=FACE_BOUND('',#141,.T.);
#22=FACE_BOUND('',#152,.T.);
#23=FACE_BOUND('',#154,.T.);
#24=FACE_BOUND('',#155,.T.);
#25=FACE_BOUND('',#156,.T.);
#26=FACE_BOUND('',#157,.T.);
#27=FACE_BOUND('',#160,.T.);
#28=FACE_BOUND('',#161,.T.);
#29=FACE_BOUND('',#162,.T.);
#30=FACE_BOUND('',#163,.T.);
#31=B_SPLINE_CURVE_WITH_KNOTS('',3,(#1409,#1410,#1411,#1412,#1413,#1414,
#1415,#1416,#1417,#1418),.UNSPECIFIED.,.F.,.F.,(4,2,2,2,4),(0.757200472606962,
0.84823452867648,0.941899474522952,1.03839312255098,1.13665372319105),
 .UNSPECIFIED.);
#32=ELLIPSE('',#992,2.88675134594813,2.5);
#33=CYLINDRICAL_SURFACE('',#989,30.);
#34=CYLINDRICAL_SURFACE('',#994,1.);
#35=CYLINDRICAL_SURFACE('',#1000,1.);
#36=CYLINDRICAL_SURFACE('',#1003,5.00000000000008);
#37=CYLINDRICAL_SURFACE('',#1012,5.);
#38=CYLINDRICAL_SURFACE('',#1028,20.);
#39=CYLINDRICAL_SURFACE('',#1033,2.5);
#40=CYLINDRICAL_SURFACE('',#1035,2.5);
#41=CYLINDRICAL_SURFACE('',#1039,20.);
#42=CYLINDRICAL_SURFACE('',#1041,0.499999999999998);
#43=CYLINDRICAL_SURFACE('',#1044,0.499999999999998);
#44=CYLINDRICAL_SURFACE('',#1047,0.499999999999998);
#45=CYLINDRICAL_SURFACE('',#1050,0.499999999999998);
#46=CYLINDRICAL_SURFACE('',#1053,1.5);
#47=CYLINDRICAL_SURFACE('',#1054,1.5);
#48=CYLINDRICAL_SURFACE('',#1061,2.00000000000002);
#49=CYLINDRICAL_SURFACE('',#1064,2.00000000000002);
#50=CYLINDRICAL_SURFACE('',#1067,2.00000000000001);
#51=CYLINDRICAL_SURFACE('',#1070,2.00000000000001);
#52=CYLINDRICAL_SURFACE('',#1075,5.);
#53=CYLINDRICAL_SURFACE('',#1078,5.);
#54=CYLINDRICAL_SURFACE('',#1081,5.);
#55=FACE_OUTER_BOUND('',#104,.T.);
#56=FACE_OUTER_BOUND('',#105,.T.);
#57=FACE_OUTER_BOUND('',#106,.T.);
#58=FACE_OUTER_BOUND('',#107,.T.);
#59=FACE_OUTER_BOUND('',#108,.T.);
#60=FACE_OUTER_BOUND('',#109,.T.);
#61=FACE_OUTER_BOUND('',#110,.T.);
#62=FACE_OUTER_BOUND('',#111,.T.);
#63=FACE_OUTER_BOUND('',#112,.T.);
#64=FACE_OUTER_BOUND('',#113,.T.);
#65=FACE_OUTER_BOUND('',#114,.T.);
#66=FACE_OUTER_BOUND('',#115,.T.);
#67=FACE_OUTER_BOUND('',#116,.T.);
#68=FACE_OUTER_BOUND('',#117,.T.);
#69=FACE_OUTER_BOUND('',#118,.T.);
#70=FACE_OUTER_BOUND('',#119,.T.);
#71=FACE_OUTER_BOUND('',#122,.T.);
#72=FACE_OUTER_BOUND('',#125,.T.);
#73=FACE_OUTER_BOUND('',#126,.T.);
#74=FACE_OUTER_BOUND('',#127,.T.);
#75=FACE_OUTER_BOUND('',#128,.T.);
#76=FACE_OUTER_BOUND('',#129,.T.);
#77=FACE_OUTER_BOUND('',#130,.T.);
#78=FACE_OUTER_BOUND('',#131,.T.);
#79=FACE_OUTER_BOUND('',#132,.T.);
#80=FACE_OUTER_BOUND('',#133,.T.);
#81=FACE_OUTER_BOUND('',#134,.T.);
#82=FACE_OUTER_BOUND('',#135,.T.);
#83=FACE_OUTER_BOUND('',#136,.T.);
#84=FACE_OUTER_BOUND('',#137,.T.);
#85=FACE_OUTER_BOUND('',#138,.T.);
#86=FACE_OUTER_BOUND('',#139,.T.);
#87=FACE_OUTER_BOUND('',#140,.T.);
#88=FACE_OUTER_BOUND('',#142,.T.);
#89=FACE_OUTER_BOUND('',#143,.T.);
#90=FACE_OUTER_BOUND('',#144,.T.);
#91=FACE_OUTER_BOUND('',#145,.T.);
#92=FACE_OUTER_BOUND('',#146,.T.);
#93=FACE_OUTER_BOUND('',#147,.T.);
#94=FACE_OUTER_BOUND('',#148,.T.);
#95=FACE_OUTER_BOUND('',#149,.T.);
#96=FACE_OUTER_BOUND('',#150,.T.);
#97=FACE_OUTER_BOUND('',#151,.T.);
#98=FACE_OUTER_BOUND('',#153,.T.);
#99=FACE_OUTER_BOUND('',#158,.T.);
#100=FACE_OUTER_BOUND('',#159,.T.);
#101=FACE_OUTER_BOUND('',#164,.T.);
#102=FACE_OUTER_BOUND('',#165,.T.);
#103=FACE_OUTER_BOUND('',#166,.T.);
#104=EDGE_LOOP('',(#623,#624,#625));
#105=EDGE_LOOP('',(#626,#627,#628,#629));
#106=EDGE_LOOP('',(#630,#631,#632,#633,#634,#635,#636,#637,#638,#639,#640,
#641,#642,#643,#644,#645,#646,#647));
#107=EDGE_LOOP('',(#648,#649,#650,#651,#652,#653,#654,#655,#656,#657,#658,
#659));
#108=EDGE_LOOP('',(#660,#661,#662,#663));
#109=EDGE_LOOP('',(#664,#665,#666,#667,#668,#669));
#110=EDGE_LOOP('',(#670,#671,#672,#673));
#111=EDGE_LOOP('',(#674,#675,#676,#677));
#112=EDGE_LOOP('',(#678,#679,#680,#681));
#113=EDGE_LOOP('',(#682,#683,#684,#685));
#114=EDGE_LOOP('',(#686,#687,#688,#689,#690,#691));
#115=EDGE_LOOP('',(#692,#693,#694,#695));
#116=EDGE_LOOP('',(#696,#697,#698,#699));
#117=EDGE_LOOP('',(#700,#701,#702,#703,#704,#705));
#118=EDGE_LOOP('',(#706,#707,#708,#709));
#119=EDGE_LOOP('',(#710,#711,#712,#713,#714,#715,#716,#717,#718,#719,#720));
#120=EDGE_LOOP('',(#721));
#121=EDGE_LOOP('',(#722));
#122=EDGE_LOOP('',(#723,#724,#725,#726,#727,#728));
#123=EDGE_LOOP('',(#729));
#124=EDGE_LOOP('',(#730));
#125=EDGE_LOOP('',(#731,#732,#733,#734));
#126=EDGE_LOOP('',(#735,#736,#737,#738));
#127=EDGE_LOOP('',(#739,#740,#741,#742,#743));
#128=EDGE_LOOP('',(#744,#745,#746,#747));
#129=EDGE_LOOP('',(#748,#749,#750,#751));
#130=EDGE_LOOP('',(#752,#753,#754,#755));
#131=EDGE_LOOP('',(#756,#757,#758,#759));
#132=EDGE_LOOP('',(#760,#761,#762,#763));
#133=EDGE_LOOP('',(#764,#765,#766,#767));
#134=EDGE_LOOP('',(#768,#769,#770,#771));
#135=EDGE_LOOP('',(#772,#773,#774,#775));
#136=EDGE_LOOP('',(#776,#777,#778,#779));
#137=EDGE_LOOP('',(#780,#781,#782,#783));
#138=EDGE_LOOP('',(#784,#785,#786,#787));
#139=EDGE_LOOP('',(#788,#789,#790,#791));
#140=EDGE_LOOP('',(#792,#793,#794,#795));
#141=EDGE_LOOP('',(#796,#797,#798,#799,#800,#801,#802,#803));
#142=EDGE_LOOP('',(#804,#805,#806,#807));
#143=EDGE_LOOP('',(#808,#809,#810,#811));
#144=EDGE_LOOP('',(#812,#813,#814,#815));
#145=EDGE_LOOP('',(#816,#817,#818,#819));
#146=EDGE_LOOP('',(#820,#821,#822,#823));
#147=EDGE_LOOP('',(#824,#825,#826,#827));
#148=EDGE_LOOP('',(#828,#829,#830,#831));
#149=EDGE_LOOP('',(#832,#833,#834,#835));
#150=EDGE_LOOP('',(#836,#837,#838,#839));
#151=EDGE_LOOP('',(#840,#841,#842,#843,#844,#845,#846,#847,#848,#849));
#152=EDGE_LOOP('',(#850,#851,#852,#853,#854,#855,#856,#857));
#153=EDGE_LOOP('',(#858,#859,#860,#861,#862,#863,#864,#865));
#154=EDGE_LOOP('',(#866));
#155=EDGE_LOOP('',(#867));
#156=EDGE_LOOP('',(#868));
#157=EDGE_LOOP('',(#869));
#158=EDGE_LOOP('',(#870,#871,#872,#873));
#159=EDGE_LOOP('',(#874,#875,#876,#877));
#160=EDGE_LOOP('',(#878));
#161=EDGE_LOOP('',(#879));
#162=EDGE_LOOP('',(#880));
#163=EDGE_LOOP('',(#881));
#164=EDGE_LOOP('',(#882,#883,#884,#885));
#165=EDGE_LOOP('',(#886,#887,#888,#889,#890,#891,#892,#893,#894));
#166=EDGE_LOOP('',(#895,#896,#897,#898));
#167=CIRCLE('',#988,30.);
#168=CIRCLE('',#990,30.);
#169=CIRCLE('',#995,1.);
#170=CIRCLE('',#996,1.);
#171=CIRCLE('',#998,1.);
#172=CIRCLE('',#1001,1.);
#173=CIRCLE('',#1004,5.00000000000008);
#174=CIRCLE('',#1005,5.00000000000008);
#175=CIRCLE('',#1007,5.);
#176=CIRCLE('',#1011,5.);
#177=CIRCLE('',#1013,5.);
#178=CIRCLE('',#1015,22.5);
#179=CIRCLE('',#1016,22.5);
#180=CIRCLE('',#1017,5.);
#181=CIRCLE('',#1018,1.5);
#182=CIRCLE('',#1019,1.5);
#183=CIRCLE('',#1021,5.);
#184=CIRCLE('',#1022,5.);
#185=CIRCLE('',#1023,1.5);
#186=CIRCLE('',#1024,1.5);
#187=CIRCLE('',#1026,20.);
#188=CIRCLE('',#1027,2.5);
#189=CIRCLE('',#1029,20.);
#190=CIRCLE('',#1031,20.);
#191=CIRCLE('',#1034,2.5);
#192=CIRCLE('',#1036,2.5);
#193=CIRCLE('',#1038,20.);
#194=CIRCLE('',#1042,0.499999999999998);
#195=CIRCLE('',#1043,0.499999999999998);
#196=CIRCLE('',#1045,0.499999999999998);
#197=CIRCLE('',#1046,0.499999999999998);
#198=CIRCLE('',#1048,0.499999999999998);
#199=CIRCLE('',#1049,0.499999999999998);
#200=CIRCLE('',#1051,0.499999999999998);
#201=CIRCLE('',#1052,0.499999999999998);
#202=CIRCLE('',#1056,2.00000000000001);
#203=CIRCLE('',#1057,2.00000000000001);
#204=CIRCLE('',#1058,2.00000000000002);
#205=CIRCLE('',#1059,2.00000000000002);
#206=CIRCLE('',#1062,2.00000000000002);
#207=CIRCLE('',#1065,2.00000000000002);
#208=CIRCLE('',#1068,2.00000000000001);
#209=CIRCLE('',#1071,2.00000000000001);
#210=CIRCLE('',#1076,5.);
#211=CIRCLE('',#1079,5.);
#212=LINE('',#1369,#303);
#213=LINE('',#1372,#304);
#214=LINE('',#1375,#305);
#215=LINE('',#1378,#306);
#216=LINE('',#1381,#307);
#217=LINE('',#1383,#308);
#218=LINE('',#1385,#309);
#219=LINE('',#1387,#310);
#220=LINE('',#1389,#311);
#221=LINE('',#1391,#312);
#222=LINE('',#1393,#313);
#223=LINE('',#1395,#314);
#224=LINE('',#1397,#315);
#225=LINE('',#1399,#316);
#226=LINE('',#1403,#317);
#227=LINE('',#1405,#318);
#228=LINE('',#1407,#319);
#229=LINE('',#1419,#320);
#230=LINE('',#1422,#321);
#231=LINE('',#1424,#322);
#232=LINE('',#1426,#323);
#233=LINE('',#1428,#324);
#234=LINE('',#1430,#325);
#235=LINE('',#1432,#326);
#236=LINE('',#1434,#327);
#237=LINE('',#1436,#328);
#238=LINE('',#1437,#329);
#239=LINE('',#1443,#330);
#240=LINE('',#1446,#331);
#241=LINE('',#1448,#332);
#242=LINE('',#1450,#333);
#243=LINE('',#1453,#334);
#244=LINE('',#1455,#335);
#245=LINE('',#1458,#336);
#246=LINE('',#1461,#337);
#247=LINE('',#1463,#338);
#248=LINE('',#1468,#339);
#249=LINE('',#1472,#340);
#250=LINE('',#1474,#341);
#251=LINE('',#1476,#342);
#252=LINE('',#1480,#343);
#253=LINE('',#1481,#344);
#254=LINE('',#1484,#345);
#255=LINE('',#1485,#346);
#256=LINE('',#1489,#347);
#257=LINE('',#1492,#348);
#258=LINE('',#1498,#349);
#259=LINE('',#1501,#350);
#260=LINE('',#1503,#351);
#261=LINE('',#1506,#352);
#262=LINE('',#1513,#353);
#263=LINE('',#1517,#354);
#264=LINE('',#1530,#355);
#265=LINE('',#1533,#356);
#266=LINE('',#1536,#357);
#267=LINE('',#1539,#358);
#268=LINE('',#1540,#359);
#269=LINE('',#1546,#360);
#270=LINE('',#1550,#361);
#271=LINE('',#1556,#362);
#272=LINE('',#1562,#363);
#273=LINE('',#1568,#364);
#274=LINE('',#1574,#365);
#275=LINE('',#1577,#366);
#276=LINE('',#1579,#367);
#277=LINE('',#1582,#368);
#278=LINE('',#1583,#369);
#279=LINE('',#1588,#370);
#280=LINE('',#1592,#371);
#281=LINE('',#1596,#372);
#282=LINE('',#1599,#373);
#283=LINE('',#1603,#374);
#284=LINE('',#1604,#375);
#285=LINE('',#1605,#376);
#286=LINE('',#1609,#377);
#287=LINE('',#1612,#378);
#288=LINE('',#1613,#379);
#289=LINE('',#1617,#380);
#290=LINE('',#1620,#381);
#291=LINE('',#1621,#382);
#292=LINE('',#1625,#383);
#293=LINE('',#1628,#384);
#294=LINE('',#1629,#385);
#295=LINE('',#1633,#386);
#296=LINE('',#1636,#387);
#297=LINE('',#1637,#388);
#298=LINE('',#1639,#389);
#299=LINE('',#1641,#390);
#300=LINE('',#1642,#391);
#301=LINE('',#1647,#392);
#302=LINE('',#1648,#393);
#303=VECTOR('',#1086,10.);
#304=VECTOR('',#1089,10.);
#305=VECTOR('',#1092,10.);
#306=VECTOR('',#1095,10.);
#307=VECTOR('',#1098,10.);
#308=VECTOR('',#1099,10.);
#309=VECTOR('',#1100,10.);
#310=VECTOR('',#1101,10.);
#311=VECTOR('',#1102,10.);
#312=VECTOR('',#1103,10.);
#313=VECTOR('',#1104,10.);
#314=VECTOR('',#1105,10.);
#315=VECTOR('',#1106,10.);
#316=VECTOR('',#1107,10.);
#317=VECTOR('',#1110,10.);
#318=VECTOR('',#1111,10.);
#319=VECTOR('',#1112,10.);
#320=VECTOR('',#1113,10.);
#321=VECTOR('',#1116,10.);
#322=VECTOR('',#1117,10.);
#323=VECTOR('',#1118,10.);
#324=VECTOR('',#1119,10.);
#325=VECTOR('',#1120,10.);
#326=VECTOR('',#1121,10.);
#327=VECTOR('',#1122,10.);
#328=VECTOR('',#1123,10.);
#329=VECTOR('',#1124,10.);
#330=VECTOR('',#1129,10.);
#331=VECTOR('',#1132,10.);
#332=VECTOR('',#1135,10.);
#333=VECTOR('',#1136,10.);
#334=VECTOR('',#1139,10.);
#335=VECTOR('',#1142,10.);
#336=VECTOR('',#1145,10.);
#337=VECTOR('',#1148,10.);
#338=VECTOR('',#1151,10.);
#339=VECTOR('',#1156,10.);
#340=VECTOR('',#1161,10.);
#341=VECTOR('',#1162,10.);
#342=VECTOR('',#1163,10.);
#343=VECTOR('',#1168,10.);
#344=VECTOR('',#1169,10.);
#345=VECTOR('',#1172,10.);
#346=VECTOR('',#1173,10.);
#347=VECTOR('',#1178,10.);
#348=VECTOR('',#1181,10.);
#349=VECTOR('',#1188,10.);
#350=VECTOR('',#1191,10.);
#351=VECTOR('',#1192,10.);
#352=VECTOR('',#1195,10.);
#353=VECTOR('',#1202,10.);
#354=VECTOR('',#1205,10.);
#355=VECTOR('',#1222,10.);
#356=VECTOR('',#1225,10.);
#357=VECTOR('',#1228,10.);
#358=VECTOR('',#1231,10.);
#359=VECTOR('',#1232,10.);
#360=VECTOR('',#1241,10.);
#361=VECTOR('',#1248,10.);
#362=VECTOR('',#1255,0.499999999999998);
#363=VECTOR('',#1262,0.499999999999998);
#364=VECTOR('',#1269,0.499999999999998);
#365=VECTOR('',#1276,0.499999999999998);
#366=VECTOR('',#1281,1.5);
#367=VECTOR('',#1284,1.5);
#368=VECTOR('',#1287,10.);
#369=VECTOR('',#1288,10.);
#370=VECTOR('',#1291,10.);
#371=VECTOR('',#1294,10.);
#372=VECTOR('',#1297,10.);
#373=VECTOR('',#1300,10.);
#374=VECTOR('',#1303,10.);
#375=VECTOR('',#1304,10.);
#376=VECTOR('',#1305,10.);
#377=VECTOR('',#1310,10.);
#378=VECTOR('',#1313,10.);
#379=VECTOR('',#1314,10.);
#380=VECTOR('',#1319,10.);
#381=VECTOR('',#1322,10.);
#382=VECTOR('',#1323,10.);
#383=VECTOR('',#1328,10.);
#384=VECTOR('',#1331,10.);
#385=VECTOR('',#1332,10.);
#386=VECTOR('',#1339,10.);
#387=VECTOR('',#1342,10.);
#388=VECTOR('',#1343,10.);
#389=VECTOR('',#1346,10.);
#390=VECTOR('',#1347,10.);
#391=VECTOR('',#1348,10.);
#392=VECTOR('',#1355,10.);
#393=VECTOR('',#1356,10.);
#394=VERTEX_POINT('',#1367);
#395=VERTEX_POINT('',#1368);
#396=VERTEX_POINT('',#1370);
#397=VERTEX_POINT('',#1374);
#398=VERTEX_POINT('',#1376);
#399=VERTEX_POINT('',#1380);
#400=VERTEX_POINT('',#1382);
#401=VERTEX_POINT('',#1384);
#402=VERTEX_POINT('',#1386);
#403=VERTEX_POINT('',#1388);
#404=VERTEX_POINT('',#1390);
#405=VERTEX_POINT('',#1392);
#406=VERTEX_POINT('',#1394);
#407=VERTEX_POINT('',#1396);
#408=VERTEX_POINT('',#1398);
#409=VERTEX_POINT('',#1400);
#410=VERTEX_POINT('',#1402);
#411=VERTEX_POINT('',#1404);
#412=VERTEX_POINT('',#1406);
#413=VERTEX_POINT('',#1408);
#414=VERTEX_POINT('',#1421);
#415=VERTEX_POINT('',#1423);
#416=VERTEX_POINT('',#1425);
#417=VERTEX_POINT('',#1427);
#418=VERTEX_POINT('',#1429);
#419=VERTEX_POINT('',#1431);
#420=VERTEX_POINT('',#1433);
#421=VERTEX_POINT('',#1435);
#422=VERTEX_POINT('',#1439);
#423=VERTEX_POINT('',#1440);
#424=VERTEX_POINT('',#1442);
#425=VERTEX_POINT('',#1444);
#426=VERTEX_POINT('',#1449);
#427=VERTEX_POINT('',#1451);
#428=VERTEX_POINT('',#1457);
#429=VERTEX_POINT('',#1459);
#430=VERTEX_POINT('',#1465);
#431=VERTEX_POINT('',#1467);
#432=VERTEX_POINT('',#1471);
#433=VERTEX_POINT('',#1473);
#434=VERTEX_POINT('',#1475);
#435=VERTEX_POINT('',#1479);
#436=VERTEX_POINT('',#1483);
#437=VERTEX_POINT('',#1487);
#438=VERTEX_POINT('',#1491);
#439=VERTEX_POINT('',#1495);
#440=VERTEX_POINT('',#1497);
#441=VERTEX_POINT('',#1499);
#442=VERTEX_POINT('',#1502);
#443=VERTEX_POINT('',#1504);
#444=VERTEX_POINT('',#1507);
#445=VERTEX_POINT('',#1509);
#446=VERTEX_POINT('',#1512);
#447=VERTEX_POINT('',#1514);
#448=VERTEX_POINT('',#1516);
#449=VERTEX_POINT('',#1519);
#450=VERTEX_POINT('',#1521);
#451=VERTEX_POINT('',#1524);
#452=VERTEX_POINT('',#1528);
#453=VERTEX_POINT('',#1532);
#454=VERTEX_POINT('',#1534);
#455=VERTEX_POINT('',#1538);
#456=VERTEX_POINT('',#1544);
#457=VERTEX_POINT('',#1553);
#458=VERTEX_POINT('',#1555);
#459=VERTEX_POINT('',#1559);
#460=VERTEX_POINT('',#1561);
#461=VERTEX_POINT('',#1565);
#462=VERTEX_POINT('',#1567);
#463=VERTEX_POINT('',#1571);
#464=VERTEX_POINT('',#1573);
#465=VERTEX_POINT('',#1581);
#466=VERTEX_POINT('',#1584);
#467=VERTEX_POINT('',#1585);
#468=VERTEX_POINT('',#1587);
#469=VERTEX_POINT('',#1589);
#470=VERTEX_POINT('',#1591);
#471=VERTEX_POINT('',#1593);
#472=VERTEX_POINT('',#1595);
#473=VERTEX_POINT('',#1597);
#474=VERTEX_POINT('',#1601);
#475=VERTEX_POINT('',#1602);
#476=VERTEX_POINT('',#1607);
#477=VERTEX_POINT('',#1611);
#478=VERTEX_POINT('',#1615);
#479=VERTEX_POINT('',#1619);
#480=VERTEX_POINT('',#1623);
#481=VERTEX_POINT('',#1627);
#482=VERTEX_POINT('',#1635);
#483=VERTEX_POINT('',#1640);
#484=VERTEX_POINT('',#1646);
#485=EDGE_CURVE('',#394,#395,#212,.T.);
#486=EDGE_CURVE('',#396,#394,#167,.T.);
#487=EDGE_CURVE('',#395,#396,#213,.T.);
#488=EDGE_CURVE('',#397,#394,#214,.T.);
#489=EDGE_CURVE('',#398,#397,#168,.T.);
#490=EDGE_CURVE('',#396,#398,#215,.T.);
#491=EDGE_CURVE('',#395,#399,#216,.T.);
#492=EDGE_CURVE('',#399,#400,#217,.T.);
#493=EDGE_CURVE('',#400,#401,#218,.T.);
#494=EDGE_CURVE('',#401,#402,#219,.T.);
#495=EDGE_CURVE('',#402,#403,#220,.T.);
#496=EDGE_CURVE('',#403,#404,#221,.T.);
#497=EDGE_CURVE('',#404,#405,#222,.T.);
#498=EDGE_CURVE('',#405,#406,#223,.T.);
#499=EDGE_CURVE('',#407,#406,#224,.T.);
#500=EDGE_CURVE('',#407,#408,#225,.T.);
#501=EDGE_CURVE('',#408,#409,#32,.T.);
#502=EDGE_CURVE('',#409,#410,#226,.T.);
#503=EDGE_CURVE('',#410,#411,#227,.T.);
#504=EDGE_CURVE('',#411,#412,#228,.T.);
#505=EDGE_CURVE('',#412,#413,#31,.T.);
#506=EDGE_CURVE('',#413,#397,#229,.T.);
#507=EDGE_CURVE('',#414,#398,#230,.T.);
#508=EDGE_CURVE('',#415,#414,#231,.T.);
#509=EDGE_CURVE('',#416,#415,#232,.T.);
#510=EDGE_CURVE('',#417,#416,#233,.T.);
#511=EDGE_CURVE('',#418,#417,#234,.T.);
#512=EDGE_CURVE('',#419,#418,#235,.T.);
#513=EDGE_CURVE('',#420,#419,#236,.T.);
#514=EDGE_CURVE('',#421,#420,#237,.T.);
#515=EDGE_CURVE('',#399,#421,#238,.T.);
#516=EDGE_CURVE('',#422,#423,#169,.T.);
#517=EDGE_CURVE('',#422,#424,#239,.T.);
#518=EDGE_CURVE('',#424,#425,#170,.T.);
#519=EDGE_CURVE('',#425,#423,#240,.T.);
#520=EDGE_CURVE('',#419,#423,#241,.T.);
#521=EDGE_CURVE('',#426,#418,#242,.T.);
#522=EDGE_CURVE('',#426,#427,#171,.T.);
#523=EDGE_CURVE('',#422,#427,#243,.T.);
#524=EDGE_CURVE('',#420,#425,#244,.T.);
#525=EDGE_CURVE('',#426,#428,#245,.T.);
#526=EDGE_CURVE('',#428,#429,#172,.T.);
#527=EDGE_CURVE('',#429,#427,#246,.T.);
#528=EDGE_CURVE('',#428,#417,#247,.T.);
#529=EDGE_CURVE('',#402,#430,#173,.T.);
#530=EDGE_CURVE('',#431,#430,#248,.T.);
#531=EDGE_CURVE('',#403,#431,#174,.T.);
#532=EDGE_CURVE('',#431,#432,#249,.T.);
#533=EDGE_CURVE('',#432,#433,#250,.T.);
#534=EDGE_CURVE('',#434,#433,#251,.T.);
#535=EDGE_CURVE('',#404,#434,#175,.T.);
#536=EDGE_CURVE('',#430,#435,#252,.T.);
#537=EDGE_CURVE('',#432,#435,#253,.T.);
#538=EDGE_CURVE('',#435,#436,#254,.T.);
#539=EDGE_CURVE('',#433,#436,#255,.T.);
#540=EDGE_CURVE('',#437,#401,#176,.T.);
#541=EDGE_CURVE('',#436,#437,#256,.T.);
#542=EDGE_CURVE('',#434,#438,#257,.T.);
#543=EDGE_CURVE('',#438,#405,#177,.T.);
#544=EDGE_CURVE('',#439,#413,#178,.T.);
#545=EDGE_CURVE('',#440,#439,#258,.T.);
#546=EDGE_CURVE('',#441,#440,#179,.T.);
#547=EDGE_CURVE('',#408,#441,#259,.T.);
#548=EDGE_CURVE('',#407,#442,#260,.T.);
#549=EDGE_CURVE('',#442,#443,#180,.T.);
#550=EDGE_CURVE('',#443,#414,#261,.T.);
#551=EDGE_CURVE('',#444,#444,#181,.T.);
#552=EDGE_CURVE('',#445,#445,#182,.T.);
#553=EDGE_CURVE('',#421,#446,#262,.T.);
#554=EDGE_CURVE('',#447,#446,#183,.T.);
#555=EDGE_CURVE('',#447,#448,#263,.T.);
#556=EDGE_CURVE('',#400,#448,#184,.T.);
#557=EDGE_CURVE('',#449,#449,#185,.T.);
#558=EDGE_CURVE('',#450,#450,#186,.T.);
#559=EDGE_CURVE('',#412,#451,#187,.T.);
#560=EDGE_CURVE('',#451,#439,#188,.T.);
#561=EDGE_CURVE('',#411,#452,#189,.T.);
#562=EDGE_CURVE('',#452,#451,#264,.T.);
#563=EDGE_CURVE('',#453,#410,#265,.T.);
#564=EDGE_CURVE('',#454,#453,#190,.T.);
#565=EDGE_CURVE('',#452,#454,#266,.T.);
#566=EDGE_CURVE('',#455,#409,#267,.T.);
#567=EDGE_CURVE('',#453,#455,#268,.T.);
#568=EDGE_CURVE('',#455,#441,#191,.T.);
#569=EDGE_CURVE('',#456,#440,#192,.T.);
#570=EDGE_CURVE('',#451,#456,#269,.T.);
#571=EDGE_CURVE('',#456,#455,#193,.T.);
#572=EDGE_CURVE('',#454,#456,#270,.T.);
#573=EDGE_CURVE('',#457,#457,#194,.T.);
#574=EDGE_CURVE('',#457,#458,#271,.T.);
#575=EDGE_CURVE('',#458,#458,#195,.T.);
#576=EDGE_CURVE('',#459,#459,#196,.T.);
#577=EDGE_CURVE('',#459,#460,#272,.T.);
#578=EDGE_CURVE('',#460,#460,#197,.T.);
#579=EDGE_CURVE('',#461,#461,#198,.T.);
#580=EDGE_CURVE('',#461,#462,#273,.T.);
#581=EDGE_CURVE('',#462,#462,#199,.T.);
#582=EDGE_CURVE('',#463,#463,#200,.T.);
#583=EDGE_CURVE('',#463,#464,#274,.T.);
#584=EDGE_CURVE('',#464,#464,#201,.T.);
#585=EDGE_CURVE('',#445,#450,#275,.T.);
#586=EDGE_CURVE('',#444,#449,#276,.T.);
#587=EDGE_CURVE('',#465,#443,#277,.T.);
#588=EDGE_CURVE('',#415,#465,#278,.T.);
#589=EDGE_CURVE('',#466,#467,#202,.T.);
#590=EDGE_CURVE('',#467,#468,#279,.T.);
#591=EDGE_CURVE('',#468,#469,#203,.T.);
#592=EDGE_CURVE('',#469,#470,#280,.T.);
#593=EDGE_CURVE('',#470,#471,#204,.T.);
#594=EDGE_CURVE('',#471,#472,#281,.T.);
#595=EDGE_CURVE('',#472,#473,#205,.T.);
#596=EDGE_CURVE('',#473,#466,#282,.T.);
#597=EDGE_CURVE('',#474,#475,#283,.T.);
#598=EDGE_CURVE('',#474,#466,#284,.T.);
#599=EDGE_CURVE('',#475,#473,#285,.T.);
#600=EDGE_CURVE('',#475,#476,#206,.T.);
#601=EDGE_CURVE('',#476,#472,#286,.T.);
#602=EDGE_CURVE('',#476,#477,#287,.T.);
#603=EDGE_CURVE('',#477,#471,#288,.T.);
#604=EDGE_CURVE('',#477,#478,#207,.T.);
#605=EDGE_CURVE('',#478,#470,#289,.T.);
#606=EDGE_CURVE('',#478,#479,#290,.T.);
#607=EDGE_CURVE('',#479,#469,#291,.T.);
#608=EDGE_CURVE('',#479,#480,#208,.T.);
#609=EDGE_CURVE('',#480,#468,#292,.T.);
#610=EDGE_CURVE('',#480,#481,#293,.T.);
#611=EDGE_CURVE('',#481,#467,#294,.T.);
#612=EDGE_CURVE('',#481,#474,#209,.T.);
#613=EDGE_CURVE('',#424,#429,#295,.T.);
#614=EDGE_CURVE('',#482,#416,#296,.T.);
#615=EDGE_CURVE('',#446,#482,#297,.T.);
#616=EDGE_CURVE('',#448,#437,#298,.T.);
#617=EDGE_CURVE('',#483,#447,#299,.T.);
#618=EDGE_CURVE('',#438,#483,#300,.T.);
#619=EDGE_CURVE('',#482,#483,#210,.T.);
#620=EDGE_CURVE('',#442,#484,#301,.T.);
#621=EDGE_CURVE('',#484,#406,#302,.T.);
#622=EDGE_CURVE('',#484,#465,#211,.T.);
#623=ORIENTED_EDGE('',*,*,#485,.F.);
#624=ORIENTED_EDGE('',*,*,#486,.F.);
#625=ORIENTED_EDGE('',*,*,#487,.F.);
#626=ORIENTED_EDGE('',*,*,#488,.F.);
#627=ORIENTED_EDGE('',*,*,#489,.F.);
#628=ORIENTED_EDGE('',*,*,#490,.F.);
#629=ORIENTED_EDGE('',*,*,#486,.T.);
#630=ORIENTED_EDGE('',*,*,#488,.T.);
#631=ORIENTED_EDGE('',*,*,#485,.T.);
#632=ORIENTED_EDGE('',*,*,#491,.T.);
#633=ORIENTED_EDGE('',*,*,#492,.T.);
#634=ORIENTED_EDGE('',*,*,#493,.T.);
#635=ORIENTED_EDGE('',*,*,#494,.T.);
#636=ORIENTED_EDGE('',*,*,#495,.T.);
#637=ORIENTED_EDGE('',*,*,#496,.T.);
#638=ORIENTED_EDGE('',*,*,#497,.T.);
#639=ORIENTED_EDGE('',*,*,#498,.T.);
#640=ORIENTED_EDGE('',*,*,#499,.F.);
#641=ORIENTED_EDGE('',*,*,#500,.T.);
#642=ORIENTED_EDGE('',*,*,#501,.T.);
#643=ORIENTED_EDGE('',*,*,#502,.T.);
#644=ORIENTED_EDGE('',*,*,#503,.T.);
#645=ORIENTED_EDGE('',*,*,#504,.T.);
#646=ORIENTED_EDGE('',*,*,#505,.T.);
#647=ORIENTED_EDGE('',*,*,#506,.T.);
#648=ORIENTED_EDGE('',*,*,#487,.T.);
#649=ORIENTED_EDGE('',*,*,#490,.T.);
#650=ORIENTED_EDGE('',*,*,#507,.F.);
#651=ORIENTED_EDGE('',*,*,#508,.F.);
#652=ORIENTED_EDGE('',*,*,#509,.F.);
#653=ORIENTED_EDGE('',*,*,#510,.F.);
#654=ORIENTED_EDGE('',*,*,#511,.F.);
#655=ORIENTED_EDGE('',*,*,#512,.F.);
#656=ORIENTED_EDGE('',*,*,#513,.F.);
#657=ORIENTED_EDGE('',*,*,#514,.F.);
#658=ORIENTED_EDGE('',*,*,#515,.F.);
#659=ORIENTED_EDGE('',*,*,#491,.F.);
#660=ORIENTED_EDGE('',*,*,#516,.F.);
#661=ORIENTED_EDGE('',*,*,#517,.T.);
#662=ORIENTED_EDGE('',*,*,#518,.T.);
#663=ORIENTED_EDGE('',*,*,#519,.T.);
#664=ORIENTED_EDGE('',*,*,#516,.T.);
#665=ORIENTED_EDGE('',*,*,#520,.F.);
#666=ORIENTED_EDGE('',*,*,#512,.T.);
#667=ORIENTED_EDGE('',*,*,#521,.F.);
#668=ORIENTED_EDGE('',*,*,#522,.T.);
#669=ORIENTED_EDGE('',*,*,#523,.F.);
#670=ORIENTED_EDGE('',*,*,#519,.F.);
#671=ORIENTED_EDGE('',*,*,#524,.F.);
#672=ORIENTED_EDGE('',*,*,#513,.T.);
#673=ORIENTED_EDGE('',*,*,#520,.T.);
#674=ORIENTED_EDGE('',*,*,#522,.F.);
#675=ORIENTED_EDGE('',*,*,#525,.T.);
#676=ORIENTED_EDGE('',*,*,#526,.T.);
#677=ORIENTED_EDGE('',*,*,#527,.T.);
#678=ORIENTED_EDGE('',*,*,#525,.F.);
#679=ORIENTED_EDGE('',*,*,#521,.T.);
#680=ORIENTED_EDGE('',*,*,#511,.T.);
#681=ORIENTED_EDGE('',*,*,#528,.F.);
#682=ORIENTED_EDGE('',*,*,#495,.F.);
#683=ORIENTED_EDGE('',*,*,#529,.T.);
#684=ORIENTED_EDGE('',*,*,#530,.F.);
#685=ORIENTED_EDGE('',*,*,#531,.F.);
#686=ORIENTED_EDGE('',*,*,#496,.F.);
#687=ORIENTED_EDGE('',*,*,#531,.T.);
#688=ORIENTED_EDGE('',*,*,#532,.T.);
#689=ORIENTED_EDGE('',*,*,#533,.T.);
#690=ORIENTED_EDGE('',*,*,#534,.F.);
#691=ORIENTED_EDGE('',*,*,#535,.F.);
#692=ORIENTED_EDGE('',*,*,#532,.F.);
#693=ORIENTED_EDGE('',*,*,#530,.T.);
#694=ORIENTED_EDGE('',*,*,#536,.T.);
#695=ORIENTED_EDGE('',*,*,#537,.F.);
#696=ORIENTED_EDGE('',*,*,#533,.F.);
#697=ORIENTED_EDGE('',*,*,#537,.T.);
#698=ORIENTED_EDGE('',*,*,#538,.T.);
#699=ORIENTED_EDGE('',*,*,#539,.F.);
#700=ORIENTED_EDGE('',*,*,#494,.F.);
#701=ORIENTED_EDGE('',*,*,#540,.F.);
#702=ORIENTED_EDGE('',*,*,#541,.F.);
#703=ORIENTED_EDGE('',*,*,#538,.F.);
#704=ORIENTED_EDGE('',*,*,#536,.F.);
#705=ORIENTED_EDGE('',*,*,#529,.F.);
#706=ORIENTED_EDGE('',*,*,#535,.T.);
#707=ORIENTED_EDGE('',*,*,#542,.T.);
#708=ORIENTED_EDGE('',*,*,#543,.T.);
#709=ORIENTED_EDGE('',*,*,#497,.F.);
#710=ORIENTED_EDGE('',*,*,#489,.T.);
#711=ORIENTED_EDGE('',*,*,#506,.F.);
#712=ORIENTED_EDGE('',*,*,#544,.F.);
#713=ORIENTED_EDGE('',*,*,#545,.F.);
#714=ORIENTED_EDGE('',*,*,#546,.F.);
#715=ORIENTED_EDGE('',*,*,#547,.F.);
#716=ORIENTED_EDGE('',*,*,#500,.F.);
#717=ORIENTED_EDGE('',*,*,#548,.T.);
#718=ORIENTED_EDGE('',*,*,#549,.T.);
#719=ORIENTED_EDGE('',*,*,#550,.T.);
#720=ORIENTED_EDGE('',*,*,#507,.T.);
#721=ORIENTED_EDGE('',*,*,#551,.T.);
#722=ORIENTED_EDGE('',*,*,#552,.T.);
#723=ORIENTED_EDGE('',*,*,#515,.T.);
#724=ORIENTED_EDGE('',*,*,#553,.T.);
#725=ORIENTED_EDGE('',*,*,#554,.F.);
#726=ORIENTED_EDGE('',*,*,#555,.T.);
#727=ORIENTED_EDGE('',*,*,#556,.F.);
#728=ORIENTED_EDGE('',*,*,#492,.F.);
#729=ORIENTED_EDGE('',*,*,#557,.T.);
#730=ORIENTED_EDGE('',*,*,#558,.T.);
#731=ORIENTED_EDGE('',*,*,#505,.F.);
#732=ORIENTED_EDGE('',*,*,#559,.T.);
#733=ORIENTED_EDGE('',*,*,#560,.T.);
#734=ORIENTED_EDGE('',*,*,#544,.T.);
#735=ORIENTED_EDGE('',*,*,#504,.F.);
#736=ORIENTED_EDGE('',*,*,#561,.T.);
#737=ORIENTED_EDGE('',*,*,#562,.T.);
#738=ORIENTED_EDGE('',*,*,#559,.F.);
#739=ORIENTED_EDGE('',*,*,#503,.F.);
#740=ORIENTED_EDGE('',*,*,#563,.F.);
#741=ORIENTED_EDGE('',*,*,#564,.F.);
#742=ORIENTED_EDGE('',*,*,#565,.F.);
#743=ORIENTED_EDGE('',*,*,#561,.F.);
#744=ORIENTED_EDGE('',*,*,#502,.F.);
#745=ORIENTED_EDGE('',*,*,#566,.F.);
#746=ORIENTED_EDGE('',*,*,#567,.F.);
#747=ORIENTED_EDGE('',*,*,#563,.T.);
#748=ORIENTED_EDGE('',*,*,#501,.F.);
#749=ORIENTED_EDGE('',*,*,#547,.T.);
#750=ORIENTED_EDGE('',*,*,#568,.F.);
#751=ORIENTED_EDGE('',*,*,#566,.T.);
#752=ORIENTED_EDGE('',*,*,#569,.T.);
#753=ORIENTED_EDGE('',*,*,#545,.T.);
#754=ORIENTED_EDGE('',*,*,#560,.F.);
#755=ORIENTED_EDGE('',*,*,#570,.T.);
#756=ORIENTED_EDGE('',*,*,#568,.T.);
#757=ORIENTED_EDGE('',*,*,#546,.T.);
#758=ORIENTED_EDGE('',*,*,#569,.F.);
#759=ORIENTED_EDGE('',*,*,#571,.T.);
#760=ORIENTED_EDGE('',*,*,#571,.F.);
#761=ORIENTED_EDGE('',*,*,#572,.F.);
#762=ORIENTED_EDGE('',*,*,#564,.T.);
#763=ORIENTED_EDGE('',*,*,#567,.T.);
#764=ORIENTED_EDGE('',*,*,#570,.F.);
#765=ORIENTED_EDGE('',*,*,#562,.F.);
#766=ORIENTED_EDGE('',*,*,#565,.T.);
#767=ORIENTED_EDGE('',*,*,#572,.T.);
#768=ORIENTED_EDGE('',*,*,#573,.F.);
#769=ORIENTED_EDGE('',*,*,#574,.T.);
#770=ORIENTED_EDGE('',*,*,#575,.F.);
#771=ORIENTED_EDGE('',*,*,#574,.F.);
#772=ORIENTED_EDGE('',*,*,#576,.F.);
#773=ORIENTED_EDGE('',*,*,#577,.T.);
#774=ORIENTED_EDGE('',*,*,#578,.F.);
#775=ORIENTED_EDGE('',*,*,#577,.F.);
#776=ORIENTED_EDGE('',*,*,#579,.F.);
#777=ORIENTED_EDGE('',*,*,#580,.T.);
#778=ORIENTED_EDGE('',*,*,#581,.F.);
#779=ORIENTED_EDGE('',*,*,#580,.F.);
#780=ORIENTED_EDGE('',*,*,#582,.F.);
#781=ORIENTED_EDGE('',*,*,#583,.T.);
#782=ORIENTED_EDGE('',*,*,#584,.F.);
#783=ORIENTED_EDGE('',*,*,#583,.F.);
#784=ORIENTED_EDGE('',*,*,#552,.F.);
#785=ORIENTED_EDGE('',*,*,#585,.T.);
#786=ORIENTED_EDGE('',*,*,#558,.F.);
#787=ORIENTED_EDGE('',*,*,#585,.F.);
#788=ORIENTED_EDGE('',*,*,#551,.F.);
#789=ORIENTED_EDGE('',*,*,#586,.T.);
#790=ORIENTED_EDGE('',*,*,#557,.F.);
#791=ORIENTED_EDGE('',*,*,#586,.F.);
#792=ORIENTED_EDGE('',*,*,#508,.T.);
#793=ORIENTED_EDGE('',*,*,#550,.F.);
#794=ORIENTED_EDGE('',*,*,#587,.F.);
#795=ORIENTED_EDGE('',*,*,#588,.F.);
#796=ORIENTED_EDGE('',*,*,#589,.T.);
#797=ORIENTED_EDGE('',*,*,#590,.T.);
#798=ORIENTED_EDGE('',*,*,#591,.T.);
#799=ORIENTED_EDGE('',*,*,#592,.T.);
#800=ORIENTED_EDGE('',*,*,#593,.T.);
#801=ORIENTED_EDGE('',*,*,#594,.T.);
#802=ORIENTED_EDGE('',*,*,#595,.T.);
#803=ORIENTED_EDGE('',*,*,#596,.T.);
#804=ORIENTED_EDGE('',*,*,#597,.F.);
#805=ORIENTED_EDGE('',*,*,#598,.T.);
#806=ORIENTED_EDGE('',*,*,#596,.F.);
#807=ORIENTED_EDGE('',*,*,#599,.F.);
#808=ORIENTED_EDGE('',*,*,#600,.F.);
#809=ORIENTED_EDGE('',*,*,#599,.T.);
#810=ORIENTED_EDGE('',*,*,#595,.F.);
#811=ORIENTED_EDGE('',*,*,#601,.F.);
#812=ORIENTED_EDGE('',*,*,#602,.F.);
#813=ORIENTED_EDGE('',*,*,#601,.T.);
#814=ORIENTED_EDGE('',*,*,#594,.F.);
#815=ORIENTED_EDGE('',*,*,#603,.F.);
#816=ORIENTED_EDGE('',*,*,#604,.F.);
#817=ORIENTED_EDGE('',*,*,#603,.T.);
#818=ORIENTED_EDGE('',*,*,#593,.F.);
#819=ORIENTED_EDGE('',*,*,#605,.F.);
#820=ORIENTED_EDGE('',*,*,#606,.F.);
#821=ORIENTED_EDGE('',*,*,#605,.T.);
#822=ORIENTED_EDGE('',*,*,#592,.F.);
#823=ORIENTED_EDGE('',*,*,#607,.F.);
#824=ORIENTED_EDGE('',*,*,#608,.F.);
#825=ORIENTED_EDGE('',*,*,#607,.T.);
#826=ORIENTED_EDGE('',*,*,#591,.F.);
#827=ORIENTED_EDGE('',*,*,#609,.F.);
#828=ORIENTED_EDGE('',*,*,#610,.F.);
#829=ORIENTED_EDGE('',*,*,#609,.T.);
#830=ORIENTED_EDGE('',*,*,#590,.F.);
#831=ORIENTED_EDGE('',*,*,#611,.F.);
#832=ORIENTED_EDGE('',*,*,#612,.F.);
#833=ORIENTED_EDGE('',*,*,#611,.T.);
#834=ORIENTED_EDGE('',*,*,#589,.F.);
#835=ORIENTED_EDGE('',*,*,#598,.F.);
#836=ORIENTED_EDGE('',*,*,#517,.F.);
#837=ORIENTED_EDGE('',*,*,#523,.T.);
#838=ORIENTED_EDGE('',*,*,#527,.F.);
#839=ORIENTED_EDGE('',*,*,#613,.F.);
#840=ORIENTED_EDGE('',*,*,#510,.T.);
#841=ORIENTED_EDGE('',*,*,#614,.F.);
#842=ORIENTED_EDGE('',*,*,#615,.F.);
#843=ORIENTED_EDGE('',*,*,#553,.F.);
#844=ORIENTED_EDGE('',*,*,#514,.T.);
#845=ORIENTED_EDGE('',*,*,#524,.T.);
#846=ORIENTED_EDGE('',*,*,#518,.F.);
#847=ORIENTED_EDGE('',*,*,#613,.T.);
#848=ORIENTED_EDGE('',*,*,#526,.F.);
#849=ORIENTED_EDGE('',*,*,#528,.T.);
#850=ORIENTED_EDGE('',*,*,#612,.T.);
#851=ORIENTED_EDGE('',*,*,#597,.T.);
#852=ORIENTED_EDGE('',*,*,#600,.T.);
#853=ORIENTED_EDGE('',*,*,#602,.T.);
#854=ORIENTED_EDGE('',*,*,#604,.T.);
#855=ORIENTED_EDGE('',*,*,#606,.T.);
#856=ORIENTED_EDGE('',*,*,#608,.T.);
#857=ORIENTED_EDGE('',*,*,#610,.T.);
#858=ORIENTED_EDGE('',*,*,#541,.T.);
#859=ORIENTED_EDGE('',*,*,#616,.F.);
#860=ORIENTED_EDGE('',*,*,#555,.F.);
#861=ORIENTED_EDGE('',*,*,#617,.F.);
#862=ORIENTED_EDGE('',*,*,#618,.F.);
#863=ORIENTED_EDGE('',*,*,#542,.F.);
#864=ORIENTED_EDGE('',*,*,#534,.T.);
#865=ORIENTED_EDGE('',*,*,#539,.T.);
#866=ORIENTED_EDGE('',*,*,#582,.T.);
#867=ORIENTED_EDGE('',*,*,#579,.T.);
#868=ORIENTED_EDGE('',*,*,#576,.T.);
#869=ORIENTED_EDGE('',*,*,#573,.T.);
#870=ORIENTED_EDGE('',*,*,#554,.T.);
#871=ORIENTED_EDGE('',*,*,#615,.T.);
#872=ORIENTED_EDGE('',*,*,#619,.T.);
#873=ORIENTED_EDGE('',*,*,#617,.T.);
#874=ORIENTED_EDGE('',*,*,#620,.F.);
#875=ORIENTED_EDGE('',*,*,#548,.F.);
#876=ORIENTED_EDGE('',*,*,#499,.T.);
#877=ORIENTED_EDGE('',*,*,#621,.F.);
#878=ORIENTED_EDGE('',*,*,#584,.T.);
#879=ORIENTED_EDGE('',*,*,#581,.T.);
#880=ORIENTED_EDGE('',*,*,#578,.T.);
#881=ORIENTED_EDGE('',*,*,#575,.T.);
#882=ORIENTED_EDGE('',*,*,#549,.F.);
#883=ORIENTED_EDGE('',*,*,#620,.T.);
#884=ORIENTED_EDGE('',*,*,#622,.T.);
#885=ORIENTED_EDGE('',*,*,#587,.T.);
#886=ORIENTED_EDGE('',*,*,#509,.T.);
#887=ORIENTED_EDGE('',*,*,#588,.T.);
#888=ORIENTED_EDGE('',*,*,#622,.F.);
#889=ORIENTED_EDGE('',*,*,#621,.T.);
#890=ORIENTED_EDGE('',*,*,#498,.F.);
#891=ORIENTED_EDGE('',*,*,#543,.F.);
#892=ORIENTED_EDGE('',*,*,#618,.T.);
#893=ORIENTED_EDGE('',*,*,#619,.F.);
#894=ORIENTED_EDGE('',*,*,#614,.T.);
#895=ORIENTED_EDGE('',*,*,#540,.T.);
#896=ORIENTED_EDGE('',*,*,#493,.F.);
#897=ORIENTED_EDGE('',*,*,#556,.T.);
#898=ORIENTED_EDGE('',*,*,#616,.T.);
#899=PLANE('',#987);
#900=PLANE('',#991);
#901=PLANE('',#993);
#902=PLANE('',#997);
#903=PLANE('',#999);
#904=PLANE('',#1002);
#905=PLANE('',#1006);
#906=PLANE('',#1008);
#907=PLANE('',#1009);
#908=PLANE('',#1010);
#909=PLANE('',#1014);
#910=PLANE('',#1020);
#911=PLANE('',#1030);
#912=PLANE('',#1032);
#913=PLANE('',#1040);
#914=PLANE('',#1055);
#915=PLANE('',#1060);
#916=PLANE('',#1063);
#917=PLANE('',#1066);
#918=PLANE('',#1069);
#919=PLANE('',#1072);
#920=PLANE('',#1073);
#921=PLANE('',#1074);
#922=PLANE('',#1077);
#923=PLANE('',#1080);
#924=ADVANCED_FACE('',(#55),#899,.T.);
#925=ADVANCED_FACE('',(#56),#33,.F.);
#926=ADVANCED_FACE('',(#57),#900,.T.);
#927=ADVANCED_FACE('',(#58),#901,.F.);
#928=ADVANCED_FACE('',(#59),#34,.F.);
#929=ADVANCED_FACE('',(#60),#902,.F.);
#930=ADVANCED_FACE('',(#61),#903,.F.);
#931=ADVANCED_FACE('',(#62),#35,.F.);
#932=ADVANCED_FACE('',(#63),#904,.F.);
#933=ADVANCED_FACE('',(#64),#36,.T.);
#934=ADVANCED_FACE('',(#65),#905,.F.);
#935=ADVANCED_FACE('',(#66),#906,.F.);
#936=ADVANCED_FACE('',(#67),#907,.F.);
#937=ADVANCED_FACE('',(#68),#908,.T.);
#938=ADVANCED_FACE('',(#69),#37,.T.);
#939=ADVANCED_FACE('',(#70,#17,#18),#909,.F.);
#940=ADVANCED_FACE('',(#71,#19,#20),#910,.T.);
#941=ADVANCED_FACE('',(#72),#15,.F.);
#942=ADVANCED_FACE('',(#73),#38,.T.);
#943=ADVANCED_FACE('',(#74),#911,.F.);
#944=ADVANCED_FACE('',(#75),#912,.T.);
#945=ADVANCED_FACE('',(#76),#39,.F.);
#946=ADVANCED_FACE('',(#77),#40,.F.);
#947=ADVANCED_FACE('',(#78),#16,.F.);
#948=ADVANCED_FACE('',(#79),#41,.T.);
#949=ADVANCED_FACE('',(#80),#913,.T.);
#950=ADVANCED_FACE('',(#81),#42,.F.);
#951=ADVANCED_FACE('',(#82),#43,.F.);
#952=ADVANCED_FACE('',(#83),#44,.F.);
#953=ADVANCED_FACE('',(#84),#45,.F.);
#954=ADVANCED_FACE('',(#85),#46,.F.);
#955=ADVANCED_FACE('',(#86),#47,.F.);
#956=ADVANCED_FACE('',(#87,#21),#914,.T.);
#957=ADVANCED_FACE('',(#88),#915,.F.);
#958=ADVANCED_FACE('',(#89),#48,.F.);
#959=ADVANCED_FACE('',(#90),#916,.F.);
#960=ADVANCED_FACE('',(#91),#49,.F.);
#961=ADVANCED_FACE('',(#92),#917,.F.);
#962=ADVANCED_FACE('',(#93),#50,.F.);
#963=ADVANCED_FACE('',(#94),#918,.F.);
#964=ADVANCED_FACE('',(#95),#51,.F.);
#965=ADVANCED_FACE('',(#96),#919,.F.);
#966=ADVANCED_FACE('',(#97,#22),#920,.T.);
#967=ADVANCED_FACE('',(#98,#23,#24,#25,#26),#921,.T.);
#968=ADVANCED_FACE('',(#99),#52,.T.);
#969=ADVANCED_FACE('',(#100,#27,#28,#29,#30),#922,.T.);
#970=ADVANCED_FACE('',(#101),#53,.F.);
#971=ADVANCED_FACE('',(#102),#923,.T.);
#972=ADVANCED_FACE('',(#103),#54,.T.);
#973=CLOSED_SHELL('',(#924,#925,#926,#927,#928,#929,#930,#931,#932,#933,
#934,#935,#936,#937,#938,#939,#940,#941,#942,#943,#944,#945,#946,#947,#948,
#949,#950,#951,#952,#953,#954,#955,#956,#957,#958,#959,#960,#961,#962,#963,
#964,#965,#966,#967,#968,#969,#970,#971,#972));
#974=DERIVED_UNIT_ELEMENT(#976,1.);
#975=DERIVED_UNIT_ELEMENT(#1658,-3.);
#976=(
MASS_UNIT()
NAMED_UNIT(*)
SI_UNIT(.KILO.,.GRAM.)
);
#977=DERIVED_UNIT((#974,#975));
#978=MEASURE_REPRESENTATION_ITEM('density measure',
POSITIVE_RATIO_MEASURE(7850.),#977);
#979=PROPERTY_DEFINITION_REPRESENTATION(#984,#981);
#980=PROPERTY_DEFINITION_REPRESENTATION(#985,#982);
#981=REPRESENTATION('material name',(#983),#1655);
#982=REPRESENTATION('density',(#978),#1655);
#983=DESCRIPTIVE_REPRESENTATION_ITEM('Steel','Steel');
#984=PROPERTY_DEFINITION('material property','material name',#1665);
#985=PROPERTY_DEFINITION('material property','density of part',#1665);
#986=AXIS2_PLACEMENT_3D('',#1365,#1082,#1083);
#987=AXIS2_PLACEMENT_3D('',#1366,#1084,#1085);
#988=AXIS2_PLACEMENT_3D('',#1371,#1087,#1088);
#989=AXIS2_PLACEMENT_3D('',#1373,#1090,#1091);
#990=AXIS2_PLACEMENT_3D('',#1377,#1093,#1094);
#991=AXIS2_PLACEMENT_3D('',#1379,#1096,#1097);
#992=AXIS2_PLACEMENT_3D('',#1401,#1108,#1109);
#993=AXIS2_PLACEMENT_3D('',#1420,#1114,#1115);
#994=AXIS2_PLACEMENT_3D('',#1438,#1125,#1126);
#995=AXIS2_PLACEMENT_3D('',#1441,#1127,#1128);
#996=AXIS2_PLACEMENT_3D('',#1445,#1130,#1131);
#997=AXIS2_PLACEMENT_3D('',#1447,#1133,#1134);
#998=AXIS2_PLACEMENT_3D('',#1452,#1137,#1138);
#999=AXIS2_PLACEMENT_3D('',#1454,#1140,#1141);
#1000=AXIS2_PLACEMENT_3D('',#1456,#1143,#1144);
#1001=AXIS2_PLACEMENT_3D('',#1460,#1146,#1147);
#1002=AXIS2_PLACEMENT_3D('',#1462,#1149,#1150);
#1003=AXIS2_PLACEMENT_3D('',#1464,#1152,#1153);
#1004=AXIS2_PLACEMENT_3D('',#1466,#1154,#1155);
#1005=AXIS2_PLACEMENT_3D('',#1469,#1157,#1158);
#1006=AXIS2_PLACEMENT_3D('',#1470,#1159,#1160);
#1007=AXIS2_PLACEMENT_3D('',#1477,#1164,#1165);
#1008=AXIS2_PLACEMENT_3D('',#1478,#1166,#1167);
#1009=AXIS2_PLACEMENT_3D('',#1482,#1170,#1171);
#1010=AXIS2_PLACEMENT_3D('',#1486,#1174,#1175);
#1011=AXIS2_PLACEMENT_3D('',#1488,#1176,#1177);
#1012=AXIS2_PLACEMENT_3D('',#1490,#1179,#1180);
#1013=AXIS2_PLACEMENT_3D('',#1493,#1182,#1183);
#1014=AXIS2_PLACEMENT_3D('',#1494,#1184,#1185);
#1015=AXIS2_PLACEMENT_3D('',#1496,#1186,#1187);
#1016=AXIS2_PLACEMENT_3D('',#1500,#1189,#1190);
#1017=AXIS2_PLACEMENT_3D('',#1505,#1193,#1194);
#1018=AXIS2_PLACEMENT_3D('',#1508,#1196,#1197);
#1019=AXIS2_PLACEMENT_3D('',#1510,#1198,#1199);
#1020=AXIS2_PLACEMENT_3D('',#1511,#1200,#1201);
#1021=AXIS2_PLACEMENT_3D('',#1515,#1203,#1204);
#1022=AXIS2_PLACEMENT_3D('',#1518,#1206,#1207);
#1023=AXIS2_PLACEMENT_3D('',#1520,#1208,#1209);
#1024=AXIS2_PLACEMENT_3D('',#1522,#1210,#1211);
#1025=AXIS2_PLACEMENT_3D('',#1523,#1212,#1213);
#1026=AXIS2_PLACEMENT_3D('',#1525,#1214,#1215);
#1027=AXIS2_PLACEMENT_3D('',#1526,#1216,#1217);
#1028=AXIS2_PLACEMENT_3D('',#1527,#1218,#1219);
#1029=AXIS2_PLACEMENT_3D('',#1529,#1220,#1221);
#1030=AXIS2_PLACEMENT_3D('',#1531,#1223,#1224);
#1031=AXIS2_PLACEMENT_3D('',#1535,#1226,#1227);
#1032=AXIS2_PLACEMENT_3D('',#1537,#1229,#1230);
#1033=AXIS2_PLACEMENT_3D('',#1541,#1233,#1234);
#1034=AXIS2_PLACEMENT_3D('',#1542,#1235,#1236);
#1035=AXIS2_PLACEMENT_3D('',#1543,#1237,#1238);
#1036=AXIS2_PLACEMENT_3D('',#1545,#1239,#1240);
#1037=AXIS2_PLACEMENT_3D('',#1547,#1242,#1243);
#1038=AXIS2_PLACEMENT_3D('',#1548,#1244,#1245);
#1039=AXIS2_PLACEMENT_3D('',#1549,#1246,#1247);
#1040=AXIS2_PLACEMENT_3D('',#1551,#1249,#1250);
#1041=AXIS2_PLACEMENT_3D('',#1552,#1251,#1252);
#1042=AXIS2_PLACEMENT_3D('',#1554,#1253,#1254);
#1043=AXIS2_PLACEMENT_3D('',#1557,#1256,#1257);
#1044=AXIS2_PLACEMENT_3D('',#1558,#1258,#1259);
#1045=AXIS2_PLACEMENT_3D('',#1560,#1260,#1261);
#1046=AXIS2_PLACEMENT_3D('',#1563,#1263,#1264);
#1047=AXIS2_PLACEMENT_3D('',#1564,#1265,#1266);
#1048=AXIS2_PLACEMENT_3D('',#1566,#1267,#1268);
#1049=AXIS2_PLACEMENT_3D('',#1569,#1270,#1271);
#1050=AXIS2_PLACEMENT_3D('',#1570,#1272,#1273);
#1051=AXIS2_PLACEMENT_3D('',#1572,#1274,#1275);
#1052=AXIS2_PLACEMENT_3D('',#1575,#1277,#1278);
#1053=AXIS2_PLACEMENT_3D('',#1576,#1279,#1280);
#1054=AXIS2_PLACEMENT_3D('',#1578,#1282,#1283);
#1055=AXIS2_PLACEMENT_3D('',#1580,#1285,#1286);
#1056=AXIS2_PLACEMENT_3D('',#1586,#1289,#1290);
#1057=AXIS2_PLACEMENT_3D('',#1590,#1292,#1293);
#1058=AXIS2_PLACEMENT_3D('',#1594,#1295,#1296);
#1059=AXIS2_PLACEMENT_3D('',#1598,#1298,#1299);
#1060=AXIS2_PLACEMENT_3D('',#1600,#1301,#1302);
#1061=AXIS2_PLACEMENT_3D('',#1606,#1306,#1307);
#1062=AXIS2_PLACEMENT_3D('',#1608,#1308,#1309);
#1063=AXIS2_PLACEMENT_3D('',#1610,#1311,#1312);
#1064=AXIS2_PLACEMENT_3D('',#1614,#1315,#1316);
#1065=AXIS2_PLACEMENT_3D('',#1616,#1317,#1318);
#1066=AXIS2_PLACEMENT_3D('',#1618,#1320,#1321);
#1067=AXIS2_PLACEMENT_3D('',#1622,#1324,#1325);
#1068=AXIS2_PLACEMENT_3D('',#1624,#1326,#1327);
#1069=AXIS2_PLACEMENT_3D('',#1626,#1329,#1330);
#1070=AXIS2_PLACEMENT_3D('',#1630,#1333,#1334);
#1071=AXIS2_PLACEMENT_3D('',#1631,#1335,#1336);
#1072=AXIS2_PLACEMENT_3D('',#1632,#1337,#1338);
#1073=AXIS2_PLACEMENT_3D('',#1634,#1340,#1341);
#1074=AXIS2_PLACEMENT_3D('',#1638,#1344,#1345);
#1075=AXIS2_PLACEMENT_3D('',#1643,#1349,#1350);
#1076=AXIS2_PLACEMENT_3D('',#1644,#1351,#1352);
#1077=AXIS2_PLACEMENT_3D('',#1645,#1353,#1354);
#1078=AXIS2_PLACEMENT_3D('',#1649,#1357,#1358);
#1079=AXIS2_PLACEMENT_3D('',#1650,#1359,#1360);
#1080=AXIS2_PLACEMENT_3D('',#1651,#1361,#1362);
#1081=AXIS2_PLACEMENT_3D('',#1652,#1363,#1364);
#1082=DIRECTION('axis',(0.,0.,1.));
#1083=DIRECTION('refdir',(1.,0.,0.));
#1084=DIRECTION('center_axis',(0.,0.,-1.));
#1085=DIRECTION('ref_axis',(1.,0.,0.));
#1086=DIRECTION('',(-0.5,0.866025403784439,0.));
#1087=DIRECTION('center_axis',(0.,0.,1.));
#1088=DIRECTION('ref_axis',(1.,0.,0.));
#1089=DIRECTION('',(-0.866025403784439,-0.499999999999999,0.));
#1090=DIRECTION('center_axis',(0.,0.,1.));
#1091=DIRECTION('ref_axis',(1.,0.,0.));
#1092=DIRECTION('',(0.,0.,1.));
#1093=DIRECTION('center_axis',(0.,0.,1.));
#1094=DIRECTION('ref_axis',(1.,0.,0.));
#1095=DIRECTION('',(0.,0.,-1.));
#1096=DIRECTION('center_axis',(0.866025403784439,0.5,0.));
#1097=DIRECTION('ref_axis',(0.,0.,-1.));
#1098=DIRECTION('',(-3.06161699786838E-17,5.30287619362453E-17,1.));
#1099=DIRECTION('',(0.5,-0.866025403784439,0.));
#1100=DIRECTION('',(0.,0.,-1.));
#1101=DIRECTION('',(-0.5,0.866025403784439,0.));
#1102=DIRECTION('',(0.,0.,-1.));
#1103=DIRECTION('',(0.5,-0.866025403784439,0.));
#1104=DIRECTION('',(0.,0.,-1.));
#1105=DIRECTION('',(-0.5,0.866025403784439,0.));
#1106=DIRECTION('',(0.,0.,-1.));
#1107=DIRECTION('',(-0.5,0.866025403784439,0.));
#1108=DIRECTION('center_axis',(-0.866025403784439,-0.5,0.));
#1109=DIRECTION('ref_axis',(-0.5,0.866025403784439,0.));
#1110=DIRECTION('',(-1.68536794091331E-16,2.91914290310959E-16,-1.));
#1111=DIRECTION('',(-0.5,0.866025403784439,3.2556248485426E-16));
#1112=DIRECTION('',(0.,-2.91914290310959E-16,1.));
#1113=DIRECTION('',(-0.5,0.866025403784439,0.));
#1114=DIRECTION('center_axis',(0.499999999999999,-0.866025403784439,6.12323399573677E-17));
#1115=DIRECTION('ref_axis',(0.,-7.07050159149938E-17,-1.));
#1116=DIRECTION('',(0.866025403784439,0.499999999999999,0.));
#1117=DIRECTION('',(-3.06161699786838E-17,5.30287619362454E-17,1.));
#1118=DIRECTION('',(0.866025403784439,0.499999999999999,0.));
#1119=DIRECTION('',(3.06161699786838E-17,-5.30287619362454E-17,-1.));
#1120=DIRECTION('',(-0.866025403784439,-0.499999999999999,0.));
#1121=DIRECTION('',(3.06161699786839E-17,-5.30287619362453E-17,-1.));
#1122=DIRECTION('',(0.866025403784439,0.499999999999999,0.));
#1123=DIRECTION('',(3.06161699786838E-17,-5.30287619362454E-17,-1.));
#1124=DIRECTION('',(-0.866025403784439,-0.499999999999999,0.));
#1125=DIRECTION('center_axis',(0.866025403784438,0.500000000000001,0.));
#1126=DIRECTION('ref_axis',(0.353553390593256,-0.612372435695795,0.707106781186556));
#1127=DIRECTION('center_axis',(-0.866025403784438,-0.500000000000001,0.));
#1128=DIRECTION('ref_axis',(0.353553390593256,-0.612372435695795,0.707106781186556));
#1129=DIRECTION('',(-0.866025403784438,-0.500000000000001,0.));
#1130=DIRECTION('center_axis',(-0.866025403784439,-0.5,0.));
#1131=DIRECTION('ref_axis',(0.353553390593256,-0.612372435695795,0.707106781186556));
#1132=DIRECTION('',(0.866025403784438,0.500000000000001,0.));
#1133=DIRECTION('center_axis',(0.866025403784438,0.500000000000001,0.));
#1134=DIRECTION('ref_axis',(0.,0.,-1.));
#1135=DIRECTION('',(0.5,-0.866025403784439,0.));
#1136=DIRECTION('',(-0.5,0.866025403784439,0.));
#1137=DIRECTION('center_axis',(-0.866025403784438,-0.500000000000001,0.));
#1138=DIRECTION('ref_axis',(0.35355339059328,-0.612372435695792,-0.707106781186547));
#1139=DIRECTION('',(0.,0.,-1.));
#1140=DIRECTION('center_axis',(0.,0.,1.));
#1141=DIRECTION('ref_axis',(0.5,-0.866025403784439,0.));
#1142=DIRECTION('',(0.5,-0.866025403784439,0.));
#1143=DIRECTION('center_axis',(0.866025403784438,0.500000000000001,0.));
#1144=DIRECTION('ref_axis',(0.35355339059328,-0.612372435695792,-0.707106781186547));
#1145=DIRECTION('',(-0.866025403784438,-0.500000000000001,0.));
#1146=DIRECTION('center_axis',(-0.866025403784439,-0.5,0.));
#1147=DIRECTION('ref_axis',(0.35355339059328,-0.612372435695792,-0.707106781186547));
#1148=DIRECTION('',(0.866025403784438,0.500000000000001,0.));
#1149=DIRECTION('center_axis',(0.,0.,-1.));
#1150=DIRECTION('ref_axis',(-0.5,0.866025403784439,0.));
#1151=DIRECTION('',(-0.5,0.866025403784439,0.));
#1152=DIRECTION('center_axis',(0.,0.,1.));
#1153=DIRECTION('ref_axis',(0.866025403784435,-0.500000000000007,0.));
#1154=DIRECTION('center_axis',(0.,0.,-1.));
#1155=DIRECTION('ref_axis',(0.866025403784435,-0.500000000000007,0.));
#1156=DIRECTION('',(0.,0.,1.));
#1157=DIRECTION('center_axis',(0.,0.,-1.));
#1158=DIRECTION('ref_axis',(0.866025403784435,-0.500000000000007,0.));
#1159=DIRECTION('center_axis',(0.,0.,-1.));
#1160=DIRECTION('ref_axis',(1.,0.,0.));
#1161=DIRECTION('',(-1.,9.23910794012146E-16,0.));
#1162=DIRECTION('',(0.,-1.,0.));
#1163=DIRECTION('',(-1.,5.12790049702284E-16,0.));
#1164=DIRECTION('center_axis',(0.,0.,-1.));
#1165=DIRECTION('ref_axis',(0.500000000000001,-0.866025403784438,0.));
#1166=DIRECTION('center_axis',(9.23910794012146E-16,1.,0.));
#1167=DIRECTION('ref_axis',(-1.,9.23910794012146E-16,0.));
#1168=DIRECTION('',(-1.,9.23910794012146E-16,0.));
#1169=DIRECTION('',(0.,0.,1.));
#1170=DIRECTION('center_axis',(-1.,0.,0.));
#1171=DIRECTION('ref_axis',(0.,-1.,0.));
#1172=DIRECTION('',(0.,-1.,0.));
#1173=DIRECTION('',(0.,0.,1.));
#1174=DIRECTION('center_axis',(0.,0.,-1.));
#1175=DIRECTION('ref_axis',(1.,0.,0.));
#1176=DIRECTION('center_axis',(0.,0.,1.));
#1177=DIRECTION('ref_axis',(0.500000000000001,-0.866025403784438,0.));
#1178=DIRECTION('',(1.,-5.12790049702284E-16,0.));
#1179=DIRECTION('center_axis',(0.,0.,1.));
#1180=DIRECTION('ref_axis',(0.500000000000001,-0.866025403784438,0.));
#1181=DIRECTION('',(0.,0.,-1.));
#1182=DIRECTION('center_axis',(0.,0.,1.));
#1183=DIRECTION('ref_axis',(0.500000000000001,-0.866025403784438,0.));
#1184=DIRECTION('center_axis',(0.,0.,1.));
#1185=DIRECTION('ref_axis',(1.,0.,0.));
#1186=DIRECTION('center_axis',(0.,0.,-1.));
#1187=DIRECTION('ref_axis',(-0.707106781186548,0.707106781186547,0.));
#1188=DIRECTION('',(8.22387425648319E-17,1.,0.));
#1189=DIRECTION('center_axis',(0.,0.,-1.));
#1190=DIRECTION('ref_axis',(-0.707106781186547,-0.707106781186548,0.));
#1191=DIRECTION('',(-1.,-2.25521861985931E-31,0.));
#1192=DIRECTION('',(-1.,4.39534328316243E-16,0.));
#1193=DIRECTION('center_axis',(0.,0.,-1.));
#1194=DIRECTION('ref_axis',(-0.500000000000001,-0.866025403784438,0.));
#1195=DIRECTION('',(-0.5,0.866025403784439,0.));
#1196=DIRECTION('center_axis',(0.,0.,1.));
#1197=DIRECTION('ref_axis',(1.,0.,0.));
#1198=DIRECTION('center_axis',(0.,0.,1.));
#1199=DIRECTION('ref_axis',(1.,0.,0.));
#1200=DIRECTION('center_axis',(0.,0.,1.));
#1201=DIRECTION('ref_axis',(1.,0.,0.));
#1202=DIRECTION('',(0.5,-0.866025403784439,0.));
#1203=DIRECTION('center_axis',(0.,0.,-1.));
#1204=DIRECTION('ref_axis',(-0.5,-0.866025403784439,0.));
#1205=DIRECTION('',(1.,-5.12790049702284E-16,0.));
#1206=DIRECTION('center_axis',(0.,0.,-1.));
#1207=DIRECTION('ref_axis',(0.500000000000001,-0.866025403784438,0.));
#1208=DIRECTION('center_axis',(0.,0.,-1.));
#1209=DIRECTION('ref_axis',(1.,0.,0.));
#1210=DIRECTION('center_axis',(0.,0.,-1.));
#1211=DIRECTION('ref_axis',(1.,0.,0.));
#1212=DIRECTION('center_axis',(0.,0.,1.));
#1213=DIRECTION('ref_axis',(1.,0.,0.));
#1214=DIRECTION('center_axis',(0.,0.,1.));
#1215=DIRECTION('ref_axis',(-0.707106781186548,0.707106781186547,0.));
#1216=DIRECTION('center_axis',(0.,-1.,0.));
#1217=DIRECTION('ref_axis',(1.,0.,0.));
#1218=DIRECTION('center_axis',(0.,-2.91914290310959E-16,1.));
#1219=DIRECTION('ref_axis',(-2.32830884381742E-31,1.,2.91914290310959E-16));
#1220=DIRECTION('center_axis',(-6.12323399573702E-17,-4.11279684494799E-16,
1.));
#1221=DIRECTION('ref_axis',(-2.32830884381742E-31,1.,4.11279684494799E-16));
#1222=DIRECTION('',(0.,-2.91914290310959E-16,1.));
#1223=DIRECTION('center_axis',(-6.12323399573702E-17,-4.11279684494799E-16,
1.));
#1224=DIRECTION('ref_axis',(-1.,-2.07647266923196E-31,-6.12323399573702E-17));
#1225=DIRECTION('',(1.,2.07647266923196E-31,6.12323399573701E-17));
#1226=DIRECTION('center_axis',(-6.12323399573701E-17,-4.11279684494799E-16,
1.));
#1227=DIRECTION('ref_axis',(-1.,-2.07647266923196E-31,-6.12323399573701E-17));
#1228=DIRECTION('',(-8.22387425648319E-17,-1.,-4.11279684494799E-16));
#1229=DIRECTION('center_axis',(2.25521861985931E-31,-1.,-2.91914290310959E-16));
#1230=DIRECTION('ref_axis',(1.,2.07647266923196E-31,6.12323399573701E-17));
#1231=DIRECTION('',(1.,2.25521861985931E-31,0.));
#1232=DIRECTION('',(0.,-2.91914290310959E-16,1.));
#1233=DIRECTION('center_axis',(1.,2.25521861985931E-31,0.));
#1234=DIRECTION('ref_axis',(0.,0.707106781186547,0.707106781186548));
#1235=DIRECTION('center_axis',(1.,0.,0.));
#1236=DIRECTION('ref_axis',(0.,1.,0.));
#1237=DIRECTION('center_axis',(-8.22387425648319E-17,-1.,0.));
#1238=DIRECTION('ref_axis',(0.707106781186547,0.,0.707106781186547));
#1239=DIRECTION('center_axis',(0.,-1.,0.));
#1240=DIRECTION('ref_axis',(1.,0.,0.));
#1241=DIRECTION('',(-8.22387425648319E-17,-1.,0.));
#1242=DIRECTION('center_axis',(0.,0.,1.));
#1243=DIRECTION('ref_axis',(1.,0.,0.));
#1244=DIRECTION('center_axis',(0.,0.,1.));
#1245=DIRECTION('ref_axis',(-0.707106781186547,-0.707106781186548,0.));
#1246=DIRECTION('center_axis',(0.,-2.91914290310959E-16,1.));
#1247=DIRECTION('ref_axis',(-1.,-2.25521861985931E-31,0.));
#1248=DIRECTION('',(0.,-2.91914290310959E-16,1.));
#1249=DIRECTION('center_axis',(-1.,8.22387425648319E-17,2.40066641718786E-32));
#1250=DIRECTION('ref_axis',(-8.22387425648319E-17,-1.,-4.11279684494799E-16));
#1251=DIRECTION('center_axis',(0.,1.,0.));
#1252=DIRECTION('ref_axis',(1.,0.,0.));
#1253=DIRECTION('center_axis',(5.12790049702284E-16,1.,0.));
#1254=DIRECTION('ref_axis',(1.,0.,0.));
#1255=DIRECTION('',(0.,1.,0.));
#1256=DIRECTION('center_axis',(-4.39534328316243E-16,-1.,0.));
#1257=DIRECTION('ref_axis',(1.,0.,0.));
#1258=DIRECTION('center_axis',(0.,1.,0.));
#1259=DIRECTION('ref_axis',(1.,0.,0.));
#1260=DIRECTION('center_axis',(5.12790049702284E-16,1.,0.));
#1261=DIRECTION('ref_axis',(1.,0.,0.));
#1262=DIRECTION('',(0.,1.,0.));
#1263=DIRECTION('center_axis',(-4.39534328316243E-16,-1.,0.));
#1264=DIRECTION('ref_axis',(1.,0.,0.));
#1265=DIRECTION('center_axis',(0.,1.,0.));
#1266=DIRECTION('ref_axis',(1.,0.,0.));
#1267=DIRECTION('center_axis',(5.12790049702284E-16,1.,0.));
#1268=DIRECTION('ref_axis',(1.,0.,0.));
#1269=DIRECTION('',(0.,1.,0.));
#1270=DIRECTION('center_axis',(-4.39534328316243E-16,-1.,0.));
#1271=DIRECTION('ref_axis',(1.,0.,0.));
#1272=DIRECTION('center_axis',(0.,1.,0.));
#1273=DIRECTION('ref_axis',(1.,0.,0.));
#1274=DIRECTION('center_axis',(5.12790049702284E-16,1.,0.));
#1275=DIRECTION('ref_axis',(1.,0.,0.));
#1276=DIRECTION('',(0.,1.,0.));
#1277=DIRECTION('center_axis',(-4.39534328316243E-16,-1.,0.));
#1278=DIRECTION('ref_axis',(1.,0.,0.));
#1279=DIRECTION('center_axis',(0.,0.,1.));
#1280=DIRECTION('ref_axis',(1.,0.,0.));
#1281=DIRECTION('',(0.,0.,1.));
#1282=DIRECTION('center_axis',(0.,0.,1.));
#1283=DIRECTION('ref_axis',(1.,0.,0.));
#1284=DIRECTION('',(0.,0.,1.));
#1285=DIRECTION('center_axis',(0.866025403784439,0.5,0.));
#1286=DIRECTION('ref_axis',(0.5,-0.866025403784439,0.));
#1287=DIRECTION('',(0.,0.,1.));
#1288=DIRECTION('',(0.5,-0.866025403784439,0.));
#1289=DIRECTION('center_axis',(-0.866025403784439,-0.5,0.));
#1290=DIRECTION('ref_axis',(0.5,-0.866025403784439,6.6613381477509E-15));
#1291=DIRECTION('',(-0.5,0.866025403784439,-4.03717463500057E-16));
#1292=DIRECTION('center_axis',(-0.866025403784439,-0.5,0.));
#1293=DIRECTION('ref_axis',(-4.4408920985006E-15,7.69185074553422E-15,1.));
#1294=DIRECTION('',(-2.11471052309554E-16,3.66278606930203E-16,-1.));
#1295=DIRECTION('center_axis',(-0.866025403784439,-0.5,0.));
#1296=DIRECTION('ref_axis',(-0.5,0.866025403784439,-8.88178419700117E-15));
#1297=DIRECTION('',(0.5,-0.866025403784439,0.));
#1298=DIRECTION('center_axis',(-0.866025403784439,-0.5,0.));
#1299=DIRECTION('ref_axis',(2.22044604925029E-15,-3.84592537276709E-15,
-1.));
#1300=DIRECTION('',(-1.97215226305253E-31,3.41586791986892E-31,1.));
#1301=DIRECTION('center_axis',(0.5,-0.866025403784439,3.94430452610506E-31));
#1302=DIRECTION('ref_axis',(5.15249109183183E-15,2.97479211886625E-15,-1.));
#1303=DIRECTION('',(1.97215226305253E-31,-3.41586791986892E-31,-1.));
#1304=DIRECTION('',(0.866025403784439,0.5,0.));
#1305=DIRECTION('',(0.866025403784439,0.5,0.));
#1306=DIRECTION('center_axis',(0.866025403784439,0.5,0.));
#1307=DIRECTION('ref_axis',(2.22044604925029E-15,-3.84592537276709E-15,
-1.));
#1308=DIRECTION('center_axis',(0.866025403784439,0.5,0.));
#1309=DIRECTION('ref_axis',(2.22044604925029E-15,-3.84592537276709E-15,
-1.));
#1310=DIRECTION('',(0.866025403784439,0.5,0.));
#1311=DIRECTION('center_axis',(0.,0.,-1.));
#1312=DIRECTION('ref_axis',(-0.500000000000008,0.866025403784434,0.));
#1313=DIRECTION('',(-0.5,0.866025403784439,0.));
#1314=DIRECTION('',(0.866025403784439,0.5,0.));
#1315=DIRECTION('center_axis',(0.866025403784439,0.5,0.));
#1316=DIRECTION('ref_axis',(-0.5,0.866025403784439,-8.88178419700117E-15));
#1317=DIRECTION('center_axis',(0.866025403784439,0.5,0.));
#1318=DIRECTION('ref_axis',(-0.5,0.866025403784439,-8.88178419700117E-15));
#1319=DIRECTION('',(0.866025403784439,0.5,0.));
#1320=DIRECTION('center_axis',(-0.5,0.866025403784439,4.22942104619107E-16));
#1321=DIRECTION('ref_axis',(2.11471052309553E-16,-3.66278606930203E-16,
1.));
#1322=DIRECTION('',(2.11471052309554E-16,-3.66278606930203E-16,1.));
#1323=DIRECTION('',(0.866025403784439,0.5,0.));
#1324=DIRECTION('center_axis',(0.866025403784439,0.5,0.));
#1325=DIRECTION('ref_axis',(-4.4408920985006E-15,7.69185074553422E-15,1.));
#1326=DIRECTION('center_axis',(0.866025403784439,0.5,0.));
#1327=DIRECTION('ref_axis',(-4.4408920985006E-15,7.69185074553422E-15,1.));
#1328=DIRECTION('',(0.866025403784439,0.5,0.));
#1329=DIRECTION('center_axis',(-2.01858731750028E-16,3.49629579342466E-16,
1.));
#1330=DIRECTION('ref_axis',(0.5,-0.866025403784439,4.03717463500057E-16));
#1331=DIRECTION('',(0.5,-0.866025403784439,4.03717463500057E-16));
#1332=DIRECTION('',(0.866025403784439,0.5,0.));
#1333=DIRECTION('center_axis',(0.866025403784439,0.5,0.));
#1334=DIRECTION('ref_axis',(0.5,-0.866025403784439,6.6613381477509E-15));
#1335=DIRECTION('center_axis',(0.866025403784439,0.5,0.));
#1336=DIRECTION('ref_axis',(0.5,-0.866025403784439,6.6613381477509E-15));
#1337=DIRECTION('center_axis',(0.500000000000001,-0.866025403784438,0.));
#1338=DIRECTION('ref_axis',(0.,0.,-1.));
#1339=DIRECTION('',(0.,0.,-1.));
#1340=DIRECTION('center_axis',(-0.866025403784439,-0.5,0.));
#1341=DIRECTION('ref_axis',(-0.5,0.866025403784439,0.));
#1342=DIRECTION('',(-0.5,0.866025403784439,0.));
#1343=DIRECTION('',(0.,0.,-1.));
#1344=DIRECTION('center_axis',(-5.12790049702284E-16,-1.,0.));
#1345=DIRECTION('ref_axis',(-1.,5.12790049702284E-16,0.));
#1346=DIRECTION('',(0.,0.,-1.));
#1347=DIRECTION('',(0.,0.,1.));
#1348=DIRECTION('',(-1.,5.12790049702284E-16,0.));
#1349=DIRECTION('center_axis',(0.,0.,1.));
#1350=DIRECTION('ref_axis',(-0.5,-0.866025403784439,0.));
#1351=DIRECTION('center_axis',(0.,0.,1.));
#1352=DIRECTION('ref_axis',(-0.5,-0.866025403784439,0.));
#1353=DIRECTION('center_axis',(4.39534328316243E-16,1.,0.));
#1354=DIRECTION('ref_axis',(1.,-4.39534328316243E-16,0.));
#1355=DIRECTION('',(0.,0.,-1.));
#1356=DIRECTION('',(1.,-4.39534328316243E-16,0.));
#1357=DIRECTION('center_axis',(0.,0.,-1.));
#1358=DIRECTION('ref_axis',(-0.500000000000001,-0.866025403784438,0.));
#1359=DIRECTION('center_axis',(0.,0.,-1.));
#1360=DIRECTION('ref_axis',(-0.500000000000001,-0.866025403784438,0.));
#1361=DIRECTION('center_axis',(0.,0.,-1.));
#1362=DIRECTION('ref_axis',(-1.,0.,0.));
#1363=DIRECTION('center_axis',(0.,0.,1.));
#1364=DIRECTION('ref_axis',(0.500000000000001,-0.866025403784438,0.));
#1365=CARTESIAN_POINT('',(0.,0.,0.));
#1366=CARTESIAN_POINT('Origin',(3.5527136788005E-14,4.44089209850063E-14,
3.));
#1367=CARTESIAN_POINT('',(15.,-25.9807621135331,3.));
#1368=CARTESIAN_POINT('',(3.70030320837468E-14,4.24902787608643E-14,3.));
#1369=CARTESIAN_POINT('',(4.48231085125555E-14,2.89455090670959E-14,3.));
#1370=CARTESIAN_POINT('',(-25.9807621135331,-14.9999999999999,3.));
#1371=CARTESIAN_POINT('Origin',(3.70948805936828E-14,4.23311924750556E-14,
3.));
#1372=CARTESIAN_POINT('',(9.94349196519381E-15,2.68674459892703E-14,3.));
#1373=CARTESIAN_POINT('Origin',(3.70948805936828E-14,4.23311924750556E-14,
0.));
#1374=CARTESIAN_POINT('',(15.,-25.9807621135331,0.));
#1375=CARTESIAN_POINT('',(15.,-25.9807621135331,0.));
#1376=CARTESIAN_POINT('',(-25.9807621135331,-14.9999999999999,0.));
#1377=CARTESIAN_POINT('Origin',(3.70948805936828E-14,4.23311924750556E-14,
0.));
#1378=CARTESIAN_POINT('',(-25.9807621135331,-14.9999999999999,0.));
#1379=CARTESIAN_POINT('Origin',(5.38429552187398E-14,1.33226762955019E-14,
-52.941));
#1380=CARTESIAN_POINT('',(3.69111835738107E-14,4.26493650466731E-14,6.));
#1381=CARTESIAN_POINT('',(3.87157312485243E-14,3.95237967893889E-14,-52.941));
#1382=CARTESIAN_POINT('',(86.2157890324958,-149.330127018922,6.00000000000001));
#1383=CARTESIAN_POINT('',(4.23051791004384E-14,3.33066907387547E-14,6.));
#1384=CARTESIAN_POINT('',(86.2157890324958,-149.330127018922,-41.882));
#1385=CARTESIAN_POINT('',(86.2157890324958,-149.330127018922,0.));
#1386=CARTESIAN_POINT('',(83.3290376865477,-144.330127018922,-41.882));
#1387=CARTESIAN_POINT('',(39.9056372505393,-69.1185912263472,-41.882));
#1388=CARTESIAN_POINT('',(83.3290376865477,-144.330127018922,-86.882));
#1389=CARTESIAN_POINT('',(83.3290376865477,-144.330127018922,-111.882));
#1390=CARTESIAN_POINT('',(86.2157890324958,-149.330127018922,-86.882));
#1391=CARTESIAN_POINT('',(39.9056372505393,-69.1185912263472,-86.882));
#1392=CARTESIAN_POINT('',(86.2157890324958,-149.330127018922,-111.882));
#1393=CARTESIAN_POINT('',(86.2157890324958,-149.330127018922,0.));
#1394=CARTESIAN_POINT('',(80.8290376865475,-140.,-111.882));
#1395=CARTESIAN_POINT('',(5.38429552187398E-14,1.33226762955019E-14,-111.882));
#1396=CARTESIAN_POINT('',(80.8290376865475,-140.,0.));
#1397=CARTESIAN_POINT('',(80.8290376865475,-140.,0.));
#1398=CARTESIAN_POINT('',(74.6635157784439,-129.321002799985,0.));
#1399=CARTESIAN_POINT('',(4.23051791004384E-14,3.33066907387547E-14,0.));
#1400=CARTESIAN_POINT('',(73.2201401054698,-126.821002799985,-2.5));
#1401=CARTESIAN_POINT('Origin',(74.6635157784439,-129.321002799985,-2.5));
#1402=CARTESIAN_POINT('',(73.2201401054698,-126.821002799985,-60.8519991226002));
#1403=CARTESIAN_POINT('',(73.2201401054698,-126.821002799985,-56.8964995613001));
#1404=CARTESIAN_POINT('',(19.1636370797228,-33.1923930798907,-60.8519991226002));
#1405=CARTESIAN_POINT('',(23.4692540450844,-40.6499404218275,-60.8519991226002));
#1406=CARTESIAN_POINT('',(19.1636370797228,-33.1923930798907,-2.50000000000002));
#1407=CARTESIAN_POINT('',(19.1636370797228,-33.1923930798907,-60.8519991226002));
#1408=CARTESIAN_POINT('',(17.8506168265277,-30.9181752899898,0.));
#1409=CARTESIAN_POINT('Ctrl Pts',(19.1636370797228,-33.1923930798907,-2.50000000000002));
#1410=CARTESIAN_POINT('Ctrl Pts',(19.1636370797228,-33.1923930798907,-2.19655314643496));
#1411=CARTESIAN_POINT('Ctrl Pts',(19.1266353506416,-33.1283042051541,-1.8400160824269));
#1412=CARTESIAN_POINT('Ctrl Pts',(19.0055124175414,-32.9185131310628,-1.27401406106655));
#1413=CARTESIAN_POINT('Ctrl Pts',(18.8984638499211,-32.7330995730671,-0.966552892837874));
#1414=CARTESIAN_POINT('Ctrl Pts',(18.6707622266269,-32.3387087925556,-0.525657335867821));
#1415=CARTESIAN_POINT('Ctrl Pts',(18.508474457137,-32.057618130352,-0.316786310466765));
#1416=CARTESIAN_POINT('Ctrl Pts',(18.207347947921,-31.536051716884,-0.0744496636455937));
#1417=CARTESIAN_POINT('Ctrl Pts',(18.0143844942611,-31.2018292111411,-1.69220393860873E-14));
#1418=CARTESIAN_POINT('Ctrl Pts',(17.8506168265277,-30.9181752899898,-1.75402227464705E-14));
#1419=CARTESIAN_POINT('',(4.23051791004384E-14,3.33066907387547E-14,0.));
#1420=CARTESIAN_POINT('Origin',(-1.51272239702155E-14,8.43755209988451E-15,
-52.941));
#1421=CARTESIAN_POINT('',(-121.243556529821,-69.9999999999999,0.));
#1422=CARTESIAN_POINT('',(-5.21029850675559E-15,1.79062859333022E-14,4.44089209850063E-15));
#1423=CARTESIAN_POINT('',(-121.243556529821,-69.9999999999999,-111.882));
#1424=CARTESIAN_POINT('',(-121.243556529821,-69.9999999999999,-26.4705));
#1425=CARTESIAN_POINT('',(-129.903810567666,-74.9999999999999,-111.882));
#1426=CARTESIAN_POINT('',(-1.33226762955019E-14,5.31198384260027E-15,-111.882));
#1427=CARTESIAN_POINT('',(-129.903810567666,-74.9999999999999,-77.941));
#1428=CARTESIAN_POINT('',(-129.903810567666,-74.9999999999999,-26.4705));
#1429=CARTESIAN_POINT('',(-125.573683548744,-72.4999999999999,-77.941));
#1430=CARTESIAN_POINT('',(-64.9519052838329,-37.4999999999999,-77.941));
#1431=CARTESIAN_POINT('',(-125.573683548744,-72.4999999999999,-27.941));
#1432=CARTESIAN_POINT('',(-125.573683548744,-72.4999999999999,-52.941));
#1433=CARTESIAN_POINT('',(-129.903810567666,-74.9999999999999,-27.941));
#1434=CARTESIAN_POINT('',(-64.9519052838329,-37.4999999999999,-27.941));
#1435=CARTESIAN_POINT('',(-129.903810567666,-74.9999999999999,6.));
#1436=CARTESIAN_POINT('',(-129.903810567666,-74.9999999999999,-26.4705));
#1437=CARTESIAN_POINT('',(-5.39399552662769E-15,1.82244585049197E-14,6.00000000000001));
#1438=CARTESIAN_POINT('Origin',(-122.903810567666,-87.124355652982,-28.941));
#1439=CARTESIAN_POINT('',(-118.073683548744,-85.4903810567665,-28.941));
#1440=CARTESIAN_POINT('',(-118.573683548744,-84.624355652982,-27.941));
#1441=CARTESIAN_POINT('Origin',(-118.573683548744,-84.624355652982,-28.941));
#1442=CARTESIAN_POINT('',(-122.403810567666,-87.9903810567665,-28.941));
#1443=CARTESIAN_POINT('',(-122.403810567666,-87.9903810567665,-28.941));
#1444=CARTESIAN_POINT('',(-122.903810567666,-87.1243556529821,-27.941));
#1445=CARTESIAN_POINT('Origin',(-122.903810567666,-87.1243556529821,-28.941));
#1446=CARTESIAN_POINT('',(-122.903810567666,-87.124355652982,-27.941));
#1447=CARTESIAN_POINT('Origin',(-125.573683548744,-72.4999999999999,-52.941));
#1448=CARTESIAN_POINT('',(-118.073683548744,-85.4903810567665,-27.941));
#1449=CARTESIAN_POINT('',(-118.573683548744,-84.624355652982,-77.941));
#1450=CARTESIAN_POINT('',(-133.073683548744,-59.5096189432333,-77.941));
#1451=CARTESIAN_POINT('',(-118.073683548744,-85.4903810567665,-76.941));
#1452=CARTESIAN_POINT('Origin',(-118.573683548744,-84.624355652982,-76.941));
#1453=CARTESIAN_POINT('',(-118.073683548744,-85.4903810567665,-77.941));
#1454=CARTESIAN_POINT('Origin',(-137.403810567666,-62.0096189432333,-27.941));
#1455=CARTESIAN_POINT('',(-112.003175473055,-106.004809471617,-27.941));
#1456=CARTESIAN_POINT('Origin',(-122.903810567666,-87.124355652982,-76.941));
#1457=CARTESIAN_POINT('',(-122.903810567666,-87.124355652982,-77.941));
#1458=CARTESIAN_POINT('',(-122.903810567666,-87.124355652982,-77.941));
#1459=CARTESIAN_POINT('',(-122.403810567666,-87.9903810567665,-76.941));
#1460=CARTESIAN_POINT('Origin',(-122.903810567666,-87.1243556529821,-76.941));
#1461=CARTESIAN_POINT('',(-122.403810567666,-87.9903810567665,-76.941));
#1462=CARTESIAN_POINT('Origin',(-122.403810567666,-87.9903810567665,-77.941));
#1463=CARTESIAN_POINT('',(-104.503175473055,-118.995190528383,-77.941));
#1464=CARTESIAN_POINT('Origin',(80.8290376865475,-140.,-111.882));
#1465=CARTESIAN_POINT('',(80.8290376865475,-145.,-41.882));
#1466=CARTESIAN_POINT('Origin',(80.8290376865475,-140.,-41.882));
#1467=CARTESIAN_POINT('',(80.8290376865475,-145.,-86.882));
#1468=CARTESIAN_POINT('',(80.8290376865475,-145.,-111.882));
#1469=CARTESIAN_POINT('Origin',(80.8290376865475,-140.,-86.882));
#1470=CARTESIAN_POINT('Origin',(80.3525403784438,-137.924682452695,-86.882));
#1471=CARTESIAN_POINT('',(61.6025403784438,-145.,-86.882));
#1472=CARTESIAN_POINT('',(80.5907890324956,-145.,-86.882));
#1473=CARTESIAN_POINT('',(61.6025403784438,-150.,-86.882));
#1474=CARTESIAN_POINT('',(61.6025403784438,-141.462341226347,-86.882));
#1475=CARTESIAN_POINT('',(83.7157890324957,-150.,-86.882));
#1476=CARTESIAN_POINT('',(83.4775403784438,-150.,-86.882));
#1477=CARTESIAN_POINT('Origin',(83.7157890324956,-145.,-86.882));
#1478=CARTESIAN_POINT('Origin',(80.8290376865475,-145.,-111.882));
#1479=CARTESIAN_POINT('',(61.6025403784438,-145.,-41.882));
#1480=CARTESIAN_POINT('',(80.8290376865475,-145.,-41.882));
#1481=CARTESIAN_POINT('',(61.6025403784438,-145.,-111.882));
#1482=CARTESIAN_POINT('Origin',(61.6025403784438,-145.,-111.882));
#1483=CARTESIAN_POINT('',(61.6025403784438,-150.,-41.882));
#1484=CARTESIAN_POINT('',(61.6025403784438,-150.,-41.882));
#1485=CARTESIAN_POINT('',(61.6025403784438,-150.,-55.941));
#1486=CARTESIAN_POINT('Origin',(80.3525403784438,-137.924682452695,-41.882));
#1487=CARTESIAN_POINT('',(83.7157890324957,-150.,-41.882));
#1488=CARTESIAN_POINT('Origin',(83.7157890324956,-145.,-41.882));
#1489=CARTESIAN_POINT('',(83.4775403784438,-150.,-41.882));
#1490=CARTESIAN_POINT('Origin',(83.7157890324956,-145.,0.));
#1491=CARTESIAN_POINT('',(83.7157890324956,-150.,-111.882));
#1492=CARTESIAN_POINT('',(83.7157890324956,-150.,0.));
#1493=CARTESIAN_POINT('Origin',(83.7157890324956,-145.,-111.882));
#1494=CARTESIAN_POINT('Origin',(0.,3.5527136788005E-14,0.));
#1495=CARTESIAN_POINT('',(0.499999999998337,-52.821002799989,0.));
#1496=CARTESIAN_POINT('Origin',(22.9999999999983,-52.821002799989,0.));
#1497=CARTESIAN_POINT('',(0.499999999998333,-106.821002799985,0.));
#1498=CARTESIAN_POINT('',(0.49999999999834,-26.4105013999945,0.));
#1499=CARTESIAN_POINT('',(22.9999999999983,-129.321002799985,0.));
#1500=CARTESIAN_POINT('Origin',(22.9999999999983,-106.821002799985,0.));
#1501=CARTESIAN_POINT('',(11.4999999999992,-129.321002799985,0.));
#1502=CARTESIAN_POINT('',(-77.9422863405995,-140.,0.));
#1503=CARTESIAN_POINT('',(-40.4145188432739,-140.,0.));
#1504=CARTESIAN_POINT('',(-82.2724133595217,-137.5,0.));
#1505=CARTESIAN_POINT('Origin',(-77.9422863405995,-135.,0.));
#1506=CARTESIAN_POINT('',(-141.450815951458,-34.9999999999999,0.));
#1507=CARTESIAN_POINT('',(-99.3999999999982,-76.299999999999,0.));
#1508=CARTESIAN_POINT('Origin',(-97.8999999999982,-76.299999999999,0.));
#1509=CARTESIAN_POINT('',(-33.9999999999988,-76.3000000000005,0.));
#1510=CARTESIAN_POINT('Origin',(-32.4999999999988,-76.3000000000005,0.));
#1511=CARTESIAN_POINT('Origin',(0.,3.5527136788005E-14,6.));
#1512=CARTESIAN_POINT('',(-88.045916051418,-147.5,6.));
#1513=CARTESIAN_POINT('',(-108.253175473055,-112.5,6.));
#1514=CARTESIAN_POINT('',(-83.7157890324958,-150.,6.));
#1515=CARTESIAN_POINT('Origin',(-83.7157890324958,-145.,6.));
#1516=CARTESIAN_POINT('',(83.7157890324956,-150.,6.));
#1517=CARTESIAN_POINT('',(43.3012701892219,-150.,6.));
#1518=CARTESIAN_POINT('Origin',(83.7157890324956,-145.,6.));
#1519=CARTESIAN_POINT('',(-99.3999999999982,-76.299999999999,6.));
#1520=CARTESIAN_POINT('Origin',(-97.8999999999982,-76.299999999999,6.));
#1521=CARTESIAN_POINT('',(-33.9999999999988,-76.3000000000005,6.));
#1522=CARTESIAN_POINT('Origin',(-32.4999999999988,-76.3000000000005,6.));
#1523=CARTESIAN_POINT('Origin',(22.9999999999983,-52.821002799989,-2.50000000000002));
#1524=CARTESIAN_POINT('',(2.99999999999834,-52.821002799989,-2.50000000000002));
#1525=CARTESIAN_POINT('Origin',(22.9999999999983,-52.821002799989,-2.50000000000002));
#1526=CARTESIAN_POINT('Origin',(0.499999999998337,-52.821002799989,-2.50000000000002));
#1527=CARTESIAN_POINT('Origin',(22.9999999999983,-52.8210027999889,-60.8519991226002));
#1528=CARTESIAN_POINT('',(2.99999999999834,-52.821002799989,-60.8519991226002));
#1529=CARTESIAN_POINT('Origin',(22.9999999999983,-52.8210027999889,-60.8519991226002));
#1530=CARTESIAN_POINT('',(2.99999999999834,-52.821002799989,-60.8519991226002));
#1531=CARTESIAN_POINT('Origin',(49.5000000000003,-79.8210027999866,-60.8519991226002));
#1532=CARTESIAN_POINT('',(22.9999999999983,-126.821002799985,-60.8519991226002));
#1533=CARTESIAN_POINT('',(22.9999999999983,-126.821002799985,-60.8519991226002));
#1534=CARTESIAN_POINT('',(2.99999999999833,-106.821002799985,-60.8519991226002));
#1535=CARTESIAN_POINT('Origin',(22.9999999999983,-106.821002799985,-60.8519991226002));
#1536=CARTESIAN_POINT('',(2.99999999999834,-52.821002799989,-60.8519991226002));
#1537=CARTESIAN_POINT('Origin',(22.9999999999983,-126.821002799985,-60.8519991226002));
#1538=CARTESIAN_POINT('',(22.9999999999983,-126.821002799985,-2.50000000000004));
#1539=CARTESIAN_POINT('',(11.4999999999992,-126.821002799985,-2.5));
#1540=CARTESIAN_POINT('',(22.9999999999983,-126.821002799985,-60.8519991226002));
#1541=CARTESIAN_POINT('Origin',(11.4999999999992,-129.321002799985,-2.5));
#1542=CARTESIAN_POINT('Origin',(22.9999999999983,-129.321002799985,-2.50000000000004));
#1543=CARTESIAN_POINT('Origin',(0.49999999999834,-26.4105013999945,-2.5));
#1544=CARTESIAN_POINT('',(2.99999999999833,-106.821002799985,-2.5));
#1545=CARTESIAN_POINT('Origin',(0.499999999998333,-106.821002799985,-2.5));
#1546=CARTESIAN_POINT('',(2.99999999999834,-26.4105013999945,-2.5));
#1547=CARTESIAN_POINT('Origin',(22.9999999999983,-106.821002799985,-2.50000000000004));
#1548=CARTESIAN_POINT('Origin',(22.9999999999983,-106.821002799985,-2.50000000000004));
#1549=CARTESIAN_POINT('Origin',(22.9999999999983,-106.821002799985,-60.8519991226002));
#1550=CARTESIAN_POINT('',(2.99999999999833,-106.821002799985,-60.8519991226002));
#1551=CARTESIAN_POINT('Origin',(2.99999999999834,-52.821002799989,-60.8519991226002));
#1552=CARTESIAN_POINT('Origin',(-75.4050000000013,-185.2,-1.53900000000016));
#1553=CARTESIAN_POINT('',(-75.9050000000013,-150.,-1.53900000000016));
#1554=CARTESIAN_POINT('Origin',(-75.4050000000013,-150.,-1.53900000000016));
#1555=CARTESIAN_POINT('',(-75.9050000000013,-140.,-1.53900000000016));
#1556=CARTESIAN_POINT('',(-75.9050000000013,-185.2,-1.53900000000016));
#1557=CARTESIAN_POINT('Origin',(-75.4050000000013,-140.,-1.53900000000016));
#1558=CARTESIAN_POINT('Origin',(-75.4050000000013,-185.2,-104.343));
#1559=CARTESIAN_POINT('',(-75.9050000000013,-150.,-104.343));
#1560=CARTESIAN_POINT('Origin',(-75.4050000000013,-150.,-104.343));
#1561=CARTESIAN_POINT('',(-75.9050000000013,-140.,-104.343));
#1562=CARTESIAN_POINT('',(-75.9050000000013,-185.2,-104.343));
#1563=CARTESIAN_POINT('Origin',(-75.4050000000013,-140.,-104.343));
#1564=CARTESIAN_POINT('Origin',(75.2025,-185.2,-104.343));
#1565=CARTESIAN_POINT('',(74.7025,-150.,-104.343));
#1566=CARTESIAN_POINT('Origin',(75.2025,-150.,-104.343));
#1567=CARTESIAN_POINT('',(74.7025,-140.,-104.343));
#1568=CARTESIAN_POINT('',(74.7025,-185.2,-104.343));
#1569=CARTESIAN_POINT('Origin',(75.2025,-140.,-104.343));
#1570=CARTESIAN_POINT('Origin',(75.,-185.2,-1.53900000000016));
#1571=CARTESIAN_POINT('',(74.5,-150.,-1.53900000000016));
#1572=CARTESIAN_POINT('Origin',(75.,-150.,-1.53900000000016));
#1573=CARTESIAN_POINT('',(74.5,-140.,-1.53900000000016));
#1574=CARTESIAN_POINT('',(74.5,-185.2,-1.53900000000016));
#1575=CARTESIAN_POINT('Origin',(75.,-140.,-1.53900000000016));
#1576=CARTESIAN_POINT('Origin',(-32.4999999999988,-76.3000000000005,0.));
#1577=CARTESIAN_POINT('',(-33.9999999999988,-76.3000000000005,0.));
#1578=CARTESIAN_POINT('Origin',(-97.8999999999982,-76.299999999999,0.));
#1579=CARTESIAN_POINT('',(-99.3999999999982,-76.299999999999,0.));
#1580=CARTESIAN_POINT('Origin',(-161.658075373095,4.44089209850063E-14,
0.));
#1581=CARTESIAN_POINT('',(-82.2724133595217,-137.5,-111.882));
#1582=CARTESIAN_POINT('',(-82.2724133595217,-137.5,0.));
#1583=CARTESIAN_POINT('',(-161.658075373095,4.44089209850063E-14,-111.882));
#1584=CARTESIAN_POINT('',(-87.9422863405996,-127.679491924311,-39.941));
#1585=CARTESIAN_POINT('',(-88.9422863405996,-125.947441116742,-37.941));
#1586=CARTESIAN_POINT('Origin',(-88.9422863405995,-125.947441116742,-39.941));
#1587=CARTESIAN_POINT('',(-94.4422863405996,-116.421161675114,-37.941));
#1588=CARTESIAN_POINT('',(-128.050180856847,-58.2105808375567,-37.941));
#1589=CARTESIAN_POINT('',(-95.4422863405996,-114.689110867545,-39.941));
#1590=CARTESIAN_POINT('Origin',(-94.4422863405995,-116.421161675113,-39.941));
#1591=CARTESIAN_POINT('',(-95.4422863405996,-114.689110867545,-60.941));
#1592=CARTESIAN_POINT('',(-95.4422863405995,-114.689110867545,-30.4705));
#1593=CARTESIAN_POINT('',(-94.4422863405996,-116.421161675114,-62.941));
#1594=CARTESIAN_POINT('Origin',(-94.4422863405995,-116.421161675113,-60.941));
#1595=CARTESIAN_POINT('',(-88.9422863405995,-125.947441116742,-62.941));
#1596=CARTESIAN_POINT('',(-125.300180856847,-62.9737205583711,-62.941));
#1597=CARTESIAN_POINT('',(-87.9422863405995,-127.679491924311,-60.941));
#1598=CARTESIAN_POINT('Origin',(-88.9422863405995,-125.947441116742,-60.941));
#1599=CARTESIAN_POINT('',(-87.9422863405995,-127.679491924311,-19.9705));
#1600=CARTESIAN_POINT('Origin',(-96.602540378444,-132.679491924311,-39.941));
#1601=CARTESIAN_POINT('',(-96.602540378444,-132.679491924311,-39.941));
#1602=CARTESIAN_POINT('',(-96.6025403784439,-132.679491924311,-60.941));
#1603=CARTESIAN_POINT('',(-96.6025403784439,-132.679491924311,-19.9705));
#1604=CARTESIAN_POINT('',(-96.602540378444,-132.679491924311,-39.941));
#1605=CARTESIAN_POINT('',(-96.6025403784439,-132.679491924311,-60.941));
#1606=CARTESIAN_POINT('Origin',(-97.6025403784439,-130.947441116742,-60.941));
#1607=CARTESIAN_POINT('',(-97.6025403784439,-130.947441116742,-62.941));
#1608=CARTESIAN_POINT('Origin',(-97.6025403784439,-130.947441116742,-60.941));
#1609=CARTESIAN_POINT('',(-97.6025403784439,-130.947441116742,-62.941));
#1610=CARTESIAN_POINT('Origin',(-97.6025403784439,-130.947441116742,-62.941));
#1611=CARTESIAN_POINT('',(-103.102540378444,-121.421161675114,-62.941));
#1612=CARTESIAN_POINT('',(-92.1025403784439,-140.473720558371,-62.941));
#1613=CARTESIAN_POINT('',(-103.102540378444,-121.421161675114,-62.941));
#1614=CARTESIAN_POINT('Origin',(-103.102540378444,-121.421161675114,-60.941));
#1615=CARTESIAN_POINT('',(-104.102540378444,-119.689110867545,-60.941));
#1616=CARTESIAN_POINT('Origin',(-103.102540378444,-121.421161675113,-60.941));
#1617=CARTESIAN_POINT('',(-104.102540378444,-119.689110867545,-60.941));
#1618=CARTESIAN_POINT('Origin',(-104.102540378444,-119.689110867545,-60.941));
#1619=CARTESIAN_POINT('',(-104.102540378444,-119.689110867545,-39.941));
#1620=CARTESIAN_POINT('',(-104.102540378444,-119.689110867545,-30.4705));
#1621=CARTESIAN_POINT('',(-104.102540378444,-119.689110867545,-39.941));
#1622=CARTESIAN_POINT('Origin',(-103.102540378444,-121.421161675114,-39.941));
#1623=CARTESIAN_POINT('',(-103.102540378444,-121.421161675114,-37.941));
#1624=CARTESIAN_POINT('Origin',(-103.102540378444,-121.421161675113,-39.941));
#1625=CARTESIAN_POINT('',(-103.102540378444,-121.421161675114,-37.941));
#1626=CARTESIAN_POINT('Origin',(-103.102540378444,-121.421161675114,-37.941));
#1627=CARTESIAN_POINT('',(-97.602540378444,-130.947441116742,-37.941));
#1628=CARTESIAN_POINT('',(-94.8525403784439,-135.710580837557,-37.941));
#1629=CARTESIAN_POINT('',(-97.602540378444,-130.947441116742,-37.941));
#1630=CARTESIAN_POINT('Origin',(-97.602540378444,-130.947441116742,-39.941));
#1631=CARTESIAN_POINT('Origin',(-97.6025403784439,-130.947441116742,-39.941));
#1632=CARTESIAN_POINT('Origin',(-122.403810567666,-87.9903810567665,-27.941));
#1633=CARTESIAN_POINT('',(-122.403810567666,-87.9903810567665,-13.9705));
#1634=CARTESIAN_POINT('Origin',(-86.6025403784439,-150.,0.));
#1635=CARTESIAN_POINT('',(-88.045916051418,-147.5,-111.882));
#1636=CARTESIAN_POINT('',(-173.205080756888,6.21724893790088E-14,-111.882));
#1637=CARTESIAN_POINT('',(-88.045916051418,-147.5,0.));
#1638=CARTESIAN_POINT('Origin',(86.6025403784438,-150.,0.));
#1639=CARTESIAN_POINT('',(83.7157890324956,-150.,0.));
#1640=CARTESIAN_POINT('',(-83.7157890324958,-150.,-111.882));
#1641=CARTESIAN_POINT('',(-83.7157890324958,-150.,0.));
#1642=CARTESIAN_POINT('',(-86.6025403784439,-150.,-111.882));
#1643=CARTESIAN_POINT('Origin',(-83.7157890324958,-145.,0.));
#1644=CARTESIAN_POINT('Origin',(-83.7157890324958,-145.,-111.882));
#1645=CARTESIAN_POINT('Origin',(-80.8290376865477,-140.,0.));
#1646=CARTESIAN_POINT('',(-77.9422863405995,-140.,-111.882));
#1647=CARTESIAN_POINT('',(-77.9422863405995,-140.,0.));
#1648=CARTESIAN_POINT('',(-80.8290376865477,-140.,-111.882));
#1649=CARTESIAN_POINT('Origin',(-77.9422863405995,-135.,0.));
#1650=CARTESIAN_POINT('Origin',(-77.9422863405995,-135.,-111.882));
#1651=CARTESIAN_POINT('Origin',(0.,-1.77635683940025E-14,-111.882));
#1652=CARTESIAN_POINT('Origin',(83.7157890324956,-145.,0.));
#1653=UNCERTAINTY_MEASURE_WITH_UNIT(LENGTH_MEASURE(0.01),#1657,
'DISTANCE_ACCURACY_VALUE',
'Maximum model space distance between geometric entities at asserted c
onnectivities');
#1654=UNCERTAINTY_MEASURE_WITH_UNIT(LENGTH_MEASURE(0.01),#1657,
'DISTANCE_ACCURACY_VALUE',
'Maximum model space distance between geometric entities at asserted c
onnectivities');
#1655=(
GEOMETRIC_REPRESENTATION_CONTEXT(3)
GLOBAL_UNCERTAINTY_ASSIGNED_CONTEXT((#1653))
GLOBAL_UNIT_ASSIGNED_CONTEXT((#1657,#1659,#1660))
REPRESENTATION_CONTEXT('','3D')
);
#1656=(
GEOMETRIC_REPRESENTATION_CONTEXT(3)
GLOBAL_UNCERTAINTY_ASSIGNED_CONTEXT((#1654))
GLOBAL_UNIT_ASSIGNED_CONTEXT((#1657,#1659,#1660))
REPRESENTATION_CONTEXT('','3D')
);
#1657=(
LENGTH_UNIT()
NAMED_UNIT(*)
SI_UNIT(.MILLI.,.METRE.)
);
#1658=(
LENGTH_UNIT()
NAMED_UNIT(*)
SI_UNIT($,.METRE.)
);
#1659=(
NAMED_UNIT(*)
PLANE_ANGLE_UNIT()
SI_UNIT($,.RADIAN.)
);
#1660=(
NAMED_UNIT(*)
SI_UNIT($,.STERADIAN.)
SOLID_ANGLE_UNIT()
);
#1661=SHAPE_DEFINITION_REPRESENTATION(#1662,#1663);
#1662=PRODUCT_DEFINITION_SHAPE('',$,#1665);
#1663=SHAPE_REPRESENTATION('',(#986),#1655);
#1664=PRODUCT_DEFINITION_CONTEXT('part definition',#1669,'design');
#1665=PRODUCT_DEFINITION('2026-06-20-12-35-07-867','FusionComponent',#1666,
#1664);
#1666=PRODUCT_DEFINITION_FORMATION('',$,#1671);
#1667=PRODUCT_RELATED_PRODUCT_CATEGORY('FusionComponent',
'FusionComponent',(#1671));
#1668=APPLICATION_PROTOCOL_DEFINITION('international standard',
'automotive_design',2009,#1669);
#1669=APPLICATION_CONTEXT(
'Core Data for Automotive Mechanical Design Process');
#1670=PRODUCT_CONTEXT('part definition',#1669,'mechanical');
#1671=PRODUCT('2026-06-20-12-35-07-867','FusionComponent',$,(#1670));
#1672=PRESENTATION_STYLE_ASSIGNMENT((#1673));
#1673=SURFACE_STYLE_USAGE(.BOTH.,#1674);
#1674=SURFACE_SIDE_STYLE('',(#1675));
#1675=SURFACE_STYLE_FILL_AREA(#1676);
#1676=FILL_AREA_STYLE('Steel - Satin',(#1677));
#1677=FILL_AREA_STYLE_COLOUR('Steel - Satin',#1678);
#1678=COLOUR_RGB('Steel - Satin',0.627450980392157,0.627450980392157,0.627450980392157);
ENDSEC;
END-ISO-10303-21;
