ISO-10303-21;
HEADER;
/* Generated by software containing ST-Developer
 * from STEP Tools, Inc. (www.steptools.com) 
 */

FILE_DESCRIPTION(
/* description */ (''),
/* implementation_level */ '2;1');

FILE_NAME(
/* name */ 'Servo Side B x1.step',
/* time_stamp */ '2026-06-20T16:36:52-05:00',
/* author */ (''),
/* organization */ (''),
/* preprocessor_version */ 'ST-DEVELOPER v20.1',
/* originating_system */ 'Autodesk Translation Framework v15.8.0.0',
/* authorisation */ '');

FILE_SCHEMA (('AUTOMOTIVE_DESIGN { 1 0 10303 214 3 1 1 }'));
ENDSEC;

DATA;
#10=MECHANICAL_DESIGN_GEOMETRIC_PRESENTATION_REPRESENTATION('',(#13),#1673);
#11=SHAPE_REPRESENTATION_RELATIONSHIP('SRR','None',#1680,#12);
#12=ADVANCED_BREP_SHAPE_REPRESENTATION('',(#14),#1672);
#13=STYLED_ITEM('',(#1689),#14);
#14=MANIFOLD_SOLID_BREP('Body1',#1001);
#15=FACE_BOUND('',#106,.T.);
#16=FACE_BOUND('',#147,.T.);
#17=PLANE('',#1018);
#18=PLANE('',#1022);
#19=PLANE('',#1023);
#20=PLANE('',#1024);
#21=PLANE('',#1031);
#22=PLANE('',#1032);
#23=PLANE('',#1036);
#24=PLANE('',#1040);
#25=PLANE('',#1041);
#26=PLANE('',#1042);
#27=PLANE('',#1045);
#28=PLANE('',#1046);
#29=PLANE('',#1049);
#30=PLANE('',#1052);
#31=PLANE('',#1055);
#32=PLANE('',#1058);
#33=PLANE('',#1059);
#34=PLANE('',#1069);
#35=PLANE('',#1073);
#36=PLANE('',#1076);
#37=PLANE('',#1079);
#38=PLANE('',#1080);
#39=PLANE('',#1081);
#40=PLANE('',#1082);
#41=PLANE('',#1083);
#42=PLANE('',#1084);
#43=PLANE('',#1090);
#44=PLANE('',#1093);
#45=PLANE('',#1094);
#46=PLANE('',#1095);
#47=PLANE('',#1096);
#48=PLANE('',#1097);
#49=PLANE('',#1098);
#50=FACE_OUTER_BOUND('',#100,.T.);
#51=FACE_OUTER_BOUND('',#101,.T.);
#52=FACE_OUTER_BOUND('',#102,.T.);
#53=FACE_OUTER_BOUND('',#103,.T.);
#54=FACE_OUTER_BOUND('',#104,.T.);
#55=FACE_OUTER_BOUND('',#105,.T.);
#56=FACE_OUTER_BOUND('',#107,.T.);
#57=FACE_OUTER_BOUND('',#108,.T.);
#58=FACE_OUTER_BOUND('',#109,.T.);
#59=FACE_OUTER_BOUND('',#110,.T.);
#60=FACE_OUTER_BOUND('',#111,.T.);
#61=FACE_OUTER_BOUND('',#112,.T.);
#62=FACE_OUTER_BOUND('',#113,.T.);
#63=FACE_OUTER_BOUND('',#114,.T.);
#64=FACE_OUTER_BOUND('',#115,.T.);
#65=FACE_OUTER_BOUND('',#116,.T.);
#66=FACE_OUTER_BOUND('',#117,.T.);
#67=FACE_OUTER_BOUND('',#118,.T.);
#68=FACE_OUTER_BOUND('',#119,.T.);
#69=FACE_OUTER_BOUND('',#120,.T.);
#70=FACE_OUTER_BOUND('',#121,.T.);
#71=FACE_OUTER_BOUND('',#122,.T.);
#72=FACE_OUTER_BOUND('',#123,.T.);
#73=FACE_OUTER_BOUND('',#124,.T.);
#74=FACE_OUTER_BOUND('',#125,.T.);
#75=FACE_OUTER_BOUND('',#126,.T.);
#76=FACE_OUTER_BOUND('',#127,.T.);
#77=FACE_OUTER_BOUND('',#128,.T.);
#78=FACE_OUTER_BOUND('',#129,.T.);
#79=FACE_OUTER_BOUND('',#130,.T.);
#80=FACE_OUTER_BOUND('',#131,.T.);
#81=FACE_OUTER_BOUND('',#132,.T.);
#82=FACE_OUTER_BOUND('',#133,.T.);
#83=FACE_OUTER_BOUND('',#134,.T.);
#84=FACE_OUTER_BOUND('',#135,.T.);
#85=FACE_OUTER_BOUND('',#136,.T.);
#86=FACE_OUTER_BOUND('',#137,.T.);
#87=FACE_OUTER_BOUND('',#138,.T.);
#88=FACE_OUTER_BOUND('',#139,.T.);
#89=FACE_OUTER_BOUND('',#140,.T.);
#90=FACE_OUTER_BOUND('',#141,.T.);
#91=FACE_OUTER_BOUND('',#142,.T.);
#92=FACE_OUTER_BOUND('',#143,.T.);
#93=FACE_OUTER_BOUND('',#144,.T.);
#94=FACE_OUTER_BOUND('',#145,.T.);
#95=FACE_OUTER_BOUND('',#146,.T.);
#96=FACE_OUTER_BOUND('',#148,.T.);
#97=FACE_OUTER_BOUND('',#149,.T.);
#98=FACE_OUTER_BOUND('',#150,.T.);
#99=FACE_OUTER_BOUND('',#151,.T.);
#100=EDGE_LOOP('',(#646,#647,#648,#649));
#101=EDGE_LOOP('',(#650,#651,#652,#653));
#102=EDGE_LOOP('',(#654,#655,#656,#657));
#103=EDGE_LOOP('',(#658,#659,#660,#661));
#104=EDGE_LOOP('',(#662,#663,#664,#665));
#105=EDGE_LOOP('',(#666,#667,#668,#669,#670,#671,#672,#673,#674,#675,#676,
#677,#678,#679,#680,#681));
#106=EDGE_LOOP('',(#682,#683,#684,#685,#686,#687,#688,#689));
#107=EDGE_LOOP('',(#690,#691,#692,#693));
#108=EDGE_LOOP('',(#694,#695,#696,#697,#698,#699,#700,#701));
#109=EDGE_LOOP('',(#702,#703,#704,#705));
#110=EDGE_LOOP('',(#706,#707,#708,#709));
#111=EDGE_LOOP('',(#710,#711,#712,#713));
#112=EDGE_LOOP('',(#714,#715,#716,#717));
#113=EDGE_LOOP('',(#718,#719,#720,#721));
#114=EDGE_LOOP('',(#722,#723,#724,#725,#726,#727,#728,#729,#730,#731,#732,
#733,#734,#735,#736,#737));
#115=EDGE_LOOP('',(#738,#739,#740,#741,#742,#743,#744,#745,#746,#747,#748,
#749));
#116=EDGE_LOOP('',(#750,#751,#752,#753));
#117=EDGE_LOOP('',(#754,#755,#756,#757));
#118=EDGE_LOOP('',(#758,#759,#760,#761));
#119=EDGE_LOOP('',(#762,#763,#764,#765));
#120=EDGE_LOOP('',(#766,#767,#768,#769));
#121=EDGE_LOOP('',(#770,#771,#772,#773));
#122=EDGE_LOOP('',(#774,#775,#776,#777));
#123=EDGE_LOOP('',(#778,#779,#780,#781));
#124=EDGE_LOOP('',(#782,#783,#784,#785));
#125=EDGE_LOOP('',(#786,#787,#788,#789));
#126=EDGE_LOOP('',(#790,#791,#792,#793));
#127=EDGE_LOOP('',(#794,#795,#796,#797));
#128=EDGE_LOOP('',(#798,#799,#800,#801));
#129=EDGE_LOOP('',(#802,#803,#804,#805));
#130=EDGE_LOOP('',(#806,#807,#808,#809));
#131=EDGE_LOOP('',(#810,#811,#812,#813));
#132=EDGE_LOOP('',(#814,#815,#816,#817));
#133=EDGE_LOOP('',(#818,#819,#820,#821));
#134=EDGE_LOOP('',(#822,#823,#824,#825));
#135=EDGE_LOOP('',(#826,#827,#828,#829));
#136=EDGE_LOOP('',(#830,#831,#832,#833));
#137=EDGE_LOOP('',(#834,#835,#836,#837,#838,#839));
#138=EDGE_LOOP('',(#840,#841,#842,#843,#844,#845,#846,#847,#848,#849,#850,
#851,#852,#853,#854,#855));
#139=EDGE_LOOP('',(#856,#857,#858,#859));
#140=EDGE_LOOP('',(#860,#861,#862,#863,#864,#865));
#141=EDGE_LOOP('',(#866,#867,#868,#869));
#142=EDGE_LOOP('',(#870,#871,#872,#873));
#143=EDGE_LOOP('',(#874,#875,#876,#877));
#144=EDGE_LOOP('',(#878,#879,#880,#881));
#145=EDGE_LOOP('',(#882,#883,#884,#885,#886,#887));
#146=EDGE_LOOP('',(#888,#889,#890,#891,#892,#893,#894,#895,#896,#897));
#147=EDGE_LOOP('',(#898,#899,#900,#901,#902,#903,#904,#905));
#148=EDGE_LOOP('',(#906,#907,#908,#909));
#149=EDGE_LOOP('',(#910,#911,#912,#913));
#150=EDGE_LOOP('',(#914,#915,#916,#917,#918,#919,#920,#921,#922,#923));
#151=EDGE_LOOP('',(#924,#925,#926,#927,#928,#929,#930,#931,#932,#933));
#152=LINE('',#1385,#262);
#153=LINE('',#1388,#263);
#154=LINE('',#1391,#264);
#155=LINE('',#1393,#265);
#156=LINE('',#1394,#266);
#157=LINE('',#1399,#267);
#158=LINE('',#1403,#268);
#159=LINE('',#1405,#269);
#160=LINE('',#1406,#270);
#161=LINE('',#1409,#271);
#162=LINE('',#1411,#272);
#163=LINE('',#1412,#273);
#164=LINE('',#1415,#274);
#165=LINE('',#1417,#275);
#166=LINE('',#1419,#276);
#167=LINE('',#1421,#277);
#168=LINE('',#1423,#278);
#169=LINE('',#1425,#279);
#170=LINE('',#1429,#280);
#171=LINE('',#1433,#281);
#172=LINE('',#1434,#282);
#173=LINE('',#1437,#283);
#174=LINE('',#1441,#284);
#175=LINE('',#1445,#285);
#176=LINE('',#1449,#286);
#177=LINE('',#1453,#287);
#178=LINE('',#1454,#288);
#179=LINE('',#1457,#289);
#180=LINE('',#1459,#290);
#181=LINE('',#1460,#291);
#182=LINE('',#1462,#292);
#183=LINE('',#1463,#293);
#184=LINE('',#1469,#294);
#185=LINE('',#1472,#295);
#186=LINE('',#1475,#296);
#187=LINE('',#1477,#297);
#188=LINE('',#1478,#298);
#189=LINE('',#1483,#299);
#190=LINE('',#1487,#300);
#191=LINE('',#1489,#301);
#192=LINE('',#1490,#302);
#193=LINE('',#1493,#303);
#194=LINE('',#1495,#304);
#195=LINE('',#1496,#305);
#196=LINE('',#1499,#306);
#197=LINE('',#1501,#307);
#198=LINE('',#1505,#308);
#199=LINE('',#1509,#309);
#200=LINE('',#1511,#310);
#201=LINE('',#1513,#311);
#202=LINE('',#1515,#312);
#203=LINE('',#1517,#313);
#204=LINE('',#1518,#314);
#205=LINE('',#1521,#315);
#206=LINE('',#1523,#316);
#207=LINE('',#1525,#317);
#208=LINE('',#1527,#318);
#209=LINE('',#1529,#319);
#210=LINE('',#1530,#320);
#211=LINE('',#1532,#321);
#212=LINE('',#1534,#322);
#213=LINE('',#1535,#323);
#214=LINE('',#1538,#324);
#215=LINE('',#1539,#325);
#216=LINE('',#1542,#326);
#217=LINE('',#1545,#327);
#218=LINE('',#1548,#328);
#219=LINE('',#1549,#329);
#220=LINE('',#1552,#330);
#221=LINE('',#1555,#331);
#222=LINE('',#1557,#332);
#223=LINE('',#1560,#333);
#224=LINE('',#1564,#334);
#225=LINE('',#1565,#335);
#226=LINE('',#1568,#336);
#227=LINE('',#1571,#337);
#228=LINE('',#1575,#338);
#229=LINE('',#1577,#339);
#230=LINE('',#1579,#340);
#231=LINE('',#1580,#341);
#232=LINE('',#1585,#342);
#233=LINE('',#1591,#343);
#234=LINE('',#1598,#344);
#235=LINE('',#1601,#345);
#236=LINE('',#1603,#346);
#237=LINE('',#1604,#347);
#238=LINE('',#1610,#348);
#239=LINE('',#1613,#349);
#240=LINE('',#1615,#350);
#241=LINE('',#1616,#351);
#242=LINE('',#1621,#352);
#243=LINE('',#1622,#353);
#244=LINE('',#1624,#354);
#245=LINE('',#1629,#355);
#246=LINE('',#1630,#356);
#247=LINE('',#1632,#357);
#248=LINE('',#1634,#358);
#249=LINE('',#1635,#359);
#250=LINE('',#1638,#360);
#251=LINE('',#1639,#361);
#252=LINE('',#1641,#362);
#253=LINE('',#1650,#363);
#254=LINE('',#1651,#364);
#255=LINE('',#1654,#365);
#256=LINE('',#1655,#366);
#257=LINE('',#1659,#367);
#258=LINE('',#1661,#368);
#259=LINE('',#1662,#369);
#260=LINE('',#1664,#370);
#261=LINE('',#1665,#371);
#262=VECTOR('',#1105,10.);
#263=VECTOR('',#1108,10.);
#264=VECTOR('',#1111,10.);
#265=VECTOR('',#1112,10.);
#266=VECTOR('',#1113,10.);
#267=VECTOR('',#1118,10.);
#268=VECTOR('',#1123,10.);
#269=VECTOR('',#1124,10.);
#270=VECTOR('',#1125,10.);
#271=VECTOR('',#1128,10.);
#272=VECTOR('',#1129,10.);
#273=VECTOR('',#1130,10.);
#274=VECTOR('',#1133,10.);
#275=VECTOR('',#1134,10.);
#276=VECTOR('',#1135,10.);
#277=VECTOR('',#1136,10.);
#278=VECTOR('',#1137,10.);
#279=VECTOR('',#1138,10.);
#280=VECTOR('',#1141,10.);
#281=VECTOR('',#1144,10.);
#282=VECTOR('',#1145,10.);
#283=VECTOR('',#1146,10.);
#284=VECTOR('',#1149,10.);
#285=VECTOR('',#1152,10.);
#286=VECTOR('',#1155,10.);
#287=VECTOR('',#1160,10.);
#288=VECTOR('',#1161,10.);
#289=VECTOR('',#1164,10.);
#290=VECTOR('',#1165,10.);
#291=VECTOR('',#1166,10.);
#292=VECTOR('',#1167,10.);
#293=VECTOR('',#1168,10.);
#294=VECTOR('',#1173,10.);
#295=VECTOR('',#1176,10.);
#296=VECTOR('',#1179,10.);
#297=VECTOR('',#1180,10.);
#298=VECTOR('',#1181,10.);
#299=VECTOR('',#1186,10.);
#300=VECTOR('',#1191,10.);
#301=VECTOR('',#1192,10.);
#302=VECTOR('',#1193,10.);
#303=VECTOR('',#1196,10.);
#304=VECTOR('',#1197,10.);
#305=VECTOR('',#1198,10.);
#306=VECTOR('',#1201,10.);
#307=VECTOR('',#1202,10.);
#308=VECTOR('',#1205,10.);
#309=VECTOR('',#1208,10.);
#310=VECTOR('',#1209,10.);
#311=VECTOR('',#1210,10.);
#312=VECTOR('',#1211,10.);
#313=VECTOR('',#1212,10.);
#314=VECTOR('',#1213,10.);
#315=VECTOR('',#1216,10.);
#316=VECTOR('',#1217,10.);
#317=VECTOR('',#1218,10.);
#318=VECTOR('',#1219,10.);
#319=VECTOR('',#1220,10.);
#320=VECTOR('',#1221,10.);
#321=VECTOR('',#1222,10.);
#322=VECTOR('',#1223,10.);
#323=VECTOR('',#1224,10.);
#324=VECTOR('',#1227,10.);
#325=VECTOR('',#1228,10.);
#326=VECTOR('',#1231,10.);
#327=VECTOR('',#1234,10.);
#328=VECTOR('',#1237,10.);
#329=VECTOR('',#1238,10.);
#330=VECTOR('',#1241,10.);
#331=VECTOR('',#1244,10.);
#332=VECTOR('',#1247,10.);
#333=VECTOR('',#1250,10.);
#334=VECTOR('',#1255,10.);
#335=VECTOR('',#1256,10.);
#336=VECTOR('',#1259,10.);
#337=VECTOR('',#1264,10.);
#338=VECTOR('',#1267,10.);
#339=VECTOR('',#1268,10.);
#340=VECTOR('',#1269,10.);
#341=VECTOR('',#1270,10.);
#342=VECTOR('',#1275,10.);
#343=VECTOR('',#1282,10.);
#344=VECTOR('',#1289,10.);
#345=VECTOR('',#1292,10.);
#346=VECTOR('',#1295,10.);
#347=VECTOR('',#1296,10.);
#348=VECTOR('',#1301,10.);
#349=VECTOR('',#1304,10.);
#350=VECTOR('',#1307,10.);
#351=VECTOR('',#1308,10.);
#352=VECTOR('',#1313,10.);
#353=VECTOR('',#1314,10.);
#354=VECTOR('',#1317,10.);
#355=VECTOR('',#1322,10.);
#356=VECTOR('',#1323,10.);
#357=VECTOR('',#1326,10.);
#358=VECTOR('',#1329,10.);
#359=VECTOR('',#1330,10.);
#360=VECTOR('',#1335,10.);
#361=VECTOR('',#1336,10.);
#362=VECTOR('',#1339,10.);
#363=VECTOR('',#1352,10.);
#364=VECTOR('',#1353,10.);
#365=VECTOR('',#1356,10.);
#366=VECTOR('',#1357,10.);
#367=VECTOR('',#1362,10.);
#368=VECTOR('',#1365,10.);
#369=VECTOR('',#1366,10.);
#370=VECTOR('',#1369,10.);
#371=VECTOR('',#1370,10.);
#372=CIRCLE('',#1016,1.);
#373=CIRCLE('',#1017,1.);
#374=CIRCLE('',#1020,1.);
#375=CIRCLE('',#1021,1.);
#376=CIRCLE('',#1025,1.);
#377=CIRCLE('',#1026,1.);
#378=CIRCLE('',#1027,1.);
#379=CIRCLE('',#1028,1.);
#380=CIRCLE('',#1029,1.);
#381=CIRCLE('',#1030,1.);
#382=CIRCLE('',#1034,1.);
#383=CIRCLE('',#1035,1.);
#384=CIRCLE('',#1038,1.);
#385=CIRCLE('',#1039,1.);
#386=CIRCLE('',#1043,1.);
#387=CIRCLE('',#1044,1.);
#388=CIRCLE('',#1048,1.);
#389=CIRCLE('',#1051,1.);
#390=CIRCLE('',#1054,1.);
#391=CIRCLE('',#1057,1.);
#392=CIRCLE('',#1061,15.);
#393=CIRCLE('',#1062,15.);
#394=CIRCLE('',#1064,15.);
#395=CIRCLE('',#1065,15.);
#396=CIRCLE('',#1067,1.);
#397=CIRCLE('',#1068,1.);
#398=CIRCLE('',#1071,1.);
#399=CIRCLE('',#1072,1.);
#400=CIRCLE('',#1075,1.);
#401=CIRCLE('',#1078,1.);
#402=CIRCLE('',#1086,15.);
#403=CIRCLE('',#1087,15.);
#404=CIRCLE('',#1089,1.);
#405=CIRCLE('',#1092,1.);
#406=VERTEX_POINT('',#1381);
#407=VERTEX_POINT('',#1382);
#408=VERTEX_POINT('',#1384);
#409=VERTEX_POINT('',#1386);
#410=VERTEX_POINT('',#1390);
#411=VERTEX_POINT('',#1392);
#412=VERTEX_POINT('',#1396);
#413=VERTEX_POINT('',#1398);
#414=VERTEX_POINT('',#1402);
#415=VERTEX_POINT('',#1404);
#416=VERTEX_POINT('',#1408);
#417=VERTEX_POINT('',#1410);
#418=VERTEX_POINT('',#1414);
#419=VERTEX_POINT('',#1416);
#420=VERTEX_POINT('',#1418);
#421=VERTEX_POINT('',#1420);
#422=VERTEX_POINT('',#1422);
#423=VERTEX_POINT('',#1424);
#424=VERTEX_POINT('',#1426);
#425=VERTEX_POINT('',#1428);
#426=VERTEX_POINT('',#1430);
#427=VERTEX_POINT('',#1432);
#428=VERTEX_POINT('',#1435);
#429=VERTEX_POINT('',#1436);
#430=VERTEX_POINT('',#1438);
#431=VERTEX_POINT('',#1440);
#432=VERTEX_POINT('',#1442);
#433=VERTEX_POINT('',#1444);
#434=VERTEX_POINT('',#1446);
#435=VERTEX_POINT('',#1448);
#436=VERTEX_POINT('',#1452);
#437=VERTEX_POINT('',#1456);
#438=VERTEX_POINT('',#1458);
#439=VERTEX_POINT('',#1461);
#440=VERTEX_POINT('',#1465);
#441=VERTEX_POINT('',#1466);
#442=VERTEX_POINT('',#1468);
#443=VERTEX_POINT('',#1470);
#444=VERTEX_POINT('',#1474);
#445=VERTEX_POINT('',#1476);
#446=VERTEX_POINT('',#1480);
#447=VERTEX_POINT('',#1482);
#448=VERTEX_POINT('',#1486);
#449=VERTEX_POINT('',#1488);
#450=VERTEX_POINT('',#1492);
#451=VERTEX_POINT('',#1494);
#452=VERTEX_POINT('',#1498);
#453=VERTEX_POINT('',#1500);
#454=VERTEX_POINT('',#1502);
#455=VERTEX_POINT('',#1504);
#456=VERTEX_POINT('',#1506);
#457=VERTEX_POINT('',#1508);
#458=VERTEX_POINT('',#1510);
#459=VERTEX_POINT('',#1512);
#460=VERTEX_POINT('',#1514);
#461=VERTEX_POINT('',#1516);
#462=VERTEX_POINT('',#1520);
#463=VERTEX_POINT('',#1522);
#464=VERTEX_POINT('',#1524);
#465=VERTEX_POINT('',#1526);
#466=VERTEX_POINT('',#1528);
#467=VERTEX_POINT('',#1531);
#468=VERTEX_POINT('',#1533);
#469=VERTEX_POINT('',#1537);
#470=VERTEX_POINT('',#1541);
#471=VERTEX_POINT('',#1543);
#472=VERTEX_POINT('',#1547);
#473=VERTEX_POINT('',#1551);
#474=VERTEX_POINT('',#1553);
#475=VERTEX_POINT('',#1559);
#476=VERTEX_POINT('',#1563);
#477=VERTEX_POINT('',#1567);
#478=VERTEX_POINT('',#1573);
#479=VERTEX_POINT('',#1574);
#480=VERTEX_POINT('',#1576);
#481=VERTEX_POINT('',#1578);
#482=VERTEX_POINT('',#1582);
#483=VERTEX_POINT('',#1584);
#484=VERTEX_POINT('',#1588);
#485=VERTEX_POINT('',#1590);
#486=VERTEX_POINT('',#1594);
#487=VERTEX_POINT('',#1595);
#488=VERTEX_POINT('',#1597);
#489=VERTEX_POINT('',#1599);
#490=VERTEX_POINT('',#1606);
#491=VERTEX_POINT('',#1607);
#492=VERTEX_POINT('',#1609);
#493=VERTEX_POINT('',#1611);
#494=VERTEX_POINT('',#1618);
#495=VERTEX_POINT('',#1619);
#496=VERTEX_POINT('',#1626);
#497=VERTEX_POINT('',#1627);
#498=VERTEX_POINT('',#1647);
#499=VERTEX_POINT('',#1648);
#500=VERTEX_POINT('',#1653);
#501=VERTEX_POINT('',#1657);
#502=EDGE_CURVE('',#406,#407,#372,.T.);
#503=EDGE_CURVE('',#407,#408,#152,.T.);
#504=EDGE_CURVE('',#408,#409,#373,.T.);
#505=EDGE_CURVE('',#409,#406,#153,.T.);
#506=EDGE_CURVE('',#410,#407,#154,.T.);
#507=EDGE_CURVE('',#411,#410,#155,.T.);
#508=EDGE_CURVE('',#408,#411,#156,.T.);
#509=EDGE_CURVE('',#410,#412,#374,.T.);
#510=EDGE_CURVE('',#412,#413,#157,.T.);
#511=EDGE_CURVE('',#413,#411,#375,.T.);
#512=EDGE_CURVE('',#414,#412,#158,.T.);
#513=EDGE_CURVE('',#415,#414,#159,.T.);
#514=EDGE_CURVE('',#413,#415,#160,.T.);
#515=EDGE_CURVE('',#416,#409,#161,.T.);
#516=EDGE_CURVE('',#417,#416,#162,.T.);
#517=EDGE_CURVE('',#406,#417,#163,.T.);
#518=EDGE_CURVE('',#417,#418,#164,.T.);
#519=EDGE_CURVE('',#419,#418,#165,.T.);
#520=EDGE_CURVE('',#419,#420,#166,.T.);
#521=EDGE_CURVE('',#421,#420,#167,.T.);
#522=EDGE_CURVE('',#421,#422,#168,.T.);
#523=EDGE_CURVE('',#422,#423,#169,.T.);
#524=EDGE_CURVE('',#424,#423,#376,.T.);
#525=EDGE_CURVE('',#424,#425,#170,.T.);
#526=EDGE_CURVE('',#426,#425,#377,.T.);
#527=EDGE_CURVE('',#426,#427,#171,.T.);
#528=EDGE_CURVE('',#427,#414,#172,.T.);
#529=EDGE_CURVE('',#428,#429,#173,.T.);
#530=EDGE_CURVE('',#430,#429,#378,.T.);
#531=EDGE_CURVE('',#430,#431,#174,.T.);
#532=EDGE_CURVE('',#432,#431,#379,.T.);
#533=EDGE_CURVE('',#432,#433,#175,.T.);
#534=EDGE_CURVE('',#434,#433,#380,.T.);
#535=EDGE_CURVE('',#434,#435,#176,.T.);
#536=EDGE_CURVE('',#428,#435,#381,.T.);
#537=EDGE_CURVE('',#436,#416,#177,.T.);
#538=EDGE_CURVE('',#418,#436,#178,.T.);
#539=EDGE_CURVE('',#437,#427,#179,.T.);
#540=EDGE_CURVE('',#438,#437,#180,.T.);
#541=EDGE_CURVE('',#422,#438,#181,.T.);
#542=EDGE_CURVE('',#439,#421,#182,.T.);
#543=EDGE_CURVE('',#415,#439,#183,.T.);
#544=EDGE_CURVE('',#440,#441,#382,.T.);
#545=EDGE_CURVE('',#441,#442,#184,.T.);
#546=EDGE_CURVE('',#442,#443,#383,.T.);
#547=EDGE_CURVE('',#443,#440,#185,.T.);
#548=EDGE_CURVE('',#444,#441,#186,.T.);
#549=EDGE_CURVE('',#445,#444,#187,.T.);
#550=EDGE_CURVE('',#442,#445,#188,.T.);
#551=EDGE_CURVE('',#444,#446,#384,.T.);
#552=EDGE_CURVE('',#446,#447,#189,.T.);
#553=EDGE_CURVE('',#447,#445,#385,.T.);
#554=EDGE_CURVE('',#448,#446,#190,.T.);
#555=EDGE_CURVE('',#449,#448,#191,.T.);
#556=EDGE_CURVE('',#447,#449,#192,.T.);
#557=EDGE_CURVE('',#450,#443,#193,.T.);
#558=EDGE_CURVE('',#451,#450,#194,.T.);
#559=EDGE_CURVE('',#440,#451,#195,.T.);
#560=EDGE_CURVE('',#451,#452,#196,.T.);
#561=EDGE_CURVE('',#452,#453,#197,.T.);
#562=EDGE_CURVE('',#454,#453,#386,.T.);
#563=EDGE_CURVE('',#454,#455,#198,.T.);
#564=EDGE_CURVE('',#456,#455,#387,.T.);
#565=EDGE_CURVE('',#456,#457,#199,.T.);
#566=EDGE_CURVE('',#457,#458,#200,.T.);
#567=EDGE_CURVE('',#459,#458,#201,.T.);
#568=EDGE_CURVE('',#460,#459,#202,.T.);
#569=EDGE_CURVE('',#461,#460,#203,.T.);
#570=EDGE_CURVE('',#461,#448,#204,.T.);
#571=EDGE_CURVE('',#462,#450,#205,.T.);
#572=EDGE_CURVE('',#462,#463,#206,.T.);
#573=EDGE_CURVE('',#463,#464,#207,.T.);
#574=EDGE_CURVE('',#464,#465,#208,.T.);
#575=EDGE_CURVE('',#466,#465,#209,.T.);
#576=EDGE_CURVE('',#458,#466,#210,.T.);
#577=EDGE_CURVE('',#457,#467,#211,.T.);
#578=EDGE_CURVE('',#467,#468,#212,.T.);
#579=EDGE_CURVE('',#468,#452,#213,.T.);
#580=EDGE_CURVE('',#469,#461,#214,.T.);
#581=EDGE_CURVE('',#449,#469,#215,.T.);
#582=EDGE_CURVE('',#429,#470,#216,.T.);
#583=EDGE_CURVE('',#470,#471,#388,.T.);
#584=EDGE_CURVE('',#471,#430,#217,.T.);
#585=EDGE_CURVE('',#472,#428,#218,.T.);
#586=EDGE_CURVE('',#470,#472,#219,.T.);
#587=EDGE_CURVE('',#431,#473,#220,.T.);
#588=EDGE_CURVE('',#473,#474,#389,.T.);
#589=EDGE_CURVE('',#474,#432,#221,.T.);
#590=EDGE_CURVE('',#473,#471,#222,.T.);
#591=EDGE_CURVE('',#435,#475,#223,.T.);
#592=EDGE_CURVE('',#475,#472,#390,.T.);
#593=EDGE_CURVE('',#476,#434,#224,.T.);
#594=EDGE_CURVE('',#475,#476,#225,.T.);
#595=EDGE_CURVE('',#433,#477,#226,.T.);
#596=EDGE_CURVE('',#477,#476,#391,.T.);
#597=EDGE_CURVE('',#477,#474,#227,.T.);
#598=EDGE_CURVE('',#478,#479,#228,.T.);
#599=EDGE_CURVE('',#480,#478,#229,.T.);
#600=EDGE_CURVE('',#481,#480,#230,.T.);
#601=EDGE_CURVE('',#481,#479,#231,.T.);
#602=EDGE_CURVE('',#482,#479,#392,.T.);
#603=EDGE_CURVE('',#482,#483,#232,.T.);
#604=EDGE_CURVE('',#478,#483,#393,.T.);
#605=EDGE_CURVE('',#484,#480,#394,.T.);
#606=EDGE_CURVE('',#485,#484,#233,.T.);
#607=EDGE_CURVE('',#481,#485,#395,.T.);
#608=EDGE_CURVE('',#486,#487,#396,.T.);
#609=EDGE_CURVE('',#486,#488,#234,.T.);
#610=EDGE_CURVE('',#488,#489,#397,.T.);
#611=EDGE_CURVE('',#489,#487,#235,.T.);
#612=EDGE_CURVE('',#465,#489,#236,.T.);
#613=EDGE_CURVE('',#487,#464,#237,.T.);
#614=EDGE_CURVE('',#490,#491,#398,.T.);
#615=EDGE_CURVE('',#490,#492,#238,.T.);
#616=EDGE_CURVE('',#492,#493,#399,.T.);
#617=EDGE_CURVE('',#493,#491,#239,.T.);
#618=EDGE_CURVE('',#491,#486,#240,.T.);
#619=EDGE_CURVE('',#488,#493,#241,.T.);
#620=EDGE_CURVE('',#494,#495,#400,.T.);
#621=EDGE_CURVE('',#494,#454,#242,.T.);
#622=EDGE_CURVE('',#453,#495,#243,.T.);
#623=EDGE_CURVE('',#468,#495,#244,.T.);
#624=EDGE_CURVE('',#496,#497,#401,.T.);
#625=EDGE_CURVE('',#496,#456,#245,.T.);
#626=EDGE_CURVE('',#455,#497,#246,.T.);
#627=EDGE_CURVE('',#494,#497,#247,.T.);
#628=EDGE_CURVE('',#463,#490,#248,.T.);
#629=EDGE_CURVE('',#492,#462,#249,.T.);
#630=EDGE_CURVE('',#485,#469,#250,.T.);
#631=EDGE_CURVE('',#466,#484,#251,.T.);
#632=EDGE_CURVE('',#496,#467,#252,.T.);
#633=EDGE_CURVE('',#420,#459,#402,.T.);
#634=EDGE_CURVE('',#460,#419,#403,.T.);
#635=EDGE_CURVE('',#498,#499,#404,.T.);
#636=EDGE_CURVE('',#498,#424,#253,.T.);
#637=EDGE_CURVE('',#423,#499,#254,.T.);
#638=EDGE_CURVE('',#498,#500,#255,.T.);
#639=EDGE_CURVE('',#425,#500,#256,.T.);
#640=EDGE_CURVE('',#501,#500,#405,.T.);
#641=EDGE_CURVE('',#501,#426,#257,.T.);
#642=EDGE_CURVE('',#438,#499,#258,.T.);
#643=EDGE_CURVE('',#501,#437,#259,.T.);
#644=EDGE_CURVE('',#483,#439,#260,.T.);
#645=EDGE_CURVE('',#436,#482,#261,.T.);
#646=ORIENTED_EDGE('',*,*,#502,.T.);
#647=ORIENTED_EDGE('',*,*,#503,.T.);
#648=ORIENTED_EDGE('',*,*,#504,.T.);
#649=ORIENTED_EDGE('',*,*,#505,.T.);
#650=ORIENTED_EDGE('',*,*,#503,.F.);
#651=ORIENTED_EDGE('',*,*,#506,.F.);
#652=ORIENTED_EDGE('',*,*,#507,.F.);
#653=ORIENTED_EDGE('',*,*,#508,.F.);
#654=ORIENTED_EDGE('',*,*,#509,.T.);
#655=ORIENTED_EDGE('',*,*,#510,.T.);
#656=ORIENTED_EDGE('',*,*,#511,.T.);
#657=ORIENTED_EDGE('',*,*,#507,.T.);
#658=ORIENTED_EDGE('',*,*,#510,.F.);
#659=ORIENTED_EDGE('',*,*,#512,.F.);
#660=ORIENTED_EDGE('',*,*,#513,.F.);
#661=ORIENTED_EDGE('',*,*,#514,.F.);
#662=ORIENTED_EDGE('',*,*,#505,.F.);
#663=ORIENTED_EDGE('',*,*,#515,.F.);
#664=ORIENTED_EDGE('',*,*,#516,.F.);
#665=ORIENTED_EDGE('',*,*,#517,.F.);
#666=ORIENTED_EDGE('',*,*,#512,.T.);
#667=ORIENTED_EDGE('',*,*,#509,.F.);
#668=ORIENTED_EDGE('',*,*,#506,.T.);
#669=ORIENTED_EDGE('',*,*,#502,.F.);
#670=ORIENTED_EDGE('',*,*,#517,.T.);
#671=ORIENTED_EDGE('',*,*,#518,.T.);
#672=ORIENTED_EDGE('',*,*,#519,.F.);
#673=ORIENTED_EDGE('',*,*,#520,.T.);
#674=ORIENTED_EDGE('',*,*,#521,.F.);
#675=ORIENTED_EDGE('',*,*,#522,.T.);
#676=ORIENTED_EDGE('',*,*,#523,.T.);
#677=ORIENTED_EDGE('',*,*,#524,.F.);
#678=ORIENTED_EDGE('',*,*,#525,.T.);
#679=ORIENTED_EDGE('',*,*,#526,.F.);
#680=ORIENTED_EDGE('',*,*,#527,.T.);
#681=ORIENTED_EDGE('',*,*,#528,.T.);
#682=ORIENTED_EDGE('',*,*,#529,.T.);
#683=ORIENTED_EDGE('',*,*,#530,.F.);
#684=ORIENTED_EDGE('',*,*,#531,.T.);
#685=ORIENTED_EDGE('',*,*,#532,.F.);
#686=ORIENTED_EDGE('',*,*,#533,.T.);
#687=ORIENTED_EDGE('',*,*,#534,.F.);
#688=ORIENTED_EDGE('',*,*,#535,.T.);
#689=ORIENTED_EDGE('',*,*,#536,.F.);
#690=ORIENTED_EDGE('',*,*,#516,.T.);
#691=ORIENTED_EDGE('',*,*,#537,.F.);
#692=ORIENTED_EDGE('',*,*,#538,.F.);
#693=ORIENTED_EDGE('',*,*,#518,.F.);
#694=ORIENTED_EDGE('',*,*,#513,.T.);
#695=ORIENTED_EDGE('',*,*,#528,.F.);
#696=ORIENTED_EDGE('',*,*,#539,.F.);
#697=ORIENTED_EDGE('',*,*,#540,.F.);
#698=ORIENTED_EDGE('',*,*,#541,.F.);
#699=ORIENTED_EDGE('',*,*,#522,.F.);
#700=ORIENTED_EDGE('',*,*,#542,.F.);
#701=ORIENTED_EDGE('',*,*,#543,.F.);
#702=ORIENTED_EDGE('',*,*,#544,.T.);
#703=ORIENTED_EDGE('',*,*,#545,.T.);
#704=ORIENTED_EDGE('',*,*,#546,.T.);
#705=ORIENTED_EDGE('',*,*,#547,.T.);
#706=ORIENTED_EDGE('',*,*,#545,.F.);
#707=ORIENTED_EDGE('',*,*,#548,.F.);
#708=ORIENTED_EDGE('',*,*,#549,.F.);
#709=ORIENTED_EDGE('',*,*,#550,.F.);
#710=ORIENTED_EDGE('',*,*,#551,.T.);
#711=ORIENTED_EDGE('',*,*,#552,.T.);
#712=ORIENTED_EDGE('',*,*,#553,.T.);
#713=ORIENTED_EDGE('',*,*,#549,.T.);
#714=ORIENTED_EDGE('',*,*,#552,.F.);
#715=ORIENTED_EDGE('',*,*,#554,.F.);
#716=ORIENTED_EDGE('',*,*,#555,.F.);
#717=ORIENTED_EDGE('',*,*,#556,.F.);
#718=ORIENTED_EDGE('',*,*,#547,.F.);
#719=ORIENTED_EDGE('',*,*,#557,.F.);
#720=ORIENTED_EDGE('',*,*,#558,.F.);
#721=ORIENTED_EDGE('',*,*,#559,.F.);
#722=ORIENTED_EDGE('',*,*,#554,.T.);
#723=ORIENTED_EDGE('',*,*,#551,.F.);
#724=ORIENTED_EDGE('',*,*,#548,.T.);
#725=ORIENTED_EDGE('',*,*,#544,.F.);
#726=ORIENTED_EDGE('',*,*,#559,.T.);
#727=ORIENTED_EDGE('',*,*,#560,.T.);
#728=ORIENTED_EDGE('',*,*,#561,.T.);
#729=ORIENTED_EDGE('',*,*,#562,.F.);
#730=ORIENTED_EDGE('',*,*,#563,.T.);
#731=ORIENTED_EDGE('',*,*,#564,.F.);
#732=ORIENTED_EDGE('',*,*,#565,.T.);
#733=ORIENTED_EDGE('',*,*,#566,.T.);
#734=ORIENTED_EDGE('',*,*,#567,.F.);
#735=ORIENTED_EDGE('',*,*,#568,.F.);
#736=ORIENTED_EDGE('',*,*,#569,.F.);
#737=ORIENTED_EDGE('',*,*,#570,.T.);
#738=ORIENTED_EDGE('',*,*,#558,.T.);
#739=ORIENTED_EDGE('',*,*,#571,.F.);
#740=ORIENTED_EDGE('',*,*,#572,.T.);
#741=ORIENTED_EDGE('',*,*,#573,.T.);
#742=ORIENTED_EDGE('',*,*,#574,.T.);
#743=ORIENTED_EDGE('',*,*,#575,.F.);
#744=ORIENTED_EDGE('',*,*,#576,.F.);
#745=ORIENTED_EDGE('',*,*,#566,.F.);
#746=ORIENTED_EDGE('',*,*,#577,.T.);
#747=ORIENTED_EDGE('',*,*,#578,.T.);
#748=ORIENTED_EDGE('',*,*,#579,.T.);
#749=ORIENTED_EDGE('',*,*,#560,.F.);
#750=ORIENTED_EDGE('',*,*,#555,.T.);
#751=ORIENTED_EDGE('',*,*,#570,.F.);
#752=ORIENTED_EDGE('',*,*,#580,.F.);
#753=ORIENTED_EDGE('',*,*,#581,.F.);
#754=ORIENTED_EDGE('',*,*,#530,.T.);
#755=ORIENTED_EDGE('',*,*,#582,.T.);
#756=ORIENTED_EDGE('',*,*,#583,.T.);
#757=ORIENTED_EDGE('',*,*,#584,.T.);
#758=ORIENTED_EDGE('',*,*,#582,.F.);
#759=ORIENTED_EDGE('',*,*,#529,.F.);
#760=ORIENTED_EDGE('',*,*,#585,.F.);
#761=ORIENTED_EDGE('',*,*,#586,.F.);
#762=ORIENTED_EDGE('',*,*,#532,.T.);
#763=ORIENTED_EDGE('',*,*,#587,.T.);
#764=ORIENTED_EDGE('',*,*,#588,.T.);
#765=ORIENTED_EDGE('',*,*,#589,.T.);
#766=ORIENTED_EDGE('',*,*,#584,.F.);
#767=ORIENTED_EDGE('',*,*,#590,.F.);
#768=ORIENTED_EDGE('',*,*,#587,.F.);
#769=ORIENTED_EDGE('',*,*,#531,.F.);
#770=ORIENTED_EDGE('',*,*,#536,.T.);
#771=ORIENTED_EDGE('',*,*,#591,.T.);
#772=ORIENTED_EDGE('',*,*,#592,.T.);
#773=ORIENTED_EDGE('',*,*,#585,.T.);
#774=ORIENTED_EDGE('',*,*,#591,.F.);
#775=ORIENTED_EDGE('',*,*,#535,.F.);
#776=ORIENTED_EDGE('',*,*,#593,.F.);
#777=ORIENTED_EDGE('',*,*,#594,.F.);
#778=ORIENTED_EDGE('',*,*,#534,.T.);
#779=ORIENTED_EDGE('',*,*,#595,.T.);
#780=ORIENTED_EDGE('',*,*,#596,.T.);
#781=ORIENTED_EDGE('',*,*,#593,.T.);
#782=ORIENTED_EDGE('',*,*,#589,.F.);
#783=ORIENTED_EDGE('',*,*,#597,.F.);
#784=ORIENTED_EDGE('',*,*,#595,.F.);
#785=ORIENTED_EDGE('',*,*,#533,.F.);
#786=ORIENTED_EDGE('',*,*,#598,.F.);
#787=ORIENTED_EDGE('',*,*,#599,.F.);
#788=ORIENTED_EDGE('',*,*,#600,.F.);
#789=ORIENTED_EDGE('',*,*,#601,.T.);
#790=ORIENTED_EDGE('',*,*,#598,.T.);
#791=ORIENTED_EDGE('',*,*,#602,.F.);
#792=ORIENTED_EDGE('',*,*,#603,.T.);
#793=ORIENTED_EDGE('',*,*,#604,.F.);
#794=ORIENTED_EDGE('',*,*,#600,.T.);
#795=ORIENTED_EDGE('',*,*,#605,.F.);
#796=ORIENTED_EDGE('',*,*,#606,.F.);
#797=ORIENTED_EDGE('',*,*,#607,.F.);
#798=ORIENTED_EDGE('',*,*,#608,.F.);
#799=ORIENTED_EDGE('',*,*,#609,.T.);
#800=ORIENTED_EDGE('',*,*,#610,.T.);
#801=ORIENTED_EDGE('',*,*,#611,.T.);
#802=ORIENTED_EDGE('',*,*,#611,.F.);
#803=ORIENTED_EDGE('',*,*,#612,.F.);
#804=ORIENTED_EDGE('',*,*,#574,.F.);
#805=ORIENTED_EDGE('',*,*,#613,.F.);
#806=ORIENTED_EDGE('',*,*,#614,.F.);
#807=ORIENTED_EDGE('',*,*,#615,.T.);
#808=ORIENTED_EDGE('',*,*,#616,.T.);
#809=ORIENTED_EDGE('',*,*,#617,.T.);
#810=ORIENTED_EDGE('',*,*,#609,.F.);
#811=ORIENTED_EDGE('',*,*,#618,.F.);
#812=ORIENTED_EDGE('',*,*,#617,.F.);
#813=ORIENTED_EDGE('',*,*,#619,.F.);
#814=ORIENTED_EDGE('',*,*,#620,.F.);
#815=ORIENTED_EDGE('',*,*,#621,.T.);
#816=ORIENTED_EDGE('',*,*,#562,.T.);
#817=ORIENTED_EDGE('',*,*,#622,.T.);
#818=ORIENTED_EDGE('',*,*,#622,.F.);
#819=ORIENTED_EDGE('',*,*,#561,.F.);
#820=ORIENTED_EDGE('',*,*,#579,.F.);
#821=ORIENTED_EDGE('',*,*,#623,.T.);
#822=ORIENTED_EDGE('',*,*,#624,.F.);
#823=ORIENTED_EDGE('',*,*,#625,.T.);
#824=ORIENTED_EDGE('',*,*,#564,.T.);
#825=ORIENTED_EDGE('',*,*,#626,.T.);
#826=ORIENTED_EDGE('',*,*,#621,.F.);
#827=ORIENTED_EDGE('',*,*,#627,.T.);
#828=ORIENTED_EDGE('',*,*,#626,.F.);
#829=ORIENTED_EDGE('',*,*,#563,.F.);
#830=ORIENTED_EDGE('',*,*,#615,.F.);
#831=ORIENTED_EDGE('',*,*,#628,.F.);
#832=ORIENTED_EDGE('',*,*,#572,.F.);
#833=ORIENTED_EDGE('',*,*,#629,.F.);
#834=ORIENTED_EDGE('',*,*,#608,.T.);
#835=ORIENTED_EDGE('',*,*,#613,.T.);
#836=ORIENTED_EDGE('',*,*,#573,.F.);
#837=ORIENTED_EDGE('',*,*,#628,.T.);
#838=ORIENTED_EDGE('',*,*,#614,.T.);
#839=ORIENTED_EDGE('',*,*,#618,.T.);
#840=ORIENTED_EDGE('',*,*,#556,.T.);
#841=ORIENTED_EDGE('',*,*,#581,.T.);
#842=ORIENTED_EDGE('',*,*,#630,.F.);
#843=ORIENTED_EDGE('',*,*,#606,.T.);
#844=ORIENTED_EDGE('',*,*,#631,.F.);
#845=ORIENTED_EDGE('',*,*,#575,.T.);
#846=ORIENTED_EDGE('',*,*,#612,.T.);
#847=ORIENTED_EDGE('',*,*,#610,.F.);
#848=ORIENTED_EDGE('',*,*,#619,.T.);
#849=ORIENTED_EDGE('',*,*,#616,.F.);
#850=ORIENTED_EDGE('',*,*,#629,.T.);
#851=ORIENTED_EDGE('',*,*,#571,.T.);
#852=ORIENTED_EDGE('',*,*,#557,.T.);
#853=ORIENTED_EDGE('',*,*,#546,.F.);
#854=ORIENTED_EDGE('',*,*,#550,.T.);
#855=ORIENTED_EDGE('',*,*,#553,.F.);
#856=ORIENTED_EDGE('',*,*,#625,.F.);
#857=ORIENTED_EDGE('',*,*,#632,.T.);
#858=ORIENTED_EDGE('',*,*,#577,.F.);
#859=ORIENTED_EDGE('',*,*,#565,.F.);
#860=ORIENTED_EDGE('',*,*,#620,.T.);
#861=ORIENTED_EDGE('',*,*,#623,.F.);
#862=ORIENTED_EDGE('',*,*,#578,.F.);
#863=ORIENTED_EDGE('',*,*,#632,.F.);
#864=ORIENTED_EDGE('',*,*,#624,.T.);
#865=ORIENTED_EDGE('',*,*,#627,.F.);
#866=ORIENTED_EDGE('',*,*,#568,.T.);
#867=ORIENTED_EDGE('',*,*,#633,.F.);
#868=ORIENTED_EDGE('',*,*,#520,.F.);
#869=ORIENTED_EDGE('',*,*,#634,.F.);
#870=ORIENTED_EDGE('',*,*,#635,.F.);
#871=ORIENTED_EDGE('',*,*,#636,.T.);
#872=ORIENTED_EDGE('',*,*,#524,.T.);
#873=ORIENTED_EDGE('',*,*,#637,.T.);
#874=ORIENTED_EDGE('',*,*,#636,.F.);
#875=ORIENTED_EDGE('',*,*,#638,.T.);
#876=ORIENTED_EDGE('',*,*,#639,.F.);
#877=ORIENTED_EDGE('',*,*,#525,.F.);
#878=ORIENTED_EDGE('',*,*,#640,.F.);
#879=ORIENTED_EDGE('',*,*,#641,.T.);
#880=ORIENTED_EDGE('',*,*,#526,.T.);
#881=ORIENTED_EDGE('',*,*,#639,.T.);
#882=ORIENTED_EDGE('',*,*,#635,.T.);
#883=ORIENTED_EDGE('',*,*,#642,.F.);
#884=ORIENTED_EDGE('',*,*,#540,.T.);
#885=ORIENTED_EDGE('',*,*,#643,.F.);
#886=ORIENTED_EDGE('',*,*,#640,.T.);
#887=ORIENTED_EDGE('',*,*,#638,.F.);
#888=ORIENTED_EDGE('',*,*,#514,.T.);
#889=ORIENTED_EDGE('',*,*,#543,.T.);
#890=ORIENTED_EDGE('',*,*,#644,.F.);
#891=ORIENTED_EDGE('',*,*,#603,.F.);
#892=ORIENTED_EDGE('',*,*,#645,.F.);
#893=ORIENTED_EDGE('',*,*,#537,.T.);
#894=ORIENTED_EDGE('',*,*,#515,.T.);
#895=ORIENTED_EDGE('',*,*,#504,.F.);
#896=ORIENTED_EDGE('',*,*,#508,.T.);
#897=ORIENTED_EDGE('',*,*,#511,.F.);
#898=ORIENTED_EDGE('',*,*,#586,.T.);
#899=ORIENTED_EDGE('',*,*,#592,.F.);
#900=ORIENTED_EDGE('',*,*,#594,.T.);
#901=ORIENTED_EDGE('',*,*,#596,.F.);
#902=ORIENTED_EDGE('',*,*,#597,.T.);
#903=ORIENTED_EDGE('',*,*,#588,.F.);
#904=ORIENTED_EDGE('',*,*,#590,.T.);
#905=ORIENTED_EDGE('',*,*,#583,.F.);
#906=ORIENTED_EDGE('',*,*,#641,.F.);
#907=ORIENTED_EDGE('',*,*,#643,.T.);
#908=ORIENTED_EDGE('',*,*,#539,.T.);
#909=ORIENTED_EDGE('',*,*,#527,.F.);
#910=ORIENTED_EDGE('',*,*,#637,.F.);
#911=ORIENTED_EDGE('',*,*,#523,.F.);
#912=ORIENTED_EDGE('',*,*,#541,.T.);
#913=ORIENTED_EDGE('',*,*,#642,.T.);
#914=ORIENTED_EDGE('',*,*,#644,.T.);
#915=ORIENTED_EDGE('',*,*,#542,.T.);
#916=ORIENTED_EDGE('',*,*,#521,.T.);
#917=ORIENTED_EDGE('',*,*,#633,.T.);
#918=ORIENTED_EDGE('',*,*,#567,.T.);
#919=ORIENTED_EDGE('',*,*,#576,.T.);
#920=ORIENTED_EDGE('',*,*,#631,.T.);
#921=ORIENTED_EDGE('',*,*,#605,.T.);
#922=ORIENTED_EDGE('',*,*,#599,.T.);
#923=ORIENTED_EDGE('',*,*,#604,.T.);
#924=ORIENTED_EDGE('',*,*,#519,.T.);
#925=ORIENTED_EDGE('',*,*,#538,.T.);
#926=ORIENTED_EDGE('',*,*,#645,.T.);
#927=ORIENTED_EDGE('',*,*,#602,.T.);
#928=ORIENTED_EDGE('',*,*,#601,.F.);
#929=ORIENTED_EDGE('',*,*,#607,.T.);
#930=ORIENTED_EDGE('',*,*,#630,.T.);
#931=ORIENTED_EDGE('',*,*,#580,.T.);
#932=ORIENTED_EDGE('',*,*,#569,.T.);
#933=ORIENTED_EDGE('',*,*,#634,.T.);
#934=CYLINDRICAL_SURFACE('',#1015,1.);
#935=CYLINDRICAL_SURFACE('',#1019,1.);
#936=CYLINDRICAL_SURFACE('',#1033,1.);
#937=CYLINDRICAL_SURFACE('',#1037,1.);
#938=CYLINDRICAL_SURFACE('',#1047,1.);
#939=CYLINDRICAL_SURFACE('',#1050,1.);
#940=CYLINDRICAL_SURFACE('',#1053,1.);
#941=CYLINDRICAL_SURFACE('',#1056,1.);
#942=CYLINDRICAL_SURFACE('',#1060,15.);
#943=CYLINDRICAL_SURFACE('',#1063,15.);
#944=CYLINDRICAL_SURFACE('',#1066,1.);
#945=CYLINDRICAL_SURFACE('',#1070,1.);
#946=CYLINDRICAL_SURFACE('',#1074,1.);
#947=CYLINDRICAL_SURFACE('',#1077,1.);
#948=CYLINDRICAL_SURFACE('',#1085,15.);
#949=CYLINDRICAL_SURFACE('',#1088,1.);
#950=CYLINDRICAL_SURFACE('',#1091,1.);
#951=ADVANCED_FACE('',(#50),#934,.F.);
#952=ADVANCED_FACE('',(#51),#17,.F.);
#953=ADVANCED_FACE('',(#52),#935,.F.);
#954=ADVANCED_FACE('',(#53),#18,.F.);
#955=ADVANCED_FACE('',(#54),#19,.F.);
#956=ADVANCED_FACE('',(#55,#15),#20,.T.);
#957=ADVANCED_FACE('',(#56),#21,.F.);
#958=ADVANCED_FACE('',(#57),#22,.F.);
#959=ADVANCED_FACE('',(#58),#936,.F.);
#960=ADVANCED_FACE('',(#59),#23,.F.);
#961=ADVANCED_FACE('',(#60),#937,.F.);
#962=ADVANCED_FACE('',(#61),#24,.F.);
#963=ADVANCED_FACE('',(#62),#25,.F.);
#964=ADVANCED_FACE('',(#63),#26,.T.);
#965=ADVANCED_FACE('',(#64),#27,.F.);
#966=ADVANCED_FACE('',(#65),#28,.F.);
#967=ADVANCED_FACE('',(#66),#938,.F.);
#968=ADVANCED_FACE('',(#67),#29,.F.);
#969=ADVANCED_FACE('',(#68),#939,.F.);
#970=ADVANCED_FACE('',(#69),#30,.F.);
#971=ADVANCED_FACE('',(#70),#940,.F.);
#972=ADVANCED_FACE('',(#71),#31,.F.);
#973=ADVANCED_FACE('',(#72),#941,.F.);
#974=ADVANCED_FACE('',(#73),#32,.F.);
#975=ADVANCED_FACE('',(#74),#33,.T.);
#976=ADVANCED_FACE('',(#75),#942,.F.);
#977=ADVANCED_FACE('',(#76),#943,.F.);
#978=ADVANCED_FACE('',(#77),#944,.F.);
#979=ADVANCED_FACE('',(#78),#34,.F.);
#980=ADVANCED_FACE('',(#79),#945,.F.);
#981=ADVANCED_FACE('',(#80),#35,.F.);
#982=ADVANCED_FACE('',(#81),#946,.F.);
#983=ADVANCED_FACE('',(#82),#36,.F.);
#984=ADVANCED_FACE('',(#83),#947,.F.);
#985=ADVANCED_FACE('',(#84),#37,.F.);
#986=ADVANCED_FACE('',(#85),#38,.F.);
#987=ADVANCED_FACE('',(#86),#39,.T.);
#988=ADVANCED_FACE('',(#87),#40,.T.);
#989=ADVANCED_FACE('',(#88),#41,.F.);
#990=ADVANCED_FACE('',(#89),#42,.F.);
#991=ADVANCED_FACE('',(#90),#948,.T.);
#992=ADVANCED_FACE('',(#91),#949,.F.);
#993=ADVANCED_FACE('',(#92),#43,.F.);
#994=ADVANCED_FACE('',(#93),#950,.F.);
#995=ADVANCED_FACE('',(#94),#44,.F.);
#996=ADVANCED_FACE('',(#95,#16),#45,.T.);
#997=ADVANCED_FACE('',(#96),#46,.F.);
#998=ADVANCED_FACE('',(#97),#47,.F.);
#999=ADVANCED_FACE('',(#98),#48,.F.);
#1000=ADVANCED_FACE('',(#99),#49,.T.);
#1001=CLOSED_SHELL('',(#951,#952,#953,#954,#955,#956,#957,#958,#959,#960,
#961,#962,#963,#964,#965,#966,#967,#968,#969,#970,#971,#972,#973,#974,#975,
#976,#977,#978,#979,#980,#981,#982,#983,#984,#985,#986,#987,#988,#989,#990,
#991,#992,#993,#994,#995,#996,#997,#998,#999,#1000));
#1002=DERIVED_UNIT_ELEMENT(#1004,1.);
#1003=DERIVED_UNIT_ELEMENT(#1675,-3.);
#1004=(
MASS_UNIT()
NAMED_UNIT(*)
SI_UNIT(.KILO.,.GRAM.)
);
#1005=DERIVED_UNIT((#1002,#1003));
#1006=MEASURE_REPRESENTATION_ITEM('density measure',
POSITIVE_RATIO_MEASURE(7850.),#1005);
#1007=PROPERTY_DEFINITION_REPRESENTATION(#1012,#1009);
#1008=PROPERTY_DEFINITION_REPRESENTATION(#1013,#1010);
#1009=REPRESENTATION('material name',(#1011),#1672);
#1010=REPRESENTATION('density',(#1006),#1672);
#1011=DESCRIPTIVE_REPRESENTATION_ITEM('Steel','Steel');
#1012=PROPERTY_DEFINITION('material property','material name',#1682);
#1013=PROPERTY_DEFINITION('material property','density of part',#1682);
#1014=AXIS2_PLACEMENT_3D('',#1379,#1099,#1100);
#1015=AXIS2_PLACEMENT_3D('',#1380,#1101,#1102);
#1016=AXIS2_PLACEMENT_3D('',#1383,#1103,#1104);
#1017=AXIS2_PLACEMENT_3D('',#1387,#1106,#1107);
#1018=AXIS2_PLACEMENT_3D('',#1389,#1109,#1110);
#1019=AXIS2_PLACEMENT_3D('',#1395,#1114,#1115);
#1020=AXIS2_PLACEMENT_3D('',#1397,#1116,#1117);
#1021=AXIS2_PLACEMENT_3D('',#1400,#1119,#1120);
#1022=AXIS2_PLACEMENT_3D('',#1401,#1121,#1122);
#1023=AXIS2_PLACEMENT_3D('',#1407,#1126,#1127);
#1024=AXIS2_PLACEMENT_3D('',#1413,#1131,#1132);
#1025=AXIS2_PLACEMENT_3D('',#1427,#1139,#1140);
#1026=AXIS2_PLACEMENT_3D('',#1431,#1142,#1143);
#1027=AXIS2_PLACEMENT_3D('',#1439,#1147,#1148);
#1028=AXIS2_PLACEMENT_3D('',#1443,#1150,#1151);
#1029=AXIS2_PLACEMENT_3D('',#1447,#1153,#1154);
#1030=AXIS2_PLACEMENT_3D('',#1450,#1156,#1157);
#1031=AXIS2_PLACEMENT_3D('',#1451,#1158,#1159);
#1032=AXIS2_PLACEMENT_3D('',#1455,#1162,#1163);
#1033=AXIS2_PLACEMENT_3D('',#1464,#1169,#1170);
#1034=AXIS2_PLACEMENT_3D('',#1467,#1171,#1172);
#1035=AXIS2_PLACEMENT_3D('',#1471,#1174,#1175);
#1036=AXIS2_PLACEMENT_3D('',#1473,#1177,#1178);
#1037=AXIS2_PLACEMENT_3D('',#1479,#1182,#1183);
#1038=AXIS2_PLACEMENT_3D('',#1481,#1184,#1185);
#1039=AXIS2_PLACEMENT_3D('',#1484,#1187,#1188);
#1040=AXIS2_PLACEMENT_3D('',#1485,#1189,#1190);
#1041=AXIS2_PLACEMENT_3D('',#1491,#1194,#1195);
#1042=AXIS2_PLACEMENT_3D('',#1497,#1199,#1200);
#1043=AXIS2_PLACEMENT_3D('',#1503,#1203,#1204);
#1044=AXIS2_PLACEMENT_3D('',#1507,#1206,#1207);
#1045=AXIS2_PLACEMENT_3D('',#1519,#1214,#1215);
#1046=AXIS2_PLACEMENT_3D('',#1536,#1225,#1226);
#1047=AXIS2_PLACEMENT_3D('',#1540,#1229,#1230);
#1048=AXIS2_PLACEMENT_3D('',#1544,#1232,#1233);
#1049=AXIS2_PLACEMENT_3D('',#1546,#1235,#1236);
#1050=AXIS2_PLACEMENT_3D('',#1550,#1239,#1240);
#1051=AXIS2_PLACEMENT_3D('',#1554,#1242,#1243);
#1052=AXIS2_PLACEMENT_3D('',#1556,#1245,#1246);
#1053=AXIS2_PLACEMENT_3D('',#1558,#1248,#1249);
#1054=AXIS2_PLACEMENT_3D('',#1561,#1251,#1252);
#1055=AXIS2_PLACEMENT_3D('',#1562,#1253,#1254);
#1056=AXIS2_PLACEMENT_3D('',#1566,#1257,#1258);
#1057=AXIS2_PLACEMENT_3D('',#1569,#1260,#1261);
#1058=AXIS2_PLACEMENT_3D('',#1570,#1262,#1263);
#1059=AXIS2_PLACEMENT_3D('',#1572,#1265,#1266);
#1060=AXIS2_PLACEMENT_3D('',#1581,#1271,#1272);
#1061=AXIS2_PLACEMENT_3D('',#1583,#1273,#1274);
#1062=AXIS2_PLACEMENT_3D('',#1586,#1276,#1277);
#1063=AXIS2_PLACEMENT_3D('',#1587,#1278,#1279);
#1064=AXIS2_PLACEMENT_3D('',#1589,#1280,#1281);
#1065=AXIS2_PLACEMENT_3D('',#1592,#1283,#1284);
#1066=AXIS2_PLACEMENT_3D('',#1593,#1285,#1286);
#1067=AXIS2_PLACEMENT_3D('',#1596,#1287,#1288);
#1068=AXIS2_PLACEMENT_3D('',#1600,#1290,#1291);
#1069=AXIS2_PLACEMENT_3D('',#1602,#1293,#1294);
#1070=AXIS2_PLACEMENT_3D('',#1605,#1297,#1298);
#1071=AXIS2_PLACEMENT_3D('',#1608,#1299,#1300);
#1072=AXIS2_PLACEMENT_3D('',#1612,#1302,#1303);
#1073=AXIS2_PLACEMENT_3D('',#1614,#1305,#1306);
#1074=AXIS2_PLACEMENT_3D('',#1617,#1309,#1310);
#1075=AXIS2_PLACEMENT_3D('',#1620,#1311,#1312);
#1076=AXIS2_PLACEMENT_3D('',#1623,#1315,#1316);
#1077=AXIS2_PLACEMENT_3D('',#1625,#1318,#1319);
#1078=AXIS2_PLACEMENT_3D('',#1628,#1320,#1321);
#1079=AXIS2_PLACEMENT_3D('',#1631,#1324,#1325);
#1080=AXIS2_PLACEMENT_3D('',#1633,#1327,#1328);
#1081=AXIS2_PLACEMENT_3D('',#1636,#1331,#1332);
#1082=AXIS2_PLACEMENT_3D('',#1637,#1333,#1334);
#1083=AXIS2_PLACEMENT_3D('',#1640,#1337,#1338);
#1084=AXIS2_PLACEMENT_3D('',#1642,#1340,#1341);
#1085=AXIS2_PLACEMENT_3D('',#1643,#1342,#1343);
#1086=AXIS2_PLACEMENT_3D('',#1644,#1344,#1345);
#1087=AXIS2_PLACEMENT_3D('',#1645,#1346,#1347);
#1088=AXIS2_PLACEMENT_3D('',#1646,#1348,#1349);
#1089=AXIS2_PLACEMENT_3D('',#1649,#1350,#1351);
#1090=AXIS2_PLACEMENT_3D('',#1652,#1354,#1355);
#1091=AXIS2_PLACEMENT_3D('',#1656,#1358,#1359);
#1092=AXIS2_PLACEMENT_3D('',#1658,#1360,#1361);
#1093=AXIS2_PLACEMENT_3D('',#1660,#1363,#1364);
#1094=AXIS2_PLACEMENT_3D('',#1663,#1367,#1368);
#1095=AXIS2_PLACEMENT_3D('',#1666,#1371,#1372);
#1096=AXIS2_PLACEMENT_3D('',#1667,#1373,#1374);
#1097=AXIS2_PLACEMENT_3D('',#1668,#1375,#1376);
#1098=AXIS2_PLACEMENT_3D('',#1669,#1377,#1378);
#1099=DIRECTION('axis',(0.,0.,1.));
#1100=DIRECTION('refdir',(1.,0.,0.));
#1101=DIRECTION('center_axis',(-0.866025403784441,0.499999999999996,-1.05735526154854E-16));
#1102=DIRECTION('ref_axis',(-0.353553390587022,-0.612372435684958,0.707106781199058));
#1103=DIRECTION('center_axis',(0.866025403784439,-0.5,0.));
#1104=DIRECTION('ref_axis',(-0.353553390587022,-0.612372435684958,0.707106781199058));
#1105=DIRECTION('',(-0.866025403784441,0.499999999999995,-1.05735526154854E-16));
#1106=DIRECTION('center_axis',(-0.866025403784439,0.5,0.));
#1107=DIRECTION('ref_axis',(-0.353553390587022,-0.612372435684958,0.707106781199058));
#1108=DIRECTION('',(0.866025403784441,-0.499999999999995,1.05735526154854E-16));
#1109=DIRECTION('center_axis',(-0.499999999999996,-0.866025403784441,1.769629590731E-11));
#1110=DIRECTION('ref_axis',(8.84803690493784E-12,1.53255059226237E-11,1.));
#1111=DIRECTION('',(8.84814795365498E-12,1.5325441808617E-11,1.));
#1112=DIRECTION('',(0.866025403784441,-0.499999999999995,1.05735526154854E-16));
#1113=DIRECTION('',(-8.84814795365499E-12,-1.5325441808617E-11,-1.));
#1114=DIRECTION('center_axis',(-0.866025403784441,0.499999999999996,-1.05735526154854E-16));
#1115=DIRECTION('ref_axis',(-0.353553390599523,-0.612372435706631,-0.707106781174038));
#1116=DIRECTION('center_axis',(0.866025403784439,-0.5,0.));
#1117=DIRECTION('ref_axis',(-0.353553390599523,-0.612372435706631,-0.707106781174038));
#1118=DIRECTION('',(-0.866025403784441,0.499999999999995,-1.05735526154854E-16));
#1119=DIRECTION('center_axis',(-0.866025403784439,0.5,0.));
#1120=DIRECTION('ref_axis',(-0.353553390599523,-0.612372435706631,-0.707106781174038));
#1121=DIRECTION('center_axis',(-8.84805638400317E-12,-1.53254946763801E-11,
-1.));
#1122=DIRECTION('ref_axis',(-0.49999999999999,-0.866025403784444,1.769629590731E-11));
#1123=DIRECTION('',(-0.5,-0.866025403784439,1.769629590731E-11));
#1124=DIRECTION('',(0.866025403784439,-0.499999999999999,1.05735526232402E-16));
#1125=DIRECTION('',(0.5,0.866025403784438,-1.769629590731E-11));
#1126=DIRECTION('center_axis',(8.84805638400317E-12,1.53254946763801E-11,
1.));
#1127=DIRECTION('ref_axis',(0.499999999999996,0.866025403784441,-1.769629590731E-11));
#1128=DIRECTION('',(-0.5,-0.866025403784438,1.769629590731E-11));
#1129=DIRECTION('',(-0.866025403784439,0.499999999999999,-1.05735526232402E-16));
#1130=DIRECTION('',(0.5,0.866025403784439,-1.769629590731E-11));
#1131=DIRECTION('center_axis',(0.866025403784439,-0.5,0.));
#1132=DIRECTION('ref_axis',(-0.5,-0.866025403784439,0.));
#1133=DIRECTION('',(0.,0.,1.));
#1134=DIRECTION('',(0.5,0.866025403784439,0.));
#1135=DIRECTION('',(0.,0.,-1.));
#1136=DIRECTION('',(-0.5,-0.866025403784439,0.));
#1137=DIRECTION('',(0.,0.,1.));
#1138=DIRECTION('',(-0.5,-0.866025403784439,0.));
#1139=DIRECTION('center_axis',(0.866025403784439,-0.5,0.));
#1140=DIRECTION('ref_axis',(-0.353553390593277,-0.612372435695792,-0.707106781186548));
#1141=DIRECTION('',(0.,0.,1.));
#1142=DIRECTION('center_axis',(0.866025403784439,-0.5,0.));
#1143=DIRECTION('ref_axis',(-0.353553390593267,-0.612372435695796,0.70710678118655));
#1144=DIRECTION('',(0.5,0.866025403784439,0.));
#1145=DIRECTION('',(0.,0.,1.));
#1146=DIRECTION('',(0.5,0.866025403784438,0.));
#1147=DIRECTION('center_axis',(0.866025403784439,-0.5,0.));
#1148=DIRECTION('ref_axis',(0.353553390593279,0.612372435695791,0.707106781186548));
#1149=DIRECTION('',(0.,0.,-1.));
#1150=DIRECTION('center_axis',(0.866025403784439,-0.5,0.));
#1151=DIRECTION('ref_axis',(0.35355339059328,0.612372435695792,-0.707106781186547));
#1152=DIRECTION('',(-0.5,-0.866025403784439,0.));
#1153=DIRECTION('center_axis',(0.866025403784439,-0.5,0.));
#1154=DIRECTION('ref_axis',(-0.353553390593278,-0.61237243569579,-0.70710678118655));
#1155=DIRECTION('',(0.,0.,1.));
#1156=DIRECTION('center_axis',(0.866025403784439,-0.5,0.));
#1157=DIRECTION('ref_axis',(-0.353553390593279,-0.612372435695791,0.707106781186548));
#1158=DIRECTION('center_axis',(-0.499999999999999,-0.866025403784439,0.));
#1159=DIRECTION('ref_axis',(0.866025403784439,-0.499999999999999,0.));
#1160=DIRECTION('',(0.,0.,-1.));
#1161=DIRECTION('',(-0.866025403784439,0.499999999999999,0.));
#1162=DIRECTION('center_axis',(-0.499999999999999,-0.866025403784439,0.));
#1163=DIRECTION('ref_axis',(0.866025403784439,-0.499999999999999,0.));
#1164=DIRECTION('',(0.866025403784439,-0.499999999999999,0.));
#1165=DIRECTION('',(0.,0.,1.));
#1166=DIRECTION('',(-0.866025403784439,0.499999999999999,0.));
#1167=DIRECTION('',(0.866025403784439,-0.499999999999999,0.));
#1168=DIRECTION('',(0.,0.,-1.));
#1169=DIRECTION('center_axis',(0.866025403784442,0.499999999999994,1.08845394571094E-17));
#1170=DIRECTION('ref_axis',(0.353553390593267,-0.612372435695793,-0.707106781186552));
#1171=DIRECTION('center_axis',(-0.866025403784439,-0.5,0.));
#1172=DIRECTION('ref_axis',(0.353553390593267,-0.612372435695793,-0.707106781186552));
#1173=DIRECTION('',(0.866025403784442,0.499999999999994,1.08845394571094E-17));
#1174=DIRECTION('center_axis',(0.866025403784439,0.5,0.));
#1175=DIRECTION('ref_axis',(0.353553390593267,-0.612372435695793,-0.707106781186552));
#1176=DIRECTION('',(-0.866025403784442,-0.499999999999994,-1.08845394571094E-17));
#1177=DIRECTION('center_axis',(0.499999999999994,-0.866025403784442,-1.77539992844712E-15));
#1178=DIRECTION('ref_axis',(-8.73848590912988E-16,1.54553853402179E-15,
-1.));
#1179=DIRECTION('',(-8.8769996422356E-16,1.53754143991228E-15,-1.));
#1180=DIRECTION('',(-0.866025403784442,-0.499999999999994,-1.08845394571094E-17));
#1181=DIRECTION('',(8.87699964223561E-16,-1.53754143991228E-15,1.));
#1182=DIRECTION('center_axis',(0.866025403784442,0.499999999999994,1.08845394571094E-17));
#1183=DIRECTION('ref_axis',(0.353553390593268,-0.612372435695794,0.70710678118655));
#1184=DIRECTION('center_axis',(-0.866025403784439,-0.5,0.));
#1185=DIRECTION('ref_axis',(0.353553390593268,-0.612372435695794,0.70710678118655));
#1186=DIRECTION('',(0.866025403784442,0.499999999999994,1.08845394571094E-17));
#1187=DIRECTION('center_axis',(0.866025403784439,0.5,0.));
#1188=DIRECTION('ref_axis',(0.353553390593268,-0.612372435695794,0.70710678118655));
#1189=DIRECTION('center_axis',(-9.90489972998302E-18,-4.6132893380129E-18,
1.));
#1190=DIRECTION('ref_axis',(0.499999999999994,-0.866025403784442,9.57224103264364E-19));
#1191=DIRECTION('',(0.5,-0.866025403784439,9.57224103264436E-19));
#1192=DIRECTION('',(-0.866025403784439,-0.499999999999999,-1.08845394571094E-17));
#1193=DIRECTION('',(-0.5,0.866025403784439,-9.57224103264437E-19));
#1194=DIRECTION('center_axis',(9.90482144186168E-18,4.61342493701668E-18,
-1.));
#1195=DIRECTION('ref_axis',(-0.499999999999994,0.866025403784442,-9.57067527021696E-19));
#1196=DIRECTION('',(0.5,-0.866025403784439,9.57067527021768E-19));
#1197=DIRECTION('',(0.866025403784439,0.499999999999999,1.08845394571094E-17));
#1198=DIRECTION('',(-0.5,0.866025403784439,-9.57067527021767E-19));
#1199=DIRECTION('center_axis',(-0.866025403784439,-0.5,0.));
#1200=DIRECTION('ref_axis',(-0.5,0.866025403784439,0.));
#1201=DIRECTION('',(0.,0.,-1.));
#1202=DIRECTION('',(0.5,-0.866025403784439,4.73316543132607E-30));
#1203=DIRECTION('center_axis',(-0.866025403784439,-0.5,0.));
#1204=DIRECTION('ref_axis',(0.353553390593273,-0.612372435695792,0.70710678118655));
#1205=DIRECTION('',(9.86076131526264E-32,-1.70793395993446E-31,-1.));
#1206=DIRECTION('center_axis',(-0.866025403784439,-0.5,0.));
#1207=DIRECTION('ref_axis',(0.353553390593274,-0.612372435695794,-0.707106781186548));
#1208=DIRECTION('',(-0.5,0.866025403784439,0.));
#1209=DIRECTION('',(0.,0.,-1.));
#1210=DIRECTION('',(-0.5,0.866025403784439,0.));
#1211=DIRECTION('',(0.,0.,-1.));
#1212=DIRECTION('',(0.5,-0.866025403784439,0.));
#1213=DIRECTION('',(0.,0.,-1.));
#1214=DIRECTION('center_axis',(0.499999999999999,-0.866025403784439,0.));
#1215=DIRECTION('ref_axis',(0.866025403784439,0.499999999999999,0.));
#1216=DIRECTION('',(0.,0.,1.));
#1217=DIRECTION('',(-0.866025403784439,-0.499999999999999,1.97372982155583E-15));
#1218=DIRECTION('',(-1.92296268638357E-15,-1.11022302462516E-15,-1.));
#1219=DIRECTION('',(0.866025403784439,0.499999999999999,-1.97372982155583E-15));
#1220=DIRECTION('',(0.,0.,1.));
#1221=DIRECTION('',(0.866025403784439,0.499999999999999,0.));
#1222=DIRECTION('',(0.866025403784439,0.499999999999999,-1.77635683940025E-15));
#1223=DIRECTION('',(1.53837014910685E-15,8.88178419700123E-16,1.));
#1224=DIRECTION('',(-0.866025403784439,-0.499999999999999,1.77635683940025E-15));
#1225=DIRECTION('center_axis',(0.499999999999999,-0.866025403784439,0.));
#1226=DIRECTION('ref_axis',(0.866025403784439,0.499999999999999,0.));
#1227=DIRECTION('',(-0.866025403784439,-0.499999999999999,0.));
#1228=DIRECTION('',(0.,0.,1.));
#1229=DIRECTION('center_axis',(-0.866025403784439,0.5,0.));
#1230=DIRECTION('ref_axis',(0.353553390593279,0.612372435695791,0.707106781186548));
#1231=DIRECTION('',(-0.866025403784439,0.5,0.));
#1232=DIRECTION('center_axis',(-0.866025403784439,0.5,0.));
#1233=DIRECTION('ref_axis',(0.353553390593279,0.612372435695791,0.707106781186548));
#1234=DIRECTION('',(0.866025403784439,-0.5,0.));
#1235=DIRECTION('center_axis',(0.,0.,1.));
#1236=DIRECTION('ref_axis',(0.5,0.866025403784439,0.));
#1237=DIRECTION('',(0.866025403784439,-0.5,0.));
#1238=DIRECTION('',(-0.5,-0.866025403784438,0.));
#1239=DIRECTION('center_axis',(-0.866025403784439,0.5,0.));
#1240=DIRECTION('ref_axis',(0.35355339059328,0.612372435695792,-0.707106781186547));
#1241=DIRECTION('',(-0.866025403784439,0.5,0.));
#1242=DIRECTION('center_axis',(-0.866025403784439,0.5,0.));
#1243=DIRECTION('ref_axis',(0.35355339059328,0.612372435695792,-0.707106781186547));
#1244=DIRECTION('',(0.866025403784439,-0.5,0.));
#1245=DIRECTION('center_axis',(0.5,0.866025403784439,0.));
#1246=DIRECTION('ref_axis',(0.,0.,-1.));
#1247=DIRECTION('',(0.,0.,1.));
#1248=DIRECTION('center_axis',(-0.866025403784439,0.5,0.));
#1249=DIRECTION('ref_axis',(-0.353553390593279,-0.612372435695791,0.707106781186548));
#1250=DIRECTION('',(-0.866025403784439,0.5,0.));
#1251=DIRECTION('center_axis',(-0.866025403784439,0.5,0.));
#1252=DIRECTION('ref_axis',(-0.353553390593279,-0.612372435695791,0.707106781186548));
#1253=DIRECTION('center_axis',(-0.5,-0.866025403784439,0.));
#1254=DIRECTION('ref_axis',(0.,0.,1.));
#1255=DIRECTION('',(0.866025403784439,-0.5,0.));
#1256=DIRECTION('',(0.,0.,-1.));
#1257=DIRECTION('center_axis',(-0.866025403784439,0.5,0.));
#1258=DIRECTION('ref_axis',(-0.353553390593278,-0.61237243569579,-0.70710678118655));
#1259=DIRECTION('',(-0.866025403784439,0.5,0.));
#1260=DIRECTION('center_axis',(-0.866025403784439,0.5,0.));
#1261=DIRECTION('ref_axis',(-0.353553390593278,-0.61237243569579,-0.70710678118655));
#1262=DIRECTION('center_axis',(0.,0.,-1.));
#1263=DIRECTION('ref_axis',(-0.5,-0.866025403784439,0.));
#1264=DIRECTION('',(0.5,0.866025403784438,0.));
#1265=DIRECTION('center_axis',(-1.35783266420236E-15,1.,-5.48180759049303E-31));
#1266=DIRECTION('ref_axis',(1.,1.35783266420236E-15,3.97555903481109E-16));
#1267=DIRECTION('',(0.,0.,1.));
#1268=DIRECTION('',(1.,1.35783266420236E-15,3.97555903481109E-16));
#1269=DIRECTION('',(0.,0.,-1.));
#1270=DIRECTION('',(1.,1.35783266420236E-15,3.97555903481109E-16));
#1271=DIRECTION('center_axis',(0.,0.,-1.));
#1272=DIRECTION('ref_axis',(-0.866025403784439,-0.5,0.));
#1273=DIRECTION('center_axis',(0.,0.,-1.));
#1274=DIRECTION('ref_axis',(-0.866025403784439,-0.5,0.));
#1275=DIRECTION('',(0.,0.,-1.));
#1276=DIRECTION('center_axis',(0.,0.,1.));
#1277=DIRECTION('ref_axis',(-0.866025403784439,-0.5,0.));
#1278=DIRECTION('center_axis',(0.,0.,-1.));
#1279=DIRECTION('ref_axis',(-0.866025403784439,-0.5,0.));
#1280=DIRECTION('center_axis',(0.,0.,1.));
#1281=DIRECTION('ref_axis',(-0.866025403784439,-0.5,0.));
#1282=DIRECTION('',(0.,0.,-1.));
#1283=DIRECTION('center_axis',(0.,0.,-1.));
#1284=DIRECTION('ref_axis',(-0.866025403784439,-0.5,0.));
#1285=DIRECTION('center_axis',(0.866025403784439,0.499999999999999,-1.97372982155583E-15));
#1286=DIRECTION('ref_axis',(0.353553390593271,-0.612372435695794,-0.707106781186549));
#1287=DIRECTION('center_axis',(0.866025403784439,0.499999999999999,-2.22044604925032E-15));
#1288=DIRECTION('ref_axis',(0.353553390593271,-0.612372435695794,-0.707106781186549));
#1289=DIRECTION('',(0.866025403784439,0.499999999999999,-1.97372982155583E-15));
#1290=DIRECTION('center_axis',(0.866025403784439,0.5,0.));
#1291=DIRECTION('ref_axis',(0.353553390593271,-0.612372435695794,-0.707106781186549));
#1292=DIRECTION('',(-0.866025403784439,-0.499999999999999,1.97372982155583E-15));
#1293=DIRECTION('center_axis',(-1.70930016567428E-15,-9.86864910777917E-16,
-1.));
#1294=DIRECTION('ref_axis',(-0.5,0.866025403784439,2.64218303118067E-32));
#1295=DIRECTION('',(0.5,-0.866025403784439,-9.86076131526265E-32));
#1296=DIRECTION('',(-0.499999999999999,0.866025403784439,-2.26797510251041E-30));
#1297=DIRECTION('center_axis',(0.866025403784439,0.499999999999999,-1.97372982155583E-15));
#1298=DIRECTION('ref_axis',(0.353553390593273,-0.612372435695792,0.70710678118655));
#1299=DIRECTION('center_axis',(0.866025403784439,0.499999999999999,-2.22044604925032E-15));
#1300=DIRECTION('ref_axis',(0.353553390593273,-0.612372435695792,0.70710678118655));
#1301=DIRECTION('',(0.866025403784439,0.499999999999999,-1.97372982155583E-15));
#1302=DIRECTION('center_axis',(0.866025403784439,0.5,0.));
#1303=DIRECTION('ref_axis',(0.353553390593273,-0.612372435695792,0.70710678118655));
#1304=DIRECTION('',(-0.866025403784439,-0.499999999999999,1.97372982155583E-15));
#1305=DIRECTION('center_axis',(0.499999999999999,-0.866025403784439,9.86076131526265E-31));
#1306=DIRECTION('ref_axis',(-1.41736838439228E-15,-8.1831801826975E-16,
-1.));
#1307=DIRECTION('',(-1.92296268638357E-15,-1.11022302462516E-15,-1.));
#1308=DIRECTION('',(-4.93038065763132E-31,8.53966979967231E-31,1.));
#1309=DIRECTION('center_axis',(0.866025403784439,0.5,-1.77635683940025E-15));
#1310=DIRECTION('ref_axis',(0.353553390593273,-0.612372435695792,0.70710678118655));
#1311=DIRECTION('center_axis',(-0.866025403784439,-0.5,1.77635683940025E-15));
#1312=DIRECTION('ref_axis',(0.353553390593273,-0.612372435695792,0.70710678118655));
#1313=DIRECTION('',(-0.866025403784439,-0.5,1.77635683940025E-15));
#1314=DIRECTION('',(0.866025403784439,0.5,-1.77635683940025E-15));
#1315=DIRECTION('center_axis',(1.53837014910685E-15,8.88178419700128E-16,
1.));
#1316=DIRECTION('ref_axis',(0.500000000000002,-0.866025403784437,0.));
#1317=DIRECTION('',(0.500000000000002,-0.866025403784437,-2.64218303118079E-32));
#1318=DIRECTION('center_axis',(0.866025403784439,0.5,-1.77635683940025E-15));
#1319=DIRECTION('ref_axis',(0.353553390593274,-0.612372435695794,-0.707106781186548));
#1320=DIRECTION('center_axis',(-0.866025403784439,-0.5,1.77635683940025E-15));
#1321=DIRECTION('ref_axis',(0.353553390593274,-0.612372435695794,-0.707106781186548));
#1322=DIRECTION('',(-0.866025403784439,-0.5,1.77635683940025E-15));
#1323=DIRECTION('',(0.866025403784439,0.5,-1.77635683940025E-15));
#1324=DIRECTION('center_axis',(0.5,-0.866025403784439,1.97215226305253E-31));
#1325=DIRECTION('ref_axis',(-1.41736838439228E-15,-8.1831801826975E-16,
-1.));
#1326=DIRECTION('',(-1.41736838439228E-15,-8.1831801826975E-16,-1.));
#1327=DIRECTION('center_axis',(1.70930016567428E-15,9.86864910777921E-16,
1.));
#1328=DIRECTION('ref_axis',(0.500000000000002,-0.866025403784437,-2.64218303118079E-32));
#1329=DIRECTION('',(0.499999999999999,-0.866025403784439,7.49417859959961E-30));
#1330=DIRECTION('',(-0.5,0.866025403784439,-5.02898827078395E-30));
#1331=DIRECTION('center_axis',(0.866025403784439,0.499999999999999,-2.22044604925032E-15));
#1332=DIRECTION('ref_axis',(-2.56395024851142E-15,0.,-1.));
#1333=DIRECTION('center_axis',(0.866025403784439,0.5,0.));
#1334=DIRECTION('ref_axis',(0.5,-0.866025403784439,0.));
#1335=DIRECTION('',(-0.5,0.866025403784439,0.));
#1336=DIRECTION('',(0.5,-0.866025403784439,0.));
#1337=DIRECTION('center_axis',(-1.53837014910685E-15,-8.88178419700124E-16,
-1.));
#1338=DIRECTION('ref_axis',(-0.5,0.866025403784439,0.));
#1339=DIRECTION('',(-0.5,0.866025403784439,2.64218303118067E-32));
#1340=DIRECTION('center_axis',(0.866025403784439,0.5,-1.77635683940025E-15));
#1341=DIRECTION('ref_axis',(-2.05116019880913E-15,0.,-1.));
#1342=DIRECTION('center_axis',(0.,0.,-1.));
#1343=DIRECTION('ref_axis',(-0.86602540378444,-0.499999999999998,0.));
#1344=DIRECTION('center_axis',(0.,0.,-1.));
#1345=DIRECTION('ref_axis',(-0.86602540378444,-0.499999999999998,0.));
#1346=DIRECTION('center_axis',(0.,0.,1.));
#1347=DIRECTION('ref_axis',(-0.86602540378444,-0.499999999999998,0.));
#1348=DIRECTION('center_axis',(-0.866025403784439,0.499999999999999,0.));
#1349=DIRECTION('ref_axis',(-0.353553390593277,-0.612372435695792,-0.707106781186548));
#1350=DIRECTION('center_axis',(0.866025403784439,-0.499999999999999,0.));
#1351=DIRECTION('ref_axis',(-0.353553390593277,-0.612372435695792,-0.707106781186548));
#1352=DIRECTION('',(0.866025403784439,-0.499999999999999,0.));
#1353=DIRECTION('',(-0.866025403784439,0.499999999999999,0.));
#1354=DIRECTION('center_axis',(-0.499999999999999,-0.866025403784439,0.));
#1355=DIRECTION('ref_axis',(0.,0.,1.));
#1356=DIRECTION('',(0.,0.,1.));
#1357=DIRECTION('',(-0.866025403784439,0.499999999999999,0.));
#1358=DIRECTION('center_axis',(-0.866025403784439,0.499999999999999,0.));
#1359=DIRECTION('ref_axis',(-0.353553390593267,-0.612372435695796,0.70710678118655));
#1360=DIRECTION('center_axis',(0.866025403784439,-0.499999999999999,0.));
#1361=DIRECTION('ref_axis',(-0.353553390593267,-0.612372435695796,0.70710678118655));
#1362=DIRECTION('',(0.866025403784439,-0.499999999999999,0.));
#1363=DIRECTION('center_axis',(-0.866025403784439,0.499999999999999,0.));
#1364=DIRECTION('ref_axis',(0.,0.,1.));
#1365=DIRECTION('',(-0.5,-0.866025403784439,0.));
#1366=DIRECTION('',(0.5,0.866025403784439,0.));
#1367=DIRECTION('center_axis',(-0.866025403784439,0.5,0.));
#1368=DIRECTION('ref_axis',(0.5,0.866025403784438,0.));
#1369=DIRECTION('',(0.5,0.866025403784439,0.));
#1370=DIRECTION('',(-0.5,-0.866025403784438,0.));
#1371=DIRECTION('center_axis',(0.,0.,1.));
#1372=DIRECTION('ref_axis',(0.5,0.866025403784439,0.));
#1373=DIRECTION('center_axis',(0.,0.,-1.));
#1374=DIRECTION('ref_axis',(-0.5,-0.866025403784439,0.));
#1375=DIRECTION('center_axis',(0.,0.,1.));
#1376=DIRECTION('ref_axis',(1.,0.,0.));
#1377=DIRECTION('center_axis',(0.,0.,1.));
#1378=DIRECTION('ref_axis',(1.,0.,0.));
#1379=CARTESIAN_POINT('',(0.,0.,0.));
#1380=CARTESIAN_POINT('Origin',(77.8704895708669,14.8756443470022,-4.64899999984045));
#1381=CARTESIAN_POINT('',(77.8704895708751,14.8756443470179,-3.64899999984045));
#1382=CARTESIAN_POINT('',(77.3704895708662,14.0096189432182,-4.64899999982276));
#1383=CARTESIAN_POINT('Origin',(77.8704895708664,14.8756443470025,-4.64899999984045));
#1384=CARTESIAN_POINT('',(71.3083117443751,17.5096189432181,-4.64899999982276));
#1385=CARTESIAN_POINT('',(77.3704895708669,14.0096189432178,-4.64899999982276));
#1386=CARTESIAN_POINT('',(71.808311744384,18.3756443470179,-3.64899999984045));
#1387=CARTESIAN_POINT('Origin',(71.8083117443749,18.3756443470027,-4.64899999984045));
#1388=CARTESIAN_POINT('',(77.8704895708757,14.8756443470176,-3.64899999984045));
#1389=CARTESIAN_POINT('Origin',(77.3704895708315,14.0096189431565,-8.64899999982276));
#1390=CARTESIAN_POINT('',(77.3704895708397,14.0096189431722,-7.64899999982276));
#1391=CARTESIAN_POINT('',(77.3704895708691,14.0096189432231,-4.32449999967138));
#1392=CARTESIAN_POINT('',(71.3083117443486,17.5096189431722,-7.64899999982276));
#1393=CARTESIAN_POINT('',(77.3704895708403,14.0096189431718,-7.64899999982276));
#1394=CARTESIAN_POINT('',(71.308311744378,17.5096189432231,-4.32450000027078));
#1395=CARTESIAN_POINT('Origin',(77.8704895708403,14.8756443469563,-7.64899999984046));
#1396=CARTESIAN_POINT('',(77.8704895708308,14.8756443469413,-8.64899999984046));
#1397=CARTESIAN_POINT('Origin',(77.8704895708398,14.8756443469566,-7.64899999984046));
#1398=CARTESIAN_POINT('',(71.8083117443397,18.3756443469413,-8.64899999984046));
#1399=CARTESIAN_POINT('',(77.8704895708315,14.8756443469409,-8.64899999984046));
#1400=CARTESIAN_POINT('Origin',(71.8083117443484,18.3756443469567,-7.64899999984046));
#1401=CARTESIAN_POINT('Origin',(82.3704895708314,22.6698729810009,-8.64899999999972));
#1402=CARTESIAN_POINT('',(79.8704895708756,18.3397459621553,-8.64899999991124));
#1403=CARTESIAN_POINT('',(86.6515784840602,30.0849364904343,-8.64900000015124));
#1404=CARTESIAN_POINT('',(73.808311744384,21.8397459621556,-8.64899999991124));
#1405=CARTESIAN_POINT('',(78.3549451142525,19.2147459621554,-8.64899999991124));
#1406=CARTESIAN_POINT('',(63.6535859639637,4.2512449735382,-8.64899999955184));
#1407=CARTESIAN_POINT('Origin',(77.3704895708757,14.0096189432331,-3.64899999982276));
#1408=CARTESIAN_POINT('',(73.808311744384,21.8397459621556,-3.64899999991124));
#1409=CARTESIAN_POINT('',(61.1535859640079,-0.0788820453073585,-3.64899999946336));
#1410=CARTESIAN_POINT('',(79.8704895708757,18.3397459621552,-3.64899999991124));
#1411=CARTESIAN_POINT('',(78.3549451142526,19.2147459621554,-3.64899999991124));
#1412=CARTESIAN_POINT('',(84.1515784841044,25.7548094715888,-3.64900000006276));
#1413=CARTESIAN_POINT('Origin',(90.9326673973661,37.4999999999999,0.));
#1414=CARTESIAN_POINT('',(79.870489570875,18.3397459621556,-1.149));
#1415=CARTESIAN_POINT('',(79.870489570875,18.3397459621556,-4.0745));
#1416=CARTESIAN_POINT('',(12.9903810567666,-97.5,-1.149));
#1417=CARTESIAN_POINT('',(28.5904517573297,-70.479884944958,-1.149));
#1418=CARTESIAN_POINT('',(12.9903810567666,-97.5,-45.149));
#1419=CARTESIAN_POINT('',(12.9903810567666,-97.5,0.));
#1420=CARTESIAN_POINT('',(79.870489570875,18.3397459621556,-45.149));
#1421=CARTESIAN_POINT('',(12.9903810567666,-97.5,-45.149));
#1422=CARTESIAN_POINT('',(79.870489570875,18.3397459621556,-35.149));
#1423=CARTESIAN_POINT('',(79.870489570875,18.3397459621556,-4.0745));
#1424=CARTESIAN_POINT('',(76.620489570875,12.7105808375568,-35.149));
#1425=CARTESIAN_POINT('',(87.2765784841206,31.1674682452694,-35.149));
#1426=CARTESIAN_POINT('',(76.120489570875,11.8445554337723,-34.149));
#1427=CARTESIAN_POINT('Origin',(76.6204895708751,12.7105808375567,-34.149));
#1428=CARTESIAN_POINT('',(76.120489570875,11.8445554337723,-12.149));
#1429=CARTESIAN_POINT('',(76.120489570875,11.8445554337723,-17.5745));
#1430=CARTESIAN_POINT('',(76.620489570875,12.7105808375568,-11.149));
#1431=CARTESIAN_POINT('Origin',(76.6204895708751,12.7105808375567,-12.149));
#1432=CARTESIAN_POINT('',(79.870489570875,18.3397459621556,-11.149));
#1433=CARTESIAN_POINT('',(83.5265784841206,24.6722777168861,-11.149));
#1434=CARTESIAN_POINT('',(79.870489570875,18.3397459621556,-4.0745));
#1435=CARTESIAN_POINT('',(37.1869742371379,-55.5902712415223,-12.9485270010291));
#1436=CARTESIAN_POINT('',(56.7360755357022,-21.7302345500982,-12.9485270010291));
#1437=CARTESIAN_POINT('',(63.809820817252,-9.47814832265339,-12.9485270010291));
#1438=CARTESIAN_POINT('',(57.2360755357022,-20.8642091463138,-13.9485270010291));
#1439=CARTESIAN_POINT('Origin',(56.7360755357022,-21.7302345500982,-13.9485270010291));
#1440=CARTESIAN_POINT('',(57.2360755357022,-20.8642091463138,-32.3485270010292));
#1441=CARTESIAN_POINT('',(57.2360755357022,-20.8642091463138,-6.47426350051455));
#1442=CARTESIAN_POINT('',(56.7360755357022,-21.7302345500982,-33.3485270010292));
#1443=CARTESIAN_POINT('Origin',(56.7360755357022,-21.7302345500982,-32.3485270010292));
#1444=CARTESIAN_POINT('',(37.1869742371379,-55.5902712415223,-33.3485270010292));
#1445=CARTESIAN_POINT('',(74.0843714665342,8.31789542684308,-33.3485270010292));
#1446=CARTESIAN_POINT('',(36.6869742371379,-56.4562966453068,-32.3485270010292));
#1447=CARTESIAN_POINT('Origin',(37.1869742371379,-55.5902712415223,-32.3485270010292));
#1448=CARTESIAN_POINT('',(36.6869742371379,-56.4562966453068,-13.9485270010291));
#1449=CARTESIAN_POINT('',(36.6869742371379,-56.4562966453068,-16.6742635005146));
#1450=CARTESIAN_POINT('Origin',(37.1869742371379,-55.5902712415223,-13.9485270010291));
#1451=CARTESIAN_POINT('Origin',(76.8394006576295,20.0897459621556,-8.149));
#1452=CARTESIAN_POINT('',(73.808311744384,21.8397459621556,-1.149));
#1453=CARTESIAN_POINT('',(73.808311744384,21.8397459621556,-4.0745));
#1454=CARTESIAN_POINT('',(71.2596074653321,23.3112410637509,-1.149));
#1455=CARTESIAN_POINT('Origin',(76.8394006576295,20.0897459621556,-8.149));
#1456=CARTESIAN_POINT('',(77.7054260614139,19.5897459621556,-11.149));
#1457=CARTESIAN_POINT('',(78.3549451142523,19.2147459621556,-11.149));
#1458=CARTESIAN_POINT('',(77.7054260614139,19.5897459621556,-35.149));
#1459=CARTESIAN_POINT('',(77.7054260614139,19.5897459621556,-15.649));
#1460=CARTESIAN_POINT('',(78.3549451142523,19.2147459621556,-35.149));
#1461=CARTESIAN_POINT('',(73.808311744384,21.8397459621556,-45.149));
#1462=CARTESIAN_POINT('',(26.9497196717693,48.8935667091265,-45.149));
#1463=CARTESIAN_POINT('',(73.808311744384,21.8397459621556,-4.0745));
#1464=CARTESIAN_POINT('Origin',(-22.0525588832349,-81.8038475773307,-7.64899999995551));
#1465=CARTESIAN_POINT('',(-22.0525588832358,-81.8038475773312,-8.64899999995551));
#1466=CARTESIAN_POINT('',(-21.5525588832358,-82.6698729811156,-7.64899999995551));
#1467=CARTESIAN_POINT('Origin',(-22.0525588832357,-81.8038475773311,-7.64899999995551));
#1468=CARTESIAN_POINT('',(-15.4903810567447,-79.1698729811157,-7.64899999995551));
#1469=CARTESIAN_POINT('',(-21.5525588832349,-82.6698729811151,-7.64899999995551));
#1470=CARTESIAN_POINT('',(-15.9903810567447,-78.3038475773313,-8.64899999995551));
#1471=CARTESIAN_POINT('Origin',(-15.990381056745,-78.3038475773314,-7.64899999995551));
#1472=CARTESIAN_POINT('',(-22.0525588832349,-81.8038475773307,-8.64899999995551));
#1473=CARTESIAN_POINT('Origin',(-21.5525588832349,-82.6698729811151,-3.64899999999975));
#1474=CARTESIAN_POINT('',(-21.5525588832358,-82.6698729811157,-4.64899999999975));
#1475=CARTESIAN_POINT('',(-21.5525588832358,-82.6698729811157,-1.82449999999986));
#1476=CARTESIAN_POINT('',(-15.4903810567447,-79.1698729811157,-4.64899999999975));
#1477=CARTESIAN_POINT('',(-21.5525588832349,-82.6698729811151,-4.64899999999975));
#1478=CARTESIAN_POINT('',(-15.4903810567447,-79.1698729811157,-1.82449999999992));
#1479=CARTESIAN_POINT('Origin',(-22.0525588832349,-81.8038475773307,-4.64899999999975));
#1480=CARTESIAN_POINT('',(-22.0525588832358,-81.8038475773312,-3.64899999999975));
#1481=CARTESIAN_POINT('Origin',(-22.0525588832357,-81.8038475773312,-4.64899999999975));
#1482=CARTESIAN_POINT('',(-15.9903810567447,-78.3038475773313,-3.64899999999975));
#1483=CARTESIAN_POINT('',(-22.0525588832349,-81.8038475773307,-3.64899999999975));
#1484=CARTESIAN_POINT('Origin',(-15.990381056745,-78.3038475773314,-4.64899999999975));
#1485=CARTESIAN_POINT('Origin',(-26.5525588832348,-74.0096189432707,-3.64899999999975));
#1486=CARTESIAN_POINT('',(-24.0525588832567,-78.3397459621551,-3.64899999999975));
#1487=CARTESIAN_POINT('',(-19.7714699700012,-85.7548094716356,-3.64899999999975));
#1488=CARTESIAN_POINT('',(-17.9903810567666,-74.8397459621556,-3.64899999999975));
#1489=CARTESIAN_POINT('',(-22.5370144266344,-77.4647459621553,-3.64899999999975));
#1490=CARTESIAN_POINT('',(-30.6448889806003,-52.9214952932927,-3.64899999999975));
#1491=CARTESIAN_POINT('Origin',(-21.5525588832349,-82.6698729811151,-8.64899999995551));
#1492=CARTESIAN_POINT('',(-17.9903810567666,-74.8397459621556,-8.64899999995551));
#1493=CARTESIAN_POINT('',(-28.1448889806003,-57.2516223122148,-8.64899999995551));
#1494=CARTESIAN_POINT('',(-24.0525588832567,-78.3397459621551,-8.64899999995551));
#1495=CARTESIAN_POINT('',(-22.5370144266344,-77.4647459621554,-8.64899999995551));
#1496=CARTESIAN_POINT('',(-17.2714699700012,-90.0849364905578,-8.64899999995551));
#1497=CARTESIAN_POINT('Origin',(-12.9903810567666,-97.5,0.));
#1498=CARTESIAN_POINT('',(-24.0525588832576,-78.3397459621556,-11.149));
#1499=CARTESIAN_POINT('',(-24.0525588832576,-78.3397459621556,-4.0745));
#1500=CARTESIAN_POINT('',(-20.8025588832576,-83.9689110867545,-11.149));
#1501=CARTESIAN_POINT('',(-20.3964699700121,-84.6722777168862,-11.149));
#1502=CARTESIAN_POINT('',(-20.3025588832576,-84.834936490539,-12.149));
#1503=CARTESIAN_POINT('Origin',(-20.8025588832576,-83.9689110867545,-12.149));
#1504=CARTESIAN_POINT('',(-20.3025588832576,-84.834936490539,-34.149));
#1505=CARTESIAN_POINT('',(-20.3025588832576,-84.834936490539,-5.5745));
#1506=CARTESIAN_POINT('',(-20.8025588832576,-83.9689110867545,-35.149));
#1507=CARTESIAN_POINT('Origin',(-20.8025588832577,-83.9689110867545,-34.149));
#1508=CARTESIAN_POINT('',(-24.0525588832577,-78.3397459621556,-35.149));
#1509=CARTESIAN_POINT('',(-16.6464699700121,-91.1674682452695,-35.149));
#1510=CARTESIAN_POINT('',(-24.0525588832576,-78.3397459621557,-45.149));
#1511=CARTESIAN_POINT('',(-24.0525588832576,-78.3397459621556,-4.0745));
#1512=CARTESIAN_POINT('',(-12.9903810567666,-97.5,-45.149));
#1513=CARTESIAN_POINT('',(-90.9326673973661,37.5000000000001,-45.149));
#1514=CARTESIAN_POINT('',(-12.9903810567666,-97.5,-1.149));
#1515=CARTESIAN_POINT('',(-12.9903810567666,-97.5,0.));
#1516=CARTESIAN_POINT('',(-24.0525588832576,-78.3397459621557,-1.149));
#1517=CARTESIAN_POINT('',(-72.0603735721946,4.81222823943472,-1.149));
#1518=CARTESIAN_POINT('',(-24.0525588832576,-78.3397459621556,-4.0745));
#1519=CARTESIAN_POINT('Origin',(-21.0214699700121,-76.5897459621556,-8.149));
#1520=CARTESIAN_POINT('',(-17.9903810567666,-74.8397459621556,-11.149));
#1521=CARTESIAN_POINT('',(-17.9903810567666,-74.8397459621556,-4.0745));
#1522=CARTESIAN_POINT('',(-20.1554445662276,-76.0897459621556,-11.149));
#1523=CARTESIAN_POINT('',(-21.4544826719043,-76.8397459621556,-11.149));
#1524=CARTESIAN_POINT('',(-20.1554445662277,-76.0897459621557,-35.149));
#1525=CARTESIAN_POINT('',(-20.1554445662276,-76.0897459621556,-15.649));
#1526=CARTESIAN_POINT('',(-17.9903810567666,-74.8397459621556,-35.149));
#1527=CARTESIAN_POINT('',(-21.4544826719044,-76.8397459621556,-35.149));
#1528=CARTESIAN_POINT('',(-17.9903810567666,-74.8397459621557,-45.149));
#1529=CARTESIAN_POINT('',(-17.9903810567666,-74.8397459621556,-4.0745));
#1530=CARTESIAN_POINT('',(-9.81014627805779,-70.1168852106338,-45.149));
#1531=CARTESIAN_POINT('',(-21.8874953737966,-77.0897459621556,-35.149));
#1532=CARTESIAN_POINT('',(-22.5370144266349,-77.4647459621556,-35.149));
#1533=CARTESIAN_POINT('',(-21.8874953737965,-77.0897459621556,-11.149));
#1534=CARTESIAN_POINT('',(-21.8874953737966,-77.0897459621556,-15.649));
#1535=CARTESIAN_POINT('',(-22.5370144266349,-77.4647459621556,-11.149));
#1536=CARTESIAN_POINT('Origin',(-21.0214699700121,-76.5897459621556,-8.149));
#1537=CARTESIAN_POINT('',(-17.9903810567666,-74.8397459621556,-1.149));
#1538=CARTESIAN_POINT('',(30.736680348553,-46.7071639429751,-1.149));
#1539=CARTESIAN_POINT('',(-17.9903810567666,-74.8397459621556,-4.0745));
#1540=CARTESIAN_POINT('Origin',(56.7360755357022,-21.7302345500982,-13.9485270010291));
#1541=CARTESIAN_POINT('',(50.6738977092111,-18.2302345500982,-12.9485270010291));
#1542=CARTESIAN_POINT('',(56.7360755357022,-21.7302345500982,-12.9485270010291));
#1543=CARTESIAN_POINT('',(51.1738977092111,-17.3642091463138,-13.9485270010291));
#1544=CARTESIAN_POINT('Origin',(50.6738977092111,-18.2302345500982,-13.9485270010291));
#1545=CARTESIAN_POINT('',(57.2360755357022,-20.8642091463138,-13.9485270010291));
#1546=CARTESIAN_POINT('Origin',(36.6869742371379,-56.4562966453067,-12.9485270010291));
#1547=CARTESIAN_POINT('',(31.1247964106468,-52.0902712415223,-12.9485270010291));
#1548=CARTESIAN_POINT('',(37.1869742371379,-55.5902712415223,-12.9485270010291));
#1549=CARTESIAN_POINT('',(40.8118282971555,-35.3118398395495,-12.9485270010291));
#1550=CARTESIAN_POINT('Origin',(56.7360755357022,-21.7302345500982,-32.3485270010292));
#1551=CARTESIAN_POINT('',(51.1738977092111,-17.3642091463138,-32.3485270010292));
#1552=CARTESIAN_POINT('',(57.2360755357022,-20.8642091463138,-32.3485270010292));
#1553=CARTESIAN_POINT('',(50.6738977092111,-18.2302345500982,-33.3485270010292));
#1554=CARTESIAN_POINT('Origin',(50.6738977092111,-18.2302345500982,-32.3485270010292));
#1555=CARTESIAN_POINT('',(56.7360755357022,-21.7302345500982,-33.3485270010292));
#1556=CARTESIAN_POINT('Origin',(57.2360755357022,-20.8642091463138,-12.9485270010291));
#1557=CARTESIAN_POINT('',(51.1738977092111,-17.3642091463138,-6.47426350051455));
#1558=CARTESIAN_POINT('Origin',(37.1869742371379,-55.5902712415223,-13.9485270010291));
#1559=CARTESIAN_POINT('',(30.6247964106468,-52.9562966453067,-13.9485270010291));
#1560=CARTESIAN_POINT('',(36.6869742371379,-56.4562966453067,-13.9485270010291));
#1561=CARTESIAN_POINT('Origin',(31.1247964106468,-52.0902712415223,-13.9485270010291));
#1562=CARTESIAN_POINT('Origin',(36.6869742371379,-56.4562966453067,-33.3485270010292));
#1563=CARTESIAN_POINT('',(30.6247964106468,-52.9562966453067,-32.3485270010292));
#1564=CARTESIAN_POINT('',(36.6869742371379,-56.4562966453067,-32.3485270010292));
#1565=CARTESIAN_POINT('',(30.6247964106468,-52.9562966453067,-16.6742635005146));
#1566=CARTESIAN_POINT('Origin',(37.1869742371379,-55.5902712415223,-32.3485270010292));
#1567=CARTESIAN_POINT('',(31.1247964106468,-52.0902712415223,-33.3485270010292));
#1568=CARTESIAN_POINT('',(37.1869742371379,-55.5902712415223,-33.3485270010292));
#1569=CARTESIAN_POINT('Origin',(31.1247964106468,-52.0902712415223,-32.3485270010292));
#1570=CARTESIAN_POINT('Origin',(57.2360755357022,-20.8642091463138,-33.3485270010292));
#1571=CARTESIAN_POINT('',(51.0863789464376,-17.515796090053,-33.3485270010292));
#1572=CARTESIAN_POINT('Origin',(-12.0000001787773,-84.999999999999,-1.1489999999998));
#1573=CARTESIAN_POINT('',(12.0000001788506,-84.999999999999,-45.1489999999998));
#1574=CARTESIAN_POINT('',(12.0000001788505,-84.999999999999,-1.14899999999979));
#1575=CARTESIAN_POINT('',(12.0000000000008,-84.999999999999,0.));
#1576=CARTESIAN_POINT('',(-12.0000001787773,-84.999999999999,-45.1489999999998));
#1577=CARTESIAN_POINT('',(8.57505252718549E-13,-84.999999999999,-45.1489999999998));
#1578=CARTESIAN_POINT('',(-12.0000001787773,-84.999999999999,-1.1489999999998));
#1579=CARTESIAN_POINT('',(-12.0000000000007,-84.9999999999991,0.));
#1580=CARTESIAN_POINT('',(8.39741684324546E-13,-84.999999999999,-1.1489999999998));
#1581=CARTESIAN_POINT('Origin',(2.22044604925031E-15,-76.,0.));
#1582=CARTESIAN_POINT('',(12.9903810567666,-83.5,-1.149));
#1583=CARTESIAN_POINT('Origin',(2.22044604925031E-15,-76.,-1.149));
#1584=CARTESIAN_POINT('',(12.9903810567666,-83.5,-45.149));
#1585=CARTESIAN_POINT('',(12.9903810567666,-83.5,0.));
#1586=CARTESIAN_POINT('Origin',(2.22044604925031E-15,-76.,-45.149));
#1587=CARTESIAN_POINT('Origin',(2.22044604925031E-15,-76.,0.));
#1588=CARTESIAN_POINT('',(-12.9903810567666,-83.5,-45.149));
#1589=CARTESIAN_POINT('Origin',(2.22044604925031E-15,-76.,-45.149));
#1590=CARTESIAN_POINT('',(-12.9903810567666,-83.5,-1.149));
#1591=CARTESIAN_POINT('',(-12.9903810567666,-83.5,0.));
#1592=CARTESIAN_POINT('Origin',(2.22044604925031E-15,-76.,-1.149));
#1593=CARTESIAN_POINT('Origin',(-18.6374953737965,-82.7189110867545,-34.149));
#1594=CARTESIAN_POINT('',(-16.4054445662277,-82.584936490539,-34.149));
#1595=CARTESIAN_POINT('',(-16.9054445662277,-81.7189110867545,-35.149));
#1596=CARTESIAN_POINT('Origin',(-16.9054445662277,-81.7189110867545,-34.149));
#1597=CARTESIAN_POINT('',(-14.2403810567666,-81.334936490539,-34.149));
#1598=CARTESIAN_POINT('',(-18.1374953737965,-83.584936490539,-34.149));
#1599=CARTESIAN_POINT('',(-14.7403810567666,-80.4689110867545,-35.149));
#1600=CARTESIAN_POINT('Origin',(-14.7403810567666,-80.4689110867546,-34.149));
#1601=CARTESIAN_POINT('',(-18.6374953737965,-82.7189110867545,-35.149));
#1602=CARTESIAN_POINT('Origin',(-18.1374953737965,-83.584936490539,-35.149));
#1603=CARTESIAN_POINT('',(-27.5198889806112,-58.3341540669265,-35.149));
#1604=CARTESIAN_POINT('',(-20.1554445662277,-76.0897459621557,-35.149));
#1605=CARTESIAN_POINT('Origin',(-18.6374953737965,-82.7189110867545,-12.149));
#1606=CARTESIAN_POINT('',(-16.9054445662276,-81.7189110867545,-11.149));
#1607=CARTESIAN_POINT('',(-16.4054445662276,-82.584936490539,-12.149));
#1608=CARTESIAN_POINT('Origin',(-16.9054445662276,-81.7189110867545,-12.149));
#1609=CARTESIAN_POINT('',(-14.7403810567666,-80.4689110867545,-11.149));
#1610=CARTESIAN_POINT('',(-18.6374953737965,-82.7189110867545,-11.149));
#1611=CARTESIAN_POINT('',(-14.2403810567666,-81.334936490539,-12.149));
#1612=CARTESIAN_POINT('Origin',(-14.7403810567666,-80.4689110867545,-12.149));
#1613=CARTESIAN_POINT('',(-18.1374953737965,-83.584936490539,-12.149));
#1614=CARTESIAN_POINT('Origin',(-18.1374953737965,-83.584936490539,-11.149));
#1615=CARTESIAN_POINT('',(-16.4054445662276,-82.584936490539,-17.149));
#1616=CARTESIAN_POINT('',(-14.2403810567666,-81.334936490539,-5.5745));
#1617=CARTESIAN_POINT('Origin',(-20.8025588832576,-83.9689110867545,-12.149));
#1618=CARTESIAN_POINT('',(-18.1374953737965,-83.584936490539,-12.149));
#1619=CARTESIAN_POINT('',(-18.6374953737965,-82.7189110867545,-11.149));
#1620=CARTESIAN_POINT('Origin',(-18.6374953737965,-82.7189110867545,-12.149));
#1621=CARTESIAN_POINT('',(-20.3025588832576,-84.834936490539,-12.149));
#1622=CARTESIAN_POINT('',(-20.8025588832576,-83.9689110867545,-11.149));
#1623=CARTESIAN_POINT('Origin',(-27.8025588832576,-71.8445554337724,-11.149));
#1624=CARTESIAN_POINT('',(-18.1374953737965,-83.584936490539,-11.149));
#1625=CARTESIAN_POINT('Origin',(-20.8025588832576,-83.9689110867545,-34.149));
#1626=CARTESIAN_POINT('',(-18.6374953737965,-82.7189110867545,-35.149));
#1627=CARTESIAN_POINT('',(-18.1374953737965,-83.584936490539,-34.149));
#1628=CARTESIAN_POINT('Origin',(-18.6374953737966,-82.7189110867545,-34.149));
#1629=CARTESIAN_POINT('',(-20.8025588832576,-83.9689110867545,-35.149));
#1630=CARTESIAN_POINT('',(-20.3025588832576,-84.834936490539,-34.149));
#1631=CARTESIAN_POINT('Origin',(-20.3025588832576,-84.834936490539,-11.149));
#1632=CARTESIAN_POINT('',(-18.1374953737965,-83.584936490539,-35.149));
#1633=CARTESIAN_POINT('Origin',(-21.8874953737965,-77.0897459621556,-11.149));
#1634=CARTESIAN_POINT('',(-20.1554445662276,-76.0897459621556,-11.149));
#1635=CARTESIAN_POINT('',(-29.3948889806112,-55.0865588027348,-11.149));
#1636=CARTESIAN_POINT('Origin',(-20.1554445662276,-76.0897459621556,-23.149));
#1637=CARTESIAN_POINT('Origin',(-40.7993969044559,-35.3333716433141,0.));
#1638=CARTESIAN_POINT('',(-28.7833457268918,-56.1457827892029,-1.149));
#1639=CARTESIAN_POINT('',(-78.8083117443839,30.5,-45.149));
#1640=CARTESIAN_POINT('Origin',(-20.3025588832577,-84.834936490539,-35.149));
#1641=CARTESIAN_POINT('',(-25.6374953737965,-70.5945554337724,-35.149));
#1642=CARTESIAN_POINT('Origin',(-21.8874953737966,-77.0897459621557,-23.149));
#1643=CARTESIAN_POINT('Origin',(9.99200722162641E-15,-90.0000000000001,
0.));
#1644=CARTESIAN_POINT('Origin',(9.99200722162641E-15,-90.0000000000001,
-45.149));
#1645=CARTESIAN_POINT('Origin',(9.99200722162641E-15,-90.0000000000001,
-1.149));
#1646=CARTESIAN_POINT('Origin',(76.6204895708751,12.7105808375568,-34.149));
#1647=CARTESIAN_POINT('',(73.9554260614139,13.0945554337723,-34.149));
#1648=CARTESIAN_POINT('',(74.4554260614139,13.9605808375568,-35.149));
#1649=CARTESIAN_POINT('Origin',(74.455426061414,13.9605808375567,-34.149));
#1650=CARTESIAN_POINT('',(76.1204895708751,11.8445554337723,-34.149));
#1651=CARTESIAN_POINT('',(76.6204895708751,12.7105808375568,-35.149));
#1652=CARTESIAN_POINT('Origin',(76.120489570875,11.8445554337723,-35.149));
#1653=CARTESIAN_POINT('',(73.9554260614139,13.0945554337723,-12.149));
#1654=CARTESIAN_POINT('',(73.9554260614139,13.0945554337723,-35.149));
#1655=CARTESIAN_POINT('',(76.120489570875,11.8445554337723,-12.149));
#1656=CARTESIAN_POINT('Origin',(76.620489570875,12.7105808375568,-12.149));
#1657=CARTESIAN_POINT('',(74.4554260614139,13.9605808375568,-11.149));
#1658=CARTESIAN_POINT('Origin',(74.455426061414,13.9605808375567,-12.149));
#1659=CARTESIAN_POINT('',(76.620489570875,12.7105808375568,-11.149));
#1660=CARTESIAN_POINT('Origin',(77.7054260614139,19.5897459621556,-23.149));
#1661=CARTESIAN_POINT('',(81.4554260614139,26.0849364905389,-35.149));
#1662=CARTESIAN_POINT('',(73.9554260614139,13.0945554337723,-11.149));
#1663=CARTESIAN_POINT('Origin',(50.9988601836642,-17.6673830337923,0.));
#1664=CARTESIAN_POINT('',(12.9903810567666,-83.5,-45.149));
#1665=CARTESIAN_POINT('',(60.3492502450185,-1.47203237693954,-1.149));
#1666=CARTESIAN_POINT('Origin',(76.120489570875,11.8445554337723,-11.149));
#1667=CARTESIAN_POINT('Origin',(83.620489570875,24.8349364905389,-35.149));
#1668=CARTESIAN_POINT('Origin',(-51.571143058541,28.1067259939711,-45.149));
#1669=CARTESIAN_POINT('Origin',(61.5711428350236,19.4163084831039,-1.149));
#1670=UNCERTAINTY_MEASURE_WITH_UNIT(LENGTH_MEASURE(0.01),#1674,
'DISTANCE_ACCURACY_VALUE',
'Maximum model space distance between geometric entities at asserted c
onnectivities');
#1671=UNCERTAINTY_MEASURE_WITH_UNIT(LENGTH_MEASURE(0.01),#1674,
'DISTANCE_ACCURACY_VALUE',
'Maximum model space distance between geometric entities at asserted c
onnectivities');
#1672=(
GEOMETRIC_REPRESENTATION_CONTEXT(3)
GLOBAL_UNCERTAINTY_ASSIGNED_CONTEXT((#1670))
GLOBAL_UNIT_ASSIGNED_CONTEXT((#1674,#1676,#1677))
REPRESENTATION_CONTEXT('','3D')
);
#1673=(
GEOMETRIC_REPRESENTATION_CONTEXT(3)
GLOBAL_UNCERTAINTY_ASSIGNED_CONTEXT((#1671))
GLOBAL_UNIT_ASSIGNED_CONTEXT((#1674,#1676,#1677))
REPRESENTATION_CONTEXT('','3D')
);
#1674=(
LENGTH_UNIT()
NAMED_UNIT(*)
SI_UNIT(.MILLI.,.METRE.)
);
#1675=(
LENGTH_UNIT()
NAMED_UNIT(*)
SI_UNIT($,.METRE.)
);
#1676=(
NAMED_UNIT(*)
PLANE_ANGLE_UNIT()
SI_UNIT($,.RADIAN.)
);
#1677=(
NAMED_UNIT(*)
SI_UNIT($,.STERADIAN.)
SOLID_ANGLE_UNIT()
);
#1678=SHAPE_DEFINITION_REPRESENTATION(#1679,#1680);
#1679=PRODUCT_DEFINITION_SHAPE('',$,#1682);
#1680=SHAPE_REPRESENTATION('',(#1014),#1672);
#1681=PRODUCT_DEFINITION_CONTEXT('part definition',#1686,'design');
#1682=PRODUCT_DEFINITION('2026-06-20-16-36-52-782','FusionComponent',#1683,
#1681);
#1683=PRODUCT_DEFINITION_FORMATION('',$,#1688);
#1684=PRODUCT_RELATED_PRODUCT_CATEGORY('FusionComponent',
'FusionComponent',(#1688));
#1685=APPLICATION_PROTOCOL_DEFINITION('international standard',
'automotive_design',2009,#1686);
#1686=APPLICATION_CONTEXT(
'Core Data for Automotive Mechanical Design Process');
#1687=PRODUCT_CONTEXT('part definition',#1686,'mechanical');
#1688=PRODUCT('2026-06-20-16-36-52-782','FusionComponent',$,(#1687));
#1689=PRESENTATION_STYLE_ASSIGNMENT((#1690));
#1690=SURFACE_STYLE_USAGE(.BOTH.,#1691);
#1691=SURFACE_SIDE_STYLE('',(#1692));
#1692=SURFACE_STYLE_FILL_AREA(#1693);
#1693=FILL_AREA_STYLE('Steel - Satin',(#1694));
#1694=FILL_AREA_STYLE_COLOUR('Steel - Satin',#1695);
#1695=COLOUR_RGB('Steel - Satin',0.627450980392157,0.627450980392157,0.627450980392157);
ENDSEC;
END-ISO-10303-21;
