ISO-10303-21;
HEADER;
/* Generated by software containing ST-Developer
 * from STEP Tools, Inc. (www.steptools.com) 
 */

FILE_DESCRIPTION(
/* description */ (''),
/* implementation_level */ '2;1');

FILE_NAME(
/* name */ 'TPU Connector Pins x12.step',
/* time_stamp */ '2026-06-20T17:09:51-05:00',
/* author */ (''),
/* organization */ (''),
/* preprocessor_version */ 'ST-DEVELOPER v20.1',
/* originating_system */ 'Autodesk Translation Framework v15.8.0.0',
/* authorisation */ '');

FILE_SCHEMA (('AUTOMOTIVE_DESIGN { 1 0 10303 214 3 1 1 }'));
ENDSEC;

DATA;
#10=MECHANICAL_DESIGN_GEOMETRIC_PRESENTATION_REPRESENTATION('',(#13),#167);
#11=SHAPE_REPRESENTATION_RELATIONSHIP('SRR','None',#174,#12);
#12=ADVANCED_BREP_SHAPE_REPRESENTATION('',(#14),#166);
#13=STYLED_ITEM('',(#183),#14);
#14=MANIFOLD_SOLID_BREP('Body1',#85);
#15=LINE('',#158,#17);
#16=LINE('',#162,#18);
#17=VECTOR('',#134,2.);
#18=VECTOR('',#139,3.);
#19=CYLINDRICAL_SURFACE('',#108,2.);
#20=CYLINDRICAL_SURFACE('',#109,3.);
#21=FACE_BOUND('',#32,.T.);
#22=TOROIDAL_SURFACE('',#101,2.1,0.1);
#23=FACE_OUTER_BOUND('',#29,.T.);
#24=FACE_OUTER_BOUND('',#30,.T.);
#25=FACE_OUTER_BOUND('',#31,.T.);
#26=FACE_OUTER_BOUND('',#33,.T.);
#27=FACE_OUTER_BOUND('',#34,.T.);
#28=FACE_OUTER_BOUND('',#35,.T.);
#29=EDGE_LOOP('',(#58));
#30=EDGE_LOOP('',(#59,#60,#61,#62,#63));
#31=EDGE_LOOP('',(#64));
#32=EDGE_LOOP('',(#65));
#33=EDGE_LOOP('',(#66,#67,#68,#69,#70));
#34=EDGE_LOOP('',(#71,#72,#73,#74));
#35=EDGE_LOOP('',(#75));
#36=CIRCLE('',#100,2.);
#37=CIRCLE('',#102,2.);
#38=CIRCLE('',#103,0.1);
#39=CIRCLE('',#104,2.1);
#40=CIRCLE('',#105,2.);
#41=CIRCLE('',#107,3.);
#42=CIRCLE('',#110,3.);
#43=VERTEX_POINT('',#144);
#44=VERTEX_POINT('',#147);
#45=VERTEX_POINT('',#148);
#46=VERTEX_POINT('',#150);
#47=VERTEX_POINT('',#155);
#48=VERTEX_POINT('',#160);
#49=EDGE_CURVE('',#43,#43,#36,.T.);
#50=EDGE_CURVE('',#44,#45,#37,.T.);
#51=EDGE_CURVE('',#45,#46,#38,.T.);
#52=EDGE_CURVE('',#46,#46,#39,.T.);
#53=EDGE_CURVE('',#45,#44,#40,.T.);
#54=EDGE_CURVE('',#47,#47,#41,.T.);
#55=EDGE_CURVE('',#44,#43,#15,.T.);
#56=EDGE_CURVE('',#48,#48,#42,.T.);
#57=EDGE_CURVE('',#48,#47,#16,.T.);
#58=ORIENTED_EDGE('',*,*,#49,.T.);
#59=ORIENTED_EDGE('',*,*,#50,.T.);
#60=ORIENTED_EDGE('',*,*,#51,.T.);
#61=ORIENTED_EDGE('',*,*,#52,.T.);
#62=ORIENTED_EDGE('',*,*,#51,.F.);
#63=ORIENTED_EDGE('',*,*,#53,.T.);
#64=ORIENTED_EDGE('',*,*,#54,.F.);
#65=ORIENTED_EDGE('',*,*,#52,.F.);
#66=ORIENTED_EDGE('',*,*,#50,.F.);
#67=ORIENTED_EDGE('',*,*,#55,.T.);
#68=ORIENTED_EDGE('',*,*,#49,.F.);
#69=ORIENTED_EDGE('',*,*,#55,.F.);
#70=ORIENTED_EDGE('',*,*,#53,.F.);
#71=ORIENTED_EDGE('',*,*,#56,.F.);
#72=ORIENTED_EDGE('',*,*,#57,.T.);
#73=ORIENTED_EDGE('',*,*,#54,.T.);
#74=ORIENTED_EDGE('',*,*,#57,.F.);
#75=ORIENTED_EDGE('',*,*,#56,.T.);
#76=PLANE('',#99);
#77=PLANE('',#106);
#78=PLANE('',#111);
#79=ADVANCED_FACE('',(#23),#76,.F.);
#80=ADVANCED_FACE('',(#24),#22,.F.);
#81=ADVANCED_FACE('',(#25,#21),#77,.F.);
#82=ADVANCED_FACE('',(#26),#19,.T.);
#83=ADVANCED_FACE('',(#27),#20,.T.);
#84=ADVANCED_FACE('',(#28),#78,.T.);
#85=CLOSED_SHELL('',(#79,#80,#81,#82,#83,#84));
#86=DERIVED_UNIT_ELEMENT(#88,1.);
#87=DERIVED_UNIT_ELEMENT(#169,-3.);
#88=(
MASS_UNIT()
NAMED_UNIT(*)
SI_UNIT(.KILO.,.GRAM.)
);
#89=DERIVED_UNIT((#86,#87));
#90=MEASURE_REPRESENTATION_ITEM('density measure',
POSITIVE_RATIO_MEASURE(7850.),#89);
#91=PROPERTY_DEFINITION_REPRESENTATION(#96,#93);
#92=PROPERTY_DEFINITION_REPRESENTATION(#97,#94);
#93=REPRESENTATION('material name',(#95),#166);
#94=REPRESENTATION('density',(#90),#166);
#95=DESCRIPTIVE_REPRESENTATION_ITEM('Steel','Steel');
#96=PROPERTY_DEFINITION('material property','material name',#176);
#97=PROPERTY_DEFINITION('material property','density of part',#176);
#98=AXIS2_PLACEMENT_3D('',#142,#112,#113);
#99=AXIS2_PLACEMENT_3D('',#143,#114,#115);
#100=AXIS2_PLACEMENT_3D('',#145,#116,#117);
#101=AXIS2_PLACEMENT_3D('',#146,#118,#119);
#102=AXIS2_PLACEMENT_3D('',#149,#120,#121);
#103=AXIS2_PLACEMENT_3D('',#151,#122,#123);
#104=AXIS2_PLACEMENT_3D('',#152,#124,#125);
#105=AXIS2_PLACEMENT_3D('',#153,#126,#127);
#106=AXIS2_PLACEMENT_3D('',#154,#128,#129);
#107=AXIS2_PLACEMENT_3D('',#156,#130,#131);
#108=AXIS2_PLACEMENT_3D('',#157,#132,#133);
#109=AXIS2_PLACEMENT_3D('',#159,#135,#136);
#110=AXIS2_PLACEMENT_3D('',#161,#137,#138);
#111=AXIS2_PLACEMENT_3D('',#163,#140,#141);
#112=DIRECTION('axis',(0.,0.,1.));
#113=DIRECTION('refdir',(1.,0.,0.));
#114=DIRECTION('center_axis',(-5.6957795700863E-17,0.342020143325669,0.939692620785908));
#115=DIRECTION('ref_axis',(1.,0.,6.06132201540825E-17));
#116=DIRECTION('center_axis',(5.6957795700863E-17,-0.342020143325669,-0.939692620785908));
#117=DIRECTION('ref_axis',(-1.,-5.44204460179444E-32,1.98074224860225E-32));
#118=DIRECTION('center_axis',(-1.23259516440783E-32,0.342020143325669,0.939692620785908));
#119=DIRECTION('ref_axis',(1.,0.,0.));
#120=DIRECTION('center_axis',(-1.23259516440783E-32,0.342020143325669,0.939692620785908));
#121=DIRECTION('ref_axis',(-1.,4.05274772075082E-15,-1.47451495458029E-15));
#122=DIRECTION('center_axis',(0.,-0.939692620785908,0.342020143325669));
#123=DIRECTION('ref_axis',(-1.,0.,0.));
#124=DIRECTION('center_axis',(1.23259516440783E-32,-0.342020143325669,-0.939692620785908));
#125=DIRECTION('ref_axis',(-1.,4.05256626734841E-15,-1.47501349370611E-15));
#126=DIRECTION('center_axis',(-1.23259516440783E-32,0.342020143325669,0.939692620785908));
#127=DIRECTION('ref_axis',(-1.,4.05274772075082E-15,-1.47451495458029E-15));
#128=DIRECTION('center_axis',(-1.23259516440783E-32,0.342020143325669,0.939692620785908));
#129=DIRECTION('ref_axis',(-1.,-4.93038065763132E-32,0.));
#130=DIRECTION('center_axis',(-1.23259516440783E-32,0.342020143325669,0.939692620785908));
#131=DIRECTION('ref_axis',(-1.,-4.1086505480261E-32,0.));
#132=DIRECTION('center_axis',(0.,0.34202014332567,0.939692620785908));
#133=DIRECTION('ref_axis',(-1.,-5.44204460179443E-32,1.98074224860225E-32));
#134=DIRECTION('',(0.,-0.34202014332567,-0.939692620785908));
#135=DIRECTION('center_axis',(0.,0.342020143325674,0.939692620785906));
#136=DIRECTION('ref_axis',(-1.,-3.6280297345296E-32,1.32049483240151E-32));
#137=DIRECTION('center_axis',(-1.23259516440783E-32,0.342020143325669,0.939692620785908));
#138=DIRECTION('ref_axis',(-1.,-4.1086505480261E-32,0.));
#139=DIRECTION('',(0.,-0.342020143325674,-0.939692620785906));
#140=DIRECTION('center_axis',(-1.23259516440783E-32,0.342020143325669,0.939692620785908));
#141=DIRECTION('ref_axis',(-1.,-4.93038065763132E-32,0.));
#142=CARTESIAN_POINT('',(0.,0.,0.));
#143=CARTESIAN_POINT('Origin',(32.9618551013977,-42.3399838322986,39.2220837141359));
#144=CARTESIAN_POINT('',(34.9618551013977,-56.139554892607,44.2447168257294));
#145=CARTESIAN_POINT('Origin',(32.9618551013977,-56.139554892607,44.2447168257294));
#146=CARTESIAN_POINT('Origin',(32.9618551013977,-54.8056763336369,47.9095180467944));
#147=CARTESIAN_POINT('',(34.9618551013977,-54.8056763336369,47.9095180467944));
#148=CARTESIAN_POINT('',(30.9618551013977,-54.8056763336369,47.9095180467944));
#149=CARTESIAN_POINT('Origin',(32.9618551013977,-54.8056763336369,47.9095180467944));
#150=CARTESIAN_POINT('',(30.8618551013977,-54.7714743193043,48.003487308873));
#151=CARTESIAN_POINT('Origin',(30.8618551013977,-54.8056763336369,47.9095180467944));
#152=CARTESIAN_POINT('Origin',(32.9618551013977,-54.7714743193043,48.003487308873));
#153=CARTESIAN_POINT('Origin',(32.9618551013977,-54.8056763336369,47.9095180467944));
#154=CARTESIAN_POINT('Origin',(32.9618551013977,-54.7714743193043,48.003487308873));
#155=CARTESIAN_POINT('',(35.9618551013977,-54.7714743193043,48.003487308873));
#156=CARTESIAN_POINT('Origin',(32.9618551013977,-54.7714743193043,48.003487308873));
#157=CARTESIAN_POINT('Origin',(32.9618551013977,-55.5239186346208,45.9361635431441));
#158=CARTESIAN_POINT('',(34.9618551013977,-55.5239186346208,45.9361635431441));
#159=CARTESIAN_POINT('Origin',(32.9618551013977,-54.7714743193043,48.003487308873));
#160=CARTESIAN_POINT('',(35.9618551013977,-54.6004642476414,48.473333619266));
#161=CARTESIAN_POINT('Origin',(32.9618551013977,-54.6004642476414,48.473333619266));
#162=CARTESIAN_POINT('',(35.9618551013977,-54.7714743193043,48.003487308873));
#163=CARTESIAN_POINT('Origin',(32.9618551013977,-54.6004642476414,48.473333619266));
#164=UNCERTAINTY_MEASURE_WITH_UNIT(LENGTH_MEASURE(0.01),#168,
'DISTANCE_ACCURACY_VALUE',
'Maximum model space distance between geometric entities at asserted c
onnectivities');
#165=UNCERTAINTY_MEASURE_WITH_UNIT(LENGTH_MEASURE(0.01),#168,
'DISTANCE_ACCURACY_VALUE',
'Maximum model space distance between geometric entities at asserted c
onnectivities');
#166=(
GEOMETRIC_REPRESENTATION_CONTEXT(3)
GLOBAL_UNCERTAINTY_ASSIGNED_CONTEXT((#164))
GLOBAL_UNIT_ASSIGNED_CONTEXT((#168,#170,#171))
REPRESENTATION_CONTEXT('','3D')
);
#167=(
GEOMETRIC_REPRESENTATION_CONTEXT(3)
GLOBAL_UNCERTAINTY_ASSIGNED_CONTEXT((#165))
GLOBAL_UNIT_ASSIGNED_CONTEXT((#168,#170,#171))
REPRESENTATION_CONTEXT('','3D')
);
#168=(
LENGTH_UNIT()
NAMED_UNIT(*)
SI_UNIT(.MILLI.,.METRE.)
);
#169=(
LENGTH_UNIT()
NAMED_UNIT(*)
SI_UNIT($,.METRE.)
);
#170=(
NAMED_UNIT(*)
PLANE_ANGLE_UNIT()
SI_UNIT($,.RADIAN.)
);
#171=(
NAMED_UNIT(*)
SI_UNIT($,.STERADIAN.)
SOLID_ANGLE_UNIT()
);
#172=SHAPE_DEFINITION_REPRESENTATION(#173,#174);
#173=PRODUCT_DEFINITION_SHAPE('',$,#176);
#174=SHAPE_REPRESENTATION('',(#98),#166);
#175=PRODUCT_DEFINITION_CONTEXT('part definition',#180,'design');
#176=PRODUCT_DEFINITION('2026-06-20-17-09-50-974','FusionComponent',#177,
#175);
#177=PRODUCT_DEFINITION_FORMATION('',$,#182);
#178=PRODUCT_RELATED_PRODUCT_CATEGORY('FusionComponent',
'FusionComponent',(#182));
#179=APPLICATION_PROTOCOL_DEFINITION('international standard',
'automotive_design',2009,#180);
#180=APPLICATION_CONTEXT(
'Core Data for Automotive Mechanical Design Process');
#181=PRODUCT_CONTEXT('part definition',#180,'mechanical');
#182=PRODUCT('2026-06-20-17-09-50-974','FusionComponent',$,(#181));
#183=PRESENTATION_STYLE_ASSIGNMENT((#184));
#184=SURFACE_STYLE_USAGE(.BOTH.,#185);
#185=SURFACE_SIDE_STYLE('',(#186));
#186=SURFACE_STYLE_FILL_AREA(#187);
#187=FILL_AREA_STYLE('Steel - Satin',(#188));
#188=FILL_AREA_STYLE_COLOUR('Steel - Satin',#189);
#189=COLOUR_RGB('Steel - Satin',0.627450980392157,0.627450980392157,0.627450980392157);
ENDSEC;
END-ISO-10303-21;
