ISO-10303-21;
HEADER;
/* Generated by software containing ST-Developer
 * from STEP Tools, Inc. (www.steptools.com) 
 */

FILE_DESCRIPTION(
/* description */ (''),
/* implementation_level */ '2;1');

FILE_NAME(
/* name */ 'Angular Electronics Hub Connector x2.step',
/* time_stamp */ '2026-06-20T12:34:05-05:00',
/* author */ (''),
/* organization */ (''),
/* preprocessor_version */ 'ST-DEVELOPER v20.1',
/* originating_system */ 'Autodesk Translation Framework v15.8.0.0',
/* authorisation */ '');

FILE_SCHEMA (('AUTOMOTIVE_DESIGN { 1 0 10303 214 3 1 1 }'));
ENDSEC;

DATA;
#10=MECHANICAL_DESIGN_GEOMETRIC_PRESENTATION_REPRESENTATION('',(#13,#14),
#606);
#11=SHAPE_REPRESENTATION_RELATIONSHIP('SRR','None',#613,#12);
#12=ADVANCED_BREP_SHAPE_REPRESENTATION('',(#15,#16),#605);
#13=STYLED_ITEM('',(#622),#15);
#14=STYLED_ITEM('',(#622),#16);
#15=MANIFOLD_SOLID_BREP('Body1',#361);
#16=MANIFOLD_SOLID_BREP('Body2',#362);
#17=CYLINDRICAL_SURFACE('',#384,5.00000000000008);
#18=CYLINDRICAL_SURFACE('',#387,5.);
#19=CYLINDRICAL_SURFACE('',#398,5.);
#20=CYLINDRICAL_SURFACE('',#401,5.00000000000018);
#21=CIRCLE('',#379,5.);
#22=CIRCLE('',#380,5.00000000000008);
#23=CIRCLE('',#385,5.00000000000008);
#24=CIRCLE('',#388,5.);
#25=CIRCLE('',#393,5.00000000000018);
#26=CIRCLE('',#394,5.);
#27=CIRCLE('',#399,5.);
#28=CIRCLE('',#402,5.00000000000018);
#29=FACE_OUTER_BOUND('',#49,.T.);
#30=FACE_OUTER_BOUND('',#50,.T.);
#31=FACE_OUTER_BOUND('',#51,.T.);
#32=FACE_OUTER_BOUND('',#52,.T.);
#33=FACE_OUTER_BOUND('',#53,.T.);
#34=FACE_OUTER_BOUND('',#54,.T.);
#35=FACE_OUTER_BOUND('',#55,.T.);
#36=FACE_OUTER_BOUND('',#56,.T.);
#37=FACE_OUTER_BOUND('',#57,.T.);
#38=FACE_OUTER_BOUND('',#58,.T.);
#39=FACE_OUTER_BOUND('',#59,.T.);
#40=FACE_OUTER_BOUND('',#60,.T.);
#41=FACE_OUTER_BOUND('',#61,.T.);
#42=FACE_OUTER_BOUND('',#62,.T.);
#43=FACE_OUTER_BOUND('',#63,.T.);
#44=FACE_OUTER_BOUND('',#64,.T.);
#45=FACE_OUTER_BOUND('',#65,.T.);
#46=FACE_OUTER_BOUND('',#66,.T.);
#47=FACE_OUTER_BOUND('',#67,.T.);
#48=FACE_OUTER_BOUND('',#68,.T.);
#49=EDGE_LOOP('',(#229,#230,#231,#232));
#50=EDGE_LOOP('',(#233,#234,#235,#236));
#51=EDGE_LOOP('',(#237,#238,#239,#240,#241,#242,#243,#244));
#52=EDGE_LOOP('',(#245,#246,#247,#248));
#53=EDGE_LOOP('',(#249,#250,#251,#252));
#54=EDGE_LOOP('',(#253,#254,#255,#256));
#55=EDGE_LOOP('',(#257,#258,#259,#260));
#56=EDGE_LOOP('',(#261,#262,#263,#264));
#57=EDGE_LOOP('',(#265,#266,#267,#268));
#58=EDGE_LOOP('',(#269,#270,#271,#272,#273,#274,#275,#276));
#59=EDGE_LOOP('',(#277,#278,#279,#280));
#60=EDGE_LOOP('',(#281,#282,#283,#284));
#61=EDGE_LOOP('',(#285,#286,#287,#288,#289,#290,#291,#292));
#62=EDGE_LOOP('',(#293,#294,#295,#296));
#63=EDGE_LOOP('',(#297,#298,#299,#300));
#64=EDGE_LOOP('',(#301,#302,#303,#304));
#65=EDGE_LOOP('',(#305,#306,#307,#308));
#66=EDGE_LOOP('',(#309,#310,#311,#312));
#67=EDGE_LOOP('',(#313,#314,#315,#316));
#68=EDGE_LOOP('',(#317,#318,#319,#320,#321,#322,#323,#324));
#69=LINE('',#506,#109);
#70=LINE('',#508,#110);
#71=LINE('',#510,#111);
#72=LINE('',#511,#112);
#73=LINE('',#514,#113);
#74=LINE('',#516,#114);
#75=LINE('',#517,#115);
#76=LINE('',#520,#116);
#77=LINE('',#524,#117);
#78=LINE('',#526,#118);
#79=LINE('',#528,#119);
#80=LINE('',#533,#120);
#81=LINE('',#534,#121);
#82=LINE('',#535,#122);
#83=LINE('',#538,#123);
#84=LINE('',#539,#124);
#85=LINE('',#542,#125);
#86=LINE('',#543,#126);
#87=LINE('',#548,#127);
#88=LINE('',#549,#128);
#89=LINE('',#556,#129);
#90=LINE('',#558,#130);
#91=LINE('',#560,#131);
#92=LINE('',#561,#132);
#93=LINE('',#564,#133);
#94=LINE('',#566,#134);
#95=LINE('',#567,#135);
#96=LINE('',#570,#136);
#97=LINE('',#574,#137);
#98=LINE('',#576,#138);
#99=LINE('',#578,#139);
#100=LINE('',#583,#140);
#101=LINE('',#584,#141);
#102=LINE('',#585,#142);
#103=LINE('',#588,#143);
#104=LINE('',#589,#144);
#105=LINE('',#592,#145);
#106=LINE('',#593,#146);
#107=LINE('',#598,#147);
#108=LINE('',#599,#148);
#109=VECTOR('',#408,10.);
#110=VECTOR('',#409,10.);
#111=VECTOR('',#410,10.);
#112=VECTOR('',#411,10.);
#113=VECTOR('',#414,10.);
#114=VECTOR('',#415,10.);
#115=VECTOR('',#416,10.);
#116=VECTOR('',#419,10.);
#117=VECTOR('',#422,10.);
#118=VECTOR('',#423,10.);
#119=VECTOR('',#424,10.);
#120=VECTOR('',#429,10.);
#121=VECTOR('',#430,10.);
#122=VECTOR('',#431,10.);
#123=VECTOR('',#434,10.);
#124=VECTOR('',#435,10.);
#125=VECTOR('',#438,10.);
#126=VECTOR('',#439,10.);
#127=VECTOR('',#446,10.);
#128=VECTOR('',#447,10.);
#129=VECTOR('',#456,10.);
#130=VECTOR('',#457,10.);
#131=VECTOR('',#458,10.);
#132=VECTOR('',#459,10.);
#133=VECTOR('',#462,10.);
#134=VECTOR('',#463,10.);
#135=VECTOR('',#464,10.);
#136=VECTOR('',#467,10.);
#137=VECTOR('',#470,10.);
#138=VECTOR('',#471,10.);
#139=VECTOR('',#472,10.);
#140=VECTOR('',#477,10.);
#141=VECTOR('',#478,10.);
#142=VECTOR('',#479,10.);
#143=VECTOR('',#482,10.);
#144=VECTOR('',#483,10.);
#145=VECTOR('',#486,10.);
#146=VECTOR('',#487,10.);
#147=VECTOR('',#494,10.);
#148=VECTOR('',#495,10.);
#149=VERTEX_POINT('',#504);
#150=VERTEX_POINT('',#505);
#151=VERTEX_POINT('',#507);
#152=VERTEX_POINT('',#509);
#153=VERTEX_POINT('',#513);
#154=VERTEX_POINT('',#515);
#155=VERTEX_POINT('',#519);
#156=VERTEX_POINT('',#521);
#157=VERTEX_POINT('',#523);
#158=VERTEX_POINT('',#525);
#159=VERTEX_POINT('',#527);
#160=VERTEX_POINT('',#531);
#161=VERTEX_POINT('',#532);
#162=VERTEX_POINT('',#537);
#163=VERTEX_POINT('',#541);
#164=VERTEX_POINT('',#547);
#165=VERTEX_POINT('',#554);
#166=VERTEX_POINT('',#555);
#167=VERTEX_POINT('',#557);
#168=VERTEX_POINT('',#559);
#169=VERTEX_POINT('',#563);
#170=VERTEX_POINT('',#565);
#171=VERTEX_POINT('',#569);
#172=VERTEX_POINT('',#571);
#173=VERTEX_POINT('',#573);
#174=VERTEX_POINT('',#575);
#175=VERTEX_POINT('',#577);
#176=VERTEX_POINT('',#581);
#177=VERTEX_POINT('',#582);
#178=VERTEX_POINT('',#587);
#179=VERTEX_POINT('',#591);
#180=VERTEX_POINT('',#597);
#181=EDGE_CURVE('',#149,#150,#69,.T.);
#182=EDGE_CURVE('',#151,#149,#70,.T.);
#183=EDGE_CURVE('',#152,#151,#71,.T.);
#184=EDGE_CURVE('',#150,#152,#72,.T.);
#185=EDGE_CURVE('',#153,#152,#73,.T.);
#186=EDGE_CURVE('',#154,#153,#74,.T.);
#187=EDGE_CURVE('',#150,#154,#75,.T.);
#188=EDGE_CURVE('',#151,#155,#76,.T.);
#189=EDGE_CURVE('',#155,#156,#21,.T.);
#190=EDGE_CURVE('',#156,#157,#77,.T.);
#191=EDGE_CURVE('',#157,#158,#78,.T.);
#192=EDGE_CURVE('',#158,#159,#79,.T.);
#193=EDGE_CURVE('',#159,#153,#22,.T.);
#194=EDGE_CURVE('',#160,#161,#80,.T.);
#195=EDGE_CURVE('',#158,#160,#81,.T.);
#196=EDGE_CURVE('',#161,#157,#82,.T.);
#197=EDGE_CURVE('',#162,#160,#83,.T.);
#198=EDGE_CURVE('',#162,#159,#84,.T.);
#199=EDGE_CURVE('',#163,#149,#85,.T.);
#200=EDGE_CURVE('',#163,#155,#86,.T.);
#201=EDGE_CURVE('',#154,#162,#23,.T.);
#202=EDGE_CURVE('',#164,#156,#87,.T.);
#203=EDGE_CURVE('',#161,#164,#88,.T.);
#204=EDGE_CURVE('',#164,#163,#24,.T.);
#205=EDGE_CURVE('',#165,#166,#89,.T.);
#206=EDGE_CURVE('',#167,#165,#90,.T.);
#207=EDGE_CURVE('',#168,#167,#91,.T.);
#208=EDGE_CURVE('',#166,#168,#92,.T.);
#209=EDGE_CURVE('',#169,#168,#93,.T.);
#210=EDGE_CURVE('',#170,#169,#94,.T.);
#211=EDGE_CURVE('',#166,#170,#95,.T.);
#212=EDGE_CURVE('',#167,#171,#96,.T.);
#213=EDGE_CURVE('',#171,#172,#25,.T.);
#214=EDGE_CURVE('',#172,#173,#97,.T.);
#215=EDGE_CURVE('',#173,#174,#98,.T.);
#216=EDGE_CURVE('',#174,#175,#99,.T.);
#217=EDGE_CURVE('',#175,#169,#26,.T.);
#218=EDGE_CURVE('',#176,#177,#100,.T.);
#219=EDGE_CURVE('',#174,#176,#101,.T.);
#220=EDGE_CURVE('',#177,#173,#102,.T.);
#221=EDGE_CURVE('',#178,#176,#103,.T.);
#222=EDGE_CURVE('',#178,#175,#104,.T.);
#223=EDGE_CURVE('',#179,#165,#105,.T.);
#224=EDGE_CURVE('',#179,#171,#106,.T.);
#225=EDGE_CURVE('',#170,#178,#27,.T.);
#226=EDGE_CURVE('',#180,#172,#107,.T.);
#227=EDGE_CURVE('',#177,#180,#108,.T.);
#228=EDGE_CURVE('',#180,#179,#28,.T.);
#229=ORIENTED_EDGE('',*,*,#181,.F.);
#230=ORIENTED_EDGE('',*,*,#182,.F.);
#231=ORIENTED_EDGE('',*,*,#183,.F.);
#232=ORIENTED_EDGE('',*,*,#184,.F.);
#233=ORIENTED_EDGE('',*,*,#184,.T.);
#234=ORIENTED_EDGE('',*,*,#185,.F.);
#235=ORIENTED_EDGE('',*,*,#186,.F.);
#236=ORIENTED_EDGE('',*,*,#187,.F.);
#237=ORIENTED_EDGE('',*,*,#183,.T.);
#238=ORIENTED_EDGE('',*,*,#188,.T.);
#239=ORIENTED_EDGE('',*,*,#189,.T.);
#240=ORIENTED_EDGE('',*,*,#190,.T.);
#241=ORIENTED_EDGE('',*,*,#191,.T.);
#242=ORIENTED_EDGE('',*,*,#192,.T.);
#243=ORIENTED_EDGE('',*,*,#193,.T.);
#244=ORIENTED_EDGE('',*,*,#185,.T.);
#245=ORIENTED_EDGE('',*,*,#194,.F.);
#246=ORIENTED_EDGE('',*,*,#195,.F.);
#247=ORIENTED_EDGE('',*,*,#191,.F.);
#248=ORIENTED_EDGE('',*,*,#196,.F.);
#249=ORIENTED_EDGE('',*,*,#195,.T.);
#250=ORIENTED_EDGE('',*,*,#197,.F.);
#251=ORIENTED_EDGE('',*,*,#198,.T.);
#252=ORIENTED_EDGE('',*,*,#192,.F.);
#253=ORIENTED_EDGE('',*,*,#182,.T.);
#254=ORIENTED_EDGE('',*,*,#199,.F.);
#255=ORIENTED_EDGE('',*,*,#200,.T.);
#256=ORIENTED_EDGE('',*,*,#188,.F.);
#257=ORIENTED_EDGE('',*,*,#201,.F.);
#258=ORIENTED_EDGE('',*,*,#186,.T.);
#259=ORIENTED_EDGE('',*,*,#193,.F.);
#260=ORIENTED_EDGE('',*,*,#198,.F.);
#261=ORIENTED_EDGE('',*,*,#196,.T.);
#262=ORIENTED_EDGE('',*,*,#190,.F.);
#263=ORIENTED_EDGE('',*,*,#202,.F.);
#264=ORIENTED_EDGE('',*,*,#203,.F.);
#265=ORIENTED_EDGE('',*,*,#204,.F.);
#266=ORIENTED_EDGE('',*,*,#202,.T.);
#267=ORIENTED_EDGE('',*,*,#189,.F.);
#268=ORIENTED_EDGE('',*,*,#200,.F.);
#269=ORIENTED_EDGE('',*,*,#181,.T.);
#270=ORIENTED_EDGE('',*,*,#187,.T.);
#271=ORIENTED_EDGE('',*,*,#201,.T.);
#272=ORIENTED_EDGE('',*,*,#197,.T.);
#273=ORIENTED_EDGE('',*,*,#194,.T.);
#274=ORIENTED_EDGE('',*,*,#203,.T.);
#275=ORIENTED_EDGE('',*,*,#204,.T.);
#276=ORIENTED_EDGE('',*,*,#199,.T.);
#277=ORIENTED_EDGE('',*,*,#205,.F.);
#278=ORIENTED_EDGE('',*,*,#206,.F.);
#279=ORIENTED_EDGE('',*,*,#207,.F.);
#280=ORIENTED_EDGE('',*,*,#208,.F.);
#281=ORIENTED_EDGE('',*,*,#208,.T.);
#282=ORIENTED_EDGE('',*,*,#209,.F.);
#283=ORIENTED_EDGE('',*,*,#210,.F.);
#284=ORIENTED_EDGE('',*,*,#211,.F.);
#285=ORIENTED_EDGE('',*,*,#207,.T.);
#286=ORIENTED_EDGE('',*,*,#212,.T.);
#287=ORIENTED_EDGE('',*,*,#213,.T.);
#288=ORIENTED_EDGE('',*,*,#214,.T.);
#289=ORIENTED_EDGE('',*,*,#215,.T.);
#290=ORIENTED_EDGE('',*,*,#216,.T.);
#291=ORIENTED_EDGE('',*,*,#217,.T.);
#292=ORIENTED_EDGE('',*,*,#209,.T.);
#293=ORIENTED_EDGE('',*,*,#218,.F.);
#294=ORIENTED_EDGE('',*,*,#219,.F.);
#295=ORIENTED_EDGE('',*,*,#215,.F.);
#296=ORIENTED_EDGE('',*,*,#220,.F.);
#297=ORIENTED_EDGE('',*,*,#219,.T.);
#298=ORIENTED_EDGE('',*,*,#221,.F.);
#299=ORIENTED_EDGE('',*,*,#222,.T.);
#300=ORIENTED_EDGE('',*,*,#216,.F.);
#301=ORIENTED_EDGE('',*,*,#206,.T.);
#302=ORIENTED_EDGE('',*,*,#223,.F.);
#303=ORIENTED_EDGE('',*,*,#224,.T.);
#304=ORIENTED_EDGE('',*,*,#212,.F.);
#305=ORIENTED_EDGE('',*,*,#225,.F.);
#306=ORIENTED_EDGE('',*,*,#210,.T.);
#307=ORIENTED_EDGE('',*,*,#217,.F.);
#308=ORIENTED_EDGE('',*,*,#222,.F.);
#309=ORIENTED_EDGE('',*,*,#220,.T.);
#310=ORIENTED_EDGE('',*,*,#214,.F.);
#311=ORIENTED_EDGE('',*,*,#226,.F.);
#312=ORIENTED_EDGE('',*,*,#227,.F.);
#313=ORIENTED_EDGE('',*,*,#228,.F.);
#314=ORIENTED_EDGE('',*,*,#226,.T.);
#315=ORIENTED_EDGE('',*,*,#213,.F.);
#316=ORIENTED_EDGE('',*,*,#224,.F.);
#317=ORIENTED_EDGE('',*,*,#205,.T.);
#318=ORIENTED_EDGE('',*,*,#211,.T.);
#319=ORIENTED_EDGE('',*,*,#225,.T.);
#320=ORIENTED_EDGE('',*,*,#221,.T.);
#321=ORIENTED_EDGE('',*,*,#218,.T.);
#322=ORIENTED_EDGE('',*,*,#227,.T.);
#323=ORIENTED_EDGE('',*,*,#228,.T.);
#324=ORIENTED_EDGE('',*,*,#223,.T.);
#325=PLANE('',#376);
#326=PLANE('',#377);
#327=PLANE('',#378);
#328=PLANE('',#381);
#329=PLANE('',#382);
#330=PLANE('',#383);
#331=PLANE('',#386);
#332=PLANE('',#389);
#333=PLANE('',#390);
#334=PLANE('',#391);
#335=PLANE('',#392);
#336=PLANE('',#395);
#337=PLANE('',#396);
#338=PLANE('',#397);
#339=PLANE('',#400);
#340=PLANE('',#403);
#341=ADVANCED_FACE('',(#29),#325,.F.);
#342=ADVANCED_FACE('',(#30),#326,.T.);
#343=ADVANCED_FACE('',(#31),#327,.T.);
#344=ADVANCED_FACE('',(#32),#328,.F.);
#345=ADVANCED_FACE('',(#33),#329,.T.);
#346=ADVANCED_FACE('',(#34),#330,.T.);
#347=ADVANCED_FACE('',(#35),#17,.F.);
#348=ADVANCED_FACE('',(#36),#331,.T.);
#349=ADVANCED_FACE('',(#37),#18,.T.);
#350=ADVANCED_FACE('',(#38),#332,.F.);
#351=ADVANCED_FACE('',(#39),#333,.F.);
#352=ADVANCED_FACE('',(#40),#334,.T.);
#353=ADVANCED_FACE('',(#41),#335,.T.);
#354=ADVANCED_FACE('',(#42),#336,.F.);
#355=ADVANCED_FACE('',(#43),#337,.T.);
#356=ADVANCED_FACE('',(#44),#338,.T.);
#357=ADVANCED_FACE('',(#45),#19,.T.);
#358=ADVANCED_FACE('',(#46),#339,.T.);
#359=ADVANCED_FACE('',(#47),#20,.F.);
#360=ADVANCED_FACE('',(#48),#340,.F.);
#361=CLOSED_SHELL('',(#341,#342,#343,#344,#345,#346,#347,#348,#349,#350));
#362=CLOSED_SHELL('',(#351,#352,#353,#354,#355,#356,#357,#358,#359,#360));
#363=DERIVED_UNIT_ELEMENT(#365,1.);
#364=DERIVED_UNIT_ELEMENT(#608,-3.);
#365=(
MASS_UNIT()
NAMED_UNIT(*)
SI_UNIT(.KILO.,.GRAM.)
);
#366=DERIVED_UNIT((#363,#364));
#367=MEASURE_REPRESENTATION_ITEM('density measure',
POSITIVE_RATIO_MEASURE(7850.),#366);
#368=PROPERTY_DEFINITION_REPRESENTATION(#373,#370);
#369=PROPERTY_DEFINITION_REPRESENTATION(#374,#371);
#370=REPRESENTATION('material name',(#372),#605);
#371=REPRESENTATION('density',(#367),#605);
#372=DESCRIPTIVE_REPRESENTATION_ITEM('Steel','Steel');
#373=PROPERTY_DEFINITION('material property','material name',#615);
#374=PROPERTY_DEFINITION('material property','density of part',#615);
#375=AXIS2_PLACEMENT_3D('',#502,#404,#405);
#376=AXIS2_PLACEMENT_3D('',#503,#406,#407);
#377=AXIS2_PLACEMENT_3D('',#512,#412,#413);
#378=AXIS2_PLACEMENT_3D('',#518,#417,#418);
#379=AXIS2_PLACEMENT_3D('',#522,#420,#421);
#380=AXIS2_PLACEMENT_3D('',#529,#425,#426);
#381=AXIS2_PLACEMENT_3D('',#530,#427,#428);
#382=AXIS2_PLACEMENT_3D('',#536,#432,#433);
#383=AXIS2_PLACEMENT_3D('',#540,#436,#437);
#384=AXIS2_PLACEMENT_3D('',#544,#440,#441);
#385=AXIS2_PLACEMENT_3D('',#545,#442,#443);
#386=AXIS2_PLACEMENT_3D('',#546,#444,#445);
#387=AXIS2_PLACEMENT_3D('',#550,#448,#449);
#388=AXIS2_PLACEMENT_3D('',#551,#450,#451);
#389=AXIS2_PLACEMENT_3D('',#552,#452,#453);
#390=AXIS2_PLACEMENT_3D('',#553,#454,#455);
#391=AXIS2_PLACEMENT_3D('',#562,#460,#461);
#392=AXIS2_PLACEMENT_3D('',#568,#465,#466);
#393=AXIS2_PLACEMENT_3D('',#572,#468,#469);
#394=AXIS2_PLACEMENT_3D('',#579,#473,#474);
#395=AXIS2_PLACEMENT_3D('',#580,#475,#476);
#396=AXIS2_PLACEMENT_3D('',#586,#480,#481);
#397=AXIS2_PLACEMENT_3D('',#590,#484,#485);
#398=AXIS2_PLACEMENT_3D('',#594,#488,#489);
#399=AXIS2_PLACEMENT_3D('',#595,#490,#491);
#400=AXIS2_PLACEMENT_3D('',#596,#492,#493);
#401=AXIS2_PLACEMENT_3D('',#600,#496,#497);
#402=AXIS2_PLACEMENT_3D('',#601,#498,#499);
#403=AXIS2_PLACEMENT_3D('',#602,#500,#501);
#404=DIRECTION('axis',(0.,0.,1.));
#405=DIRECTION('refdir',(1.,0.,0.));
#406=DIRECTION('center_axis',(-0.500000000000007,-0.866025403784434,0.));
#407=DIRECTION('ref_axis',(0.,0.,1.));
#408=DIRECTION('',(-0.866025403784434,0.500000000000007,0.));
#409=DIRECTION('',(0.,0.,1.));
#410=DIRECTION('',(0.866025403784434,-0.500000000000007,0.));
#411=DIRECTION('',(0.,0.,-1.));
#412=DIRECTION('center_axis',(-0.866025403784438,0.500000000000001,0.));
#413=DIRECTION('ref_axis',(0.5,0.866025403784438,0.));
#414=DIRECTION('',(0.5,0.866025403784438,0.));
#415=DIRECTION('',(0.,0.,-1.));
#416=DIRECTION('',(-0.5,-0.866025403784438,0.));
#417=DIRECTION('center_axis',(0.,0.,-1.));
#418=DIRECTION('ref_axis',(1.,0.,0.));
#419=DIRECTION('',(-0.5,-0.866025403784438,0.));
#420=DIRECTION('center_axis',(0.,0.,-1.));
#421=DIRECTION('ref_axis',(0.500000000000001,-0.866025403784438,0.));
#422=DIRECTION('',(-1.,5.12790049702284E-16,0.));
#423=DIRECTION('',(0.,1.,0.));
#424=DIRECTION('',(1.,-9.23910794012146E-16,0.));
#425=DIRECTION('center_axis',(0.,0.,1.));
#426=DIRECTION('ref_axis',(0.866025403784435,-0.500000000000007,0.));
#427=DIRECTION('center_axis',(1.,0.,0.));
#428=DIRECTION('ref_axis',(0.,0.,-1.));
#429=DIRECTION('',(0.,-1.,0.));
#430=DIRECTION('',(0.,0.,1.));
#431=DIRECTION('',(0.,0.,-1.));
#432=DIRECTION('center_axis',(9.23910794012146E-16,1.,0.));
#433=DIRECTION('ref_axis',(1.,-9.23910794012146E-16,0.));
#434=DIRECTION('',(-1.,9.23910794012146E-16,0.));
#435=DIRECTION('',(0.,0.,-1.));
#436=DIRECTION('center_axis',(0.866025403784438,-0.5,0.));
#437=DIRECTION('ref_axis',(-0.5,-0.866025403784438,0.));
#438=DIRECTION('',(0.5,0.866025403784438,0.));
#439=DIRECTION('',(0.,0.,-1.));
#440=DIRECTION('center_axis',(0.,0.,-1.));
#441=DIRECTION('ref_axis',(0.866025403784435,-0.500000000000007,0.));
#442=DIRECTION('center_axis',(0.,0.,-1.));
#443=DIRECTION('ref_axis',(0.866025403784435,-0.500000000000007,0.));
#444=DIRECTION('center_axis',(-5.12790049702284E-16,-1.,0.));
#445=DIRECTION('ref_axis',(-1.,5.12790049702284E-16,0.));
#446=DIRECTION('',(0.,0.,-1.));
#447=DIRECTION('',(1.,-5.12790049702284E-16,0.));
#448=DIRECTION('center_axis',(0.,0.,-1.));
#449=DIRECTION('ref_axis',(0.500000000000001,-0.866025403784438,0.));
#450=DIRECTION('center_axis',(0.,0.,1.));
#451=DIRECTION('ref_axis',(0.500000000000001,-0.866025403784438,0.));
#452=DIRECTION('center_axis',(0.,0.,-1.));
#453=DIRECTION('ref_axis',(1.,0.,0.));
#454=DIRECTION('center_axis',(-1.,0.,0.));
#455=DIRECTION('ref_axis',(0.,0.,1.));
#456=DIRECTION('',(0.,1.,0.));
#457=DIRECTION('',(0.,0.,1.));
#458=DIRECTION('',(0.,-1.,0.));
#459=DIRECTION('',(0.,0.,-1.));
#460=DIRECTION('center_axis',(4.10232039761827E-16,1.,0.));
#461=DIRECTION('ref_axis',(1.,-4.10232039761827E-16,0.));
#462=DIRECTION('',(1.,-4.10232039761827E-16,0.));
#463=DIRECTION('',(0.,0.,-1.));
#464=DIRECTION('',(-1.,4.10232039761827E-16,0.));
#465=DIRECTION('center_axis',(0.,0.,-1.));
#466=DIRECTION('ref_axis',(1.,0.,0.));
#467=DIRECTION('',(-1.,-9.23910794012146E-16,0.));
#468=DIRECTION('center_axis',(0.,0.,1.));
#469=DIRECTION('ref_axis',(-0.866025403784428,0.500000000000018,0.));
#470=DIRECTION('',(-0.500000000000001,-0.866025403784438,0.));
#471=DIRECTION('',(-0.866025403784434,0.500000000000007,0.));
#472=DIRECTION('',(0.5,0.866025403784438,0.));
#473=DIRECTION('center_axis',(0.,0.,-1.));
#474=DIRECTION('ref_axis',(-0.500000000000002,0.866025403784437,0.));
#475=DIRECTION('center_axis',(0.500000000000007,0.866025403784434,0.));
#476=DIRECTION('ref_axis',(0.,0.,-1.));
#477=DIRECTION('',(0.866025403784434,-0.500000000000007,0.));
#478=DIRECTION('',(0.,0.,1.));
#479=DIRECTION('',(0.,0.,-1.));
#480=DIRECTION('center_axis',(-0.866025403784438,0.5,0.));
#481=DIRECTION('ref_axis',(0.5,0.866025403784438,0.));
#482=DIRECTION('',(-0.5,-0.866025403784438,0.));
#483=DIRECTION('',(0.,0.,-1.));
#484=DIRECTION('center_axis',(9.23910794012146E-16,-1.,0.));
#485=DIRECTION('ref_axis',(-1.,-9.23910794012146E-16,0.));
#486=DIRECTION('',(1.,9.23910794012146E-16,0.));
#487=DIRECTION('',(0.,0.,-1.));
#488=DIRECTION('center_axis',(0.,0.,-1.));
#489=DIRECTION('ref_axis',(-0.500000000000002,0.866025403784437,0.));
#490=DIRECTION('center_axis',(0.,0.,1.));
#491=DIRECTION('ref_axis',(-0.500000000000002,0.866025403784437,0.));
#492=DIRECTION('center_axis',(0.866025403784438,-0.500000000000001,0.));
#493=DIRECTION('ref_axis',(-0.500000000000001,-0.866025403784438,0.));
#494=DIRECTION('',(0.,0.,-1.));
#495=DIRECTION('',(0.500000000000001,0.866025403784438,0.));
#496=DIRECTION('center_axis',(0.,0.,-1.));
#497=DIRECTION('ref_axis',(-0.866025403784428,0.500000000000018,0.));
#498=DIRECTION('center_axis',(0.,0.,-1.));
#499=DIRECTION('ref_axis',(-0.866025403784428,0.500000000000018,0.));
#500=DIRECTION('center_axis',(0.,0.,-1.));
#501=DIRECTION('ref_axis',(1.,0.,0.));
#502=CARTESIAN_POINT('',(0.,0.,0.));
#503=CARTESIAN_POINT('Origin',(94.5224133595216,-126.282377607281,-41.882));
#504=CARTESIAN_POINT('',(98.8525403784438,-128.782377607281,-41.882));
#505=CARTESIAN_POINT('',(94.5224133595216,-126.282377607281,-41.882));
#506=CARTESIAN_POINT('',(91.7293439303002,-124.669798220455,-41.882));
#507=CARTESIAN_POINT('',(98.8525403784438,-128.782377607281,-85.882));
#508=CARTESIAN_POINT('',(98.8525403784438,-128.782377607281,-41.882));
#509=CARTESIAN_POINT('',(94.5224133595216,-126.282377607281,-85.882));
#510=CARTESIAN_POINT('',(91.7293439303002,-124.669798220455,-85.882));
#511=CARTESIAN_POINT('',(94.5224133595216,-126.282377607281,-41.882));
#512=CARTESIAN_POINT('Origin',(85.1591647054697,-142.5,-41.882));
#513=CARTESIAN_POINT('',(85.1591647054697,-142.5,-85.882));
#514=CARTESIAN_POINT('',(94.7724133595216,-125.849364905389,-85.882));
#515=CARTESIAN_POINT('',(85.1591647054697,-142.5,-41.882));
#516=CARTESIAN_POINT('',(85.1591647054697,-142.5,-41.882));
#517=CARTESIAN_POINT('',(94.7724133595216,-125.849364905389,-41.882));
#518=CARTESIAN_POINT('Origin',(80.3525403784438,-137.924682452695,-85.882));
#519=CARTESIAN_POINT('',(88.0459160514179,-147.5,-85.882));
#520=CARTESIAN_POINT('',(131.736943506348,-71.8249206131737,-85.882));
#521=CARTESIAN_POINT('',(83.7157890324957,-150.,-85.882));
#522=CARTESIAN_POINT('Origin',(83.7157890324956,-145.,-85.882));
#523=CARTESIAN_POINT('',(62.1025403784438,-150.,-85.882));
#524=CARTESIAN_POINT('',(83.4775403784438,-150.,-85.882));
#525=CARTESIAN_POINT('',(62.1025403784438,-145.,-85.882));
#526=CARTESIAN_POINT('',(62.1025403784438,-143.962341226347,-85.882));
#527=CARTESIAN_POINT('',(80.8290376865475,-145.,-85.882));
#528=CARTESIAN_POINT('',(80.8290376865475,-145.,-85.882));
#529=CARTESIAN_POINT('Origin',(80.8290376865475,-140.,-85.882));
#530=CARTESIAN_POINT('Origin',(62.1025403784438,-150.,-41.882));
#531=CARTESIAN_POINT('',(62.1025403784438,-145.,-41.882));
#532=CARTESIAN_POINT('',(62.1025403784438,-150.,-41.882));
#533=CARTESIAN_POINT('',(62.1025403784438,-143.962341226347,-41.882));
#534=CARTESIAN_POINT('',(62.1025403784438,-145.,-41.882));
#535=CARTESIAN_POINT('',(62.1025403784438,-150.,-41.882));
#536=CARTESIAN_POINT('Origin',(61.6025403784438,-145.,-41.882));
#537=CARTESIAN_POINT('',(80.8290376865475,-145.,-41.882));
#538=CARTESIAN_POINT('',(80.8290376865475,-145.,-41.882));
#539=CARTESIAN_POINT('',(80.8290376865475,-145.,-41.882));
#540=CARTESIAN_POINT('Origin',(99.1025403784438,-128.349364905389,-41.882));
#541=CARTESIAN_POINT('',(88.0459160514179,-147.5,-41.882));
#542=CARTESIAN_POINT('',(131.736943506348,-71.8249206131737,-41.882));
#543=CARTESIAN_POINT('',(88.0459160514179,-147.5,-41.882));
#544=CARTESIAN_POINT('Origin',(80.8290376865475,-140.,-41.882));
#545=CARTESIAN_POINT('Origin',(80.8290376865475,-140.,-41.882));
#546=CARTESIAN_POINT('Origin',(83.7157890324957,-150.,-41.882));
#547=CARTESIAN_POINT('',(83.7157890324957,-150.,-41.882));
#548=CARTESIAN_POINT('',(83.7157890324957,-150.,-41.882));
#549=CARTESIAN_POINT('',(83.4775403784438,-150.,-41.882));
#550=CARTESIAN_POINT('Origin',(83.7157890324956,-145.,-41.882));
#551=CARTESIAN_POINT('Origin',(83.7157890324956,-145.,-41.882));
#552=CARTESIAN_POINT('Origin',(80.3525403784438,-137.924682452695,-41.882));
#553=CARTESIAN_POINT('Origin',(-62.1025403784438,150.,-41.882));
#554=CARTESIAN_POINT('',(-62.1025403784438,145.,-41.882));
#555=CARTESIAN_POINT('',(-62.1025403784438,150.,-41.882));
#556=CARTESIAN_POINT('',(-62.1025403784438,143.962341226347,-41.882));
#557=CARTESIAN_POINT('',(-62.1025403784438,145.,-85.882));
#558=CARTESIAN_POINT('',(-62.1025403784438,145.,-41.882));
#559=CARTESIAN_POINT('',(-62.1025403784438,150.,-85.882));
#560=CARTESIAN_POINT('',(-62.1025403784438,143.962341226347,-85.882));
#561=CARTESIAN_POINT('',(-62.1025403784438,150.,-41.882));
#562=CARTESIAN_POINT('Origin',(-83.7157890324957,150.,-41.882));
#563=CARTESIAN_POINT('',(-83.7157890324957,150.,-85.882));
#564=CARTESIAN_POINT('',(-83.4775403784438,150.,-85.882));
#565=CARTESIAN_POINT('',(-83.7157890324957,150.,-41.882));
#566=CARTESIAN_POINT('',(-83.7157890324957,150.,-41.882));
#567=CARTESIAN_POINT('',(-83.4775403784438,150.,-41.882));
#568=CARTESIAN_POINT('Origin',(-80.3525403784438,137.924682452694,-85.882));
#569=CARTESIAN_POINT('',(-80.8290376865475,145.,-85.882));
#570=CARTESIAN_POINT('',(-61.6025403784438,145.,-85.882));
#571=CARTESIAN_POINT('',(-85.1591647054697,142.5,-85.882));
#572=CARTESIAN_POINT('Origin',(-80.8290376865475,140.,-85.882));
#573=CARTESIAN_POINT('',(-94.5224133595216,126.282377607281,-85.882));
#574=CARTESIAN_POINT('',(-85.1591647054697,142.5,-85.882));
#575=CARTESIAN_POINT('',(-98.8525403784438,128.782377607281,-85.882));
#576=CARTESIAN_POINT('',(-91.7293439303002,124.669798220455,-85.882));
#577=CARTESIAN_POINT('',(-88.0459160514179,147.5,-85.882));
#578=CARTESIAN_POINT('',(-131.736943506348,71.8249206131737,-85.882));
#579=CARTESIAN_POINT('Origin',(-83.7157890324957,145.,-85.882));
#580=CARTESIAN_POINT('Origin',(-94.5224133595216,126.282377607281,-41.882));
#581=CARTESIAN_POINT('',(-98.8525403784438,128.782377607281,-41.882));
#582=CARTESIAN_POINT('',(-94.5224133595216,126.282377607281,-41.882));
#583=CARTESIAN_POINT('',(-91.7293439303002,124.669798220455,-41.882));
#584=CARTESIAN_POINT('',(-98.8525403784438,128.782377607281,-41.882));
#585=CARTESIAN_POINT('',(-94.5224133595216,126.282377607281,-41.882));
#586=CARTESIAN_POINT('Origin',(-99.1025403784438,128.349364905389,-41.882));
#587=CARTESIAN_POINT('',(-88.0459160514179,147.5,-41.882));
#588=CARTESIAN_POINT('',(-131.736943506348,71.8249206131737,-41.882));
#589=CARTESIAN_POINT('',(-88.0459160514179,147.5,-41.882));
#590=CARTESIAN_POINT('Origin',(-61.6025403784438,145.,-41.882));
#591=CARTESIAN_POINT('',(-80.8290376865475,145.,-41.882));
#592=CARTESIAN_POINT('',(-61.6025403784438,145.,-41.882));
#593=CARTESIAN_POINT('',(-80.8290376865475,145.,-41.882));
#594=CARTESIAN_POINT('Origin',(-83.7157890324957,145.,-41.882));
#595=CARTESIAN_POINT('Origin',(-83.7157890324957,145.,-41.882));
#596=CARTESIAN_POINT('Origin',(-85.1591647054697,142.5,-41.882));
#597=CARTESIAN_POINT('',(-85.1591647054697,142.5,-41.882));
#598=CARTESIAN_POINT('',(-85.1591647054697,142.5,-41.882));
#599=CARTESIAN_POINT('',(-85.1591647054697,142.5,-41.882));
#600=CARTESIAN_POINT('Origin',(-80.8290376865475,140.,-41.882));
#601=CARTESIAN_POINT('Origin',(-80.8290376865475,140.,-41.882));
#602=CARTESIAN_POINT('Origin',(-80.3525403784438,137.924682452694,-41.882));
#603=UNCERTAINTY_MEASURE_WITH_UNIT(LENGTH_MEASURE(0.01),#607,
'DISTANCE_ACCURACY_VALUE',
'Maximum model space distance between geometric entities at asserted c
onnectivities');
#604=UNCERTAINTY_MEASURE_WITH_UNIT(LENGTH_MEASURE(0.01),#607,
'DISTANCE_ACCURACY_VALUE',
'Maximum model space distance between geometric entities at asserted c
onnectivities');
#605=(
GEOMETRIC_REPRESENTATION_CONTEXT(3)
GLOBAL_UNCERTAINTY_ASSIGNED_CONTEXT((#603))
GLOBAL_UNIT_ASSIGNED_CONTEXT((#607,#609,#610))
REPRESENTATION_CONTEXT('','3D')
);
#606=(
GEOMETRIC_REPRESENTATION_CONTEXT(3)
GLOBAL_UNCERTAINTY_ASSIGNED_CONTEXT((#604))
GLOBAL_UNIT_ASSIGNED_CONTEXT((#607,#609,#610))
REPRESENTATION_CONTEXT('','3D')
);
#607=(
LENGTH_UNIT()
NAMED_UNIT(*)
SI_UNIT(.MILLI.,.METRE.)
);
#608=(
LENGTH_UNIT()
NAMED_UNIT(*)
SI_UNIT($,.METRE.)
);
#609=(
NAMED_UNIT(*)
PLANE_ANGLE_UNIT()
SI_UNIT($,.RADIAN.)
);
#610=(
NAMED_UNIT(*)
SI_UNIT($,.STERADIAN.)
SOLID_ANGLE_UNIT()
);
#611=SHAPE_DEFINITION_REPRESENTATION(#612,#613);
#612=PRODUCT_DEFINITION_SHAPE('',$,#615);
#613=SHAPE_REPRESENTATION('',(#375),#605);
#614=PRODUCT_DEFINITION_CONTEXT('part definition',#619,'design');
#615=PRODUCT_DEFINITION('2026-06-20-12-34-05-573','FusionComponent',#616,
#614);
#616=PRODUCT_DEFINITION_FORMATION('',$,#621);
#617=PRODUCT_RELATED_PRODUCT_CATEGORY('FusionComponent',
'FusionComponent',(#621));
#618=APPLICATION_PROTOCOL_DEFINITION('international standard',
'automotive_design',2009,#619);
#619=APPLICATION_CONTEXT(
'Core Data for Automotive Mechanical Design Process');
#620=PRODUCT_CONTEXT('part definition',#619,'mechanical');
#621=PRODUCT('2026-06-20-12-34-05-573','FusionComponent',$,(#620));
#622=PRESENTATION_STYLE_ASSIGNMENT((#623));
#623=SURFACE_STYLE_USAGE(.BOTH.,#624);
#624=SURFACE_SIDE_STYLE('',(#625));
#625=SURFACE_STYLE_FILL_AREA(#626);
#626=FILL_AREA_STYLE('Steel - Satin',(#627));
#627=FILL_AREA_STYLE_COLOUR('Steel - Satin',#628);
#628=COLOUR_RGB('Steel - Satin',0.627450980392157,0.627450980392157,0.627450980392157);
ENDSEC;
END-ISO-10303-21;
