ISO-10303-21;
HEADER;
/* Generated by software containing ST-Developer
 * from STEP Tools, Inc. (www.steptools.com) 
 */

FILE_DESCRIPTION(
/* description */ (''),
/* implementation_level */ '2;1');

FILE_NAME(
/* name */ 'Claw Pin Stopper x6.step',
/* time_stamp */ '2026-06-20T16:46:15-05:00',
/* author */ (''),
/* organization */ (''),
/* preprocessor_version */ 'ST-DEVELOPER v20.1',
/* originating_system */ 'Autodesk Translation Framework v15.8.0.0',
/* authorisation */ '');

FILE_SCHEMA (('AUTOMOTIVE_DESIGN { 1 0 10303 214 3 1 1 }'));
ENDSEC;

DATA;
#10=MECHANICAL_DESIGN_GEOMETRIC_PRESENTATION_REPRESENTATION('',(#13),#524);
#11=SHAPE_REPRESENTATION_RELATIONSHIP('SRR','None',#531,#12);
#12=ADVANCED_BREP_SHAPE_REPRESENTATION('',(#14),#523);
#13=STYLED_ITEM('',(#540),#14);
#14=MANIFOLD_SOLID_BREP('Body1',#304);
#15=FACE_BOUND('',#70,.T.);
#16=CYLINDRICAL_SURFACE('',#330,1.);
#17=CYLINDRICAL_SURFACE('',#333,1.);
#18=CYLINDRICAL_SURFACE('',#337,1.);
#19=CYLINDRICAL_SURFACE('',#343,1.);
#20=CYLINDRICAL_SURFACE('',#344,2.5);
#21=CIRCLE('',#323,1.);
#22=CIRCLE('',#325,1.);
#23=CIRCLE('',#327,1.);
#24=CIRCLE('',#329,1.);
#25=CIRCLE('',#331,1.);
#26=CIRCLE('',#334,1.);
#27=CIRCLE('',#338,1.);
#28=CIRCLE('',#340,1.);
#29=CIRCLE('',#341,2.5);
#30=CIRCLE('',#345,2.5);
#31=CONICAL_SURFACE('',#322,1.,0.78539816339745);
#32=CONICAL_SURFACE('',#324,1.,0.78539816339745);
#33=CONICAL_SURFACE('',#326,1.,0.78539816339745);
#34=CONICAL_SURFACE('',#328,1.,0.78539816339745);
#35=FACE_OUTER_BOUND('',#55,.T.);
#36=FACE_OUTER_BOUND('',#56,.T.);
#37=FACE_OUTER_BOUND('',#57,.T.);
#38=FACE_OUTER_BOUND('',#58,.T.);
#39=FACE_OUTER_BOUND('',#59,.T.);
#40=FACE_OUTER_BOUND('',#60,.T.);
#41=FACE_OUTER_BOUND('',#61,.T.);
#42=FACE_OUTER_BOUND('',#62,.T.);
#43=FACE_OUTER_BOUND('',#63,.T.);
#44=FACE_OUTER_BOUND('',#64,.T.);
#45=FACE_OUTER_BOUND('',#65,.T.);
#46=FACE_OUTER_BOUND('',#66,.T.);
#47=FACE_OUTER_BOUND('',#67,.T.);
#48=FACE_OUTER_BOUND('',#68,.T.);
#49=FACE_OUTER_BOUND('',#69,.T.);
#50=FACE_OUTER_BOUND('',#71,.T.);
#51=FACE_OUTER_BOUND('',#72,.T.);
#52=FACE_OUTER_BOUND('',#73,.T.);
#53=FACE_OUTER_BOUND('',#74,.T.);
#54=FACE_OUTER_BOUND('',#75,.T.);
#55=EDGE_LOOP('',(#195,#196,#197,#198));
#56=EDGE_LOOP('',(#199,#200,#201,#202));
#57=EDGE_LOOP('',(#203,#204,#205,#206));
#58=EDGE_LOOP('',(#207,#208,#209,#210));
#59=EDGE_LOOP('',(#211,#212,#213));
#60=EDGE_LOOP('',(#214,#215,#216));
#61=EDGE_LOOP('',(#217,#218,#219));
#62=EDGE_LOOP('',(#220,#221,#222));
#63=EDGE_LOOP('',(#223,#224,#225,#226));
#64=EDGE_LOOP('',(#227,#228,#229,#230));
#65=EDGE_LOOP('',(#231,#232,#233,#234));
#66=EDGE_LOOP('',(#235,#236,#237,#238));
#67=EDGE_LOOP('',(#239,#240,#241,#242));
#68=EDGE_LOOP('',(#243,#244,#245,#246));
#69=EDGE_LOOP('',(#247,#248,#249,#250,#251,#252,#253,#254));
#70=EDGE_LOOP('',(#255));
#71=EDGE_LOOP('',(#256,#257,#258,#259));
#72=EDGE_LOOP('',(#260,#261,#262,#263));
#73=EDGE_LOOP('',(#264,#265,#266,#267));
#74=EDGE_LOOP('',(#268));
#75=EDGE_LOOP('',(#269,#270,#271,#272));
#76=LINE('',#443,#105);
#77=LINE('',#445,#106);
#78=LINE('',#447,#107);
#79=LINE('',#448,#108);
#80=LINE('',#451,#109);
#81=LINE('',#453,#110);
#82=LINE('',#455,#111);
#83=LINE('',#456,#112);
#84=LINE('',#459,#113);
#85=LINE('',#461,#114);
#86=LINE('',#463,#115);
#87=LINE('',#464,#116);
#88=LINE('',#467,#117);
#89=LINE('',#468,#118);
#90=LINE('',#470,#119);
#91=LINE('',#471,#120);
#92=LINE('',#482,#121);
#93=LINE('',#485,#122);
#94=LINE('',#488,#123);
#95=LINE('',#489,#124);
#96=LINE('',#492,#125);
#97=LINE('',#496,#126);
#98=LINE('',#497,#127);
#99=LINE('',#501,#128);
#100=LINE('',#505,#129);
#101=LINE('',#508,#130);
#102=LINE('',#512,#131);
#103=LINE('',#514,#132);
#104=LINE('',#517,#133);
#105=VECTOR('',#352,10.);
#106=VECTOR('',#353,10.);
#107=VECTOR('',#354,10.);
#108=VECTOR('',#355,10.);
#109=VECTOR('',#358,10.);
#110=VECTOR('',#359,10.);
#111=VECTOR('',#360,10.);
#112=VECTOR('',#361,10.);
#113=VECTOR('',#364,10.);
#114=VECTOR('',#365,10.);
#115=VECTOR('',#366,10.);
#116=VECTOR('',#367,10.);
#117=VECTOR('',#370,10.);
#118=VECTOR('',#371,10.);
#119=VECTOR('',#372,10.);
#120=VECTOR('',#373,10.);
#121=VECTOR('',#392,10.);
#122=VECTOR('',#395,10.);
#123=VECTOR('',#398,10.);
#124=VECTOR('',#399,10.);
#125=VECTOR('',#402,10.);
#126=VECTOR('',#407,10.);
#127=VECTOR('',#408,10.);
#128=VECTOR('',#413,10.);
#129=VECTOR('',#418,10.);
#130=VECTOR('',#421,10.);
#131=VECTOR('',#426,10.);
#132=VECTOR('',#429,10.);
#133=VECTOR('',#432,2.5);
#134=VERTEX_POINT('',#441);
#135=VERTEX_POINT('',#442);
#136=VERTEX_POINT('',#444);
#137=VERTEX_POINT('',#446);
#138=VERTEX_POINT('',#450);
#139=VERTEX_POINT('',#452);
#140=VERTEX_POINT('',#454);
#141=VERTEX_POINT('',#458);
#142=VERTEX_POINT('',#460);
#143=VERTEX_POINT('',#462);
#144=VERTEX_POINT('',#466);
#145=VERTEX_POINT('',#469);
#146=VERTEX_POINT('',#481);
#147=VERTEX_POINT('',#483);
#148=VERTEX_POINT('',#487);
#149=VERTEX_POINT('',#491);
#150=VERTEX_POINT('',#495);
#151=VERTEX_POINT('',#500);
#152=VERTEX_POINT('',#504);
#153=VERTEX_POINT('',#506);
#154=VERTEX_POINT('',#509);
#155=VERTEX_POINT('',#516);
#156=EDGE_CURVE('',#134,#135,#76,.T.);
#157=EDGE_CURVE('',#135,#136,#77,.T.);
#158=EDGE_CURVE('',#136,#137,#78,.T.);
#159=EDGE_CURVE('',#137,#134,#79,.T.);
#160=EDGE_CURVE('',#138,#136,#80,.T.);
#161=EDGE_CURVE('',#136,#139,#81,.T.);
#162=EDGE_CURVE('',#139,#140,#82,.T.);
#163=EDGE_CURVE('',#140,#138,#83,.T.);
#164=EDGE_CURVE('',#141,#139,#84,.T.);
#165=EDGE_CURVE('',#139,#142,#85,.T.);
#166=EDGE_CURVE('',#142,#143,#86,.T.);
#167=EDGE_CURVE('',#143,#141,#87,.T.);
#168=EDGE_CURVE('',#144,#142,#88,.T.);
#169=EDGE_CURVE('',#142,#135,#89,.T.);
#170=EDGE_CURVE('',#135,#145,#90,.T.);
#171=EDGE_CURVE('',#145,#144,#91,.T.);
#172=EDGE_CURVE('',#144,#143,#21,.T.);
#173=EDGE_CURVE('',#141,#140,#22,.T.);
#174=EDGE_CURVE('',#138,#137,#23,.T.);
#175=EDGE_CURVE('',#134,#145,#24,.T.);
#176=EDGE_CURVE('',#141,#146,#92,.T.);
#177=EDGE_CURVE('',#146,#147,#25,.T.);
#178=EDGE_CURVE('',#147,#140,#93,.T.);
#179=EDGE_CURVE('',#148,#143,#94,.T.);
#180=EDGE_CURVE('',#148,#146,#95,.T.);
#181=EDGE_CURVE('',#144,#149,#96,.T.);
#182=EDGE_CURVE('',#149,#148,#26,.T.);
#183=EDGE_CURVE('',#150,#145,#97,.T.);
#184=EDGE_CURVE('',#150,#149,#98,.T.);
#185=EDGE_CURVE('',#134,#151,#99,.T.);
#186=EDGE_CURVE('',#151,#150,#27,.T.);
#187=EDGE_CURVE('',#152,#151,#100,.T.);
#188=EDGE_CURVE('',#153,#152,#28,.T.);
#189=EDGE_CURVE('',#147,#153,#101,.T.);
#190=EDGE_CURVE('',#154,#154,#29,.T.);
#191=EDGE_CURVE('',#152,#137,#102,.T.);
#192=EDGE_CURVE('',#138,#153,#103,.T.);
#193=EDGE_CURVE('',#154,#155,#104,.T.);
#194=EDGE_CURVE('',#155,#155,#30,.T.);
#195=ORIENTED_EDGE('',*,*,#156,.T.);
#196=ORIENTED_EDGE('',*,*,#157,.T.);
#197=ORIENTED_EDGE('',*,*,#158,.T.);
#198=ORIENTED_EDGE('',*,*,#159,.T.);
#199=ORIENTED_EDGE('',*,*,#160,.T.);
#200=ORIENTED_EDGE('',*,*,#161,.T.);
#201=ORIENTED_EDGE('',*,*,#162,.T.);
#202=ORIENTED_EDGE('',*,*,#163,.T.);
#203=ORIENTED_EDGE('',*,*,#164,.T.);
#204=ORIENTED_EDGE('',*,*,#165,.T.);
#205=ORIENTED_EDGE('',*,*,#166,.T.);
#206=ORIENTED_EDGE('',*,*,#167,.T.);
#207=ORIENTED_EDGE('',*,*,#168,.T.);
#208=ORIENTED_EDGE('',*,*,#169,.T.);
#209=ORIENTED_EDGE('',*,*,#170,.T.);
#210=ORIENTED_EDGE('',*,*,#171,.T.);
#211=ORIENTED_EDGE('',*,*,#168,.F.);
#212=ORIENTED_EDGE('',*,*,#172,.T.);
#213=ORIENTED_EDGE('',*,*,#166,.F.);
#214=ORIENTED_EDGE('',*,*,#164,.F.);
#215=ORIENTED_EDGE('',*,*,#173,.T.);
#216=ORIENTED_EDGE('',*,*,#162,.F.);
#217=ORIENTED_EDGE('',*,*,#160,.F.);
#218=ORIENTED_EDGE('',*,*,#174,.T.);
#219=ORIENTED_EDGE('',*,*,#158,.F.);
#220=ORIENTED_EDGE('',*,*,#156,.F.);
#221=ORIENTED_EDGE('',*,*,#175,.T.);
#222=ORIENTED_EDGE('',*,*,#170,.F.);
#223=ORIENTED_EDGE('',*,*,#173,.F.);
#224=ORIENTED_EDGE('',*,*,#176,.T.);
#225=ORIENTED_EDGE('',*,*,#177,.T.);
#226=ORIENTED_EDGE('',*,*,#178,.T.);
#227=ORIENTED_EDGE('',*,*,#167,.F.);
#228=ORIENTED_EDGE('',*,*,#179,.F.);
#229=ORIENTED_EDGE('',*,*,#180,.T.);
#230=ORIENTED_EDGE('',*,*,#176,.F.);
#231=ORIENTED_EDGE('',*,*,#172,.F.);
#232=ORIENTED_EDGE('',*,*,#181,.T.);
#233=ORIENTED_EDGE('',*,*,#182,.T.);
#234=ORIENTED_EDGE('',*,*,#179,.T.);
#235=ORIENTED_EDGE('',*,*,#171,.F.);
#236=ORIENTED_EDGE('',*,*,#183,.F.);
#237=ORIENTED_EDGE('',*,*,#184,.T.);
#238=ORIENTED_EDGE('',*,*,#181,.F.);
#239=ORIENTED_EDGE('',*,*,#157,.F.);
#240=ORIENTED_EDGE('',*,*,#169,.F.);
#241=ORIENTED_EDGE('',*,*,#165,.F.);
#242=ORIENTED_EDGE('',*,*,#161,.F.);
#243=ORIENTED_EDGE('',*,*,#175,.F.);
#244=ORIENTED_EDGE('',*,*,#185,.T.);
#245=ORIENTED_EDGE('',*,*,#186,.T.);
#246=ORIENTED_EDGE('',*,*,#183,.T.);
#247=ORIENTED_EDGE('',*,*,#186,.F.);
#248=ORIENTED_EDGE('',*,*,#187,.F.);
#249=ORIENTED_EDGE('',*,*,#188,.F.);
#250=ORIENTED_EDGE('',*,*,#189,.F.);
#251=ORIENTED_EDGE('',*,*,#177,.F.);
#252=ORIENTED_EDGE('',*,*,#180,.F.);
#253=ORIENTED_EDGE('',*,*,#182,.F.);
#254=ORIENTED_EDGE('',*,*,#184,.F.);
#255=ORIENTED_EDGE('',*,*,#190,.T.);
#256=ORIENTED_EDGE('',*,*,#159,.F.);
#257=ORIENTED_EDGE('',*,*,#191,.F.);
#258=ORIENTED_EDGE('',*,*,#187,.T.);
#259=ORIENTED_EDGE('',*,*,#185,.F.);
#260=ORIENTED_EDGE('',*,*,#174,.F.);
#261=ORIENTED_EDGE('',*,*,#192,.T.);
#262=ORIENTED_EDGE('',*,*,#188,.T.);
#263=ORIENTED_EDGE('',*,*,#191,.T.);
#264=ORIENTED_EDGE('',*,*,#190,.F.);
#265=ORIENTED_EDGE('',*,*,#193,.T.);
#266=ORIENTED_EDGE('',*,*,#194,.T.);
#267=ORIENTED_EDGE('',*,*,#193,.F.);
#268=ORIENTED_EDGE('',*,*,#194,.F.);
#269=ORIENTED_EDGE('',*,*,#163,.F.);
#270=ORIENTED_EDGE('',*,*,#178,.F.);
#271=ORIENTED_EDGE('',*,*,#189,.T.);
#272=ORIENTED_EDGE('',*,*,#192,.F.);
#273=PLANE('',#318);
#274=PLANE('',#319);
#275=PLANE('',#320);
#276=PLANE('',#321);
#277=PLANE('',#332);
#278=PLANE('',#335);
#279=PLANE('',#336);
#280=PLANE('',#339);
#281=PLANE('',#342);
#282=PLANE('',#346);
#283=PLANE('',#347);
#284=ADVANCED_FACE('',(#35),#273,.T.);
#285=ADVANCED_FACE('',(#36),#274,.T.);
#286=ADVANCED_FACE('',(#37),#275,.T.);
#287=ADVANCED_FACE('',(#38),#276,.T.);
#288=ADVANCED_FACE('',(#39),#31,.T.);
#289=ADVANCED_FACE('',(#40),#32,.T.);
#290=ADVANCED_FACE('',(#41),#33,.T.);
#291=ADVANCED_FACE('',(#42),#34,.T.);
#292=ADVANCED_FACE('',(#43),#16,.T.);
#293=ADVANCED_FACE('',(#44),#277,.T.);
#294=ADVANCED_FACE('',(#45),#17,.T.);
#295=ADVANCED_FACE('',(#46),#278,.T.);
#296=ADVANCED_FACE('',(#47),#279,.T.);
#297=ADVANCED_FACE('',(#48),#18,.T.);
#298=ADVANCED_FACE('',(#49,#15),#280,.F.);
#299=ADVANCED_FACE('',(#50),#281,.T.);
#300=ADVANCED_FACE('',(#51),#19,.T.);
#301=ADVANCED_FACE('',(#52),#20,.T.);
#302=ADVANCED_FACE('',(#53),#282,.F.);
#303=ADVANCED_FACE('',(#54),#283,.T.);
#304=CLOSED_SHELL('',(#284,#285,#286,#287,#288,#289,#290,#291,#292,#293,
#294,#295,#296,#297,#298,#299,#300,#301,#302,#303));
#305=DERIVED_UNIT_ELEMENT(#307,1.);
#306=DERIVED_UNIT_ELEMENT(#526,-3.);
#307=(
MASS_UNIT()
NAMED_UNIT(*)
SI_UNIT(.KILO.,.GRAM.)
);
#308=DERIVED_UNIT((#305,#306));
#309=MEASURE_REPRESENTATION_ITEM('density measure',
POSITIVE_RATIO_MEASURE(7850.),#308);
#310=PROPERTY_DEFINITION_REPRESENTATION(#315,#312);
#311=PROPERTY_DEFINITION_REPRESENTATION(#316,#313);
#312=REPRESENTATION('material name',(#314),#523);
#313=REPRESENTATION('density',(#309),#523);
#314=DESCRIPTIVE_REPRESENTATION_ITEM('Steel','Steel');
#315=PROPERTY_DEFINITION('material property','material name',#533);
#316=PROPERTY_DEFINITION('material property','density of part',#533);
#317=AXIS2_PLACEMENT_3D('',#439,#348,#349);
#318=AXIS2_PLACEMENT_3D('',#440,#350,#351);
#319=AXIS2_PLACEMENT_3D('',#449,#356,#357);
#320=AXIS2_PLACEMENT_3D('',#457,#362,#363);
#321=AXIS2_PLACEMENT_3D('',#465,#368,#369);
#322=AXIS2_PLACEMENT_3D('',#472,#374,#375);
#323=AXIS2_PLACEMENT_3D('',#473,#376,#377);
#324=AXIS2_PLACEMENT_3D('',#474,#378,#379);
#325=AXIS2_PLACEMENT_3D('',#475,#380,#381);
#326=AXIS2_PLACEMENT_3D('',#476,#382,#383);
#327=AXIS2_PLACEMENT_3D('',#477,#384,#385);
#328=AXIS2_PLACEMENT_3D('',#478,#386,#387);
#329=AXIS2_PLACEMENT_3D('',#479,#388,#389);
#330=AXIS2_PLACEMENT_3D('',#480,#390,#391);
#331=AXIS2_PLACEMENT_3D('',#484,#393,#394);
#332=AXIS2_PLACEMENT_3D('',#486,#396,#397);
#333=AXIS2_PLACEMENT_3D('',#490,#400,#401);
#334=AXIS2_PLACEMENT_3D('',#493,#403,#404);
#335=AXIS2_PLACEMENT_3D('',#494,#405,#406);
#336=AXIS2_PLACEMENT_3D('',#498,#409,#410);
#337=AXIS2_PLACEMENT_3D('',#499,#411,#412);
#338=AXIS2_PLACEMENT_3D('',#502,#414,#415);
#339=AXIS2_PLACEMENT_3D('',#503,#416,#417);
#340=AXIS2_PLACEMENT_3D('',#507,#419,#420);
#341=AXIS2_PLACEMENT_3D('',#510,#422,#423);
#342=AXIS2_PLACEMENT_3D('',#511,#424,#425);
#343=AXIS2_PLACEMENT_3D('',#513,#427,#428);
#344=AXIS2_PLACEMENT_3D('',#515,#430,#431);
#345=AXIS2_PLACEMENT_3D('',#518,#433,#434);
#346=AXIS2_PLACEMENT_3D('',#519,#435,#436);
#347=AXIS2_PLACEMENT_3D('',#520,#437,#438);
#348=DIRECTION('axis',(0.,0.,1.));
#349=DIRECTION('refdir',(1.,0.,0.));
#350=DIRECTION('center_axis',(0.707106781186549,0.707106781186546,4.67864033833234E-34));
#351=DIRECTION('ref_axis',(6.61659661993542E-34,0.,-1.));
#352=DIRECTION('',(0.707106781186546,-0.707106781186549,0.));
#353=DIRECTION('',(6.6165966199327E-34,2.72154355403981E-46,-1.));
#354=DIRECTION('',(-0.707106781186546,0.707106781186549,1.96261557335472E-16));
#355=DIRECTION('',(-6.6165966199327E-34,-2.72154355403981E-46,1.));
#356=DIRECTION('center_axis',(0.707106781186549,-3.48630559684209E-32,-0.707106781186546));
#357=DIRECTION('ref_axis',(-0.707106781186546,0.,-0.707106781186549));
#358=DIRECTION('',(0.707106781186546,0.,0.707106781186549));
#359=DIRECTION('',(-4.93038065763132E-32,-1.,-2.72154355403981E-46));
#360=DIRECTION('',(-0.707106781186546,0.,-0.707106781186549));
#361=DIRECTION('',(4.93038065763132E-32,1.,2.72154355403981E-46));
#362=DIRECTION('center_axis',(0.707106781186548,-0.707106781186548,4.67864033832848E-34));
#363=DIRECTION('ref_axis',(6.61659661992998E-34,0.,-1.));
#364=DIRECTION('',(0.707106781186548,0.707106781186548,7.8504622934189E-16));
#365=DIRECTION('',(-6.6165966199327E-34,-2.72154355403981E-46,1.));
#366=DIRECTION('',(-0.707106781186548,-0.707106781186548,0.));
#367=DIRECTION('',(6.6165966199327E-34,2.72154355403981E-46,-1.));
#368=DIRECTION('center_axis',(0.707106781186549,-3.48630559684213E-32,0.707106781186546));
#369=DIRECTION('ref_axis',(0.707106781186546,0.,-0.707106781186549));
#370=DIRECTION('',(0.707106781186546,0.,-0.707106781186549));
#371=DIRECTION('',(4.93038065763132E-32,1.,2.72154355403981E-46));
#372=DIRECTION('',(-0.707106781186546,0.,0.707106781186549));
#373=DIRECTION('',(-4.93038065763132E-32,-1.,-2.72154355403981E-46));
#374=DIRECTION('center_axis',(-1.,0.,0.));
#375=DIRECTION('ref_axis',(0.,-0.707106781186546,0.707106781186549));
#376=DIRECTION('center_axis',(1.,0.,0.));
#377=DIRECTION('ref_axis',(0.,-0.707106781186546,0.707106781186549));
#378=DIRECTION('center_axis',(-1.,0.,0.));
#379=DIRECTION('ref_axis',(0.,-0.707106781186546,-0.707106781186549));
#380=DIRECTION('center_axis',(1.,0.,0.));
#381=DIRECTION('ref_axis',(0.,-0.707106781186546,-0.707106781186549));
#382=DIRECTION('center_axis',(-1.,0.,0.));
#383=DIRECTION('ref_axis',(0.,0.707106781186546,-0.707106781186549));
#384=DIRECTION('center_axis',(1.,0.,0.));
#385=DIRECTION('ref_axis',(0.,0.707106781186546,-0.707106781186549));
#386=DIRECTION('center_axis',(-1.,0.,0.));
#387=DIRECTION('ref_axis',(0.,0.707106781186546,0.707106781186549));
#388=DIRECTION('center_axis',(1.,0.,0.));
#389=DIRECTION('ref_axis',(0.,0.707106781186546,0.707106781186549));
#390=DIRECTION('center_axis',(1.,0.,0.));
#391=DIRECTION('ref_axis',(0.,-0.707106781186546,-0.707106781186549));
#392=DIRECTION('',(-1.,0.,0.));
#393=DIRECTION('center_axis',(1.,-4.93038065763132E-32,6.6165966199327E-34));
#394=DIRECTION('ref_axis',(0.,-0.707106781186546,-0.707106781186549));
#395=DIRECTION('',(1.,0.,0.));
#396=DIRECTION('center_axis',(0.,-1.,-2.72154355403981E-46));
#397=DIRECTION('ref_axis',(6.6165966199327E-34,2.72154355403981E-46,-1.));
#398=DIRECTION('',(1.,0.,0.));
#399=DIRECTION('',(6.6165966199327E-34,2.72154355403981E-46,-1.));
#400=DIRECTION('center_axis',(1.,0.,0.));
#401=DIRECTION('ref_axis',(0.,-0.707106781186546,0.707106781186549));
#402=DIRECTION('',(-1.,0.,0.));
#403=DIRECTION('center_axis',(1.,-4.93038065763132E-32,6.6165966199327E-34));
#404=DIRECTION('ref_axis',(0.,-0.707106781186546,0.707106781186549));
#405=DIRECTION('center_axis',(0.,-2.72154355403981E-46,1.));
#406=DIRECTION('ref_axis',(-4.93038065763132E-32,-1.,-2.72154355403981E-46));
#407=DIRECTION('',(1.,0.,0.));
#408=DIRECTION('',(-4.93038065763132E-32,-1.,-2.72154355403981E-46));
#409=DIRECTION('center_axis',(1.,-4.93038065763132E-32,6.6165966199327E-34));
#410=DIRECTION('ref_axis',(-4.93038065763132E-32,-1.,-2.72154355403981E-46));
#411=DIRECTION('center_axis',(1.,0.,0.));
#412=DIRECTION('ref_axis',(0.,0.707106781186546,0.707106781186549));
#413=DIRECTION('',(-1.,0.,0.));
#414=DIRECTION('center_axis',(1.,-4.93038065763132E-32,6.6165966199327E-34));
#415=DIRECTION('ref_axis',(0.,0.707106781186546,0.707106781186549));
#416=DIRECTION('center_axis',(1.,-4.93038065763132E-32,6.6165966199327E-34));
#417=DIRECTION('ref_axis',(-4.93038065763132E-32,-1.,-2.72154355403981E-46));
#418=DIRECTION('',(-6.6165966199327E-34,-2.72154355403981E-46,1.));
#419=DIRECTION('center_axis',(1.,-4.93038065763132E-32,6.6165966199327E-34));
#420=DIRECTION('ref_axis',(0.,0.707106781186546,-0.707106781186549));
#421=DIRECTION('',(4.93038065763132E-32,1.,2.72154355403981E-46));
#422=DIRECTION('center_axis',(1.,-4.93038065763132E-32,6.6165966199327E-34));
#423=DIRECTION('ref_axis',(0.,1.,0.));
#424=DIRECTION('center_axis',(0.,1.,2.72154355403981E-46));
#425=DIRECTION('ref_axis',(-6.6165966199327E-34,-2.72154355403981E-46,1.));
#426=DIRECTION('',(1.,0.,0.));
#427=DIRECTION('center_axis',(1.,0.,0.));
#428=DIRECTION('ref_axis',(0.,0.707106781186546,-0.707106781186549));
#429=DIRECTION('',(-1.,0.,0.));
#430=DIRECTION('center_axis',(1.,0.,0.));
#431=DIRECTION('ref_axis',(0.,1.,0.));
#432=DIRECTION('',(-1.,0.,0.));
#433=DIRECTION('center_axis',(1.,7.57110809624003E-33,6.70046396349497E-48));
#434=DIRECTION('ref_axis',(0.,1.,0.));
#435=DIRECTION('center_axis',(1.,7.57110809624003E-33,6.70046396349497E-48));
#436=DIRECTION('ref_axis',(-7.57110809624003E-33,1.,0.));
#437=DIRECTION('center_axis',(0.,2.72154355403981E-46,-1.));
#438=DIRECTION('ref_axis',(4.93038065763132E-32,1.,2.72154355403981E-46));
#439=CARTESIAN_POINT('',(0.,0.,0.));
#440=CARTESIAN_POINT('Origin',(53.1618551013977,-26.705,7.5));
#441=CARTESIAN_POINT('',(52.6618551013977,-26.205,14.));
#442=CARTESIAN_POINT('',(53.6618551013977,-27.205,14.));
#443=CARTESIAN_POINT('',(52.6618551013977,-26.205,14.));
#444=CARTESIAN_POINT('',(53.6618551013977,-27.205,1.));
#445=CARTESIAN_POINT('',(53.6618551013977,-27.205,7.5));
#446=CARTESIAN_POINT('',(52.6618551013977,-26.205,1.));
#447=CARTESIAN_POINT('',(53.6618551013977,-27.205,1.));
#448=CARTESIAN_POINT('',(52.6618551013977,-26.205,7.5));
#449=CARTESIAN_POINT('Origin',(53.1618551013977,-33.705,0.5));
#450=CARTESIAN_POINT('',(52.6618551013977,-27.205,0.));
#451=CARTESIAN_POINT('',(52.6618551013977,-27.205,0.));
#452=CARTESIAN_POINT('',(53.6618551013977,-40.205,1.));
#453=CARTESIAN_POINT('',(53.6618551013977,-33.705,1.));
#454=CARTESIAN_POINT('',(52.6618551013977,-40.205,0.));
#455=CARTESIAN_POINT('',(53.6618551013977,-40.205,1.));
#456=CARTESIAN_POINT('',(52.6618551013977,-33.705,0.));
#457=CARTESIAN_POINT('Origin',(53.1618551013977,-40.705,15.));
#458=CARTESIAN_POINT('',(52.6618551013977,-41.205,1.));
#459=CARTESIAN_POINT('',(52.6618551013977,-41.205,1.));
#460=CARTESIAN_POINT('',(53.6618551013977,-40.205,14.));
#461=CARTESIAN_POINT('',(53.6618551013977,-40.205,15.));
#462=CARTESIAN_POINT('',(52.6618551013977,-41.205,14.));
#463=CARTESIAN_POINT('',(53.6618551013977,-40.205,14.));
#464=CARTESIAN_POINT('',(52.6618551013977,-41.205,15.));
#465=CARTESIAN_POINT('Origin',(53.1618551013977,-26.205,14.5));
#466=CARTESIAN_POINT('',(52.6618551013977,-40.205,15.));
#467=CARTESIAN_POINT('',(52.6618551013977,-40.205,15.));
#468=CARTESIAN_POINT('',(53.6618551013977,-26.205,14.));
#469=CARTESIAN_POINT('',(52.6618551013977,-27.205,15.));
#470=CARTESIAN_POINT('',(53.6618551013977,-27.205,14.));
#471=CARTESIAN_POINT('',(52.6618551013977,-26.205,15.));
#472=CARTESIAN_POINT('Origin',(52.6618551013977,-40.205,14.));
#473=CARTESIAN_POINT('Origin',(52.6618551013977,-40.205,14.));
#474=CARTESIAN_POINT('Origin',(52.6618551013977,-40.205,1.));
#475=CARTESIAN_POINT('Origin',(52.6618551013977,-40.205,1.));
#476=CARTESIAN_POINT('Origin',(52.6618551013977,-27.205,1.));
#477=CARTESIAN_POINT('Origin',(52.6618551013977,-27.205,1.));
#478=CARTESIAN_POINT('Origin',(52.6618551013977,-27.205,14.));
#479=CARTESIAN_POINT('Origin',(52.6618551013977,-27.205,14.));
#480=CARTESIAN_POINT('Origin',(48.4618551013977,-40.205,1.));
#481=CARTESIAN_POINT('',(48.6618551013977,-41.205,1.));
#482=CARTESIAN_POINT('',(48.4618551013977,-41.205,1.));
#483=CARTESIAN_POINT('',(48.6618551013977,-40.205,-1.76900331012588E-45));
#484=CARTESIAN_POINT('Origin',(48.6618551013977,-40.205,1.));
#485=CARTESIAN_POINT('',(48.4618551013977,-40.205,0.));
#486=CARTESIAN_POINT('Origin',(48.4618551013977,-41.205,15.));
#487=CARTESIAN_POINT('',(48.6618551013977,-41.205,14.));
#488=CARTESIAN_POINT('',(48.4618551013977,-41.205,14.));
#489=CARTESIAN_POINT('',(48.6618551013977,-41.205,15.));
#490=CARTESIAN_POINT('Origin',(48.4618551013977,-40.205,14.));
#491=CARTESIAN_POINT('',(48.6618551013977,-40.205,15.));
#492=CARTESIAN_POINT('',(48.4618551013977,-40.205,15.));
#493=CARTESIAN_POINT('Origin',(48.6618551013977,-40.205,14.));
#494=CARTESIAN_POINT('Origin',(48.4618551013977,-26.205,15.));
#495=CARTESIAN_POINT('',(48.6618551013977,-27.205,15.));
#496=CARTESIAN_POINT('',(48.4618551013977,-27.205,15.));
#497=CARTESIAN_POINT('',(48.6618551013977,-26.205,15.));
#498=CARTESIAN_POINT('Origin',(53.6618551013977,-26.205,15.));
#499=CARTESIAN_POINT('Origin',(48.4618551013977,-27.205,14.));
#500=CARTESIAN_POINT('',(48.6618551013977,-26.205,14.));
#501=CARTESIAN_POINT('',(48.4618551013977,-26.205,14.));
#502=CARTESIAN_POINT('Origin',(48.6618551013977,-27.205,14.));
#503=CARTESIAN_POINT('Origin',(48.6618551013977,-26.205,15.));
#504=CARTESIAN_POINT('',(48.6618551013977,-26.205,1.));
#505=CARTESIAN_POINT('',(48.6618551013977,-26.205,7.5));
#506=CARTESIAN_POINT('',(48.6618551013977,-27.205,1.76900331012587E-45));
#507=CARTESIAN_POINT('Origin',(48.6618551013977,-27.205,1.));
#508=CARTESIAN_POINT('',(48.6618551013977,-33.705,0.));
#509=CARTESIAN_POINT('',(48.6618551013977,-36.1966558884988,10.0019408651439));
#510=CARTESIAN_POINT('Origin',(48.6618551013977,-33.6966558884988,10.0019408651439));
#511=CARTESIAN_POINT('Origin',(48.4618551013977,-26.205,0.));
#512=CARTESIAN_POINT('',(48.4618551013977,-26.205,1.));
#513=CARTESIAN_POINT('Origin',(48.4618551013977,-27.205,1.));
#514=CARTESIAN_POINT('',(48.4618551013977,-27.205,0.));
#515=CARTESIAN_POINT('Origin',(47.3430945016945,-33.6966558884988,10.0019408651439));
#516=CARTESIAN_POINT('',(47.5430945016945,-36.1966558884988,10.0019408651439));
#517=CARTESIAN_POINT('',(47.3430945016945,-36.1966558884988,10.0019408651439));
#518=CARTESIAN_POINT('Origin',(47.5430945016945,-33.6966558884988,10.0019408651439));
#519=CARTESIAN_POINT('Origin',(47.5430945016945,-33.6966558884988,10.0019408651439));
#520=CARTESIAN_POINT('Origin',(48.4618551013977,-41.205,2.54486580460137E-32));
#521=UNCERTAINTY_MEASURE_WITH_UNIT(LENGTH_MEASURE(0.01),#525,
'DISTANCE_ACCURACY_VALUE',
'Maximum model space distance between geometric entities at asserted c
onnectivities');
#522=UNCERTAINTY_MEASURE_WITH_UNIT(LENGTH_MEASURE(0.01),#525,
'DISTANCE_ACCURACY_VALUE',
'Maximum model space distance between geometric entities at asserted c
onnectivities');
#523=(
GEOMETRIC_REPRESENTATION_CONTEXT(3)
GLOBAL_UNCERTAINTY_ASSIGNED_CONTEXT((#521))
GLOBAL_UNIT_ASSIGNED_CONTEXT((#525,#527,#528))
REPRESENTATION_CONTEXT('','3D')
);
#524=(
GEOMETRIC_REPRESENTATION_CONTEXT(3)
GLOBAL_UNCERTAINTY_ASSIGNED_CONTEXT((#522))
GLOBAL_UNIT_ASSIGNED_CONTEXT((#525,#527,#528))
REPRESENTATION_CONTEXT('','3D')
);
#525=(
LENGTH_UNIT()
NAMED_UNIT(*)
SI_UNIT(.MILLI.,.METRE.)
);
#526=(
LENGTH_UNIT()
NAMED_UNIT(*)
SI_UNIT($,.METRE.)
);
#527=(
NAMED_UNIT(*)
PLANE_ANGLE_UNIT()
SI_UNIT($,.RADIAN.)
);
#528=(
NAMED_UNIT(*)
SI_UNIT($,.STERADIAN.)
SOLID_ANGLE_UNIT()
);
#529=SHAPE_DEFINITION_REPRESENTATION(#530,#531);
#530=PRODUCT_DEFINITION_SHAPE('',$,#533);
#531=SHAPE_REPRESENTATION('',(#317),#523);
#532=PRODUCT_DEFINITION_CONTEXT('part definition',#537,'design');
#533=PRODUCT_DEFINITION('2026-06-20-16-46-15-659','FusionComponent',#534,
#532);
#534=PRODUCT_DEFINITION_FORMATION('',$,#539);
#535=PRODUCT_RELATED_PRODUCT_CATEGORY('FusionComponent',
'FusionComponent',(#539));
#536=APPLICATION_PROTOCOL_DEFINITION('international standard',
'automotive_design',2009,#537);
#537=APPLICATION_CONTEXT(
'Core Data for Automotive Mechanical Design Process');
#538=PRODUCT_CONTEXT('part definition',#537,'mechanical');
#539=PRODUCT('2026-06-20-16-46-15-659','FusionComponent',$,(#538));
#540=PRESENTATION_STYLE_ASSIGNMENT((#541));
#541=SURFACE_STYLE_USAGE(.BOTH.,#542);
#542=SURFACE_SIDE_STYLE('',(#543));
#543=SURFACE_STYLE_FILL_AREA(#544);
#544=FILL_AREA_STYLE('Steel - Satin',(#545));
#545=FILL_AREA_STYLE_COLOUR('Steel - Satin',#546);
#546=COLOUR_RGB('Steel - Satin',0.627450980392157,0.627450980392157,0.627450980392157);
ENDSEC;
END-ISO-10303-21;
