ISO-10303-21;
HEADER;
/* Generated by software containing ST-Developer
 * from STEP Tools, Inc. (www.steptools.com) 
 */

FILE_DESCRIPTION(
/* description */ (''),
/* implementation_level */ '2;1');

FILE_NAME(
/* name */ 'Claw Finger C.step',
/* time_stamp */ '2026-06-20T22:12:23-05:00',
/* author */ (''),
/* organization */ (''),
/* preprocessor_version */ 'ST-DEVELOPER v20.1',
/* originating_system */ 'Autodesk Translation Framework v15.8.0.0',
/* authorisation */ '');

FILE_SCHEMA (('AUTOMOTIVE_DESIGN { 1 0 10303 214 3 1 1 }'));
ENDSEC;

DATA;
#10=MECHANICAL_DESIGN_GEOMETRIC_PRESENTATION_REPRESENTATION('',(#13),#343);
#11=SHAPE_REPRESENTATION_RELATIONSHIP('SRR','None',#350,#12);
#12=ADVANCED_BREP_SHAPE_REPRESENTATION('',(#14),#342);
#13=STYLED_ITEM('',(#359),#14);
#14=MANIFOLD_SOLID_BREP('Body1',#195);
#15=FACE_BOUND('',#42,.T.);
#16=FACE_BOUND('',#43,.T.);
#17=PLANE('',#212);
#18=PLANE('',#216);
#19=PLANE('',#217);
#20=PLANE('',#218);
#21=PLANE('',#221);
#22=PLANE('',#224);
#23=PLANE('',#226);
#24=PLANE('',#228);
#25=FACE_OUTER_BOUND('',#37,.T.);
#26=FACE_OUTER_BOUND('',#38,.T.);
#27=FACE_OUTER_BOUND('',#39,.T.);
#28=FACE_OUTER_BOUND('',#40,.T.);
#29=FACE_OUTER_BOUND('',#41,.T.);
#30=FACE_OUTER_BOUND('',#44,.T.);
#31=FACE_OUTER_BOUND('',#45,.T.);
#32=FACE_OUTER_BOUND('',#46,.T.);
#33=FACE_OUTER_BOUND('',#47,.T.);
#34=FACE_OUTER_BOUND('',#48,.T.);
#35=FACE_OUTER_BOUND('',#49,.T.);
#36=FACE_OUTER_BOUND('',#50,.T.);
#37=EDGE_LOOP('',(#131,#132,#133,#134));
#38=EDGE_LOOP('',(#135));
#39=EDGE_LOOP('',(#136,#137,#138,#139));
#40=EDGE_LOOP('',(#140));
#41=EDGE_LOOP('',(#141,#142,#143,#144));
#42=EDGE_LOOP('',(#145));
#43=EDGE_LOOP('',(#146));
#44=EDGE_LOOP('',(#147,#148,#149,#150,#151,#152));
#45=EDGE_LOOP('',(#153,#154,#155,#156,#157,#158));
#46=EDGE_LOOP('',(#159,#160,#161,#162));
#47=EDGE_LOOP('',(#163,#164,#165,#166));
#48=EDGE_LOOP('',(#167,#168,#169,#170));
#49=EDGE_LOOP('',(#171,#172,#173,#174));
#50=EDGE_LOOP('',(#175,#176,#177,#178));
#51=LINE('',#292,#67);
#52=LINE('',#299,#68);
#53=LINE('',#305,#69);
#54=LINE('',#307,#70);
#55=LINE('',#309,#71);
#56=LINE('',#310,#72);
#57=LINE('',#313,#73);
#58=LINE('',#317,#74);
#59=LINE('',#320,#75);
#60=LINE('',#323,#76);
#61=LINE('',#327,#77);
#62=LINE('',#330,#78);
#63=LINE('',#332,#79);
#64=LINE('',#334,#80);
#65=LINE('',#336,#81);
#66=LINE('',#338,#82);
#67=VECTOR('',#235,2.5);
#68=VECTOR('',#244,2.5);
#69=VECTOR('',#251,10.);
#70=VECTOR('',#252,10.);
#71=VECTOR('',#253,10.);
#72=VECTOR('',#254,10.);
#73=VECTOR('',#257,10.);
#74=VECTOR('',#260,10.);
#75=VECTOR('',#263,10.);
#76=VECTOR('',#266,10.);
#77=VECTOR('',#269,10.);
#78=VECTOR('',#272,10.);
#79=VECTOR('',#275,10.);
#80=VECTOR('',#278,10.);
#81=VECTOR('',#281,10.);
#82=VECTOR('',#284,10.);
#83=CIRCLE('',#210,2.5);
#84=CIRCLE('',#211,2.5);
#85=CIRCLE('',#214,2.5);
#86=CIRCLE('',#215,2.5);
#87=CIRCLE('',#219,0.500000000000007);
#88=CIRCLE('',#220,4.99999999999985);
#89=CIRCLE('',#222,4.99999999999985);
#90=CIRCLE('',#223,0.500000000000007);
#91=VERTEX_POINT('',#289);
#92=VERTEX_POINT('',#291);
#93=VERTEX_POINT('',#296);
#94=VERTEX_POINT('',#298);
#95=VERTEX_POINT('',#303);
#96=VERTEX_POINT('',#304);
#97=VERTEX_POINT('',#306);
#98=VERTEX_POINT('',#308);
#99=VERTEX_POINT('',#312);
#100=VERTEX_POINT('',#314);
#101=VERTEX_POINT('',#316);
#102=VERTEX_POINT('',#318);
#103=VERTEX_POINT('',#322);
#104=VERTEX_POINT('',#324);
#105=VERTEX_POINT('',#326);
#106=VERTEX_POINT('',#328);
#107=EDGE_CURVE('',#91,#91,#83,.T.);
#108=EDGE_CURVE('',#91,#92,#51,.T.);
#109=EDGE_CURVE('',#92,#92,#84,.T.);
#110=EDGE_CURVE('',#93,#93,#85,.T.);
#111=EDGE_CURVE('',#93,#94,#52,.T.);
#112=EDGE_CURVE('',#94,#94,#86,.T.);
#113=EDGE_CURVE('',#95,#96,#53,.T.);
#114=EDGE_CURVE('',#97,#95,#54,.T.);
#115=EDGE_CURVE('',#98,#97,#55,.T.);
#116=EDGE_CURVE('',#96,#98,#56,.T.);
#117=EDGE_CURVE('',#97,#99,#57,.T.);
#118=EDGE_CURVE('',#100,#99,#87,.T.);
#119=EDGE_CURVE('',#100,#101,#58,.T.);
#120=EDGE_CURVE('',#102,#101,#88,.T.);
#121=EDGE_CURVE('',#102,#98,#59,.T.);
#122=EDGE_CURVE('',#96,#103,#60,.T.);
#123=EDGE_CURVE('',#103,#104,#89,.T.);
#124=EDGE_CURVE('',#104,#105,#61,.T.);
#125=EDGE_CURVE('',#105,#106,#90,.T.);
#126=EDGE_CURVE('',#106,#95,#62,.T.);
#127=EDGE_CURVE('',#99,#106,#63,.T.);
#128=EDGE_CURVE('',#100,#105,#64,.T.);
#129=EDGE_CURVE('',#101,#104,#65,.T.);
#130=EDGE_CURVE('',#102,#103,#66,.T.);
#131=ORIENTED_EDGE('',*,*,#107,.F.);
#132=ORIENTED_EDGE('',*,*,#108,.T.);
#133=ORIENTED_EDGE('',*,*,#109,.T.);
#134=ORIENTED_EDGE('',*,*,#108,.F.);
#135=ORIENTED_EDGE('',*,*,#109,.F.);
#136=ORIENTED_EDGE('',*,*,#110,.F.);
#137=ORIENTED_EDGE('',*,*,#111,.T.);
#138=ORIENTED_EDGE('',*,*,#112,.T.);
#139=ORIENTED_EDGE('',*,*,#111,.F.);
#140=ORIENTED_EDGE('',*,*,#112,.F.);
#141=ORIENTED_EDGE('',*,*,#113,.F.);
#142=ORIENTED_EDGE('',*,*,#114,.F.);
#143=ORIENTED_EDGE('',*,*,#115,.F.);
#144=ORIENTED_EDGE('',*,*,#116,.F.);
#145=ORIENTED_EDGE('',*,*,#107,.T.);
#146=ORIENTED_EDGE('',*,*,#110,.T.);
#147=ORIENTED_EDGE('',*,*,#115,.T.);
#148=ORIENTED_EDGE('',*,*,#117,.T.);
#149=ORIENTED_EDGE('',*,*,#118,.F.);
#150=ORIENTED_EDGE('',*,*,#119,.T.);
#151=ORIENTED_EDGE('',*,*,#120,.F.);
#152=ORIENTED_EDGE('',*,*,#121,.T.);
#153=ORIENTED_EDGE('',*,*,#113,.T.);
#154=ORIENTED_EDGE('',*,*,#122,.T.);
#155=ORIENTED_EDGE('',*,*,#123,.T.);
#156=ORIENTED_EDGE('',*,*,#124,.T.);
#157=ORIENTED_EDGE('',*,*,#125,.T.);
#158=ORIENTED_EDGE('',*,*,#126,.T.);
#159=ORIENTED_EDGE('',*,*,#117,.F.);
#160=ORIENTED_EDGE('',*,*,#114,.T.);
#161=ORIENTED_EDGE('',*,*,#126,.F.);
#162=ORIENTED_EDGE('',*,*,#127,.F.);
#163=ORIENTED_EDGE('',*,*,#118,.T.);
#164=ORIENTED_EDGE('',*,*,#127,.T.);
#165=ORIENTED_EDGE('',*,*,#125,.F.);
#166=ORIENTED_EDGE('',*,*,#128,.F.);
#167=ORIENTED_EDGE('',*,*,#119,.F.);
#168=ORIENTED_EDGE('',*,*,#128,.T.);
#169=ORIENTED_EDGE('',*,*,#124,.F.);
#170=ORIENTED_EDGE('',*,*,#129,.F.);
#171=ORIENTED_EDGE('',*,*,#120,.T.);
#172=ORIENTED_EDGE('',*,*,#129,.T.);
#173=ORIENTED_EDGE('',*,*,#123,.F.);
#174=ORIENTED_EDGE('',*,*,#130,.F.);
#175=ORIENTED_EDGE('',*,*,#116,.T.);
#176=ORIENTED_EDGE('',*,*,#121,.F.);
#177=ORIENTED_EDGE('',*,*,#130,.T.);
#178=ORIENTED_EDGE('',*,*,#122,.F.);
#179=CYLINDRICAL_SURFACE('',#209,2.5);
#180=CYLINDRICAL_SURFACE('',#213,2.5);
#181=CYLINDRICAL_SURFACE('',#225,0.500000000000007);
#182=CYLINDRICAL_SURFACE('',#227,4.99999999999985);
#183=ADVANCED_FACE('',(#25),#179,.F.);
#184=ADVANCED_FACE('',(#26),#17,.T.);
#185=ADVANCED_FACE('',(#27),#180,.F.);
#186=ADVANCED_FACE('',(#28),#18,.T.);
#187=ADVANCED_FACE('',(#29,#15,#16),#19,.F.);
#188=ADVANCED_FACE('',(#30),#20,.F.);
#189=ADVANCED_FACE('',(#31),#21,.T.);
#190=ADVANCED_FACE('',(#32),#22,.T.);
#191=ADVANCED_FACE('',(#33),#181,.T.);
#192=ADVANCED_FACE('',(#34),#23,.T.);
#193=ADVANCED_FACE('',(#35),#182,.T.);
#194=ADVANCED_FACE('',(#36),#24,.T.);
#195=CLOSED_SHELL('',(#183,#184,#185,#186,#187,#188,#189,#190,#191,#192,
#193,#194));
#196=DERIVED_UNIT_ELEMENT(#198,1.);
#197=DERIVED_UNIT_ELEMENT(#345,-3.);
#198=(
MASS_UNIT()
NAMED_UNIT(*)
SI_UNIT(.KILO.,.GRAM.)
);
#199=DERIVED_UNIT((#196,#197));
#200=MEASURE_REPRESENTATION_ITEM('density measure',
POSITIVE_RATIO_MEASURE(7850.),#199);
#201=PROPERTY_DEFINITION_REPRESENTATION(#206,#203);
#202=PROPERTY_DEFINITION_REPRESENTATION(#207,#204);
#203=REPRESENTATION('material name',(#205),#342);
#204=REPRESENTATION('density',(#200),#342);
#205=DESCRIPTIVE_REPRESENTATION_ITEM('Steel','Steel');
#206=PROPERTY_DEFINITION('material property','material name',#352);
#207=PROPERTY_DEFINITION('material property','density of part',#352);
#208=AXIS2_PLACEMENT_3D('',#287,#229,#230);
#209=AXIS2_PLACEMENT_3D('',#288,#231,#232);
#210=AXIS2_PLACEMENT_3D('',#290,#233,#234);
#211=AXIS2_PLACEMENT_3D('',#293,#236,#237);
#212=AXIS2_PLACEMENT_3D('',#294,#238,#239);
#213=AXIS2_PLACEMENT_3D('',#295,#240,#241);
#214=AXIS2_PLACEMENT_3D('',#297,#242,#243);
#215=AXIS2_PLACEMENT_3D('',#300,#245,#246);
#216=AXIS2_PLACEMENT_3D('',#301,#247,#248);
#217=AXIS2_PLACEMENT_3D('',#302,#249,#250);
#218=AXIS2_PLACEMENT_3D('',#311,#255,#256);
#219=AXIS2_PLACEMENT_3D('',#315,#258,#259);
#220=AXIS2_PLACEMENT_3D('',#319,#261,#262);
#221=AXIS2_PLACEMENT_3D('',#321,#264,#265);
#222=AXIS2_PLACEMENT_3D('',#325,#267,#268);
#223=AXIS2_PLACEMENT_3D('',#329,#270,#271);
#224=AXIS2_PLACEMENT_3D('',#331,#273,#274);
#225=AXIS2_PLACEMENT_3D('',#333,#276,#277);
#226=AXIS2_PLACEMENT_3D('',#335,#279,#280);
#227=AXIS2_PLACEMENT_3D('',#337,#282,#283);
#228=AXIS2_PLACEMENT_3D('',#339,#285,#286);
#229=DIRECTION('axis',(0.,0.,1.));
#230=DIRECTION('refdir',(1.,0.,0.));
#231=DIRECTION('center_axis',(0.,0.422618261740699,0.90630778703665));
#232=DIRECTION('ref_axis',(1.,0.,0.));
#233=DIRECTION('center_axis',(2.34600262405792E-17,0.422618261740699,0.90630778703665));
#234=DIRECTION('ref_axis',(1.,0.,0.));
#235=DIRECTION('',(0.,0.422618261740699,0.90630778703665));
#236=DIRECTION('center_axis',(0.,0.422618261740699,0.90630778703665));
#237=DIRECTION('ref_axis',(1.,0.,0.));
#238=DIRECTION('center_axis',(0.,-0.422618261740699,-0.90630778703665));
#239=DIRECTION('ref_axis',(1.,0.,0.));
#240=DIRECTION('center_axis',(0.,0.422618261740699,0.90630778703665));
#241=DIRECTION('ref_axis',(1.,0.,0.));
#242=DIRECTION('center_axis',(2.34600262405792E-17,0.422618261740699,0.90630778703665));
#243=DIRECTION('ref_axis',(1.,0.,0.));
#244=DIRECTION('',(0.,0.422618261740699,0.90630778703665));
#245=DIRECTION('center_axis',(0.,0.422618261740699,0.90630778703665));
#246=DIRECTION('ref_axis',(1.,0.,0.));
#247=DIRECTION('center_axis',(0.,-0.422618261740699,-0.90630778703665));
#248=DIRECTION('ref_axis',(1.,0.,0.));
#249=DIRECTION('center_axis',(2.34600262405792E-17,0.422618261740699,0.90630778703665));
#250=DIRECTION('ref_axis',(1.,0.,-2.58852749321358E-17));
#251=DIRECTION('',(-1.94383642086036E-16,-0.90630778703665,0.422618261740699));
#252=DIRECTION('',(-1.,2.14478618485241E-16,1.28992821994434E-30));
#253=DIRECTION('',(1.94383642086036E-16,0.90630778703665,-0.422618261740699));
#254=DIRECTION('',(1.,-1.51804726767936E-16,4.49024317038799E-17));
#255=DIRECTION('center_axis',(-1.,2.14478618485241E-16,1.28992821994434E-30));
#256=DIRECTION('ref_axis',(-2.01543975106936E-16,-0.939692620785908,0.342020143325669));
#257=DIRECTION('',(1.44899654391565E-16,0.675590207615662,0.737277336810122));
#258=DIRECTION('center_axis',(-1.,2.14478618485241E-16,1.28992821994434E-30));
#259=DIRECTION('ref_axis',(7.3356006711403E-17,0.342020138088729,0.939692622691999));
#260=DIRECTION('',(-2.01543975515752E-16,-0.939692622691998,0.34202013808873));
#261=DIRECTION('center_axis',(-1.,2.14478618485241E-16,1.28992821994434E-30));
#262=DIRECTION('ref_axis',(-1.24912388054775E-16,-0.582400189524587,0.812902219975887));
#263=DIRECTION('',(-1.74350145104016E-16,-0.812902219975893,-0.582400189524578));
#264=DIRECTION('center_axis',(-1.,2.14478618485241E-16,1.28992821994434E-30));
#265=DIRECTION('ref_axis',(-2.01543975106936E-16,-0.939692620785908,0.342020143325669));
#266=DIRECTION('',(1.74350145104016E-16,0.812902219975893,0.582400189524578));
#267=DIRECTION('center_axis',(-1.,2.14478618485241E-16,1.28992821994434E-30));
#268=DIRECTION('ref_axis',(-1.24912388054775E-16,-0.582400189524587,0.812902219975887));
#269=DIRECTION('',(2.01543975515752E-16,0.939692622691998,-0.34202013808873));
#270=DIRECTION('center_axis',(-1.,2.14478618485241E-16,1.28992821994434E-30));
#271=DIRECTION('ref_axis',(7.3356006711403E-17,0.342020138088729,0.939692622691999));
#272=DIRECTION('',(-1.44899654391565E-16,-0.675590207615662,-0.737277336810122));
#273=DIRECTION('center_axis',(1.58130224639512E-16,0.737277336810122,-0.675590207615662));
#274=DIRECTION('ref_axis',(-1.44899654391565E-16,-0.675590207615662,-0.737277336810122));
#275=DIRECTION('',(-1.,2.14478618485241E-16,1.28992821994434E-30));
#276=DIRECTION('center_axis',(-1.,2.14478618485241E-16,1.28992821994434E-30));
#277=DIRECTION('ref_axis',(7.3356006711403E-17,0.342020138088729,0.939692622691999));
#278=DIRECTION('',(-1.,2.14478618485241E-16,1.28992821994434E-30));
#279=DIRECTION('center_axis',(7.33560067114032E-17,0.34202013808873,0.939692622691998));
#280=DIRECTION('ref_axis',(2.01543975515752E-16,0.939692622691998,-0.34202013808873));
#281=DIRECTION('',(-1.,2.14478618485241E-16,1.28992821994434E-30));
#282=DIRECTION('center_axis',(-1.,2.14478618485241E-16,1.28992821994434E-30));
#283=DIRECTION('ref_axis',(-1.24912388054775E-16,-0.582400189524587,0.812902219975887));
#284=DIRECTION('',(-1.,2.14478618485241E-16,1.28992821994434E-30));
#285=DIRECTION('center_axis',(-1.24912388054773E-16,-0.582400189524578,
0.812902219975894));
#286=DIRECTION('ref_axis',(1.74350145104016E-16,0.812902219975893,0.582400189524578));
#287=CARTESIAN_POINT('',(0.,0.,0.));
#288=CARTESIAN_POINT('Origin',(37.9618551013977,-17.6563382605847,102.933445297389));
#289=CARTESIAN_POINT('',(35.4618551013977,-17.6563382605847,102.933445297389));
#290=CARTESIAN_POINT('Origin',(37.9618551013977,-17.6563382605847,102.933445297389));
#291=CARTESIAN_POINT('',(35.4618551013977,-16.8111017371033,104.746060871463));
#292=CARTESIAN_POINT('',(35.4618551013977,-17.6563382605847,102.933445297389));
#293=CARTESIAN_POINT('Origin',(37.9618551013977,-16.8111017371033,104.746060871463));
#294=CARTESIAN_POINT('Origin',(37.9618551013977,-16.8111017371033,104.746060871463));
#295=CARTESIAN_POINT('Origin',(27.9618551013977,-17.6563382605847,102.933445297389));
#296=CARTESIAN_POINT('',(25.4618551013977,-17.6563382605847,102.933445297389));
#297=CARTESIAN_POINT('Origin',(27.9618551013977,-17.6563382605847,102.933445297389));
#298=CARTESIAN_POINT('',(25.4618551013977,-16.8111017371033,104.746060871462));
#299=CARTESIAN_POINT('',(25.4618551013977,-17.6563382605847,102.933445297389));
#300=CARTESIAN_POINT('Origin',(27.9618551013977,-16.8111017371033,104.746060871462));
#301=CARTESIAN_POINT('Origin',(27.9618551013977,-16.8111017371033,104.746060871462));
#302=CARTESIAN_POINT('Origin',(32.9618551013977,-19.6097449235403,103.844333783816));
#303=CARTESIAN_POINT('',(22.9618551013977,-12.3384315450649,100.453664670588));
#304=CARTESIAN_POINT('',(22.9618551013977,-22.681982241257,105.276941572737));
#305=CARTESIAN_POINT('',(22.9618551013977,-20.3627002786329,104.195442632145));
#306=CARTESIAN_POINT('',(42.9618551013977,-12.3384315450649,100.453664670588));
#307=CARTESIAN_POINT('',(42.9618551013977,-12.3384315450649,100.453664670588));
#308=CARTESIAN_POINT('',(42.9618551013977,-22.681982241257,105.276941572737));
#309=CARTESIAN_POINT('',(42.9618551013977,-20.3627002786329,104.195442632145));
#310=CARTESIAN_POINT('',(37.9618551013977,-22.681982241257,105.276941572737));
#311=CARTESIAN_POINT('Origin',(42.9618551013977,-32.2916680005088,80.5795156162064));
#312=CARTESIAN_POINT('',(42.9618551013977,-1.87517407731679,111.872306494018));
#313=CARTESIAN_POINT('',(42.9618551013977,-11.6665153054614,101.186932574874));
#314=CARTESIAN_POINT('',(42.9618551013977,-2.07280267667747,112.679947909172));
#315=CARTESIAN_POINT('Origin',(42.9618551013977,-2.24381274572183,112.210101597826));
#316=CARTESIAN_POINT('',(42.9618551013977,-6.40892657880954,114.258167914272));
#317=CARTESIAN_POINT('',(42.9618551013977,-2.07280267667749,112.679947909172));
#318=CARTESIAN_POINT('',(42.9618551013977,-11.0310282168761,113.624215900691));
#319=CARTESIAN_POINT('Origin',(42.9618551013977,-8.11902726925323,109.559704800812));
#320=CARTESIAN_POINT('',(42.9618551013977,-22.6687554667135,105.286417836686));
#321=CARTESIAN_POINT('Origin',(22.9618551013977,-32.2916680005088,80.5795156162064));
#322=CARTESIAN_POINT('',(22.9618551013977,-11.0310282168761,113.624215900691));
#323=CARTESIAN_POINT('',(22.9618551013977,-22.6687554667135,105.286417836686));
#324=CARTESIAN_POINT('',(22.9618551013977,-6.40892657880954,114.258167914272));
#325=CARTESIAN_POINT('Origin',(22.9618551013977,-8.11902726925323,109.559704800812));
#326=CARTESIAN_POINT('',(22.9618551013977,-2.07280267667747,112.679947909172));
#327=CARTESIAN_POINT('',(22.9618551013977,-2.07280267667749,112.679947909172));
#328=CARTESIAN_POINT('',(22.9618551013977,-1.87517407731679,111.872306494018));
#329=CARTESIAN_POINT('Origin',(22.9618551013977,-2.24381274572183,112.210101597826));
#330=CARTESIAN_POINT('',(22.9618551013977,-11.6665153054614,101.186932574874));
#331=CARTESIAN_POINT('Origin',(42.9618551013977,-1.87517407731679,111.872306494018));
#332=CARTESIAN_POINT('',(42.9618551013977,-1.87517407731679,111.872306494018));
#333=CARTESIAN_POINT('Origin',(42.9618551013977,-2.24381274572183,112.210101597826));
#334=CARTESIAN_POINT('',(42.9618551013977,-2.07280267667747,112.679947909172));
#335=CARTESIAN_POINT('Origin',(42.9618551013977,-6.40892657880953,114.258167914272));
#336=CARTESIAN_POINT('',(42.9618551013977,-6.40892657880954,114.258167914272));
#337=CARTESIAN_POINT('Origin',(42.9618551013977,-8.11902726925323,109.559704800812));
#338=CARTESIAN_POINT('',(42.9618551013977,-11.0310282168761,113.624215900691));
#339=CARTESIAN_POINT('Origin',(42.9618551013977,-23.6617275705472,104.575007377649));
#340=UNCERTAINTY_MEASURE_WITH_UNIT(LENGTH_MEASURE(0.01),#344,
'DISTANCE_ACCURACY_VALUE',
'Maximum model space distance between geometric entities at asserted c
onnectivities');
#341=UNCERTAINTY_MEASURE_WITH_UNIT(LENGTH_MEASURE(0.01),#344,
'DISTANCE_ACCURACY_VALUE',
'Maximum model space distance between geometric entities at asserted c
onnectivities');
#342=(
GEOMETRIC_REPRESENTATION_CONTEXT(3)
GLOBAL_UNCERTAINTY_ASSIGNED_CONTEXT((#340))
GLOBAL_UNIT_ASSIGNED_CONTEXT((#344,#346,#347))
REPRESENTATION_CONTEXT('','3D')
);
#343=(
GEOMETRIC_REPRESENTATION_CONTEXT(3)
GLOBAL_UNCERTAINTY_ASSIGNED_CONTEXT((#341))
GLOBAL_UNIT_ASSIGNED_CONTEXT((#344,#346,#347))
REPRESENTATION_CONTEXT('','3D')
);
#344=(
LENGTH_UNIT()
NAMED_UNIT(*)
SI_UNIT(.MILLI.,.METRE.)
);
#345=(
LENGTH_UNIT()
NAMED_UNIT(*)
SI_UNIT($,.METRE.)
);
#346=(
NAMED_UNIT(*)
PLANE_ANGLE_UNIT()
SI_UNIT($,.RADIAN.)
);
#347=(
NAMED_UNIT(*)
SI_UNIT($,.STERADIAN.)
SOLID_ANGLE_UNIT()
);
#348=SHAPE_DEFINITION_REPRESENTATION(#349,#350);
#349=PRODUCT_DEFINITION_SHAPE('',$,#352);
#350=SHAPE_REPRESENTATION('',(#208),#342);
#351=PRODUCT_DEFINITION_CONTEXT('part definition',#356,'design');
#352=PRODUCT_DEFINITION('2026-06-20-22-12-23-773','FusionComponent',#353,
#351);
#353=PRODUCT_DEFINITION_FORMATION('',$,#358);
#354=PRODUCT_RELATED_PRODUCT_CATEGORY('FusionComponent',
'FusionComponent',(#358));
#355=APPLICATION_PROTOCOL_DEFINITION('international standard',
'automotive_design',2009,#356);
#356=APPLICATION_CONTEXT(
'Core Data for Automotive Mechanical Design Process');
#357=PRODUCT_CONTEXT('part definition',#356,'mechanical');
#358=PRODUCT('2026-06-20-22-12-23-773','FusionComponent',$,(#357));
#359=PRESENTATION_STYLE_ASSIGNMENT((#360));
#360=SURFACE_STYLE_USAGE(.BOTH.,#361);
#361=SURFACE_SIDE_STYLE('',(#362));
#362=SURFACE_STYLE_FILL_AREA(#363);
#363=FILL_AREA_STYLE('Steel - Satin',(#364));
#364=FILL_AREA_STYLE_COLOUR('Steel - Satin',#365);
#365=COLOUR_RGB('Steel - Satin',0.627450980392157,0.627450980392157,0.627450980392157);
ENDSEC;
END-ISO-10303-21;
