ISO-10303-21;
HEADER;
/* Generated by software containing ST-Developer
 * from STEP Tools, Inc. (www.steptools.com) 
 */

FILE_DESCRIPTION(
/* description */ (''),
/* implementation_level */ '2;1');

FILE_NAME(
/* name */ 'Claw Finger A.step',
/* time_stamp */ '2026-06-20T22:12:03-05:00',
/* author */ (''),
/* organization */ (''),
/* preprocessor_version */ 'ST-DEVELOPER v20.1',
/* originating_system */ 'Autodesk Translation Framework v15.8.0.0',
/* authorisation */ '');

FILE_SCHEMA (('AUTOMOTIVE_DESIGN { 1 0 10303 214 3 1 1 }'));
ENDSEC;

DATA;
#10=MECHANICAL_DESIGN_GEOMETRIC_PRESENTATION_REPRESENTATION('',(#13),#740);
#11=SHAPE_REPRESENTATION_RELATIONSHIP('SRR','None',#747,#12);
#12=ADVANCED_BREP_SHAPE_REPRESENTATION('',(#14),#739);
#13=STYLED_ITEM('',(#756),#14);
#14=MANIFOLD_SOLID_BREP('Body1',#432);
#15=FACE_BOUND('',#67,.T.);
#16=FACE_BOUND('',#68,.T.);
#17=FACE_BOUND('',#70,.T.);
#18=FACE_BOUND('',#74,.T.);
#19=FACE_BOUND('',#80,.T.);
#20=FACE_BOUND('',#85,.T.);
#21=FACE_BOUND('',#88,.T.);
#22=FACE_BOUND('',#90,.T.);
#23=FACE_BOUND('',#94,.T.);
#24=PLANE('',#449);
#25=PLANE('',#453);
#26=PLANE('',#454);
#27=PLANE('',#455);
#28=PLANE('',#466);
#29=PLANE('',#468);
#30=PLANE('',#471);
#31=PLANE('',#472);
#32=PLANE('',#473);
#33=PLANE('',#481);
#34=PLANE('',#484);
#35=PLANE('',#485);
#36=PLANE('',#488);
#37=PLANE('',#489);
#38=FACE_OUTER_BOUND('',#62,.T.);
#39=FACE_OUTER_BOUND('',#63,.T.);
#40=FACE_OUTER_BOUND('',#64,.T.);
#41=FACE_OUTER_BOUND('',#65,.T.);
#42=FACE_OUTER_BOUND('',#66,.T.);
#43=FACE_OUTER_BOUND('',#69,.T.);
#44=FACE_OUTER_BOUND('',#71,.T.);
#45=FACE_OUTER_BOUND('',#72,.T.);
#46=FACE_OUTER_BOUND('',#73,.T.);
#47=FACE_OUTER_BOUND('',#75,.T.);
#48=FACE_OUTER_BOUND('',#76,.T.);
#49=FACE_OUTER_BOUND('',#77,.T.);
#50=FACE_OUTER_BOUND('',#78,.T.);
#51=FACE_OUTER_BOUND('',#79,.T.);
#52=FACE_OUTER_BOUND('',#81,.T.);
#53=FACE_OUTER_BOUND('',#82,.T.);
#54=FACE_OUTER_BOUND('',#83,.T.);
#55=FACE_OUTER_BOUND('',#84,.T.);
#56=FACE_OUTER_BOUND('',#86,.T.);
#57=FACE_OUTER_BOUND('',#87,.T.);
#58=FACE_OUTER_BOUND('',#89,.T.);
#59=FACE_OUTER_BOUND('',#91,.T.);
#60=FACE_OUTER_BOUND('',#92,.T.);
#61=FACE_OUTER_BOUND('',#93,.T.);
#62=EDGE_LOOP('',(#284,#285,#286,#287));
#63=EDGE_LOOP('',(#288));
#64=EDGE_LOOP('',(#289,#290,#291,#292));
#65=EDGE_LOOP('',(#293));
#66=EDGE_LOOP('',(#294,#295,#296,#297));
#67=EDGE_LOOP('',(#298));
#68=EDGE_LOOP('',(#299));
#69=EDGE_LOOP('',(#300,#301,#302,#303,#304,#305,#306,#307));
#70=EDGE_LOOP('',(#308));
#71=EDGE_LOOP('',(#309,#310,#311,#312));
#72=EDGE_LOOP('',(#313,#314,#315,#316));
#73=EDGE_LOOP('',(#317,#318,#319,#320,#321,#322));
#74=EDGE_LOOP('',(#323));
#75=EDGE_LOOP('',(#324,#325,#326,#327));
#76=EDGE_LOOP('',(#328,#329,#330,#331));
#77=EDGE_LOOP('',(#332,#333,#334,#335));
#78=EDGE_LOOP('',(#336,#337,#338,#339));
#79=EDGE_LOOP('',(#340,#341,#342,#343,#344,#345));
#80=EDGE_LOOP('',(#346));
#81=EDGE_LOOP('',(#347,#348,#349,#350));
#82=EDGE_LOOP('',(#351,#352,#353,#354));
#83=EDGE_LOOP('',(#355,#356,#357,#358));
#84=EDGE_LOOP('',(#359,#360,#361,#362));
#85=EDGE_LOOP('',(#363,#364,#365,#366));
#86=EDGE_LOOP('',(#367,#368,#369,#370));
#87=EDGE_LOOP('',(#371,#372,#373,#374));
#88=EDGE_LOOP('',(#375));
#89=EDGE_LOOP('',(#376,#377,#378,#379));
#90=EDGE_LOOP('',(#380));
#91=EDGE_LOOP('',(#381,#382,#383,#384));
#92=EDGE_LOOP('',(#385,#386,#387,#388));
#93=EDGE_LOOP('',(#389,#390,#391,#392,#393,#394,#395,#396));
#94=EDGE_LOOP('',(#397));
#95=LINE('',#622,#132);
#96=LINE('',#629,#133);
#97=LINE('',#635,#134);
#98=LINE('',#637,#135);
#99=LINE('',#639,#136);
#100=LINE('',#640,#137);
#101=LINE('',#643,#138);
#102=LINE('',#647,#139);
#103=LINE('',#651,#140);
#104=LINE('',#654,#141);
#105=LINE('',#661,#142);
#106=LINE('',#668,#143);
#107=LINE('',#671,#144);
#108=LINE('',#674,#145);
#109=LINE('',#678,#146);
#110=LINE('',#680,#147);
#111=LINE('',#681,#148);
#112=LINE('',#684,#149);
#113=LINE('',#685,#150);
#114=LINE('',#689,#151);
#115=LINE('',#692,#152);
#116=LINE('',#693,#153);
#117=LINE('',#696,#154);
#118=LINE('',#697,#155);
#119=LINE('',#699,#156);
#120=LINE('',#704,#157);
#121=LINE('',#709,#158);
#122=LINE('',#712,#159);
#123=LINE('',#715,#160);
#124=LINE('',#718,#161);
#125=LINE('',#719,#162);
#126=LINE('',#723,#163);
#127=LINE('',#725,#164);
#128=LINE('',#728,#165);
#129=LINE('',#729,#166);
#130=LINE('',#733,#167);
#131=LINE('',#735,#168);
#132=VECTOR('',#496,2.5);
#133=VECTOR('',#505,2.5);
#134=VECTOR('',#512,10.);
#135=VECTOR('',#513,10.);
#136=VECTOR('',#514,10.);
#137=VECTOR('',#515,10.);
#138=VECTOR('',#518,10.);
#139=VECTOR('',#521,10.);
#140=VECTOR('',#524,10.);
#141=VECTOR('',#527,10.);
#142=VECTOR('',#534,0.499999999999998);
#143=VECTOR('',#541,10.);
#144=VECTOR('',#544,10.);
#145=VECTOR('',#547,10.);
#146=VECTOR('',#550,10.);
#147=VECTOR('',#551,10.);
#148=VECTOR('',#552,10.);
#149=VECTOR('',#555,10.);
#150=VECTOR('',#556,10.);
#151=VECTOR('',#561,10.);
#152=VECTOR('',#564,10.);
#153=VECTOR('',#565,10.);
#154=VECTOR('',#568,10.);
#155=VECTOR('',#569,10.);
#156=VECTOR('',#572,10.);
#157=VECTOR('',#577,0.499999999999998);
#158=VECTOR('',#584,2.6);
#159=VECTOR('',#587,10.);
#160=VECTOR('',#590,10.);
#161=VECTOR('',#593,10.);
#162=VECTOR('',#594,10.);
#163=VECTOR('',#599,10.);
#164=VECTOR('',#602,10.);
#165=VECTOR('',#605,10.);
#166=VECTOR('',#606,10.);
#167=VECTOR('',#611,10.);
#168=VECTOR('',#614,10.);
#169=CIRCLE('',#447,2.5);
#170=CIRCLE('',#448,2.5);
#171=CIRCLE('',#451,2.5);
#172=CIRCLE('',#452,2.5);
#173=CIRCLE('',#456,9.99999999999998);
#174=CIRCLE('',#457,6.);
#175=CIRCLE('',#458,7.50000000000001);
#176=CIRCLE('',#459,2.6);
#177=CIRCLE('',#461,0.499999999999998);
#178=CIRCLE('',#462,0.499999999999998);
#179=CIRCLE('',#464,2.5);
#180=CIRCLE('',#465,2.5);
#181=CIRCLE('',#467,2.5);
#182=CIRCLE('',#470,2.5);
#183=CIRCLE('',#475,0.499999999999998);
#184=CIRCLE('',#476,0.499999999999998);
#185=CIRCLE('',#478,2.6);
#186=CIRCLE('',#480,6.);
#187=CIRCLE('',#483,7.50000000000001);
#188=CIRCLE('',#487,9.99999999999998);
#189=VERTEX_POINT('',#619);
#190=VERTEX_POINT('',#621);
#191=VERTEX_POINT('',#626);
#192=VERTEX_POINT('',#628);
#193=VERTEX_POINT('',#633);
#194=VERTEX_POINT('',#634);
#195=VERTEX_POINT('',#636);
#196=VERTEX_POINT('',#638);
#197=VERTEX_POINT('',#642);
#198=VERTEX_POINT('',#644);
#199=VERTEX_POINT('',#646);
#200=VERTEX_POINT('',#648);
#201=VERTEX_POINT('',#650);
#202=VERTEX_POINT('',#652);
#203=VERTEX_POINT('',#655);
#204=VERTEX_POINT('',#658);
#205=VERTEX_POINT('',#660);
#206=VERTEX_POINT('',#664);
#207=VERTEX_POINT('',#665);
#208=VERTEX_POINT('',#667);
#209=VERTEX_POINT('',#669);
#210=VERTEX_POINT('',#673);
#211=VERTEX_POINT('',#675);
#212=VERTEX_POINT('',#677);
#213=VERTEX_POINT('',#679);
#214=VERTEX_POINT('',#683);
#215=VERTEX_POINT('',#687);
#216=VERTEX_POINT('',#691);
#217=VERTEX_POINT('',#695);
#218=VERTEX_POINT('',#701);
#219=VERTEX_POINT('',#703);
#220=VERTEX_POINT('',#707);
#221=VERTEX_POINT('',#711);
#222=VERTEX_POINT('',#713);
#223=VERTEX_POINT('',#717);
#224=VERTEX_POINT('',#721);
#225=VERTEX_POINT('',#727);
#226=VERTEX_POINT('',#731);
#227=EDGE_CURVE('',#189,#189,#169,.T.);
#228=EDGE_CURVE('',#189,#190,#95,.T.);
#229=EDGE_CURVE('',#190,#190,#170,.T.);
#230=EDGE_CURVE('',#191,#191,#171,.T.);
#231=EDGE_CURVE('',#191,#192,#96,.T.);
#232=EDGE_CURVE('',#192,#192,#172,.T.);
#233=EDGE_CURVE('',#193,#194,#97,.T.);
#234=EDGE_CURVE('',#194,#195,#98,.T.);
#235=EDGE_CURVE('',#196,#195,#99,.T.);
#236=EDGE_CURVE('',#196,#193,#100,.T.);
#237=EDGE_CURVE('',#194,#197,#101,.T.);
#238=EDGE_CURVE('',#198,#197,#173,.T.);
#239=EDGE_CURVE('',#198,#199,#102,.T.);
#240=EDGE_CURVE('',#199,#200,#174,.T.);
#241=EDGE_CURVE('',#200,#201,#103,.T.);
#242=EDGE_CURVE('',#201,#202,#175,.T.);
#243=EDGE_CURVE('',#195,#202,#104,.T.);
#244=EDGE_CURVE('',#203,#203,#176,.T.);
#245=EDGE_CURVE('',#204,#204,#177,.T.);
#246=EDGE_CURVE('',#204,#205,#105,.T.);
#247=EDGE_CURVE('',#205,#205,#178,.T.);
#248=EDGE_CURVE('',#206,#207,#179,.T.);
#249=EDGE_CURVE('',#207,#208,#106,.T.);
#250=EDGE_CURVE('',#208,#209,#180,.T.);
#251=EDGE_CURVE('',#209,#206,#107,.T.);
#252=EDGE_CURVE('',#210,#208,#108,.T.);
#253=EDGE_CURVE('',#211,#210,#181,.T.);
#254=EDGE_CURVE('',#212,#211,#109,.T.);
#255=EDGE_CURVE('',#213,#212,#110,.T.);
#256=EDGE_CURVE('',#213,#209,#111,.T.);
#257=EDGE_CURVE('',#207,#214,#112,.T.);
#258=EDGE_CURVE('',#210,#214,#113,.T.);
#259=EDGE_CURVE('',#214,#215,#182,.T.);
#260=EDGE_CURVE('',#215,#211,#114,.T.);
#261=EDGE_CURVE('',#216,#213,#115,.T.);
#262=EDGE_CURVE('',#216,#206,#116,.T.);
#263=EDGE_CURVE('',#217,#215,#117,.T.);
#264=EDGE_CURVE('',#212,#217,#118,.T.);
#265=EDGE_CURVE('',#217,#216,#119,.T.);
#266=EDGE_CURVE('',#218,#218,#183,.T.);
#267=EDGE_CURVE('',#218,#219,#120,.T.);
#268=EDGE_CURVE('',#219,#219,#184,.T.);
#269=EDGE_CURVE('',#220,#220,#185,.T.);
#270=EDGE_CURVE('',#220,#203,#121,.T.);
#271=EDGE_CURVE('',#199,#221,#122,.T.);
#272=EDGE_CURVE('',#222,#221,#186,.T.);
#273=EDGE_CURVE('',#200,#222,#123,.T.);
#274=EDGE_CURVE('',#223,#222,#124,.T.);
#275=EDGE_CURVE('',#201,#223,#125,.T.);
#276=EDGE_CURVE('',#224,#223,#187,.T.);
#277=EDGE_CURVE('',#202,#224,#126,.T.);
#278=EDGE_CURVE('',#196,#224,#127,.T.);
#279=EDGE_CURVE('',#225,#193,#128,.T.);
#280=EDGE_CURVE('',#197,#225,#129,.T.);
#281=EDGE_CURVE('',#226,#225,#188,.T.);
#282=EDGE_CURVE('',#198,#226,#130,.T.);
#283=EDGE_CURVE('',#221,#226,#131,.T.);
#284=ORIENTED_EDGE('',*,*,#227,.F.);
#285=ORIENTED_EDGE('',*,*,#228,.T.);
#286=ORIENTED_EDGE('',*,*,#229,.T.);
#287=ORIENTED_EDGE('',*,*,#228,.F.);
#288=ORIENTED_EDGE('',*,*,#229,.F.);
#289=ORIENTED_EDGE('',*,*,#230,.F.);
#290=ORIENTED_EDGE('',*,*,#231,.T.);
#291=ORIENTED_EDGE('',*,*,#232,.T.);
#292=ORIENTED_EDGE('',*,*,#231,.F.);
#293=ORIENTED_EDGE('',*,*,#232,.F.);
#294=ORIENTED_EDGE('',*,*,#233,.T.);
#295=ORIENTED_EDGE('',*,*,#234,.T.);
#296=ORIENTED_EDGE('',*,*,#235,.F.);
#297=ORIENTED_EDGE('',*,*,#236,.T.);
#298=ORIENTED_EDGE('',*,*,#227,.T.);
#299=ORIENTED_EDGE('',*,*,#230,.T.);
#300=ORIENTED_EDGE('',*,*,#234,.F.);
#301=ORIENTED_EDGE('',*,*,#237,.T.);
#302=ORIENTED_EDGE('',*,*,#238,.F.);
#303=ORIENTED_EDGE('',*,*,#239,.T.);
#304=ORIENTED_EDGE('',*,*,#240,.T.);
#305=ORIENTED_EDGE('',*,*,#241,.T.);
#306=ORIENTED_EDGE('',*,*,#242,.T.);
#307=ORIENTED_EDGE('',*,*,#243,.F.);
#308=ORIENTED_EDGE('',*,*,#244,.T.);
#309=ORIENTED_EDGE('',*,*,#245,.F.);
#310=ORIENTED_EDGE('',*,*,#246,.T.);
#311=ORIENTED_EDGE('',*,*,#247,.F.);
#312=ORIENTED_EDGE('',*,*,#246,.F.);
#313=ORIENTED_EDGE('',*,*,#248,.T.);
#314=ORIENTED_EDGE('',*,*,#249,.T.);
#315=ORIENTED_EDGE('',*,*,#250,.T.);
#316=ORIENTED_EDGE('',*,*,#251,.T.);
#317=ORIENTED_EDGE('',*,*,#250,.F.);
#318=ORIENTED_EDGE('',*,*,#252,.F.);
#319=ORIENTED_EDGE('',*,*,#253,.F.);
#320=ORIENTED_EDGE('',*,*,#254,.F.);
#321=ORIENTED_EDGE('',*,*,#255,.F.);
#322=ORIENTED_EDGE('',*,*,#256,.T.);
#323=ORIENTED_EDGE('',*,*,#247,.T.);
#324=ORIENTED_EDGE('',*,*,#249,.F.);
#325=ORIENTED_EDGE('',*,*,#257,.T.);
#326=ORIENTED_EDGE('',*,*,#258,.F.);
#327=ORIENTED_EDGE('',*,*,#252,.T.);
#328=ORIENTED_EDGE('',*,*,#253,.T.);
#329=ORIENTED_EDGE('',*,*,#258,.T.);
#330=ORIENTED_EDGE('',*,*,#259,.T.);
#331=ORIENTED_EDGE('',*,*,#260,.T.);
#332=ORIENTED_EDGE('',*,*,#251,.F.);
#333=ORIENTED_EDGE('',*,*,#256,.F.);
#334=ORIENTED_EDGE('',*,*,#261,.F.);
#335=ORIENTED_EDGE('',*,*,#262,.T.);
#336=ORIENTED_EDGE('',*,*,#260,.F.);
#337=ORIENTED_EDGE('',*,*,#263,.F.);
#338=ORIENTED_EDGE('',*,*,#264,.F.);
#339=ORIENTED_EDGE('',*,*,#254,.T.);
#340=ORIENTED_EDGE('',*,*,#248,.F.);
#341=ORIENTED_EDGE('',*,*,#262,.F.);
#342=ORIENTED_EDGE('',*,*,#265,.F.);
#343=ORIENTED_EDGE('',*,*,#263,.T.);
#344=ORIENTED_EDGE('',*,*,#259,.F.);
#345=ORIENTED_EDGE('',*,*,#257,.F.);
#346=ORIENTED_EDGE('',*,*,#245,.T.);
#347=ORIENTED_EDGE('',*,*,#266,.F.);
#348=ORIENTED_EDGE('',*,*,#267,.T.);
#349=ORIENTED_EDGE('',*,*,#268,.F.);
#350=ORIENTED_EDGE('',*,*,#267,.F.);
#351=ORIENTED_EDGE('',*,*,#269,.F.);
#352=ORIENTED_EDGE('',*,*,#270,.T.);
#353=ORIENTED_EDGE('',*,*,#244,.F.);
#354=ORIENTED_EDGE('',*,*,#270,.F.);
#355=ORIENTED_EDGE('',*,*,#240,.F.);
#356=ORIENTED_EDGE('',*,*,#271,.T.);
#357=ORIENTED_EDGE('',*,*,#272,.F.);
#358=ORIENTED_EDGE('',*,*,#273,.F.);
#359=ORIENTED_EDGE('',*,*,#241,.F.);
#360=ORIENTED_EDGE('',*,*,#273,.T.);
#361=ORIENTED_EDGE('',*,*,#274,.F.);
#362=ORIENTED_EDGE('',*,*,#275,.F.);
#363=ORIENTED_EDGE('',*,*,#261,.T.);
#364=ORIENTED_EDGE('',*,*,#255,.T.);
#365=ORIENTED_EDGE('',*,*,#264,.T.);
#366=ORIENTED_EDGE('',*,*,#265,.T.);
#367=ORIENTED_EDGE('',*,*,#242,.F.);
#368=ORIENTED_EDGE('',*,*,#275,.T.);
#369=ORIENTED_EDGE('',*,*,#276,.F.);
#370=ORIENTED_EDGE('',*,*,#277,.F.);
#371=ORIENTED_EDGE('',*,*,#243,.T.);
#372=ORIENTED_EDGE('',*,*,#277,.T.);
#373=ORIENTED_EDGE('',*,*,#278,.F.);
#374=ORIENTED_EDGE('',*,*,#235,.T.);
#375=ORIENTED_EDGE('',*,*,#268,.T.);
#376=ORIENTED_EDGE('',*,*,#237,.F.);
#377=ORIENTED_EDGE('',*,*,#233,.F.);
#378=ORIENTED_EDGE('',*,*,#279,.F.);
#379=ORIENTED_EDGE('',*,*,#280,.F.);
#380=ORIENTED_EDGE('',*,*,#266,.T.);
#381=ORIENTED_EDGE('',*,*,#238,.T.);
#382=ORIENTED_EDGE('',*,*,#280,.T.);
#383=ORIENTED_EDGE('',*,*,#281,.F.);
#384=ORIENTED_EDGE('',*,*,#282,.F.);
#385=ORIENTED_EDGE('',*,*,#239,.F.);
#386=ORIENTED_EDGE('',*,*,#282,.T.);
#387=ORIENTED_EDGE('',*,*,#283,.F.);
#388=ORIENTED_EDGE('',*,*,#271,.F.);
#389=ORIENTED_EDGE('',*,*,#236,.F.);
#390=ORIENTED_EDGE('',*,*,#278,.T.);
#391=ORIENTED_EDGE('',*,*,#276,.T.);
#392=ORIENTED_EDGE('',*,*,#274,.T.);
#393=ORIENTED_EDGE('',*,*,#272,.T.);
#394=ORIENTED_EDGE('',*,*,#283,.T.);
#395=ORIENTED_EDGE('',*,*,#281,.T.);
#396=ORIENTED_EDGE('',*,*,#279,.T.);
#397=ORIENTED_EDGE('',*,*,#269,.T.);
#398=CYLINDRICAL_SURFACE('',#446,2.5);
#399=CYLINDRICAL_SURFACE('',#450,2.5);
#400=CYLINDRICAL_SURFACE('',#460,0.499999999999998);
#401=CYLINDRICAL_SURFACE('',#463,2.5);
#402=CYLINDRICAL_SURFACE('',#469,2.5);
#403=CYLINDRICAL_SURFACE('',#474,0.499999999999998);
#404=CYLINDRICAL_SURFACE('',#477,2.6);
#405=CYLINDRICAL_SURFACE('',#479,6.);
#406=CYLINDRICAL_SURFACE('',#482,7.50000000000001);
#407=CYLINDRICAL_SURFACE('',#486,9.99999999999998);
#408=ADVANCED_FACE('',(#38),#398,.F.);
#409=ADVANCED_FACE('',(#39),#24,.T.);
#410=ADVANCED_FACE('',(#40),#399,.F.);
#411=ADVANCED_FACE('',(#41),#25,.T.);
#412=ADVANCED_FACE('',(#42,#15,#16),#26,.T.);
#413=ADVANCED_FACE('',(#43,#17),#27,.T.);
#414=ADVANCED_FACE('',(#44),#400,.F.);
#415=ADVANCED_FACE('',(#45),#401,.T.);
#416=ADVANCED_FACE('',(#46,#18),#28,.T.);
#417=ADVANCED_FACE('',(#47),#29,.T.);
#418=ADVANCED_FACE('',(#48),#402,.T.);
#419=ADVANCED_FACE('',(#49),#30,.T.);
#420=ADVANCED_FACE('',(#50),#31,.T.);
#421=ADVANCED_FACE('',(#51,#19),#32,.T.);
#422=ADVANCED_FACE('',(#52),#403,.F.);
#423=ADVANCED_FACE('',(#53),#404,.F.);
#424=ADVANCED_FACE('',(#54),#405,.T.);
#425=ADVANCED_FACE('',(#55,#20),#33,.T.);
#426=ADVANCED_FACE('',(#56),#406,.T.);
#427=ADVANCED_FACE('',(#57,#21),#34,.T.);
#428=ADVANCED_FACE('',(#58,#22),#35,.T.);
#429=ADVANCED_FACE('',(#59),#407,.F.);
#430=ADVANCED_FACE('',(#60),#36,.T.);
#431=ADVANCED_FACE('',(#61,#23),#37,.F.);
#432=CLOSED_SHELL('',(#408,#409,#410,#411,#412,#413,#414,#415,#416,#417,
#418,#419,#420,#421,#422,#423,#424,#425,#426,#427,#428,#429,#430,#431));
#433=DERIVED_UNIT_ELEMENT(#435,1.);
#434=DERIVED_UNIT_ELEMENT(#742,-3.);
#435=(
MASS_UNIT()
NAMED_UNIT(*)
SI_UNIT(.KILO.,.GRAM.)
);
#436=DERIVED_UNIT((#433,#434));
#437=MEASURE_REPRESENTATION_ITEM('density measure',
POSITIVE_RATIO_MEASURE(7850.),#436);
#438=PROPERTY_DEFINITION_REPRESENTATION(#443,#440);
#439=PROPERTY_DEFINITION_REPRESENTATION(#444,#441);
#440=REPRESENTATION('material name',(#442),#739);
#441=REPRESENTATION('density',(#437),#739);
#442=DESCRIPTIVE_REPRESENTATION_ITEM('Steel','Steel');
#443=PROPERTY_DEFINITION('material property','material name',#749);
#444=PROPERTY_DEFINITION('material property','density of part',#749);
#445=AXIS2_PLACEMENT_3D('',#617,#490,#491);
#446=AXIS2_PLACEMENT_3D('',#618,#492,#493);
#447=AXIS2_PLACEMENT_3D('',#620,#494,#495);
#448=AXIS2_PLACEMENT_3D('',#623,#497,#498);
#449=AXIS2_PLACEMENT_3D('',#624,#499,#500);
#450=AXIS2_PLACEMENT_3D('',#625,#501,#502);
#451=AXIS2_PLACEMENT_3D('',#627,#503,#504);
#452=AXIS2_PLACEMENT_3D('',#630,#506,#507);
#453=AXIS2_PLACEMENT_3D('',#631,#508,#509);
#454=AXIS2_PLACEMENT_3D('',#632,#510,#511);
#455=AXIS2_PLACEMENT_3D('',#641,#516,#517);
#456=AXIS2_PLACEMENT_3D('',#645,#519,#520);
#457=AXIS2_PLACEMENT_3D('',#649,#522,#523);
#458=AXIS2_PLACEMENT_3D('',#653,#525,#526);
#459=AXIS2_PLACEMENT_3D('',#656,#528,#529);
#460=AXIS2_PLACEMENT_3D('',#657,#530,#531);
#461=AXIS2_PLACEMENT_3D('',#659,#532,#533);
#462=AXIS2_PLACEMENT_3D('',#662,#535,#536);
#463=AXIS2_PLACEMENT_3D('',#663,#537,#538);
#464=AXIS2_PLACEMENT_3D('',#666,#539,#540);
#465=AXIS2_PLACEMENT_3D('',#670,#542,#543);
#466=AXIS2_PLACEMENT_3D('',#672,#545,#546);
#467=AXIS2_PLACEMENT_3D('',#676,#548,#549);
#468=AXIS2_PLACEMENT_3D('',#682,#553,#554);
#469=AXIS2_PLACEMENT_3D('',#686,#557,#558);
#470=AXIS2_PLACEMENT_3D('',#688,#559,#560);
#471=AXIS2_PLACEMENT_3D('',#690,#562,#563);
#472=AXIS2_PLACEMENT_3D('',#694,#566,#567);
#473=AXIS2_PLACEMENT_3D('',#698,#570,#571);
#474=AXIS2_PLACEMENT_3D('',#700,#573,#574);
#475=AXIS2_PLACEMENT_3D('',#702,#575,#576);
#476=AXIS2_PLACEMENT_3D('',#705,#578,#579);
#477=AXIS2_PLACEMENT_3D('',#706,#580,#581);
#478=AXIS2_PLACEMENT_3D('',#708,#582,#583);
#479=AXIS2_PLACEMENT_3D('',#710,#585,#586);
#480=AXIS2_PLACEMENT_3D('',#714,#588,#589);
#481=AXIS2_PLACEMENT_3D('',#716,#591,#592);
#482=AXIS2_PLACEMENT_3D('',#720,#595,#596);
#483=AXIS2_PLACEMENT_3D('',#722,#597,#598);
#484=AXIS2_PLACEMENT_3D('',#724,#600,#601);
#485=AXIS2_PLACEMENT_3D('',#726,#603,#604);
#486=AXIS2_PLACEMENT_3D('',#730,#607,#608);
#487=AXIS2_PLACEMENT_3D('',#732,#609,#610);
#488=AXIS2_PLACEMENT_3D('',#734,#612,#613);
#489=AXIS2_PLACEMENT_3D('',#736,#615,#616);
#490=DIRECTION('axis',(0.,0.,1.));
#491=DIRECTION('refdir',(1.,0.,0.));
#492=DIRECTION('center_axis',(0.,-0.342020143325668,-0.939692620785909));
#493=DIRECTION('ref_axis',(-1.,-4.35363568143556E-32,1.58459379888179E-32));
#494=DIRECTION('center_axis',(5.6957795700863E-17,-0.342020143325669,-0.939692620785908));
#495=DIRECTION('ref_axis',(-1.,-4.35363568143556E-32,1.58459379888179E-32));
#496=DIRECTION('',(0.,-0.342020143325668,-0.939692620785909));
#497=DIRECTION('center_axis',(1.23259516440783E-32,-0.342020143325669,-0.939692620785908));
#498=DIRECTION('ref_axis',(-1.,-4.93038065763133E-32,0.));
#499=DIRECTION('center_axis',(-1.23259516440783E-32,0.342020143325669,0.939692620785908));
#500=DIRECTION('ref_axis',(-1.,-4.93038065763132E-32,0.));
#501=DIRECTION('center_axis',(0.,-0.342020143325668,-0.939692620785909));
#502=DIRECTION('ref_axis',(-1.,-4.35363568143554E-32,1.58459379888179E-32));
#503=DIRECTION('center_axis',(5.6957795700863E-17,-0.342020143325669,-0.939692620785908));
#504=DIRECTION('ref_axis',(-1.,-4.35363568143554E-32,1.58459379888179E-32));
#505=DIRECTION('',(0.,-0.342020143325668,-0.939692620785909));
#506=DIRECTION('center_axis',(1.23259516440783E-32,-0.342020143325669,-0.939692620785908));
#507=DIRECTION('ref_axis',(-1.,-4.93038065763132E-32,0.));
#508=DIRECTION('center_axis',(-1.23259516440783E-32,0.342020143325669,0.939692620785908));
#509=DIRECTION('ref_axis',(-1.,-4.93038065763132E-32,0.));
#510=DIRECTION('center_axis',(-5.6957795700863E-17,0.342020143325669,0.939692620785908));
#511=DIRECTION('ref_axis',(1.,0.,6.06132201540825E-17));
#512=DIRECTION('',(-1.,2.14478618485241E-16,1.28992821994434E-30));
#513=DIRECTION('',(-2.01543975106936E-16,-0.939692620785909,0.342020143325669));
#514=DIRECTION('',(-1.,2.14478618485241E-16,1.28992821994434E-30));
#515=DIRECTION('',(2.01543975106936E-16,0.939692620785909,-0.342020143325669));
#516=DIRECTION('center_axis',(-1.,2.14478618485241E-16,1.28992821994434E-30));
#517=DIRECTION('ref_axis',(-2.01543975106936E-16,-0.939692620785908,0.342020143325669));
#518=DIRECTION('',(-1.37743568896097E-15,-0.342020142401507,-0.939692621122276));
#519=DIRECTION('center_axis',(-1.,-2.57289456029889E-15,-2.32246109883307E-15));
#520=DIRECTION('ref_axis',(3.46568103648052E-15,-0.732243946895937,-0.6810424379099));
#521=DIRECTION('',(-5.16423023092832E-17,0.681042437909899,-0.732243946895938));
#522=DIRECTION('center_axis',(-1.,5.82494175186633E-18,7.59437276011519E-17));
#523=DIRECTION('ref_axis',(5.59861797282794E-17,0.732243946895937,0.6810424379099));
#524=DIRECTION('',(5.16423023092834E-17,-0.681042437909899,0.732243946895938));
#525=DIRECTION('center_axis',(-1.,5.82494175186554E-18,7.59437276011514E-17));
#526=DIRECTION('ref_axis',(-5.59861797282783E-17,-0.732243946895939,-0.681042437909898));
#527=DIRECTION('',(-7.33560078547758E-17,-0.342020142401498,-0.939692621122279));
#528=DIRECTION('center_axis',(1.,-5.82494175186633E-18,-7.59437276011519E-17));
#529=DIRECTION('ref_axis',(-5.82494175186635E-18,-1.,-4.2700885562506E-16));
#530=DIRECTION('center_axis',(-1.,0.,0.));
#531=DIRECTION('ref_axis',(0.,1.,0.));
#532=DIRECTION('center_axis',(-1.,0.,0.));
#533=DIRECTION('ref_axis',(0.,1.,0.));
#534=DIRECTION('',(-1.,0.,0.));
#535=DIRECTION('center_axis',(1.,0.,0.));
#536=DIRECTION('ref_axis',(0.,1.,0.));
#537=DIRECTION('center_axis',(1.,0.,0.));
#538=DIRECTION('ref_axis',(0.,-0.0362049342110127,-0.999344386454828));
#539=DIRECTION('center_axis',(-1.,0.,0.));
#540=DIRECTION('ref_axis',(0.,-0.0362049342110127,-0.999344386454828));
#541=DIRECTION('',(-1.,0.,0.));
#542=DIRECTION('center_axis',(1.,0.,0.));
#543=DIRECTION('ref_axis',(0.,-0.0362049342110127,-0.999344386454828));
#544=DIRECTION('',(1.,0.,0.));
#545=DIRECTION('center_axis',(-1.,0.,0.));
#546=DIRECTION('ref_axis',(0.,0.681042437909899,-0.732243946895938));
#547=DIRECTION('',(0.,0.6810424379099,-0.732243946895938));
#548=DIRECTION('center_axis',(1.,0.,0.));
#549=DIRECTION('ref_axis',(0.,-0.999344386454828,0.0362049342110102));
#550=DIRECTION('',(0.,-0.732243946895938,-0.681042437909899));
#551=DIRECTION('',(0.,-0.681042437909899,0.732243946895938));
#552=DIRECTION('',(0.,-0.732243946895938,-0.681042437909899));
#553=DIRECTION('center_axis',(0.,-0.732243946895938,-0.681042437909899));
#554=DIRECTION('ref_axis',(-1.,0.,0.));
#555=DIRECTION('',(0.,-0.6810424379099,0.732243946895938));
#556=DIRECTION('',(1.,0.,0.));
#557=DIRECTION('center_axis',(-1.,0.,0.));
#558=DIRECTION('ref_axis',(0.,-0.999344386454828,0.0362049342110102));
#559=DIRECTION('center_axis',(-1.,0.,0.));
#560=DIRECTION('ref_axis',(0.,-0.999344386454828,0.0362049342110102));
#561=DIRECTION('',(-1.,0.,0.));
#562=DIRECTION('center_axis',(0.,0.681042437909899,-0.732243946895938));
#563=DIRECTION('ref_axis',(1.,0.,0.));
#564=DIRECTION('',(-1.,-1.08847110776901E-15,-1.01236073028931E-15));
#565=DIRECTION('',(0.,-0.732243946895938,-0.681042437909899));
#566=DIRECTION('center_axis',(0.,-0.681042437909899,0.732243946895938));
#567=DIRECTION('ref_axis',(-1.,0.,0.));
#568=DIRECTION('',(0.,-0.732243946895938,-0.681042437909899));
#569=DIRECTION('',(1.,1.08847110776901E-15,1.01236073028931E-15));
#570=DIRECTION('center_axis',(1.,0.,0.));
#571=DIRECTION('ref_axis',(0.,-0.681042437909899,0.732243946895938));
#572=DIRECTION('',(0.,0.681042437909899,-0.732243946895938));
#573=DIRECTION('center_axis',(2.0500629818095E-17,-0.939692620785908,0.342020143325669));
#574=DIRECTION('ref_axis',(-1.,-2.18163145741736E-17,9.17829776685944E-32));
#575=DIRECTION('center_axis',(6.01570496141155E-15,-0.939692621122276,0.342020142401507));
#576=DIRECTION('ref_axis',(-1.,-5.65546558506936E-15,2.05048064475575E-15));
#577=DIRECTION('',(2.0500629818095E-17,-0.939692620785908,0.342020143325669));
#578=DIRECTION('center_axis',(-6.01570496141153E-15,0.939692621122279,-0.342020142401498));
#579=DIRECTION('ref_axis',(-1.,-5.65546558506935E-15,2.05048064475575E-15));
#580=DIRECTION('center_axis',(1.,5.17216196444234E-15,-3.37834643323247E-15));
#581=DIRECTION('ref_axis',(5.17216196444233E-15,-1.,-4.2700885562506E-16));
#582=DIRECTION('center_axis',(-1.,5.82494175186633E-18,7.59437276011519E-17));
#583=DIRECTION('ref_axis',(-5.82494175186635E-18,-1.,-4.2700885562506E-16));
#584=DIRECTION('',(-1.,-5.17216196444234E-15,3.37834643323247E-15));
#585=DIRECTION('center_axis',(1.,5.17216196444234E-15,-3.37834643323247E-15));
#586=DIRECTION('ref_axis',(-5.99623550870543E-15,0.681042432454258,-0.732243951970098));
#587=DIRECTION('',(1.,5.17216196444234E-15,-3.37834643323247E-15));
#588=DIRECTION('center_axis',(1.,-5.82494175186633E-18,-7.59437276011519E-17));
#589=DIRECTION('ref_axis',(5.59861797282794E-17,0.732243946895937,0.6810424379099));
#590=DIRECTION('',(1.,5.17216196444234E-15,-3.37834643323247E-15));
#591=DIRECTION('center_axis',(1.48648699983545E-15,-0.732243946895938,-0.681042437909899));
#592=DIRECTION('ref_axis',(-5.16423023092834E-17,0.681042437909899,-0.732243946895938));
#593=DIRECTION('',(-5.16423023092834E-17,0.681042437909899,-0.732243946895938));
#594=DIRECTION('',(1.,5.17216196444234E-15,-3.37834643323247E-15));
#595=DIRECTION('center_axis',(1.,5.17216196444234E-15,-3.37834643323247E-15));
#596=DIRECTION('ref_axis',(1.48648699983546E-15,-0.732243946895939,-0.681042437909898));
#597=DIRECTION('center_axis',(1.,-5.82494175186554E-18,-7.59437276011514E-17));
#598=DIRECTION('ref_axis',(-5.59861797282783E-17,-0.732243946895939,-0.681042437909898));
#599=DIRECTION('',(1.,5.17216196444234E-15,-3.37834643323247E-15));
#600=DIRECTION('center_axis',(6.01570496141153E-15,-0.939692621122279,0.342020142401498));
#601=DIRECTION('ref_axis',(-7.33560078547758E-17,-0.342020142401498,-0.939692621122279));
#602=DIRECTION('',(-7.33560078547758E-17,-0.342020142401498,-0.939692621122279));
#603=DIRECTION('center_axis',(-6.01570496141155E-15,0.939692621122276,-0.342020142401507));
#604=DIRECTION('ref_axis',(1.37743568896097E-15,0.342020142401507,0.939692621122276));
#605=DIRECTION('',(1.37743568896097E-15,0.342020142401507,0.939692621122276));
#606=DIRECTION('',(1.,5.17216196444234E-15,-3.37834643323247E-15));
#607=DIRECTION('center_axis',(1.,5.17216196444234E-15,-3.37834643323247E-15));
#608=DIRECTION('ref_axis',(1.48648699983545E-15,-0.732243946895937,-0.6810424379099));
#609=DIRECTION('center_axis',(-1.,-2.57289456029889E-15,-2.32246109883307E-15));
#610=DIRECTION('ref_axis',(3.46568103648052E-15,-0.732243946895937,-0.6810424379099));
#611=DIRECTION('',(1.,5.17216196444234E-15,-3.37834643323247E-15));
#612=DIRECTION('center_axis',(-1.48648699983545E-15,0.732243946895938,0.681042437909899));
#613=DIRECTION('ref_axis',(5.16423023092832E-17,-0.681042437909899,0.732243946895938));
#614=DIRECTION('',(5.16423023092832E-17,-0.681042437909899,0.732243946895938));
#615=DIRECTION('center_axis',(-1.,2.14478618485241E-16,1.28992821994434E-30));
#616=DIRECTION('ref_axis',(-2.01543975106936E-16,-0.939692620785908,0.342020143325669));
#617=CARTESIAN_POINT('',(0.,0.,0.));
#618=CARTESIAN_POINT('Origin',(32.9618551013977,-55.5239186346208,45.9361635431441));
#619=CARTESIAN_POINT('',(35.4618551013977,-55.5239186346208,45.9361635431441));
#620=CARTESIAN_POINT('Origin',(32.9618551013977,-55.5239186346208,45.936163543144));
#621=CARTESIAN_POINT('',(35.4618551013977,-56.2079589212721,44.0567783015722));
#622=CARTESIAN_POINT('',(35.4618551013977,-55.5239186346208,45.9361635431441));
#623=CARTESIAN_POINT('Origin',(32.9618551013977,-56.2079589212721,44.0567783015722));
#624=CARTESIAN_POINT('Origin',(32.9618551013977,-56.2079589212721,44.0567783015722));
#625=CARTESIAN_POINT('Origin',(32.9618551013977,-42.3682219436181,41.1478815365847));
#626=CARTESIAN_POINT('',(35.4618551013977,-42.3682219436181,41.1478815365847));
#627=CARTESIAN_POINT('Origin',(32.9618551013977,-42.3682219436181,41.1478815365847));
#628=CARTESIAN_POINT('',(35.4618551013977,-43.0522622302694,39.2684962950129));
#629=CARTESIAN_POINT('',(35.4618551013977,-42.3682219436181,41.1478815365847));
#630=CARTESIAN_POINT('Origin',(32.9618551013977,-43.0522622302694,39.2684962950129));
#631=CARTESIAN_POINT('Origin',(32.9618551013977,-43.0522622302694,39.2684962950129));
#632=CARTESIAN_POINT('Origin',(32.9618551013977,-40.7138994635718,40.5457573959704));
#633=CARTESIAN_POINT('',(42.9618551013977,-34.9117609425741,38.4339516792379));
#634=CARTESIAN_POINT('',(22.9618551013977,-34.9117609425741,38.4339516792379));
#635=CARTESIAN_POINT('',(42.9618551013977,-34.9117609425741,38.4339516792379));
#636=CARTESIAN_POINT('',(22.9618551013977,-62.9803796373515,48.6500933958565));
#637=CARTESIAN_POINT('',(22.9618551013977,-43.4286916333593,41.533860937992));
#638=CARTESIAN_POINT('',(42.9618551013977,-62.9803796373515,48.6500933958565));
#639=CARTESIAN_POINT('',(42.9618551013977,-62.9803796373515,48.6500933958565));
#640=CARTESIAN_POINT('',(42.9618551013977,-43.4286916333593,41.533860937992));
#641=CARTESIAN_POINT('Origin',(22.9618551013977,-32.2916680005088,80.5795156162064));
#642=CARTESIAN_POINT('',(22.9618551013977,-37.6146771426939,31.0077504300065));
#643=CARTESIAN_POINT('',(22.9618551013977,-34.9117609425741,38.4339516792379));
#644=CARTESIAN_POINT('',(22.9618551013977,-35.5401904004305,20.7771246268924));
#645=CARTESIAN_POINT('Origin',(22.9618551013976,-28.2177509314712,27.5875490059914));
#646=CARTESIAN_POINT('',(22.9618551013977,-29.3189787073417,14.0881954926038));
#647=CARTESIAN_POINT('',(22.9618551013977,-35.5401904004305,20.7771246268924));
#648=CARTESIAN_POINT('',(22.9618551013977,-38.1059061309829,5.91568630315269));
#649=CARTESIAN_POINT('Origin',(22.9618551013977,-33.7124423887173,10.0019408651444));
#650=CARTESIAN_POINT('',(22.9618551013977,-64.0378034709406,33.7971718049755));
#651=CARTESIAN_POINT('',(22.9618551013977,-38.105906070093,5.91568623768498));
#652=CARTESIAN_POINT('',(22.9618551013977,-65.5936685276382,41.470141157311));
#653=CARTESIAN_POINT('Origin',(22.9618551013977,-58.5459738692211,38.9049900892998));
#654=CARTESIAN_POINT('',(22.9618551013977,-62.9803796373515,48.6500933958564));
#655=CARTESIAN_POINT('',(22.9618551013977,-31.1124423887173,10.0019408651444));
#656=CARTESIAN_POINT('Origin',(22.9618551013977,-33.7124423887173,10.0019408651444));
#657=CARTESIAN_POINT('Origin',(34.2118551013976,-52.9024646682016,18.1538229592894));
#658=CARTESIAN_POINT('',(34.2118551013976,-53.4024646682016,18.1538229592894));
#659=CARTESIAN_POINT('Origin',(34.2118551013976,-52.9024646682016,18.1538229592894));
#660=CARTESIAN_POINT('',(31.7118551013976,-53.4024646682016,18.1538229592894));
#661=CARTESIAN_POINT('',(34.2118551013976,-53.4024646682016,18.1538229592894));
#662=CARTESIAN_POINT('Origin',(31.7118551013976,-52.9024646682016,18.1538229592894));
#663=CARTESIAN_POINT('Origin',(32.3368551013976,-51.1998585734268,16.3232130920495));
#664=CARTESIAN_POINT('',(34.2118551013976,-49.4972524786521,14.4926032248097));
#665=CARTESIAN_POINT('',(34.2118551013976,-53.0304684406667,14.6206069972748));
#666=CARTESIAN_POINT('Origin',(34.2118551013976,-51.1998585734268,16.3232130920495));
#667=CARTESIAN_POINT('',(31.7118551013976,-53.0304684406667,14.6206069972748));
#668=CARTESIAN_POINT('',(32.3368551013976,-53.0304684406667,14.6206069972748));
#669=CARTESIAN_POINT('',(31.7118551013976,-49.4972524786521,14.4926032248097));
#670=CARTESIAN_POINT('Origin',(31.7118551013976,-51.1998585734268,16.3232130920495));
#671=CARTESIAN_POINT('',(32.3368551013976,-49.4972524786521,14.4926032248097));
#672=CARTESIAN_POINT('Origin',(31.7118551013976,-54.4770669905112,23.5176487885438));
#673=CARTESIAN_POINT('',(31.7118551013976,-56.4356806302162,18.2818267317544));
#674=CARTESIAN_POINT('',(31.7118551013976,-58.1382867249909,20.1124365989943));
#675=CARTESIAN_POINT('',(31.7118551013976,-56.3076768577511,21.815042693769));
#676=CARTESIAN_POINT('Origin',(31.7118551013976,-54.6050707629763,19.9844328265292));
#677=CARTESIAN_POINT('',(31.7118551013976,-54.4770669905112,23.5176487885438));
#678=CARTESIAN_POINT('',(31.7118551013976,-54.4770669905112,23.5176487885438));
#679=CARTESIAN_POINT('',(31.7118551013976,-47.6666426114122,16.1952093195844));
#680=CARTESIAN_POINT('',(31.7118551013976,-59.257435230726,28.6574102967597));
#681=CARTESIAN_POINT('',(31.7118551013976,-47.6666426114122,16.1952093195844));
#682=CARTESIAN_POINT('Origin',(32.9618551013976,-54.7330745354414,16.4512168645146));
#683=CARTESIAN_POINT('',(34.2118551013976,-56.4356806302162,18.2818267317544));
#684=CARTESIAN_POINT('',(34.2118551013976,-51.3278623458919,12.7899971300349));
#685=CARTESIAN_POINT('',(33.5868551013976,-56.4356806302162,18.2818267317544));
#686=CARTESIAN_POINT('Origin',(33.5868551013976,-54.6050707629763,19.9844328265292));
#687=CARTESIAN_POINT('',(34.2118551013976,-56.3076768577511,21.815042693769));
#688=CARTESIAN_POINT('Origin',(34.2118551013976,-54.6050707629763,19.9844328265292));
#689=CARTESIAN_POINT('',(33.5868551013976,-56.3076768577511,21.815042693769));
#690=CARTESIAN_POINT('Origin',(31.7118551013976,-47.6666426114122,16.1952093195844));
#691=CARTESIAN_POINT('',(34.2118551013976,-47.6666426114122,16.1952093195844));
#692=CARTESIAN_POINT('',(27.3368551013976,-47.6666426114123,16.1952093195844));
#693=CARTESIAN_POINT('',(34.2118551013976,-47.6666426114122,16.1952093195844));
#694=CARTESIAN_POINT('Origin',(34.2118551013976,-54.4770669905112,23.5176487885438));
#695=CARTESIAN_POINT('',(34.2118551013976,-54.4770669905112,23.5176487885438));
#696=CARTESIAN_POINT('',(34.2118551013976,-54.4770669905112,23.5176487885438));
#697=CARTESIAN_POINT('',(28.5868551013976,-54.4770669905113,23.5176487885438));
#698=CARTESIAN_POINT('Origin',(34.2118551013976,-47.6666426114122,16.1952093195844));
#699=CARTESIAN_POINT('',(34.2118551013976,-55.8522230411765,24.99619056228));
#700=CARTESIAN_POINT('Origin',(32.9618551013977,-36.2632190239434,34.7208510478194));
#701=CARTESIAN_POINT('',(33.4618551013977,-36.2632190239434,34.7208510478194));
#702=CARTESIAN_POINT('Origin',(32.9618551013977,-36.263219042634,34.7208510546222));
#703=CARTESIAN_POINT('',(33.4618551013977,-64.3318377357245,44.9369927758751));
#704=CARTESIAN_POINT('',(33.4618551013977,-36.2632190239434,34.7208510478194));
#705=CARTESIAN_POINT('Origin',(32.9618551013977,-64.3318377357245,44.9369927758751));
#706=CARTESIAN_POINT('Origin',(22.9618551013977,-33.7124423887173,10.0019408651444));
#707=CARTESIAN_POINT('',(42.9618551013977,-31.1124423887172,10.0019408651443));
#708=CARTESIAN_POINT('Origin',(42.9618551013977,-33.7124423887172,10.0019408651443));
#709=CARTESIAN_POINT('',(22.9618551013977,-31.1124423887173,10.0019408651444));
#710=CARTESIAN_POINT('Origin',(22.9618551013977,-33.7124423887173,10.0019408651444));
#711=CARTESIAN_POINT('',(42.9618551013977,-29.3189787073416,14.0881954926037));
#712=CARTESIAN_POINT('',(22.9618551013977,-29.3189787073417,14.0881954926038));
#713=CARTESIAN_POINT('',(42.9618551013977,-38.1059061309828,5.91568630315262));
#714=CARTESIAN_POINT('Origin',(42.9618551013977,-33.7124423887172,10.0019408651443));
#715=CARTESIAN_POINT('',(22.9618551013977,-38.1059061309829,5.91568630315269));
#716=CARTESIAN_POINT('Origin',(22.9618551013977,-64.0378034709407,33.7971718049755));
#717=CARTESIAN_POINT('',(42.9618551013977,-64.0378034709406,33.7971718049754));
#718=CARTESIAN_POINT('',(42.9618551013977,-38.1059060700929,5.91568623768491));
#719=CARTESIAN_POINT('',(22.9618551013977,-64.0378034709406,33.7971718049755));
#720=CARTESIAN_POINT('Origin',(22.9618551013977,-58.5459738692211,38.9049900892998));
#721=CARTESIAN_POINT('',(42.9618551013977,-65.5936685276381,41.4701411573109));
#722=CARTESIAN_POINT('Origin',(42.9618551013977,-58.545973869221,38.9049900892997));
#723=CARTESIAN_POINT('',(22.9618551013977,-65.5936685276382,41.470141157311));
#724=CARTESIAN_POINT('Origin',(22.9618551013977,-62.9803796373515,48.6500933958564));
#725=CARTESIAN_POINT('',(42.9618551013977,-62.9803796373514,48.6500933958564));
#726=CARTESIAN_POINT('Origin',(22.9618551013977,-37.6146771426939,31.0077504300065));
#727=CARTESIAN_POINT('',(42.9618551013977,-37.6146771426938,31.0077504300064));
#728=CARTESIAN_POINT('',(42.9618551013977,-34.911760942574,38.4339516792378));
#729=CARTESIAN_POINT('',(22.9618551013977,-37.6146771426939,31.0077504300065));
#730=CARTESIAN_POINT('Origin',(22.9618551013976,-28.2177509314712,27.5875490059914));
#731=CARTESIAN_POINT('',(42.9618551013977,-35.5401904004304,20.7771246268924));
#732=CARTESIAN_POINT('Origin',(42.9618551013976,-28.217750931471,27.5875490059914));
#733=CARTESIAN_POINT('',(22.9618551013977,-35.5401904004305,20.7771246268924));
#734=CARTESIAN_POINT('Origin',(22.9618551013977,-29.3189787073417,14.0881954926038));
#735=CARTESIAN_POINT('',(42.9618551013977,-35.5401904004304,20.7771246268924));
#736=CARTESIAN_POINT('Origin',(42.9618551013977,-32.2916680005088,80.5795156162064));
#737=UNCERTAINTY_MEASURE_WITH_UNIT(LENGTH_MEASURE(0.01),#741,
'DISTANCE_ACCURACY_VALUE',
'Maximum model space distance between geometric entities at asserted c
onnectivities');
#738=UNCERTAINTY_MEASURE_WITH_UNIT(LENGTH_MEASURE(0.01),#741,
'DISTANCE_ACCURACY_VALUE',
'Maximum model space distance between geometric entities at asserted c
onnectivities');
#739=(
GEOMETRIC_REPRESENTATION_CONTEXT(3)
GLOBAL_UNCERTAINTY_ASSIGNED_CONTEXT((#737))
GLOBAL_UNIT_ASSIGNED_CONTEXT((#741,#743,#744))
REPRESENTATION_CONTEXT('','3D')
);
#740=(
GEOMETRIC_REPRESENTATION_CONTEXT(3)
GLOBAL_UNCERTAINTY_ASSIGNED_CONTEXT((#738))
GLOBAL_UNIT_ASSIGNED_CONTEXT((#741,#743,#744))
REPRESENTATION_CONTEXT('','3D')
);
#741=(
LENGTH_UNIT()
NAMED_UNIT(*)
SI_UNIT(.MILLI.,.METRE.)
);
#742=(
LENGTH_UNIT()
NAMED_UNIT(*)
SI_UNIT($,.METRE.)
);
#743=(
NAMED_UNIT(*)
PLANE_ANGLE_UNIT()
SI_UNIT($,.RADIAN.)
);
#744=(
NAMED_UNIT(*)
SI_UNIT($,.STERADIAN.)
SOLID_ANGLE_UNIT()
);
#745=SHAPE_DEFINITION_REPRESENTATION(#746,#747);
#746=PRODUCT_DEFINITION_SHAPE('',$,#749);
#747=SHAPE_REPRESENTATION('',(#445),#739);
#748=PRODUCT_DEFINITION_CONTEXT('part definition',#753,'design');
#749=PRODUCT_DEFINITION('2026-06-20-22-12-03-215','FusionComponent',#750,
#748);
#750=PRODUCT_DEFINITION_FORMATION('',$,#755);
#751=PRODUCT_RELATED_PRODUCT_CATEGORY('FusionComponent',
'FusionComponent',(#755));
#752=APPLICATION_PROTOCOL_DEFINITION('international standard',
'automotive_design',2009,#753);
#753=APPLICATION_CONTEXT(
'Core Data for Automotive Mechanical Design Process');
#754=PRODUCT_CONTEXT('part definition',#753,'mechanical');
#755=PRODUCT('2026-06-20-22-12-03-215','FusionComponent',$,(#754));
#756=PRESENTATION_STYLE_ASSIGNMENT((#757));
#757=SURFACE_STYLE_USAGE(.BOTH.,#758);
#758=SURFACE_SIDE_STYLE('',(#759));
#759=SURFACE_STYLE_FILL_AREA(#760);
#760=FILL_AREA_STYLE('Steel - Satin',(#761));
#761=FILL_AREA_STYLE_COLOUR('Steel - Satin',#762);
#762=COLOUR_RGB('Steel - Satin',0.627450980392157,0.627450980392157,0.627450980392157);
ENDSEC;
END-ISO-10303-21;
