ISO-10303-21;
HEADER;
/* Generated by software containing ST-Developer
 * from STEP Tools, Inc. (www.steptools.com) 
 */

FILE_DESCRIPTION(
/* description */ (''),
/* implementation_level */ '2;1');

FILE_NAME(
/* name */ 'Electronics Hub Part D.step',
/* time_stamp */ '2026-06-20T12:35:21-05:00',
/* author */ (''),
/* organization */ (''),
/* preprocessor_version */ 'ST-DEVELOPER v20.1',
/* originating_system */ 'Autodesk Translation Framework v15.8.0.0',
/* authorisation */ '');

FILE_SCHEMA (('AUTOMOTIVE_DESIGN { 1 0 10303 214 3 1 1 }'));
ENDSEC;

DATA;
#10=MECHANICAL_DESIGN_GEOMETRIC_PRESENTATION_REPRESENTATION('',(#13),#1433);
#11=SHAPE_REPRESENTATION_RELATIONSHIP('SRR','None',#1440,#12);
#12=ADVANCED_BREP_SHAPE_REPRESENTATION('',(#14),#1432);
#13=STYLED_ITEM('',(#1449),#14);
#14=MANIFOLD_SOLID_BREP('Body1',#828);
#15=TOROIDAL_SURFACE('',#887,22.5,2.5);
#16=TOROIDAL_SURFACE('',#903,22.5,2.5);
#17=TOROIDAL_SURFACE('',#908,22.5,2.5);
#18=FACE_BOUND('',#110,.T.);
#19=FACE_BOUND('',#114,.T.);
#20=FACE_BOUND('',#115,.T.);
#21=FACE_BOUND('',#134,.T.);
#22=FACE_BOUND('',#135,.T.);
#23=ELLIPSE('',#848,2.88675134594813,2.5);
#24=B_SPLINE_CURVE_WITH_KNOTS('',3,(#1206,#1207,#1208,#1209,#1210,#1211,
#1212,#1213,#1214,#1215),.UNSPECIFIED.,.F.,.F.,(4,2,2,2,4),(0.757200472606962,
0.84823452867648,0.941899474522952,1.03839312255098,1.13665372319105),
 .UNSPECIFIED.);
#25=B_SPLINE_CURVE_WITH_KNOTS('',3,(#1378,#1379,#1380,#1381,#1382,#1383,
#1384,#1385,#1386,#1387,#1388,#1389,#1390,#1391),.UNSPECIFIED.,.F.,.F.,
(4,2,2,2,2,2,4),(2.01184353941462,2.27874292039959,2.55265727850093,2.82657163660227,
3.10048599470361,3.37440035280495,3.64129973378993),.UNSPECIFIED.);
#26=CYLINDRICAL_SURFACE('',#844,30.);
#27=CYLINDRICAL_SURFACE('',#849,1.);
#28=CYLINDRICAL_SURFACE('',#855,1.);
#29=CYLINDRICAL_SURFACE('',#864,5.00000000000008);
#30=CYLINDRICAL_SURFACE('',#867,5.);
#31=CYLINDRICAL_SURFACE('',#869,5.);
#32=CYLINDRICAL_SURFACE('',#877,2.5);
#33=CYLINDRICAL_SURFACE('',#885,20.);
#34=CYLINDRICAL_SURFACE('',#898,5.);
#35=CYLINDRICAL_SURFACE('',#900,5.);
#36=CYLINDRICAL_SURFACE('',#906,2.5);
#37=CYLINDRICAL_SURFACE('',#911,2.5);
#38=CYLINDRICAL_SURFACE('',#913,20.);
#39=CYLINDRICAL_SURFACE('',#915,20.);
#40=CYLINDRICAL_SURFACE('',#916,0.500000000000007);
#41=CYLINDRICAL_SURFACE('',#919,0.499999999999998);
#42=CYLINDRICAL_SURFACE('',#921,0.500000000000007);
#43=FACE_OUTER_BOUND('',#87,.T.);
#44=FACE_OUTER_BOUND('',#88,.T.);
#45=FACE_OUTER_BOUND('',#89,.T.);
#46=FACE_OUTER_BOUND('',#90,.T.);
#47=FACE_OUTER_BOUND('',#91,.T.);
#48=FACE_OUTER_BOUND('',#92,.T.);
#49=FACE_OUTER_BOUND('',#93,.T.);
#50=FACE_OUTER_BOUND('',#94,.T.);
#51=FACE_OUTER_BOUND('',#95,.T.);
#52=FACE_OUTER_BOUND('',#96,.T.);
#53=FACE_OUTER_BOUND('',#97,.T.);
#54=FACE_OUTER_BOUND('',#98,.T.);
#55=FACE_OUTER_BOUND('',#99,.T.);
#56=FACE_OUTER_BOUND('',#100,.T.);
#57=FACE_OUTER_BOUND('',#101,.T.);
#58=FACE_OUTER_BOUND('',#102,.T.);
#59=FACE_OUTER_BOUND('',#103,.T.);
#60=FACE_OUTER_BOUND('',#104,.T.);
#61=FACE_OUTER_BOUND('',#105,.T.);
#62=FACE_OUTER_BOUND('',#106,.T.);
#63=FACE_OUTER_BOUND('',#107,.T.);
#64=FACE_OUTER_BOUND('',#108,.T.);
#65=FACE_OUTER_BOUND('',#109,.T.);
#66=FACE_OUTER_BOUND('',#111,.T.);
#67=FACE_OUTER_BOUND('',#112,.T.);
#68=FACE_OUTER_BOUND('',#113,.T.);
#69=FACE_OUTER_BOUND('',#116,.T.);
#70=FACE_OUTER_BOUND('',#117,.T.);
#71=FACE_OUTER_BOUND('',#118,.T.);
#72=FACE_OUTER_BOUND('',#119,.T.);
#73=FACE_OUTER_BOUND('',#120,.T.);
#74=FACE_OUTER_BOUND('',#121,.T.);
#75=FACE_OUTER_BOUND('',#122,.T.);
#76=FACE_OUTER_BOUND('',#123,.T.);
#77=FACE_OUTER_BOUND('',#124,.T.);
#78=FACE_OUTER_BOUND('',#125,.T.);
#79=FACE_OUTER_BOUND('',#126,.T.);
#80=FACE_OUTER_BOUND('',#127,.T.);
#81=FACE_OUTER_BOUND('',#128,.T.);
#82=FACE_OUTER_BOUND('',#129,.T.);
#83=FACE_OUTER_BOUND('',#130,.T.);
#84=FACE_OUTER_BOUND('',#131,.T.);
#85=FACE_OUTER_BOUND('',#132,.T.);
#86=FACE_OUTER_BOUND('',#133,.T.);
#87=EDGE_LOOP('',(#524,#525,#526));
#88=EDGE_LOOP('',(#527,#528,#529,#530));
#89=EDGE_LOOP('',(#531,#532,#533,#534,#535,#536,#537,#538,#539,#540,#541,
#542));
#90=EDGE_LOOP('',(#543,#544,#545,#546,#547,#548,#549,#550,#551,#552,#553,
#554,#555,#556,#557,#558,#559,#560));
#91=EDGE_LOOP('',(#561,#562,#563,#564));
#92=EDGE_LOOP('',(#565,#566,#567,#568,#569,#570));
#93=EDGE_LOOP('',(#571,#572,#573,#574));
#94=EDGE_LOOP('',(#575,#576,#577,#578));
#95=EDGE_LOOP('',(#579,#580,#581,#582));
#96=EDGE_LOOP('',(#583,#584,#585,#586,#587,#588));
#97=EDGE_LOOP('',(#589,#590,#591,#592,#593,#594));
#98=EDGE_LOOP('',(#595,#596,#597,#598));
#99=EDGE_LOOP('',(#599,#600,#601,#602));
#100=EDGE_LOOP('',(#603,#604,#605,#606));
#101=EDGE_LOOP('',(#607,#608,#609,#610));
#102=EDGE_LOOP('',(#611,#612,#613,#614));
#103=EDGE_LOOP('',(#615,#616,#617,#618,#619,#620,#621,#622));
#104=EDGE_LOOP('',(#623,#624,#625,#626));
#105=EDGE_LOOP('',(#627,#628,#629,#630,#631,#632,#633,#634,#635));
#106=EDGE_LOOP('',(#636,#637,#638,#639,#640,#641,#642,#643,#644,#645));
#107=EDGE_LOOP('',(#646,#647,#648,#649));
#108=EDGE_LOOP('',(#650,#651,#652,#653));
#109=EDGE_LOOP('',(#654,#655,#656,#657,#658,#659,#660));
#110=EDGE_LOOP('',(#661));
#111=EDGE_LOOP('',(#662,#663,#664,#665));
#112=EDGE_LOOP('',(#666,#667,#668,#669));
#113=EDGE_LOOP('',(#670,#671,#672,#673,#674,#675,#676,#677,#678,#679,#680));
#114=EDGE_LOOP('',(#681));
#115=EDGE_LOOP('',(#682));
#116=EDGE_LOOP('',(#683,#684,#685,#686));
#117=EDGE_LOOP('',(#687,#688,#689,#690));
#118=EDGE_LOOP('',(#691,#692,#693,#694,#695,#696));
#119=EDGE_LOOP('',(#697,#698,#699,#700));
#120=EDGE_LOOP('',(#701,#702,#703,#704));
#121=EDGE_LOOP('',(#705,#706,#707,#708,#709,#710));
#122=EDGE_LOOP('',(#711,#712,#713,#714));
#123=EDGE_LOOP('',(#715,#716,#717,#718));
#124=EDGE_LOOP('',(#719,#720,#721,#722));
#125=EDGE_LOOP('',(#723,#724,#725,#726));
#126=EDGE_LOOP('',(#727,#728,#729,#730));
#127=EDGE_LOOP('',(#731,#732,#733,#734));
#128=EDGE_LOOP('',(#735,#736,#737,#738));
#129=EDGE_LOOP('',(#739,#740,#741,#742));
#130=EDGE_LOOP('',(#743));
#131=EDGE_LOOP('',(#744,#745,#746,#747));
#132=EDGE_LOOP('',(#748,#749,#750,#751));
#133=EDGE_LOOP('',(#752,#753,#754,#755,#756,#757));
#134=EDGE_LOOP('',(#758));
#135=EDGE_LOOP('',(#759));
#136=CIRCLE('',#843,30.);
#137=CIRCLE('',#845,30.);
#138=CIRCLE('',#850,1.);
#139=CIRCLE('',#851,1.);
#140=CIRCLE('',#853,1.);
#141=CIRCLE('',#856,1.);
#142=CIRCLE('',#859,5.00000000000008);
#143=CIRCLE('',#860,5.);
#144=CIRCLE('',#862,5.);
#145=CIRCLE('',#863,5.00000000000008);
#146=CIRCLE('',#868,5.);
#147=CIRCLE('',#870,5.);
#148=CIRCLE('',#874,5.);
#149=CIRCLE('',#875,5.);
#150=CIRCLE('',#878,2.50000000000004);
#151=CIRCLE('',#881,20.);
#152=CIRCLE('',#882,20.);
#153=CIRCLE('',#883,20.);
#154=CIRCLE('',#884,0.500000000000007);
#155=CIRCLE('',#886,20.);
#156=CIRCLE('',#888,22.5);
#157=CIRCLE('',#889,2.5);
#158=CIRCLE('',#891,5.);
#159=CIRCLE('',#892,22.5);
#160=CIRCLE('',#893,22.5);
#161=CIRCLE('',#894,0.499999999999998);
#162=CIRCLE('',#895,0.500000000000007);
#163=CIRCLE('',#897,22.5);
#164=CIRCLE('',#901,5.);
#165=CIRCLE('',#904,20.);
#166=CIRCLE('',#905,2.5);
#167=CIRCLE('',#907,2.5);
#168=CIRCLE('',#909,2.5);
#169=CIRCLE('',#910,20.);
#170=CIRCLE('',#917,0.500000000000007);
#171=CIRCLE('',#920,0.499999999999998);
#172=CIRCLE('',#922,0.500000000000007);
#173=LINE('',#1172,#251);
#174=LINE('',#1175,#252);
#175=LINE('',#1178,#253);
#176=LINE('',#1181,#254);
#177=LINE('',#1184,#255);
#178=LINE('',#1186,#256);
#179=LINE('',#1188,#257);
#180=LINE('',#1190,#258);
#181=LINE('',#1192,#259);
#182=LINE('',#1194,#260);
#183=LINE('',#1196,#261);
#184=LINE('',#1198,#262);
#185=LINE('',#1200,#263);
#186=LINE('',#1201,#264);
#187=LINE('',#1204,#265);
#188=LINE('',#1217,#266);
#189=LINE('',#1219,#267);
#190=LINE('',#1221,#268);
#191=LINE('',#1225,#269);
#192=LINE('',#1227,#270);
#193=LINE('',#1229,#271);
#194=LINE('',#1231,#272);
#195=LINE('',#1233,#273);
#196=LINE('',#1235,#274);
#197=LINE('',#1237,#275);
#198=LINE('',#1239,#276);
#199=LINE('',#1240,#277);
#200=LINE('',#1246,#278);
#201=LINE('',#1249,#279);
#202=LINE('',#1251,#280);
#203=LINE('',#1253,#281);
#204=LINE('',#1256,#282);
#205=LINE('',#1258,#283);
#206=LINE('',#1261,#284);
#207=LINE('',#1264,#285);
#208=LINE('',#1266,#286);
#209=LINE('',#1271,#287);
#210=LINE('',#1273,#288);
#211=LINE('',#1275,#289);
#212=LINE('',#1281,#290);
#213=LINE('',#1283,#291);
#214=LINE('',#1285,#292);
#215=LINE('',#1288,#293);
#216=LINE('',#1290,#294);
#217=LINE('',#1292,#295);
#218=LINE('',#1296,#296);
#219=LINE('',#1299,#297);
#220=LINE('',#1303,#298);
#221=LINE('',#1305,#299);
#222=LINE('',#1306,#300);
#223=LINE('',#1309,#301);
#224=LINE('',#1311,#302);
#225=LINE('',#1312,#303);
#226=LINE('',#1315,#304);
#227=LINE('',#1318,#305);
#228=LINE('',#1321,#306);
#229=LINE('',#1323,#307);
#230=LINE('',#1324,#308);
#231=LINE('',#1327,#309);
#232=LINE('',#1330,#310);
#233=LINE('',#1333,#311);
#234=LINE('',#1334,#312);
#235=LINE('',#1339,#313);
#236=LINE('',#1343,#314);
#237=LINE('',#1350,#315);
#238=LINE('',#1359,#316);
#239=LINE('',#1363,#317);
#240=LINE('',#1366,#318);
#241=LINE('',#1374,#319);
#242=LINE('',#1376,#320);
#243=LINE('',#1402,#321);
#244=LINE('',#1408,#322);
#245=LINE('',#1410,#323);
#246=LINE('',#1412,#324);
#247=LINE('',#1414,#325);
#248=LINE('',#1418,#326);
#249=LINE('',#1423,#327);
#250=LINE('',#1427,#328);
#251=VECTOR('',#928,10.);
#252=VECTOR('',#931,10.);
#253=VECTOR('',#934,10.);
#254=VECTOR('',#937,10.);
#255=VECTOR('',#940,10.);
#256=VECTOR('',#941,10.);
#257=VECTOR('',#942,10.);
#258=VECTOR('',#943,10.);
#259=VECTOR('',#944,10.);
#260=VECTOR('',#945,10.);
#261=VECTOR('',#946,10.);
#262=VECTOR('',#947,10.);
#263=VECTOR('',#948,10.);
#264=VECTOR('',#949,10.);
#265=VECTOR('',#952,10.);
#266=VECTOR('',#953,10.);
#267=VECTOR('',#954,10.);
#268=VECTOR('',#955,10.);
#269=VECTOR('',#958,10.);
#270=VECTOR('',#959,10.);
#271=VECTOR('',#960,10.);
#272=VECTOR('',#961,10.);
#273=VECTOR('',#962,10.);
#274=VECTOR('',#963,10.);
#275=VECTOR('',#964,10.);
#276=VECTOR('',#965,10.);
#277=VECTOR('',#966,10.);
#278=VECTOR('',#971,10.);
#279=VECTOR('',#974,10.);
#280=VECTOR('',#977,10.);
#281=VECTOR('',#978,10.);
#282=VECTOR('',#981,10.);
#283=VECTOR('',#984,10.);
#284=VECTOR('',#987,10.);
#285=VECTOR('',#990,10.);
#286=VECTOR('',#993,10.);
#287=VECTOR('',#998,10.);
#288=VECTOR('',#999,10.);
#289=VECTOR('',#1000,10.);
#290=VECTOR('',#1007,10.);
#291=VECTOR('',#1008,10.);
#292=VECTOR('',#1009,10.);
#293=VECTOR('',#1014,10.);
#294=VECTOR('',#1017,10.);
#295=VECTOR('',#1020,10.);
#296=VECTOR('',#1025,10.);
#297=VECTOR('',#1028,10.);
#298=VECTOR('',#1033,10.);
#299=VECTOR('',#1034,10.);
#300=VECTOR('',#1035,10.);
#301=VECTOR('',#1038,10.);
#302=VECTOR('',#1039,10.);
#303=VECTOR('',#1040,10.);
#304=VECTOR('',#1043,10.);
#305=VECTOR('',#1046,10.);
#306=VECTOR('',#1051,10.);
#307=VECTOR('',#1052,10.);
#308=VECTOR('',#1053,10.);
#309=VECTOR('',#1056,10.);
#310=VECTOR('',#1059,10.);
#311=VECTOR('',#1062,10.);
#312=VECTOR('',#1063,10.);
#313=VECTOR('',#1068,10.);
#314=VECTOR('',#1071,10.);
#315=VECTOR('',#1080,10.);
#316=VECTOR('',#1091,10.);
#317=VECTOR('',#1094,10.);
#318=VECTOR('',#1097,10.);
#319=VECTOR('',#1106,10.);
#320=VECTOR('',#1109,10.);
#321=VECTOR('',#1128,10.);
#322=VECTOR('',#1137,10.);
#323=VECTOR('',#1140,10.);
#324=VECTOR('',#1143,10.);
#325=VECTOR('',#1146,10.);
#326=VECTOR('',#1151,0.500000000000007);
#327=VECTOR('',#1158,0.499999999999998);
#328=VECTOR('',#1163,0.500000000000007);
#329=VERTEX_POINT('',#1170);
#330=VERTEX_POINT('',#1171);
#331=VERTEX_POINT('',#1173);
#332=VERTEX_POINT('',#1177);
#333=VERTEX_POINT('',#1179);
#334=VERTEX_POINT('',#1183);
#335=VERTEX_POINT('',#1185);
#336=VERTEX_POINT('',#1187);
#337=VERTEX_POINT('',#1189);
#338=VERTEX_POINT('',#1191);
#339=VERTEX_POINT('',#1193);
#340=VERTEX_POINT('',#1195);
#341=VERTEX_POINT('',#1197);
#342=VERTEX_POINT('',#1199);
#343=VERTEX_POINT('',#1203);
#344=VERTEX_POINT('',#1205);
#345=VERTEX_POINT('',#1216);
#346=VERTEX_POINT('',#1218);
#347=VERTEX_POINT('',#1220);
#348=VERTEX_POINT('',#1222);
#349=VERTEX_POINT('',#1224);
#350=VERTEX_POINT('',#1226);
#351=VERTEX_POINT('',#1228);
#352=VERTEX_POINT('',#1230);
#353=VERTEX_POINT('',#1232);
#354=VERTEX_POINT('',#1234);
#355=VERTEX_POINT('',#1236);
#356=VERTEX_POINT('',#1238);
#357=VERTEX_POINT('',#1242);
#358=VERTEX_POINT('',#1243);
#359=VERTEX_POINT('',#1245);
#360=VERTEX_POINT('',#1247);
#361=VERTEX_POINT('',#1252);
#362=VERTEX_POINT('',#1254);
#363=VERTEX_POINT('',#1260);
#364=VERTEX_POINT('',#1262);
#365=VERTEX_POINT('',#1268);
#366=VERTEX_POINT('',#1270);
#367=VERTEX_POINT('',#1272);
#368=VERTEX_POINT('',#1274);
#369=VERTEX_POINT('',#1278);
#370=VERTEX_POINT('',#1280);
#371=VERTEX_POINT('',#1282);
#372=VERTEX_POINT('',#1284);
#373=VERTEX_POINT('',#1294);
#374=VERTEX_POINT('',#1298);
#375=VERTEX_POINT('',#1302);
#376=VERTEX_POINT('',#1304);
#377=VERTEX_POINT('',#1308);
#378=VERTEX_POINT('',#1310);
#379=VERTEX_POINT('',#1314);
#380=VERTEX_POINT('',#1317);
#381=VERTEX_POINT('',#1322);
#382=VERTEX_POINT('',#1326);
#383=VERTEX_POINT('',#1328);
#384=VERTEX_POINT('',#1332);
#385=VERTEX_POINT('',#1336);
#386=VERTEX_POINT('',#1338);
#387=VERTEX_POINT('',#1340);
#388=VERTEX_POINT('',#1342);
#389=VERTEX_POINT('',#1345);
#390=VERTEX_POINT('',#1348);
#391=VERTEX_POINT('',#1352);
#392=VERTEX_POINT('',#1356);
#393=VERTEX_POINT('',#1358);
#394=VERTEX_POINT('',#1360);
#395=VERTEX_POINT('',#1362);
#396=VERTEX_POINT('',#1364);
#397=VERTEX_POINT('',#1367);
#398=VERTEX_POINT('',#1369);
#399=VERTEX_POINT('',#1372);
#400=VERTEX_POINT('',#1396);
#401=VERTEX_POINT('',#1400);
#402=VERTEX_POINT('',#1404);
#403=VERTEX_POINT('',#1417);
#404=VERTEX_POINT('',#1422);
#405=VERTEX_POINT('',#1426);
#406=EDGE_CURVE('',#329,#330,#173,.T.);
#407=EDGE_CURVE('',#331,#329,#136,.T.);
#408=EDGE_CURVE('',#330,#331,#174,.T.);
#409=EDGE_CURVE('',#332,#329,#175,.T.);
#410=EDGE_CURVE('',#333,#332,#137,.T.);
#411=EDGE_CURVE('',#331,#333,#176,.T.);
#412=EDGE_CURVE('',#334,#330,#177,.T.);
#413=EDGE_CURVE('',#335,#334,#178,.T.);
#414=EDGE_CURVE('',#336,#335,#179,.T.);
#415=EDGE_CURVE('',#337,#336,#180,.T.);
#416=EDGE_CURVE('',#338,#337,#181,.T.);
#417=EDGE_CURVE('',#339,#338,#182,.T.);
#418=EDGE_CURVE('',#340,#339,#183,.T.);
#419=EDGE_CURVE('',#341,#340,#184,.T.);
#420=EDGE_CURVE('',#342,#341,#185,.T.);
#421=EDGE_CURVE('',#332,#342,#186,.T.);
#422=EDGE_CURVE('',#343,#333,#187,.T.);
#423=EDGE_CURVE('',#344,#343,#24,.T.);
#424=EDGE_CURVE('',#345,#344,#188,.T.);
#425=EDGE_CURVE('',#346,#345,#189,.T.);
#426=EDGE_CURVE('',#347,#346,#190,.T.);
#427=EDGE_CURVE('',#348,#347,#23,.T.);
#428=EDGE_CURVE('',#349,#348,#191,.T.);
#429=EDGE_CURVE('',#349,#350,#192,.T.);
#430=EDGE_CURVE('',#351,#350,#193,.T.);
#431=EDGE_CURVE('',#352,#351,#194,.T.);
#432=EDGE_CURVE('',#352,#353,#195,.T.);
#433=EDGE_CURVE('',#353,#354,#196,.T.);
#434=EDGE_CURVE('',#354,#355,#197,.T.);
#435=EDGE_CURVE('',#356,#355,#198,.T.);
#436=EDGE_CURVE('',#334,#356,#199,.T.);
#437=EDGE_CURVE('',#357,#358,#138,.T.);
#438=EDGE_CURVE('',#357,#359,#200,.T.);
#439=EDGE_CURVE('',#359,#360,#139,.T.);
#440=EDGE_CURVE('',#360,#358,#201,.T.);
#441=EDGE_CURVE('',#338,#358,#202,.T.);
#442=EDGE_CURVE('',#361,#337,#203,.T.);
#443=EDGE_CURVE('',#361,#362,#140,.T.);
#444=EDGE_CURVE('',#357,#362,#204,.T.);
#445=EDGE_CURVE('',#339,#360,#205,.T.);
#446=EDGE_CURVE('',#361,#363,#206,.T.);
#447=EDGE_CURVE('',#363,#364,#141,.T.);
#448=EDGE_CURVE('',#364,#362,#207,.T.);
#449=EDGE_CURVE('',#363,#336,#208,.T.);
#450=EDGE_CURVE('',#365,#354,#142,.T.);
#451=EDGE_CURVE('',#366,#365,#209,.T.);
#452=EDGE_CURVE('',#367,#366,#210,.T.);
#453=EDGE_CURVE('',#368,#367,#211,.T.);
#454=EDGE_CURVE('',#355,#368,#143,.T.);
#455=EDGE_CURVE('',#369,#352,#144,.T.);
#456=EDGE_CURVE('',#370,#369,#212,.T.);
#457=EDGE_CURVE('',#370,#371,#213,.T.);
#458=EDGE_CURVE('',#371,#372,#214,.T.);
#459=EDGE_CURVE('',#372,#353,#145,.T.);
#460=EDGE_CURVE('',#372,#365,#215,.T.);
#461=EDGE_CURVE('',#371,#366,#216,.T.);
#462=EDGE_CURVE('',#367,#370,#217,.T.);
#463=EDGE_CURVE('',#351,#373,#146,.T.);
#464=EDGE_CURVE('',#373,#369,#218,.T.);
#465=EDGE_CURVE('',#368,#374,#219,.T.);
#466=EDGE_CURVE('',#374,#356,#147,.T.);
#467=EDGE_CURVE('',#375,#373,#220,.T.);
#468=EDGE_CURVE('',#376,#375,#221,.T.);
#469=EDGE_CURVE('',#374,#376,#222,.T.);
#470=EDGE_CURVE('',#377,#341,#223,.T.);
#471=EDGE_CURVE('',#378,#377,#224,.T.);
#472=EDGE_CURVE('',#342,#378,#225,.T.);
#473=EDGE_CURVE('',#340,#379,#226,.T.);
#474=EDGE_CURVE('',#375,#379,#148,.T.);
#475=EDGE_CURVE('',#350,#380,#227,.T.);
#476=EDGE_CURVE('',#377,#380,#149,.T.);
#477=EDGE_CURVE('',#359,#364,#228,.T.);
#478=EDGE_CURVE('',#381,#335,#229,.T.);
#479=EDGE_CURVE('',#379,#381,#230,.T.);
#480=EDGE_CURVE('',#347,#382,#231,.T.);
#481=EDGE_CURVE('',#383,#382,#150,.T.);
#482=EDGE_CURVE('',#383,#348,#232,.T.);
#483=EDGE_CURVE('',#346,#384,#233,.T.);
#484=EDGE_CURVE('',#384,#382,#234,.T.);
#485=EDGE_CURVE('',#385,#345,#151,.T.);
#486=EDGE_CURVE('',#386,#385,#235,.T.);
#487=EDGE_CURVE('',#387,#386,#152,.T.);
#488=EDGE_CURVE('',#388,#387,#236,.T.);
#489=EDGE_CURVE('',#384,#388,#153,.T.);
#490=EDGE_CURVE('',#389,#389,#154,.T.);
#491=EDGE_CURVE('',#390,#344,#155,.T.);
#492=EDGE_CURVE('',#385,#390,#237,.T.);
#493=EDGE_CURVE('',#343,#391,#156,.T.);
#494=EDGE_CURVE('',#390,#391,#157,.T.);
#495=EDGE_CURVE('',#378,#392,#158,.T.);
#496=EDGE_CURVE('',#392,#393,#238,.T.);
#497=EDGE_CURVE('',#394,#393,#159,.T.);
#498=EDGE_CURVE('',#395,#394,#239,.T.);
#499=EDGE_CURVE('',#396,#395,#160,.T.);
#500=EDGE_CURVE('',#391,#396,#240,.T.);
#501=EDGE_CURVE('',#397,#397,#161,.T.);
#502=EDGE_CURVE('',#398,#398,#162,.T.);
#503=EDGE_CURVE('',#399,#383,#163,.T.);
#504=EDGE_CURVE('',#399,#349,#241,.T.);
#505=EDGE_CURVE('',#380,#392,#242,.T.);
#506=EDGE_CURVE('',#399,#393,#25,.T.);
#507=EDGE_CURVE('',#381,#376,#164,.T.);
#508=EDGE_CURVE('',#382,#400,#165,.T.);
#509=EDGE_CURVE('',#400,#394,#166,.T.);
#510=EDGE_CURVE('',#401,#395,#167,.T.);
#511=EDGE_CURVE('',#400,#401,#243,.T.);
#512=EDGE_CURVE('',#402,#396,#168,.T.);
#513=EDGE_CURVE('',#401,#402,#169,.T.);
#514=EDGE_CURVE('',#402,#390,#244,.T.);
#515=EDGE_CURVE('',#386,#402,#245,.T.);
#516=EDGE_CURVE('',#387,#401,#246,.T.);
#517=EDGE_CURVE('',#388,#400,#247,.T.);
#518=EDGE_CURVE('',#389,#403,#248,.T.);
#519=EDGE_CURVE('',#403,#403,#170,.T.);
#520=EDGE_CURVE('',#397,#404,#249,.T.);
#521=EDGE_CURVE('',#404,#404,#171,.T.);
#522=EDGE_CURVE('',#398,#405,#250,.T.);
#523=EDGE_CURVE('',#405,#405,#172,.T.);
#524=ORIENTED_EDGE('',*,*,#406,.F.);
#525=ORIENTED_EDGE('',*,*,#407,.F.);
#526=ORIENTED_EDGE('',*,*,#408,.F.);
#527=ORIENTED_EDGE('',*,*,#409,.F.);
#528=ORIENTED_EDGE('',*,*,#410,.F.);
#529=ORIENTED_EDGE('',*,*,#411,.F.);
#530=ORIENTED_EDGE('',*,*,#407,.T.);
#531=ORIENTED_EDGE('',*,*,#409,.T.);
#532=ORIENTED_EDGE('',*,*,#406,.T.);
#533=ORIENTED_EDGE('',*,*,#412,.F.);
#534=ORIENTED_EDGE('',*,*,#413,.F.);
#535=ORIENTED_EDGE('',*,*,#414,.F.);
#536=ORIENTED_EDGE('',*,*,#415,.F.);
#537=ORIENTED_EDGE('',*,*,#416,.F.);
#538=ORIENTED_EDGE('',*,*,#417,.F.);
#539=ORIENTED_EDGE('',*,*,#418,.F.);
#540=ORIENTED_EDGE('',*,*,#419,.F.);
#541=ORIENTED_EDGE('',*,*,#420,.F.);
#542=ORIENTED_EDGE('',*,*,#421,.F.);
#543=ORIENTED_EDGE('',*,*,#408,.T.);
#544=ORIENTED_EDGE('',*,*,#411,.T.);
#545=ORIENTED_EDGE('',*,*,#422,.F.);
#546=ORIENTED_EDGE('',*,*,#423,.F.);
#547=ORIENTED_EDGE('',*,*,#424,.F.);
#548=ORIENTED_EDGE('',*,*,#425,.F.);
#549=ORIENTED_EDGE('',*,*,#426,.F.);
#550=ORIENTED_EDGE('',*,*,#427,.F.);
#551=ORIENTED_EDGE('',*,*,#428,.F.);
#552=ORIENTED_EDGE('',*,*,#429,.T.);
#553=ORIENTED_EDGE('',*,*,#430,.F.);
#554=ORIENTED_EDGE('',*,*,#431,.F.);
#555=ORIENTED_EDGE('',*,*,#432,.T.);
#556=ORIENTED_EDGE('',*,*,#433,.T.);
#557=ORIENTED_EDGE('',*,*,#434,.T.);
#558=ORIENTED_EDGE('',*,*,#435,.F.);
#559=ORIENTED_EDGE('',*,*,#436,.F.);
#560=ORIENTED_EDGE('',*,*,#412,.T.);
#561=ORIENTED_EDGE('',*,*,#437,.F.);
#562=ORIENTED_EDGE('',*,*,#438,.T.);
#563=ORIENTED_EDGE('',*,*,#439,.T.);
#564=ORIENTED_EDGE('',*,*,#440,.T.);
#565=ORIENTED_EDGE('',*,*,#437,.T.);
#566=ORIENTED_EDGE('',*,*,#441,.F.);
#567=ORIENTED_EDGE('',*,*,#416,.T.);
#568=ORIENTED_EDGE('',*,*,#442,.F.);
#569=ORIENTED_EDGE('',*,*,#443,.T.);
#570=ORIENTED_EDGE('',*,*,#444,.F.);
#571=ORIENTED_EDGE('',*,*,#440,.F.);
#572=ORIENTED_EDGE('',*,*,#445,.F.);
#573=ORIENTED_EDGE('',*,*,#417,.T.);
#574=ORIENTED_EDGE('',*,*,#441,.T.);
#575=ORIENTED_EDGE('',*,*,#443,.F.);
#576=ORIENTED_EDGE('',*,*,#446,.T.);
#577=ORIENTED_EDGE('',*,*,#447,.T.);
#578=ORIENTED_EDGE('',*,*,#448,.T.);
#579=ORIENTED_EDGE('',*,*,#446,.F.);
#580=ORIENTED_EDGE('',*,*,#442,.T.);
#581=ORIENTED_EDGE('',*,*,#415,.T.);
#582=ORIENTED_EDGE('',*,*,#449,.F.);
#583=ORIENTED_EDGE('',*,*,#434,.F.);
#584=ORIENTED_EDGE('',*,*,#450,.F.);
#585=ORIENTED_EDGE('',*,*,#451,.F.);
#586=ORIENTED_EDGE('',*,*,#452,.F.);
#587=ORIENTED_EDGE('',*,*,#453,.F.);
#588=ORIENTED_EDGE('',*,*,#454,.F.);
#589=ORIENTED_EDGE('',*,*,#432,.F.);
#590=ORIENTED_EDGE('',*,*,#455,.F.);
#591=ORIENTED_EDGE('',*,*,#456,.F.);
#592=ORIENTED_EDGE('',*,*,#457,.T.);
#593=ORIENTED_EDGE('',*,*,#458,.T.);
#594=ORIENTED_EDGE('',*,*,#459,.T.);
#595=ORIENTED_EDGE('',*,*,#433,.F.);
#596=ORIENTED_EDGE('',*,*,#459,.F.);
#597=ORIENTED_EDGE('',*,*,#460,.T.);
#598=ORIENTED_EDGE('',*,*,#450,.T.);
#599=ORIENTED_EDGE('',*,*,#458,.F.);
#600=ORIENTED_EDGE('',*,*,#461,.T.);
#601=ORIENTED_EDGE('',*,*,#451,.T.);
#602=ORIENTED_EDGE('',*,*,#460,.F.);
#603=ORIENTED_EDGE('',*,*,#457,.F.);
#604=ORIENTED_EDGE('',*,*,#462,.F.);
#605=ORIENTED_EDGE('',*,*,#452,.T.);
#606=ORIENTED_EDGE('',*,*,#461,.F.);
#607=ORIENTED_EDGE('',*,*,#455,.T.);
#608=ORIENTED_EDGE('',*,*,#431,.T.);
#609=ORIENTED_EDGE('',*,*,#463,.T.);
#610=ORIENTED_EDGE('',*,*,#464,.T.);
#611=ORIENTED_EDGE('',*,*,#454,.T.);
#612=ORIENTED_EDGE('',*,*,#465,.T.);
#613=ORIENTED_EDGE('',*,*,#466,.T.);
#614=ORIENTED_EDGE('',*,*,#435,.T.);
#615=ORIENTED_EDGE('',*,*,#453,.T.);
#616=ORIENTED_EDGE('',*,*,#462,.T.);
#617=ORIENTED_EDGE('',*,*,#456,.T.);
#618=ORIENTED_EDGE('',*,*,#464,.F.);
#619=ORIENTED_EDGE('',*,*,#467,.F.);
#620=ORIENTED_EDGE('',*,*,#468,.F.);
#621=ORIENTED_EDGE('',*,*,#469,.F.);
#622=ORIENTED_EDGE('',*,*,#465,.F.);
#623=ORIENTED_EDGE('',*,*,#420,.T.);
#624=ORIENTED_EDGE('',*,*,#470,.F.);
#625=ORIENTED_EDGE('',*,*,#471,.F.);
#626=ORIENTED_EDGE('',*,*,#472,.F.);
#627=ORIENTED_EDGE('',*,*,#419,.T.);
#628=ORIENTED_EDGE('',*,*,#473,.T.);
#629=ORIENTED_EDGE('',*,*,#474,.F.);
#630=ORIENTED_EDGE('',*,*,#467,.T.);
#631=ORIENTED_EDGE('',*,*,#463,.F.);
#632=ORIENTED_EDGE('',*,*,#430,.T.);
#633=ORIENTED_EDGE('',*,*,#475,.T.);
#634=ORIENTED_EDGE('',*,*,#476,.F.);
#635=ORIENTED_EDGE('',*,*,#470,.T.);
#636=ORIENTED_EDGE('',*,*,#418,.T.);
#637=ORIENTED_EDGE('',*,*,#445,.T.);
#638=ORIENTED_EDGE('',*,*,#439,.F.);
#639=ORIENTED_EDGE('',*,*,#477,.T.);
#640=ORIENTED_EDGE('',*,*,#447,.F.);
#641=ORIENTED_EDGE('',*,*,#449,.T.);
#642=ORIENTED_EDGE('',*,*,#414,.T.);
#643=ORIENTED_EDGE('',*,*,#478,.F.);
#644=ORIENTED_EDGE('',*,*,#479,.F.);
#645=ORIENTED_EDGE('',*,*,#473,.F.);
#646=ORIENTED_EDGE('',*,*,#427,.T.);
#647=ORIENTED_EDGE('',*,*,#480,.T.);
#648=ORIENTED_EDGE('',*,*,#481,.F.);
#649=ORIENTED_EDGE('',*,*,#482,.T.);
#650=ORIENTED_EDGE('',*,*,#426,.T.);
#651=ORIENTED_EDGE('',*,*,#483,.T.);
#652=ORIENTED_EDGE('',*,*,#484,.T.);
#653=ORIENTED_EDGE('',*,*,#480,.F.);
#654=ORIENTED_EDGE('',*,*,#425,.T.);
#655=ORIENTED_EDGE('',*,*,#485,.F.);
#656=ORIENTED_EDGE('',*,*,#486,.F.);
#657=ORIENTED_EDGE('',*,*,#487,.F.);
#658=ORIENTED_EDGE('',*,*,#488,.F.);
#659=ORIENTED_EDGE('',*,*,#489,.F.);
#660=ORIENTED_EDGE('',*,*,#483,.F.);
#661=ORIENTED_EDGE('',*,*,#490,.T.);
#662=ORIENTED_EDGE('',*,*,#424,.T.);
#663=ORIENTED_EDGE('',*,*,#491,.F.);
#664=ORIENTED_EDGE('',*,*,#492,.F.);
#665=ORIENTED_EDGE('',*,*,#485,.T.);
#666=ORIENTED_EDGE('',*,*,#423,.T.);
#667=ORIENTED_EDGE('',*,*,#493,.T.);
#668=ORIENTED_EDGE('',*,*,#494,.F.);
#669=ORIENTED_EDGE('',*,*,#491,.T.);
#670=ORIENTED_EDGE('',*,*,#410,.T.);
#671=ORIENTED_EDGE('',*,*,#421,.T.);
#672=ORIENTED_EDGE('',*,*,#472,.T.);
#673=ORIENTED_EDGE('',*,*,#495,.T.);
#674=ORIENTED_EDGE('',*,*,#496,.T.);
#675=ORIENTED_EDGE('',*,*,#497,.F.);
#676=ORIENTED_EDGE('',*,*,#498,.F.);
#677=ORIENTED_EDGE('',*,*,#499,.F.);
#678=ORIENTED_EDGE('',*,*,#500,.F.);
#679=ORIENTED_EDGE('',*,*,#493,.F.);
#680=ORIENTED_EDGE('',*,*,#422,.T.);
#681=ORIENTED_EDGE('',*,*,#501,.T.);
#682=ORIENTED_EDGE('',*,*,#502,.T.);
#683=ORIENTED_EDGE('',*,*,#428,.T.);
#684=ORIENTED_EDGE('',*,*,#482,.F.);
#685=ORIENTED_EDGE('',*,*,#503,.F.);
#686=ORIENTED_EDGE('',*,*,#504,.T.);
#687=ORIENTED_EDGE('',*,*,#495,.F.);
#688=ORIENTED_EDGE('',*,*,#471,.T.);
#689=ORIENTED_EDGE('',*,*,#476,.T.);
#690=ORIENTED_EDGE('',*,*,#505,.T.);
#691=ORIENTED_EDGE('',*,*,#505,.F.);
#692=ORIENTED_EDGE('',*,*,#475,.F.);
#693=ORIENTED_EDGE('',*,*,#429,.F.);
#694=ORIENTED_EDGE('',*,*,#504,.F.);
#695=ORIENTED_EDGE('',*,*,#506,.T.);
#696=ORIENTED_EDGE('',*,*,#496,.F.);
#697=ORIENTED_EDGE('',*,*,#507,.T.);
#698=ORIENTED_EDGE('',*,*,#468,.T.);
#699=ORIENTED_EDGE('',*,*,#474,.T.);
#700=ORIENTED_EDGE('',*,*,#479,.T.);
#701=ORIENTED_EDGE('',*,*,#438,.F.);
#702=ORIENTED_EDGE('',*,*,#444,.T.);
#703=ORIENTED_EDGE('',*,*,#448,.F.);
#704=ORIENTED_EDGE('',*,*,#477,.F.);
#705=ORIENTED_EDGE('',*,*,#506,.F.);
#706=ORIENTED_EDGE('',*,*,#503,.T.);
#707=ORIENTED_EDGE('',*,*,#481,.T.);
#708=ORIENTED_EDGE('',*,*,#508,.T.);
#709=ORIENTED_EDGE('',*,*,#509,.T.);
#710=ORIENTED_EDGE('',*,*,#497,.T.);
#711=ORIENTED_EDGE('',*,*,#510,.T.);
#712=ORIENTED_EDGE('',*,*,#498,.T.);
#713=ORIENTED_EDGE('',*,*,#509,.F.);
#714=ORIENTED_EDGE('',*,*,#511,.T.);
#715=ORIENTED_EDGE('',*,*,#512,.T.);
#716=ORIENTED_EDGE('',*,*,#499,.T.);
#717=ORIENTED_EDGE('',*,*,#510,.F.);
#718=ORIENTED_EDGE('',*,*,#513,.T.);
#719=ORIENTED_EDGE('',*,*,#494,.T.);
#720=ORIENTED_EDGE('',*,*,#500,.T.);
#721=ORIENTED_EDGE('',*,*,#512,.F.);
#722=ORIENTED_EDGE('',*,*,#514,.T.);
#723=ORIENTED_EDGE('',*,*,#514,.F.);
#724=ORIENTED_EDGE('',*,*,#515,.F.);
#725=ORIENTED_EDGE('',*,*,#486,.T.);
#726=ORIENTED_EDGE('',*,*,#492,.T.);
#727=ORIENTED_EDGE('',*,*,#513,.F.);
#728=ORIENTED_EDGE('',*,*,#516,.F.);
#729=ORIENTED_EDGE('',*,*,#487,.T.);
#730=ORIENTED_EDGE('',*,*,#515,.T.);
#731=ORIENTED_EDGE('',*,*,#511,.F.);
#732=ORIENTED_EDGE('',*,*,#517,.F.);
#733=ORIENTED_EDGE('',*,*,#488,.T.);
#734=ORIENTED_EDGE('',*,*,#516,.T.);
#735=ORIENTED_EDGE('',*,*,#508,.F.);
#736=ORIENTED_EDGE('',*,*,#484,.F.);
#737=ORIENTED_EDGE('',*,*,#489,.T.);
#738=ORIENTED_EDGE('',*,*,#517,.T.);
#739=ORIENTED_EDGE('',*,*,#490,.F.);
#740=ORIENTED_EDGE('',*,*,#518,.T.);
#741=ORIENTED_EDGE('',*,*,#519,.T.);
#742=ORIENTED_EDGE('',*,*,#518,.F.);
#743=ORIENTED_EDGE('',*,*,#519,.F.);
#744=ORIENTED_EDGE('',*,*,#501,.F.);
#745=ORIENTED_EDGE('',*,*,#520,.T.);
#746=ORIENTED_EDGE('',*,*,#521,.F.);
#747=ORIENTED_EDGE('',*,*,#520,.F.);
#748=ORIENTED_EDGE('',*,*,#502,.F.);
#749=ORIENTED_EDGE('',*,*,#522,.T.);
#750=ORIENTED_EDGE('',*,*,#523,.F.);
#751=ORIENTED_EDGE('',*,*,#522,.F.);
#752=ORIENTED_EDGE('',*,*,#413,.T.);
#753=ORIENTED_EDGE('',*,*,#436,.T.);
#754=ORIENTED_EDGE('',*,*,#466,.F.);
#755=ORIENTED_EDGE('',*,*,#469,.T.);
#756=ORIENTED_EDGE('',*,*,#507,.F.);
#757=ORIENTED_EDGE('',*,*,#478,.T.);
#758=ORIENTED_EDGE('',*,*,#523,.T.);
#759=ORIENTED_EDGE('',*,*,#521,.T.);
#760=PLANE('',#842);
#761=PLANE('',#846);
#762=PLANE('',#847);
#763=PLANE('',#852);
#764=PLANE('',#854);
#765=PLANE('',#857);
#766=PLANE('',#858);
#767=PLANE('',#861);
#768=PLANE('',#865);
#769=PLANE('',#866);
#770=PLANE('',#871);
#771=PLANE('',#872);
#772=PLANE('',#873);
#773=PLANE('',#876);
#774=PLANE('',#879);
#775=PLANE('',#880);
#776=PLANE('',#890);
#777=PLANE('',#896);
#778=PLANE('',#899);
#779=PLANE('',#902);
#780=PLANE('',#912);
#781=PLANE('',#914);
#782=PLANE('',#918);
#783=PLANE('',#923);
#784=ADVANCED_FACE('',(#43),#760,.T.);
#785=ADVANCED_FACE('',(#44),#26,.F.);
#786=ADVANCED_FACE('',(#45),#761,.F.);
#787=ADVANCED_FACE('',(#46),#762,.F.);
#788=ADVANCED_FACE('',(#47),#27,.F.);
#789=ADVANCED_FACE('',(#48),#763,.F.);
#790=ADVANCED_FACE('',(#49),#764,.F.);
#791=ADVANCED_FACE('',(#50),#28,.F.);
#792=ADVANCED_FACE('',(#51),#765,.F.);
#793=ADVANCED_FACE('',(#52),#766,.T.);
#794=ADVANCED_FACE('',(#53),#767,.F.);
#795=ADVANCED_FACE('',(#54),#29,.T.);
#796=ADVANCED_FACE('',(#55),#768,.F.);
#797=ADVANCED_FACE('',(#56),#769,.F.);
#798=ADVANCED_FACE('',(#57),#30,.T.);
#799=ADVANCED_FACE('',(#58),#31,.T.);
#800=ADVANCED_FACE('',(#59),#770,.T.);
#801=ADVANCED_FACE('',(#60),#771,.T.);
#802=ADVANCED_FACE('',(#61),#772,.T.);
#803=ADVANCED_FACE('',(#62),#773,.T.);
#804=ADVANCED_FACE('',(#63),#32,.F.);
#805=ADVANCED_FACE('',(#64),#774,.T.);
#806=ADVANCED_FACE('',(#65,#18),#775,.F.);
#807=ADVANCED_FACE('',(#66),#33,.T.);
#808=ADVANCED_FACE('',(#67),#15,.F.);
#809=ADVANCED_FACE('',(#68,#19,#20),#776,.F.);
#810=ADVANCED_FACE('',(#69),#777,.F.);
#811=ADVANCED_FACE('',(#70),#34,.F.);
#812=ADVANCED_FACE('',(#71),#778,.T.);
#813=ADVANCED_FACE('',(#72),#35,.T.);
#814=ADVANCED_FACE('',(#73),#779,.F.);
#815=ADVANCED_FACE('',(#74),#16,.F.);
#816=ADVANCED_FACE('',(#75),#36,.F.);
#817=ADVANCED_FACE('',(#76),#17,.F.);
#818=ADVANCED_FACE('',(#77),#37,.F.);
#819=ADVANCED_FACE('',(#78),#780,.T.);
#820=ADVANCED_FACE('',(#79),#38,.T.);
#821=ADVANCED_FACE('',(#80),#781,.T.);
#822=ADVANCED_FACE('',(#81),#39,.T.);
#823=ADVANCED_FACE('',(#82),#40,.F.);
#824=ADVANCED_FACE('',(#83),#782,.T.);
#825=ADVANCED_FACE('',(#84),#41,.F.);
#826=ADVANCED_FACE('',(#85),#42,.F.);
#827=ADVANCED_FACE('',(#86,#21,#22),#783,.T.);
#828=CLOSED_SHELL('',(#784,#785,#786,#787,#788,#789,#790,#791,#792,#793,
#794,#795,#796,#797,#798,#799,#800,#801,#802,#803,#804,#805,#806,#807,#808,
#809,#810,#811,#812,#813,#814,#815,#816,#817,#818,#819,#820,#821,#822,#823,
#824,#825,#826,#827));
#829=DERIVED_UNIT_ELEMENT(#831,1.);
#830=DERIVED_UNIT_ELEMENT(#1435,-3.);
#831=(
MASS_UNIT()
NAMED_UNIT(*)
SI_UNIT(.KILO.,.GRAM.)
);
#832=DERIVED_UNIT((#829,#830));
#833=MEASURE_REPRESENTATION_ITEM('density measure',
POSITIVE_RATIO_MEASURE(7850.),#832);
#834=PROPERTY_DEFINITION_REPRESENTATION(#839,#836);
#835=PROPERTY_DEFINITION_REPRESENTATION(#840,#837);
#836=REPRESENTATION('material name',(#838),#1432);
#837=REPRESENTATION('density',(#833),#1432);
#838=DESCRIPTIVE_REPRESENTATION_ITEM('Steel','Steel');
#839=PROPERTY_DEFINITION('material property','material name',#1442);
#840=PROPERTY_DEFINITION('material property','density of part',#1442);
#841=AXIS2_PLACEMENT_3D('',#1168,#924,#925);
#842=AXIS2_PLACEMENT_3D('',#1169,#926,#927);
#843=AXIS2_PLACEMENT_3D('',#1174,#929,#930);
#844=AXIS2_PLACEMENT_3D('',#1176,#932,#933);
#845=AXIS2_PLACEMENT_3D('',#1180,#935,#936);
#846=AXIS2_PLACEMENT_3D('',#1182,#938,#939);
#847=AXIS2_PLACEMENT_3D('',#1202,#950,#951);
#848=AXIS2_PLACEMENT_3D('',#1223,#956,#957);
#849=AXIS2_PLACEMENT_3D('',#1241,#967,#968);
#850=AXIS2_PLACEMENT_3D('',#1244,#969,#970);
#851=AXIS2_PLACEMENT_3D('',#1248,#972,#973);
#852=AXIS2_PLACEMENT_3D('',#1250,#975,#976);
#853=AXIS2_PLACEMENT_3D('',#1255,#979,#980);
#854=AXIS2_PLACEMENT_3D('',#1257,#982,#983);
#855=AXIS2_PLACEMENT_3D('',#1259,#985,#986);
#856=AXIS2_PLACEMENT_3D('',#1263,#988,#989);
#857=AXIS2_PLACEMENT_3D('',#1265,#991,#992);
#858=AXIS2_PLACEMENT_3D('',#1267,#994,#995);
#859=AXIS2_PLACEMENT_3D('',#1269,#996,#997);
#860=AXIS2_PLACEMENT_3D('',#1276,#1001,#1002);
#861=AXIS2_PLACEMENT_3D('',#1277,#1003,#1004);
#862=AXIS2_PLACEMENT_3D('',#1279,#1005,#1006);
#863=AXIS2_PLACEMENT_3D('',#1286,#1010,#1011);
#864=AXIS2_PLACEMENT_3D('',#1287,#1012,#1013);
#865=AXIS2_PLACEMENT_3D('',#1289,#1015,#1016);
#866=AXIS2_PLACEMENT_3D('',#1291,#1018,#1019);
#867=AXIS2_PLACEMENT_3D('',#1293,#1021,#1022);
#868=AXIS2_PLACEMENT_3D('',#1295,#1023,#1024);
#869=AXIS2_PLACEMENT_3D('',#1297,#1026,#1027);
#870=AXIS2_PLACEMENT_3D('',#1300,#1029,#1030);
#871=AXIS2_PLACEMENT_3D('',#1301,#1031,#1032);
#872=AXIS2_PLACEMENT_3D('',#1307,#1036,#1037);
#873=AXIS2_PLACEMENT_3D('',#1313,#1041,#1042);
#874=AXIS2_PLACEMENT_3D('',#1316,#1044,#1045);
#875=AXIS2_PLACEMENT_3D('',#1319,#1047,#1048);
#876=AXIS2_PLACEMENT_3D('',#1320,#1049,#1050);
#877=AXIS2_PLACEMENT_3D('',#1325,#1054,#1055);
#878=AXIS2_PLACEMENT_3D('',#1329,#1057,#1058);
#879=AXIS2_PLACEMENT_3D('',#1331,#1060,#1061);
#880=AXIS2_PLACEMENT_3D('',#1335,#1064,#1065);
#881=AXIS2_PLACEMENT_3D('',#1337,#1066,#1067);
#882=AXIS2_PLACEMENT_3D('',#1341,#1069,#1070);
#883=AXIS2_PLACEMENT_3D('',#1344,#1072,#1073);
#884=AXIS2_PLACEMENT_3D('',#1346,#1074,#1075);
#885=AXIS2_PLACEMENT_3D('',#1347,#1076,#1077);
#886=AXIS2_PLACEMENT_3D('',#1349,#1078,#1079);
#887=AXIS2_PLACEMENT_3D('',#1351,#1081,#1082);
#888=AXIS2_PLACEMENT_3D('',#1353,#1083,#1084);
#889=AXIS2_PLACEMENT_3D('',#1354,#1085,#1086);
#890=AXIS2_PLACEMENT_3D('',#1355,#1087,#1088);
#891=AXIS2_PLACEMENT_3D('',#1357,#1089,#1090);
#892=AXIS2_PLACEMENT_3D('',#1361,#1092,#1093);
#893=AXIS2_PLACEMENT_3D('',#1365,#1095,#1096);
#894=AXIS2_PLACEMENT_3D('',#1368,#1098,#1099);
#895=AXIS2_PLACEMENT_3D('',#1370,#1100,#1101);
#896=AXIS2_PLACEMENT_3D('',#1371,#1102,#1103);
#897=AXIS2_PLACEMENT_3D('',#1373,#1104,#1105);
#898=AXIS2_PLACEMENT_3D('',#1375,#1107,#1108);
#899=AXIS2_PLACEMENT_3D('',#1377,#1110,#1111);
#900=AXIS2_PLACEMENT_3D('',#1392,#1112,#1113);
#901=AXIS2_PLACEMENT_3D('',#1393,#1114,#1115);
#902=AXIS2_PLACEMENT_3D('',#1394,#1116,#1117);
#903=AXIS2_PLACEMENT_3D('',#1395,#1118,#1119);
#904=AXIS2_PLACEMENT_3D('',#1397,#1120,#1121);
#905=AXIS2_PLACEMENT_3D('',#1398,#1122,#1123);
#906=AXIS2_PLACEMENT_3D('',#1399,#1124,#1125);
#907=AXIS2_PLACEMENT_3D('',#1401,#1126,#1127);
#908=AXIS2_PLACEMENT_3D('',#1403,#1129,#1130);
#909=AXIS2_PLACEMENT_3D('',#1405,#1131,#1132);
#910=AXIS2_PLACEMENT_3D('',#1406,#1133,#1134);
#911=AXIS2_PLACEMENT_3D('',#1407,#1135,#1136);
#912=AXIS2_PLACEMENT_3D('',#1409,#1138,#1139);
#913=AXIS2_PLACEMENT_3D('',#1411,#1141,#1142);
#914=AXIS2_PLACEMENT_3D('',#1413,#1144,#1145);
#915=AXIS2_PLACEMENT_3D('',#1415,#1147,#1148);
#916=AXIS2_PLACEMENT_3D('',#1416,#1149,#1150);
#917=AXIS2_PLACEMENT_3D('',#1419,#1152,#1153);
#918=AXIS2_PLACEMENT_3D('',#1420,#1154,#1155);
#919=AXIS2_PLACEMENT_3D('',#1421,#1156,#1157);
#920=AXIS2_PLACEMENT_3D('',#1424,#1159,#1160);
#921=AXIS2_PLACEMENT_3D('',#1425,#1161,#1162);
#922=AXIS2_PLACEMENT_3D('',#1428,#1164,#1165);
#923=AXIS2_PLACEMENT_3D('',#1429,#1166,#1167);
#924=DIRECTION('axis',(0.,0.,1.));
#925=DIRECTION('refdir',(1.,0.,0.));
#926=DIRECTION('center_axis',(0.,0.,-1.));
#927=DIRECTION('ref_axis',(1.,0.,0.));
#928=DIRECTION('',(-0.866025403784439,-0.499999999999999,0.));
#929=DIRECTION('center_axis',(0.,0.,1.));
#930=DIRECTION('ref_axis',(1.,0.,0.));
#931=DIRECTION('',(0.5,-0.866025403784439,0.));
#932=DIRECTION('center_axis',(0.,0.,1.));
#933=DIRECTION('ref_axis',(1.,0.,0.));
#934=DIRECTION('',(0.,0.,1.));
#935=DIRECTION('center_axis',(0.,0.,1.));
#936=DIRECTION('ref_axis',(1.,0.,0.));
#937=DIRECTION('',(0.,0.,-1.));
#938=DIRECTION('center_axis',(0.499999999999999,-0.866025403784439,6.12323399573677E-17));
#939=DIRECTION('ref_axis',(0.,-7.07050159149938E-17,-1.));
#940=DIRECTION('',(3.06161699786838E-17,-5.30287619362453E-17,-1.));
#941=DIRECTION('',(-0.866025403784439,-0.499999999999999,0.));
#942=DIRECTION('',(-3.06161699786838E-17,5.30287619362454E-17,1.));
#943=DIRECTION('',(0.866025403784439,0.499999999999999,0.));
#944=DIRECTION('',(-3.06161699786839E-17,5.30287619362453E-17,1.));
#945=DIRECTION('',(-0.866025403784439,-0.499999999999999,0.));
#946=DIRECTION('',(-3.06161699786838E-17,5.30287619362454E-17,1.));
#947=DIRECTION('',(0.866025403784439,0.499999999999999,0.));
#948=DIRECTION('',(3.06161699786838E-17,-5.30287619362454E-17,-1.));
#949=DIRECTION('',(0.866025403784439,0.499999999999999,0.));
#950=DIRECTION('center_axis',(0.866025403784439,0.5,0.));
#951=DIRECTION('ref_axis',(0.,0.,-1.));
#952=DIRECTION('',(-0.5,0.866025403784439,0.));
#953=DIRECTION('',(0.,-2.91914290310959E-16,1.));
#954=DIRECTION('',(-0.5,0.866025403784439,3.2556248485426E-16));
#955=DIRECTION('',(-1.68536794091331E-16,2.91914290310959E-16,-1.));
#956=DIRECTION('center_axis',(-0.866025403784439,-0.5,0.));
#957=DIRECTION('ref_axis',(-0.5,0.866025403784439,0.));
#958=DIRECTION('',(-0.5,0.866025403784439,0.));
#959=DIRECTION('',(0.,0.,-1.));
#960=DIRECTION('',(-0.5,0.866025403784439,0.));
#961=DIRECTION('',(0.,0.,-1.));
#962=DIRECTION('',(-0.5,0.866025403784439,0.));
#963=DIRECTION('',(0.,0.,1.));
#964=DIRECTION('',(0.5,-0.866025403784439,0.));
#965=DIRECTION('',(0.,0.,-1.));
#966=DIRECTION('',(0.5,-0.866025403784439,0.));
#967=DIRECTION('center_axis',(-0.866025403784438,-0.500000000000001,0.));
#968=DIRECTION('ref_axis',(0.35355339059326,-0.61237243569579,-0.707106781186558));
#969=DIRECTION('center_axis',(0.866025403784438,0.500000000000001,0.));
#970=DIRECTION('ref_axis',(0.35355339059326,-0.61237243569579,-0.707106781186558));
#971=DIRECTION('',(0.866025403784438,0.500000000000001,0.));
#972=DIRECTION('center_axis',(0.866025403784439,0.499999999999999,0.));
#973=DIRECTION('ref_axis',(0.35355339059326,-0.61237243569579,-0.707106781186558));
#974=DIRECTION('',(-0.866025403784438,-0.500000000000001,0.));
#975=DIRECTION('center_axis',(-0.866025403784438,-0.500000000000001,0.));
#976=DIRECTION('ref_axis',(0.,0.,1.));
#977=DIRECTION('',(0.499999999999999,-0.866025403784439,0.));
#978=DIRECTION('',(-0.499999999999999,0.866025403784439,0.));
#979=DIRECTION('center_axis',(0.866025403784438,0.500000000000001,0.));
#980=DIRECTION('ref_axis',(0.35355339059328,-0.612372435695792,0.707106781186547));
#981=DIRECTION('',(0.,0.,1.));
#982=DIRECTION('center_axis',(0.,0.,-1.));
#983=DIRECTION('ref_axis',(0.499999999999999,-0.866025403784439,0.));
#984=DIRECTION('',(0.499999999999999,-0.866025403784439,0.));
#985=DIRECTION('center_axis',(-0.866025403784438,-0.500000000000001,0.));
#986=DIRECTION('ref_axis',(0.35355339059328,-0.612372435695792,0.707106781186547));
#987=DIRECTION('',(0.866025403784438,0.500000000000001,0.));
#988=DIRECTION('center_axis',(0.866025403784439,0.499999999999999,0.));
#989=DIRECTION('ref_axis',(0.35355339059328,-0.612372435695792,0.707106781186547));
#990=DIRECTION('',(-0.866025403784438,-0.500000000000001,0.));
#991=DIRECTION('center_axis',(0.,0.,1.));
#992=DIRECTION('ref_axis',(-0.499999999999999,0.866025403784439,0.));
#993=DIRECTION('',(-0.499999999999999,0.866025403784439,0.));
#994=DIRECTION('center_axis',(0.,0.,-1.));
#995=DIRECTION('ref_axis',(1.,0.,0.));
#996=DIRECTION('center_axis',(0.,0.,-1.));
#997=DIRECTION('ref_axis',(0.866025403784435,-0.500000000000007,0.));
#998=DIRECTION('',(-0.5,-0.866025403784438,0.));
#999=DIRECTION('',(-0.866025403784438,0.500000000000001,0.));
#1000=DIRECTION('',(0.5,0.866025403784438,0.));
#1001=DIRECTION('center_axis',(0.,0.,1.));
#1002=DIRECTION('ref_axis',(0.500000000000001,-0.866025403784438,0.));
#1003=DIRECTION('center_axis',(0.,0.,-1.));
#1004=DIRECTION('ref_axis',(1.,0.,0.));
#1005=DIRECTION('center_axis',(0.,0.,-1.));
#1006=DIRECTION('ref_axis',(0.500000000000001,-0.866025403784438,0.));
#1007=DIRECTION('',(-0.5,-0.866025403784438,0.));
#1008=DIRECTION('',(-0.866025403784438,0.500000000000001,0.));
#1009=DIRECTION('',(-0.5,-0.866025403784438,0.));
#1010=DIRECTION('center_axis',(0.,0.,-1.));
#1011=DIRECTION('ref_axis',(0.866025403784435,-0.500000000000007,0.));
#1012=DIRECTION('center_axis',(0.,0.,1.));
#1013=DIRECTION('ref_axis',(0.866025403784435,-0.500000000000007,0.));
#1014=DIRECTION('',(0.,0.,1.));
#1015=DIRECTION('center_axis',(-0.866025403784438,0.500000000000001,0.));
#1016=DIRECTION('ref_axis',(-0.5,-0.866025403784438,0.));
#1017=DIRECTION('',(0.,0.,1.));
#1018=DIRECTION('center_axis',(0.500000000000001,0.866025403784438,0.));
#1019=DIRECTION('ref_axis',(-0.866025403784438,0.500000000000001,0.));
#1020=DIRECTION('',(0.,0.,-1.));
#1021=DIRECTION('center_axis',(0.,0.,1.));
#1022=DIRECTION('ref_axis',(0.500000000000001,-0.866025403784438,0.));
#1023=DIRECTION('center_axis',(0.,0.,1.));
#1024=DIRECTION('ref_axis',(0.500000000000001,-0.866025403784438,0.));
#1025=DIRECTION('',(0.,0.,1.));
#1026=DIRECTION('center_axis',(0.,0.,1.));
#1027=DIRECTION('ref_axis',(0.500000000000001,-0.866025403784438,0.));
#1028=DIRECTION('',(0.,0.,1.));
#1029=DIRECTION('center_axis',(0.,0.,-1.));
#1030=DIRECTION('ref_axis',(0.500000000000001,-0.866025403784438,0.));
#1031=DIRECTION('center_axis',(0.866025403784438,-0.5,0.));
#1032=DIRECTION('ref_axis',(-0.5,-0.866025403784438,0.));
#1033=DIRECTION('',(-0.5,-0.866025403784438,0.));
#1034=DIRECTION('',(0.,0.,-1.));
#1035=DIRECTION('',(0.5,0.866025403784438,0.));
#1036=DIRECTION('center_axis',(-0.866025403784439,-0.499999999999999,0.));
#1037=DIRECTION('ref_axis',(-0.499999999999999,0.866025403784439,0.));
#1038=DIRECTION('',(-0.499999999999999,0.866025403784439,0.));
#1039=DIRECTION('',(0.,0.,-1.));
#1040=DIRECTION('',(0.499999999999999,-0.866025403784439,0.));
#1041=DIRECTION('center_axis',(0.,0.,-1.));
#1042=DIRECTION('ref_axis',(-1.,0.,0.));
#1043=DIRECTION('',(0.499999999999999,-0.866025403784439,0.));
#1044=DIRECTION('center_axis',(0.,0.,1.));
#1045=DIRECTION('ref_axis',(1.,-1.98706144259634E-15,0.));
#1046=DIRECTION('',(0.5,0.866025403784438,0.));
#1047=DIRECTION('center_axis',(0.,0.,-1.));
#1048=DIRECTION('ref_axis',(1.,-1.37812325857488E-15,0.));
#1049=DIRECTION('center_axis',(0.866025403784439,0.499999999999999,0.));
#1050=DIRECTION('ref_axis',(0.499999999999999,-0.866025403784439,0.));
#1051=DIRECTION('',(0.,0.,1.));
#1052=DIRECTION('',(-0.499999999999999,0.866025403784439,0.));
#1053=DIRECTION('',(0.,0.,1.));
#1054=DIRECTION('center_axis',(1.,2.25521861985931E-31,0.));
#1055=DIRECTION('ref_axis',(0.,0.707106781186547,0.707106781186548));
#1056=DIRECTION('',(1.,2.25521861985931E-31,0.));
#1057=DIRECTION('center_axis',(-1.,0.,0.));
#1058=DIRECTION('ref_axis',(0.,0.,1.));
#1059=DIRECTION('',(-1.,-2.25521861985931E-31,0.));
#1060=DIRECTION('center_axis',(2.25521861985931E-31,-1.,-2.91914290310959E-16));
#1061=DIRECTION('ref_axis',(1.,2.07647266923196E-31,6.12323399573701E-17));
#1062=DIRECTION('',(1.,2.07647266923196E-31,6.12323399573701E-17));
#1063=DIRECTION('',(0.,-2.91914290310959E-16,1.));
#1064=DIRECTION('center_axis',(-6.12323399573702E-17,-4.11279684494799E-16,
1.));
#1065=DIRECTION('ref_axis',(-1.,-2.07647266923196E-31,-6.12323399573702E-17));
#1066=DIRECTION('center_axis',(-6.12323399573702E-17,-4.11279684494799E-16,
1.));
#1067=DIRECTION('ref_axis',(-2.32830884381742E-31,1.,4.11279684494799E-16));
#1068=DIRECTION('',(-1.,-2.07647266923196E-31,-6.12323399573702E-17));
#1069=DIRECTION('center_axis',(-6.12323399573701E-17,-4.11279684494799E-16,
1.));
#1070=DIRECTION('ref_axis',(1.,2.07647266923196E-31,6.12323399573701E-17));
#1071=DIRECTION('',(-2.32830884381742E-31,1.,4.11279684494799E-16));
#1072=DIRECTION('center_axis',(-6.12323399573701E-17,-4.11279684494799E-16,
1.));
#1073=DIRECTION('ref_axis',(2.32830884381742E-31,-1.,-4.11279684494799E-16));
#1074=DIRECTION('center_axis',(-6.12323399573702E-17,-4.11279684494799E-16,
1.));
#1075=DIRECTION('ref_axis',(1.,0.,0.));
#1076=DIRECTION('center_axis',(0.,-2.91914290310959E-16,1.));
#1077=DIRECTION('ref_axis',(-2.32830884381742E-31,1.,2.91914290310959E-16));
#1078=DIRECTION('center_axis',(0.,0.,1.));
#1079=DIRECTION('ref_axis',(-0.707106781186548,0.707106781186547,0.));
#1080=DIRECTION('',(0.,-2.91914290310959E-16,1.));
#1081=DIRECTION('center_axis',(0.,0.,1.));
#1082=DIRECTION('ref_axis',(1.,0.,0.));
#1083=DIRECTION('center_axis',(0.,0.,-1.));
#1084=DIRECTION('ref_axis',(-0.707106781186548,0.707106781186547,0.));
#1085=DIRECTION('center_axis',(-1.,0.,0.));
#1086=DIRECTION('ref_axis',(0.,-1.,0.));
#1087=DIRECTION('center_axis',(0.,0.,1.));
#1088=DIRECTION('ref_axis',(1.,0.,0.));
#1089=DIRECTION('center_axis',(0.,0.,-1.));
#1090=DIRECTION('ref_axis',(1.,-1.37812325857488E-15,0.));
#1091=DIRECTION('',(-0.5,-0.866025403784438,0.));
#1092=DIRECTION('center_axis',(0.,0.,-1.));
#1093=DIRECTION('ref_axis',(0.707106781186548,-0.707106781186548,0.));
#1094=DIRECTION('',(2.32830884381742E-31,-1.,0.));
#1095=DIRECTION('center_axis',(0.,0.,-1.));
#1096=DIRECTION('ref_axis',(0.707106781186564,0.707106781186531,0.));
#1097=DIRECTION('',(1.,2.25521861985931E-31,0.));
#1098=DIRECTION('center_axis',(0.,0.,1.));
#1099=DIRECTION('ref_axis',(1.,0.,0.));
#1100=DIRECTION('center_axis',(0.,0.,1.));
#1101=DIRECTION('ref_axis',(1.,0.,0.));
#1102=DIRECTION('center_axis',(0.,0.,1.));
#1103=DIRECTION('ref_axis',(1.,0.,0.));
#1104=DIRECTION('center_axis',(0.,0.,-1.));
#1105=DIRECTION('ref_axis',(0.707106781186548,-0.707106781186548,0.));
#1106=DIRECTION('',(-0.5,-0.866025403784438,0.));
#1107=DIRECTION('center_axis',(0.,0.,-1.));
#1108=DIRECTION('ref_axis',(1.,-1.37812325857488E-15,0.));
#1109=DIRECTION('',(0.,0.,1.));
#1110=DIRECTION('center_axis',(-0.866025403784438,0.500000000000001,0.));
#1111=DIRECTION('ref_axis',(0.5,0.866025403784438,0.));
#1112=DIRECTION('center_axis',(0.,0.,1.));
#1113=DIRECTION('ref_axis',(1.,-1.98706144259634E-15,0.));
#1114=DIRECTION('center_axis',(0.,0.,-1.));
#1115=DIRECTION('ref_axis',(1.,-1.98706144259634E-15,0.));
#1116=DIRECTION('center_axis',(0.500000000000001,-0.866025403784438,0.));
#1117=DIRECTION('ref_axis',(0.,0.,1.));
#1118=DIRECTION('center_axis',(0.,0.,1.));
#1119=DIRECTION('ref_axis',(1.,0.,0.));
#1120=DIRECTION('center_axis',(0.,0.,1.));
#1121=DIRECTION('ref_axis',(0.707106781186548,-0.707106781186548,0.));
#1122=DIRECTION('center_axis',(0.,1.,0.));
#1123=DIRECTION('ref_axis',(-1.,0.,0.));
#1124=DIRECTION('center_axis',(-2.32830884381742E-31,1.,0.));
#1125=DIRECTION('ref_axis',(-0.707106781186547,0.,0.707106781186547));
#1126=DIRECTION('center_axis',(0.,1.,0.));
#1127=DIRECTION('ref_axis',(-1.,0.,0.));
#1128=DIRECTION('',(-2.32830884381742E-31,1.,0.));
#1129=DIRECTION('center_axis',(0.,0.,1.));
#1130=DIRECTION('ref_axis',(1.,0.,0.));
#1131=DIRECTION('center_axis',(-1.,4.61852778244065E-14,0.));
#1132=DIRECTION('ref_axis',(-4.61852778244065E-14,-1.,0.));
#1133=DIRECTION('center_axis',(0.,0.,1.));
#1134=DIRECTION('ref_axis',(0.707106781186564,0.707106781186531,0.));
#1135=DIRECTION('center_axis',(-1.,-2.25521861985931E-31,0.));
#1136=DIRECTION('ref_axis',(0.,-0.707106781186548,0.707106781186547));
#1137=DIRECTION('',(-1.,-2.25521861985931E-31,0.));
#1138=DIRECTION('center_axis',(-2.25521861985931E-31,1.,2.91914290310959E-16));
#1139=DIRECTION('ref_axis',(-1.,-2.07647266923196E-31,-6.12323399573702E-17));
#1140=DIRECTION('',(0.,-2.91914290310959E-16,1.));
#1141=DIRECTION('center_axis',(0.,-2.91914290310959E-16,1.));
#1142=DIRECTION('ref_axis',(1.,2.25521861985931E-31,0.));
#1143=DIRECTION('',(0.,-2.91914290310959E-16,1.));
#1144=DIRECTION('center_axis',(1.,2.32830884381742E-31,6.79666623767692E-47));
#1145=DIRECTION('ref_axis',(-2.32830884381742E-31,1.,4.11279684494799E-16));
#1146=DIRECTION('',(0.,-2.91914290310959E-16,1.));
#1147=DIRECTION('center_axis',(0.,-2.91914290310959E-16,1.));
#1148=DIRECTION('ref_axis',(2.32830884381742E-31,-1.,-2.91914290310959E-16));
#1149=DIRECTION('center_axis',(0.,0.,1.));
#1150=DIRECTION('ref_axis',(1.,0.,0.));
#1151=DIRECTION('',(0.,0.,1.));
#1152=DIRECTION('center_axis',(0.,0.,1.));
#1153=DIRECTION('ref_axis',(1.,0.,0.));
#1154=DIRECTION('center_axis',(0.,0.,-1.));
#1155=DIRECTION('ref_axis',(1.,0.,0.));
#1156=DIRECTION('center_axis',(0.,0.,1.));
#1157=DIRECTION('ref_axis',(1.,0.,0.));
#1158=DIRECTION('',(0.,0.,1.));
#1159=DIRECTION('center_axis',(0.,0.,-1.));
#1160=DIRECTION('ref_axis',(1.,0.,0.));
#1161=DIRECTION('center_axis',(0.,0.,1.));
#1162=DIRECTION('ref_axis',(1.,0.,0.));
#1163=DIRECTION('',(0.,0.,1.));
#1164=DIRECTION('center_axis',(0.,0.,-1.));
#1165=DIRECTION('ref_axis',(1.,0.,0.));
#1166=DIRECTION('center_axis',(0.,0.,1.));
#1167=DIRECTION('ref_axis',(1.,0.,0.));
#1168=CARTESIAN_POINT('',(0.,0.,0.));
#1169=CARTESIAN_POINT('Origin',(3.5527136788005E-14,4.44089209850063E-14,
3.));
#1170=CARTESIAN_POINT('',(25.9807621135332,15.,3.));
#1171=CARTESIAN_POINT('',(3.70030320837468E-14,4.24902787608643E-14,3.));
#1172=CARTESIAN_POINT('',(9.94349196519381E-15,2.68674459892703E-14,3.));
#1173=CARTESIAN_POINT('',(15.,-25.9807621135331,3.));
#1174=CARTESIAN_POINT('Origin',(3.70948805936828E-14,4.23311924750556E-14,
3.));
#1175=CARTESIAN_POINT('',(4.48231085125555E-14,2.89455090670959E-14,3.));
#1176=CARTESIAN_POINT('Origin',(3.70948805936828E-14,4.23311924750556E-14,
0.));
#1177=CARTESIAN_POINT('',(25.9807621135332,15.,0.));
#1178=CARTESIAN_POINT('',(25.9807621135332,15.,0.));
#1179=CARTESIAN_POINT('',(15.,-25.9807621135331,0.));
#1180=CARTESIAN_POINT('Origin',(3.70948805936828E-14,4.23311924750556E-14,
0.));
#1181=CARTESIAN_POINT('',(15.,-25.9807621135331,0.));
#1182=CARTESIAN_POINT('Origin',(-1.51272239702155E-14,8.43755209988451E-15,
-52.941));
#1183=CARTESIAN_POINT('',(3.69111835738107E-14,4.26493650466731E-14,6.));
#1184=CARTESIAN_POINT('',(3.87157312485243E-14,3.95237967893889E-14,-52.941));
#1185=CARTESIAN_POINT('',(129.903810567666,74.9999999999999,6.));
#1186=CARTESIAN_POINT('',(-5.39399552662769E-15,1.82244585049197E-14,6.00000000000001));
#1187=CARTESIAN_POINT('',(129.903810567666,74.9999999999999,-27.941));
#1188=CARTESIAN_POINT('',(129.903810567666,74.9999999999999,-26.4705));
#1189=CARTESIAN_POINT('',(125.573683548744,72.4999999999999,-27.941));
#1190=CARTESIAN_POINT('',(64.9519052838329,37.5,-27.941));
#1191=CARTESIAN_POINT('',(125.573683548744,72.4999999999999,-77.941));
#1192=CARTESIAN_POINT('',(125.573683548744,72.4999999999999,-52.941));
#1193=CARTESIAN_POINT('',(129.903810567666,74.9999999999999,-77.941));
#1194=CARTESIAN_POINT('',(64.9519052838329,37.5,-77.941));
#1195=CARTESIAN_POINT('',(129.903810567666,74.9999999999999,-111.882));
#1196=CARTESIAN_POINT('',(129.903810567666,74.9999999999999,-26.4705));
#1197=CARTESIAN_POINT('',(121.243556529821,69.9999999999999,-111.882));
#1198=CARTESIAN_POINT('',(-1.33226762955019E-14,5.31198384260027E-15,-111.882));
#1199=CARTESIAN_POINT('',(121.243556529821,69.9999999999999,0.));
#1200=CARTESIAN_POINT('',(121.243556529821,69.9999999999999,-26.4705));
#1201=CARTESIAN_POINT('',(-5.21029850675559E-15,1.79062859333022E-14,4.44089209850063E-15));
#1202=CARTESIAN_POINT('Origin',(5.38429552187398E-14,1.33226762955019E-14,
-52.941));
#1203=CARTESIAN_POINT('',(17.8506168265277,-30.9181752899898,0.));
#1204=CARTESIAN_POINT('',(4.23051791004384E-14,3.33066907387547E-14,0.));
#1205=CARTESIAN_POINT('',(19.1636370797228,-33.1923930798907,-2.50000000000002));
#1206=CARTESIAN_POINT('Ctrl Pts',(19.1636370797228,-33.1923930798907,-2.50000000000002));
#1207=CARTESIAN_POINT('Ctrl Pts',(19.1636370797228,-33.1923930798907,-2.19655314643496));
#1208=CARTESIAN_POINT('Ctrl Pts',(19.1266353506416,-33.1283042051541,-1.8400160824269));
#1209=CARTESIAN_POINT('Ctrl Pts',(19.0055124175414,-32.9185131310628,-1.27401406106655));
#1210=CARTESIAN_POINT('Ctrl Pts',(18.8984638499211,-32.7330995730671,-0.966552892837874));
#1211=CARTESIAN_POINT('Ctrl Pts',(18.6707622266269,-32.3387087925556,-0.525657335867821));
#1212=CARTESIAN_POINT('Ctrl Pts',(18.508474457137,-32.057618130352,-0.316786310466765));
#1213=CARTESIAN_POINT('Ctrl Pts',(18.207347947921,-31.536051716884,-0.0744496636455937));
#1214=CARTESIAN_POINT('Ctrl Pts',(18.0143844942611,-31.2018292111411,-1.69220393860873E-14));
#1215=CARTESIAN_POINT('Ctrl Pts',(17.8506168265277,-30.9181752899898,-1.75402227464705E-14));
#1216=CARTESIAN_POINT('',(19.1636370797228,-33.1923930798907,-60.8519991226002));
#1217=CARTESIAN_POINT('',(19.1636370797228,-33.1923930798907,-60.8519991226002));
#1218=CARTESIAN_POINT('',(73.2201401054698,-126.821002799985,-60.8519991226002));
#1219=CARTESIAN_POINT('',(23.4692540450844,-40.6499404218275,-60.8519991226002));
#1220=CARTESIAN_POINT('',(73.2201401054698,-126.821002799985,-2.5));
#1221=CARTESIAN_POINT('',(73.2201401054698,-126.821002799985,-56.8964995613001));
#1222=CARTESIAN_POINT('',(74.6635157784439,-129.321002799985,0.));
#1223=CARTESIAN_POINT('Origin',(74.6635157784439,-129.321002799985,-2.5));
#1224=CARTESIAN_POINT('',(80.8290376865475,-140.,0.));
#1225=CARTESIAN_POINT('',(4.23051791004384E-14,3.33066907387547E-14,0.));
#1226=CARTESIAN_POINT('',(80.8290376865475,-140.,-111.882));
#1227=CARTESIAN_POINT('',(80.8290376865475,-140.,0.));
#1228=CARTESIAN_POINT('',(86.2157890324958,-149.330127018922,-111.882));
#1229=CARTESIAN_POINT('',(5.38429552187398E-14,1.33226762955019E-14,-111.882));
#1230=CARTESIAN_POINT('',(86.2157890324958,-149.330127018922,-86.882));
#1231=CARTESIAN_POINT('',(86.2157890324958,-149.330127018922,0.));
#1232=CARTESIAN_POINT('',(83.3290376865477,-144.330127018922,-86.882));
#1233=CARTESIAN_POINT('',(39.9056372505393,-69.1185912263472,-86.882));
#1234=CARTESIAN_POINT('',(83.3290376865477,-144.330127018922,-41.882));
#1235=CARTESIAN_POINT('',(83.3290376865477,-144.330127018922,-111.882));
#1236=CARTESIAN_POINT('',(86.2157890324958,-149.330127018922,-41.882));
#1237=CARTESIAN_POINT('',(39.9056372505393,-69.1185912263472,-41.882));
#1238=CARTESIAN_POINT('',(86.2157890324958,-149.330127018922,6.00000000000001));
#1239=CARTESIAN_POINT('',(86.2157890324958,-149.330127018922,0.));
#1240=CARTESIAN_POINT('',(4.23051791004384E-14,3.33066907387547E-14,6.));
#1241=CARTESIAN_POINT('Origin',(136.903810567666,62.8756443470178,-76.941));
#1242=CARTESIAN_POINT('',(133.073683548744,59.5096189432333,-76.941));
#1243=CARTESIAN_POINT('',(132.573683548744,60.3756443470178,-77.941));
#1244=CARTESIAN_POINT('Origin',(132.573683548744,60.3756443470178,-76.941));
#1245=CARTESIAN_POINT('',(137.403810567666,62.0096189432333,-76.941));
#1246=CARTESIAN_POINT('',(137.403810567666,62.0096189432333,-76.941));
#1247=CARTESIAN_POINT('',(136.903810567666,62.8756443470177,-77.941));
#1248=CARTESIAN_POINT('Origin',(136.903810567666,62.8756443470178,-76.941));
#1249=CARTESIAN_POINT('',(136.903810567666,62.8756443470178,-77.941));
#1250=CARTESIAN_POINT('Origin',(125.573683548744,72.4999999999999,-52.941));
#1251=CARTESIAN_POINT('',(133.073683548744,59.5096189432333,-77.941));
#1252=CARTESIAN_POINT('',(132.573683548744,60.3756443470178,-27.941));
#1253=CARTESIAN_POINT('',(118.073683548744,85.4903810567665,-27.941));
#1254=CARTESIAN_POINT('',(133.073683548744,59.5096189432333,-28.941));
#1255=CARTESIAN_POINT('Origin',(132.573683548744,60.3756443470178,-28.941));
#1256=CARTESIAN_POINT('',(133.073683548744,59.5096189432333,-27.941));
#1257=CARTESIAN_POINT('Origin',(122.403810567666,87.9903810567665,-77.941));
#1258=CARTESIAN_POINT('',(104.503175473055,118.995190528383,-77.941));
#1259=CARTESIAN_POINT('Origin',(136.903810567666,62.8756443470178,-28.941));
#1260=CARTESIAN_POINT('',(136.903810567666,62.8756443470178,-27.941));
#1261=CARTESIAN_POINT('',(136.903810567666,62.8756443470178,-27.941));
#1262=CARTESIAN_POINT('',(137.403810567666,62.0096189432333,-28.941));
#1263=CARTESIAN_POINT('Origin',(136.903810567666,62.8756443470178,-28.941));
#1264=CARTESIAN_POINT('',(137.403810567666,62.0096189432333,-28.941));
#1265=CARTESIAN_POINT('Origin',(137.403810567666,62.0096189432333,-27.941));
#1266=CARTESIAN_POINT('',(112.003175473055,106.004809471617,-27.941));
#1267=CARTESIAN_POINT('Origin',(80.3525403784438,-137.924682452695,-41.882));
#1268=CARTESIAN_POINT('',(85.1591647054697,-142.5,-41.882));
#1269=CARTESIAN_POINT('Origin',(80.8290376865475,-140.,-41.882));
#1270=CARTESIAN_POINT('',(94.7724133595216,-125.849364905389,-41.882));
#1271=CARTESIAN_POINT('',(94.7724133595216,-125.849364905389,-41.882));
#1272=CARTESIAN_POINT('',(99.1025403784438,-128.349364905389,-41.882));
#1273=CARTESIAN_POINT('',(99.1025403784438,-128.349364905389,-41.882));
#1274=CARTESIAN_POINT('',(88.0459160514179,-147.5,-41.882));
#1275=CARTESIAN_POINT('',(131.736943506348,-71.8249206131737,-41.882));
#1276=CARTESIAN_POINT('Origin',(83.7157890324956,-145.,-41.882));
#1277=CARTESIAN_POINT('Origin',(80.3525403784438,-137.924682452695,-86.882));
#1278=CARTESIAN_POINT('',(88.0459160514179,-147.5,-86.882));
#1279=CARTESIAN_POINT('Origin',(83.7157890324956,-145.,-86.882));
#1280=CARTESIAN_POINT('',(99.1025403784438,-128.349364905389,-86.882));
#1281=CARTESIAN_POINT('',(131.736943506348,-71.8249206131737,-86.882));
#1282=CARTESIAN_POINT('',(94.7724133595216,-125.849364905389,-86.882));
#1283=CARTESIAN_POINT('',(94.1444074397612,-125.486785518563,-86.882));
#1284=CARTESIAN_POINT('',(85.1591647054697,-142.5,-86.882));
#1285=CARTESIAN_POINT('',(90.3555462982042,-133.499603065868,-86.882));
#1286=CARTESIAN_POINT('Origin',(80.8290376865475,-140.,-86.882));
#1287=CARTESIAN_POINT('Origin',(80.8290376865475,-140.,-111.882));
#1288=CARTESIAN_POINT('',(85.1591647054697,-142.5,-111.882));
#1289=CARTESIAN_POINT('Origin',(94.7724133595216,-125.849364905389,-111.882));
#1290=CARTESIAN_POINT('',(94.7724133595216,-125.849364905389,-111.882));
#1291=CARTESIAN_POINT('Origin',(99.1025403784438,-128.349364905389,-111.882));
#1292=CARTESIAN_POINT('',(99.1025403784438,-128.349364905389,-55.941));
#1293=CARTESIAN_POINT('Origin',(83.7157890324956,-145.,0.));
#1294=CARTESIAN_POINT('',(88.0459160514178,-147.5,-111.882));
#1295=CARTESIAN_POINT('Origin',(83.7157890324956,-145.,-111.882));
#1296=CARTESIAN_POINT('',(88.0459160514178,-147.5,0.));
#1297=CARTESIAN_POINT('Origin',(83.7157890324956,-145.,0.));
#1298=CARTESIAN_POINT('',(88.0459160514178,-147.5,6.));
#1299=CARTESIAN_POINT('',(88.0459160514178,-147.5,0.));
#1300=CARTESIAN_POINT('Origin',(83.7157890324956,-145.,6.));
#1301=CARTESIAN_POINT('Origin',(173.205080756888,-1.06581410364015E-13,
0.));
#1302=CARTESIAN_POINT('',(171.761705083914,-2.50000000000009,-111.882));
#1303=CARTESIAN_POINT('',(86.6025403784438,-150.,-111.882));
#1304=CARTESIAN_POINT('',(171.761705083914,-2.50000000000009,6.));
#1305=CARTESIAN_POINT('',(171.761705083914,-2.50000000000009,0.));
#1306=CARTESIAN_POINT('',(151.554445662277,-37.5000000000001,6.));
#1307=CARTESIAN_POINT('Origin',(161.658075373095,-1.06581410364015E-13,
0.));
#1308=CARTESIAN_POINT('',(160.214699700121,2.4999999999999,-111.882));
#1309=CARTESIAN_POINT('',(161.658075373095,-1.06581410364015E-13,-111.882));
#1310=CARTESIAN_POINT('',(160.214699700121,2.4999999999999,0.));
#1311=CARTESIAN_POINT('',(160.214699700121,2.49999999999991,0.));
#1312=CARTESIAN_POINT('',(141.450815951458,34.9999999999999,0.));
#1313=CARTESIAN_POINT('Origin',(0.,-1.77635683940025E-14,-111.882));
#1314=CARTESIAN_POINT('',(171.761705083914,2.49999999999991,-111.882));
#1315=CARTESIAN_POINT('',(173.205080756888,-1.06581410364015E-13,-111.882));
#1316=CARTESIAN_POINT('Origin',(167.431578064991,-7.99360577730113E-14,
-111.882));
#1317=CARTESIAN_POINT('',(160.214699700121,-2.50000000000009,-111.882));
#1318=CARTESIAN_POINT('',(80.8290376865475,-140.,-111.882));
#1319=CARTESIAN_POINT('Origin',(155.884572681199,-8.88178419700125E-14,
-111.882));
#1320=CARTESIAN_POINT('Origin',(86.602540378444,150.,0.));
#1321=CARTESIAN_POINT('',(137.403810567666,62.0096189432333,-38.9705));
#1322=CARTESIAN_POINT('',(171.761705083914,2.49999999999989,6.));
#1323=CARTESIAN_POINT('',(108.253175473055,112.5,6.));
#1324=CARTESIAN_POINT('',(171.761705083914,2.49999999999991,0.));
#1325=CARTESIAN_POINT('Origin',(11.4999999999992,-129.321002799985,-2.5));
#1326=CARTESIAN_POINT('',(76.0000000000023,-126.821002799985,-2.50000000000004));
#1327=CARTESIAN_POINT('',(11.4999999999992,-126.821002799985,-2.5));
#1328=CARTESIAN_POINT('',(76.0000000000023,-129.321002799985,0.));
#1329=CARTESIAN_POINT('Origin',(76.0000000000023,-129.321002799985,-2.50000000000004));
#1330=CARTESIAN_POINT('',(11.4999999999992,-129.321002799985,0.));
#1331=CARTESIAN_POINT('Origin',(22.9999999999983,-126.821002799985,-60.8519991226002));
#1332=CARTESIAN_POINT('',(76.0000000000023,-126.821002799985,-60.8519991226002));
#1333=CARTESIAN_POINT('',(22.9999999999983,-126.821002799985,-60.8519991226002));
#1334=CARTESIAN_POINT('',(76.0000000000023,-126.821002799985,-60.8519991226002));
#1335=CARTESIAN_POINT('Origin',(49.5000000000003,-79.8210027999866,-60.8519991226002));
#1336=CARTESIAN_POINT('',(22.9999999999983,-32.8210027999889,-60.8519991226002));
#1337=CARTESIAN_POINT('Origin',(22.9999999999983,-52.8210027999889,-60.8519991226002));
#1338=CARTESIAN_POINT('',(76.0000000000032,-32.821002799988,-60.8519991226002));
#1339=CARTESIAN_POINT('',(96.0000000000023,-32.8210027999889,-60.8519991226002));
#1340=CARTESIAN_POINT('',(96.0000000000023,-52.821002799988,-60.8519991226002));
#1341=CARTESIAN_POINT('Origin',(76.0000000000023,-52.821002799988,-60.8519991226002));
#1342=CARTESIAN_POINT('',(96.0000000000023,-106.821002799985,-60.8519991226002));
#1343=CARTESIAN_POINT('',(96.0000000000023,-106.821002799985,-60.8519991226002));
#1344=CARTESIAN_POINT('Origin',(76.0000000000023,-106.821002799985,-60.8519991226002));
#1345=CARTESIAN_POINT('',(49.1188841591031,-42.3210027999869,-60.8519991226002));
#1346=CARTESIAN_POINT('Origin',(49.6188841591031,-42.3210027999869,-60.8519991226002));
#1347=CARTESIAN_POINT('Origin',(22.9999999999983,-52.8210027999889,-60.8519991226002));
#1348=CARTESIAN_POINT('',(22.9999999999983,-32.821002799989,-2.5));
#1349=CARTESIAN_POINT('Origin',(22.9999999999983,-52.821002799989,-2.50000000000002));
#1350=CARTESIAN_POINT('',(22.9999999999983,-32.8210027999889,-60.8519991226002));
#1351=CARTESIAN_POINT('Origin',(22.9999999999983,-52.821002799989,-2.50000000000002));
#1352=CARTESIAN_POINT('',(22.9999999999983,-30.321002799989,0.));
#1353=CARTESIAN_POINT('Origin',(22.9999999999983,-52.821002799989,0.));
#1354=CARTESIAN_POINT('Origin',(22.9999999999983,-30.321002799989,-2.5));
#1355=CARTESIAN_POINT('Origin',(0.,3.5527136788005E-14,0.));
#1356=CARTESIAN_POINT('',(160.214699700121,-2.50000000000007,0.));
#1357=CARTESIAN_POINT('Origin',(155.884572681199,-8.88178419700125E-14,
0.));
#1358=CARTESIAN_POINT('',(98.3128229262921,-109.71719565614,0.));
#1359=CARTESIAN_POINT('',(101.036297108184,-105.,0.));
#1360=CARTESIAN_POINT('',(98.5000000000023,-106.821002799985,0.));
#1361=CARTESIAN_POINT('Origin',(76.0000000000023,-106.821002799985,0.));
#1362=CARTESIAN_POINT('',(98.5000000000023,-52.8210027999881,0.));
#1363=CARTESIAN_POINT('',(98.5000000000023,-53.4105013999926,0.));
#1364=CARTESIAN_POINT('',(76.0000000000034,-30.3210027999881,0.));
#1365=CARTESIAN_POINT('Origin',(76.0000000000023,-52.8210027999881,0.));
#1366=CARTESIAN_POINT('',(38.0000000000016,-30.321002799989,0.));
#1367=CARTESIAN_POINT('',(53.6534595815952,0.866434425317948,0.));
#1368=CARTESIAN_POINT('Origin',(54.1534595815952,0.866434425317948,0.));
#1369=CARTESIAN_POINT('',(96.6580753730946,0.859572939155839,0.));
#1370=CARTESIAN_POINT('Origin',(97.1580753730946,0.859572939155839,0.));
#1371=CARTESIAN_POINT('Origin',(0.,3.5527136788005E-14,0.));
#1372=CARTESIAN_POINT('',(89.664588050836,-124.696377856219,0.));
#1373=CARTESIAN_POINT('Origin',(76.0000000000023,-106.821002799985,0.));
#1374=CARTESIAN_POINT('',(101.036297108184,-105.,0.));
#1375=CARTESIAN_POINT('Origin',(155.884572681199,-8.88178419700125E-14,
0.));
#1376=CARTESIAN_POINT('',(160.214699700121,-2.5000000000001,0.));
#1377=CARTESIAN_POINT('Origin',(80.8290376865475,-140.,0.));
#1378=CARTESIAN_POINT('Ctrl Pts',(89.664588050836,-124.696377856219,-3.5232233797089E-14));
#1379=CARTESIAN_POINT('Ctrl Pts',(90.1094203524777,-123.925905708928,-3.64236784374921E-14));
#1380=CARTESIAN_POINT('Ctrl Pts',(90.6415530599432,-123.004224823228,-0.0842828553386391));
#1381=CARTESIAN_POINT('Ctrl Pts',(91.5376870454215,-121.45207522999,-0.278055265082474));
#1382=CARTESIAN_POINT('Ctrl Pts',(92.0353076188018,-120.590171114004,-0.412923292053817));
#1383=CARTESIAN_POINT('Ctrl Pts',(93.0322787170758,-118.863366518116,-0.626006278566871));
#1384=CARTESIAN_POINT('Ctrl Pts',(93.5321815583951,-117.997509398103,-0.693754579656179));
#1385=CARTESIAN_POINT('Ctrl Pts',(94.4452294187329,-116.416064114256,-0.693754579656179));
#1386=CARTESIAN_POINT('Ctrl Pts',(94.9451322600522,-115.550206994243,-0.626006278566891));
#1387=CARTESIAN_POINT('Ctrl Pts',(95.9421033583263,-113.823402398354,-0.412923292053834));
#1388=CARTESIAN_POINT('Ctrl Pts',(96.4397239317066,-112.961498282368,-0.278055265082477));
#1389=CARTESIAN_POINT('Ctrl Pts',(97.3358579171849,-111.40934868913,-0.0842828553386368));
#1390=CARTESIAN_POINT('Ctrl Pts',(97.8679906246504,-110.487667803431,-3.61714604565618E-14));
#1391=CARTESIAN_POINT('Ctrl Pts',(98.312822926292,-109.71719565614,-3.56529042400133E-14));
#1392=CARTESIAN_POINT('Origin',(167.431578064991,-7.99360577730113E-14,
0.));
#1393=CARTESIAN_POINT('Origin',(167.431578064991,-7.99360577730113E-14,
6.));
#1394=CARTESIAN_POINT('Origin',(137.403810567666,62.0096189432333,-77.941));
#1395=CARTESIAN_POINT('Origin',(76.0000000000023,-106.821002799985,-2.50000000000004));
#1396=CARTESIAN_POINT('',(96.0000000000023,-106.821002799985,-2.50000000000004));
#1397=CARTESIAN_POINT('Origin',(76.0000000000023,-106.821002799985,-2.50000000000004));
#1398=CARTESIAN_POINT('Origin',(98.5000000000023,-106.821002799985,-2.50000000000004));
#1399=CARTESIAN_POINT('Origin',(98.5000000000023,-53.4105013999926,-2.5));
#1400=CARTESIAN_POINT('',(96.0000000000023,-52.8210027999881,-2.5));
#1401=CARTESIAN_POINT('Origin',(98.5000000000023,-52.8210027999881,-2.5));
#1402=CARTESIAN_POINT('',(96.0000000000023,-53.4105013999926,-2.5));
#1403=CARTESIAN_POINT('Origin',(76.0000000000023,-52.8210027999881,-2.50000000000002));
#1404=CARTESIAN_POINT('',(76.0000000000032,-32.8210027999881,-2.50000000000002));
#1405=CARTESIAN_POINT('Origin',(76.0000000000034,-30.3210027999881,-2.50000000000002));
#1406=CARTESIAN_POINT('Origin',(76.0000000000023,-52.8210027999881,-2.50000000000002));
#1407=CARTESIAN_POINT('Origin',(38.0000000000016,-30.321002799989,-2.5));
#1408=CARTESIAN_POINT('',(38.0000000000016,-32.821002799989,-2.5));
#1409=CARTESIAN_POINT('Origin',(76.0000000000032,-32.8210027999889,-60.8519991226002));
#1410=CARTESIAN_POINT('',(76.0000000000032,-32.821002799988,-60.8519991226002));
#1411=CARTESIAN_POINT('Origin',(76.0000000000023,-52.821002799988,-60.8519991226002));
#1412=CARTESIAN_POINT('',(96.0000000000023,-52.821002799988,-60.8519991226002));
#1413=CARTESIAN_POINT('Origin',(96.0000000000023,-106.821002799985,-60.8519991226002));
#1414=CARTESIAN_POINT('',(96.0000000000023,-106.821002799985,-60.8519991226002));
#1415=CARTESIAN_POINT('Origin',(76.0000000000023,-106.821002799985,-60.8519991226002));
#1416=CARTESIAN_POINT('Origin',(49.6188841591031,-42.3210027999869,-60.8519991226002));
#1417=CARTESIAN_POINT('',(49.1188841591031,-42.3210027999869,-59.8519991226002));
#1418=CARTESIAN_POINT('',(49.1188841591031,-42.3210027999869,-60.8519991226002));
#1419=CARTESIAN_POINT('Origin',(49.6188841591031,-42.3210027999869,-59.8519991226002));
#1420=CARTESIAN_POINT('Origin',(49.6188841591031,-42.3210027999869,-59.8519991226002));
#1421=CARTESIAN_POINT('Origin',(54.1534595815952,0.866434425317948,0.));
#1422=CARTESIAN_POINT('',(53.6534595815952,0.866434425317948,6.));
#1423=CARTESIAN_POINT('',(53.6534595815952,0.866434425317948,0.));
#1424=CARTESIAN_POINT('Origin',(54.1534595815952,0.866434425317948,6.));
#1425=CARTESIAN_POINT('Origin',(97.1580753730946,0.859572939155839,0.));
#1426=CARTESIAN_POINT('',(96.6580753730946,0.859572939155839,6.));
#1427=CARTESIAN_POINT('',(96.6580753730946,0.859572939155839,0.));
#1428=CARTESIAN_POINT('Origin',(97.1580753730946,0.859572939155839,6.));
#1429=CARTESIAN_POINT('Origin',(0.,3.5527136788005E-14,6.));
#1430=UNCERTAINTY_MEASURE_WITH_UNIT(LENGTH_MEASURE(0.01),#1434,
'DISTANCE_ACCURACY_VALUE',
'Maximum model space distance between geometric entities at asserted c
onnectivities');
#1431=UNCERTAINTY_MEASURE_WITH_UNIT(LENGTH_MEASURE(0.01),#1434,
'DISTANCE_ACCURACY_VALUE',
'Maximum model space distance between geometric entities at asserted c
onnectivities');
#1432=(
GEOMETRIC_REPRESENTATION_CONTEXT(3)
GLOBAL_UNCERTAINTY_ASSIGNED_CONTEXT((#1430))
GLOBAL_UNIT_ASSIGNED_CONTEXT((#1434,#1436,#1437))
REPRESENTATION_CONTEXT('','3D')
);
#1433=(
GEOMETRIC_REPRESENTATION_CONTEXT(3)
GLOBAL_UNCERTAINTY_ASSIGNED_CONTEXT((#1431))
GLOBAL_UNIT_ASSIGNED_CONTEXT((#1434,#1436,#1437))
REPRESENTATION_CONTEXT('','3D')
);
#1434=(
LENGTH_UNIT()
NAMED_UNIT(*)
SI_UNIT(.MILLI.,.METRE.)
);
#1435=(
LENGTH_UNIT()
NAMED_UNIT(*)
SI_UNIT($,.METRE.)
);
#1436=(
NAMED_UNIT(*)
PLANE_ANGLE_UNIT()
SI_UNIT($,.RADIAN.)
);
#1437=(
NAMED_UNIT(*)
SI_UNIT($,.STERADIAN.)
SOLID_ANGLE_UNIT()
);
#1438=SHAPE_DEFINITION_REPRESENTATION(#1439,#1440);
#1439=PRODUCT_DEFINITION_SHAPE('',$,#1442);
#1440=SHAPE_REPRESENTATION('',(#841),#1432);
#1441=PRODUCT_DEFINITION_CONTEXT('part definition',#1446,'design');
#1442=PRODUCT_DEFINITION('2026-06-20-12-35-21-097','FusionComponent',#1443,
#1441);
#1443=PRODUCT_DEFINITION_FORMATION('',$,#1448);
#1444=PRODUCT_RELATED_PRODUCT_CATEGORY('FusionComponent',
'FusionComponent',(#1448));
#1445=APPLICATION_PROTOCOL_DEFINITION('international standard',
'automotive_design',2009,#1446);
#1446=APPLICATION_CONTEXT(
'Core Data for Automotive Mechanical Design Process');
#1447=PRODUCT_CONTEXT('part definition',#1446,'mechanical');
#1448=PRODUCT('2026-06-20-12-35-21-097','FusionComponent',$,(#1447));
#1449=PRESENTATION_STYLE_ASSIGNMENT((#1450));
#1450=SURFACE_STYLE_USAGE(.BOTH.,#1451);
#1451=SURFACE_SIDE_STYLE('',(#1452));
#1452=SURFACE_STYLE_FILL_AREA(#1453);
#1453=FILL_AREA_STYLE('Steel - Satin',(#1454));
#1454=FILL_AREA_STYLE_COLOUR('Steel - Satin',#1455);
#1455=COLOUR_RGB('Steel - Satin',0.627450980392157,0.627450980392157,0.627450980392157);
ENDSEC;
END-ISO-10303-21;
