ISO-10303-21;
HEADER;
/* Generated by software containing ST-Developer
 * from STEP Tools, Inc. (www.steptools.com) 
 */

FILE_DESCRIPTION(
/* description */ (''),
/* implementation_level */ '2;1');

FILE_NAME(
/* name */ 'Electronic Hub Top D  x1.step',
/* time_stamp */ '2026-06-20T16:29:56-05:00',
/* author */ (''),
/* organization */ (''),
/* preprocessor_version */ 'ST-DEVELOPER v20.1',
/* originating_system */ 'Autodesk Translation Framework v15.8.0.0',
/* authorisation */ '');

FILE_SCHEMA (('AUTOMOTIVE_DESIGN { 1 0 10303 214 3 1 1 }'));
ENDSEC;

DATA;
#10=MECHANICAL_DESIGN_GEOMETRIC_PRESENTATION_REPRESENTATION('',(#13),#766);
#11=SHAPE_REPRESENTATION_RELATIONSHIP('SRR','None',#773,#12);
#12=ADVANCED_BREP_SHAPE_REPRESENTATION('',(#14),#765);
#13=STYLED_ITEM('',(#782),#14);
#14=MANIFOLD_SOLID_BREP('Body1',#450);
#15=CYLINDRICAL_SURFACE('',#481,25.);
#16=CYLINDRICAL_SURFACE('',#483,5.00000000000006);
#17=CYLINDRICAL_SURFACE('',#484,0.500000000000007);
#18=CYLINDRICAL_SURFACE('',#485,4.99999999999998);
#19=CYLINDRICAL_SURFACE('',#487,4.99999999999999);
#20=CYLINDRICAL_SURFACE('',#490,5.);
#21=CYLINDRICAL_SURFACE('',#492,0.499999999999989);
#22=CYLINDRICAL_SURFACE('',#502,1.);
#23=CYLINDRICAL_SURFACE('',#504,1.);
#24=FACE_BOUND('',#69,.T.);
#25=FACE_BOUND('',#72,.T.);
#26=CIRCLE('',#466,4.99999999999993);
#27=CIRCLE('',#467,5.0000000000001);
#28=CIRCLE('',#468,0.500000000000007);
#29=CIRCLE('',#469,25.);
#30=CIRCLE('',#470,0.499999999999989);
#31=CIRCLE('',#473,5.);
#32=CIRCLE('',#474,4.99999999999999);
#33=CIRCLE('',#475,0.500000000000007);
#34=CIRCLE('',#476,5.00000000000006);
#35=CIRCLE('',#477,4.99999999999998);
#36=CIRCLE('',#478,0.499999999999989);
#37=CIRCLE('',#482,25.);
#38=CIRCLE('',#488,4.99999999999999);
#39=CIRCLE('',#491,5.);
#40=CIRCLE('',#495,1.);
#41=CIRCLE('',#496,1.);
#42=CIRCLE('',#498,1.);
#43=CIRCLE('',#499,1.);
#44=FACE_OUTER_BOUND('',#67,.T.);
#45=FACE_OUTER_BOUND('',#68,.T.);
#46=FACE_OUTER_BOUND('',#70,.T.);
#47=FACE_OUTER_BOUND('',#71,.T.);
#48=FACE_OUTER_BOUND('',#73,.T.);
#49=FACE_OUTER_BOUND('',#74,.T.);
#50=FACE_OUTER_BOUND('',#75,.T.);
#51=FACE_OUTER_BOUND('',#76,.T.);
#52=FACE_OUTER_BOUND('',#77,.T.);
#53=FACE_OUTER_BOUND('',#78,.T.);
#54=FACE_OUTER_BOUND('',#79,.T.);
#55=FACE_OUTER_BOUND('',#80,.T.);
#56=FACE_OUTER_BOUND('',#81,.T.);
#57=FACE_OUTER_BOUND('',#82,.T.);
#58=FACE_OUTER_BOUND('',#83,.T.);
#59=FACE_OUTER_BOUND('',#84,.T.);
#60=FACE_OUTER_BOUND('',#85,.T.);
#61=FACE_OUTER_BOUND('',#86,.T.);
#62=FACE_OUTER_BOUND('',#87,.T.);
#63=FACE_OUTER_BOUND('',#88,.T.);
#64=FACE_OUTER_BOUND('',#89,.T.);
#65=FACE_OUTER_BOUND('',#90,.T.);
#66=FACE_OUTER_BOUND('',#91,.T.);
#67=EDGE_LOOP('',(#287,#288,#289,#290,#291,#292));
#68=EDGE_LOOP('',(#293,#294,#295,#296,#297,#298,#299,#300,#301));
#69=EDGE_LOOP('',(#302));
#70=EDGE_LOOP('',(#303,#304,#305,#306));
#71=EDGE_LOOP('',(#307,#308,#309,#310,#311,#312,#313,#314,#315,#316,#317,
#318));
#72=EDGE_LOOP('',(#319));
#73=EDGE_LOOP('',(#320,#321,#322,#323));
#74=EDGE_LOOP('',(#324,#325,#326,#327,#328,#329,#330,#331,#332,#333));
#75=EDGE_LOOP('',(#334,#335,#336,#337));
#76=EDGE_LOOP('',(#338,#339,#340,#341));
#77=EDGE_LOOP('',(#342,#343,#344,#345));
#78=EDGE_LOOP('',(#346,#347,#348,#349));
#79=EDGE_LOOP('',(#350,#351,#352,#353));
#80=EDGE_LOOP('',(#354,#355,#356,#357));
#81=EDGE_LOOP('',(#358,#359,#360,#361));
#82=EDGE_LOOP('',(#362,#363,#364,#365));
#83=EDGE_LOOP('',(#366,#367,#368,#369));
#84=EDGE_LOOP('',(#370,#371,#372,#373));
#85=EDGE_LOOP('',(#374,#375,#376,#377,#378,#379,#380,#381,#382,#383,#384,
#385,#386));
#86=EDGE_LOOP('',(#387,#388,#389,#390,#391,#392));
#87=EDGE_LOOP('',(#393,#394,#395,#396));
#88=EDGE_LOOP('',(#397,#398,#399,#400));
#89=EDGE_LOOP('',(#401,#402,#403,#404));
#90=EDGE_LOOP('',(#405,#406,#407,#408));
#91=EDGE_LOOP('',(#409,#410,#411,#412));
#92=LINE('',#638,#137);
#93=LINE('',#640,#138);
#94=LINE('',#642,#139);
#95=LINE('',#644,#140);
#96=LINE('',#646,#141);
#97=LINE('',#647,#142);
#98=LINE('',#650,#143);
#99=LINE('',#654,#144);
#100=LINE('',#658,#145);
#101=LINE('',#662,#146);
#102=LINE('',#668,#147);
#103=LINE('',#669,#148);
#104=LINE('',#672,#149);
#105=LINE('',#676,#150);
#106=LINE('',#680,#151);
#107=LINE('',#684,#152);
#108=LINE('',#688,#153);
#109=LINE('',#693,#154);
#110=LINE('',#694,#155);
#111=LINE('',#698,#156);
#112=LINE('',#700,#157);
#113=LINE('',#701,#158);
#114=LINE('',#702,#159);
#115=LINE('',#704,#160);
#116=LINE('',#706,#161);
#117=LINE('',#708,#162);
#118=LINE('',#709,#163);
#119=LINE('',#713,#164);
#120=LINE('',#716,#165);
#121=LINE('',#720,#166);
#122=LINE('',#724,#167);
#123=LINE('',#725,#168);
#124=LINE('',#728,#169);
#125=LINE('',#731,#170);
#126=LINE('',#733,#171);
#127=LINE('',#736,#172);
#128=LINE('',#740,#173);
#129=LINE('',#743,#174);
#130=LINE('',#748,#175);
#131=LINE('',#750,#176);
#132=LINE('',#753,#177);
#133=LINE('',#755,#178);
#134=LINE('',#757,#179);
#135=LINE('',#758,#180);
#136=LINE('',#761,#181);
#137=VECTOR('',#509,10.);
#138=VECTOR('',#510,10.);
#139=VECTOR('',#511,10.);
#140=VECTOR('',#512,10.);
#141=VECTOR('',#513,10.);
#142=VECTOR('',#514,10.);
#143=VECTOR('',#517,10.);
#144=VECTOR('',#520,10.);
#145=VECTOR('',#523,10.);
#146=VECTOR('',#526,10.);
#147=VECTOR('',#533,10.);
#148=VECTOR('',#534,10.);
#149=VECTOR('',#537,10.);
#150=VECTOR('',#540,10.);
#151=VECTOR('',#543,10.);
#152=VECTOR('',#546,10.);
#153=VECTOR('',#549,10.);
#154=VECTOR('',#556,10.);
#155=VECTOR('',#557,10.);
#156=VECTOR('',#560,10.);
#157=VECTOR('',#561,10.);
#158=VECTOR('',#562,10.);
#159=VECTOR('',#563,10.);
#160=VECTOR('',#564,10.);
#161=VECTOR('',#565,10.);
#162=VECTOR('',#566,10.);
#163=VECTOR('',#567,10.);
#164=VECTOR('',#574,10.);
#165=VECTOR('',#579,10.);
#166=VECTOR('',#584,10.);
#167=VECTOR('',#589,10.);
#168=VECTOR('',#590,10.);
#169=VECTOR('',#593,10.);
#170=VECTOR('',#598,0.499999999999989);
#171=VECTOR('',#601,10.);
#172=VECTOR('',#604,10.);
#173=VECTOR('',#607,10.);
#174=VECTOR('',#610,10.);
#175=VECTOR('',#615,10.);
#176=VECTOR('',#616,10.);
#177=VECTOR('',#619,10.);
#178=VECTOR('',#622,10.);
#179=VECTOR('',#625,10.);
#180=VECTOR('',#626,10.);
#181=VECTOR('',#631,10.);
#182=VERTEX_POINT('',#636);
#183=VERTEX_POINT('',#637);
#184=VERTEX_POINT('',#639);
#185=VERTEX_POINT('',#641);
#186=VERTEX_POINT('',#643);
#187=VERTEX_POINT('',#645);
#188=VERTEX_POINT('',#649);
#189=VERTEX_POINT('',#651);
#190=VERTEX_POINT('',#653);
#191=VERTEX_POINT('',#655);
#192=VERTEX_POINT('',#657);
#193=VERTEX_POINT('',#659);
#194=VERTEX_POINT('',#661);
#195=VERTEX_POINT('',#664);
#196=VERTEX_POINT('',#667);
#197=VERTEX_POINT('',#671);
#198=VERTEX_POINT('',#673);
#199=VERTEX_POINT('',#675);
#200=VERTEX_POINT('',#677);
#201=VERTEX_POINT('',#679);
#202=VERTEX_POINT('',#681);
#203=VERTEX_POINT('',#683);
#204=VERTEX_POINT('',#685);
#205=VERTEX_POINT('',#687);
#206=VERTEX_POINT('',#690);
#207=VERTEX_POINT('',#696);
#208=VERTEX_POINT('',#697);
#209=VERTEX_POINT('',#699);
#210=VERTEX_POINT('',#703);
#211=VERTEX_POINT('',#705);
#212=VERTEX_POINT('',#707);
#213=VERTEX_POINT('',#719);
#214=VERTEX_POINT('',#723);
#215=VERTEX_POINT('',#727);
#216=VERTEX_POINT('',#735);
#217=VERTEX_POINT('',#737);
#218=VERTEX_POINT('',#739);
#219=VERTEX_POINT('',#741);
#220=VERTEX_POINT('',#745);
#221=VERTEX_POINT('',#746);
#222=VERTEX_POINT('',#749);
#223=VERTEX_POINT('',#751);
#224=EDGE_CURVE('',#182,#183,#92,.T.);
#225=EDGE_CURVE('',#184,#182,#93,.T.);
#226=EDGE_CURVE('',#185,#184,#94,.T.);
#227=EDGE_CURVE('',#186,#185,#95,.T.);
#228=EDGE_CURVE('',#187,#186,#96,.T.);
#229=EDGE_CURVE('',#183,#187,#97,.T.);
#230=EDGE_CURVE('',#185,#188,#98,.T.);
#231=EDGE_CURVE('',#188,#189,#26,.T.);
#232=EDGE_CURVE('',#189,#190,#99,.T.);
#233=EDGE_CURVE('',#190,#191,#27,.T.);
#234=EDGE_CURVE('',#192,#191,#100,.T.);
#235=EDGE_CURVE('',#192,#193,#28,.T.);
#236=EDGE_CURVE('',#194,#193,#101,.T.);
#237=EDGE_CURVE('',#194,#186,#29,.T.);
#238=EDGE_CURVE('',#195,#195,#30,.T.);
#239=EDGE_CURVE('',#196,#184,#102,.T.);
#240=EDGE_CURVE('',#196,#188,#103,.T.);
#241=EDGE_CURVE('',#197,#182,#104,.T.);
#242=EDGE_CURVE('',#197,#198,#31,.T.);
#243=EDGE_CURVE('',#199,#198,#105,.T.);
#244=EDGE_CURVE('',#199,#200,#32,.T.);
#245=EDGE_CURVE('',#201,#200,#106,.T.);
#246=EDGE_CURVE('',#201,#202,#33,.T.);
#247=EDGE_CURVE('',#203,#202,#107,.T.);
#248=EDGE_CURVE('',#204,#203,#34,.T.);
#249=EDGE_CURVE('',#205,#204,#108,.T.);
#250=EDGE_CURVE('',#196,#205,#35,.T.);
#251=EDGE_CURVE('',#206,#206,#36,.T.);
#252=EDGE_CURVE('',#191,#203,#109,.T.);
#253=EDGE_CURVE('',#202,#192,#110,.T.);
#254=EDGE_CURVE('',#207,#208,#111,.T.);
#255=EDGE_CURVE('',#208,#209,#112,.T.);
#256=EDGE_CURVE('',#209,#194,#113,.T.);
#257=EDGE_CURVE('',#193,#201,#114,.T.);
#258=EDGE_CURVE('',#200,#210,#115,.T.);
#259=EDGE_CURVE('',#210,#211,#116,.T.);
#260=EDGE_CURVE('',#211,#212,#117,.T.);
#261=EDGE_CURVE('',#212,#207,#118,.T.);
#262=EDGE_CURVE('',#209,#187,#37,.T.);
#263=EDGE_CURVE('',#204,#190,#119,.T.);
#264=EDGE_CURVE('',#205,#189,#120,.T.);
#265=EDGE_CURVE('',#199,#213,#121,.T.);
#266=EDGE_CURVE('',#210,#213,#38,.T.);
#267=EDGE_CURVE('',#198,#214,#122,.T.);
#268=EDGE_CURVE('',#213,#214,#123,.T.);
#269=EDGE_CURVE('',#197,#215,#124,.T.);
#270=EDGE_CURVE('',#214,#215,#39,.T.);
#271=EDGE_CURVE('',#195,#206,#125,.T.);
#272=EDGE_CURVE('',#215,#183,#126,.T.);
#273=EDGE_CURVE('',#208,#216,#127,.T.);
#274=EDGE_CURVE('',#217,#216,#40,.T.);
#275=EDGE_CURVE('',#217,#218,#128,.T.);
#276=EDGE_CURVE('',#219,#218,#41,.T.);
#277=EDGE_CURVE('',#219,#211,#129,.T.);
#278=EDGE_CURVE('',#220,#221,#42,.T.);
#279=EDGE_CURVE('',#207,#221,#130,.T.);
#280=EDGE_CURVE('',#222,#212,#131,.T.);
#281=EDGE_CURVE('',#222,#223,#43,.T.);
#282=EDGE_CURVE('',#220,#223,#132,.T.);
#283=EDGE_CURVE('',#222,#219,#133,.T.);
#284=EDGE_CURVE('',#220,#217,#134,.T.);
#285=EDGE_CURVE('',#218,#223,#135,.T.);
#286=EDGE_CURVE('',#216,#221,#136,.T.);
#287=ORIENTED_EDGE('',*,*,#224,.F.);
#288=ORIENTED_EDGE('',*,*,#225,.F.);
#289=ORIENTED_EDGE('',*,*,#226,.F.);
#290=ORIENTED_EDGE('',*,*,#227,.F.);
#291=ORIENTED_EDGE('',*,*,#228,.F.);
#292=ORIENTED_EDGE('',*,*,#229,.F.);
#293=ORIENTED_EDGE('',*,*,#227,.T.);
#294=ORIENTED_EDGE('',*,*,#230,.T.);
#295=ORIENTED_EDGE('',*,*,#231,.T.);
#296=ORIENTED_EDGE('',*,*,#232,.T.);
#297=ORIENTED_EDGE('',*,*,#233,.T.);
#298=ORIENTED_EDGE('',*,*,#234,.F.);
#299=ORIENTED_EDGE('',*,*,#235,.T.);
#300=ORIENTED_EDGE('',*,*,#236,.F.);
#301=ORIENTED_EDGE('',*,*,#237,.T.);
#302=ORIENTED_EDGE('',*,*,#238,.T.);
#303=ORIENTED_EDGE('',*,*,#226,.T.);
#304=ORIENTED_EDGE('',*,*,#239,.F.);
#305=ORIENTED_EDGE('',*,*,#240,.T.);
#306=ORIENTED_EDGE('',*,*,#230,.F.);
#307=ORIENTED_EDGE('',*,*,#225,.T.);
#308=ORIENTED_EDGE('',*,*,#241,.F.);
#309=ORIENTED_EDGE('',*,*,#242,.T.);
#310=ORIENTED_EDGE('',*,*,#243,.F.);
#311=ORIENTED_EDGE('',*,*,#244,.T.);
#312=ORIENTED_EDGE('',*,*,#245,.F.);
#313=ORIENTED_EDGE('',*,*,#246,.T.);
#314=ORIENTED_EDGE('',*,*,#247,.F.);
#315=ORIENTED_EDGE('',*,*,#248,.F.);
#316=ORIENTED_EDGE('',*,*,#249,.F.);
#317=ORIENTED_EDGE('',*,*,#250,.F.);
#318=ORIENTED_EDGE('',*,*,#239,.T.);
#319=ORIENTED_EDGE('',*,*,#251,.T.);
#320=ORIENTED_EDGE('',*,*,#234,.T.);
#321=ORIENTED_EDGE('',*,*,#252,.T.);
#322=ORIENTED_EDGE('',*,*,#247,.T.);
#323=ORIENTED_EDGE('',*,*,#253,.T.);
#324=ORIENTED_EDGE('',*,*,#254,.T.);
#325=ORIENTED_EDGE('',*,*,#255,.T.);
#326=ORIENTED_EDGE('',*,*,#256,.T.);
#327=ORIENTED_EDGE('',*,*,#236,.T.);
#328=ORIENTED_EDGE('',*,*,#257,.T.);
#329=ORIENTED_EDGE('',*,*,#245,.T.);
#330=ORIENTED_EDGE('',*,*,#258,.T.);
#331=ORIENTED_EDGE('',*,*,#259,.T.);
#332=ORIENTED_EDGE('',*,*,#260,.T.);
#333=ORIENTED_EDGE('',*,*,#261,.T.);
#334=ORIENTED_EDGE('',*,*,#228,.T.);
#335=ORIENTED_EDGE('',*,*,#237,.F.);
#336=ORIENTED_EDGE('',*,*,#256,.F.);
#337=ORIENTED_EDGE('',*,*,#262,.T.);
#338=ORIENTED_EDGE('',*,*,#252,.F.);
#339=ORIENTED_EDGE('',*,*,#233,.F.);
#340=ORIENTED_EDGE('',*,*,#263,.F.);
#341=ORIENTED_EDGE('',*,*,#248,.T.);
#342=ORIENTED_EDGE('',*,*,#257,.F.);
#343=ORIENTED_EDGE('',*,*,#235,.F.);
#344=ORIENTED_EDGE('',*,*,#253,.F.);
#345=ORIENTED_EDGE('',*,*,#246,.F.);
#346=ORIENTED_EDGE('',*,*,#250,.T.);
#347=ORIENTED_EDGE('',*,*,#264,.T.);
#348=ORIENTED_EDGE('',*,*,#231,.F.);
#349=ORIENTED_EDGE('',*,*,#240,.F.);
#350=ORIENTED_EDGE('',*,*,#249,.T.);
#351=ORIENTED_EDGE('',*,*,#263,.T.);
#352=ORIENTED_EDGE('',*,*,#232,.F.);
#353=ORIENTED_EDGE('',*,*,#264,.F.);
#354=ORIENTED_EDGE('',*,*,#258,.F.);
#355=ORIENTED_EDGE('',*,*,#244,.F.);
#356=ORIENTED_EDGE('',*,*,#265,.T.);
#357=ORIENTED_EDGE('',*,*,#266,.F.);
#358=ORIENTED_EDGE('',*,*,#243,.T.);
#359=ORIENTED_EDGE('',*,*,#267,.T.);
#360=ORIENTED_EDGE('',*,*,#268,.F.);
#361=ORIENTED_EDGE('',*,*,#265,.F.);
#362=ORIENTED_EDGE('',*,*,#242,.F.);
#363=ORIENTED_EDGE('',*,*,#269,.T.);
#364=ORIENTED_EDGE('',*,*,#270,.F.);
#365=ORIENTED_EDGE('',*,*,#267,.F.);
#366=ORIENTED_EDGE('',*,*,#238,.F.);
#367=ORIENTED_EDGE('',*,*,#271,.T.);
#368=ORIENTED_EDGE('',*,*,#251,.F.);
#369=ORIENTED_EDGE('',*,*,#271,.F.);
#370=ORIENTED_EDGE('',*,*,#224,.T.);
#371=ORIENTED_EDGE('',*,*,#272,.F.);
#372=ORIENTED_EDGE('',*,*,#269,.F.);
#373=ORIENTED_EDGE('',*,*,#241,.T.);
#374=ORIENTED_EDGE('',*,*,#229,.T.);
#375=ORIENTED_EDGE('',*,*,#262,.F.);
#376=ORIENTED_EDGE('',*,*,#255,.F.);
#377=ORIENTED_EDGE('',*,*,#273,.T.);
#378=ORIENTED_EDGE('',*,*,#274,.F.);
#379=ORIENTED_EDGE('',*,*,#275,.T.);
#380=ORIENTED_EDGE('',*,*,#276,.F.);
#381=ORIENTED_EDGE('',*,*,#277,.T.);
#382=ORIENTED_EDGE('',*,*,#259,.F.);
#383=ORIENTED_EDGE('',*,*,#266,.T.);
#384=ORIENTED_EDGE('',*,*,#268,.T.);
#385=ORIENTED_EDGE('',*,*,#270,.T.);
#386=ORIENTED_EDGE('',*,*,#272,.T.);
#387=ORIENTED_EDGE('',*,*,#278,.T.);
#388=ORIENTED_EDGE('',*,*,#279,.F.);
#389=ORIENTED_EDGE('',*,*,#261,.F.);
#390=ORIENTED_EDGE('',*,*,#280,.F.);
#391=ORIENTED_EDGE('',*,*,#281,.T.);
#392=ORIENTED_EDGE('',*,*,#282,.F.);
#393=ORIENTED_EDGE('',*,*,#283,.F.);
#394=ORIENTED_EDGE('',*,*,#280,.T.);
#395=ORIENTED_EDGE('',*,*,#260,.F.);
#396=ORIENTED_EDGE('',*,*,#277,.F.);
#397=ORIENTED_EDGE('',*,*,#284,.F.);
#398=ORIENTED_EDGE('',*,*,#282,.T.);
#399=ORIENTED_EDGE('',*,*,#285,.F.);
#400=ORIENTED_EDGE('',*,*,#275,.F.);
#401=ORIENTED_EDGE('',*,*,#281,.F.);
#402=ORIENTED_EDGE('',*,*,#283,.T.);
#403=ORIENTED_EDGE('',*,*,#276,.T.);
#404=ORIENTED_EDGE('',*,*,#285,.T.);
#405=ORIENTED_EDGE('',*,*,#286,.F.);
#406=ORIENTED_EDGE('',*,*,#273,.F.);
#407=ORIENTED_EDGE('',*,*,#254,.F.);
#408=ORIENTED_EDGE('',*,*,#279,.T.);
#409=ORIENTED_EDGE('',*,*,#278,.F.);
#410=ORIENTED_EDGE('',*,*,#284,.T.);
#411=ORIENTED_EDGE('',*,*,#274,.T.);
#412=ORIENTED_EDGE('',*,*,#286,.T.);
#413=PLANE('',#464);
#414=PLANE('',#465);
#415=PLANE('',#471);
#416=PLANE('',#472);
#417=PLANE('',#479);
#418=PLANE('',#480);
#419=PLANE('',#486);
#420=PLANE('',#489);
#421=PLANE('',#493);
#422=PLANE('',#494);
#423=PLANE('',#497);
#424=PLANE('',#500);
#425=PLANE('',#501);
#426=PLANE('',#503);
#427=ADVANCED_FACE('',(#44),#413,.F.);
#428=ADVANCED_FACE('',(#45,#24),#414,.T.);
#429=ADVANCED_FACE('',(#46),#415,.T.);
#430=ADVANCED_FACE('',(#47,#25),#416,.T.);
#431=ADVANCED_FACE('',(#48),#417,.T.);
#432=ADVANCED_FACE('',(#49),#418,.T.);
#433=ADVANCED_FACE('',(#50),#15,.F.);
#434=ADVANCED_FACE('',(#51),#16,.T.);
#435=ADVANCED_FACE('',(#52),#17,.F.);
#436=ADVANCED_FACE('',(#53),#18,.T.);
#437=ADVANCED_FACE('',(#54),#419,.T.);
#438=ADVANCED_FACE('',(#55),#19,.F.);
#439=ADVANCED_FACE('',(#56),#420,.T.);
#440=ADVANCED_FACE('',(#57),#20,.F.);
#441=ADVANCED_FACE('',(#58),#21,.F.);
#442=ADVANCED_FACE('',(#59),#421,.T.);
#443=ADVANCED_FACE('',(#60),#422,.T.);
#444=ADVANCED_FACE('',(#61),#423,.F.);
#445=ADVANCED_FACE('',(#62),#424,.F.);
#446=ADVANCED_FACE('',(#63),#425,.F.);
#447=ADVANCED_FACE('',(#64),#22,.F.);
#448=ADVANCED_FACE('',(#65),#426,.F.);
#449=ADVANCED_FACE('',(#66),#23,.F.);
#450=CLOSED_SHELL('',(#427,#428,#429,#430,#431,#432,#433,#434,#435,#436,
#437,#438,#439,#440,#441,#442,#443,#444,#445,#446,#447,#448,#449));
#451=DERIVED_UNIT_ELEMENT(#453,1.);
#452=DERIVED_UNIT_ELEMENT(#768,-3.);
#453=(
MASS_UNIT()
NAMED_UNIT(*)
SI_UNIT(.KILO.,.GRAM.)
);
#454=DERIVED_UNIT((#451,#452));
#455=MEASURE_REPRESENTATION_ITEM('density measure',
POSITIVE_RATIO_MEASURE(7850.),#454);
#456=PROPERTY_DEFINITION_REPRESENTATION(#461,#458);
#457=PROPERTY_DEFINITION_REPRESENTATION(#462,#459);
#458=REPRESENTATION('material name',(#460),#765);
#459=REPRESENTATION('density',(#455),#765);
#460=DESCRIPTIVE_REPRESENTATION_ITEM('Steel','Steel');
#461=PROPERTY_DEFINITION('material property','material name',#775);
#462=PROPERTY_DEFINITION('material property','density of part',#775);
#463=AXIS2_PLACEMENT_3D('',#634,#505,#506);
#464=AXIS2_PLACEMENT_3D('',#635,#507,#508);
#465=AXIS2_PLACEMENT_3D('',#648,#515,#516);
#466=AXIS2_PLACEMENT_3D('',#652,#518,#519);
#467=AXIS2_PLACEMENT_3D('',#656,#521,#522);
#468=AXIS2_PLACEMENT_3D('',#660,#524,#525);
#469=AXIS2_PLACEMENT_3D('',#663,#527,#528);
#470=AXIS2_PLACEMENT_3D('',#665,#529,#530);
#471=AXIS2_PLACEMENT_3D('',#666,#531,#532);
#472=AXIS2_PLACEMENT_3D('',#670,#535,#536);
#473=AXIS2_PLACEMENT_3D('',#674,#538,#539);
#474=AXIS2_PLACEMENT_3D('',#678,#541,#542);
#475=AXIS2_PLACEMENT_3D('',#682,#544,#545);
#476=AXIS2_PLACEMENT_3D('',#686,#547,#548);
#477=AXIS2_PLACEMENT_3D('',#689,#550,#551);
#478=AXIS2_PLACEMENT_3D('',#691,#552,#553);
#479=AXIS2_PLACEMENT_3D('',#692,#554,#555);
#480=AXIS2_PLACEMENT_3D('',#695,#558,#559);
#481=AXIS2_PLACEMENT_3D('',#710,#568,#569);
#482=AXIS2_PLACEMENT_3D('',#711,#570,#571);
#483=AXIS2_PLACEMENT_3D('',#712,#572,#573);
#484=AXIS2_PLACEMENT_3D('',#714,#575,#576);
#485=AXIS2_PLACEMENT_3D('',#715,#577,#578);
#486=AXIS2_PLACEMENT_3D('',#717,#580,#581);
#487=AXIS2_PLACEMENT_3D('',#718,#582,#583);
#488=AXIS2_PLACEMENT_3D('',#721,#585,#586);
#489=AXIS2_PLACEMENT_3D('',#722,#587,#588);
#490=AXIS2_PLACEMENT_3D('',#726,#591,#592);
#491=AXIS2_PLACEMENT_3D('',#729,#594,#595);
#492=AXIS2_PLACEMENT_3D('',#730,#596,#597);
#493=AXIS2_PLACEMENT_3D('',#732,#599,#600);
#494=AXIS2_PLACEMENT_3D('',#734,#602,#603);
#495=AXIS2_PLACEMENT_3D('',#738,#605,#606);
#496=AXIS2_PLACEMENT_3D('',#742,#608,#609);
#497=AXIS2_PLACEMENT_3D('',#744,#611,#612);
#498=AXIS2_PLACEMENT_3D('',#747,#613,#614);
#499=AXIS2_PLACEMENT_3D('',#752,#617,#618);
#500=AXIS2_PLACEMENT_3D('',#754,#620,#621);
#501=AXIS2_PLACEMENT_3D('',#756,#623,#624);
#502=AXIS2_PLACEMENT_3D('',#759,#627,#628);
#503=AXIS2_PLACEMENT_3D('',#760,#629,#630);
#504=AXIS2_PLACEMENT_3D('',#762,#632,#633);
#505=DIRECTION('axis',(0.,0.,1.));
#506=DIRECTION('refdir',(1.,0.,0.));
#507=DIRECTION('center_axis',(-1.,2.17755844326097E-33,6.12323399573677E-17));
#508=DIRECTION('ref_axis',(6.12323399573677E-17,0.,1.));
#509=DIRECTION('',(6.12323399573677E-17,2.52694512041615E-30,1.));
#510=DIRECTION('',(-2.17755844326097E-33,-1.,0.));
#511=DIRECTION('',(-6.12323399573677E-17,-1.76450478235955E-30,-1.));
#512=DIRECTION('',(2.17755844326097E-33,1.,0.));
#513=DIRECTION('',(0.,0.,1.));
#514=DIRECTION('',(-2.17755844326097E-33,-1.,0.));
#515=DIRECTION('center_axis',(0.,0.,1.));
#516=DIRECTION('ref_axis',(1.,0.,0.));
#517=DIRECTION('',(-1.,-3.18283479125555E-16,0.));
#518=DIRECTION('center_axis',(0.,0.,1.));
#519=DIRECTION('ref_axis',(-0.866025403784439,0.5,0.));
#520=DIRECTION('',(-0.5,-0.866025403784439,0.));
#521=DIRECTION('center_axis',(0.,0.,1.));
#522=DIRECTION('ref_axis',(-0.866025403784444,-0.49999999999999,0.));
#523=DIRECTION('',(-1.,0.,0.));
#524=DIRECTION('center_axis',(0.,0.,-1.));
#525=DIRECTION('ref_axis',(-1.,0.,0.));
#526=DIRECTION('',(-1.,0.,0.));
#527=DIRECTION('center_axis',(0.,0.,-1.));
#528=DIRECTION('ref_axis',(1.,0.,0.));
#529=DIRECTION('center_axis',(0.,0.,-1.));
#530=DIRECTION('ref_axis',(-1.,0.,0.));
#531=DIRECTION('center_axis',(-3.18283479125555E-16,1.,-1.74501554016292E-30));
#532=DIRECTION('ref_axis',(-1.,-3.18283479125555E-16,-5.62787313698787E-15));
#533=DIRECTION('',(1.,4.24377972167407E-16,0.));
#534=DIRECTION('',(-5.48258283765509E-15,0.,1.));
#535=DIRECTION('center_axis',(0.,0.,-1.));
#536=DIRECTION('ref_axis',(-1.,0.,0.));
#537=DIRECTION('',(1.,4.55813377513141E-16,5.62787313698787E-15));
#538=DIRECTION('center_axis',(-5.62787313698787E-15,4.15249437711115E-16,
1.));
#539=DIRECTION('ref_axis',(2.33717347592225E-30,1.,-4.15249437711115E-16));
#540=DIRECTION('',(0.499999999999999,0.866025403784439,2.4543200065289E-15));
#541=DIRECTION('center_axis',(-5.62787313698787E-15,4.15249437711115E-16,
1.));
#542=DIRECTION('ref_axis',(-0.866025403784439,0.499999999999999,-5.08150582476308E-15));
#543=DIRECTION('',(1.,0.,0.));
#544=DIRECTION('center_axis',(0.,0.,1.));
#545=DIRECTION('ref_axis',(-1.,0.,0.));
#546=DIRECTION('',(1.,0.,0.));
#547=DIRECTION('center_axis',(-5.62787313698787E-15,4.15249437711115E-16,
1.));
#548=DIRECTION('ref_axis',(-0.866025403784444,0.49999999999999,-5.08150582476311E-15));
#549=DIRECTION('',(-0.5,-0.866025403784439,-2.45432000652891E-15));
#550=DIRECTION('center_axis',(-5.62787313698787E-15,4.15249437711115E-16,
1.));
#551=DIRECTION('ref_axis',(3.55271367880052E-15,1.,-4.15249437711095E-16));
#552=DIRECTION('center_axis',(0.,0.,1.));
#553=DIRECTION('ref_axis',(-1.,0.,0.));
#554=DIRECTION('center_axis',(0.,-1.,6.12323399573677E-17));
#555=DIRECTION('ref_axis',(0.,-6.12323399573677E-17,-1.));
#556=DIRECTION('',(5.48258283765509E-15,0.,-1.));
#557=DIRECTION('',(0.,0.,1.));
#558=DIRECTION('center_axis',(0.,-1.,6.12323399573677E-17));
#559=DIRECTION('ref_axis',(0.,-6.12323399573677E-17,-1.));
#560=DIRECTION('',(0.,-6.12323399573677E-17,-1.));
#561=DIRECTION('',(1.,0.,0.));
#562=DIRECTION('',(0.,0.,1.));
#563=DIRECTION('',(0.,0.,-1.));
#564=DIRECTION('',(-5.48258283765509E-15,0.,1.));
#565=DIRECTION('',(1.,0.,0.));
#566=DIRECTION('',(0.,6.12323399573677E-17,1.));
#567=DIRECTION('',(1.,0.,0.));
#568=DIRECTION('center_axis',(0.,0.,1.));
#569=DIRECTION('ref_axis',(1.,0.,0.));
#570=DIRECTION('center_axis',(0.,0.,-1.));
#571=DIRECTION('ref_axis',(1.,0.,0.));
#572=DIRECTION('center_axis',(-5.48258283765509E-15,0.,1.));
#573=DIRECTION('ref_axis',(-0.866025403784444,0.49999999999999,-4.74805601576192E-15));
#574=DIRECTION('',(-5.48258283765509E-15,0.,1.));
#575=DIRECTION('center_axis',(0.,0.,-1.));
#576=DIRECTION('ref_axis',(-1.,0.,0.));
#577=DIRECTION('center_axis',(-5.48258283765509E-15,0.,1.));
#578=DIRECTION('ref_axis',(3.55271367880051E-15,1.,1.94750035976438E-29));
#579=DIRECTION('',(-5.48258283765509E-15,0.,1.));
#580=DIRECTION('center_axis',(-0.866025403784439,0.5,-4.74805601576189E-15));
#581=DIRECTION('ref_axis',(-0.5,-0.866025403784439,-2.45432000652891E-15));
#582=DIRECTION('center_axis',(-5.48258283765509E-15,0.,1.));
#583=DIRECTION('ref_axis',(-0.866025403784439,0.499999999999999,-4.74805601576189E-15));
#584=DIRECTION('',(-5.48258283765509E-15,0.,1.));
#585=DIRECTION('center_axis',(0.,0.,-1.));
#586=DIRECTION('ref_axis',(-0.866025403784439,0.499999999999999,-4.74805601576189E-15));
#587=DIRECTION('center_axis',(0.866025403784439,-0.5,4.74805601576189E-15));
#588=DIRECTION('ref_axis',(0.499999999999999,0.866025403784439,2.4543200065289E-15));
#589=DIRECTION('',(-5.48258283765509E-15,0.,1.));
#590=DIRECTION('',(0.499999999999999,0.866025403784439,0.));
#591=DIRECTION('center_axis',(-5.48258283765509E-15,0.,1.));
#592=DIRECTION('ref_axis',(6.05340353813565E-32,1.,0.));
#593=DIRECTION('',(-5.48258283765509E-15,0.,1.));
#594=DIRECTION('center_axis',(0.,0.,-1.));
#595=DIRECTION('ref_axis',(6.05340353813565E-32,1.,0.));
#596=DIRECTION('center_axis',(0.,0.,-1.));
#597=DIRECTION('ref_axis',(-1.,0.,0.));
#598=DIRECTION('',(0.,0.,-1.));
#599=DIRECTION('center_axis',(4.55813377513141E-16,-1.,2.49903460072715E-30));
#600=DIRECTION('ref_axis',(1.,4.55813377513141E-16,5.62787313698787E-15));
#601=DIRECTION('',(1.,4.55813377513141E-16,0.));
#602=DIRECTION('center_axis',(0.,0.,-1.));
#603=DIRECTION('ref_axis',(-1.,0.,0.));
#604=DIRECTION('',(0.,1.,0.));
#605=DIRECTION('center_axis',(0.,0.,-1.));
#606=DIRECTION('ref_axis',(0.707106781186546,0.707106781186549,0.));
#607=DIRECTION('',(-1.,0.,0.));
#608=DIRECTION('center_axis',(0.,0.,-1.));
#609=DIRECTION('ref_axis',(-0.707106781186553,0.707106781186542,0.));
#610=DIRECTION('',(0.,-1.,0.));
#611=DIRECTION('center_axis',(0.,0.,1.));
#612=DIRECTION('ref_axis',(1.,0.,0.));
#613=DIRECTION('center_axis',(0.,0.,-1.));
#614=DIRECTION('ref_axis',(0.707106781186546,0.707106781186549,0.));
#615=DIRECTION('',(0.,1.,0.));
#616=DIRECTION('',(0.,-1.,0.));
#617=DIRECTION('center_axis',(0.,0.,-1.));
#618=DIRECTION('ref_axis',(-0.707106781186553,0.707106781186542,0.));
#619=DIRECTION('',(-1.,0.,0.));
#620=DIRECTION('center_axis',(-1.,0.,0.));
#621=DIRECTION('ref_axis',(0.,-1.,0.));
#622=DIRECTION('',(0.,0.,-1.));
#623=DIRECTION('center_axis',(0.,1.,0.));
#624=DIRECTION('ref_axis',(-1.,0.,0.));
#625=DIRECTION('',(0.,0.,-1.));
#626=DIRECTION('',(0.,0.,1.));
#627=DIRECTION('center_axis',(0.,0.,1.));
#628=DIRECTION('ref_axis',(-0.707106781186553,0.707106781186542,0.));
#629=DIRECTION('center_axis',(1.,0.,0.));
#630=DIRECTION('ref_axis',(0.,1.,0.));
#631=DIRECTION('',(0.,0.,1.));
#632=DIRECTION('center_axis',(0.,0.,1.));
#633=DIRECTION('ref_axis',(0.707106781186546,0.707106781186549,0.));
#634=CARTESIAN_POINT('',(0.,0.,0.));
#635=CARTESIAN_POINT('Origin',(-0.669565675449687,75.1305966530161,-31.1000000000005));
#636=CARTESIAN_POINT('',(-0.669565675449686,140.132312867624,-44.2000000000001));
#637=CARTESIAN_POINT('',(-0.669565675449686,140.132312867624,-28.));
#638=CARTESIAN_POINT('',(-0.669565675449686,140.132312867624,-37.6500000000005));
#639=CARTESIAN_POINT('',(-0.669565675449686,150.132312867624,-44.2));
#640=CARTESIAN_POINT('',(-0.669565675449688,37.565298326508,-44.2));
#641=CARTESIAN_POINT('',(-0.669565675449686,150.132312867624,-18.));
#642=CARTESIAN_POINT('',(-0.669565675449686,150.132312867624,-37.6500000000001));
#643=CARTESIAN_POINT('',(-0.669565675449686,24.9910320275726,-18.));
#644=CARTESIAN_POINT('',(-0.669565675449685,37.565298326508,-18.));
#645=CARTESIAN_POINT('',(-0.669565675449686,24.9910320275726,-28.));
#646=CARTESIAN_POINT('',(-0.669565675449692,24.9910320275726,-115.));
#647=CARTESIAN_POINT('',(-0.669565675449687,93.1902983264923,-28.));
#648=CARTESIAN_POINT('Origin',(-37.5,0.,-18.));
#649=CARTESIAN_POINT('',(-84.3853547079458,150.132312867624,-18.));
#650=CARTESIAN_POINT('',(32.1652171622752,150.132312867624,-18.));
#651=CARTESIAN_POINT('',(-88.715481726868,147.632312867624,-18.));
#652=CARTESIAN_POINT('Origin',(-84.3853547079459,145.132312867624,-18.));
#653=CARTESIAN_POINT('',(-172.431270759364,2.63231286762377,-18.));
#654=CARTESIAN_POINT('',(-156.134774367961,30.8586726028962,-18.));
#655=CARTESIAN_POINT('',(-173.101143740442,0.132312867623862,-18.));
#656=CARTESIAN_POINT('Origin',(-168.101143740441,0.132312867623758,-18.));
#657=CARTESIAN_POINT('',(-167.827641048545,0.132312867623862,-18.));
#658=CARTESIAN_POINT('',(-19.0847828377248,0.132312867623862,-18.));
#659=CARTESIAN_POINT('',(-166.827641048545,0.132312867623757,-18.));
#660=CARTESIAN_POINT('Origin',(-167.327641048545,0.132312867623757,-18.));
#661=CARTESIAN_POINT('',(-24.9996498636856,0.132312867623862,-18.));
#662=CARTESIAN_POINT('',(-19.0847828377248,0.132312867623862,-18.));
#663=CARTESIAN_POINT('Origin',(-3.66640051652212E-11,-6.30251406619209E-11,
-18.));
#664=CARTESIAN_POINT('',(-83.4986033619977,144.462439886546,-18.));
#665=CARTESIAN_POINT('Origin',(-83.9986033619977,144.462439886546,-18.));
#666=CARTESIAN_POINT('Origin',(65.,150.132312867624,-44.1999999999997));
#667=CARTESIAN_POINT('',(-84.3853547079458,150.132312867624,-44.2000000000006));
#668=CARTESIAN_POINT('',(-42.1926773539729,150.132312867624,-44.2));
#669=CARTESIAN_POINT('',(-84.3853547079458,150.132312867624,-44.2000000000006));
#670=CARTESIAN_POINT('Origin',(0.,0.,-44.2));
#671=CARTESIAN_POINT('',(-78.6118520160495,140.132312867624,-44.2000000000005));
#672=CARTESIAN_POINT('',(-78.6118520160495,140.132312867624,-44.2000000000005));
#673=CARTESIAN_POINT('',(-82.9419790349717,137.632312867624,-44.2000000000006));
#674=CARTESIAN_POINT('Origin',(-78.6118520160495,135.132312867624,-44.2000000000005));
#675=CARTESIAN_POINT('',(-160.884265375571,2.63231286762375,-44.200000000001));
#676=CARTESIAN_POINT('',(-160.884265375571,2.63231286762375,-44.200000000001));
#677=CARTESIAN_POINT('',(-161.554138356649,0.13231286762386,-44.200000000001));
#678=CARTESIAN_POINT('Origin',(-156.554138356649,0.13231286762376,-44.2000000000009));
#679=CARTESIAN_POINT('',(-166.827641048545,0.132312867623757,-44.2));
#680=CARTESIAN_POINT('',(-0.334782837724807,0.13231286762386,-44.2));
#681=CARTESIAN_POINT('',(-167.827641048545,0.13231286762386,-44.2));
#682=CARTESIAN_POINT('Origin',(-167.327641048545,0.132312867623757,-44.2));
#683=CARTESIAN_POINT('',(-173.101143740441,0.13231286762386,-44.200000000001));
#684=CARTESIAN_POINT('',(-0.334782837724807,0.13231286762386,-44.2));
#685=CARTESIAN_POINT('',(-172.431270759364,2.63231286762375,-44.200000000001));
#686=CARTESIAN_POINT('Origin',(-168.101143740441,0.132312867623767,-44.200000000001));
#687=CARTESIAN_POINT('',(-88.7154817268679,147.632312867624,-44.2000000000006));
#688=CARTESIAN_POINT('',(-88.7154817268679,147.632312867624,-44.2000000000006));
#689=CARTESIAN_POINT('Origin',(-84.3853547079458,145.132312867624,-44.2000000000006));
#690=CARTESIAN_POINT('',(-83.4986033619977,144.462439886546,-44.2));
#691=CARTESIAN_POINT('Origin',(-83.9986033619977,144.462439886546,-44.2));
#692=CARTESIAN_POINT('Origin',(-0.669565675449615,0.132312867623861,-31.1000000000005));
#693=CARTESIAN_POINT('',(-173.101143740441,0.13231286762386,-44.200000000001));
#694=CARTESIAN_POINT('',(-167.827641048545,0.132312867623862,-18.));
#695=CARTESIAN_POINT('Origin',(-0.669565675449615,0.132312867623861,-31.1000000000005));
#696=CARTESIAN_POINT('',(-63.2768941101673,0.132312867623862,-25.5));
#697=CARTESIAN_POINT('',(-63.2768941101673,0.132312867623856,-28.));
#698=CARTESIAN_POINT('',(-63.2768941101673,0.132312867623861,-29.5500000000003));
#699=CARTESIAN_POINT('',(-24.9996498636856,0.132312867623861,-28.));
#700=CARTESIAN_POINT('',(-0.334782837743122,0.132312867623856,-28.));
#701=CARTESIAN_POINT('',(-24.9996498636856,0.132312867623856,-115.));
#702=CARTESIAN_POINT('',(-166.827641048545,0.132312867623862,-18.));
#703=CARTESIAN_POINT('',(-161.554138356649,0.132312867623861,-28.0000000000009));
#704=CARTESIAN_POINT('',(-161.554138356649,0.13231286762386,-44.200000000001));
#705=CARTESIAN_POINT('',(-123.276894110167,0.132312867623856,-28.));
#706=CARTESIAN_POINT('',(-0.334782837743122,0.132312867623856,-28.));
#707=CARTESIAN_POINT('',(-123.276894110167,0.132312867623862,-25.5));
#708=CARTESIAN_POINT('',(-123.276894110167,0.132312867623861,-29.5500000000003));
#709=CARTESIAN_POINT('',(-46.9732298928085,0.132312867623861,-25.5));
#710=CARTESIAN_POINT('Origin',(-3.66640051652212E-11,-6.30251406619209E-11,
-115.));
#711=CARTESIAN_POINT('Origin',(-3.66640051652212E-11,-6.30251406619209E-11,
-28.));
#712=CARTESIAN_POINT('Origin',(-168.101143740441,0.132312867623767,-44.200000000001));
#713=CARTESIAN_POINT('',(-172.431270759364,2.63231286762375,-44.200000000001));
#714=CARTESIAN_POINT('Origin',(-167.327641048545,0.132312867623757,-18.));
#715=CARTESIAN_POINT('Origin',(-84.3853547079458,145.132312867624,-44.2000000000006));
#716=CARTESIAN_POINT('',(-88.7154817268679,147.632312867624,-44.2000000000006));
#717=CARTESIAN_POINT('Origin',(-88.7154817268679,147.632312867624,-44.2000000000006));
#718=CARTESIAN_POINT('Origin',(-156.554138356649,0.13231286762376,-44.2000000000009));
#719=CARTESIAN_POINT('',(-160.884265375571,2.63231286762375,-28.000000000001));
#720=CARTESIAN_POINT('',(-160.884265375571,2.63231286762375,-44.200000000001));
#721=CARTESIAN_POINT('Origin',(-156.554138356649,0.13231286762376,-28.0000000000009));
#722=CARTESIAN_POINT('Origin',(-160.884265375571,2.63231286762375,-44.200000000001));
#723=CARTESIAN_POINT('',(-82.9419790349718,137.632312867624,-28.0000000000006));
#724=CARTESIAN_POINT('',(-82.9419790349717,137.632312867624,-44.2000000000006));
#725=CARTESIAN_POINT('',(-117.257313114399,78.1964107633556,-28.));
#726=CARTESIAN_POINT('Origin',(-78.6118520160495,135.132312867624,-44.2000000000005));
#727=CARTESIAN_POINT('',(-78.6118520160496,140.132312867624,-28.0000000000005));
#728=CARTESIAN_POINT('',(-78.6118520160495,140.132312867624,-44.2000000000005));
#729=CARTESIAN_POINT('Origin',(-78.6118520160496,135.132312867624,-28.0000000000004));
#730=CARTESIAN_POINT('Origin',(-83.9986033619977,144.462439886546,-18.));
#731=CARTESIAN_POINT('',(-83.4986033619977,144.462439886546,-18.));
#732=CARTESIAN_POINT('Origin',(-78.6118520160495,140.132312867624,-44.2000000000005));
#733=CARTESIAN_POINT('',(-39.3059260080431,140.132312867624,-28.));
#734=CARTESIAN_POINT('Origin',(-3.66284780284332E-11,111.249999999968,-28.));
#735=CARTESIAN_POINT('',(-63.2768941101673,9.13231286762386,-28.));
#736=CARTESIAN_POINT('',(-63.2768941101673,50.6911564337962,-28.));
#737=CARTESIAN_POINT('',(-64.2768941101673,10.1323128676239,-28.));
#738=CARTESIAN_POINT('Origin',(-64.2768941101673,9.13231286762386,-28.));
#739=CARTESIAN_POINT('',(-122.276894110167,10.1323128676239,-28.));
#740=CARTESIAN_POINT('',(-31.638447055102,10.1323128676239,-28.));
#741=CARTESIAN_POINT('',(-123.276894110167,9.13231286762386,-28.));
#742=CARTESIAN_POINT('Origin',(-122.276894110167,9.13231286762386,-28.));
#743=CARTESIAN_POINT('',(-123.276894110167,60.6911564337962,-28.));
#744=CARTESIAN_POINT('Origin',(-93.2768941101673,0.132312867623861,-25.5));
#745=CARTESIAN_POINT('',(-64.2768941101673,10.1323128676239,-25.5));
#746=CARTESIAN_POINT('',(-63.2768941101673,9.13231286762386,-25.5));
#747=CARTESIAN_POINT('Origin',(-64.2768941101673,9.13231286762386,-25.5));
#748=CARTESIAN_POINT('',(-63.2768941101673,10.1323128676239,-25.5));
#749=CARTESIAN_POINT('',(-123.276894110167,9.13231286762386,-25.5));
#750=CARTESIAN_POINT('',(-123.276894110167,-9.86768713237614,-25.5));
#751=CARTESIAN_POINT('',(-122.276894110167,10.1323128676239,-25.5));
#752=CARTESIAN_POINT('Origin',(-122.276894110167,9.13231286762386,-25.5));
#753=CARTESIAN_POINT('',(-123.276894110167,10.1323128676239,-25.5));
#754=CARTESIAN_POINT('Origin',(-123.276894110167,10.1323128676239,-28.));
#755=CARTESIAN_POINT('',(-123.276894110167,9.13231286762386,-28.));
#756=CARTESIAN_POINT('Origin',(-63.2768941101673,10.1323128676239,-28.));
#757=CARTESIAN_POINT('',(-64.2768941101673,10.1323128676239,-28.));
#758=CARTESIAN_POINT('',(-122.276894110167,10.1323128676239,-28.));
#759=CARTESIAN_POINT('Origin',(-122.276894110167,9.13231286762386,-28.));
#760=CARTESIAN_POINT('Origin',(-63.2768941101673,-9.86768713237614,-28.));
#761=CARTESIAN_POINT('',(-63.2768941101673,9.13231286762386,-28.));
#762=CARTESIAN_POINT('Origin',(-64.2768941101673,9.13231286762386,-28.));
#763=UNCERTAINTY_MEASURE_WITH_UNIT(LENGTH_MEASURE(0.01),#767,
'DISTANCE_ACCURACY_VALUE',
'Maximum model space distance between geometric entities at asserted c
onnectivities');
#764=UNCERTAINTY_MEASURE_WITH_UNIT(LENGTH_MEASURE(0.01),#767,
'DISTANCE_ACCURACY_VALUE',
'Maximum model space distance between geometric entities at asserted c
onnectivities');
#765=(
GEOMETRIC_REPRESENTATION_CONTEXT(3)
GLOBAL_UNCERTAINTY_ASSIGNED_CONTEXT((#763))
GLOBAL_UNIT_ASSIGNED_CONTEXT((#767,#769,#770))
REPRESENTATION_CONTEXT('','3D')
);
#766=(
GEOMETRIC_REPRESENTATION_CONTEXT(3)
GLOBAL_UNCERTAINTY_ASSIGNED_CONTEXT((#764))
GLOBAL_UNIT_ASSIGNED_CONTEXT((#767,#769,#770))
REPRESENTATION_CONTEXT('','3D')
);
#767=(
LENGTH_UNIT()
NAMED_UNIT(*)
SI_UNIT(.MILLI.,.METRE.)
);
#768=(
LENGTH_UNIT()
NAMED_UNIT(*)
SI_UNIT($,.METRE.)
);
#769=(
NAMED_UNIT(*)
PLANE_ANGLE_UNIT()
SI_UNIT($,.RADIAN.)
);
#770=(
NAMED_UNIT(*)
SI_UNIT($,.STERADIAN.)
SOLID_ANGLE_UNIT()
);
#771=SHAPE_DEFINITION_REPRESENTATION(#772,#773);
#772=PRODUCT_DEFINITION_SHAPE('',$,#775);
#773=SHAPE_REPRESENTATION('',(#463),#765);
#774=PRODUCT_DEFINITION_CONTEXT('part definition',#779,'design');
#775=PRODUCT_DEFINITION('2026-06-20-16-29-56-296','FusionComponent',#776,
#774);
#776=PRODUCT_DEFINITION_FORMATION('',$,#781);
#777=PRODUCT_RELATED_PRODUCT_CATEGORY('FusionComponent',
'FusionComponent',(#781));
#778=APPLICATION_PROTOCOL_DEFINITION('international standard',
'automotive_design',2009,#779);
#779=APPLICATION_CONTEXT(
'Core Data for Automotive Mechanical Design Process');
#780=PRODUCT_CONTEXT('part definition',#779,'mechanical');
#781=PRODUCT('2026-06-20-16-29-56-296','FusionComponent',$,(#780));
#782=PRESENTATION_STYLE_ASSIGNMENT((#783));
#783=SURFACE_STYLE_USAGE(.BOTH.,#784);
#784=SURFACE_SIDE_STYLE('',(#785));
#785=SURFACE_STYLE_FILL_AREA(#786);
#786=FILL_AREA_STYLE('Steel - Satin',(#787));
#787=FILL_AREA_STYLE_COLOUR('Steel - Satin',#788);
#788=COLOUR_RGB('Steel - Satin',0.627450980392157,0.627450980392157,0.627450980392157);
ENDSEC;
END-ISO-10303-21;
