ISO-10303-21;
HEADER;
/* Generated by software containing ST-Developer
 * from STEP Tools, Inc. (www.steptools.com) 
 */

FILE_DESCRIPTION(
/* description */ (''),
/* implementation_level */ '2;1');

FILE_NAME(
/* name */ 'Electronic Hub Top B x1.step',
/* time_stamp */ '2026-06-20T16:29:19-05:00',
/* author */ (''),
/* organization */ (''),
/* preprocessor_version */ 'ST-DEVELOPER v20.1',
/* originating_system */ 'Autodesk Translation Framework v15.8.0.0',
/* authorisation */ '');

FILE_SCHEMA (('AUTOMOTIVE_DESIGN { 1 0 10303 214 3 1 1 }'));
ENDSEC;

DATA;
#10=MECHANICAL_DESIGN_GEOMETRIC_PRESENTATION_REPRESENTATION('',(#13),#1465);
#11=SHAPE_REPRESENTATION_RELATIONSHIP('SRR','None',#1472,#12);
#12=ADVANCED_BREP_SHAPE_REPRESENTATION('',(#14),#1464);
#13=STYLED_ITEM('',(#1481),#14);
#14=MANIFOLD_SOLID_BREP('Body1',#862);
#15=TOROIDAL_SURFACE('',#936,3.00000000000001,2.);
#16=TOROIDAL_SURFACE('',#943,3.,2.);
#17=B_SPLINE_CURVE_WITH_KNOTS('',3,(#1323,#1324,#1325,#1326,#1327,#1328,
#1329,#1330,#1331,#1332),.UNSPECIFIED.,.F.,.F.,(4,2,2,2,4),(0.,0.0740362931926645,
0.148085790527563,0.222160816216116,0.296285138526711),.UNSPECIFIED.);
#18=FACE_BOUND('',#137,.T.);
#19=FACE_BOUND('',#138,.T.);
#20=FACE_BOUND('',#146,.T.);
#21=FACE_BOUND('',#150,.T.);
#22=FACE_BOUND('',#151,.T.);
#23=FACE_BOUND('',#152,.T.);
#24=CIRCLE('',#878,2.);
#25=CIRCLE('',#879,2.);
#26=CIRCLE('',#883,2.);
#27=CIRCLE('',#884,2.);
#28=CIRCLE('',#888,0.500000000000007);
#29=CIRCLE('',#889,0.500000000000007);
#30=CIRCLE('',#891,0.499999999999998);
#31=CIRCLE('',#892,0.499999999999998);
#32=CIRCLE('',#894,1.);
#33=CIRCLE('',#895,1.);
#34=CIRCLE('',#898,1.);
#35=CIRCLE('',#899,1.);
#36=CIRCLE('',#904,25.);
#37=CIRCLE('',#908,2.);
#38=CIRCLE('',#910,5.);
#39=CIRCLE('',#911,5.);
#40=CIRCLE('',#913,5.);
#41=CIRCLE('',#914,5.);
#42=CIRCLE('',#917,4.99999999999995);
#43=CIRCLE('',#918,1.50000000000001);
#44=CIRCLE('',#919,1.50000000000001);
#45=CIRCLE('',#920,0.500000000000007);
#46=CIRCLE('',#921,0.500000000000007);
#47=CIRCLE('',#925,0.500000000000007);
#48=CIRCLE('',#926,5.00000000000001);
#49=CIRCLE('',#927,25.);
#50=CIRCLE('',#928,4.99999999999995);
#51=CIRCLE('',#929,0.500000000000007);
#52=CIRCLE('',#937,2.);
#53=CIRCLE('',#938,5.00000000000001);
#54=CIRCLE('',#939,2.00000000000001);
#55=CIRCLE('',#940,3.00000000000001);
#56=CIRCLE('',#942,1.99999999999999);
#57=CIRCLE('',#944,3.);
#58=CIRCLE('',#949,1.50000000000001);
#59=CIRCLE('',#950,1.50000000000001);
#60=CYLINDRICAL_SURFACE('',#877,2.);
#61=CYLINDRICAL_SURFACE('',#882,2.);
#62=CYLINDRICAL_SURFACE('',#887,0.500000000000007);
#63=CYLINDRICAL_SURFACE('',#890,0.499999999999998);
#64=CYLINDRICAL_SURFACE('',#893,1.);
#65=CYLINDRICAL_SURFACE('',#897,1.);
#66=CYLINDRICAL_SURFACE('',#909,5.);
#67=CYLINDRICAL_SURFACE('',#912,5.);
#68=CYLINDRICAL_SURFACE('',#930,25.);
#69=CYLINDRICAL_SURFACE('',#931,0.500000000000007);
#70=CYLINDRICAL_SURFACE('',#932,0.500000000000007);
#71=CYLINDRICAL_SURFACE('',#933,4.99999999999995);
#72=CYLINDRICAL_SURFACE('',#941,2.);
#73=CYLINDRICAL_SURFACE('',#945,2.);
#74=CYLINDRICAL_SURFACE('',#947,5.00000000000001);
#75=CYLINDRICAL_SURFACE('',#952,1.50000000000001);
#76=CYLINDRICAL_SURFACE('',#955,1.50000000000001);
#77=FACE_OUTER_BOUND('',#121,.T.);
#78=FACE_OUTER_BOUND('',#122,.T.);
#79=FACE_OUTER_BOUND('',#123,.T.);
#80=FACE_OUTER_BOUND('',#124,.T.);
#81=FACE_OUTER_BOUND('',#125,.T.);
#82=FACE_OUTER_BOUND('',#126,.T.);
#83=FACE_OUTER_BOUND('',#127,.T.);
#84=FACE_OUTER_BOUND('',#128,.T.);
#85=FACE_OUTER_BOUND('',#129,.T.);
#86=FACE_OUTER_BOUND('',#130,.T.);
#87=FACE_OUTER_BOUND('',#131,.T.);
#88=FACE_OUTER_BOUND('',#132,.T.);
#89=FACE_OUTER_BOUND('',#133,.T.);
#90=FACE_OUTER_BOUND('',#134,.T.);
#91=FACE_OUTER_BOUND('',#135,.T.);
#92=FACE_OUTER_BOUND('',#136,.T.);
#93=FACE_OUTER_BOUND('',#139,.T.);
#94=FACE_OUTER_BOUND('',#140,.T.);
#95=FACE_OUTER_BOUND('',#141,.T.);
#96=FACE_OUTER_BOUND('',#142,.T.);
#97=FACE_OUTER_BOUND('',#143,.T.);
#98=FACE_OUTER_BOUND('',#144,.T.);
#99=FACE_OUTER_BOUND('',#145,.T.);
#100=FACE_OUTER_BOUND('',#147,.T.);
#101=FACE_OUTER_BOUND('',#148,.T.);
#102=FACE_OUTER_BOUND('',#149,.T.);
#103=FACE_OUTER_BOUND('',#153,.T.);
#104=FACE_OUTER_BOUND('',#154,.T.);
#105=FACE_OUTER_BOUND('',#155,.T.);
#106=FACE_OUTER_BOUND('',#156,.T.);
#107=FACE_OUTER_BOUND('',#157,.T.);
#108=FACE_OUTER_BOUND('',#158,.T.);
#109=FACE_OUTER_BOUND('',#159,.T.);
#110=FACE_OUTER_BOUND('',#160,.T.);
#111=FACE_OUTER_BOUND('',#161,.T.);
#112=FACE_OUTER_BOUND('',#162,.T.);
#113=FACE_OUTER_BOUND('',#163,.T.);
#114=FACE_OUTER_BOUND('',#164,.T.);
#115=FACE_OUTER_BOUND('',#165,.T.);
#116=FACE_OUTER_BOUND('',#166,.T.);
#117=FACE_OUTER_BOUND('',#167,.T.);
#118=FACE_OUTER_BOUND('',#168,.T.);
#119=FACE_OUTER_BOUND('',#169,.T.);
#120=FACE_OUTER_BOUND('',#170,.T.);
#121=EDGE_LOOP('',(#547,#548,#549,#550));
#122=EDGE_LOOP('',(#551,#552,#553,#554));
#123=EDGE_LOOP('',(#555,#556,#557,#558));
#124=EDGE_LOOP('',(#559,#560,#561,#562));
#125=EDGE_LOOP('',(#563,#564,#565,#566));
#126=EDGE_LOOP('',(#567,#568,#569,#570,#571,#572,#573,#574,#575,#576));
#127=EDGE_LOOP('',(#577,#578,#579,#580));
#128=EDGE_LOOP('',(#581,#582,#583,#584));
#129=EDGE_LOOP('',(#585,#586,#587,#588));
#130=EDGE_LOOP('',(#589,#590,#591,#592));
#131=EDGE_LOOP('',(#593,#594,#595,#596));
#132=EDGE_LOOP('',(#597,#598,#599,#600));
#133=EDGE_LOOP('',(#601,#602,#603,#604));
#134=EDGE_LOOP('',(#605,#606,#607,#608));
#135=EDGE_LOOP('',(#609,#610,#611,#612,#613,#614));
#136=EDGE_LOOP('',(#615,#616,#617,#618,#619,#620,#621,#622,#623,#624,#625));
#137=EDGE_LOOP('',(#626));
#138=EDGE_LOOP('',(#627));
#139=EDGE_LOOP('',(#628,#629,#630,#631));
#140=EDGE_LOOP('',(#632,#633,#634,#635,#636,#637,#638));
#141=EDGE_LOOP('',(#639,#640,#641,#642,#643,#644,#645,#646,#647));
#142=EDGE_LOOP('',(#648,#649,#650,#651));
#143=EDGE_LOOP('',(#652,#653,#654,#655));
#144=EDGE_LOOP('',(#656,#657,#658,#659));
#145=EDGE_LOOP('',(#660,#661,#662,#663,#664,#665,#666,#667,#668,#669,#670,
#671,#672,#673,#674,#675));
#146=EDGE_LOOP('',(#676));
#147=EDGE_LOOP('',(#677,#678,#679,#680));
#148=EDGE_LOOP('',(#681,#682,#683,#684,#685,#686,#687,#688,#689,#690));
#149=EDGE_LOOP('',(#691,#692,#693,#694,#695,#696,#697,#698,#699,#700,#701,
#702,#703,#704));
#150=EDGE_LOOP('',(#705));
#151=EDGE_LOOP('',(#706));
#152=EDGE_LOOP('',(#707));
#153=EDGE_LOOP('',(#708,#709,#710,#711));
#154=EDGE_LOOP('',(#712,#713,#714,#715));
#155=EDGE_LOOP('',(#716,#717,#718,#719));
#156=EDGE_LOOP('',(#720,#721,#722,#723));
#157=EDGE_LOOP('',(#724,#725,#726,#727));
#158=EDGE_LOOP('',(#728,#729,#730,#731,#732,#733,#734,#735,#736,#737));
#159=EDGE_LOOP('',(#738,#739,#740,#741));
#160=EDGE_LOOP('',(#742,#743,#744,#745));
#161=EDGE_LOOP('',(#746,#747,#748,#749));
#162=EDGE_LOOP('',(#750,#751,#752,#753));
#163=EDGE_LOOP('',(#754,#755,#756,#757));
#164=EDGE_LOOP('',(#758,#759,#760,#761));
#165=EDGE_LOOP('',(#762,#763,#764,#765,#766,#767,#768,#769,#770,#771,#772));
#166=EDGE_LOOP('',(#773,#774,#775,#776));
#167=EDGE_LOOP('',(#777,#778,#779,#780));
#168=EDGE_LOOP('',(#781,#782,#783,#784));
#169=EDGE_LOOP('',(#785,#786,#787,#788));
#170=EDGE_LOOP('',(#789,#790,#791,#792));
#171=LINE('',#1208,#257);
#172=LINE('',#1210,#258);
#173=LINE('',#1212,#259);
#174=LINE('',#1213,#260);
#175=LINE('',#1218,#261);
#176=LINE('',#1223,#262);
#177=LINE('',#1224,#263);
#178=LINE('',#1225,#264);
#179=LINE('',#1229,#265);
#180=LINE('',#1231,#266);
#181=LINE('',#1233,#267);
#182=LINE('',#1234,#268);
#183=LINE('',#1240,#269);
#184=LINE('',#1242,#270);
#185=LINE('',#1244,#271);
#186=LINE('',#1246,#272);
#187=LINE('',#1247,#273);
#188=LINE('',#1250,#274);
#189=LINE('',#1251,#275);
#190=LINE('',#1256,#276);
#191=LINE('',#1262,#277);
#192=LINE('',#1269,#278);
#193=LINE('',#1272,#279);
#194=LINE('',#1275,#280);
#195=LINE('',#1277,#281);
#196=LINE('',#1278,#282);
#197=LINE('',#1284,#283);
#198=LINE('',#1287,#284);
#199=LINE('',#1289,#285);
#200=LINE('',#1290,#286);
#201=LINE('',#1293,#287);
#202=LINE('',#1295,#288);
#203=LINE('',#1296,#289);
#204=LINE('',#1298,#290);
#205=LINE('',#1301,#291);
#206=LINE('',#1305,#292);
#207=LINE('',#1307,#293);
#208=LINE('',#1309,#294);
#209=LINE('',#1310,#295);
#210=LINE('',#1314,#296);
#211=LINE('',#1316,#297);
#212=LINE('',#1318,#298);
#213=LINE('',#1319,#299);
#214=LINE('',#1334,#300);
#215=LINE('',#1336,#301);
#216=LINE('',#1338,#302);
#217=LINE('',#1340,#303);
#218=LINE('',#1342,#304);
#219=LINE('',#1343,#305);
#220=LINE('',#1349,#306);
#221=LINE('',#1351,#307);
#222=LINE('',#1353,#308);
#223=LINE('',#1354,#309);
#224=LINE('',#1356,#310);
#225=LINE('',#1358,#311);
#226=LINE('',#1359,#312);
#227=LINE('',#1364,#313);
#228=LINE('',#1370,#314);
#229=LINE('',#1374,#315);
#230=LINE('',#1375,#316);
#231=LINE('',#1378,#317);
#232=LINE('',#1380,#318);
#233=LINE('',#1382,#319);
#234=LINE('',#1386,#320);
#235=LINE('',#1389,#321);
#236=LINE('',#1395,#322);
#237=LINE('',#1396,#323);
#238=LINE('',#1399,#324);
#239=LINE('',#1400,#325);
#240=LINE('',#1401,#326);
#241=LINE('',#1405,#327);
#242=LINE('',#1408,#328);
#243=LINE('',#1412,#329);
#244=LINE('',#1418,#330);
#245=LINE('',#1420,#331);
#246=LINE('',#1435,#332);
#247=LINE('',#1436,#333);
#248=LINE('',#1440,#334);
#249=LINE('',#1441,#335);
#250=LINE('',#1443,#336);
#251=LINE('',#1445,#337);
#252=LINE('',#1448,#338);
#253=LINE('',#1452,#339);
#254=LINE('',#1456,#340);
#255=LINE('',#1458,#341);
#256=LINE('',#1460,#342);
#257=VECTOR('',#960,10.);
#258=VECTOR('',#961,10.);
#259=VECTOR('',#962,10.);
#260=VECTOR('',#963,10.);
#261=VECTOR('',#968,10.);
#262=VECTOR('',#973,10.);
#263=VECTOR('',#974,10.);
#264=VECTOR('',#975,10.);
#265=VECTOR('',#978,10.);
#266=VECTOR('',#979,10.);
#267=VECTOR('',#980,10.);
#268=VECTOR('',#981,10.);
#269=VECTOR('',#990,10.);
#270=VECTOR('',#991,10.);
#271=VECTOR('',#992,10.);
#272=VECTOR('',#993,10.);
#273=VECTOR('',#994,10.);
#274=VECTOR('',#997,10.);
#275=VECTOR('',#998,10.);
#276=VECTOR('',#1003,0.500000000000007);
#277=VECTOR('',#1010,0.499999999999998);
#278=VECTOR('',#1017,10.);
#279=VECTOR('',#1020,10.);
#280=VECTOR('',#1023,10.);
#281=VECTOR('',#1024,10.);
#282=VECTOR('',#1025,10.);
#283=VECTOR('',#1030,10.);
#284=VECTOR('',#1033,10.);
#285=VECTOR('',#1036,10.);
#286=VECTOR('',#1037,10.);
#287=VECTOR('',#1040,10.);
#288=VECTOR('',#1041,10.);
#289=VECTOR('',#1042,10.);
#290=VECTOR('',#1045,10.);
#291=VECTOR('',#1048,10.);
#292=VECTOR('',#1051,10.);
#293=VECTOR('',#1052,10.);
#294=VECTOR('',#1053,10.);
#295=VECTOR('',#1054,10.);
#296=VECTOR('',#1057,10.);
#297=VECTOR('',#1058,10.);
#298=VECTOR('',#1059,10.);
#299=VECTOR('',#1060,10.);
#300=VECTOR('',#1063,10.);
#301=VECTOR('',#1064,10.);
#302=VECTOR('',#1065,10.);
#303=VECTOR('',#1066,10.);
#304=VECTOR('',#1067,10.);
#305=VECTOR('',#1068,10.);
#306=VECTOR('',#1073,10.);
#307=VECTOR('',#1074,10.);
#308=VECTOR('',#1075,10.);
#309=VECTOR('',#1076,10.);
#310=VECTOR('',#1077,10.);
#311=VECTOR('',#1078,10.);
#312=VECTOR('',#1079,10.);
#313=VECTOR('',#1084,10.);
#314=VECTOR('',#1091,10.);
#315=VECTOR('',#1096,10.);
#316=VECTOR('',#1097,10.);
#317=VECTOR('',#1100,10.);
#318=VECTOR('',#1103,10.);
#319=VECTOR('',#1104,10.);
#320=VECTOR('',#1107,10.);
#321=VECTOR('',#1110,10.);
#322=VECTOR('',#1117,10.);
#323=VECTOR('',#1118,10.);
#324=VECTOR('',#1121,10.);
#325=VECTOR('',#1122,10.);
#326=VECTOR('',#1123,10.);
#327=VECTOR('',#1128,10.);
#328=VECTOR('',#1131,10.);
#329=VECTOR('',#1136,10.);
#330=VECTOR('',#1145,0.500000000000007);
#331=VECTOR('',#1148,10.);
#332=VECTOR('',#1167,10.);
#333=VECTOR('',#1168,10.);
#334=VECTOR('',#1175,10.);
#335=VECTOR('',#1176,10.);
#336=VECTOR('',#1179,5.);
#337=VECTOR('',#1182,5.);
#338=VECTOR('',#1185,10.);
#339=VECTOR('',#1188,10.);
#340=VECTOR('',#1195,10.);
#341=VECTOR('',#1198,10.);
#342=VECTOR('',#1201,10.);
#343=VERTEX_POINT('',#1206);
#344=VERTEX_POINT('',#1207);
#345=VERTEX_POINT('',#1209);
#346=VERTEX_POINT('',#1211);
#347=VERTEX_POINT('',#1215);
#348=VERTEX_POINT('',#1217);
#349=VERTEX_POINT('',#1221);
#350=VERTEX_POINT('',#1222);
#351=VERTEX_POINT('',#1227);
#352=VERTEX_POINT('',#1228);
#353=VERTEX_POINT('',#1230);
#354=VERTEX_POINT('',#1232);
#355=VERTEX_POINT('',#1239);
#356=VERTEX_POINT('',#1241);
#357=VERTEX_POINT('',#1243);
#358=VERTEX_POINT('',#1245);
#359=VERTEX_POINT('',#1249);
#360=VERTEX_POINT('',#1253);
#361=VERTEX_POINT('',#1255);
#362=VERTEX_POINT('',#1259);
#363=VERTEX_POINT('',#1261);
#364=VERTEX_POINT('',#1265);
#365=VERTEX_POINT('',#1266);
#366=VERTEX_POINT('',#1268);
#367=VERTEX_POINT('',#1270);
#368=VERTEX_POINT('',#1274);
#369=VERTEX_POINT('',#1276);
#370=VERTEX_POINT('',#1280);
#371=VERTEX_POINT('',#1281);
#372=VERTEX_POINT('',#1283);
#373=VERTEX_POINT('',#1285);
#374=VERTEX_POINT('',#1292);
#375=VERTEX_POINT('',#1294);
#376=VERTEX_POINT('',#1300);
#377=VERTEX_POINT('',#1302);
#378=VERTEX_POINT('',#1304);
#379=VERTEX_POINT('',#1306);
#380=VERTEX_POINT('',#1308);
#381=VERTEX_POINT('',#1312);
#382=VERTEX_POINT('',#1313);
#383=VERTEX_POINT('',#1315);
#384=VERTEX_POINT('',#1317);
#385=VERTEX_POINT('',#1321);
#386=VERTEX_POINT('',#1322);
#387=VERTEX_POINT('',#1333);
#388=VERTEX_POINT('',#1335);
#389=VERTEX_POINT('',#1337);
#390=VERTEX_POINT('',#1339);
#391=VERTEX_POINT('',#1341);
#392=VERTEX_POINT('',#1345);
#393=VERTEX_POINT('',#1346);
#394=VERTEX_POINT('',#1348);
#395=VERTEX_POINT('',#1350);
#396=VERTEX_POINT('',#1352);
#397=VERTEX_POINT('',#1355);
#398=VERTEX_POINT('',#1357);
#399=VERTEX_POINT('',#1361);
#400=VERTEX_POINT('',#1363);
#401=VERTEX_POINT('',#1367);
#402=VERTEX_POINT('',#1369);
#403=VERTEX_POINT('',#1373);
#404=VERTEX_POINT('',#1377);
#405=VERTEX_POINT('',#1381);
#406=VERTEX_POINT('',#1383);
#407=VERTEX_POINT('',#1385);
#408=VERTEX_POINT('',#1387);
#409=VERTEX_POINT('',#1391);
#410=VERTEX_POINT('',#1394);
#411=VERTEX_POINT('',#1398);
#412=VERTEX_POINT('',#1404);
#413=VERTEX_POINT('',#1406);
#414=VERTEX_POINT('',#1410);
#415=VERTEX_POINT('',#1413);
#416=VERTEX_POINT('',#1424);
#417=VERTEX_POINT('',#1425);
#418=VERTEX_POINT('',#1427);
#419=VERTEX_POINT('',#1429);
#420=VERTEX_POINT('',#1433);
#421=VERTEX_POINT('',#1447);
#422=VERTEX_POINT('',#1449);
#423=VERTEX_POINT('',#1451);
#424=EDGE_CURVE('',#343,#344,#171,.T.);
#425=EDGE_CURVE('',#343,#345,#172,.T.);
#426=EDGE_CURVE('',#346,#345,#173,.T.);
#427=EDGE_CURVE('',#344,#346,#174,.T.);
#428=EDGE_CURVE('',#347,#343,#24,.T.);
#429=EDGE_CURVE('',#347,#348,#175,.T.);
#430=EDGE_CURVE('',#345,#348,#25,.T.);
#431=EDGE_CURVE('',#349,#350,#176,.T.);
#432=EDGE_CURVE('',#348,#349,#177,.T.);
#433=EDGE_CURVE('',#350,#347,#178,.T.);
#434=EDGE_CURVE('',#351,#352,#179,.T.);
#435=EDGE_CURVE('',#353,#351,#180,.T.);
#436=EDGE_CURVE('',#353,#354,#181,.T.);
#437=EDGE_CURVE('',#352,#354,#182,.T.);
#438=EDGE_CURVE('',#344,#353,#26,.T.);
#439=EDGE_CURVE('',#354,#346,#27,.T.);
#440=EDGE_CURVE('',#351,#355,#183,.T.);
#441=EDGE_CURVE('',#355,#356,#184,.T.);
#442=EDGE_CURVE('',#356,#357,#185,.T.);
#443=EDGE_CURVE('',#358,#357,#186,.T.);
#444=EDGE_CURVE('',#358,#350,#187,.T.);
#445=EDGE_CURVE('',#359,#352,#188,.T.);
#446=EDGE_CURVE('',#355,#359,#189,.T.);
#447=EDGE_CURVE('',#360,#360,#28,.T.);
#448=EDGE_CURVE('',#360,#361,#190,.T.);
#449=EDGE_CURVE('',#361,#361,#29,.T.);
#450=EDGE_CURVE('',#362,#362,#30,.T.);
#451=EDGE_CURVE('',#362,#363,#191,.T.);
#452=EDGE_CURVE('',#363,#363,#31,.T.);
#453=EDGE_CURVE('',#364,#365,#32,.T.);
#454=EDGE_CURVE('',#364,#366,#192,.T.);
#455=EDGE_CURVE('',#366,#367,#33,.T.);
#456=EDGE_CURVE('',#367,#365,#193,.T.);
#457=EDGE_CURVE('',#368,#367,#194,.T.);
#458=EDGE_CURVE('',#369,#368,#195,.T.);
#459=EDGE_CURVE('',#369,#365,#196,.T.);
#460=EDGE_CURVE('',#370,#371,#34,.T.);
#461=EDGE_CURVE('',#370,#372,#197,.T.);
#462=EDGE_CURVE('',#372,#373,#35,.T.);
#463=EDGE_CURVE('',#373,#371,#198,.T.);
#464=EDGE_CURVE('',#364,#371,#199,.T.);
#465=EDGE_CURVE('',#366,#373,#200,.T.);
#466=EDGE_CURVE('',#370,#374,#201,.T.);
#467=EDGE_CURVE('',#375,#374,#202,.T.);
#468=EDGE_CURVE('',#372,#375,#203,.T.);
#469=EDGE_CURVE('',#374,#369,#204,.T.);
#470=EDGE_CURVE('',#375,#376,#205,.T.);
#471=EDGE_CURVE('',#377,#376,#36,.T.);
#472=EDGE_CURVE('',#377,#378,#206,.T.);
#473=EDGE_CURVE('',#379,#378,#207,.T.);
#474=EDGE_CURVE('',#379,#380,#208,.T.);
#475=EDGE_CURVE('',#380,#368,#209,.T.);
#476=EDGE_CURVE('',#381,#382,#210,.T.);
#477=EDGE_CURVE('',#383,#381,#211,.T.);
#478=EDGE_CURVE('',#384,#383,#212,.T.);
#479=EDGE_CURVE('',#382,#384,#213,.T.);
#480=EDGE_CURVE('',#385,#386,#17,.T.);
#481=EDGE_CURVE('',#387,#385,#214,.T.);
#482=EDGE_CURVE('',#388,#387,#215,.T.);
#483=EDGE_CURVE('',#389,#388,#216,.T.);
#484=EDGE_CURVE('',#390,#389,#217,.T.);
#485=EDGE_CURVE('',#391,#390,#218,.T.);
#486=EDGE_CURVE('',#386,#391,#219,.T.);
#487=EDGE_CURVE('',#392,#393,#37,.T.);
#488=EDGE_CURVE('',#394,#392,#220,.T.);
#489=EDGE_CURVE('',#395,#394,#221,.T.);
#490=EDGE_CURVE('',#396,#395,#222,.T.);
#491=EDGE_CURVE('',#378,#396,#223,.T.);
#492=EDGE_CURVE('',#397,#377,#224,.T.);
#493=EDGE_CURVE('',#398,#397,#225,.T.);
#494=EDGE_CURVE('',#393,#398,#226,.T.);
#495=EDGE_CURVE('',#399,#381,#38,.T.);
#496=EDGE_CURVE('',#400,#399,#227,.T.);
#497=EDGE_CURVE('',#383,#400,#39,.T.);
#498=EDGE_CURVE('',#401,#385,#40,.T.);
#499=EDGE_CURVE('',#401,#402,#228,.T.);
#500=EDGE_CURVE('',#402,#387,#41,.T.);
#501=EDGE_CURVE('',#403,#396,#229,.T.);
#502=EDGE_CURVE('',#403,#379,#230,.T.);
#503=EDGE_CURVE('',#400,#404,#231,.T.);
#504=EDGE_CURVE('',#404,#356,#42,.T.);
#505=EDGE_CURVE('',#403,#359,#232,.T.);
#506=EDGE_CURVE('',#405,#395,#233,.T.);
#507=EDGE_CURVE('',#406,#405,#43,.T.);
#508=EDGE_CURVE('',#407,#406,#234,.T.);
#509=EDGE_CURVE('',#408,#407,#44,.T.);
#510=EDGE_CURVE('',#390,#408,#235,.T.);
#511=EDGE_CURVE('',#389,#384,#45,.T.);
#512=EDGE_CURVE('',#409,#409,#46,.T.);
#513=EDGE_CURVE('',#410,#394,#236,.T.);
#514=EDGE_CURVE('',#410,#405,#237,.T.);
#515=EDGE_CURVE('',#411,#358,#238,.T.);
#516=EDGE_CURVE('',#376,#411,#239,.T.);
#517=EDGE_CURVE('',#349,#380,#240,.T.);
#518=EDGE_CURVE('',#382,#388,#47,.T.);
#519=EDGE_CURVE('',#402,#412,#241,.T.);
#520=EDGE_CURVE('',#413,#412,#48,.T.);
#521=EDGE_CURVE('',#413,#398,#242,.T.);
#522=EDGE_CURVE('',#397,#411,#49,.T.);
#523=EDGE_CURVE('',#357,#414,#50,.T.);
#524=EDGE_CURVE('',#414,#399,#243,.T.);
#525=EDGE_CURVE('',#415,#415,#51,.T.);
#526=EDGE_CURVE('',#415,#409,#244,.T.);
#527=EDGE_CURVE('',#404,#414,#245,.T.);
#528=EDGE_CURVE('',#416,#417,#52,.T.);
#529=EDGE_CURVE('',#417,#418,#53,.T.);
#530=EDGE_CURVE('',#418,#419,#54,.T.);
#531=EDGE_CURVE('',#419,#416,#55,.T.);
#532=EDGE_CURVE('',#401,#420,#56,.T.);
#533=EDGE_CURVE('',#420,#419,#246,.T.);
#534=EDGE_CURVE('',#418,#401,#247,.T.);
#535=EDGE_CURVE('',#386,#420,#57,.T.);
#536=EDGE_CURVE('',#393,#417,#248,.T.);
#537=EDGE_CURVE('',#416,#392,#249,.T.);
#538=EDGE_CURVE('',#412,#418,#250,.T.);
#539=EDGE_CURVE('',#417,#413,#251,.T.);
#540=EDGE_CURVE('',#391,#421,#252,.T.);
#541=EDGE_CURVE('',#421,#422,#58,.T.);
#542=EDGE_CURVE('',#422,#423,#253,.T.);
#543=EDGE_CURVE('',#423,#410,#59,.T.);
#544=EDGE_CURVE('',#423,#406,#254,.T.);
#545=EDGE_CURVE('',#421,#408,#255,.T.);
#546=EDGE_CURVE('',#422,#407,#256,.T.);
#547=ORIENTED_EDGE('',*,*,#424,.F.);
#548=ORIENTED_EDGE('',*,*,#425,.T.);
#549=ORIENTED_EDGE('',*,*,#426,.F.);
#550=ORIENTED_EDGE('',*,*,#427,.F.);
#551=ORIENTED_EDGE('',*,*,#428,.F.);
#552=ORIENTED_EDGE('',*,*,#429,.T.);
#553=ORIENTED_EDGE('',*,*,#430,.F.);
#554=ORIENTED_EDGE('',*,*,#425,.F.);
#555=ORIENTED_EDGE('',*,*,#431,.F.);
#556=ORIENTED_EDGE('',*,*,#432,.F.);
#557=ORIENTED_EDGE('',*,*,#429,.F.);
#558=ORIENTED_EDGE('',*,*,#433,.F.);
#559=ORIENTED_EDGE('',*,*,#434,.F.);
#560=ORIENTED_EDGE('',*,*,#435,.F.);
#561=ORIENTED_EDGE('',*,*,#436,.T.);
#562=ORIENTED_EDGE('',*,*,#437,.F.);
#563=ORIENTED_EDGE('',*,*,#438,.F.);
#564=ORIENTED_EDGE('',*,*,#427,.T.);
#565=ORIENTED_EDGE('',*,*,#439,.F.);
#566=ORIENTED_EDGE('',*,*,#436,.F.);
#567=ORIENTED_EDGE('',*,*,#433,.T.);
#568=ORIENTED_EDGE('',*,*,#428,.T.);
#569=ORIENTED_EDGE('',*,*,#424,.T.);
#570=ORIENTED_EDGE('',*,*,#438,.T.);
#571=ORIENTED_EDGE('',*,*,#435,.T.);
#572=ORIENTED_EDGE('',*,*,#440,.T.);
#573=ORIENTED_EDGE('',*,*,#441,.T.);
#574=ORIENTED_EDGE('',*,*,#442,.T.);
#575=ORIENTED_EDGE('',*,*,#443,.F.);
#576=ORIENTED_EDGE('',*,*,#444,.T.);
#577=ORIENTED_EDGE('',*,*,#434,.T.);
#578=ORIENTED_EDGE('',*,*,#445,.F.);
#579=ORIENTED_EDGE('',*,*,#446,.F.);
#580=ORIENTED_EDGE('',*,*,#440,.F.);
#581=ORIENTED_EDGE('',*,*,#447,.F.);
#582=ORIENTED_EDGE('',*,*,#448,.T.);
#583=ORIENTED_EDGE('',*,*,#449,.F.);
#584=ORIENTED_EDGE('',*,*,#448,.F.);
#585=ORIENTED_EDGE('',*,*,#450,.F.);
#586=ORIENTED_EDGE('',*,*,#451,.T.);
#587=ORIENTED_EDGE('',*,*,#452,.F.);
#588=ORIENTED_EDGE('',*,*,#451,.F.);
#589=ORIENTED_EDGE('',*,*,#453,.F.);
#590=ORIENTED_EDGE('',*,*,#454,.T.);
#591=ORIENTED_EDGE('',*,*,#455,.T.);
#592=ORIENTED_EDGE('',*,*,#456,.T.);
#593=ORIENTED_EDGE('',*,*,#456,.F.);
#594=ORIENTED_EDGE('',*,*,#457,.F.);
#595=ORIENTED_EDGE('',*,*,#458,.F.);
#596=ORIENTED_EDGE('',*,*,#459,.T.);
#597=ORIENTED_EDGE('',*,*,#460,.F.);
#598=ORIENTED_EDGE('',*,*,#461,.T.);
#599=ORIENTED_EDGE('',*,*,#462,.T.);
#600=ORIENTED_EDGE('',*,*,#463,.T.);
#601=ORIENTED_EDGE('',*,*,#454,.F.);
#602=ORIENTED_EDGE('',*,*,#464,.T.);
#603=ORIENTED_EDGE('',*,*,#463,.F.);
#604=ORIENTED_EDGE('',*,*,#465,.F.);
#605=ORIENTED_EDGE('',*,*,#461,.F.);
#606=ORIENTED_EDGE('',*,*,#466,.T.);
#607=ORIENTED_EDGE('',*,*,#467,.F.);
#608=ORIENTED_EDGE('',*,*,#468,.F.);
#609=ORIENTED_EDGE('',*,*,#453,.T.);
#610=ORIENTED_EDGE('',*,*,#459,.F.);
#611=ORIENTED_EDGE('',*,*,#469,.F.);
#612=ORIENTED_EDGE('',*,*,#466,.F.);
#613=ORIENTED_EDGE('',*,*,#460,.T.);
#614=ORIENTED_EDGE('',*,*,#464,.F.);
#615=ORIENTED_EDGE('',*,*,#457,.T.);
#616=ORIENTED_EDGE('',*,*,#455,.F.);
#617=ORIENTED_EDGE('',*,*,#465,.T.);
#618=ORIENTED_EDGE('',*,*,#462,.F.);
#619=ORIENTED_EDGE('',*,*,#468,.T.);
#620=ORIENTED_EDGE('',*,*,#470,.T.);
#621=ORIENTED_EDGE('',*,*,#471,.F.);
#622=ORIENTED_EDGE('',*,*,#472,.T.);
#623=ORIENTED_EDGE('',*,*,#473,.F.);
#624=ORIENTED_EDGE('',*,*,#474,.T.);
#625=ORIENTED_EDGE('',*,*,#475,.T.);
#626=ORIENTED_EDGE('',*,*,#449,.T.);
#627=ORIENTED_EDGE('',*,*,#452,.T.);
#628=ORIENTED_EDGE('',*,*,#476,.F.);
#629=ORIENTED_EDGE('',*,*,#477,.F.);
#630=ORIENTED_EDGE('',*,*,#478,.F.);
#631=ORIENTED_EDGE('',*,*,#479,.F.);
#632=ORIENTED_EDGE('',*,*,#480,.F.);
#633=ORIENTED_EDGE('',*,*,#481,.F.);
#634=ORIENTED_EDGE('',*,*,#482,.F.);
#635=ORIENTED_EDGE('',*,*,#483,.F.);
#636=ORIENTED_EDGE('',*,*,#484,.F.);
#637=ORIENTED_EDGE('',*,*,#485,.F.);
#638=ORIENTED_EDGE('',*,*,#486,.F.);
#639=ORIENTED_EDGE('',*,*,#487,.F.);
#640=ORIENTED_EDGE('',*,*,#488,.F.);
#641=ORIENTED_EDGE('',*,*,#489,.F.);
#642=ORIENTED_EDGE('',*,*,#490,.F.);
#643=ORIENTED_EDGE('',*,*,#491,.F.);
#644=ORIENTED_EDGE('',*,*,#472,.F.);
#645=ORIENTED_EDGE('',*,*,#492,.F.);
#646=ORIENTED_EDGE('',*,*,#493,.F.);
#647=ORIENTED_EDGE('',*,*,#494,.F.);
#648=ORIENTED_EDGE('',*,*,#477,.T.);
#649=ORIENTED_EDGE('',*,*,#495,.F.);
#650=ORIENTED_EDGE('',*,*,#496,.F.);
#651=ORIENTED_EDGE('',*,*,#497,.F.);
#652=ORIENTED_EDGE('',*,*,#481,.T.);
#653=ORIENTED_EDGE('',*,*,#498,.F.);
#654=ORIENTED_EDGE('',*,*,#499,.T.);
#655=ORIENTED_EDGE('',*,*,#500,.T.);
#656=ORIENTED_EDGE('',*,*,#491,.T.);
#657=ORIENTED_EDGE('',*,*,#501,.F.);
#658=ORIENTED_EDGE('',*,*,#502,.T.);
#659=ORIENTED_EDGE('',*,*,#473,.T.);
#660=ORIENTED_EDGE('',*,*,#478,.T.);
#661=ORIENTED_EDGE('',*,*,#497,.T.);
#662=ORIENTED_EDGE('',*,*,#503,.T.);
#663=ORIENTED_EDGE('',*,*,#504,.T.);
#664=ORIENTED_EDGE('',*,*,#441,.F.);
#665=ORIENTED_EDGE('',*,*,#446,.T.);
#666=ORIENTED_EDGE('',*,*,#505,.F.);
#667=ORIENTED_EDGE('',*,*,#501,.T.);
#668=ORIENTED_EDGE('',*,*,#490,.T.);
#669=ORIENTED_EDGE('',*,*,#506,.F.);
#670=ORIENTED_EDGE('',*,*,#507,.F.);
#671=ORIENTED_EDGE('',*,*,#508,.F.);
#672=ORIENTED_EDGE('',*,*,#509,.F.);
#673=ORIENTED_EDGE('',*,*,#510,.F.);
#674=ORIENTED_EDGE('',*,*,#484,.T.);
#675=ORIENTED_EDGE('',*,*,#511,.T.);
#676=ORIENTED_EDGE('',*,*,#512,.T.);
#677=ORIENTED_EDGE('',*,*,#489,.T.);
#678=ORIENTED_EDGE('',*,*,#513,.F.);
#679=ORIENTED_EDGE('',*,*,#514,.T.);
#680=ORIENTED_EDGE('',*,*,#506,.T.);
#681=ORIENTED_EDGE('',*,*,#431,.T.);
#682=ORIENTED_EDGE('',*,*,#444,.F.);
#683=ORIENTED_EDGE('',*,*,#515,.F.);
#684=ORIENTED_EDGE('',*,*,#516,.F.);
#685=ORIENTED_EDGE('',*,*,#470,.F.);
#686=ORIENTED_EDGE('',*,*,#467,.T.);
#687=ORIENTED_EDGE('',*,*,#469,.T.);
#688=ORIENTED_EDGE('',*,*,#458,.T.);
#689=ORIENTED_EDGE('',*,*,#475,.F.);
#690=ORIENTED_EDGE('',*,*,#517,.F.);
#691=ORIENTED_EDGE('',*,*,#476,.T.);
#692=ORIENTED_EDGE('',*,*,#518,.T.);
#693=ORIENTED_EDGE('',*,*,#482,.T.);
#694=ORIENTED_EDGE('',*,*,#500,.F.);
#695=ORIENTED_EDGE('',*,*,#519,.T.);
#696=ORIENTED_EDGE('',*,*,#520,.F.);
#697=ORIENTED_EDGE('',*,*,#521,.T.);
#698=ORIENTED_EDGE('',*,*,#493,.T.);
#699=ORIENTED_EDGE('',*,*,#522,.T.);
#700=ORIENTED_EDGE('',*,*,#515,.T.);
#701=ORIENTED_EDGE('',*,*,#443,.T.);
#702=ORIENTED_EDGE('',*,*,#523,.T.);
#703=ORIENTED_EDGE('',*,*,#524,.T.);
#704=ORIENTED_EDGE('',*,*,#495,.T.);
#705=ORIENTED_EDGE('',*,*,#447,.T.);
#706=ORIENTED_EDGE('',*,*,#450,.T.);
#707=ORIENTED_EDGE('',*,*,#525,.T.);
#708=ORIENTED_EDGE('',*,*,#492,.T.);
#709=ORIENTED_EDGE('',*,*,#471,.T.);
#710=ORIENTED_EDGE('',*,*,#516,.T.);
#711=ORIENTED_EDGE('',*,*,#522,.F.);
#712=ORIENTED_EDGE('',*,*,#479,.T.);
#713=ORIENTED_EDGE('',*,*,#511,.F.);
#714=ORIENTED_EDGE('',*,*,#483,.T.);
#715=ORIENTED_EDGE('',*,*,#518,.F.);
#716=ORIENTED_EDGE('',*,*,#525,.F.);
#717=ORIENTED_EDGE('',*,*,#526,.T.);
#718=ORIENTED_EDGE('',*,*,#512,.F.);
#719=ORIENTED_EDGE('',*,*,#526,.F.);
#720=ORIENTED_EDGE('',*,*,#523,.F.);
#721=ORIENTED_EDGE('',*,*,#442,.F.);
#722=ORIENTED_EDGE('',*,*,#504,.F.);
#723=ORIENTED_EDGE('',*,*,#527,.T.);
#724=ORIENTED_EDGE('',*,*,#524,.F.);
#725=ORIENTED_EDGE('',*,*,#527,.F.);
#726=ORIENTED_EDGE('',*,*,#503,.F.);
#727=ORIENTED_EDGE('',*,*,#496,.T.);
#728=ORIENTED_EDGE('',*,*,#432,.T.);
#729=ORIENTED_EDGE('',*,*,#517,.T.);
#730=ORIENTED_EDGE('',*,*,#474,.F.);
#731=ORIENTED_EDGE('',*,*,#502,.F.);
#732=ORIENTED_EDGE('',*,*,#505,.T.);
#733=ORIENTED_EDGE('',*,*,#445,.T.);
#734=ORIENTED_EDGE('',*,*,#437,.T.);
#735=ORIENTED_EDGE('',*,*,#439,.T.);
#736=ORIENTED_EDGE('',*,*,#426,.T.);
#737=ORIENTED_EDGE('',*,*,#430,.T.);
#738=ORIENTED_EDGE('',*,*,#528,.T.);
#739=ORIENTED_EDGE('',*,*,#529,.T.);
#740=ORIENTED_EDGE('',*,*,#530,.T.);
#741=ORIENTED_EDGE('',*,*,#531,.T.);
#742=ORIENTED_EDGE('',*,*,#532,.T.);
#743=ORIENTED_EDGE('',*,*,#533,.T.);
#744=ORIENTED_EDGE('',*,*,#530,.F.);
#745=ORIENTED_EDGE('',*,*,#534,.T.);
#746=ORIENTED_EDGE('',*,*,#480,.T.);
#747=ORIENTED_EDGE('',*,*,#535,.T.);
#748=ORIENTED_EDGE('',*,*,#532,.F.);
#749=ORIENTED_EDGE('',*,*,#498,.T.);
#750=ORIENTED_EDGE('',*,*,#487,.T.);
#751=ORIENTED_EDGE('',*,*,#536,.T.);
#752=ORIENTED_EDGE('',*,*,#528,.F.);
#753=ORIENTED_EDGE('',*,*,#537,.T.);
#754=ORIENTED_EDGE('',*,*,#534,.F.);
#755=ORIENTED_EDGE('',*,*,#538,.F.);
#756=ORIENTED_EDGE('',*,*,#519,.F.);
#757=ORIENTED_EDGE('',*,*,#499,.F.);
#758=ORIENTED_EDGE('',*,*,#529,.F.);
#759=ORIENTED_EDGE('',*,*,#539,.T.);
#760=ORIENTED_EDGE('',*,*,#520,.T.);
#761=ORIENTED_EDGE('',*,*,#538,.T.);
#762=ORIENTED_EDGE('',*,*,#486,.T.);
#763=ORIENTED_EDGE('',*,*,#540,.T.);
#764=ORIENTED_EDGE('',*,*,#541,.T.);
#765=ORIENTED_EDGE('',*,*,#542,.T.);
#766=ORIENTED_EDGE('',*,*,#543,.T.);
#767=ORIENTED_EDGE('',*,*,#513,.T.);
#768=ORIENTED_EDGE('',*,*,#488,.T.);
#769=ORIENTED_EDGE('',*,*,#537,.F.);
#770=ORIENTED_EDGE('',*,*,#531,.F.);
#771=ORIENTED_EDGE('',*,*,#533,.F.);
#772=ORIENTED_EDGE('',*,*,#535,.F.);
#773=ORIENTED_EDGE('',*,*,#494,.T.);
#774=ORIENTED_EDGE('',*,*,#521,.F.);
#775=ORIENTED_EDGE('',*,*,#539,.F.);
#776=ORIENTED_EDGE('',*,*,#536,.F.);
#777=ORIENTED_EDGE('',*,*,#507,.T.);
#778=ORIENTED_EDGE('',*,*,#514,.F.);
#779=ORIENTED_EDGE('',*,*,#543,.F.);
#780=ORIENTED_EDGE('',*,*,#544,.T.);
#781=ORIENTED_EDGE('',*,*,#485,.T.);
#782=ORIENTED_EDGE('',*,*,#510,.T.);
#783=ORIENTED_EDGE('',*,*,#545,.F.);
#784=ORIENTED_EDGE('',*,*,#540,.F.);
#785=ORIENTED_EDGE('',*,*,#508,.T.);
#786=ORIENTED_EDGE('',*,*,#544,.F.);
#787=ORIENTED_EDGE('',*,*,#542,.F.);
#788=ORIENTED_EDGE('',*,*,#546,.T.);
#789=ORIENTED_EDGE('',*,*,#509,.T.);
#790=ORIENTED_EDGE('',*,*,#546,.F.);
#791=ORIENTED_EDGE('',*,*,#541,.F.);
#792=ORIENTED_EDGE('',*,*,#545,.T.);
#793=PLANE('',#876);
#794=PLANE('',#880);
#795=PLANE('',#881);
#796=PLANE('',#885);
#797=PLANE('',#886);
#798=PLANE('',#896);
#799=PLANE('',#900);
#800=PLANE('',#901);
#801=PLANE('',#902);
#802=PLANE('',#903);
#803=PLANE('',#905);
#804=PLANE('',#906);
#805=PLANE('',#907);
#806=PLANE('',#915);
#807=PLANE('',#916);
#808=PLANE('',#922);
#809=PLANE('',#923);
#810=PLANE('',#924);
#811=PLANE('',#934);
#812=PLANE('',#935);
#813=PLANE('',#946);
#814=PLANE('',#948);
#815=PLANE('',#951);
#816=PLANE('',#953);
#817=PLANE('',#954);
#818=ADVANCED_FACE('',(#77),#793,.F.);
#819=ADVANCED_FACE('',(#78),#60,.F.);
#820=ADVANCED_FACE('',(#79),#794,.F.);
#821=ADVANCED_FACE('',(#80),#795,.F.);
#822=ADVANCED_FACE('',(#81),#61,.F.);
#823=ADVANCED_FACE('',(#82),#796,.T.);
#824=ADVANCED_FACE('',(#83),#797,.F.);
#825=ADVANCED_FACE('',(#84),#62,.F.);
#826=ADVANCED_FACE('',(#85),#63,.F.);
#827=ADVANCED_FACE('',(#86),#64,.F.);
#828=ADVANCED_FACE('',(#87),#798,.F.);
#829=ADVANCED_FACE('',(#88),#65,.F.);
#830=ADVANCED_FACE('',(#89),#799,.F.);
#831=ADVANCED_FACE('',(#90),#800,.F.);
#832=ADVANCED_FACE('',(#91),#801,.F.);
#833=ADVANCED_FACE('',(#92,#18,#19),#802,.T.);
#834=ADVANCED_FACE('',(#93),#803,.F.);
#835=ADVANCED_FACE('',(#94),#804,.F.);
#836=ADVANCED_FACE('',(#95),#805,.F.);
#837=ADVANCED_FACE('',(#96),#66,.T.);
#838=ADVANCED_FACE('',(#97),#67,.F.);
#839=ADVANCED_FACE('',(#98),#806,.F.);
#840=ADVANCED_FACE('',(#99,#20),#807,.T.);
#841=ADVANCED_FACE('',(#100),#808,.F.);
#842=ADVANCED_FACE('',(#101),#809,.F.);
#843=ADVANCED_FACE('',(#102,#21,#22,#23),#810,.T.);
#844=ADVANCED_FACE('',(#103),#68,.F.);
#845=ADVANCED_FACE('',(#104),#69,.F.);
#846=ADVANCED_FACE('',(#105),#70,.F.);
#847=ADVANCED_FACE('',(#106),#71,.T.);
#848=ADVANCED_FACE('',(#107),#811,.F.);
#849=ADVANCED_FACE('',(#108),#812,.T.);
#850=ADVANCED_FACE('',(#109),#15,.F.);
#851=ADVANCED_FACE('',(#110),#72,.F.);
#852=ADVANCED_FACE('',(#111),#16,.F.);
#853=ADVANCED_FACE('',(#112),#73,.F.);
#854=ADVANCED_FACE('',(#113),#813,.T.);
#855=ADVANCED_FACE('',(#114),#74,.F.);
#856=ADVANCED_FACE('',(#115),#814,.F.);
#857=ADVANCED_FACE('',(#116),#815,.T.);
#858=ADVANCED_FACE('',(#117),#75,.F.);
#859=ADVANCED_FACE('',(#118),#816,.F.);
#860=ADVANCED_FACE('',(#119),#817,.F.);
#861=ADVANCED_FACE('',(#120),#76,.F.);
#862=CLOSED_SHELL('',(#818,#819,#820,#821,#822,#823,#824,#825,#826,#827,
#828,#829,#830,#831,#832,#833,#834,#835,#836,#837,#838,#839,#840,#841,#842,
#843,#844,#845,#846,#847,#848,#849,#850,#851,#852,#853,#854,#855,#856,#857,
#858,#859,#860,#861));
#863=DERIVED_UNIT_ELEMENT(#865,1.);
#864=DERIVED_UNIT_ELEMENT(#1467,-3.);
#865=(
MASS_UNIT()
NAMED_UNIT(*)
SI_UNIT(.KILO.,.GRAM.)
);
#866=DERIVED_UNIT((#863,#864));
#867=MEASURE_REPRESENTATION_ITEM('density measure',
POSITIVE_RATIO_MEASURE(7850.),#866);
#868=PROPERTY_DEFINITION_REPRESENTATION(#873,#870);
#869=PROPERTY_DEFINITION_REPRESENTATION(#874,#871);
#870=REPRESENTATION('material name',(#872),#1464);
#871=REPRESENTATION('density',(#867),#1464);
#872=DESCRIPTIVE_REPRESENTATION_ITEM('Steel','Steel');
#873=PROPERTY_DEFINITION('material property','material name',#1474);
#874=PROPERTY_DEFINITION('material property','density of part',#1474);
#875=AXIS2_PLACEMENT_3D('',#1204,#956,#957);
#876=AXIS2_PLACEMENT_3D('',#1205,#958,#959);
#877=AXIS2_PLACEMENT_3D('',#1214,#964,#965);
#878=AXIS2_PLACEMENT_3D('',#1216,#966,#967);
#879=AXIS2_PLACEMENT_3D('',#1219,#969,#970);
#880=AXIS2_PLACEMENT_3D('',#1220,#971,#972);
#881=AXIS2_PLACEMENT_3D('',#1226,#976,#977);
#882=AXIS2_PLACEMENT_3D('',#1235,#982,#983);
#883=AXIS2_PLACEMENT_3D('',#1236,#984,#985);
#884=AXIS2_PLACEMENT_3D('',#1237,#986,#987);
#885=AXIS2_PLACEMENT_3D('',#1238,#988,#989);
#886=AXIS2_PLACEMENT_3D('',#1248,#995,#996);
#887=AXIS2_PLACEMENT_3D('',#1252,#999,#1000);
#888=AXIS2_PLACEMENT_3D('',#1254,#1001,#1002);
#889=AXIS2_PLACEMENT_3D('',#1257,#1004,#1005);
#890=AXIS2_PLACEMENT_3D('',#1258,#1006,#1007);
#891=AXIS2_PLACEMENT_3D('',#1260,#1008,#1009);
#892=AXIS2_PLACEMENT_3D('',#1263,#1011,#1012);
#893=AXIS2_PLACEMENT_3D('',#1264,#1013,#1014);
#894=AXIS2_PLACEMENT_3D('',#1267,#1015,#1016);
#895=AXIS2_PLACEMENT_3D('',#1271,#1018,#1019);
#896=AXIS2_PLACEMENT_3D('',#1273,#1021,#1022);
#897=AXIS2_PLACEMENT_3D('',#1279,#1026,#1027);
#898=AXIS2_PLACEMENT_3D('',#1282,#1028,#1029);
#899=AXIS2_PLACEMENT_3D('',#1286,#1031,#1032);
#900=AXIS2_PLACEMENT_3D('',#1288,#1034,#1035);
#901=AXIS2_PLACEMENT_3D('',#1291,#1038,#1039);
#902=AXIS2_PLACEMENT_3D('',#1297,#1043,#1044);
#903=AXIS2_PLACEMENT_3D('',#1299,#1046,#1047);
#904=AXIS2_PLACEMENT_3D('',#1303,#1049,#1050);
#905=AXIS2_PLACEMENT_3D('',#1311,#1055,#1056);
#906=AXIS2_PLACEMENT_3D('',#1320,#1061,#1062);
#907=AXIS2_PLACEMENT_3D('',#1344,#1069,#1070);
#908=AXIS2_PLACEMENT_3D('',#1347,#1071,#1072);
#909=AXIS2_PLACEMENT_3D('',#1360,#1080,#1081);
#910=AXIS2_PLACEMENT_3D('',#1362,#1082,#1083);
#911=AXIS2_PLACEMENT_3D('',#1365,#1085,#1086);
#912=AXIS2_PLACEMENT_3D('',#1366,#1087,#1088);
#913=AXIS2_PLACEMENT_3D('',#1368,#1089,#1090);
#914=AXIS2_PLACEMENT_3D('',#1371,#1092,#1093);
#915=AXIS2_PLACEMENT_3D('',#1372,#1094,#1095);
#916=AXIS2_PLACEMENT_3D('',#1376,#1098,#1099);
#917=AXIS2_PLACEMENT_3D('',#1379,#1101,#1102);
#918=AXIS2_PLACEMENT_3D('',#1384,#1105,#1106);
#919=AXIS2_PLACEMENT_3D('',#1388,#1108,#1109);
#920=AXIS2_PLACEMENT_3D('',#1390,#1111,#1112);
#921=AXIS2_PLACEMENT_3D('',#1392,#1113,#1114);
#922=AXIS2_PLACEMENT_3D('',#1393,#1115,#1116);
#923=AXIS2_PLACEMENT_3D('',#1397,#1119,#1120);
#924=AXIS2_PLACEMENT_3D('',#1402,#1124,#1125);
#925=AXIS2_PLACEMENT_3D('',#1403,#1126,#1127);
#926=AXIS2_PLACEMENT_3D('',#1407,#1129,#1130);
#927=AXIS2_PLACEMENT_3D('',#1409,#1132,#1133);
#928=AXIS2_PLACEMENT_3D('',#1411,#1134,#1135);
#929=AXIS2_PLACEMENT_3D('',#1414,#1137,#1138);
#930=AXIS2_PLACEMENT_3D('',#1415,#1139,#1140);
#931=AXIS2_PLACEMENT_3D('',#1416,#1141,#1142);
#932=AXIS2_PLACEMENT_3D('',#1417,#1143,#1144);
#933=AXIS2_PLACEMENT_3D('',#1419,#1146,#1147);
#934=AXIS2_PLACEMENT_3D('',#1421,#1149,#1150);
#935=AXIS2_PLACEMENT_3D('',#1422,#1151,#1152);
#936=AXIS2_PLACEMENT_3D('',#1423,#1153,#1154);
#937=AXIS2_PLACEMENT_3D('',#1426,#1155,#1156);
#938=AXIS2_PLACEMENT_3D('',#1428,#1157,#1158);
#939=AXIS2_PLACEMENT_3D('',#1430,#1159,#1160);
#940=AXIS2_PLACEMENT_3D('',#1431,#1161,#1162);
#941=AXIS2_PLACEMENT_3D('',#1432,#1163,#1164);
#942=AXIS2_PLACEMENT_3D('',#1434,#1165,#1166);
#943=AXIS2_PLACEMENT_3D('',#1437,#1169,#1170);
#944=AXIS2_PLACEMENT_3D('',#1438,#1171,#1172);
#945=AXIS2_PLACEMENT_3D('',#1439,#1173,#1174);
#946=AXIS2_PLACEMENT_3D('',#1442,#1177,#1178);
#947=AXIS2_PLACEMENT_3D('',#1444,#1180,#1181);
#948=AXIS2_PLACEMENT_3D('',#1446,#1183,#1184);
#949=AXIS2_PLACEMENT_3D('',#1450,#1186,#1187);
#950=AXIS2_PLACEMENT_3D('',#1453,#1189,#1190);
#951=AXIS2_PLACEMENT_3D('',#1454,#1191,#1192);
#952=AXIS2_PLACEMENT_3D('',#1455,#1193,#1194);
#953=AXIS2_PLACEMENT_3D('',#1457,#1196,#1197);
#954=AXIS2_PLACEMENT_3D('',#1459,#1199,#1200);
#955=AXIS2_PLACEMENT_3D('',#1461,#1202,#1203);
#956=DIRECTION('axis',(0.,0.,1.));
#957=DIRECTION('refdir',(1.,0.,0.));
#958=DIRECTION('center_axis',(1.,0.,0.));
#959=DIRECTION('ref_axis',(0.,0.,-1.));
#960=DIRECTION('',(0.,-2.90835923360487E-30,-1.));
#961=DIRECTION('',(0.,1.,0.));
#962=DIRECTION('',(0.,2.45359760798665E-30,1.));
#963=DIRECTION('',(0.,1.,0.));
#964=DIRECTION('center_axis',(0.,1.,0.));
#965=DIRECTION('ref_axis',(1.,0.,0.));
#966=DIRECTION('center_axis',(-5.30472465209259E-16,1.,-2.90835923360487E-30));
#967=DIRECTION('ref_axis',(1.,0.,0.));
#968=DIRECTION('',(0.,1.,0.));
#969=DIRECTION('center_axis',(4.47525861558356E-16,-1.,2.45359760798665E-30));
#970=DIRECTION('ref_axis',(1.,0.,0.));
#971=DIRECTION('center_axis',(0.,0.,1.));
#972=DIRECTION('ref_axis',(1.,0.,0.));
#973=DIRECTION('',(0.,-1.,0.));
#974=DIRECTION('',(-1.,-4.47525861558356E-16,0.));
#975=DIRECTION('',(1.,5.30472465209259E-16,0.));
#976=DIRECTION('center_axis',(0.,0.,-1.));
#977=DIRECTION('ref_axis',(-1.,-1.09080302390625E-29,0.));
#978=DIRECTION('',(0.,1.,0.));
#979=DIRECTION('',(-1.,-5.30472465209259E-16,0.));
#980=DIRECTION('',(0.,1.,0.));
#981=DIRECTION('',(1.,4.47525861558356E-16,0.));
#982=DIRECTION('center_axis',(0.,1.,0.));
#983=DIRECTION('ref_axis',(5.55111512312578E-16,0.,-1.));
#984=DIRECTION('center_axis',(-5.30472465209259E-16,1.,-2.90835923360487E-30));
#985=DIRECTION('ref_axis',(5.55111512312578E-16,0.,-1.));
#986=DIRECTION('center_axis',(4.47525861558356E-16,-1.,2.45359760798665E-30));
#987=DIRECTION('ref_axis',(5.55111512312578E-16,0.,-1.));
#988=DIRECTION('center_axis',(5.30472465209259E-16,-1.,2.90835923360487E-30));
#989=DIRECTION('ref_axis',(1.,5.30472465209259E-16,5.62787313698787E-15));
#990=DIRECTION('',(6.12323399573677E-17,-2.87587716327715E-30,-1.));
#991=DIRECTION('',(1.,5.30472465209259E-16,5.62787313698787E-15));
#992=DIRECTION('',(0.,0.,1.));
#993=DIRECTION('',(1.,5.30472465209259E-16,0.));
#994=DIRECTION('',(6.12323399573677E-17,-2.87587716327715E-30,-1.));
#995=DIRECTION('center_axis',(1.,0.,6.12323399573677E-17));
#996=DIRECTION('ref_axis',(6.12323399573677E-17,0.,-1.));
#997=DIRECTION('',(-6.12323399573677E-17,2.426194552292E-30,1.));
#998=DIRECTION('',(0.,1.,0.));
#999=DIRECTION('center_axis',(0.,0.,-1.));
#1000=DIRECTION('ref_axis',(-1.,0.,0.));
#1001=DIRECTION('center_axis',(0.,0.,-1.));
#1002=DIRECTION('ref_axis',(-1.,0.,0.));
#1003=DIRECTION('',(0.,0.,-1.));
#1004=DIRECTION('center_axis',(0.,0.,1.));
#1005=DIRECTION('ref_axis',(-1.,0.,0.));
#1006=DIRECTION('center_axis',(0.,0.,-1.));
#1007=DIRECTION('ref_axis',(-1.,0.,0.));
#1008=DIRECTION('center_axis',(0.,0.,-1.));
#1009=DIRECTION('ref_axis',(-1.,0.,0.));
#1010=DIRECTION('',(0.,0.,-1.));
#1011=DIRECTION('center_axis',(0.,0.,1.));
#1012=DIRECTION('ref_axis',(-1.,0.,0.));
#1013=DIRECTION('center_axis',(0.,0.,1.));
#1014=DIRECTION('ref_axis',(0.707106781186555,-0.70710678118654,0.));
#1015=DIRECTION('center_axis',(0.,0.,-1.));
#1016=DIRECTION('ref_axis',(0.707106781186555,-0.70710678118654,0.));
#1017=DIRECTION('',(0.,0.,-1.));
#1018=DIRECTION('center_axis',(0.,0.,-1.));
#1019=DIRECTION('ref_axis',(0.707106781186555,-0.70710678118654,0.));
#1020=DIRECTION('',(0.,0.,1.));
#1021=DIRECTION('center_axis',(0.,-1.,0.));
#1022=DIRECTION('ref_axis',(1.,0.,0.));
#1023=DIRECTION('',(1.,0.,0.));
#1024=DIRECTION('',(6.12323399573677E-17,0.,-1.));
#1025=DIRECTION('',(1.,0.,0.));
#1026=DIRECTION('center_axis',(0.,0.,1.));
#1027=DIRECTION('ref_axis',(0.707106781186548,0.707106781186547,0.));
#1028=DIRECTION('center_axis',(0.,0.,-1.));
#1029=DIRECTION('ref_axis',(0.707106781186548,0.707106781186547,0.));
#1030=DIRECTION('',(0.,0.,-1.));
#1031=DIRECTION('center_axis',(0.,0.,-1.));
#1032=DIRECTION('ref_axis',(0.707106781186548,0.707106781186547,0.));
#1033=DIRECTION('',(0.,0.,1.));
#1034=DIRECTION('center_axis',(1.,0.,0.));
#1035=DIRECTION('ref_axis',(0.,1.,0.));
#1036=DIRECTION('',(0.,1.,0.));
#1037=DIRECTION('',(0.,1.,0.));
#1038=DIRECTION('center_axis',(0.,1.,0.));
#1039=DIRECTION('ref_axis',(-1.,0.,0.));
#1040=DIRECTION('',(-1.,0.,0.));
#1041=DIRECTION('',(-6.12323399573677E-17,0.,1.));
#1042=DIRECTION('',(-1.,0.,0.));
#1043=DIRECTION('center_axis',(0.,0.,1.));
#1044=DIRECTION('ref_axis',(1.,0.,0.));
#1045=DIRECTION('',(0.,-1.,0.));
#1046=DIRECTION('center_axis',(0.,0.,-1.));
#1047=DIRECTION('ref_axis',(-1.,0.,0.));
#1048=DIRECTION('',(0.,1.,0.));
#1049=DIRECTION('center_axis',(0.,0.,-1.));
#1050=DIRECTION('ref_axis',(1.,0.,0.));
#1051=DIRECTION('',(1.,0.,0.));
#1052=DIRECTION('',(0.,1.,0.));
#1053=DIRECTION('',(-1.,-4.47525861558356E-16,0.));
#1054=DIRECTION('',(0.,1.,0.));
#1055=DIRECTION('center_axis',(0.,-1.,6.12323399573677E-17));
#1056=DIRECTION('ref_axis',(0.,-6.12323399573677E-17,-1.));
#1057=DIRECTION('',(-1.,0.,0.));
#1058=DIRECTION('',(0.,0.,1.));
#1059=DIRECTION('',(1.,0.,0.));
#1060=DIRECTION('',(0.,0.,-1.));
#1061=DIRECTION('center_axis',(0.,-1.,6.12323399573677E-17));
#1062=DIRECTION('ref_axis',(0.,-6.12323399573677E-17,-1.));
#1063=DIRECTION('',(0.,0.,-1.));
#1064=DIRECTION('',(-1.,0.,0.));
#1065=DIRECTION('',(0.,0.,1.));
#1066=DIRECTION('',(1.,0.,0.));
#1067=DIRECTION('',(0.,-6.12323399573677E-17,-1.));
#1068=DIRECTION('',(-1.,0.,0.));
#1069=DIRECTION('center_axis',(0.,-1.,6.12323399573677E-17));
#1070=DIRECTION('ref_axis',(0.,-6.12323399573677E-17,-1.));
#1071=DIRECTION('center_axis',(0.,1.,-6.12323399573677E-17));
#1072=DIRECTION('ref_axis',(-0.707106781186546,0.,-0.707106781186549));
#1073=DIRECTION('',(-1.,0.,0.));
#1074=DIRECTION('',(0.,6.12323399573677E-17,1.));
#1075=DIRECTION('',(1.,0.,0.));
#1076=DIRECTION('',(0.,-6.12323399573677E-17,-1.));
#1077=DIRECTION('',(0.,0.,-1.));
#1078=DIRECTION('',(-1.,0.,0.));
#1079=DIRECTION('',(0.,6.12323399573677E-17,1.));
#1080=DIRECTION('center_axis',(0.,0.,1.));
#1081=DIRECTION('ref_axis',(0.866025403784434,0.500000000000009,0.));
#1082=DIRECTION('center_axis',(0.,0.,1.));
#1083=DIRECTION('ref_axis',(0.866025403784434,0.500000000000009,0.));
#1084=DIRECTION('',(0.,0.,1.));
#1085=DIRECTION('center_axis',(0.,0.,-1.));
#1086=DIRECTION('ref_axis',(0.866025403784434,0.500000000000009,0.));
#1087=DIRECTION('center_axis',(0.,0.,-1.));
#1088=DIRECTION('ref_axis',(1.,-1.34607388046849E-15,0.));
#1089=DIRECTION('center_axis',(0.,0.,1.));
#1090=DIRECTION('ref_axis',(1.,1.15192792493811E-15,0.));
#1091=DIRECTION('',(0.,0.,1.));
#1092=DIRECTION('center_axis',(0.,0.,1.));
#1093=DIRECTION('ref_axis',(1.,-1.34607388046849E-15,0.));
#1094=DIRECTION('center_axis',(1.,0.,0.));
#1095=DIRECTION('ref_axis',(0.,1.,0.));
#1096=DIRECTION('',(0.,1.,0.));
#1097=DIRECTION('',(0.,2.45359760798665E-30,1.));
#1098=DIRECTION('center_axis',(0.,0.,-1.));
#1099=DIRECTION('ref_axis',(-1.,0.,0.));
#1100=DIRECTION('',(-0.5,-0.866025403784439,0.));
#1101=DIRECTION('center_axis',(0.,0.,-1.));
#1102=DIRECTION('ref_axis',(0.866025403784442,-0.499999999999994,0.));
#1103=DIRECTION('',(-1.,-4.47525861558356E-16,-5.62787313698787E-15));
#1104=DIRECTION('',(0.,1.,0.));
#1105=DIRECTION('center_axis',(0.,0.,-1.));
#1106=DIRECTION('ref_axis',(-1.,-7.40148683083432E-15,0.));
#1107=DIRECTION('',(-1.,0.,0.));
#1108=DIRECTION('center_axis',(0.,0.,-1.));
#1109=DIRECTION('ref_axis',(0.,-1.,0.));
#1110=DIRECTION('',(0.,-1.,0.));
#1111=DIRECTION('center_axis',(0.,0.,1.));
#1112=DIRECTION('ref_axis',(-1.,0.,0.));
#1113=DIRECTION('center_axis',(0.,0.,1.));
#1114=DIRECTION('ref_axis',(-1.,0.,0.));
#1115=DIRECTION('center_axis',(-1.,0.,0.));
#1116=DIRECTION('ref_axis',(0.,1.,0.));
#1117=DIRECTION('',(0.,1.,0.));
#1118=DIRECTION('',(0.,0.,-1.));
#1119=DIRECTION('center_axis',(1.,0.,6.12323399573677E-17));
#1120=DIRECTION('ref_axis',(6.12323399573677E-17,0.,-1.));
#1121=DIRECTION('',(0.,-1.,0.));
#1122=DIRECTION('',(0.,0.,1.));
#1123=DIRECTION('',(-6.12323399573677E-17,2.426194552292E-30,1.));
#1124=DIRECTION('center_axis',(0.,0.,1.));
#1125=DIRECTION('ref_axis',(1.,0.,0.));
#1126=DIRECTION('center_axis',(0.,0.,-1.));
#1127=DIRECTION('ref_axis',(-1.,0.,0.));
#1128=DIRECTION('',(-0.5,-0.866025403784439,0.));
#1129=DIRECTION('center_axis',(0.,0.,1.));
#1130=DIRECTION('ref_axis',(0.866025403784439,-0.499999999999999,0.));
#1131=DIRECTION('',(0.,1.,0.));
#1132=DIRECTION('center_axis',(0.,0.,-1.));
#1133=DIRECTION('ref_axis',(1.,0.,0.));
#1134=DIRECTION('center_axis',(0.,0.,1.));
#1135=DIRECTION('ref_axis',(0.866025403784442,-0.499999999999994,0.));
#1136=DIRECTION('',(0.5,0.866025403784439,0.));
#1137=DIRECTION('center_axis',(0.,0.,-1.));
#1138=DIRECTION('ref_axis',(-1.,0.,0.));
#1139=DIRECTION('center_axis',(0.,0.,1.));
#1140=DIRECTION('ref_axis',(1.,0.,0.));
#1141=DIRECTION('center_axis',(0.,0.,-1.));
#1142=DIRECTION('ref_axis',(-1.,0.,0.));
#1143=DIRECTION('center_axis',(0.,0.,-1.));
#1144=DIRECTION('ref_axis',(-1.,0.,0.));
#1145=DIRECTION('',(0.,0.,-1.));
#1146=DIRECTION('center_axis',(0.,0.,1.));
#1147=DIRECTION('ref_axis',(0.866025403784442,-0.499999999999994,0.));
#1148=DIRECTION('',(0.,0.,1.));
#1149=DIRECTION('center_axis',(-0.866025403784439,0.5,0.));
#1150=DIRECTION('ref_axis',(-0.5,-0.866025403784439,0.));
#1151=DIRECTION('center_axis',(-4.47525861558356E-16,1.,-2.45359760798665E-30));
#1152=DIRECTION('ref_axis',(-1.,-4.47525861558356E-16,-5.62787313698787E-15));
#1153=DIRECTION('center_axis',(0.,0.,1.));
#1154=DIRECTION('ref_axis',(1.,0.,0.));
#1155=DIRECTION('center_axis',(0.,1.,0.));
#1156=DIRECTION('ref_axis',(0.,0.,-1.));
#1157=DIRECTION('center_axis',(0.,0.,1.));
#1158=DIRECTION('ref_axis',(-0.258819045102525,-0.965925826289067,0.));
#1159=DIRECTION('center_axis',(0.499999999999997,0.86602540378444,0.));
#1160=DIRECTION('ref_axis',(0.86602540378444,-0.499999999999997,0.));
#1161=DIRECTION('center_axis',(0.,0.,-1.));
#1162=DIRECTION('ref_axis',(-0.258819045102525,-0.965925826289067,0.));
#1163=DIRECTION('center_axis',(-0.5,-0.866025403784439,0.));
#1164=DIRECTION('ref_axis',(0.612372435695794,-0.353553390593268,-0.707106781186551));
#1165=DIRECTION('center_axis',(0.500000000000003,0.866025403784437,0.));
#1166=DIRECTION('ref_axis',(0.866025403784437,-0.500000000000003,0.));
#1167=DIRECTION('',(-0.5,-0.866025403784439,0.));
#1168=DIRECTION('',(0.5,0.866025403784439,0.));
#1169=DIRECTION('center_axis',(0.,0.,1.));
#1170=DIRECTION('ref_axis',(1.,0.,0.));
#1171=DIRECTION('center_axis',(0.,0.,-1.));
#1172=DIRECTION('ref_axis',(1.,1.15192792493811E-15,0.));
#1173=DIRECTION('center_axis',(0.,-1.,0.));
#1174=DIRECTION('ref_axis',(-0.707106781186546,0.,-0.707106781186549));
#1175=DIRECTION('',(0.,-1.,0.));
#1176=DIRECTION('',(0.,1.,0.));
#1177=DIRECTION('center_axis',(-0.866025403784439,0.5,0.));
#1178=DIRECTION('ref_axis',(0.5,0.866025403784439,0.));
#1179=DIRECTION('',(0.,0.,-1.));
#1180=DIRECTION('center_axis',(0.,0.,-1.));
#1181=DIRECTION('ref_axis',(0.866025403784439,-0.499999999999999,0.));
#1182=DIRECTION('',(0.,0.,1.));
#1183=DIRECTION('center_axis',(0.,0.,-1.));
#1184=DIRECTION('ref_axis',(-1.,0.,0.));
#1185=DIRECTION('',(0.,-1.,0.));
#1186=DIRECTION('center_axis',(0.,0.,-1.));
#1187=DIRECTION('ref_axis',(0.,-1.,0.));
#1188=DIRECTION('',(-1.,0.,0.));
#1189=DIRECTION('center_axis',(0.,0.,-1.));
#1190=DIRECTION('ref_axis',(-1.,-7.40148683083432E-15,0.));
#1191=DIRECTION('center_axis',(1.,0.,0.));
#1192=DIRECTION('ref_axis',(0.,1.,0.));
#1193=DIRECTION('center_axis',(0.,0.,-1.));
#1194=DIRECTION('ref_axis',(-1.,-7.40148683083432E-15,0.));
#1195=DIRECTION('',(0.,0.,-1.));
#1196=DIRECTION('center_axis',(1.,0.,0.));
#1197=DIRECTION('ref_axis',(0.,-1.,0.));
#1198=DIRECTION('',(0.,0.,-1.));
#1199=DIRECTION('center_axis',(0.,-1.,0.));
#1200=DIRECTION('ref_axis',(-1.,0.,0.));
#1201=DIRECTION('',(0.,0.,-1.));
#1202=DIRECTION('center_axis',(0.,0.,-1.));
#1203=DIRECTION('ref_axis',(0.,-1.,0.));
#1204=CARTESIAN_POINT('',(0.,0.,0.));
#1205=CARTESIAN_POINT('Origin',(11.8304343245502,-149.867687132376,-30.1));
#1206=CARTESIAN_POINT('',(11.8304343245502,-149.867687132376,-30.1));
#1207=CARTESIAN_POINT('',(11.8304343245502,-149.867687132376,-36.1));
#1208=CARTESIAN_POINT('',(11.8304343245502,-149.867687132376,-37.1500000000002));
#1209=CARTESIAN_POINT('',(11.8304343245502,-139.867687132376,-30.1));
#1210=CARTESIAN_POINT('',(11.8304343245502,-149.867687132376,-30.1));
#1211=CARTESIAN_POINT('',(11.8304343245502,-139.867687132376,-36.1));
#1212=CARTESIAN_POINT('',(11.8304343245502,-139.867687132376,-37.1499999999998));
#1213=CARTESIAN_POINT('',(11.8304343245502,-149.867687132376,-36.1));
#1214=CARTESIAN_POINT('Origin',(9.83043432455023,-149.867687132376,-30.1));
#1215=CARTESIAN_POINT('',(9.83043432455023,-149.867687132376,-28.1));
#1216=CARTESIAN_POINT('Origin',(9.83043432455023,-149.867687132376,-30.1));
#1217=CARTESIAN_POINT('',(9.83043432455023,-139.867687132376,-28.1));
#1218=CARTESIAN_POINT('',(9.83043432455023,-149.867687132376,-28.1));
#1219=CARTESIAN_POINT('Origin',(9.83043432455023,-139.867687132376,-30.1));
#1220=CARTESIAN_POINT('Origin',(-11.1695656754498,-149.867687132376,-28.1));
#1221=CARTESIAN_POINT('',(-0.669565675449686,-139.867687132376,-28.1));
#1222=CARTESIAN_POINT('',(-0.669565675449686,-149.867687132376,-28.1));
#1223=CARTESIAN_POINT('',(-0.669565675449685,-74.8676871323762,-28.1));
#1224=CARTESIAN_POINT('',(26.9152171622751,-139.867687132376,-28.1));
#1225=CARTESIAN_POINT('',(-47.7774601916977,-149.867687132376,-28.1));
#1226=CARTESIAN_POINT('Origin',(9.83043432455023,-149.867687132376,-38.1));
#1227=CARTESIAN_POINT('',(-0.669565675449686,-149.867687132376,-38.1));
#1228=CARTESIAN_POINT('',(-0.669565675449686,-139.867687132376,-38.1));
#1229=CARTESIAN_POINT('',(-0.669565675449685,-74.8676871323762,-38.1));
#1230=CARTESIAN_POINT('',(9.83043432455023,-149.867687132376,-38.1));
#1231=CARTESIAN_POINT('',(-37.2774601916977,-149.867687132376,-38.1));
#1232=CARTESIAN_POINT('',(9.83043432455023,-139.867687132376,-38.1));
#1233=CARTESIAN_POINT('',(9.83043432455023,-149.867687132376,-38.1));
#1234=CARTESIAN_POINT('',(37.4152171622751,-139.867687132376,-38.1));
#1235=CARTESIAN_POINT('Origin',(9.83043432455023,-149.867687132376,-36.1));
#1236=CARTESIAN_POINT('Origin',(9.83043432455023,-149.867687132376,-36.1));
#1237=CARTESIAN_POINT('Origin',(9.83043432455023,-139.867687132376,-36.1));
#1238=CARTESIAN_POINT('Origin',(-84.3853547079456,-149.867687132376,-44.2000000000005));
#1239=CARTESIAN_POINT('',(-0.669565675449686,-149.867687132376,-44.2));
#1240=CARTESIAN_POINT('',(-0.669565675449686,-149.867687132376,-37.6500000000005));
#1241=CARTESIAN_POINT('',(83.0462233570466,-149.867687132376,-44.2));
#1242=CARTESIAN_POINT('',(-84.3853547079456,-149.867687132376,-44.2000000000005));
#1243=CARTESIAN_POINT('',(83.0462233570466,-149.867687132376,-18.));
#1244=CARTESIAN_POINT('',(83.0462233570466,-149.867687132376,-44.2));
#1245=CARTESIAN_POINT('',(-0.669565675449686,-149.867687132376,-18.));
#1246=CARTESIAN_POINT('',(22.7731116785233,-149.867687132376,-18.));
#1247=CARTESIAN_POINT('',(-0.669565675449686,-149.867687132376,-37.6500000000005));
#1248=CARTESIAN_POINT('Origin',(-0.669565675449685,0.132312867623785,-31.1000000000005));
#1249=CARTESIAN_POINT('',(-0.669565675449686,-139.867687132376,-44.2));
#1250=CARTESIAN_POINT('',(-0.669565675449686,-139.867687132376,-37.6500000000001));
#1251=CARTESIAN_POINT('',(-0.669565675449684,0.0661564338118925,-44.2));
#1252=CARTESIAN_POINT('Origin',(20.6442998399112,-120.1575787052,-18.));
#1253=CARTESIAN_POINT('',(21.1442998399112,-120.1575787052,-18.));
#1254=CARTESIAN_POINT('Origin',(20.6442998399112,-120.1575787052,-18.));
#1255=CARTESIAN_POINT('',(21.1442998399112,-120.1575787052,-28.));
#1256=CARTESIAN_POINT('',(21.1442998399112,-120.1575787052,-18.));
#1257=CARTESIAN_POINT('Origin',(20.6442998399112,-120.1575787052,-28.));
#1258=CARTESIAN_POINT('Origin',(40.6442998399112,-132.591423128205,-18.));
#1259=CARTESIAN_POINT('',(41.1442998399112,-132.591423128205,-18.));
#1260=CARTESIAN_POINT('Origin',(40.6442998399112,-132.591423128205,-18.));
#1261=CARTESIAN_POINT('',(41.1442998399112,-132.591423128205,-28.));
#1262=CARTESIAN_POINT('',(41.1442998399112,-132.591423128205,-18.));
#1263=CARTESIAN_POINT('Origin',(40.6442998399112,-132.591423128205,-28.));
#1264=CARTESIAN_POINT('Origin',(8.33043432455032,-111.429359580037,-28.));
#1265=CARTESIAN_POINT('',(9.33043432455032,-111.429359580037,-25.5));
#1266=CARTESIAN_POINT('',(8.33043432455032,-112.429359580037,-25.5));
#1267=CARTESIAN_POINT('Origin',(8.33043432455032,-111.429359580037,-25.5));
#1268=CARTESIAN_POINT('',(9.33043432455032,-111.429359580037,-28.));
#1269=CARTESIAN_POINT('',(9.33043432455032,-111.429359580037,-28.));
#1270=CARTESIAN_POINT('',(8.33043432455032,-112.429359580037,-28.));
#1271=CARTESIAN_POINT('Origin',(8.33043432455032,-111.429359580037,-28.));
#1272=CARTESIAN_POINT('',(8.33043432455032,-112.429359580037,-28.));
#1273=CARTESIAN_POINT('Origin',(-10.6695656754497,-112.429359580037,-28.));
#1274=CARTESIAN_POINT('',(-0.669565675449686,-112.429359580037,-28.));
#1275=CARTESIAN_POINT('',(-5.33478283774315,-112.429359580037,-28.));
#1276=CARTESIAN_POINT('',(-0.669565675449686,-112.429359580037,-25.5));
#1277=CARTESIAN_POINT('',(-0.669565675449685,-112.429359580037,-29.5500000000003));
#1278=CARTESIAN_POINT('',(9.33043432455032,-112.429359580037,-25.5));
#1279=CARTESIAN_POINT('Origin',(8.33043432455032,-53.4293595800374,-28.));
#1280=CARTESIAN_POINT('',(8.33043432455032,-52.4293595800374,-25.5));
#1281=CARTESIAN_POINT('',(9.33043432455032,-53.4293595800374,-25.5));
#1282=CARTESIAN_POINT('Origin',(8.33043432455032,-53.4293595800374,-25.5));
#1283=CARTESIAN_POINT('',(8.33043432455032,-52.4293595800374,-28.));
#1284=CARTESIAN_POINT('',(8.33043432455032,-52.4293595800374,-28.));
#1285=CARTESIAN_POINT('',(9.33043432455032,-53.4293595800374,-28.));
#1286=CARTESIAN_POINT('Origin',(8.33043432455032,-53.4293595800374,-28.));
#1287=CARTESIAN_POINT('',(9.33043432455032,-53.4293595800374,-28.));
#1288=CARTESIAN_POINT('Origin',(9.33043432455032,-112.429359580037,-28.));
#1289=CARTESIAN_POINT('',(9.33043432455032,-52.4293595800374,-25.5));
#1290=CARTESIAN_POINT('',(9.33043432455032,-0.589679790034445,-28.));
#1291=CARTESIAN_POINT('Origin',(9.33043432455032,-52.4293595800374,-28.));
#1292=CARTESIAN_POINT('',(-0.669565675449685,-52.4293595800374,-25.5));
#1293=CARTESIAN_POINT('',(-10.6695656754497,-52.4293595800374,-25.5));
#1294=CARTESIAN_POINT('',(-0.669565675449685,-52.4293595800374,-28.));
#1295=CARTESIAN_POINT('',(-0.669565675449685,-52.4293595800374,-29.5500000000003));
#1296=CARTESIAN_POINT('',(4.66521716225684,-52.4293595800374,-28.));
#1297=CARTESIAN_POINT('Origin',(-0.669565675449681,-82.4293595800374,-25.5));
#1298=CARTESIAN_POINT('',(-0.669565675449685,-41.1485233562068,-25.5));
#1299=CARTESIAN_POINT('Origin',(-3.66284780284332E-11,111.249999999968,
-28.));
#1300=CARTESIAN_POINT('',(-0.669565675449685,-24.9910320276986,-28.));
#1301=CARTESIAN_POINT('',(-0.669565675449685,55.6911564337961,-28.));
#1302=CARTESIAN_POINT('',(24.9996498636123,0.132312867623861,-28.));
#1303=CARTESIAN_POINT('Origin',(-3.66640051652212E-11,-6.30251406619209E-11,
-28.));
#1304=CARTESIAN_POINT('',(65.,0.132312867623865,-28.));
#1305=CARTESIAN_POINT('',(-0.334782837743122,0.132312867623856,-28.));
#1306=CARTESIAN_POINT('',(64.9999999999999,-139.867687132376,-27.9999999999996));
#1307=CARTESIAN_POINT('',(65.,79.9999999999926,-28.));
#1308=CARTESIAN_POINT('',(-0.669565675449686,-139.867687132376,-28.));
#1309=CARTESIAN_POINT('',(32.4999999999817,-139.867687132376,-28.));
#1310=CARTESIAN_POINT('',(-0.669565675449685,55.6911564337961,-28.));
#1311=CARTESIAN_POINT('Origin',(-0.669565675449615,0.132312867623861,-31.1000000000005));
#1312=CARTESIAN_POINT('',(171.762012389542,0.132312867623862,-18.));
#1313=CARTESIAN_POINT('',(166.488509697645,0.132312867623879,-18.));
#1314=CARTESIAN_POINT('',(-19.0847828377248,0.132312867623862,-18.));
#1315=CARTESIAN_POINT('',(171.762012389542,0.13231286762386,-44.2));
#1316=CARTESIAN_POINT('',(171.762012389542,0.13231286762386,-44.2));
#1317=CARTESIAN_POINT('',(166.488509697645,0.132312867623879,-44.2));
#1318=CARTESIAN_POINT('',(-0.334782837724807,0.13231286762386,-44.2));
#1319=CARTESIAN_POINT('',(166.488509697645,0.132312867623862,-18.));
#1320=CARTESIAN_POINT('Origin',(-0.669565675449615,0.132312867623861,-31.1000000000005));
#1321=CARTESIAN_POINT('',(160.882821705113,0.132312867623861,-32.2));
#1322=CARTESIAN_POINT('',(158.881653478418,0.132312867623861,-34.2));
#1323=CARTESIAN_POINT('Ctrl Pts',(160.882821705113,0.132312867623861,-32.2));
#1324=CARTESIAN_POINT('Ctrl Pts',(160.882821705113,0.132312867623861,-32.4467876439755));
#1325=CARTESIAN_POINT('Ctrl Pts',(160.825035272142,0.132312867623861,-32.7372402072623));
#1326=CARTESIAN_POINT('Ctrl Pts',(160.636107446638,0.132312867623861,-33.1932734207663));
#1327=CARTESIAN_POINT('Ctrl Pts',(160.471520563793,0.132312867623861,-33.4395342720687));
#1328=CARTESIAN_POINT('Ctrl Pts',(160.122349297701,0.132312867623861,-33.788628699682));
#1329=CARTESIAN_POINT('Ctrl Pts',(159.875957726179,0.132312867623861,-33.9532037414565));
#1330=CARTESIAN_POINT('Ctrl Pts',(159.419543688333,0.132312867623861,-34.1422013044193));
#1331=CARTESIAN_POINT('Ctrl Pts',(159.128734552787,0.132312867623861,-34.2));
#1332=CARTESIAN_POINT('Ctrl Pts',(158.881653478418,0.132312867623861,-34.2));
#1333=CARTESIAN_POINT('',(160.882821705113,0.132312867623862,-18.));
#1334=CARTESIAN_POINT('',(160.882821705113,0.132312867623862,-18.));
#1335=CARTESIAN_POINT('',(165.488509697645,0.132312867623862,-18.));
#1336=CARTESIAN_POINT('',(-19.0847828377248,0.132312867623862,-18.));
#1337=CARTESIAN_POINT('',(165.488509697645,0.13231286762386,-44.2));
#1338=CARTESIAN_POINT('',(165.488509697645,0.132312867623862,-18.));
#1339=CARTESIAN_POINT('',(102.,0.132312867623861,-44.2));
#1340=CARTESIAN_POINT('',(-0.334782837724807,0.13231286762386,-44.2));
#1341=CARTESIAN_POINT('',(102.,0.132312867623861,-34.2));
#1342=CARTESIAN_POINT('',(102.,0.132312867623861,-32.6500000000003));
#1343=CARTESIAN_POINT('',(-0.334782837724807,0.132312867623861,-34.2));
#1344=CARTESIAN_POINT('Origin',(-0.669565675449615,0.132312867623861,-31.1000000000005));
#1345=CARTESIAN_POINT('',(77.,0.132312867623865,-34.2));
#1346=CARTESIAN_POINT('',(75.,0.132312867623865,-32.2));
#1347=CARTESIAN_POINT('Origin',(77.,0.132312867623865,-32.2));
#1348=CARTESIAN_POINT('',(77.9999999999997,0.132312867623861,-34.2));
#1349=CARTESIAN_POINT('',(-0.334782837724807,0.132312867623861,-34.2));
#1350=CARTESIAN_POINT('',(77.9999999999997,0.13231286762386,-44.2));
#1351=CARTESIAN_POINT('',(77.9999999999997,0.132312867623862,-32.6500000000003));
#1352=CARTESIAN_POINT('',(65.,0.132312867623865,-44.2));
#1353=CARTESIAN_POINT('',(-0.334782837724807,0.13231286762386,-44.2));
#1354=CARTESIAN_POINT('',(65.,0.132312867623865,-73.0500000000003));
#1355=CARTESIAN_POINT('',(24.9996498636123,0.132312867623862,-18.));
#1356=CARTESIAN_POINT('',(24.9996498636123,0.132312867623856,-115.));
#1357=CARTESIAN_POINT('',(75.,0.132312867623856,-18.));
#1358=CARTESIAN_POINT('',(-19.0847828377248,0.132312867623862,-18.));
#1359=CARTESIAN_POINT('',(75.,0.132312867623856,-32.6500000000003));
#1360=CARTESIAN_POINT('Origin',(166.762012389542,0.13231286762383,-44.2));
#1361=CARTESIAN_POINT('',(171.092139408465,-2.36768713237614,-18.));
#1362=CARTESIAN_POINT('Origin',(166.762012389542,0.13231286762383,-18.));
#1363=CARTESIAN_POINT('',(171.092139408465,-2.36768713237614,-44.2));
#1364=CARTESIAN_POINT('',(171.092139408465,-2.36768713237614,-44.2));
#1365=CARTESIAN_POINT('Origin',(166.762012389542,0.13231286762383,-44.2));
#1366=CARTESIAN_POINT('Origin',(155.884572681199,-1.77635683940025E-14,
-18.));
#1367=CARTESIAN_POINT('',(160.214699700121,-2.50000000000002,-32.2));
#1368=CARTESIAN_POINT('Origin',(155.884572681199,-1.77635683940025E-14,
-32.2));
#1369=CARTESIAN_POINT('',(160.214699700121,-2.5,-18.));
#1370=CARTESIAN_POINT('',(160.214699700121,-2.50000000000002,-18.));
#1371=CARTESIAN_POINT('Origin',(155.884572681199,-1.77635683940025E-14,
-18.));
#1372=CARTESIAN_POINT('Origin',(65.,-160.000000000015,-115.));
#1373=CARTESIAN_POINT('',(65.,-139.867687132376,-44.1999999999996));
#1374=CARTESIAN_POINT('',(65.,-53.7500008009374,-44.2));
#1375=CARTESIAN_POINT('',(65.,-139.867687132376,-79.5999999999998));
#1376=CARTESIAN_POINT('Origin',(0.,0.,-44.2));
#1377=CARTESIAN_POINT('',(87.3763503759688,-147.367687132376,-44.2));
#1378=CARTESIAN_POINT('',(150.218241283619,-38.5223392366248,-44.2));
#1379=CARTESIAN_POINT('Origin',(83.0462233570466,-144.867687132376,-44.2));
#1380=CARTESIAN_POINT('',(77.2727206651497,-139.867687132376,-44.1999999999996));
#1381=CARTESIAN_POINT('',(77.9999999999997,-9.50000000077291,-44.2));
#1382=CARTESIAN_POINT('',(77.9999999999997,0.249999999227093,-44.2));
#1383=CARTESIAN_POINT('',(79.4999999999997,-11.0000000007729,-44.2));
#1384=CARTESIAN_POINT('Origin',(79.4999999999997,-9.5000000007729,-44.2));
#1385=CARTESIAN_POINT('',(100.5,-11.0000000007728,-44.2));
#1386=CARTESIAN_POINT('',(95.2499999999998,-11.0000000007728,-44.2));
#1387=CARTESIAN_POINT('',(102.,-9.50000000077283,-44.2));
#1388=CARTESIAN_POINT('Origin',(100.5,-9.50000000077283,-44.2));
#1389=CARTESIAN_POINT('',(102.,19.7499999992271,-44.2));
#1390=CARTESIAN_POINT('Origin',(165.988509697645,0.132312867623878,-44.2));
#1391=CARTESIAN_POINT('',(83.1594720110982,-144.197814151298,-44.2));
#1392=CARTESIAN_POINT('Origin',(82.6594720110982,-144.197814151298,-44.2));
#1393=CARTESIAN_POINT('Origin',(77.9999999999997,-9.50000000077291,-34.2));
#1394=CARTESIAN_POINT('',(77.9999999999997,-9.50000000077291,-34.2));
#1395=CARTESIAN_POINT('',(77.9999999999997,-4.75000000038645,-34.2));
#1396=CARTESIAN_POINT('',(77.9999999999997,-9.50000000077291,-34.2));
#1397=CARTESIAN_POINT('Origin',(-0.669565675449685,0.132312867623785,-31.1000000000005));
#1398=CARTESIAN_POINT('',(-0.669565675449686,-24.9910320276986,-18.));
#1399=CARTESIAN_POINT('',(-0.669565675449686,0.0661564338118925,-18.));
#1400=CARTESIAN_POINT('',(-0.66956567544968,-24.9910320276986,-115.));
#1401=CARTESIAN_POINT('',(-0.669565675449686,-139.867687132376,-37.6500000000001));
#1402=CARTESIAN_POINT('Origin',(-37.5,0.,-18.));
#1403=CARTESIAN_POINT('Origin',(165.988509697645,0.132312867623878,-18.));
#1404=CARTESIAN_POINT('',(84.3301270189222,-133.93593539449,-18.));
#1405=CARTESIAN_POINT('',(80.8290376865476,-140.,-18.));
#1406=CARTESIAN_POINT('',(75.,-131.43593539449,-18.));
#1407=CARTESIAN_POINT('Origin',(80.,-131.43593539449,-18.));
#1408=CARTESIAN_POINT('',(75.,100.,-18.));
#1409=CARTESIAN_POINT('Origin',(-3.66640051652212E-11,-6.30251406619209E-11,
-18.));
#1410=CARTESIAN_POINT('',(87.3763503759688,-147.367687132376,-18.));
#1411=CARTESIAN_POINT('Origin',(83.0462233570466,-144.867687132376,-18.));
#1412=CARTESIAN_POINT('',(145.530741283619,-46.6413273971039,-18.));
#1413=CARTESIAN_POINT('',(83.1594720110982,-144.197814151298,-18.));
#1414=CARTESIAN_POINT('Origin',(82.6594720110982,-144.197814151298,-18.));
#1415=CARTESIAN_POINT('Origin',(-3.66640051652212E-11,-6.30251406619209E-11,
-115.));
#1416=CARTESIAN_POINT('Origin',(165.988509697645,0.132312867623878,-18.));
#1417=CARTESIAN_POINT('Origin',(82.6594720110982,-144.197814151298,-18.));
#1418=CARTESIAN_POINT('',(83.1594720110982,-144.197814151298,-18.));
#1419=CARTESIAN_POINT('Origin',(83.0462233570466,-144.867687132376,-44.2));
#1420=CARTESIAN_POINT('',(87.3763503759688,-147.367687132376,-44.2));
#1421=CARTESIAN_POINT('Origin',(171.092139408465,-2.36768713237614,-44.2));
#1422=CARTESIAN_POINT('Origin',(65.,-139.867687132376,-44.1999999999996));
#1423=CARTESIAN_POINT('Origin',(80.,-131.43593539449,-32.2));
#1424=CARTESIAN_POINT('',(77.,-131.43593539449,-34.2));
#1425=CARTESIAN_POINT('',(75.,-131.43593539449,-32.2));
#1426=CARTESIAN_POINT('Origin',(77.,-131.43593539449,-32.2));
#1427=CARTESIAN_POINT('',(84.3301270189222,-133.93593539449,-32.2));
#1428=CARTESIAN_POINT('Origin',(80.,-131.43593539449,-32.2));
#1429=CARTESIAN_POINT('',(82.5980762113533,-132.93593539449,-34.2));
#1430=CARTESIAN_POINT('Origin',(82.5980762113533,-132.93593539449,-32.2));
#1431=CARTESIAN_POINT('Origin',(80.,-131.43593539449,-34.2));
#1432=CARTESIAN_POINT('Origin',(99.3042463006156,-104.,-32.2));
#1433=CARTESIAN_POINT('',(158.482648892552,-1.50000000000002,-34.2));
#1434=CARTESIAN_POINT('Origin',(158.482648892552,-1.50000000000002,-32.2));
#1435=CARTESIAN_POINT('',(99.3042463006156,-104.,-34.2));
#1436=CARTESIAN_POINT('',(101.036297108184,-105.,-32.2));
#1437=CARTESIAN_POINT('Origin',(155.884572681199,-1.77635683940025E-14,
-32.2));
#1438=CARTESIAN_POINT('Origin',(155.884572681199,-1.77635683940025E-14,
-34.2));
#1439=CARTESIAN_POINT('Origin',(77.,-53.75,-32.2));
#1440=CARTESIAN_POINT('',(75.,-53.75,-32.2));
#1441=CARTESIAN_POINT('',(77.,-53.75,-34.2));
#1442=CARTESIAN_POINT('Origin',(80.8290376865476,-140.,-18.));
#1443=CARTESIAN_POINT('',(84.3301270189222,-133.93593539449,-18.));
#1444=CARTESIAN_POINT('Origin',(80.,-131.43593539449,-18.));
#1445=CARTESIAN_POINT('',(75.,-131.43593539449,-18.));
#1446=CARTESIAN_POINT('Origin',(0.,0.,-34.2));
#1447=CARTESIAN_POINT('',(102.,-9.50000000077283,-34.2));
#1448=CARTESIAN_POINT('',(102.,14.7499999996135,-34.2));
#1449=CARTESIAN_POINT('',(100.5,-11.0000000007728,-34.2));
#1450=CARTESIAN_POINT('Origin',(100.5,-9.50000000077283,-34.2));
#1451=CARTESIAN_POINT('',(79.4999999999997,-11.0000000007729,-34.2));
#1452=CARTESIAN_POINT('',(50.2499999999999,-11.0000000007728,-34.2));
#1453=CARTESIAN_POINT('Origin',(79.4999999999997,-9.5000000007729,-34.2));
#1454=CARTESIAN_POINT('Origin',(75.,-107.5,-34.2));
#1455=CARTESIAN_POINT('Origin',(79.4999999999997,-9.5000000007729,-34.2));
#1456=CARTESIAN_POINT('',(79.4999999999997,-11.0000000007729,-34.2));
#1457=CARTESIAN_POINT('Origin',(102.,29.4999999992271,-34.2));
#1458=CARTESIAN_POINT('',(102.,-9.50000000077283,-34.2));
#1459=CARTESIAN_POINT('Origin',(100.5,-11.0000000007728,-34.2));
#1460=CARTESIAN_POINT('',(100.5,-11.0000000007728,-34.2));
#1461=CARTESIAN_POINT('Origin',(100.5,-9.50000000077283,-34.2));
#1462=UNCERTAINTY_MEASURE_WITH_UNIT(LENGTH_MEASURE(0.01),#1466,
'DISTANCE_ACCURACY_VALUE',
'Maximum model space distance between geometric entities at asserted c
onnectivities');
#1463=UNCERTAINTY_MEASURE_WITH_UNIT(LENGTH_MEASURE(0.01),#1466,
'DISTANCE_ACCURACY_VALUE',
'Maximum model space distance between geometric entities at asserted c
onnectivities');
#1464=(
GEOMETRIC_REPRESENTATION_CONTEXT(3)
GLOBAL_UNCERTAINTY_ASSIGNED_CONTEXT((#1462))
GLOBAL_UNIT_ASSIGNED_CONTEXT((#1466,#1468,#1469))
REPRESENTATION_CONTEXT('','3D')
);
#1465=(
GEOMETRIC_REPRESENTATION_CONTEXT(3)
GLOBAL_UNCERTAINTY_ASSIGNED_CONTEXT((#1463))
GLOBAL_UNIT_ASSIGNED_CONTEXT((#1466,#1468,#1469))
REPRESENTATION_CONTEXT('','3D')
);
#1466=(
LENGTH_UNIT()
NAMED_UNIT(*)
SI_UNIT(.MILLI.,.METRE.)
);
#1467=(
LENGTH_UNIT()
NAMED_UNIT(*)
SI_UNIT($,.METRE.)
);
#1468=(
NAMED_UNIT(*)
PLANE_ANGLE_UNIT()
SI_UNIT($,.RADIAN.)
);
#1469=(
NAMED_UNIT(*)
SI_UNIT($,.STERADIAN.)
SOLID_ANGLE_UNIT()
);
#1470=SHAPE_DEFINITION_REPRESENTATION(#1471,#1472);
#1471=PRODUCT_DEFINITION_SHAPE('',$,#1474);
#1472=SHAPE_REPRESENTATION('',(#875),#1464);
#1473=PRODUCT_DEFINITION_CONTEXT('part definition',#1478,'design');
#1474=PRODUCT_DEFINITION('2026-06-20-16-29-19-569','FusionComponent',#1475,
#1473);
#1475=PRODUCT_DEFINITION_FORMATION('',$,#1480);
#1476=PRODUCT_RELATED_PRODUCT_CATEGORY('FusionComponent',
'FusionComponent',(#1480));
#1477=APPLICATION_PROTOCOL_DEFINITION('international standard',
'automotive_design',2009,#1478);
#1478=APPLICATION_CONTEXT(
'Core Data for Automotive Mechanical Design Process');
#1479=PRODUCT_CONTEXT('part definition',#1478,'mechanical');
#1480=PRODUCT('2026-06-20-16-29-19-569','FusionComponent',$,(#1479));
#1481=PRESENTATION_STYLE_ASSIGNMENT((#1482));
#1482=SURFACE_STYLE_USAGE(.BOTH.,#1483);
#1483=SURFACE_SIDE_STYLE('',(#1484));
#1484=SURFACE_STYLE_FILL_AREA(#1485);
#1485=FILL_AREA_STYLE('Steel - Satin',(#1486));
#1486=FILL_AREA_STYLE_COLOUR('Steel - Satin',#1487);
#1487=COLOUR_RGB('Steel - Satin',0.627450980392157,0.627450980392157,0.627450980392157);
ENDSEC;
END-ISO-10303-21;
