ISO-10303-21;
HEADER;
/* Generated by software containing ST-Developer
 * from STEP Tools, Inc. (www.steptools.com) 
 */

FILE_DESCRIPTION(
/* description */ (''),
/* implementation_level */ '2;1');

FILE_NAME(
/* name */ 'Pi 5 Stack spacer x4.step',
/* time_stamp */ '2026-06-20T12:29:24-05:00',
/* author */ (''),
/* organization */ (''),
/* preprocessor_version */ 'ST-DEVELOPER v20.1',
/* originating_system */ 'Autodesk Translation Framework v15.8.0.0',
/* authorisation */ '');

FILE_SCHEMA (('AUTOMOTIVE_DESIGN { 1 0 10303 214 3 1 1 }'));
ENDSEC;

DATA;
#10=MECHANICAL_DESIGN_GEOMETRIC_PRESENTATION_REPRESENTATION('',(#208,#209,
#210,#211,#212,#213,#214,#215,#216,#217,#218,#219,#220),#390);
#11=SHAPE_REPRESENTATION_RELATIONSHIP('SRR','None',#397,#12);
#12=ADVANCED_BREP_SHAPE_REPRESENTATION('',(#13),#389);
#13=MANIFOLD_SOLID_BREP('Body1',#234);
#14=FACE_BOUND('',#43,.T.);
#15=FACE_BOUND('',#45,.T.);
#16=FACE_BOUND('',#54,.T.);
#17=FACE_BOUND('',#57,.T.);
#18=PLANE('',#251);
#19=PLANE('',#253);
#20=PLANE('',#257);
#21=PLANE('',#258);
#22=PLANE('',#259);
#23=PLANE('',#260);
#24=PLANE('',#261);
#25=PLANE('',#262);
#26=PLANE('',#263);
#27=PLANE('',#266);
#28=FACE_OUTER_BOUND('',#41,.T.);
#29=FACE_OUTER_BOUND('',#42,.T.);
#30=FACE_OUTER_BOUND('',#44,.T.);
#31=FACE_OUTER_BOUND('',#46,.T.);
#32=FACE_OUTER_BOUND('',#47,.T.);
#33=FACE_OUTER_BOUND('',#48,.T.);
#34=FACE_OUTER_BOUND('',#49,.T.);
#35=FACE_OUTER_BOUND('',#50,.T.);
#36=FACE_OUTER_BOUND('',#51,.T.);
#37=FACE_OUTER_BOUND('',#52,.T.);
#38=FACE_OUTER_BOUND('',#53,.T.);
#39=FACE_OUTER_BOUND('',#55,.T.);
#40=FACE_OUTER_BOUND('',#56,.T.);
#41=EDGE_LOOP('',(#151,#152,#153,#154));
#42=EDGE_LOOP('',(#155));
#43=EDGE_LOOP('',(#156));
#44=EDGE_LOOP('',(#157,#158,#159,#160,#161,#162));
#45=EDGE_LOOP('',(#163));
#46=EDGE_LOOP('',(#164,#165,#166,#167));
#47=EDGE_LOOP('',(#168,#169,#170,#171));
#48=EDGE_LOOP('',(#172,#173,#174,#175));
#49=EDGE_LOOP('',(#176,#177,#178,#179));
#50=EDGE_LOOP('',(#180,#181,#182,#183));
#51=EDGE_LOOP('',(#184,#185,#186,#187));
#52=EDGE_LOOP('',(#188,#189,#190,#191));
#53=EDGE_LOOP('',(#192,#193,#194,#195,#196,#197));
#54=EDGE_LOOP('',(#198));
#55=EDGE_LOOP('',(#199,#200,#201,#202));
#56=EDGE_LOOP('',(#203));
#57=EDGE_LOOP('',(#204));
#58=LINE('',#333,#79);
#59=LINE('',#341,#80);
#60=LINE('',#343,#81);
#61=LINE('',#345,#82);
#62=LINE('',#347,#83);
#63=LINE('',#349,#84);
#64=LINE('',#350,#85);
#65=LINE('',#355,#86);
#66=LINE('',#359,#87);
#67=LINE('',#361,#88);
#68=LINE('',#362,#89);
#69=LINE('',#365,#90);
#70=LINE('',#366,#91);
#71=LINE('',#369,#92);
#72=LINE('',#370,#93);
#73=LINE('',#373,#94);
#74=LINE('',#374,#95);
#75=LINE('',#377,#96);
#76=LINE('',#378,#97);
#77=LINE('',#380,#98);
#78=LINE('',#385,#99);
#79=VECTOR('',#273,1.5);
#80=VECTOR('',#282,10.);
#81=VECTOR('',#283,10.);
#82=VECTOR('',#284,9.99999999999999);
#83=VECTOR('',#285,10.);
#84=VECTOR('',#286,10.);
#85=VECTOR('',#287,10.);
#86=VECTOR('',#292,1.5);
#87=VECTOR('',#297,10.);
#88=VECTOR('',#298,10.);
#89=VECTOR('',#299,10.);
#90=VECTOR('',#302,9.99999999999999);
#91=VECTOR('',#303,10.);
#92=VECTOR('',#306,10.);
#93=VECTOR('',#307,10.);
#94=VECTOR('',#310,10.);
#95=VECTOR('',#311,10.);
#96=VECTOR('',#314,10.);
#97=VECTOR('',#315,10.);
#98=VECTOR('',#318,10.);
#99=VECTOR('',#325,0.8);
#100=CIRCLE('',#249,1.5);
#101=CIRCLE('',#250,1.5);
#102=CIRCLE('',#252,0.8);
#103=CIRCLE('',#255,1.5);
#104=CIRCLE('',#256,1.5);
#105=CIRCLE('',#265,0.8);
#106=VERTEX_POINT('',#330);
#107=VERTEX_POINT('',#332);
#108=VERTEX_POINT('',#336);
#109=VERTEX_POINT('',#339);
#110=VERTEX_POINT('',#340);
#111=VERTEX_POINT('',#342);
#112=VERTEX_POINT('',#344);
#113=VERTEX_POINT('',#346);
#114=VERTEX_POINT('',#348);
#115=VERTEX_POINT('',#352);
#116=VERTEX_POINT('',#354);
#117=VERTEX_POINT('',#358);
#118=VERTEX_POINT('',#360);
#119=VERTEX_POINT('',#364);
#120=VERTEX_POINT('',#368);
#121=VERTEX_POINT('',#372);
#122=VERTEX_POINT('',#376);
#123=VERTEX_POINT('',#383);
#124=EDGE_CURVE('',#106,#106,#100,.T.);
#125=EDGE_CURVE('',#106,#107,#58,.T.);
#126=EDGE_CURVE('',#107,#107,#101,.T.);
#127=EDGE_CURVE('',#108,#108,#102,.T.);
#128=EDGE_CURVE('',#109,#110,#59,.T.);
#129=EDGE_CURVE('',#110,#111,#60,.T.);
#130=EDGE_CURVE('',#111,#112,#61,.T.);
#131=EDGE_CURVE('',#112,#113,#62,.T.);
#132=EDGE_CURVE('',#113,#114,#63,.T.);
#133=EDGE_CURVE('',#114,#109,#64,.T.);
#134=EDGE_CURVE('',#115,#115,#103,.T.);
#135=EDGE_CURVE('',#115,#116,#65,.T.);
#136=EDGE_CURVE('',#116,#116,#104,.T.);
#137=EDGE_CURVE('',#117,#110,#66,.T.);
#138=EDGE_CURVE('',#118,#117,#67,.T.);
#139=EDGE_CURVE('',#111,#118,#68,.T.);
#140=EDGE_CURVE('',#119,#118,#69,.T.);
#141=EDGE_CURVE('',#112,#119,#70,.T.);
#142=EDGE_CURVE('',#120,#119,#71,.T.);
#143=EDGE_CURVE('',#113,#120,#72,.T.);
#144=EDGE_CURVE('',#121,#120,#73,.T.);
#145=EDGE_CURVE('',#114,#121,#74,.T.);
#146=EDGE_CURVE('',#122,#121,#75,.T.);
#147=EDGE_CURVE('',#109,#122,#76,.T.);
#148=EDGE_CURVE('',#117,#122,#77,.T.);
#149=EDGE_CURVE('',#123,#123,#105,.T.);
#150=EDGE_CURVE('',#123,#108,#78,.T.);
#151=ORIENTED_EDGE('',*,*,#124,.F.);
#152=ORIENTED_EDGE('',*,*,#125,.T.);
#153=ORIENTED_EDGE('',*,*,#126,.T.);
#154=ORIENTED_EDGE('',*,*,#125,.F.);
#155=ORIENTED_EDGE('',*,*,#126,.F.);
#156=ORIENTED_EDGE('',*,*,#127,.F.);
#157=ORIENTED_EDGE('',*,*,#128,.T.);
#158=ORIENTED_EDGE('',*,*,#129,.T.);
#159=ORIENTED_EDGE('',*,*,#130,.T.);
#160=ORIENTED_EDGE('',*,*,#131,.T.);
#161=ORIENTED_EDGE('',*,*,#132,.T.);
#162=ORIENTED_EDGE('',*,*,#133,.T.);
#163=ORIENTED_EDGE('',*,*,#124,.T.);
#164=ORIENTED_EDGE('',*,*,#134,.F.);
#165=ORIENTED_EDGE('',*,*,#135,.T.);
#166=ORIENTED_EDGE('',*,*,#136,.F.);
#167=ORIENTED_EDGE('',*,*,#135,.F.);
#168=ORIENTED_EDGE('',*,*,#137,.F.);
#169=ORIENTED_EDGE('',*,*,#138,.F.);
#170=ORIENTED_EDGE('',*,*,#139,.F.);
#171=ORIENTED_EDGE('',*,*,#129,.F.);
#172=ORIENTED_EDGE('',*,*,#139,.T.);
#173=ORIENTED_EDGE('',*,*,#140,.F.);
#174=ORIENTED_EDGE('',*,*,#141,.F.);
#175=ORIENTED_EDGE('',*,*,#130,.F.);
#176=ORIENTED_EDGE('',*,*,#141,.T.);
#177=ORIENTED_EDGE('',*,*,#142,.F.);
#178=ORIENTED_EDGE('',*,*,#143,.F.);
#179=ORIENTED_EDGE('',*,*,#131,.F.);
#180=ORIENTED_EDGE('',*,*,#143,.T.);
#181=ORIENTED_EDGE('',*,*,#144,.F.);
#182=ORIENTED_EDGE('',*,*,#145,.F.);
#183=ORIENTED_EDGE('',*,*,#132,.F.);
#184=ORIENTED_EDGE('',*,*,#145,.T.);
#185=ORIENTED_EDGE('',*,*,#146,.F.);
#186=ORIENTED_EDGE('',*,*,#147,.F.);
#187=ORIENTED_EDGE('',*,*,#133,.F.);
#188=ORIENTED_EDGE('',*,*,#147,.T.);
#189=ORIENTED_EDGE('',*,*,#148,.F.);
#190=ORIENTED_EDGE('',*,*,#137,.T.);
#191=ORIENTED_EDGE('',*,*,#128,.F.);
#192=ORIENTED_EDGE('',*,*,#148,.T.);
#193=ORIENTED_EDGE('',*,*,#146,.T.);
#194=ORIENTED_EDGE('',*,*,#144,.T.);
#195=ORIENTED_EDGE('',*,*,#142,.T.);
#196=ORIENTED_EDGE('',*,*,#140,.T.);
#197=ORIENTED_EDGE('',*,*,#138,.T.);
#198=ORIENTED_EDGE('',*,*,#134,.T.);
#199=ORIENTED_EDGE('',*,*,#149,.F.);
#200=ORIENTED_EDGE('',*,*,#150,.T.);
#201=ORIENTED_EDGE('',*,*,#127,.T.);
#202=ORIENTED_EDGE('',*,*,#150,.F.);
#203=ORIENTED_EDGE('',*,*,#136,.T.);
#204=ORIENTED_EDGE('',*,*,#149,.T.);
#205=CYLINDRICAL_SURFACE('',#248,1.5);
#206=CYLINDRICAL_SURFACE('',#254,1.5);
#207=CYLINDRICAL_SURFACE('',#264,0.8);
#208=STYLED_ITEM('',(#407),#221);
#209=STYLED_ITEM('',(#407),#222);
#210=STYLED_ITEM('',(#407),#223);
#211=STYLED_ITEM('',(#407),#225);
#212=STYLED_ITEM('',(#407),#226);
#213=STYLED_ITEM('',(#407),#227);
#214=STYLED_ITEM('',(#407),#228);
#215=STYLED_ITEM('',(#407),#229);
#216=STYLED_ITEM('',(#407),#230);
#217=STYLED_ITEM('',(#407),#231);
#218=STYLED_ITEM('',(#407),#232);
#219=STYLED_ITEM('',(#407),#233);
#220=STYLED_ITEM('',(#406),#13);
#221=ADVANCED_FACE('',(#28),#205,.F.);
#222=ADVANCED_FACE('',(#29,#14),#18,.T.);
#223=ADVANCED_FACE('',(#30,#15),#19,.T.);
#224=ADVANCED_FACE('',(#31),#206,.F.);
#225=ADVANCED_FACE('',(#32),#20,.T.);
#226=ADVANCED_FACE('',(#33),#21,.T.);
#227=ADVANCED_FACE('',(#34),#22,.T.);
#228=ADVANCED_FACE('',(#35),#23,.T.);
#229=ADVANCED_FACE('',(#36),#24,.T.);
#230=ADVANCED_FACE('',(#37),#25,.T.);
#231=ADVANCED_FACE('',(#38,#16),#26,.F.);
#232=ADVANCED_FACE('',(#39),#207,.F.);
#233=ADVANCED_FACE('',(#40,#17),#27,.F.);
#234=CLOSED_SHELL('',(#221,#222,#223,#224,#225,#226,#227,#228,#229,#230,
#231,#232,#233));
#235=DERIVED_UNIT_ELEMENT(#237,1.);
#236=DERIVED_UNIT_ELEMENT(#392,-3.);
#237=(
MASS_UNIT()
NAMED_UNIT(*)
SI_UNIT(.KILO.,.GRAM.)
);
#238=DERIVED_UNIT((#235,#236));
#239=MEASURE_REPRESENTATION_ITEM('density measure',
POSITIVE_RATIO_MEASURE(7850.),#238);
#240=PROPERTY_DEFINITION_REPRESENTATION(#245,#242);
#241=PROPERTY_DEFINITION_REPRESENTATION(#246,#243);
#242=REPRESENTATION('material name',(#244),#389);
#243=REPRESENTATION('density',(#239),#389);
#244=DESCRIPTIVE_REPRESENTATION_ITEM('Steel','Steel');
#245=PROPERTY_DEFINITION('material property','material name',#399);
#246=PROPERTY_DEFINITION('material property','density of part',#399);
#247=AXIS2_PLACEMENT_3D('',#328,#267,#268);
#248=AXIS2_PLACEMENT_3D('',#329,#269,#270);
#249=AXIS2_PLACEMENT_3D('',#331,#271,#272);
#250=AXIS2_PLACEMENT_3D('',#334,#274,#275);
#251=AXIS2_PLACEMENT_3D('',#335,#276,#277);
#252=AXIS2_PLACEMENT_3D('',#337,#278,#279);
#253=AXIS2_PLACEMENT_3D('',#338,#280,#281);
#254=AXIS2_PLACEMENT_3D('',#351,#288,#289);
#255=AXIS2_PLACEMENT_3D('',#353,#290,#291);
#256=AXIS2_PLACEMENT_3D('',#356,#293,#294);
#257=AXIS2_PLACEMENT_3D('',#357,#295,#296);
#258=AXIS2_PLACEMENT_3D('',#363,#300,#301);
#259=AXIS2_PLACEMENT_3D('',#367,#304,#305);
#260=AXIS2_PLACEMENT_3D('',#371,#308,#309);
#261=AXIS2_PLACEMENT_3D('',#375,#312,#313);
#262=AXIS2_PLACEMENT_3D('',#379,#316,#317);
#263=AXIS2_PLACEMENT_3D('',#381,#319,#320);
#264=AXIS2_PLACEMENT_3D('',#382,#321,#322);
#265=AXIS2_PLACEMENT_3D('',#384,#323,#324);
#266=AXIS2_PLACEMENT_3D('',#386,#326,#327);
#267=DIRECTION('axis',(0.,0.,1.));
#268=DIRECTION('refdir',(1.,0.,0.));
#269=DIRECTION('center_axis',(-4.9897704508077E-31,1.07830411266717E-14,
-1.));
#270=DIRECTION('ref_axis',(1.41798133612159E-14,-1.,-1.07830411266717E-14));
#271=DIRECTION('center_axis',(-4.9897704508077E-31,1.07830411266717E-14,
-1.));
#272=DIRECTION('ref_axis',(1.41798133612159E-14,-1.,-1.07830411266717E-14));
#273=DIRECTION('',(-4.9897704508077E-31,1.07830411266717E-14,-1.));
#274=DIRECTION('center_axis',(-4.9897704508077E-31,1.07830411266717E-14,
-1.));
#275=DIRECTION('ref_axis',(1.41798133612159E-14,-1.,-1.07830411266717E-14));
#276=DIRECTION('center_axis',(4.9897704508077E-31,-1.07830411266717E-14,
1.));
#277=DIRECTION('ref_axis',(-1.,-1.41798133612159E-14,-1.52402533597438E-28));
#278=DIRECTION('center_axis',(4.9897704508077E-31,-1.07830411266717E-14,
1.));
#279=DIRECTION('ref_axis',(1.41798133612159E-14,-1.,-1.07830411266717E-14));
#280=DIRECTION('center_axis',(4.9897704508077E-31,-1.07830411266717E-14,
1.));
#281=DIRECTION('ref_axis',(-1.,-1.41798133612159E-14,-1.52402533597438E-28));
#282=DIRECTION('',(1.40729821008612E-14,-1.,-1.07830411266717E-14));
#283=DIRECTION('',(0.866025403784446,-0.499999999999988,-5.39152056333569E-15));
#284=DIRECTION('',(0.866025403784431,0.500000000000013,5.39152056333596E-15));
#285=DIRECTION('',(-1.41798133612159E-14,1.,1.07830411266717E-14));
#286=DIRECTION('',(-0.866025403784446,0.499999999999988,5.39152056333569E-15));
#287=DIRECTION('',(-0.866025403784432,-0.500000000000012,-5.39152056333596E-15));
#288=DIRECTION('center_axis',(0.,1.07516335016331E-14,-1.));
#289=DIRECTION('ref_axis',(1.41798133612159E-14,-1.,-1.07516335016331E-14));
#290=DIRECTION('center_axis',(4.9897704508077E-31,-1.07830411266717E-14,
1.));
#291=DIRECTION('ref_axis',(1.41798133612159E-14,-1.,-1.07830411266717E-14));
#292=DIRECTION('',(0.,-1.07516335016331E-14,1.));
#293=DIRECTION('center_axis',(-4.9897704508077E-31,1.07830411266717E-14,
-1.));
#294=DIRECTION('ref_axis',(1.41798133612159E-14,-1.,-1.07830411266717E-14));
#295=DIRECTION('center_axis',(-0.499999999999988,-0.866025403784446,-9.31118774459418E-15));
#296=DIRECTION('ref_axis',(-0.866025403784446,0.499999999999987,5.39152056333569E-15));
#297=DIRECTION('',(4.9897704508077E-31,-1.07830411266717E-14,1.));
#298=DIRECTION('',(-0.866025403784446,0.499999999999988,5.39152056333569E-15));
#299=DIRECTION('',(0.,1.07516335016331E-14,-1.));
#300=DIRECTION('center_axis',(0.500000000000013,-0.866025403784431,-9.31118774459402E-15));
#301=DIRECTION('ref_axis',(-0.866025403784431,-0.500000000000013,-5.39152056333596E-15));
#302=DIRECTION('',(-0.866025403784431,-0.500000000000013,-5.39152056333596E-15));
#303=DIRECTION('',(0.,1.07516335016331E-14,-1.));
#304=DIRECTION('center_axis',(1.,1.41798133612159E-14,1.52456156381353E-28));
#305=DIRECTION('ref_axis',(1.41798133612159E-14,-1.,-1.07830411266717E-14));
#306=DIRECTION('',(1.41798133612159E-14,-1.,-1.07830411266717E-14));
#307=DIRECTION('',(0.,1.07516335016331E-14,-1.));
#308=DIRECTION('center_axis',(0.499999999999988,0.866025403784446,9.31118774459418E-15));
#309=DIRECTION('ref_axis',(0.866025403784446,-0.499999999999987,-5.39152056333569E-15));
#310=DIRECTION('',(0.866025403784446,-0.499999999999988,-5.39152056333569E-15));
#311=DIRECTION('',(0.,1.07516335016331E-14,-1.));
#312=DIRECTION('center_axis',(-0.500000000000012,0.866025403784432,9.31118774459402E-15));
#313=DIRECTION('ref_axis',(0.866025403784432,0.500000000000012,5.39152056333596E-15));
#314=DIRECTION('',(0.866025403784432,0.500000000000012,5.39152056333596E-15));
#315=DIRECTION('',(0.,1.07516335016331E-14,-1.));
#316=DIRECTION('center_axis',(-1.,-1.40729821008612E-14,-1.51307545823502E-28));
#317=DIRECTION('ref_axis',(-1.40729821008612E-14,1.,1.07830411266717E-14));
#318=DIRECTION('',(-1.40729821008612E-14,1.,1.07830411266717E-14));
#319=DIRECTION('center_axis',(4.9897704508077E-31,-1.07830411266717E-14,
1.));
#320=DIRECTION('ref_axis',(-1.,-1.41798133612159E-14,-1.52402533597438E-28));
#321=DIRECTION('center_axis',(0.,1.07516335016331E-14,-1.));
#322=DIRECTION('ref_axis',(1.41798133612159E-14,-1.,-1.07516335016331E-14));
#323=DIRECTION('center_axis',(4.9897704508077E-31,-1.07830411266717E-14,
1.));
#324=DIRECTION('ref_axis',(1.41798133612159E-14,-1.,-1.07830411266717E-14));
#325=DIRECTION('',(0.,-1.07516335016331E-14,1.));
#326=DIRECTION('center_axis',(4.9897704508077E-31,-1.07830411266717E-14,
1.));
#327=DIRECTION('ref_axis',(-1.,-1.41798133612159E-14,-1.52402533597438E-28));
#328=CARTESIAN_POINT('',(0.,0.,0.));
#329=CARTESIAN_POINT('Origin',(-39.0000000000003,24.4999999999992,26.9500000000003));
#330=CARTESIAN_POINT('',(-39.0000000000003,25.9999999999992,26.9500000000003));
#331=CARTESIAN_POINT('Origin',(-39.0000000000003,24.4999999999992,26.9500000000003));
#332=CARTESIAN_POINT('',(-39.0000000000003,25.9999999999992,26.4500000000003));
#333=CARTESIAN_POINT('',(-39.0000000000003,25.9999999999992,26.9500000000003));
#334=CARTESIAN_POINT('Origin',(-39.0000000000003,24.4999999999992,26.4500000000003));
#335=CARTESIAN_POINT('Origin',(-39.0000000000003,24.4999999999992,26.4500000000003));
#336=CARTESIAN_POINT('',(-39.0000000000003,25.2999999999992,26.4500000000003));
#337=CARTESIAN_POINT('Origin',(-39.0000000000003,24.4999999999992,26.4500000000003));
#338=CARTESIAN_POINT('Origin',(-39.0000000000003,24.4999999999992,26.9500000000003));
#339=CARTESIAN_POINT('',(-41.2500000000003,25.7990381056758,26.9500000000003));
#340=CARTESIAN_POINT('',(-41.2500000000003,23.2009618943225,26.9500000000003));
#341=CARTESIAN_POINT('',(-41.2500000000003,25.7990381056758,26.9500000000003));
#342=CARTESIAN_POINT('',(-39.0000000000003,21.9019237886459,26.9500000000003));
#343=CARTESIAN_POINT('',(-41.2500000000003,23.2009618943225,26.9500000000003));
#344=CARTESIAN_POINT('',(-36.7500000000003,23.2009618943226,26.9500000000003));
#345=CARTESIAN_POINT('',(-39.0000000000003,21.9019237886459,26.9500000000003));
#346=CARTESIAN_POINT('',(-36.7500000000003,25.7990381056759,26.9500000000003));
#347=CARTESIAN_POINT('',(-36.7500000000003,23.2009618943226,26.9500000000003));
#348=CARTESIAN_POINT('',(-39.0000000000003,27.0980762113525,26.9500000000003));
#349=CARTESIAN_POINT('',(-36.7500000000003,25.7990381056759,26.9500000000003));
#350=CARTESIAN_POINT('',(-39.0000000000003,27.0980762113525,26.9500000000003));
#351=CARTESIAN_POINT('Origin',(-39.0000000000003,24.4999999999994,10.9500000000003));
#352=CARTESIAN_POINT('',(-39.0000000000003,25.9999999999995,1.4500000000003));
#353=CARTESIAN_POINT('Origin',(-39.0000000000003,24.4999999999995,1.45000000000028));
#354=CARTESIAN_POINT('',(-39.0000000000003,25.9999999999995,1.9500000000003));
#355=CARTESIAN_POINT('',(-39.0000000000003,25.9999999999994,10.9500000000003));
#356=CARTESIAN_POINT('Origin',(-39.0000000000003,24.4999999999995,1.95000000000028));
#357=CARTESIAN_POINT('Origin',(-39.0000000000003,21.901923788646,10.9500000000003));
#358=CARTESIAN_POINT('',(-41.2500000000003,23.2009618943228,1.45000000000027));
#359=CARTESIAN_POINT('',(-41.2500000000003,23.2009618943226,18.9500000000003));
#360=CARTESIAN_POINT('',(-39.0000000000003,21.9019237886461,1.45000000000025));
#361=CARTESIAN_POINT('',(-41.2500000000003,23.2009618943228,1.45000000000027));
#362=CARTESIAN_POINT('',(-39.0000000000003,21.901923788646,10.9500000000003));
#363=CARTESIAN_POINT('Origin',(-36.7500000000003,23.2009618943227,10.9500000000003));
#364=CARTESIAN_POINT('',(-36.7500000000003,23.2009618943228,1.45000000000027));
#365=CARTESIAN_POINT('',(-39.0000000000003,21.9019237886461,1.45000000000025));
#366=CARTESIAN_POINT('',(-36.7500000000003,23.2009618943227,10.9500000000003));
#367=CARTESIAN_POINT('Origin',(-36.7500000000003,25.7990381056761,10.9500000000003));
#368=CARTESIAN_POINT('',(-36.7500000000003,25.7990381056762,1.4500000000003));
#369=CARTESIAN_POINT('',(-36.7500000000003,23.2009618943228,1.45000000000027));
#370=CARTESIAN_POINT('',(-36.7500000000003,25.7990381056761,10.9500000000003));
#371=CARTESIAN_POINT('Origin',(-39.0000000000003,27.0980762113527,10.9500000000003));
#372=CARTESIAN_POINT('',(-39.0000000000003,27.0980762113528,1.45000000000031));
#373=CARTESIAN_POINT('',(-36.7500000000003,25.7990381056762,1.4500000000003));
#374=CARTESIAN_POINT('',(-39.0000000000003,27.0980762113527,10.9500000000003));
#375=CARTESIAN_POINT('Origin',(-41.2500000000003,25.799038105676,10.9500000000003));
#376=CARTESIAN_POINT('',(-41.2500000000003,25.7990381056761,1.4500000000003));
#377=CARTESIAN_POINT('',(-39.0000000000003,27.0980762113528,1.45000000000031));
#378=CARTESIAN_POINT('',(-41.2500000000003,25.799038105676,10.9500000000003));
#379=CARTESIAN_POINT('Origin',(-41.2500000000003,23.2009618943227,10.9500000000003));
#380=CARTESIAN_POINT('',(-41.2500000000003,25.7990381056761,1.4500000000003));
#381=CARTESIAN_POINT('Origin',(-39.0000000000003,24.4999999999995,1.45000000000028));
#382=CARTESIAN_POINT('Origin',(-39.0000000000003,24.4999999999994,11.4500000000003));
#383=CARTESIAN_POINT('',(-39.0000000000003,25.2999999999995,1.95000000000029));
#384=CARTESIAN_POINT('Origin',(-39.0000000000003,24.4999999999995,1.95000000000028));
#385=CARTESIAN_POINT('',(-39.0000000000003,25.2999999999994,11.4500000000003));
#386=CARTESIAN_POINT('Origin',(-39.0000000000003,24.4999999999995,1.95000000000028));
#387=UNCERTAINTY_MEASURE_WITH_UNIT(LENGTH_MEASURE(0.01),#391,
'DISTANCE_ACCURACY_VALUE',
'Maximum model space distance between geometric entities at asserted c
onnectivities');
#388=UNCERTAINTY_MEASURE_WITH_UNIT(LENGTH_MEASURE(0.01),#391,
'DISTANCE_ACCURACY_VALUE',
'Maximum model space distance between geometric entities at asserted c
onnectivities');
#389=(
GEOMETRIC_REPRESENTATION_CONTEXT(3)
GLOBAL_UNCERTAINTY_ASSIGNED_CONTEXT((#387))
GLOBAL_UNIT_ASSIGNED_CONTEXT((#391,#393,#394))
REPRESENTATION_CONTEXT('','3D')
);
#390=(
GEOMETRIC_REPRESENTATION_CONTEXT(3)
GLOBAL_UNCERTAINTY_ASSIGNED_CONTEXT((#388))
GLOBAL_UNIT_ASSIGNED_CONTEXT((#391,#393,#394))
REPRESENTATION_CONTEXT('','3D')
);
#391=(
LENGTH_UNIT()
NAMED_UNIT(*)
SI_UNIT(.MILLI.,.METRE.)
);
#392=(
LENGTH_UNIT()
NAMED_UNIT(*)
SI_UNIT($,.METRE.)
);
#393=(
NAMED_UNIT(*)
PLANE_ANGLE_UNIT()
SI_UNIT($,.RADIAN.)
);
#394=(
NAMED_UNIT(*)
SI_UNIT($,.STERADIAN.)
SOLID_ANGLE_UNIT()
);
#395=SHAPE_DEFINITION_REPRESENTATION(#396,#397);
#396=PRODUCT_DEFINITION_SHAPE('',$,#399);
#397=SHAPE_REPRESENTATION('',(#247),#389);
#398=PRODUCT_DEFINITION_CONTEXT('part definition',#403,'design');
#399=PRODUCT_DEFINITION('2026-06-20-12-29-24-406','FusionComponent',#400,
#398);
#400=PRODUCT_DEFINITION_FORMATION('',$,#405);
#401=PRODUCT_RELATED_PRODUCT_CATEGORY('FusionComponent',
'FusionComponent',(#405));
#402=APPLICATION_PROTOCOL_DEFINITION('international standard',
'automotive_design',2009,#403);
#403=APPLICATION_CONTEXT(
'Core Data for Automotive Mechanical Design Process');
#404=PRODUCT_CONTEXT('part definition',#403,'mechanical');
#405=PRODUCT('2026-06-20-12-29-24-406','FusionComponent',$,(#404));
#406=PRESENTATION_STYLE_ASSIGNMENT((#408));
#407=PRESENTATION_STYLE_ASSIGNMENT((#409));
#408=SURFACE_STYLE_USAGE(.BOTH.,#410);
#409=SURFACE_STYLE_USAGE(.BOTH.,#411);
#410=SURFACE_SIDE_STYLE('',(#412));
#411=SURFACE_SIDE_STYLE('',(#413));
#412=SURFACE_STYLE_FILL_AREA(#414);
#413=SURFACE_STYLE_FILL_AREA(#415);
#414=FILL_AREA_STYLE('Steel - Satin',(#416));
#415=FILL_AREA_STYLE('Opaque(64,64,64)',(#417));
#416=FILL_AREA_STYLE_COLOUR('Steel - Satin',#418);
#417=FILL_AREA_STYLE_COLOUR('Opaque(64,64,64)',#419);
#418=COLOUR_RGB('Steel - Satin',0.627450980392157,0.627450980392157,0.627450980392157);
#419=COLOUR_RGB('Opaque(64,64,64)',0.250980392156863,0.250980392156863,
0.250980392156863);
ENDSEC;
END-ISO-10303-21;
