ISO-10303-21;
HEADER;
/* Generated by software containing ST-Developer
 * from STEP Tools, Inc. (www.steptools.com) 
 */

FILE_DESCRIPTION(
/* description */ (''),
/* implementation_level */ '2;1');

FILE_NAME(
/* name */ 'Servo Hub Side A x1.step',
/* time_stamp */ '2026-06-20T16:36:39-05:00',
/* author */ (''),
/* organization */ (''),
/* preprocessor_version */ 'ST-DEVELOPER v20.1',
/* originating_system */ 'Autodesk Translation Framework v15.8.0.0',
/* authorisation */ '');

FILE_SCHEMA (('AUTOMOTIVE_DESIGN { 1 0 10303 214 3 1 1 }'));
ENDSEC;

DATA;
#10=MECHANICAL_DESIGN_GEOMETRIC_PRESENTATION_REPRESENTATION('',(#13),#1807);
#11=SHAPE_REPRESENTATION_RELATIONSHIP('SRR','None',#1814,#12);
#12=ADVANCED_BREP_SHAPE_REPRESENTATION('',(#14),#1806);
#13=STYLED_ITEM('',(#1823),#14);
#14=MANIFOLD_SOLID_BREP('Body1',#1083);
#15=FACE_BOUND('',#139,.T.);
#16=FACE_BOUND('',#175,.T.);
#17=CIRCLE('',#1100,0.999999999999988);
#18=CIRCLE('',#1101,0.999999999999988);
#19=CIRCLE('',#1104,0.999999999999996);
#20=CIRCLE('',#1105,0.999999999999996);
#21=CIRCLE('',#1107,1.);
#22=CIRCLE('',#1108,1.);
#23=CIRCLE('',#1112,1.);
#24=CIRCLE('',#1113,1.);
#25=CIRCLE('',#1116,1.);
#26=CIRCLE('',#1117,1.);
#27=CIRCLE('',#1121,1.);
#28=CIRCLE('',#1122,1.);
#29=CIRCLE('',#1123,1.);
#30=CIRCLE('',#1124,1.);
#31=CIRCLE('',#1125,1.);
#32=CIRCLE('',#1126,1.);
#33=CIRCLE('',#1129,1.);
#34=CIRCLE('',#1132,1.);
#35=CIRCLE('',#1135,1.);
#36=CIRCLE('',#1138,1.);
#37=CIRCLE('',#1141,1.);
#38=CIRCLE('',#1144,1.);
#39=CIRCLE('',#1147,1.);
#40=CIRCLE('',#1148,1.);
#41=CIRCLE('',#1151,1.);
#42=CIRCLE('',#1152,1.);
#43=CIRCLE('',#1156,1.);
#44=CIRCLE('',#1157,1.);
#45=CIRCLE('',#1160,1.);
#46=CIRCLE('',#1161,1.);
#47=CIRCLE('',#1164,1.);
#48=CIRCLE('',#1166,1.);
#49=CIRCLE('',#1179,15.);
#50=CIRCLE('',#1180,15.);
#51=CIRCLE('',#1183,15.);
#52=CIRCLE('',#1184,15.);
#53=CYLINDRICAL_SURFACE('',#1099,0.999999999999988);
#54=CYLINDRICAL_SURFACE('',#1103,0.999999999999996);
#55=CYLINDRICAL_SURFACE('',#1111,1.);
#56=CYLINDRICAL_SURFACE('',#1115,1.);
#57=CYLINDRICAL_SURFACE('',#1128,1.);
#58=CYLINDRICAL_SURFACE('',#1131,1.);
#59=CYLINDRICAL_SURFACE('',#1134,1.);
#60=CYLINDRICAL_SURFACE('',#1137,1.);
#61=CYLINDRICAL_SURFACE('',#1140,1.);
#62=CYLINDRICAL_SURFACE('',#1143,1.);
#63=CYLINDRICAL_SURFACE('',#1146,1.);
#64=CYLINDRICAL_SURFACE('',#1150,1.);
#65=CYLINDRICAL_SURFACE('',#1155,1.);
#66=CYLINDRICAL_SURFACE('',#1159,1.);
#67=CYLINDRICAL_SURFACE('',#1163,1.);
#68=CYLINDRICAL_SURFACE('',#1168,1.);
#69=CYLINDRICAL_SURFACE('',#1185,15.);
#70=CYLINDRICAL_SURFACE('',#1186,15.);
#71=FACE_OUTER_BOUND('',#125,.T.);
#72=FACE_OUTER_BOUND('',#126,.T.);
#73=FACE_OUTER_BOUND('',#127,.T.);
#74=FACE_OUTER_BOUND('',#128,.T.);
#75=FACE_OUTER_BOUND('',#129,.T.);
#76=FACE_OUTER_BOUND('',#130,.T.);
#77=FACE_OUTER_BOUND('',#131,.T.);
#78=FACE_OUTER_BOUND('',#132,.T.);
#79=FACE_OUTER_BOUND('',#133,.T.);
#80=FACE_OUTER_BOUND('',#134,.T.);
#81=FACE_OUTER_BOUND('',#135,.T.);
#82=FACE_OUTER_BOUND('',#136,.T.);
#83=FACE_OUTER_BOUND('',#137,.T.);
#84=FACE_OUTER_BOUND('',#138,.T.);
#85=FACE_OUTER_BOUND('',#140,.T.);
#86=FACE_OUTER_BOUND('',#141,.T.);
#87=FACE_OUTER_BOUND('',#142,.T.);
#88=FACE_OUTER_BOUND('',#143,.T.);
#89=FACE_OUTER_BOUND('',#144,.T.);
#90=FACE_OUTER_BOUND('',#145,.T.);
#91=FACE_OUTER_BOUND('',#146,.T.);
#92=FACE_OUTER_BOUND('',#147,.T.);
#93=FACE_OUTER_BOUND('',#148,.T.);
#94=FACE_OUTER_BOUND('',#149,.T.);
#95=FACE_OUTER_BOUND('',#150,.T.);
#96=FACE_OUTER_BOUND('',#151,.T.);
#97=FACE_OUTER_BOUND('',#152,.T.);
#98=FACE_OUTER_BOUND('',#153,.T.);
#99=FACE_OUTER_BOUND('',#154,.T.);
#100=FACE_OUTER_BOUND('',#155,.T.);
#101=FACE_OUTER_BOUND('',#156,.T.);
#102=FACE_OUTER_BOUND('',#157,.T.);
#103=FACE_OUTER_BOUND('',#158,.T.);
#104=FACE_OUTER_BOUND('',#159,.T.);
#105=FACE_OUTER_BOUND('',#160,.T.);
#106=FACE_OUTER_BOUND('',#161,.T.);
#107=FACE_OUTER_BOUND('',#162,.T.);
#108=FACE_OUTER_BOUND('',#163,.T.);
#109=FACE_OUTER_BOUND('',#164,.T.);
#110=FACE_OUTER_BOUND('',#165,.T.);
#111=FACE_OUTER_BOUND('',#166,.T.);
#112=FACE_OUTER_BOUND('',#167,.T.);
#113=FACE_OUTER_BOUND('',#168,.T.);
#114=FACE_OUTER_BOUND('',#169,.T.);
#115=FACE_OUTER_BOUND('',#170,.T.);
#116=FACE_OUTER_BOUND('',#171,.T.);
#117=FACE_OUTER_BOUND('',#172,.T.);
#118=FACE_OUTER_BOUND('',#173,.T.);
#119=FACE_OUTER_BOUND('',#174,.T.);
#120=FACE_OUTER_BOUND('',#176,.T.);
#121=FACE_OUTER_BOUND('',#177,.T.);
#122=FACE_OUTER_BOUND('',#178,.T.);
#123=FACE_OUTER_BOUND('',#179,.T.);
#124=FACE_OUTER_BOUND('',#180,.T.);
#125=EDGE_LOOP('',(#681,#682,#683,#684));
#126=EDGE_LOOP('',(#685,#686,#687,#688));
#127=EDGE_LOOP('',(#689,#690,#691,#692));
#128=EDGE_LOOP('',(#693,#694,#695,#696));
#129=EDGE_LOOP('',(#697,#698,#699,#700));
#130=EDGE_LOOP('',(#701,#702,#703,#704,#705,#706,#707,#708,#709,#710,#711,
#712,#713,#714,#715,#716));
#131=EDGE_LOOP('',(#717,#718,#719,#720,#721,#722,#723,#724,#725,#726,#727,
#728));
#132=EDGE_LOOP('',(#729,#730,#731,#732));
#133=EDGE_LOOP('',(#733,#734,#735,#736));
#134=EDGE_LOOP('',(#737,#738,#739,#740));
#135=EDGE_LOOP('',(#741,#742,#743,#744));
#136=EDGE_LOOP('',(#745,#746,#747,#748));
#137=EDGE_LOOP('',(#749,#750,#751,#752));
#138=EDGE_LOOP('',(#753,#754,#755,#756,#757,#758,#759,#760,#761,#762,#763,
#764,#765,#766,#767,#768));
#139=EDGE_LOOP('',(#769,#770,#771,#772,#773,#774,#775,#776));
#140=EDGE_LOOP('',(#777,#778,#779,#780,#781,#782,#783,#784,#785,#786,#787,
#788));
#141=EDGE_LOOP('',(#789,#790,#791,#792));
#142=EDGE_LOOP('',(#793,#794,#795,#796));
#143=EDGE_LOOP('',(#797,#798,#799,#800));
#144=EDGE_LOOP('',(#801,#802,#803,#804));
#145=EDGE_LOOP('',(#805,#806,#807,#808));
#146=EDGE_LOOP('',(#809,#810,#811,#812));
#147=EDGE_LOOP('',(#813,#814,#815,#816));
#148=EDGE_LOOP('',(#817,#818,#819,#820));
#149=EDGE_LOOP('',(#821,#822,#823,#824));
#150=EDGE_LOOP('',(#825,#826,#827,#828));
#151=EDGE_LOOP('',(#829,#830,#831,#832));
#152=EDGE_LOOP('',(#833,#834,#835,#836));
#153=EDGE_LOOP('',(#837,#838,#839,#840));
#154=EDGE_LOOP('',(#841,#842,#843,#844));
#155=EDGE_LOOP('',(#845,#846,#847,#848));
#156=EDGE_LOOP('',(#849,#850,#851,#852,#853,#854));
#157=EDGE_LOOP('',(#855,#856,#857,#858));
#158=EDGE_LOOP('',(#859,#860,#861,#862));
#159=EDGE_LOOP('',(#863,#864,#865,#866));
#160=EDGE_LOOP('',(#867,#868,#869,#870));
#161=EDGE_LOOP('',(#871,#872,#873,#874));
#162=EDGE_LOOP('',(#875,#876,#877,#878));
#163=EDGE_LOOP('',(#879,#880,#881,#882,#883,#884));
#164=EDGE_LOOP('',(#885,#886,#887,#888));
#165=EDGE_LOOP('',(#889,#890,#891,#892));
#166=EDGE_LOOP('',(#893,#894,#895,#896));
#167=EDGE_LOOP('',(#897,#898,#899,#900,#901,#902));
#168=EDGE_LOOP('',(#903,#904,#905,#906,#907,#908,#909,#910,#911,#912,#913,
#914,#915,#916,#917,#918));
#169=EDGE_LOOP('',(#919,#920,#921,#922));
#170=EDGE_LOOP('',(#923,#924,#925,#926));
#171=EDGE_LOOP('',(#927,#928,#929,#930));
#172=EDGE_LOOP('',(#931,#932,#933,#934,#935,#936));
#173=EDGE_LOOP('',(#937,#938,#939,#940));
#174=EDGE_LOOP('',(#941,#942,#943,#944,#945,#946,#947,#948,#949,#950,#951,
#952,#953,#954,#955,#956));
#175=EDGE_LOOP('',(#957,#958,#959,#960,#961,#962,#963,#964));
#176=EDGE_LOOP('',(#965,#966,#967,#968,#969,#970,#971,#972));
#177=EDGE_LOOP('',(#973,#974,#975,#976));
#178=EDGE_LOOP('',(#977,#978,#979,#980,#981,#982,#983,#984));
#179=EDGE_LOOP('',(#985,#986,#987,#988));
#180=EDGE_LOOP('',(#989,#990,#991,#992));
#181=LINE('',#1493,#301);
#182=LINE('',#1495,#302);
#183=LINE('',#1497,#303);
#184=LINE('',#1498,#304);
#185=LINE('',#1502,#305);
#186=LINE('',#1504,#306);
#187=LINE('',#1506,#307);
#188=LINE('',#1507,#308);
#189=LINE('',#1513,#309);
#190=LINE('',#1516,#310);
#191=LINE('',#1518,#311);
#192=LINE('',#1519,#312);
#193=LINE('',#1525,#313);
#194=LINE('',#1527,#314);
#195=LINE('',#1531,#315);
#196=LINE('',#1535,#316);
#197=LINE('',#1537,#317);
#198=LINE('',#1539,#318);
#199=LINE('',#1541,#319);
#200=LINE('',#1543,#320);
#201=LINE('',#1544,#321);
#202=LINE('',#1547,#322);
#203=LINE('',#1549,#323);
#204=LINE('',#1551,#324);
#205=LINE('',#1553,#325);
#206=LINE('',#1555,#326);
#207=LINE('',#1556,#327);
#208=LINE('',#1558,#328);
#209=LINE('',#1560,#329);
#210=LINE('',#1561,#330);
#211=LINE('',#1564,#331);
#212=LINE('',#1565,#332);
#213=LINE('',#1571,#333);
#214=LINE('',#1574,#334);
#215=LINE('',#1577,#335);
#216=LINE('',#1579,#336);
#217=LINE('',#1580,#337);
#218=LINE('',#1586,#338);
#219=LINE('',#1589,#339);
#220=LINE('',#1591,#340);
#221=LINE('',#1592,#341);
#222=LINE('',#1595,#342);
#223=LINE('',#1597,#343);
#224=LINE('',#1598,#344);
#225=LINE('',#1601,#345);
#226=LINE('',#1603,#346);
#227=LINE('',#1607,#347);
#228=LINE('',#1611,#348);
#229=LINE('',#1613,#349);
#230=LINE('',#1615,#350);
#231=LINE('',#1617,#351);
#232=LINE('',#1619,#352);
#233=LINE('',#1620,#353);
#234=LINE('',#1623,#354);
#235=LINE('',#1627,#355);
#236=LINE('',#1631,#356);
#237=LINE('',#1635,#357);
#238=LINE('',#1639,#358);
#239=LINE('',#1641,#359);
#240=LINE('',#1643,#360);
#241=LINE('',#1645,#361);
#242=LINE('',#1647,#362);
#243=LINE('',#1648,#363);
#244=LINE('',#1650,#364);
#245=LINE('',#1652,#365);
#246=LINE('',#1653,#366);
#247=LINE('',#1658,#367);
#248=LINE('',#1659,#368);
#249=LINE('',#1662,#369);
#250=LINE('',#1663,#370);
#251=LINE('',#1667,#371);
#252=LINE('',#1670,#372);
#253=LINE('',#1671,#373);
#254=LINE('',#1675,#374);
#255=LINE('',#1678,#375);
#256=LINE('',#1679,#376);
#257=LINE('',#1683,#377);
#258=LINE('',#1685,#378);
#259=LINE('',#1690,#379);
#260=LINE('',#1691,#380);
#261=LINE('',#1694,#381);
#262=LINE('',#1695,#382);
#263=LINE('',#1699,#383);
#264=LINE('',#1701,#384);
#265=LINE('',#1707,#385);
#266=LINE('',#1710,#386);
#267=LINE('',#1712,#387);
#268=LINE('',#1713,#388);
#269=LINE('',#1719,#389);
#270=LINE('',#1722,#390);
#271=LINE('',#1724,#391);
#272=LINE('',#1725,#392);
#273=LINE('',#1727,#393);
#274=LINE('',#1733,#394);
#275=LINE('',#1736,#395);
#276=LINE('',#1738,#396);
#277=LINE('',#1739,#397);
#278=LINE('',#1745,#398);
#279=LINE('',#1748,#399);
#280=LINE('',#1750,#400);
#281=LINE('',#1751,#401);
#282=LINE('',#1756,#402);
#283=LINE('',#1757,#403);
#284=LINE('',#1760,#404);
#285=LINE('',#1763,#405);
#286=LINE('',#1764,#406);
#287=LINE('',#1766,#407);
#288=LINE('',#1768,#408);
#289=LINE('',#1770,#409);
#290=LINE('',#1771,#410);
#291=LINE('',#1775,#411);
#292=LINE('',#1777,#412);
#293=LINE('',#1778,#413);
#294=LINE('',#1782,#414);
#295=LINE('',#1785,#415);
#296=LINE('',#1788,#416);
#297=LINE('',#1790,#417);
#298=LINE('',#1792,#418);
#299=LINE('',#1793,#419);
#300=LINE('',#1798,#420);
#301=VECTOR('',#1191,10.);
#302=VECTOR('',#1192,10.);
#303=VECTOR('',#1193,10.);
#304=VECTOR('',#1194,10.);
#305=VECTOR('',#1197,10.);
#306=VECTOR('',#1198,10.);
#307=VECTOR('',#1199,10.);
#308=VECTOR('',#1200,10.);
#309=VECTOR('',#1207,10.);
#310=VECTOR('',#1210,10.);
#311=VECTOR('',#1211,10.);
#312=VECTOR('',#1212,10.);
#313=VECTOR('',#1221,10.);
#314=VECTOR('',#1222,10.);
#315=VECTOR('',#1225,10.);
#316=VECTOR('',#1228,10.);
#317=VECTOR('',#1229,10.);
#318=VECTOR('',#1230,10.);
#319=VECTOR('',#1231,10.);
#320=VECTOR('',#1232,10.);
#321=VECTOR('',#1233,10.);
#322=VECTOR('',#1236,10.);
#323=VECTOR('',#1237,10.);
#324=VECTOR('',#1238,10.);
#325=VECTOR('',#1239,10.);
#326=VECTOR('',#1240,10.);
#327=VECTOR('',#1241,10.);
#328=VECTOR('',#1242,10.);
#329=VECTOR('',#1243,10.);
#330=VECTOR('',#1244,10.);
#331=VECTOR('',#1247,10.);
#332=VECTOR('',#1248,10.);
#333=VECTOR('',#1253,10.);
#334=VECTOR('',#1256,10.);
#335=VECTOR('',#1259,10.);
#336=VECTOR('',#1260,10.);
#337=VECTOR('',#1261,10.);
#338=VECTOR('',#1266,10.);
#339=VECTOR('',#1269,10.);
#340=VECTOR('',#1272,10.);
#341=VECTOR('',#1273,10.);
#342=VECTOR('',#1276,10.);
#343=VECTOR('',#1277,10.);
#344=VECTOR('',#1278,10.);
#345=VECTOR('',#1281,10.);
#346=VECTOR('',#1282,10.);
#347=VECTOR('',#1285,10.);
#348=VECTOR('',#1288,10.);
#349=VECTOR('',#1289,10.);
#350=VECTOR('',#1290,10.);
#351=VECTOR('',#1291,10.);
#352=VECTOR('',#1292,10.);
#353=VECTOR('',#1293,10.);
#354=VECTOR('',#1294,10.);
#355=VECTOR('',#1297,10.);
#356=VECTOR('',#1300,10.);
#357=VECTOR('',#1303,10.);
#358=VECTOR('',#1308,10.);
#359=VECTOR('',#1309,10.);
#360=VECTOR('',#1310,10.);
#361=VECTOR('',#1311,10.);
#362=VECTOR('',#1312,10.);
#363=VECTOR('',#1313,10.);
#364=VECTOR('',#1314,10.);
#365=VECTOR('',#1315,10.);
#366=VECTOR('',#1316,10.);
#367=VECTOR('',#1321,10.);
#368=VECTOR('',#1322,10.);
#369=VECTOR('',#1325,10.);
#370=VECTOR('',#1326,10.);
#371=VECTOR('',#1331,10.);
#372=VECTOR('',#1334,10.);
#373=VECTOR('',#1335,10.);
#374=VECTOR('',#1340,10.);
#375=VECTOR('',#1343,10.);
#376=VECTOR('',#1344,10.);
#377=VECTOR('',#1349,10.);
#378=VECTOR('',#1352,10.);
#379=VECTOR('',#1357,10.);
#380=VECTOR('',#1358,10.);
#381=VECTOR('',#1361,10.);
#382=VECTOR('',#1362,10.);
#383=VECTOR('',#1367,10.);
#384=VECTOR('',#1370,10.);
#385=VECTOR('',#1375,10.);
#386=VECTOR('',#1378,10.);
#387=VECTOR('',#1381,10.);
#388=VECTOR('',#1382,10.);
#389=VECTOR('',#1387,10.);
#390=VECTOR('',#1390,10.);
#391=VECTOR('',#1393,10.);
#392=VECTOR('',#1394,10.);
#393=VECTOR('',#1397,10.);
#394=VECTOR('',#1402,10.);
#395=VECTOR('',#1405,10.);
#396=VECTOR('',#1408,10.);
#397=VECTOR('',#1409,10.);
#398=VECTOR('',#1414,10.);
#399=VECTOR('',#1417,10.);
#400=VECTOR('',#1420,10.);
#401=VECTOR('',#1421,10.);
#402=VECTOR('',#1426,10.);
#403=VECTOR('',#1427,10.);
#404=VECTOR('',#1430,10.);
#405=VECTOR('',#1433,10.);
#406=VECTOR('',#1434,10.);
#407=VECTOR('',#1437,10.);
#408=VECTOR('',#1440,10.);
#409=VECTOR('',#1443,10.);
#410=VECTOR('',#1444,10.);
#411=VECTOR('',#1449,10.);
#412=VECTOR('',#1450,10.);
#413=VECTOR('',#1451,10.);
#414=VECTOR('',#1458,10.);
#415=VECTOR('',#1463,10.);
#416=VECTOR('',#1466,10.);
#417=VECTOR('',#1467,10.);
#418=VECTOR('',#1468,10.);
#419=VECTOR('',#1469,10.);
#420=VECTOR('',#1478,10.);
#421=VERTEX_POINT('',#1491);
#422=VERTEX_POINT('',#1492);
#423=VERTEX_POINT('',#1494);
#424=VERTEX_POINT('',#1496);
#425=VERTEX_POINT('',#1500);
#426=VERTEX_POINT('',#1501);
#427=VERTEX_POINT('',#1503);
#428=VERTEX_POINT('',#1505);
#429=VERTEX_POINT('',#1509);
#430=VERTEX_POINT('',#1511);
#431=VERTEX_POINT('',#1515);
#432=VERTEX_POINT('',#1517);
#433=VERTEX_POINT('',#1524);
#434=VERTEX_POINT('',#1526);
#435=VERTEX_POINT('',#1528);
#436=VERTEX_POINT('',#1530);
#437=VERTEX_POINT('',#1532);
#438=VERTEX_POINT('',#1534);
#439=VERTEX_POINT('',#1536);
#440=VERTEX_POINT('',#1538);
#441=VERTEX_POINT('',#1540);
#442=VERTEX_POINT('',#1542);
#443=VERTEX_POINT('',#1546);
#444=VERTEX_POINT('',#1548);
#445=VERTEX_POINT('',#1550);
#446=VERTEX_POINT('',#1552);
#447=VERTEX_POINT('',#1554);
#448=VERTEX_POINT('',#1557);
#449=VERTEX_POINT('',#1559);
#450=VERTEX_POINT('',#1563);
#451=VERTEX_POINT('',#1567);
#452=VERTEX_POINT('',#1568);
#453=VERTEX_POINT('',#1570);
#454=VERTEX_POINT('',#1572);
#455=VERTEX_POINT('',#1576);
#456=VERTEX_POINT('',#1578);
#457=VERTEX_POINT('',#1582);
#458=VERTEX_POINT('',#1583);
#459=VERTEX_POINT('',#1585);
#460=VERTEX_POINT('',#1587);
#461=VERTEX_POINT('',#1594);
#462=VERTEX_POINT('',#1596);
#463=VERTEX_POINT('',#1600);
#464=VERTEX_POINT('',#1602);
#465=VERTEX_POINT('',#1604);
#466=VERTEX_POINT('',#1606);
#467=VERTEX_POINT('',#1608);
#468=VERTEX_POINT('',#1610);
#469=VERTEX_POINT('',#1612);
#470=VERTEX_POINT('',#1614);
#471=VERTEX_POINT('',#1616);
#472=VERTEX_POINT('',#1618);
#473=VERTEX_POINT('',#1621);
#474=VERTEX_POINT('',#1622);
#475=VERTEX_POINT('',#1624);
#476=VERTEX_POINT('',#1626);
#477=VERTEX_POINT('',#1628);
#478=VERTEX_POINT('',#1630);
#479=VERTEX_POINT('',#1632);
#480=VERTEX_POINT('',#1634);
#481=VERTEX_POINT('',#1638);
#482=VERTEX_POINT('',#1640);
#483=VERTEX_POINT('',#1642);
#484=VERTEX_POINT('',#1644);
#485=VERTEX_POINT('',#1646);
#486=VERTEX_POINT('',#1649);
#487=VERTEX_POINT('',#1651);
#488=VERTEX_POINT('',#1655);
#489=VERTEX_POINT('',#1656);
#490=VERTEX_POINT('',#1661);
#491=VERTEX_POINT('',#1665);
#492=VERTEX_POINT('',#1669);
#493=VERTEX_POINT('',#1673);
#494=VERTEX_POINT('',#1677);
#495=VERTEX_POINT('',#1681);
#496=VERTEX_POINT('',#1687);
#497=VERTEX_POINT('',#1688);
#498=VERTEX_POINT('',#1693);
#499=VERTEX_POINT('',#1697);
#500=VERTEX_POINT('',#1703);
#501=VERTEX_POINT('',#1704);
#502=VERTEX_POINT('',#1706);
#503=VERTEX_POINT('',#1708);
#504=VERTEX_POINT('',#1715);
#505=VERTEX_POINT('',#1716);
#506=VERTEX_POINT('',#1718);
#507=VERTEX_POINT('',#1720);
#508=VERTEX_POINT('',#1729);
#509=VERTEX_POINT('',#1730);
#510=VERTEX_POINT('',#1732);
#511=VERTEX_POINT('',#1734);
#512=VERTEX_POINT('',#1741);
#513=VERTEX_POINT('',#1742);
#514=VERTEX_POINT('',#1744);
#515=VERTEX_POINT('',#1746);
#516=VERTEX_POINT('',#1753);
#517=VERTEX_POINT('',#1754);
#518=VERTEX_POINT('',#1759);
#519=VERTEX_POINT('',#1761);
#520=VERTEX_POINT('',#1774);
#521=VERTEX_POINT('',#1776);
#522=VERTEX_POINT('',#1787);
#523=VERTEX_POINT('',#1789);
#524=VERTEX_POINT('',#1791);
#525=EDGE_CURVE('',#421,#422,#181,.T.);
#526=EDGE_CURVE('',#423,#421,#182,.T.);
#527=EDGE_CURVE('',#424,#423,#183,.T.);
#528=EDGE_CURVE('',#422,#424,#184,.T.);
#529=EDGE_CURVE('',#425,#426,#185,.T.);
#530=EDGE_CURVE('',#427,#425,#186,.T.);
#531=EDGE_CURVE('',#427,#428,#187,.T.);
#532=EDGE_CURVE('',#426,#428,#188,.T.);
#533=EDGE_CURVE('',#428,#429,#17,.T.);
#534=EDGE_CURVE('',#430,#427,#18,.T.);
#535=EDGE_CURVE('',#430,#429,#189,.T.);
#536=EDGE_CURVE('',#429,#431,#190,.T.);
#537=EDGE_CURVE('',#432,#430,#191,.T.);
#538=EDGE_CURVE('',#432,#431,#192,.T.);
#539=EDGE_CURVE('',#431,#421,#19,.T.);
#540=EDGE_CURVE('',#423,#432,#20,.T.);
#541=EDGE_CURVE('',#425,#433,#193,.T.);
#542=EDGE_CURVE('',#433,#434,#194,.T.);
#543=EDGE_CURVE('',#435,#434,#21,.T.);
#544=EDGE_CURVE('',#435,#436,#195,.T.);
#545=EDGE_CURVE('',#437,#436,#22,.T.);
#546=EDGE_CURVE('',#437,#438,#196,.T.);
#547=EDGE_CURVE('',#438,#439,#197,.T.);
#548=EDGE_CURVE('',#440,#439,#198,.T.);
#549=EDGE_CURVE('',#441,#440,#199,.T.);
#550=EDGE_CURVE('',#442,#441,#200,.T.);
#551=EDGE_CURVE('',#442,#424,#201,.T.);
#552=EDGE_CURVE('',#443,#426,#202,.T.);
#553=EDGE_CURVE('',#443,#444,#203,.T.);
#554=EDGE_CURVE('',#444,#445,#204,.T.);
#555=EDGE_CURVE('',#445,#446,#205,.T.);
#556=EDGE_CURVE('',#447,#446,#206,.T.);
#557=EDGE_CURVE('',#439,#447,#207,.T.);
#558=EDGE_CURVE('',#438,#448,#208,.T.);
#559=EDGE_CURVE('',#448,#449,#209,.T.);
#560=EDGE_CURVE('',#449,#433,#210,.T.);
#561=EDGE_CURVE('',#450,#442,#211,.T.);
#562=EDGE_CURVE('',#422,#450,#212,.T.);
#563=EDGE_CURVE('',#451,#452,#23,.T.);
#564=EDGE_CURVE('',#452,#453,#213,.T.);
#565=EDGE_CURVE('',#453,#454,#24,.T.);
#566=EDGE_CURVE('',#454,#451,#214,.T.);
#567=EDGE_CURVE('',#455,#452,#215,.T.);
#568=EDGE_CURVE('',#456,#455,#216,.T.);
#569=EDGE_CURVE('',#453,#456,#217,.T.);
#570=EDGE_CURVE('',#457,#458,#25,.T.);
#571=EDGE_CURVE('',#458,#459,#218,.T.);
#572=EDGE_CURVE('',#459,#460,#26,.T.);
#573=EDGE_CURVE('',#460,#457,#219,.T.);
#574=EDGE_CURVE('',#459,#454,#220,.T.);
#575=EDGE_CURVE('',#451,#458,#221,.T.);
#576=EDGE_CURVE('',#461,#460,#222,.T.);
#577=EDGE_CURVE('',#462,#461,#223,.T.);
#578=EDGE_CURVE('',#457,#462,#224,.T.);
#579=EDGE_CURVE('',#463,#456,#225,.T.);
#580=EDGE_CURVE('',#463,#464,#226,.T.);
#581=EDGE_CURVE('',#465,#464,#27,.T.);
#582=EDGE_CURVE('',#465,#466,#227,.T.);
#583=EDGE_CURVE('',#467,#466,#28,.T.);
#584=EDGE_CURVE('',#467,#468,#228,.T.);
#585=EDGE_CURVE('',#469,#468,#229,.T.);
#586=EDGE_CURVE('',#470,#469,#230,.T.);
#587=EDGE_CURVE('',#471,#470,#231,.T.);
#588=EDGE_CURVE('',#472,#471,#232,.T.);
#589=EDGE_CURVE('',#461,#472,#233,.T.);
#590=EDGE_CURVE('',#473,#474,#234,.T.);
#591=EDGE_CURVE('',#475,#474,#29,.T.);
#592=EDGE_CURVE('',#475,#476,#235,.T.);
#593=EDGE_CURVE('',#477,#476,#30,.T.);
#594=EDGE_CURVE('',#477,#478,#236,.T.);
#595=EDGE_CURVE('',#479,#478,#31,.T.);
#596=EDGE_CURVE('',#479,#480,#237,.T.);
#597=EDGE_CURVE('',#473,#480,#32,.T.);
#598=EDGE_CURVE('',#455,#481,#238,.T.);
#599=EDGE_CURVE('',#481,#482,#239,.T.);
#600=EDGE_CURVE('',#482,#483,#240,.T.);
#601=EDGE_CURVE('',#483,#484,#241,.T.);
#602=EDGE_CURVE('',#484,#485,#242,.T.);
#603=EDGE_CURVE('',#485,#469,#243,.T.);
#604=EDGE_CURVE('',#468,#486,#244,.T.);
#605=EDGE_CURVE('',#486,#487,#245,.T.);
#606=EDGE_CURVE('',#487,#463,#246,.T.);
#607=EDGE_CURVE('',#488,#489,#33,.T.);
#608=EDGE_CURVE('',#489,#475,#247,.T.);
#609=EDGE_CURVE('',#474,#488,#248,.T.);
#610=EDGE_CURVE('',#490,#489,#249,.T.);
#611=EDGE_CURVE('',#476,#490,#250,.T.);
#612=EDGE_CURVE('',#490,#491,#34,.T.);
#613=EDGE_CURVE('',#491,#477,#251,.T.);
#614=EDGE_CURVE('',#492,#491,#252,.T.);
#615=EDGE_CURVE('',#478,#492,#253,.T.);
#616=EDGE_CURVE('',#492,#493,#35,.T.);
#617=EDGE_CURVE('',#493,#479,#254,.T.);
#618=EDGE_CURVE('',#494,#493,#255,.T.);
#619=EDGE_CURVE('',#480,#494,#256,.T.);
#620=EDGE_CURVE('',#494,#495,#36,.T.);
#621=EDGE_CURVE('',#495,#473,#257,.T.);
#622=EDGE_CURVE('',#488,#495,#258,.T.);
#623=EDGE_CURVE('',#496,#497,#37,.T.);
#624=EDGE_CURVE('',#496,#467,#259,.T.);
#625=EDGE_CURVE('',#466,#497,#260,.T.);
#626=EDGE_CURVE('',#498,#465,#261,.T.);
#627=EDGE_CURVE('',#497,#498,#262,.T.);
#628=EDGE_CURVE('',#498,#499,#38,.T.);
#629=EDGE_CURVE('',#464,#499,#263,.T.);
#630=EDGE_CURVE('',#499,#487,#264,.T.);
#631=EDGE_CURVE('',#500,#501,#39,.T.);
#632=EDGE_CURVE('',#500,#502,#265,.T.);
#633=EDGE_CURVE('',#502,#503,#40,.T.);
#634=EDGE_CURVE('',#503,#501,#266,.T.);
#635=EDGE_CURVE('',#500,#482,#267,.T.);
#636=EDGE_CURVE('',#502,#481,#268,.T.);
#637=EDGE_CURVE('',#504,#505,#41,.T.);
#638=EDGE_CURVE('',#504,#506,#269,.T.);
#639=EDGE_CURVE('',#506,#507,#42,.T.);
#640=EDGE_CURVE('',#507,#505,#270,.T.);
#641=EDGE_CURVE('',#504,#501,#271,.T.);
#642=EDGE_CURVE('',#483,#505,#272,.T.);
#643=EDGE_CURVE('',#484,#507,#273,.T.);
#644=EDGE_CURVE('',#508,#509,#43,.T.);
#645=EDGE_CURVE('',#508,#510,#274,.T.);
#646=EDGE_CURVE('',#510,#511,#44,.T.);
#647=EDGE_CURVE('',#511,#509,#275,.T.);
#648=EDGE_CURVE('',#446,#511,#276,.T.);
#649=EDGE_CURVE('',#509,#445,#277,.T.);
#650=EDGE_CURVE('',#512,#513,#45,.T.);
#651=EDGE_CURVE('',#512,#514,#278,.T.);
#652=EDGE_CURVE('',#514,#515,#46,.T.);
#653=EDGE_CURVE('',#515,#513,#279,.T.);
#654=EDGE_CURVE('',#513,#508,#280,.T.);
#655=EDGE_CURVE('',#510,#515,#281,.T.);
#656=EDGE_CURVE('',#516,#517,#47,.T.);
#657=EDGE_CURVE('',#516,#437,#282,.T.);
#658=EDGE_CURVE('',#436,#517,#283,.T.);
#659=EDGE_CURVE('',#518,#517,#284,.T.);
#660=EDGE_CURVE('',#518,#519,#48,.T.);
#661=EDGE_CURVE('',#449,#519,#285,.T.);
#662=EDGE_CURVE('',#516,#448,#286,.T.);
#663=EDGE_CURVE('',#518,#435,#287,.T.);
#664=EDGE_CURVE('',#434,#519,#288,.T.);
#665=EDGE_CURVE('',#444,#512,#289,.T.);
#666=EDGE_CURVE('',#514,#443,#290,.T.);
#667=EDGE_CURVE('',#520,#450,#291,.T.);
#668=EDGE_CURVE('',#520,#521,#292,.T.);
#669=EDGE_CURVE('',#447,#521,#293,.T.);
#670=EDGE_CURVE('',#486,#496,#294,.T.);
#671=EDGE_CURVE('',#506,#503,#295,.T.);
#672=EDGE_CURVE('',#522,#462,#296,.T.);
#673=EDGE_CURVE('',#523,#522,#297,.T.);
#674=EDGE_CURVE('',#523,#524,#298,.T.);
#675=EDGE_CURVE('',#485,#524,#299,.T.);
#676=EDGE_CURVE('',#521,#470,#49,.T.);
#677=EDGE_CURVE('',#524,#440,#50,.T.);
#678=EDGE_CURVE('',#472,#522,#300,.T.);
#679=EDGE_CURVE('',#441,#523,#51,.T.);
#680=EDGE_CURVE('',#471,#520,#52,.T.);
#681=ORIENTED_EDGE('',*,*,#525,.F.);
#682=ORIENTED_EDGE('',*,*,#526,.F.);
#683=ORIENTED_EDGE('',*,*,#527,.F.);
#684=ORIENTED_EDGE('',*,*,#528,.F.);
#685=ORIENTED_EDGE('',*,*,#529,.F.);
#686=ORIENTED_EDGE('',*,*,#530,.F.);
#687=ORIENTED_EDGE('',*,*,#531,.T.);
#688=ORIENTED_EDGE('',*,*,#532,.F.);
#689=ORIENTED_EDGE('',*,*,#533,.F.);
#690=ORIENTED_EDGE('',*,*,#531,.F.);
#691=ORIENTED_EDGE('',*,*,#534,.F.);
#692=ORIENTED_EDGE('',*,*,#535,.T.);
#693=ORIENTED_EDGE('',*,*,#536,.F.);
#694=ORIENTED_EDGE('',*,*,#535,.F.);
#695=ORIENTED_EDGE('',*,*,#537,.F.);
#696=ORIENTED_EDGE('',*,*,#538,.T.);
#697=ORIENTED_EDGE('',*,*,#539,.F.);
#698=ORIENTED_EDGE('',*,*,#538,.F.);
#699=ORIENTED_EDGE('',*,*,#540,.F.);
#700=ORIENTED_EDGE('',*,*,#526,.T.);
#701=ORIENTED_EDGE('',*,*,#527,.T.);
#702=ORIENTED_EDGE('',*,*,#540,.T.);
#703=ORIENTED_EDGE('',*,*,#537,.T.);
#704=ORIENTED_EDGE('',*,*,#534,.T.);
#705=ORIENTED_EDGE('',*,*,#530,.T.);
#706=ORIENTED_EDGE('',*,*,#541,.T.);
#707=ORIENTED_EDGE('',*,*,#542,.T.);
#708=ORIENTED_EDGE('',*,*,#543,.F.);
#709=ORIENTED_EDGE('',*,*,#544,.T.);
#710=ORIENTED_EDGE('',*,*,#545,.F.);
#711=ORIENTED_EDGE('',*,*,#546,.T.);
#712=ORIENTED_EDGE('',*,*,#547,.T.);
#713=ORIENTED_EDGE('',*,*,#548,.F.);
#714=ORIENTED_EDGE('',*,*,#549,.F.);
#715=ORIENTED_EDGE('',*,*,#550,.F.);
#716=ORIENTED_EDGE('',*,*,#551,.T.);
#717=ORIENTED_EDGE('',*,*,#529,.T.);
#718=ORIENTED_EDGE('',*,*,#552,.F.);
#719=ORIENTED_EDGE('',*,*,#553,.T.);
#720=ORIENTED_EDGE('',*,*,#554,.T.);
#721=ORIENTED_EDGE('',*,*,#555,.T.);
#722=ORIENTED_EDGE('',*,*,#556,.F.);
#723=ORIENTED_EDGE('',*,*,#557,.F.);
#724=ORIENTED_EDGE('',*,*,#547,.F.);
#725=ORIENTED_EDGE('',*,*,#558,.T.);
#726=ORIENTED_EDGE('',*,*,#559,.T.);
#727=ORIENTED_EDGE('',*,*,#560,.T.);
#728=ORIENTED_EDGE('',*,*,#541,.F.);
#729=ORIENTED_EDGE('',*,*,#528,.T.);
#730=ORIENTED_EDGE('',*,*,#551,.F.);
#731=ORIENTED_EDGE('',*,*,#561,.F.);
#732=ORIENTED_EDGE('',*,*,#562,.F.);
#733=ORIENTED_EDGE('',*,*,#563,.T.);
#734=ORIENTED_EDGE('',*,*,#564,.T.);
#735=ORIENTED_EDGE('',*,*,#565,.T.);
#736=ORIENTED_EDGE('',*,*,#566,.T.);
#737=ORIENTED_EDGE('',*,*,#564,.F.);
#738=ORIENTED_EDGE('',*,*,#567,.F.);
#739=ORIENTED_EDGE('',*,*,#568,.F.);
#740=ORIENTED_EDGE('',*,*,#569,.F.);
#741=ORIENTED_EDGE('',*,*,#570,.T.);
#742=ORIENTED_EDGE('',*,*,#571,.T.);
#743=ORIENTED_EDGE('',*,*,#572,.T.);
#744=ORIENTED_EDGE('',*,*,#573,.T.);
#745=ORIENTED_EDGE('',*,*,#566,.F.);
#746=ORIENTED_EDGE('',*,*,#574,.F.);
#747=ORIENTED_EDGE('',*,*,#571,.F.);
#748=ORIENTED_EDGE('',*,*,#575,.F.);
#749=ORIENTED_EDGE('',*,*,#573,.F.);
#750=ORIENTED_EDGE('',*,*,#576,.F.);
#751=ORIENTED_EDGE('',*,*,#577,.F.);
#752=ORIENTED_EDGE('',*,*,#578,.F.);
#753=ORIENTED_EDGE('',*,*,#576,.T.);
#754=ORIENTED_EDGE('',*,*,#572,.F.);
#755=ORIENTED_EDGE('',*,*,#574,.T.);
#756=ORIENTED_EDGE('',*,*,#565,.F.);
#757=ORIENTED_EDGE('',*,*,#569,.T.);
#758=ORIENTED_EDGE('',*,*,#579,.F.);
#759=ORIENTED_EDGE('',*,*,#580,.T.);
#760=ORIENTED_EDGE('',*,*,#581,.F.);
#761=ORIENTED_EDGE('',*,*,#582,.T.);
#762=ORIENTED_EDGE('',*,*,#583,.F.);
#763=ORIENTED_EDGE('',*,*,#584,.T.);
#764=ORIENTED_EDGE('',*,*,#585,.F.);
#765=ORIENTED_EDGE('',*,*,#586,.F.);
#766=ORIENTED_EDGE('',*,*,#587,.F.);
#767=ORIENTED_EDGE('',*,*,#588,.F.);
#768=ORIENTED_EDGE('',*,*,#589,.F.);
#769=ORIENTED_EDGE('',*,*,#590,.T.);
#770=ORIENTED_EDGE('',*,*,#591,.F.);
#771=ORIENTED_EDGE('',*,*,#592,.T.);
#772=ORIENTED_EDGE('',*,*,#593,.F.);
#773=ORIENTED_EDGE('',*,*,#594,.T.);
#774=ORIENTED_EDGE('',*,*,#595,.F.);
#775=ORIENTED_EDGE('',*,*,#596,.T.);
#776=ORIENTED_EDGE('',*,*,#597,.F.);
#777=ORIENTED_EDGE('',*,*,#568,.T.);
#778=ORIENTED_EDGE('',*,*,#598,.T.);
#779=ORIENTED_EDGE('',*,*,#599,.T.);
#780=ORIENTED_EDGE('',*,*,#600,.T.);
#781=ORIENTED_EDGE('',*,*,#601,.T.);
#782=ORIENTED_EDGE('',*,*,#602,.T.);
#783=ORIENTED_EDGE('',*,*,#603,.T.);
#784=ORIENTED_EDGE('',*,*,#585,.T.);
#785=ORIENTED_EDGE('',*,*,#604,.T.);
#786=ORIENTED_EDGE('',*,*,#605,.T.);
#787=ORIENTED_EDGE('',*,*,#606,.T.);
#788=ORIENTED_EDGE('',*,*,#579,.T.);
#789=ORIENTED_EDGE('',*,*,#607,.T.);
#790=ORIENTED_EDGE('',*,*,#608,.T.);
#791=ORIENTED_EDGE('',*,*,#591,.T.);
#792=ORIENTED_EDGE('',*,*,#609,.T.);
#793=ORIENTED_EDGE('',*,*,#608,.F.);
#794=ORIENTED_EDGE('',*,*,#610,.F.);
#795=ORIENTED_EDGE('',*,*,#611,.F.);
#796=ORIENTED_EDGE('',*,*,#592,.F.);
#797=ORIENTED_EDGE('',*,*,#612,.T.);
#798=ORIENTED_EDGE('',*,*,#613,.T.);
#799=ORIENTED_EDGE('',*,*,#593,.T.);
#800=ORIENTED_EDGE('',*,*,#611,.T.);
#801=ORIENTED_EDGE('',*,*,#613,.F.);
#802=ORIENTED_EDGE('',*,*,#614,.F.);
#803=ORIENTED_EDGE('',*,*,#615,.F.);
#804=ORIENTED_EDGE('',*,*,#594,.F.);
#805=ORIENTED_EDGE('',*,*,#616,.T.);
#806=ORIENTED_EDGE('',*,*,#617,.T.);
#807=ORIENTED_EDGE('',*,*,#595,.T.);
#808=ORIENTED_EDGE('',*,*,#615,.T.);
#809=ORIENTED_EDGE('',*,*,#617,.F.);
#810=ORIENTED_EDGE('',*,*,#618,.F.);
#811=ORIENTED_EDGE('',*,*,#619,.F.);
#812=ORIENTED_EDGE('',*,*,#596,.F.);
#813=ORIENTED_EDGE('',*,*,#620,.T.);
#814=ORIENTED_EDGE('',*,*,#621,.T.);
#815=ORIENTED_EDGE('',*,*,#597,.T.);
#816=ORIENTED_EDGE('',*,*,#619,.T.);
#817=ORIENTED_EDGE('',*,*,#609,.F.);
#818=ORIENTED_EDGE('',*,*,#590,.F.);
#819=ORIENTED_EDGE('',*,*,#621,.F.);
#820=ORIENTED_EDGE('',*,*,#622,.F.);
#821=ORIENTED_EDGE('',*,*,#623,.F.);
#822=ORIENTED_EDGE('',*,*,#624,.T.);
#823=ORIENTED_EDGE('',*,*,#583,.T.);
#824=ORIENTED_EDGE('',*,*,#625,.T.);
#825=ORIENTED_EDGE('',*,*,#625,.F.);
#826=ORIENTED_EDGE('',*,*,#582,.F.);
#827=ORIENTED_EDGE('',*,*,#626,.F.);
#828=ORIENTED_EDGE('',*,*,#627,.F.);
#829=ORIENTED_EDGE('',*,*,#628,.F.);
#830=ORIENTED_EDGE('',*,*,#626,.T.);
#831=ORIENTED_EDGE('',*,*,#581,.T.);
#832=ORIENTED_EDGE('',*,*,#629,.T.);
#833=ORIENTED_EDGE('',*,*,#629,.F.);
#834=ORIENTED_EDGE('',*,*,#580,.F.);
#835=ORIENTED_EDGE('',*,*,#606,.F.);
#836=ORIENTED_EDGE('',*,*,#630,.F.);
#837=ORIENTED_EDGE('',*,*,#631,.F.);
#838=ORIENTED_EDGE('',*,*,#632,.T.);
#839=ORIENTED_EDGE('',*,*,#633,.T.);
#840=ORIENTED_EDGE('',*,*,#634,.T.);
#841=ORIENTED_EDGE('',*,*,#632,.F.);
#842=ORIENTED_EDGE('',*,*,#635,.T.);
#843=ORIENTED_EDGE('',*,*,#599,.F.);
#844=ORIENTED_EDGE('',*,*,#636,.F.);
#845=ORIENTED_EDGE('',*,*,#637,.F.);
#846=ORIENTED_EDGE('',*,*,#638,.T.);
#847=ORIENTED_EDGE('',*,*,#639,.T.);
#848=ORIENTED_EDGE('',*,*,#640,.T.);
#849=ORIENTED_EDGE('',*,*,#631,.T.);
#850=ORIENTED_EDGE('',*,*,#641,.F.);
#851=ORIENTED_EDGE('',*,*,#637,.T.);
#852=ORIENTED_EDGE('',*,*,#642,.F.);
#853=ORIENTED_EDGE('',*,*,#600,.F.);
#854=ORIENTED_EDGE('',*,*,#635,.F.);
#855=ORIENTED_EDGE('',*,*,#640,.F.);
#856=ORIENTED_EDGE('',*,*,#643,.F.);
#857=ORIENTED_EDGE('',*,*,#601,.F.);
#858=ORIENTED_EDGE('',*,*,#642,.T.);
#859=ORIENTED_EDGE('',*,*,#644,.F.);
#860=ORIENTED_EDGE('',*,*,#645,.T.);
#861=ORIENTED_EDGE('',*,*,#646,.T.);
#862=ORIENTED_EDGE('',*,*,#647,.T.);
#863=ORIENTED_EDGE('',*,*,#647,.F.);
#864=ORIENTED_EDGE('',*,*,#648,.F.);
#865=ORIENTED_EDGE('',*,*,#555,.F.);
#866=ORIENTED_EDGE('',*,*,#649,.F.);
#867=ORIENTED_EDGE('',*,*,#650,.F.);
#868=ORIENTED_EDGE('',*,*,#651,.T.);
#869=ORIENTED_EDGE('',*,*,#652,.T.);
#870=ORIENTED_EDGE('',*,*,#653,.T.);
#871=ORIENTED_EDGE('',*,*,#645,.F.);
#872=ORIENTED_EDGE('',*,*,#654,.F.);
#873=ORIENTED_EDGE('',*,*,#653,.F.);
#874=ORIENTED_EDGE('',*,*,#655,.F.);
#875=ORIENTED_EDGE('',*,*,#656,.F.);
#876=ORIENTED_EDGE('',*,*,#657,.T.);
#877=ORIENTED_EDGE('',*,*,#545,.T.);
#878=ORIENTED_EDGE('',*,*,#658,.T.);
#879=ORIENTED_EDGE('',*,*,#656,.T.);
#880=ORIENTED_EDGE('',*,*,#659,.F.);
#881=ORIENTED_EDGE('',*,*,#660,.T.);
#882=ORIENTED_EDGE('',*,*,#661,.F.);
#883=ORIENTED_EDGE('',*,*,#559,.F.);
#884=ORIENTED_EDGE('',*,*,#662,.F.);
#885=ORIENTED_EDGE('',*,*,#658,.F.);
#886=ORIENTED_EDGE('',*,*,#544,.F.);
#887=ORIENTED_EDGE('',*,*,#663,.F.);
#888=ORIENTED_EDGE('',*,*,#659,.T.);
#889=ORIENTED_EDGE('',*,*,#660,.F.);
#890=ORIENTED_EDGE('',*,*,#663,.T.);
#891=ORIENTED_EDGE('',*,*,#543,.T.);
#892=ORIENTED_EDGE('',*,*,#664,.T.);
#893=ORIENTED_EDGE('',*,*,#651,.F.);
#894=ORIENTED_EDGE('',*,*,#665,.F.);
#895=ORIENTED_EDGE('',*,*,#553,.F.);
#896=ORIENTED_EDGE('',*,*,#666,.F.);
#897=ORIENTED_EDGE('',*,*,#644,.T.);
#898=ORIENTED_EDGE('',*,*,#649,.T.);
#899=ORIENTED_EDGE('',*,*,#554,.F.);
#900=ORIENTED_EDGE('',*,*,#665,.T.);
#901=ORIENTED_EDGE('',*,*,#650,.T.);
#902=ORIENTED_EDGE('',*,*,#654,.T.);
#903=ORIENTED_EDGE('',*,*,#525,.T.);
#904=ORIENTED_EDGE('',*,*,#562,.T.);
#905=ORIENTED_EDGE('',*,*,#667,.F.);
#906=ORIENTED_EDGE('',*,*,#668,.T.);
#907=ORIENTED_EDGE('',*,*,#669,.F.);
#908=ORIENTED_EDGE('',*,*,#556,.T.);
#909=ORIENTED_EDGE('',*,*,#648,.T.);
#910=ORIENTED_EDGE('',*,*,#646,.F.);
#911=ORIENTED_EDGE('',*,*,#655,.T.);
#912=ORIENTED_EDGE('',*,*,#652,.F.);
#913=ORIENTED_EDGE('',*,*,#666,.T.);
#914=ORIENTED_EDGE('',*,*,#552,.T.);
#915=ORIENTED_EDGE('',*,*,#532,.T.);
#916=ORIENTED_EDGE('',*,*,#533,.T.);
#917=ORIENTED_EDGE('',*,*,#536,.T.);
#918=ORIENTED_EDGE('',*,*,#539,.T.);
#919=ORIENTED_EDGE('',*,*,#657,.F.);
#920=ORIENTED_EDGE('',*,*,#662,.T.);
#921=ORIENTED_EDGE('',*,*,#558,.F.);
#922=ORIENTED_EDGE('',*,*,#546,.F.);
#923=ORIENTED_EDGE('',*,*,#664,.F.);
#924=ORIENTED_EDGE('',*,*,#542,.F.);
#925=ORIENTED_EDGE('',*,*,#560,.F.);
#926=ORIENTED_EDGE('',*,*,#661,.T.);
#927=ORIENTED_EDGE('',*,*,#624,.F.);
#928=ORIENTED_EDGE('',*,*,#670,.F.);
#929=ORIENTED_EDGE('',*,*,#604,.F.);
#930=ORIENTED_EDGE('',*,*,#584,.F.);
#931=ORIENTED_EDGE('',*,*,#623,.T.);
#932=ORIENTED_EDGE('',*,*,#627,.T.);
#933=ORIENTED_EDGE('',*,*,#628,.T.);
#934=ORIENTED_EDGE('',*,*,#630,.T.);
#935=ORIENTED_EDGE('',*,*,#605,.F.);
#936=ORIENTED_EDGE('',*,*,#670,.T.);
#937=ORIENTED_EDGE('',*,*,#634,.F.);
#938=ORIENTED_EDGE('',*,*,#671,.F.);
#939=ORIENTED_EDGE('',*,*,#638,.F.);
#940=ORIENTED_EDGE('',*,*,#641,.T.);
#941=ORIENTED_EDGE('',*,*,#578,.T.);
#942=ORIENTED_EDGE('',*,*,#672,.F.);
#943=ORIENTED_EDGE('',*,*,#673,.F.);
#944=ORIENTED_EDGE('',*,*,#674,.T.);
#945=ORIENTED_EDGE('',*,*,#675,.F.);
#946=ORIENTED_EDGE('',*,*,#602,.F.);
#947=ORIENTED_EDGE('',*,*,#643,.T.);
#948=ORIENTED_EDGE('',*,*,#639,.F.);
#949=ORIENTED_EDGE('',*,*,#671,.T.);
#950=ORIENTED_EDGE('',*,*,#633,.F.);
#951=ORIENTED_EDGE('',*,*,#636,.T.);
#952=ORIENTED_EDGE('',*,*,#598,.F.);
#953=ORIENTED_EDGE('',*,*,#567,.T.);
#954=ORIENTED_EDGE('',*,*,#563,.F.);
#955=ORIENTED_EDGE('',*,*,#575,.T.);
#956=ORIENTED_EDGE('',*,*,#570,.F.);
#957=ORIENTED_EDGE('',*,*,#622,.T.);
#958=ORIENTED_EDGE('',*,*,#620,.F.);
#959=ORIENTED_EDGE('',*,*,#618,.T.);
#960=ORIENTED_EDGE('',*,*,#616,.F.);
#961=ORIENTED_EDGE('',*,*,#614,.T.);
#962=ORIENTED_EDGE('',*,*,#612,.F.);
#963=ORIENTED_EDGE('',*,*,#610,.T.);
#964=ORIENTED_EDGE('',*,*,#607,.F.);
#965=ORIENTED_EDGE('',*,*,#557,.T.);
#966=ORIENTED_EDGE('',*,*,#669,.T.);
#967=ORIENTED_EDGE('',*,*,#676,.T.);
#968=ORIENTED_EDGE('',*,*,#586,.T.);
#969=ORIENTED_EDGE('',*,*,#603,.F.);
#970=ORIENTED_EDGE('',*,*,#675,.T.);
#971=ORIENTED_EDGE('',*,*,#677,.T.);
#972=ORIENTED_EDGE('',*,*,#548,.T.);
#973=ORIENTED_EDGE('',*,*,#577,.T.);
#974=ORIENTED_EDGE('',*,*,#589,.T.);
#975=ORIENTED_EDGE('',*,*,#678,.T.);
#976=ORIENTED_EDGE('',*,*,#672,.T.);
#977=ORIENTED_EDGE('',*,*,#561,.T.);
#978=ORIENTED_EDGE('',*,*,#550,.T.);
#979=ORIENTED_EDGE('',*,*,#679,.T.);
#980=ORIENTED_EDGE('',*,*,#673,.T.);
#981=ORIENTED_EDGE('',*,*,#678,.F.);
#982=ORIENTED_EDGE('',*,*,#588,.T.);
#983=ORIENTED_EDGE('',*,*,#680,.T.);
#984=ORIENTED_EDGE('',*,*,#667,.T.);
#985=ORIENTED_EDGE('',*,*,#549,.T.);
#986=ORIENTED_EDGE('',*,*,#677,.F.);
#987=ORIENTED_EDGE('',*,*,#674,.F.);
#988=ORIENTED_EDGE('',*,*,#679,.F.);
#989=ORIENTED_EDGE('',*,*,#587,.T.);
#990=ORIENTED_EDGE('',*,*,#676,.F.);
#991=ORIENTED_EDGE('',*,*,#668,.F.);
#992=ORIENTED_EDGE('',*,*,#680,.F.);
#993=PLANE('',#1097);
#994=PLANE('',#1098);
#995=PLANE('',#1102);
#996=PLANE('',#1106);
#997=PLANE('',#1109);
#998=PLANE('',#1110);
#999=PLANE('',#1114);
#1000=PLANE('',#1118);
#1001=PLANE('',#1119);
#1002=PLANE('',#1120);
#1003=PLANE('',#1127);
#1004=PLANE('',#1130);
#1005=PLANE('',#1133);
#1006=PLANE('',#1136);
#1007=PLANE('',#1139);
#1008=PLANE('',#1142);
#1009=PLANE('',#1145);
#1010=PLANE('',#1149);
#1011=PLANE('',#1153);
#1012=PLANE('',#1154);
#1013=PLANE('',#1158);
#1014=PLANE('',#1162);
#1015=PLANE('',#1165);
#1016=PLANE('',#1167);
#1017=PLANE('',#1169);
#1018=PLANE('',#1170);
#1019=PLANE('',#1171);
#1020=PLANE('',#1172);
#1021=PLANE('',#1173);
#1022=PLANE('',#1174);
#1023=PLANE('',#1175);
#1024=PLANE('',#1176);
#1025=PLANE('',#1177);
#1026=PLANE('',#1178);
#1027=PLANE('',#1181);
#1028=PLANE('',#1182);
#1029=ADVANCED_FACE('',(#71),#993,.F.);
#1030=ADVANCED_FACE('',(#72),#994,.F.);
#1031=ADVANCED_FACE('',(#73),#53,.F.);
#1032=ADVANCED_FACE('',(#74),#995,.F.);
#1033=ADVANCED_FACE('',(#75),#54,.F.);
#1034=ADVANCED_FACE('',(#76),#996,.T.);
#1035=ADVANCED_FACE('',(#77),#997,.F.);
#1036=ADVANCED_FACE('',(#78),#998,.F.);
#1037=ADVANCED_FACE('',(#79),#55,.F.);
#1038=ADVANCED_FACE('',(#80),#999,.F.);
#1039=ADVANCED_FACE('',(#81),#56,.F.);
#1040=ADVANCED_FACE('',(#82),#1000,.F.);
#1041=ADVANCED_FACE('',(#83),#1001,.F.);
#1042=ADVANCED_FACE('',(#84,#15),#1002,.T.);
#1043=ADVANCED_FACE('',(#85),#1003,.T.);
#1044=ADVANCED_FACE('',(#86),#57,.F.);
#1045=ADVANCED_FACE('',(#87),#1004,.F.);
#1046=ADVANCED_FACE('',(#88),#58,.F.);
#1047=ADVANCED_FACE('',(#89),#1005,.F.);
#1048=ADVANCED_FACE('',(#90),#59,.F.);
#1049=ADVANCED_FACE('',(#91),#1006,.F.);
#1050=ADVANCED_FACE('',(#92),#60,.F.);
#1051=ADVANCED_FACE('',(#93),#1007,.F.);
#1052=ADVANCED_FACE('',(#94),#61,.F.);
#1053=ADVANCED_FACE('',(#95),#1008,.F.);
#1054=ADVANCED_FACE('',(#96),#62,.F.);
#1055=ADVANCED_FACE('',(#97),#1009,.F.);
#1056=ADVANCED_FACE('',(#98),#63,.F.);
#1057=ADVANCED_FACE('',(#99),#1010,.F.);
#1058=ADVANCED_FACE('',(#100),#64,.F.);
#1059=ADVANCED_FACE('',(#101),#1011,.F.);
#1060=ADVANCED_FACE('',(#102),#1012,.F.);
#1061=ADVANCED_FACE('',(#103),#65,.F.);
#1062=ADVANCED_FACE('',(#104),#1013,.F.);
#1063=ADVANCED_FACE('',(#105),#66,.F.);
#1064=ADVANCED_FACE('',(#106),#1014,.F.);
#1065=ADVANCED_FACE('',(#107),#67,.F.);
#1066=ADVANCED_FACE('',(#108),#1015,.F.);
#1067=ADVANCED_FACE('',(#109),#1016,.F.);
#1068=ADVANCED_FACE('',(#110),#68,.F.);
#1069=ADVANCED_FACE('',(#111),#1017,.F.);
#1070=ADVANCED_FACE('',(#112),#1018,.T.);
#1071=ADVANCED_FACE('',(#113),#1019,.T.);
#1072=ADVANCED_FACE('',(#114),#1020,.F.);
#1073=ADVANCED_FACE('',(#115),#1021,.F.);
#1074=ADVANCED_FACE('',(#116),#1022,.F.);
#1075=ADVANCED_FACE('',(#117),#1023,.T.);
#1076=ADVANCED_FACE('',(#118),#1024,.F.);
#1077=ADVANCED_FACE('',(#119,#16),#1025,.T.);
#1078=ADVANCED_FACE('',(#120),#1026,.F.);
#1079=ADVANCED_FACE('',(#121),#1027,.T.);
#1080=ADVANCED_FACE('',(#122),#1028,.T.);
#1081=ADVANCED_FACE('',(#123),#69,.T.);
#1082=ADVANCED_FACE('',(#124),#70,.F.);
#1083=CLOSED_SHELL('',(#1029,#1030,#1031,#1032,#1033,#1034,#1035,#1036,
#1037,#1038,#1039,#1040,#1041,#1042,#1043,#1044,#1045,#1046,#1047,#1048,
#1049,#1050,#1051,#1052,#1053,#1054,#1055,#1056,#1057,#1058,#1059,#1060,
#1061,#1062,#1063,#1064,#1065,#1066,#1067,#1068,#1069,#1070,#1071,#1072,
#1073,#1074,#1075,#1076,#1077,#1078,#1079,#1080,#1081,#1082));
#1084=DERIVED_UNIT_ELEMENT(#1086,1.);
#1085=DERIVED_UNIT_ELEMENT(#1809,-3.);
#1086=(
MASS_UNIT()
NAMED_UNIT(*)
SI_UNIT(.KILO.,.GRAM.)
);
#1087=DERIVED_UNIT((#1084,#1085));
#1088=MEASURE_REPRESENTATION_ITEM('density measure',
POSITIVE_RATIO_MEASURE(7850.),#1087);
#1089=PROPERTY_DEFINITION_REPRESENTATION(#1094,#1091);
#1090=PROPERTY_DEFINITION_REPRESENTATION(#1095,#1092);
#1091=REPRESENTATION('material name',(#1093),#1806);
#1092=REPRESENTATION('density',(#1088),#1806);
#1093=DESCRIPTIVE_REPRESENTATION_ITEM('Steel','Steel');
#1094=PROPERTY_DEFINITION('material property','material name',#1816);
#1095=PROPERTY_DEFINITION('material property','density of part',#1816);
#1096=AXIS2_PLACEMENT_3D('',#1489,#1187,#1188);
#1097=AXIS2_PLACEMENT_3D('',#1490,#1189,#1190);
#1098=AXIS2_PLACEMENT_3D('',#1499,#1195,#1196);
#1099=AXIS2_PLACEMENT_3D('',#1508,#1201,#1202);
#1100=AXIS2_PLACEMENT_3D('',#1510,#1203,#1204);
#1101=AXIS2_PLACEMENT_3D('',#1512,#1205,#1206);
#1102=AXIS2_PLACEMENT_3D('',#1514,#1208,#1209);
#1103=AXIS2_PLACEMENT_3D('',#1520,#1213,#1214);
#1104=AXIS2_PLACEMENT_3D('',#1521,#1215,#1216);
#1105=AXIS2_PLACEMENT_3D('',#1522,#1217,#1218);
#1106=AXIS2_PLACEMENT_3D('',#1523,#1219,#1220);
#1107=AXIS2_PLACEMENT_3D('',#1529,#1223,#1224);
#1108=AXIS2_PLACEMENT_3D('',#1533,#1226,#1227);
#1109=AXIS2_PLACEMENT_3D('',#1545,#1234,#1235);
#1110=AXIS2_PLACEMENT_3D('',#1562,#1245,#1246);
#1111=AXIS2_PLACEMENT_3D('',#1566,#1249,#1250);
#1112=AXIS2_PLACEMENT_3D('',#1569,#1251,#1252);
#1113=AXIS2_PLACEMENT_3D('',#1573,#1254,#1255);
#1114=AXIS2_PLACEMENT_3D('',#1575,#1257,#1258);
#1115=AXIS2_PLACEMENT_3D('',#1581,#1262,#1263);
#1116=AXIS2_PLACEMENT_3D('',#1584,#1264,#1265);
#1117=AXIS2_PLACEMENT_3D('',#1588,#1267,#1268);
#1118=AXIS2_PLACEMENT_3D('',#1590,#1270,#1271);
#1119=AXIS2_PLACEMENT_3D('',#1593,#1274,#1275);
#1120=AXIS2_PLACEMENT_3D('',#1599,#1279,#1280);
#1121=AXIS2_PLACEMENT_3D('',#1605,#1283,#1284);
#1122=AXIS2_PLACEMENT_3D('',#1609,#1286,#1287);
#1123=AXIS2_PLACEMENT_3D('',#1625,#1295,#1296);
#1124=AXIS2_PLACEMENT_3D('',#1629,#1298,#1299);
#1125=AXIS2_PLACEMENT_3D('',#1633,#1301,#1302);
#1126=AXIS2_PLACEMENT_3D('',#1636,#1304,#1305);
#1127=AXIS2_PLACEMENT_3D('',#1637,#1306,#1307);
#1128=AXIS2_PLACEMENT_3D('',#1654,#1317,#1318);
#1129=AXIS2_PLACEMENT_3D('',#1657,#1319,#1320);
#1130=AXIS2_PLACEMENT_3D('',#1660,#1323,#1324);
#1131=AXIS2_PLACEMENT_3D('',#1664,#1327,#1328);
#1132=AXIS2_PLACEMENT_3D('',#1666,#1329,#1330);
#1133=AXIS2_PLACEMENT_3D('',#1668,#1332,#1333);
#1134=AXIS2_PLACEMENT_3D('',#1672,#1336,#1337);
#1135=AXIS2_PLACEMENT_3D('',#1674,#1338,#1339);
#1136=AXIS2_PLACEMENT_3D('',#1676,#1341,#1342);
#1137=AXIS2_PLACEMENT_3D('',#1680,#1345,#1346);
#1138=AXIS2_PLACEMENT_3D('',#1682,#1347,#1348);
#1139=AXIS2_PLACEMENT_3D('',#1684,#1350,#1351);
#1140=AXIS2_PLACEMENT_3D('',#1686,#1353,#1354);
#1141=AXIS2_PLACEMENT_3D('',#1689,#1355,#1356);
#1142=AXIS2_PLACEMENT_3D('',#1692,#1359,#1360);
#1143=AXIS2_PLACEMENT_3D('',#1696,#1363,#1364);
#1144=AXIS2_PLACEMENT_3D('',#1698,#1365,#1366);
#1145=AXIS2_PLACEMENT_3D('',#1700,#1368,#1369);
#1146=AXIS2_PLACEMENT_3D('',#1702,#1371,#1372);
#1147=AXIS2_PLACEMENT_3D('',#1705,#1373,#1374);
#1148=AXIS2_PLACEMENT_3D('',#1709,#1376,#1377);
#1149=AXIS2_PLACEMENT_3D('',#1711,#1379,#1380);
#1150=AXIS2_PLACEMENT_3D('',#1714,#1383,#1384);
#1151=AXIS2_PLACEMENT_3D('',#1717,#1385,#1386);
#1152=AXIS2_PLACEMENT_3D('',#1721,#1388,#1389);
#1153=AXIS2_PLACEMENT_3D('',#1723,#1391,#1392);
#1154=AXIS2_PLACEMENT_3D('',#1726,#1395,#1396);
#1155=AXIS2_PLACEMENT_3D('',#1728,#1398,#1399);
#1156=AXIS2_PLACEMENT_3D('',#1731,#1400,#1401);
#1157=AXIS2_PLACEMENT_3D('',#1735,#1403,#1404);
#1158=AXIS2_PLACEMENT_3D('',#1737,#1406,#1407);
#1159=AXIS2_PLACEMENT_3D('',#1740,#1410,#1411);
#1160=AXIS2_PLACEMENT_3D('',#1743,#1412,#1413);
#1161=AXIS2_PLACEMENT_3D('',#1747,#1415,#1416);
#1162=AXIS2_PLACEMENT_3D('',#1749,#1418,#1419);
#1163=AXIS2_PLACEMENT_3D('',#1752,#1422,#1423);
#1164=AXIS2_PLACEMENT_3D('',#1755,#1424,#1425);
#1165=AXIS2_PLACEMENT_3D('',#1758,#1428,#1429);
#1166=AXIS2_PLACEMENT_3D('',#1762,#1431,#1432);
#1167=AXIS2_PLACEMENT_3D('',#1765,#1435,#1436);
#1168=AXIS2_PLACEMENT_3D('',#1767,#1438,#1439);
#1169=AXIS2_PLACEMENT_3D('',#1769,#1441,#1442);
#1170=AXIS2_PLACEMENT_3D('',#1772,#1445,#1446);
#1171=AXIS2_PLACEMENT_3D('',#1773,#1447,#1448);
#1172=AXIS2_PLACEMENT_3D('',#1779,#1452,#1453);
#1173=AXIS2_PLACEMENT_3D('',#1780,#1454,#1455);
#1174=AXIS2_PLACEMENT_3D('',#1781,#1456,#1457);
#1175=AXIS2_PLACEMENT_3D('',#1783,#1459,#1460);
#1176=AXIS2_PLACEMENT_3D('',#1784,#1461,#1462);
#1177=AXIS2_PLACEMENT_3D('',#1786,#1464,#1465);
#1178=AXIS2_PLACEMENT_3D('',#1794,#1470,#1471);
#1179=AXIS2_PLACEMENT_3D('',#1795,#1472,#1473);
#1180=AXIS2_PLACEMENT_3D('',#1796,#1474,#1475);
#1181=AXIS2_PLACEMENT_3D('',#1797,#1476,#1477);
#1182=AXIS2_PLACEMENT_3D('',#1799,#1479,#1480);
#1183=AXIS2_PLACEMENT_3D('',#1800,#1481,#1482);
#1184=AXIS2_PLACEMENT_3D('',#1801,#1483,#1484);
#1185=AXIS2_PLACEMENT_3D('',#1802,#1485,#1486);
#1186=AXIS2_PLACEMENT_3D('',#1803,#1487,#1488);
#1187=DIRECTION('axis',(0.,0.,1.));
#1188=DIRECTION('refdir',(1.,0.,0.));
#1189=DIRECTION('center_axis',(2.28116137282726E-16,1.00929365875016E-16,
1.));
#1190=DIRECTION('ref_axis',(-1.,-6.24694558003462E-15,2.28116137282726E-16));
#1191=DIRECTION('',(1.,-5.39778999686614E-16,-2.28116137282726E-16));
#1192=DIRECTION('',(6.05576195250085E-15,-1.,1.00929365875014E-16));
#1193=DIRECTION('',(-1.,2.84883360945713E-16,2.28116137282726E-16));
#1194=DIRECTION('',(1.26882645701022E-15,1.,-1.00929365875016E-16));
#1195=DIRECTION('center_axis',(-2.28116137282726E-16,-1.00929365875016E-16,
-1.));
#1196=DIRECTION('ref_axis',(1.,9.40914013369853E-15,-2.28116137282727E-16));
#1197=DIRECTION('',(-1.26882645701022E-15,-1.,1.00929365875016E-16));
#1198=DIRECTION('',(1.,-2.84883360945713E-16,-2.28116137282726E-16));
#1199=DIRECTION('',(6.05576195250085E-15,-1.,1.00929365875014E-16));
#1200=DIRECTION('',(-1.,5.39778999686614E-16,2.28116137282726E-16));
#1201=DIRECTION('center_axis',(6.05576195250085E-15,-1.,1.00929365875014E-16));
#1202=DIRECTION('ref_axis',(8.65366805971866E-15,-1.00929365874962E-16,
-1.));
#1203=DIRECTION('center_axis',(5.39778999686614E-16,1.,0.));
#1204=DIRECTION('ref_axis',(8.65366805971866E-15,-1.00929365874962E-16,
-1.));
#1205=DIRECTION('center_axis',(-2.84883360945713E-16,-1.,0.));
#1206=DIRECTION('ref_axis',(8.65366805971866E-15,-1.00929365874962E-16,
-1.));
#1207=DIRECTION('',(6.05576195250085E-15,-1.,1.00929365875014E-16));
#1208=DIRECTION('center_axis',(-1.,-6.05576195250085E-15,2.28116137282705E-16));
#1209=DIRECTION('ref_axis',(-2.28116137282666E-16,-6.43662293237057E-15,
-1.));
#1210=DIRECTION('',(2.28116137282705E-16,-1.23132300394833E-31,1.));
#1211=DIRECTION('',(-2.28116137282705E-16,6.49864918750508E-32,-1.));
#1212=DIRECTION('',(6.05576195250085E-15,-1.,1.00929365875014E-16));
#1213=DIRECTION('center_axis',(6.05576195250085E-15,-1.,1.00929365875014E-16));
#1214=DIRECTION('ref_axis',(-1.,-6.05576195250085E-15,2.28116137282726E-16));
#1215=DIRECTION('center_axis',(5.39778999686614E-16,1.,0.));
#1216=DIRECTION('ref_axis',(-1.,-6.05576195250085E-15,2.28116137282726E-16));
#1217=DIRECTION('center_axis',(-2.84883360945713E-16,-1.,0.));
#1218=DIRECTION('ref_axis',(-1.,-6.05576195250085E-15,2.28116137282726E-16));
#1219=DIRECTION('center_axis',(2.84883360945713E-16,1.,0.));
#1220=DIRECTION('ref_axis',(1.,-2.84883360945713E-16,0.));
#1221=DIRECTION('',(0.,0.,-1.));
#1222=DIRECTION('',(-1.,2.84883360945713E-16,4.69418512945653E-30));
#1223=DIRECTION('center_axis',(2.84883360945713E-16,1.,0.));
#1224=DIRECTION('ref_axis',(-0.707106781186546,0.,0.707106781186549));
#1225=DIRECTION('',(0.,0.,-1.));
#1226=DIRECTION('center_axis',(2.84883360945713E-16,1.,0.));
#1227=DIRECTION('ref_axis',(-0.707106781186548,0.,-0.707106781186548));
#1228=DIRECTION('',(1.,-2.84883360945713E-16,5.06054506647248E-31));
#1229=DIRECTION('',(0.,0.,-1.));
#1230=DIRECTION('',(1.,-2.84883360945713E-16,0.));
#1231=DIRECTION('',(0.,0.,-1.));
#1232=DIRECTION('',(-1.,2.84883360945713E-16,0.));
#1233=DIRECTION('',(0.,0.,-1.));
#1234=DIRECTION('center_axis',(-1.,1.26882645701022E-15,0.));
#1235=DIRECTION('ref_axis',(-1.26882645701022E-15,-1.,0.));
#1236=DIRECTION('',(0.,0.,1.));
#1237=DIRECTION('',(1.26882645701022E-15,1.,-1.97372982155583E-15));
#1238=DIRECTION('',(-2.81736069365262E-30,-2.22044604925031E-15,-1.));
#1239=DIRECTION('',(-1.26882645701022E-15,-1.,1.97372982155583E-15));
#1240=DIRECTION('',(0.,0.,1.));
#1241=DIRECTION('',(-1.26882645701022E-15,-1.,0.));
#1242=DIRECTION('',(-1.26882645701022E-15,-1.,1.77635683940025E-15));
#1243=DIRECTION('',(2.2538885549221E-30,1.77635683940025E-15,1.));
#1244=DIRECTION('',(1.26882645701022E-15,1.,-1.77635683940025E-15));
#1245=DIRECTION('center_axis',(-1.,1.26882645701022E-15,0.));
#1246=DIRECTION('ref_axis',(-1.26882645701022E-15,-1.,0.));
#1247=DIRECTION('',(1.26882645701022E-15,1.,0.));
#1248=DIRECTION('',(0.,0.,1.));
#1249=DIRECTION('center_axis',(0.866025403784442,0.499999999999994,1.08845394571094E-17));
#1250=DIRECTION('ref_axis',(-0.353553390593268,0.612372435695794,-0.70710678118655));
#1251=DIRECTION('center_axis',(-0.866025403784439,-0.5,0.));
#1252=DIRECTION('ref_axis',(-0.353553390593268,0.612372435695794,-0.70710678118655));
#1253=DIRECTION('',(0.866025403784442,0.499999999999994,1.08845394571094E-17));
#1254=DIRECTION('center_axis',(0.866025403784439,0.5,0.));
#1255=DIRECTION('ref_axis',(-0.353553390593268,0.612372435695794,-0.70710678118655));
#1256=DIRECTION('',(-0.866025403784442,-0.499999999999994,-1.08845394571094E-17));
#1257=DIRECTION('center_axis',(9.90482144186168E-18,4.61342493701668E-18,
-1.));
#1258=DIRECTION('ref_axis',(-0.499999999999994,0.866025403784442,-9.57067527021696E-19));
#1259=DIRECTION('',(-0.5,0.866025403784439,-9.57067527021767E-19));
#1260=DIRECTION('',(-0.866025403784439,-0.499999999999999,-1.08845394571094E-17));
#1261=DIRECTION('',(0.5,-0.866025403784439,9.57067527021768E-19));
#1262=DIRECTION('center_axis',(0.866025403784442,0.499999999999994,1.08845394571094E-17));
#1263=DIRECTION('ref_axis',(-0.353553390593265,0.612372435695802,0.707106781186546));
#1264=DIRECTION('center_axis',(-0.866025403784439,-0.5,0.));
#1265=DIRECTION('ref_axis',(-0.353553390593265,0.612372435695802,0.707106781186546));
#1266=DIRECTION('',(0.866025403784442,0.499999999999994,1.08845394571094E-17));
#1267=DIRECTION('center_axis',(0.866025403784439,0.5,0.));
#1268=DIRECTION('ref_axis',(-0.353553390593265,0.612372435695802,0.707106781186546));
#1269=DIRECTION('',(-0.866025403784442,-0.499999999999994,-1.08845394571094E-17));
#1270=DIRECTION('center_axis',(-0.499999999999994,0.866025403784442,1.77540039822192E-15));
#1271=DIRECTION('ref_axis',(8.7384882579997E-16,-1.54553894085894E-15,1.));
#1272=DIRECTION('',(-8.8770019911096E-16,1.53754184674919E-15,-1.));
#1273=DIRECTION('',(8.8770019911096E-16,-1.53754184674919E-15,1.));
#1274=DIRECTION('center_axis',(-9.90489972998302E-18,-4.6132893380129E-18,
1.));
#1275=DIRECTION('ref_axis',(0.499999999999994,-0.866025403784442,9.57224103264364E-19));
#1276=DIRECTION('',(-0.5,0.866025403784439,-9.57224103264437E-19));
#1277=DIRECTION('',(0.866025403784439,0.499999999999999,1.08845394571094E-17));
#1278=DIRECTION('',(0.5,-0.866025403784439,9.57224103264436E-19));
#1279=DIRECTION('center_axis',(0.866025403784439,0.5,0.));
#1280=DIRECTION('ref_axis',(0.5,-0.866025403784439,0.));
#1281=DIRECTION('',(0.,0.,1.));
#1282=DIRECTION('',(-0.5,0.866025403784439,-5.02898827078395E-30));
#1283=DIRECTION('center_axis',(0.866025403784439,0.5,0.));
#1284=DIRECTION('ref_axis',(-0.353553390593279,0.612372435695791,0.707106781186548));
#1285=DIRECTION('',(1.32109151559032E-32,-2.28819762645061E-32,-1.));
#1286=DIRECTION('center_axis',(0.866025403784439,0.5,0.));
#1287=DIRECTION('ref_axis',(-0.353553390593274,0.612372435695794,-0.707106781186548));
#1288=DIRECTION('',(0.5,-0.866025403784439,-9.86076131526265E-32));
#1289=DIRECTION('',(0.,0.,1.));
#1290=DIRECTION('',(0.5,-0.866025403784439,0.));
#1291=DIRECTION('',(0.,0.,-1.));
#1292=DIRECTION('',(-0.5,0.866025403784439,0.));
#1293=DIRECTION('',(0.,0.,1.));
#1294=DIRECTION('',(-0.5,0.866025403784439,0.));
#1295=DIRECTION('center_axis',(0.866025403784439,0.5,0.));
#1296=DIRECTION('ref_axis',(-0.353553390593268,0.612372435695796,0.707106781186549));
#1297=DIRECTION('',(1.23259516440783E-32,-2.13491744991808E-32,-1.));
#1298=DIRECTION('center_axis',(0.866025403784439,0.5,0.));
#1299=DIRECTION('ref_axis',(-0.353553390593267,0.612372435695793,-0.707106781186552));
#1300=DIRECTION('',(0.5,-0.866025403784439,0.));
#1301=DIRECTION('center_axis',(0.866025403784439,0.5,0.));
#1302=DIRECTION('ref_axis',(0.353553390593267,-0.612372435695799,-0.707106781186547));
#1303=DIRECTION('',(0.,0.,1.));
#1304=DIRECTION('center_axis',(0.866025403784439,0.5,0.));
#1305=DIRECTION('ref_axis',(0.353553390593266,-0.612372435695798,0.707106781186548));
#1306=DIRECTION('center_axis',(0.499999999999999,-0.866025403784439,0.));
#1307=DIRECTION('ref_axis',(0.866025403784439,0.499999999999999,0.));
#1308=DIRECTION('',(0.,0.,-1.));
#1309=DIRECTION('',(0.866025403784439,0.499999999999999,-1.77635683940025E-15));
#1310=DIRECTION('',(-1.53837014910685E-15,-8.88178419700123E-16,-1.));
#1311=DIRECTION('',(-0.866025403784439,-0.499999999999999,1.77635683940025E-15));
#1312=DIRECTION('',(0.,0.,-1.));
#1313=DIRECTION('',(0.866025403784439,0.499999999999999,0.));
#1314=DIRECTION('',(-0.866025403784439,-0.499999999999999,1.97372982155583E-15));
#1315=DIRECTION('',(1.92296268638357E-15,1.11022302462516E-15,1.));
#1316=DIRECTION('',(0.866025403784439,0.499999999999999,-1.97372982155583E-15));
#1317=DIRECTION('center_axis',(0.866025403784439,0.5,0.));
#1318=DIRECTION('ref_axis',(-0.353553390593268,0.612372435695796,0.707106781186549));
#1319=DIRECTION('center_axis',(-0.866025403784439,-0.5,0.));
#1320=DIRECTION('ref_axis',(-0.353553390593268,0.612372435695796,0.707106781186549));
#1321=DIRECTION('',(0.866025403784439,0.5,0.));
#1322=DIRECTION('',(-0.866025403784439,-0.5,0.));
#1323=DIRECTION('center_axis',(-0.5,0.866025403784439,-2.46519032881566E-32));
#1324=DIRECTION('ref_axis',(-9.42628767835078E-17,-5.44226972855468E-17,
1.));
#1325=DIRECTION('',(-1.23259516440783E-32,2.13491744991808E-32,1.));
#1326=DIRECTION('',(-0.866025403784439,-0.5,0.));
#1327=DIRECTION('center_axis',(0.866025403784439,0.5,0.));
#1328=DIRECTION('ref_axis',(-0.353553390593267,0.612372435695793,-0.707106781186552));
#1329=DIRECTION('center_axis',(-0.866025403784439,-0.5,0.));
#1330=DIRECTION('ref_axis',(-0.353553390593267,0.612372435695793,-0.707106781186552));
#1331=DIRECTION('',(0.866025403784439,0.5,0.));
#1332=DIRECTION('center_axis',(0.,0.,-1.));
#1333=DIRECTION('ref_axis',(-0.5,0.866025403784439,0.));
#1334=DIRECTION('',(-0.5,0.866025403784439,0.));
#1335=DIRECTION('',(-0.866025403784439,-0.5,0.));
#1336=DIRECTION('center_axis',(0.866025403784439,0.5,0.));
#1337=DIRECTION('ref_axis',(0.353553390593267,-0.612372435695799,-0.707106781186547));
#1338=DIRECTION('center_axis',(-0.866025403784439,-0.5,0.));
#1339=DIRECTION('ref_axis',(0.353553390593267,-0.612372435695799,-0.707106781186547));
#1340=DIRECTION('',(0.866025403784439,0.5,0.));
#1341=DIRECTION('center_axis',(0.5,-0.866025403784439,0.));
#1342=DIRECTION('ref_axis',(0.,0.,-1.));
#1343=DIRECTION('',(0.,0.,-1.));
#1344=DIRECTION('',(-0.866025403784439,-0.5,0.));
#1345=DIRECTION('center_axis',(0.866025403784439,0.5,0.));
#1346=DIRECTION('ref_axis',(0.353553390593266,-0.612372435695798,0.707106781186548));
#1347=DIRECTION('center_axis',(-0.866025403784439,-0.5,0.));
#1348=DIRECTION('ref_axis',(0.353553390593266,-0.612372435695798,0.707106781186548));
#1349=DIRECTION('',(0.866025403784439,0.5,0.));
#1350=DIRECTION('center_axis',(0.,0.,1.));
#1351=DIRECTION('ref_axis',(0.5,-0.866025403784439,0.));
#1352=DIRECTION('',(0.5,-0.866025403784439,0.));
#1353=DIRECTION('center_axis',(0.866025403784439,0.499999999999999,-1.97372982155583E-15));
#1354=DIRECTION('ref_axis',(-0.353553390593274,0.612372435695794,-0.707106781186548));
#1355=DIRECTION('center_axis',(0.866025403784439,0.499999999999999,-2.22044604925032E-15));
#1356=DIRECTION('ref_axis',(-0.353553390593274,0.612372435695794,-0.707106781186548));
#1357=DIRECTION('',(0.866025403784439,0.499999999999999,-1.97372982155583E-15));
#1358=DIRECTION('',(-0.866025403784439,-0.499999999999999,1.97372982155583E-15));
#1359=DIRECTION('center_axis',(-0.499999999999999,0.866025403784439,-2.64218303118065E-32));
#1360=DIRECTION('ref_axis',(-3.94430452610506E-31,-1.97215226305253E-31,
1.));
#1361=DIRECTION('',(0.866025403784439,0.499999999999999,-1.97372982155583E-15));
#1362=DIRECTION('',(1.92296268638357E-15,1.11022302462516E-15,1.));
#1363=DIRECTION('center_axis',(0.866025403784439,0.499999999999999,-1.97372982155583E-15));
#1364=DIRECTION('ref_axis',(-0.353553390593279,0.612372435695791,0.707106781186548));
#1365=DIRECTION('center_axis',(0.866025403784439,0.499999999999999,-2.22044604925032E-15));
#1366=DIRECTION('ref_axis',(-0.353553390593279,0.612372435695791,0.707106781186548));
#1367=DIRECTION('',(-0.866025403784439,-0.499999999999999,1.97372982155583E-15));
#1368=DIRECTION('center_axis',(1.70930016567428E-15,9.86864910777921E-16,
1.));
#1369=DIRECTION('ref_axis',(0.500000000000002,-0.866025403784437,-2.64218303118079E-32));
#1370=DIRECTION('',(0.499999999999999,-0.866025403784439,7.49417859959961E-30));
#1371=DIRECTION('center_axis',(0.866025403784439,0.5,-1.77635683940025E-15));
#1372=DIRECTION('ref_axis',(-0.353553390593279,0.612372435695791,0.707106781186548));
#1373=DIRECTION('center_axis',(-0.866025403784439,-0.5,1.77635683940025E-15));
#1374=DIRECTION('ref_axis',(-0.353553390593279,0.612372435695791,0.707106781186548));
#1375=DIRECTION('',(-0.866025403784439,-0.5,1.77635683940025E-15));
#1376=DIRECTION('center_axis',(-0.866025403784439,-0.5,0.));
#1377=DIRECTION('ref_axis',(-0.353553390593279,0.612372435695791,0.707106781186548));
#1378=DIRECTION('',(0.866025403784439,0.5,-1.77635683940025E-15));
#1379=DIRECTION('center_axis',(1.53837014910685E-15,8.88178419700128E-16,
1.));
#1380=DIRECTION('ref_axis',(0.500000000000002,-0.866025403784437,0.));
#1381=DIRECTION('',(0.500000000000002,-0.866025403784437,-2.64218303118079E-32));
#1382=DIRECTION('',(0.5,-0.866025403784439,4.73316543132607E-30));
#1383=DIRECTION('center_axis',(0.866025403784439,0.5,-1.77635683940025E-15));
#1384=DIRECTION('ref_axis',(-0.353553390593273,0.612372435695791,-0.707106781186551));
#1385=DIRECTION('center_axis',(-0.866025403784439,-0.5,1.77635683940025E-15));
#1386=DIRECTION('ref_axis',(-0.353553390593273,0.612372435695791,-0.707106781186551));
#1387=DIRECTION('',(-0.866025403784439,-0.5,1.77635683940025E-15));
#1388=DIRECTION('center_axis',(-0.866025403784439,-0.5,0.));
#1389=DIRECTION('ref_axis',(-0.353553390593273,0.612372435695791,-0.707106781186551));
#1390=DIRECTION('',(0.866025403784439,0.5,-1.77635683940025E-15));
#1391=DIRECTION('center_axis',(0.866025403784439,0.5,-1.77635683940025E-15));
#1392=DIRECTION('ref_axis',(-2.05116019880913E-15,0.,-1.));
#1393=DIRECTION('',(-3.94430452610506E-31,-1.97215226305253E-31,1.));
#1394=DIRECTION('',(-0.5,0.866025403784439,2.64218303118067E-32));
#1395=DIRECTION('center_axis',(-1.53837014910685E-15,-8.88178419700124E-16,
-1.));
#1396=DIRECTION('ref_axis',(-0.5,0.866025403784439,0.));
#1397=DIRECTION('',(-0.5,0.866025403784439,0.));
#1398=DIRECTION('center_axis',(0.,-1.,1.97372982155583E-15));
#1399=DIRECTION('ref_axis',(-0.707106781186548,0.,-0.707106781186548));
#1400=DIRECTION('center_axis',(0.,-1.,2.22044604925031E-15));
#1401=DIRECTION('ref_axis',(-0.707106781186548,0.,-0.707106781186548));
#1402=DIRECTION('',(0.,-1.,1.97372982155583E-15));
#1403=DIRECTION('center_axis',(-5.39778999686614E-16,-1.,0.));
#1404=DIRECTION('ref_axis',(-0.707106781186548,0.,-0.707106781186548));
#1405=DIRECTION('',(0.,1.,-1.97372982155583E-15));
#1406=DIRECTION('center_axis',(0.,-1.97372982155583E-15,-1.));
#1407=DIRECTION('ref_axis',(1.,0.,0.));
#1408=DIRECTION('',(-1.,5.39778999686614E-16,-1.06537790873105E-30));
#1409=DIRECTION('',(1.,0.,0.));
#1410=DIRECTION('center_axis',(0.,-1.,1.97372982155583E-15));
#1411=DIRECTION('ref_axis',(-0.707106781186546,0.,0.707106781186549));
#1412=DIRECTION('center_axis',(0.,-1.,2.22044604925031E-15));
#1413=DIRECTION('ref_axis',(-0.707106781186546,0.,0.707106781186549));
#1414=DIRECTION('',(0.,-1.,1.97372982155583E-15));
#1415=DIRECTION('center_axis',(-5.39778999686614E-16,-1.,0.));
#1416=DIRECTION('ref_axis',(-0.707106781186546,0.,0.707106781186549));
#1417=DIRECTION('',(0.,1.,-1.97372982155583E-15));
#1418=DIRECTION('center_axis',(-1.,0.,0.));
#1419=DIRECTION('ref_axis',(0.,-1.82967166307768E-15,-1.));
#1420=DIRECTION('',(0.,-2.22044604925031E-15,-1.));
#1421=DIRECTION('',(0.,0.,1.));
#1422=DIRECTION('center_axis',(0.,-1.,1.77635683940025E-15));
#1423=DIRECTION('ref_axis',(-0.707106781186548,0.,-0.707106781186548));
#1424=DIRECTION('center_axis',(0.,1.,-1.77635683940025E-15));
#1425=DIRECTION('ref_axis',(-0.707106781186548,0.,-0.707106781186548));
#1426=DIRECTION('',(0.,1.,-1.77635683940025E-15));
#1427=DIRECTION('',(0.,-1.,1.77635683940025E-15));
#1428=DIRECTION('center_axis',(0.,-1.,1.77635683940025E-15));
#1429=DIRECTION('ref_axis',(0.,-1.77635683940025E-15,-1.));
#1430=DIRECTION('',(0.,-1.82967166307768E-15,-1.));
#1431=DIRECTION('center_axis',(0.,1.,-1.77635683940025E-15));
#1432=DIRECTION('ref_axis',(-0.707106781186546,0.,0.707106781186549));
#1433=DIRECTION('',(-1.,2.92747466092428E-15,0.));
#1434=DIRECTION('',(1.,0.,0.));
#1435=DIRECTION('center_axis',(-1.,0.,0.));
#1436=DIRECTION('ref_axis',(0.,-1.82967166307768E-15,-1.));
#1437=DIRECTION('',(0.,1.,-1.77635683940025E-15));
#1438=DIRECTION('center_axis',(0.,-1.,1.77635683940025E-15));
#1439=DIRECTION('ref_axis',(-0.707106781186546,0.,0.707106781186549));
#1440=DIRECTION('',(0.,-1.,1.77635683940025E-15));
#1441=DIRECTION('center_axis',(5.77804404011531E-30,1.97372982155583E-15,
1.));
#1442=DIRECTION('ref_axis',(-1.,2.92747466092428E-15,0.));
#1443=DIRECTION('',(-1.,1.28298350612683E-44,5.77804404011531E-30));
#1444=DIRECTION('',(1.,-5.39778999686614E-16,-4.71266613138426E-30));
#1445=DIRECTION('center_axis',(0.,-1.,2.22044604925031E-15));
#1446=DIRECTION('ref_axis',(0.,-2.22044604925031E-15,-1.));
#1447=DIRECTION('center_axis',(-5.39778999686614E-16,-1.,0.));
#1448=DIRECTION('ref_axis',(-1.,5.39778999686614E-16,0.));
#1449=DIRECTION('',(1.,-5.39778999686614E-16,0.));
#1450=DIRECTION('',(0.,0.,-1.));
#1451=DIRECTION('',(-1.,5.39778999686614E-16,0.));
#1452=DIRECTION('center_axis',(0.,-1.77635683940025E-15,-1.));
#1453=DIRECTION('ref_axis',(1.,0.,0.));
#1454=DIRECTION('center_axis',(5.20023963610378E-30,1.77635683940025E-15,
1.));
#1455=DIRECTION('ref_axis',(-1.,2.92747466092428E-15,0.));
#1456=DIRECTION('center_axis',(-1.70930016567428E-15,-9.86864910777917E-16,
-1.));
#1457=DIRECTION('ref_axis',(-0.5,0.866025403784439,2.64218303118067E-32));
#1458=DIRECTION('',(-0.499999999999999,0.866025403784439,-2.26797510251041E-30));
#1459=DIRECTION('center_axis',(0.866025403784439,0.499999999999999,-2.22044604925032E-15));
#1460=DIRECTION('ref_axis',(-2.56395024851142E-15,0.,-1.));
#1461=DIRECTION('center_axis',(-0.5,0.866025403784439,0.));
#1462=DIRECTION('ref_axis',(0.,0.,1.));
#1463=DIRECTION('',(0.,0.,1.));
#1464=DIRECTION('center_axis',(-0.866025403784439,-0.5,0.));
#1465=DIRECTION('ref_axis',(-0.5,0.866025403784439,0.));
#1466=DIRECTION('',(0.,0.,-1.));
#1467=DIRECTION('',(0.5,-0.866025403784439,0.));
#1468=DIRECTION('',(0.,0.,-1.));
#1469=DIRECTION('',(-0.5,0.866025403784439,0.));
#1470=DIRECTION('center_axis',(0.,0.,1.));
#1471=DIRECTION('ref_axis',(1.,0.,0.));
#1472=DIRECTION('center_axis',(0.,0.,1.));
#1473=DIRECTION('ref_axis',(-1.1842378929335E-15,1.,0.));
#1474=DIRECTION('center_axis',(0.,0.,-1.));
#1475=DIRECTION('ref_axis',(2.96059473233375E-15,1.,0.));
#1476=DIRECTION('center_axis',(0.499999999999999,-0.866025403784439,0.));
#1477=DIRECTION('ref_axis',(0.866025403784439,0.499999999999999,0.));
#1478=DIRECTION('',(-0.866025403784439,-0.499999999999999,0.));
#1479=DIRECTION('center_axis',(0.,0.,1.));
#1480=DIRECTION('ref_axis',(1.,0.,0.));
#1481=DIRECTION('center_axis',(0.,0.,1.));
#1482=DIRECTION('ref_axis',(2.96059473233375E-15,1.,0.));
#1483=DIRECTION('center_axis',(0.,0.,-1.));
#1484=DIRECTION('ref_axis',(-1.1842378929335E-15,1.,0.));
#1485=DIRECTION('center_axis',(0.,0.,-1.));
#1486=DIRECTION('ref_axis',(2.96059473233375E-15,1.,0.));
#1487=DIRECTION('center_axis',(0.,0.,-1.));
#1488=DIRECTION('ref_axis',(-1.1842378929335E-15,1.,0.));
#1489=CARTESIAN_POINT('',(0.,0.,0.));
#1490=CARTESIAN_POINT('Origin',(-51.8179306876184,59.9999999999994,-3.64899999999975));
#1491=CARTESIAN_POINT('',(-59.8179306876184,53.0000000000001,-3.64899999999975));
#1492=CARTESIAN_POINT('',(-55.8179306876174,53.,-3.64899999999975));
#1493=CARTESIAN_POINT('',(6.99999999999947,53.,-3.64899999999976));
#1494=CARTESIAN_POINT('',(-59.8179306876184,59.9999999999993,-3.64899999999975));
#1495=CARTESIAN_POINT('',(-59.8179306876184,59.9999999999993,-3.64899999999975));
#1496=CARTESIAN_POINT('',(-55.8179306876173,59.9999999999994,-3.64899999999975));
#1497=CARTESIAN_POINT('',(-10.8089656790854,60.,-3.64899999999976));
#1498=CARTESIAN_POINT('',(-55.8179306876173,59.9999999999997,-3.64899999999975));
#1499=CARTESIAN_POINT('Origin',(-59.8179306876184,59.9999999999993,-8.64899999999974));
#1500=CARTESIAN_POINT('',(-55.8179306876173,59.9999999999993,-8.64899999999974));
#1501=CARTESIAN_POINT('',(-55.8179306876174,53.,-8.64899999999974));
#1502=CARTESIAN_POINT('',(-55.8179306876173,59.9999999999997,-8.64899999999974));
#1503=CARTESIAN_POINT('',(-59.8179306876184,59.9999999999993,-8.64899999999974));
#1504=CARTESIAN_POINT('',(-14.8089656790854,60.,-8.64899999999975));
#1505=CARTESIAN_POINT('',(-59.8179306876184,53.0000000000001,-8.64899999999974));
#1506=CARTESIAN_POINT('',(-59.8179306876184,59.9999999999993,-8.64899999999974));
#1507=CARTESIAN_POINT('',(2.99999999999947,53.,-8.64899999999975));
#1508=CARTESIAN_POINT('Origin',(-59.8179306876185,59.9999999999993,-7.64899999999975));
#1509=CARTESIAN_POINT('',(-60.8179306876184,53.0000000000001,-7.64899999999975));
#1510=CARTESIAN_POINT('Origin',(-59.8179306876184,52.9999999999992,-7.64899999999975));
#1511=CARTESIAN_POINT('',(-60.8179306876184,59.9999999999993,-7.64899999999975));
#1512=CARTESIAN_POINT('Origin',(-59.8179306876185,59.9999999999995,-7.64899999999975));
#1513=CARTESIAN_POINT('',(-60.8179306876184,59.9999999999993,-7.64899999999975));
#1514=CARTESIAN_POINT('Origin',(-60.8179306876184,59.9999999999993,-4.64899999999974));
#1515=CARTESIAN_POINT('',(-60.8179306876184,53.0000000000001,-4.64899999999974));
#1516=CARTESIAN_POINT('',(-60.8179306876184,53.0000000000001,-2.32449999999986));
#1517=CARTESIAN_POINT('',(-60.8179306876184,59.9999999999993,-4.64899999999974));
#1518=CARTESIAN_POINT('',(-60.8179306876184,60.,-2.32449999999986));
#1519=CARTESIAN_POINT('',(-60.8179306876184,59.9999999999993,-4.64899999999974));
#1520=CARTESIAN_POINT('Origin',(-59.8179306876184,59.9999999999993,-4.64899999999974));
#1521=CARTESIAN_POINT('Origin',(-59.8179306876184,52.9999999999992,-4.64899999999974));
#1522=CARTESIAN_POINT('Origin',(-59.8179306876184,59.9999999999995,-4.64899999999974));
#1523=CARTESIAN_POINT('Origin',(30.1999993294477,60.,0.));
#1524=CARTESIAN_POINT('',(-55.8179306876173,60.,-11.149));
#1525=CARTESIAN_POINT('',(-55.8179306876173,60.,-4.0745));
#1526=CARTESIAN_POINT('',(-62.3179306876174,60.,-11.149));
#1527=CARTESIAN_POINT('',(-9.05896567908481,60.,-11.149));
#1528=CARTESIAN_POINT('',(-63.3179306876174,60.,-12.149));
#1529=CARTESIAN_POINT('Origin',(-62.3179306876174,60.,-12.149));
#1530=CARTESIAN_POINT('',(-63.3179306876174,60.,-34.149));
#1531=CARTESIAN_POINT('',(-63.3179306876174,60.,-5.5745));
#1532=CARTESIAN_POINT('',(-62.3179306876174,60.,-35.149));
#1533=CARTESIAN_POINT('Origin',(-62.3179306876174,59.9999999999999,-34.149));
#1534=CARTESIAN_POINT('',(-55.8179306876173,60.,-35.149));
#1535=CARTESIAN_POINT('',(-16.5589656790848,60.,-35.149));
#1536=CARTESIAN_POINT('',(-55.8179306876173,60.,-45.149));
#1537=CARTESIAN_POINT('',(-55.8179306876173,60.,-4.0745));
#1538=CARTESIAN_POINT('',(-77.9422863405995,60.,-45.149));
#1539=CARTESIAN_POINT('',(77.9422863405995,60.,-45.149));
#1540=CARTESIAN_POINT('',(-77.9422863405995,60.,-1.149));
#1541=CARTESIAN_POINT('',(-77.9422863405995,60.,0.));
#1542=CARTESIAN_POINT('',(-55.8179306876173,60.,-1.149));
#1543=CARTESIAN_POINT('',(45.8855710822357,60.,-1.149));
#1544=CARTESIAN_POINT('',(-55.8179306876173,60.,-4.0745));
#1545=CARTESIAN_POINT('Origin',(-55.8179306876173,60.,-8.149));
#1546=CARTESIAN_POINT('',(-55.8179306876174,53.,-11.149));
#1547=CARTESIAN_POINT('',(-55.8179306876174,53.,-4.0745));
#1548=CARTESIAN_POINT('',(-55.8179306876174,55.5,-11.149));
#1549=CARTESIAN_POINT('',(-55.8179306876173,58.75,-11.149));
#1550=CARTESIAN_POINT('',(-55.8179306876174,55.5,-35.149));
#1551=CARTESIAN_POINT('',(-55.8179306876174,55.5,-15.649));
#1552=CARTESIAN_POINT('',(-55.8179306876174,53.,-35.149));
#1553=CARTESIAN_POINT('',(-55.8179306876173,58.75,-35.149));
#1554=CARTESIAN_POINT('',(-55.8179306876174,53.,-45.149));
#1555=CARTESIAN_POINT('',(-55.8179306876174,53.,-4.0745));
#1556=CARTESIAN_POINT('',(-55.8179306876174,44.0533629969855,-45.149));
#1557=CARTESIAN_POINT('',(-55.8179306876173,57.5,-35.149));
#1558=CARTESIAN_POINT('',(-55.8179306876173,60.,-35.149));
#1559=CARTESIAN_POINT('',(-55.8179306876173,57.5,-11.149));
#1560=CARTESIAN_POINT('',(-55.8179306876173,57.5,-15.649));
#1561=CARTESIAN_POINT('',(-55.8179306876173,60.,-11.149));
#1562=CARTESIAN_POINT('Origin',(-55.8179306876173,60.,-8.149));
#1563=CARTESIAN_POINT('',(-55.8179306876174,53.0000000000001,-1.149));
#1564=CARTESIAN_POINT('',(-55.8179306876174,39.708154241552,-1.149));
#1565=CARTESIAN_POINT('',(-55.8179306876174,53.,-4.0745));
#1566=CARTESIAN_POINT('Origin',(-26.0525588832348,-74.8756443470551,-7.64899999995551));
#1567=CARTESIAN_POINT('',(-26.5525588832358,-74.0096189432712,-7.64899999995551));
#1568=CARTESIAN_POINT('',(-26.0525588832358,-74.8756443470557,-8.64899999995551));
#1569=CARTESIAN_POINT('Origin',(-26.0525588832357,-74.8756443470556,-7.64899999995551));
#1570=CARTESIAN_POINT('',(-19.9903810567447,-71.3756443470557,-8.64899999995551));
#1571=CARTESIAN_POINT('',(-26.0525588832348,-74.8756443470551,-8.64899999995551));
#1572=CARTESIAN_POINT('',(-20.4903810567447,-70.5096189432713,-7.64899999995551));
#1573=CARTESIAN_POINT('Origin',(-19.990381056745,-71.3756443470559,-7.64899999995551));
#1574=CARTESIAN_POINT('',(-26.5525588832348,-74.0096189432707,-7.64899999995551));
#1575=CARTESIAN_POINT('Origin',(-21.5525588832349,-82.6698729811151,-8.64899999995551));
#1576=CARTESIAN_POINT('',(-24.0525588832576,-78.3397459621556,-8.64899999995551));
#1577=CARTESIAN_POINT('',(-17.2714699700012,-90.0849364905578,-8.64899999995551));
#1578=CARTESIAN_POINT('',(-17.9903810567666,-74.8397459621556,-8.64899999995551));
#1579=CARTESIAN_POINT('',(-22.5370144266344,-77.4647459621554,-8.64899999995551));
#1580=CARTESIAN_POINT('',(-28.1448889806003,-57.2516223122148,-8.64899999995551));
#1581=CARTESIAN_POINT('Origin',(-26.0525588832348,-74.8756443470551,-4.64899999999975));
#1582=CARTESIAN_POINT('',(-26.0525588832358,-74.8756443470557,-3.64899999999975));
#1583=CARTESIAN_POINT('',(-26.5525588832358,-74.0096189432712,-4.64899999999974));
#1584=CARTESIAN_POINT('Origin',(-26.0525588832357,-74.8756443470556,-4.64899999999975));
#1585=CARTESIAN_POINT('',(-20.4903810567447,-70.5096189432713,-4.64899999999974));
#1586=CARTESIAN_POINT('',(-26.5525588832348,-74.0096189432707,-4.64899999999974));
#1587=CARTESIAN_POINT('',(-19.9903810567447,-71.3756443470557,-3.64899999999975));
#1588=CARTESIAN_POINT('Origin',(-19.990381056745,-71.3756443470559,-4.64899999999975));
#1589=CARTESIAN_POINT('',(-26.0525588832348,-74.8756443470551,-3.64899999999975));
#1590=CARTESIAN_POINT('Origin',(-26.5525588832348,-74.0096189432707,-8.64899999995551));
#1591=CARTESIAN_POINT('',(-20.4903810567447,-70.5096189432713,-4.32449999997779));
#1592=CARTESIAN_POINT('',(-26.5525588832358,-74.0096189432712,-4.32449999997773));
#1593=CARTESIAN_POINT('Origin',(-26.5525588832348,-74.0096189432707,-3.64899999999975));
#1594=CARTESIAN_POINT('',(-17.9903810567666,-74.8397459621556,-3.64899999999975));
#1595=CARTESIAN_POINT('',(-30.6448889806003,-52.9214952932927,-3.64899999999975));
#1596=CARTESIAN_POINT('',(-24.0525588832576,-78.3397459621556,-3.64899999999975));
#1597=CARTESIAN_POINT('',(-22.5370144266344,-77.4647459621553,-3.64899999999975));
#1598=CARTESIAN_POINT('',(-19.7714699700012,-85.7548094716356,-3.64899999999975));
#1599=CARTESIAN_POINT('Origin',(-40.7993969044559,-35.3333716433141,0.));
#1600=CARTESIAN_POINT('',(-17.9903810567666,-74.8397459621556,-11.149));
#1601=CARTESIAN_POINT('',(-17.9903810567666,-74.8397459621556,-4.0745));
#1602=CARTESIAN_POINT('',(-21.2403810567666,-69.2105808375568,-11.149));
#1603=CARTESIAN_POINT('',(-29.3948889806112,-55.0865588027348,-11.149));
#1604=CARTESIAN_POINT('',(-21.7403810567666,-68.3445554337724,-12.149));
#1605=CARTESIAN_POINT('Origin',(-21.2403810567666,-69.2105808375568,-12.149));
#1606=CARTESIAN_POINT('',(-21.7403810567666,-68.3445554337724,-34.149));
#1607=CARTESIAN_POINT('',(-21.7403810567666,-68.3445554337724,-17.5745));
#1608=CARTESIAN_POINT('',(-21.2403810567666,-69.2105808375568,-35.149));
#1609=CARTESIAN_POINT('Origin',(-21.2403810567666,-69.2105808375568,-34.149));
#1610=CARTESIAN_POINT('',(-17.9903810567666,-74.8397459621556,-35.149));
#1611=CARTESIAN_POINT('',(-27.5198889806112,-58.3341540669265,-35.149));
#1612=CARTESIAN_POINT('',(-17.9903810567666,-74.8397459621557,-45.149));
#1613=CARTESIAN_POINT('',(-17.9903810567666,-74.8397459621556,-4.0745));
#1614=CARTESIAN_POINT('',(-78.8083117443839,30.5,-45.149));
#1615=CARTESIAN_POINT('',(-78.8083117443839,30.5,-45.149));
#1616=CARTESIAN_POINT('',(-78.8083117443839,30.5,-1.149));
#1617=CARTESIAN_POINT('',(-78.8083117443839,30.5,0.));
#1618=CARTESIAN_POINT('',(-17.9903810567666,-74.8397459621556,-1.149));
#1619=CARTESIAN_POINT('',(-28.7833457268918,-56.1457827892029,-1.149));
#1620=CARTESIAN_POINT('',(-17.9903810567666,-74.8397459621556,-4.0745));
#1621=CARTESIAN_POINT('',(-41.1247950919394,-34.7697654499017,-12.9485270010291));
#1622=CARTESIAN_POINT('',(-60.6738963905037,-0.909728758477641,-12.9485270010291));
#1623=CARTESIAN_POINT('',(-50.9866466474798,-17.6885374990036,-12.9485270010291));
#1624=CARTESIAN_POINT('',(-61.1738963905037,-0.0437033546932036,-13.9485270010291));
#1625=CARTESIAN_POINT('Origin',(-60.6738963905037,-0.909728758477646,-13.9485270010291));
#1626=CARTESIAN_POINT('',(-61.1738963905037,-0.0437033546932036,-32.3485270010291));
#1627=CARTESIAN_POINT('',(-61.1738963905037,-0.0437033546932036,-16.6742635005146));
#1628=CARTESIAN_POINT('',(-60.6738963905037,-0.909728758477648,-33.3485270010291));
#1629=CARTESIAN_POINT('Origin',(-60.6738963905037,-0.909728758477646,-32.3485270010291));
#1630=CARTESIAN_POINT('',(-41.1247950919394,-34.7697654499017,-33.3485270010291));
#1631=CARTESIAN_POINT('',(-40.7120959981977,-35.4845812485001,-33.3485270010291));
#1632=CARTESIAN_POINT('',(-40.6247950919394,-35.6357908536861,-32.3485270010291));
#1633=CARTESIAN_POINT('Origin',(-41.1247950919394,-34.7697654499017,-32.3485270010291));
#1634=CARTESIAN_POINT('',(-40.6247950919394,-35.6357908536861,-13.9485270010291));
#1635=CARTESIAN_POINT('',(-40.6247950919394,-35.6357908536861,-6.47426350051453));
#1636=CARTESIAN_POINT('Origin',(-41.1247950919394,-34.7697654499017,-13.9485270010291));
#1637=CARTESIAN_POINT('Origin',(-21.0214699700121,-76.5897459621556,-8.149));
#1638=CARTESIAN_POINT('',(-24.0525588832576,-78.3397459621556,-11.149));
#1639=CARTESIAN_POINT('',(-24.0525588832576,-78.3397459621556,-4.0745));
#1640=CARTESIAN_POINT('',(-21.8874953737965,-77.0897459621556,-11.149));
#1641=CARTESIAN_POINT('',(-22.5370144266349,-77.4647459621556,-11.149));
#1642=CARTESIAN_POINT('',(-21.8874953737966,-77.0897459621556,-35.149));
#1643=CARTESIAN_POINT('',(-21.8874953737966,-77.0897459621556,-15.649));
#1644=CARTESIAN_POINT('',(-24.0525588832577,-78.3397459621556,-35.149));
#1645=CARTESIAN_POINT('',(-22.5370144266349,-77.4647459621556,-35.149));
#1646=CARTESIAN_POINT('',(-24.0525588832576,-78.3397459621557,-45.149));
#1647=CARTESIAN_POINT('',(-24.0525588832576,-78.3397459621556,-4.0745));
#1648=CARTESIAN_POINT('',(-9.81014627805779,-70.1168852106338,-45.149));
#1649=CARTESIAN_POINT('',(-20.1554445662277,-76.0897459621557,-35.149));
#1650=CARTESIAN_POINT('',(-21.4544826719044,-76.8397459621556,-35.149));
#1651=CARTESIAN_POINT('',(-20.1554445662276,-76.0897459621556,-11.149));
#1652=CARTESIAN_POINT('',(-20.1554445662276,-76.0897459621556,-15.649));
#1653=CARTESIAN_POINT('',(-21.4544826719043,-76.8397459621556,-11.149));
#1654=CARTESIAN_POINT('Origin',(-66.7360742169948,-4.40972875847763,-13.9485270010291));
#1655=CARTESIAN_POINT('',(-66.7360742169948,-4.40972875847764,-12.9485270010291));
#1656=CARTESIAN_POINT('',(-67.2360742169948,-3.54370335469319,-13.9485270010291));
#1657=CARTESIAN_POINT('Origin',(-66.7360742169948,-4.40972875847765,-13.9485270010291));
#1658=CARTESIAN_POINT('',(-67.2360742169948,-3.5437033546932,-13.9485270010291));
#1659=CARTESIAN_POINT('',(-66.7360742169948,-4.40972875847763,-12.9485270010291));
#1660=CARTESIAN_POINT('Origin',(-67.2360742169948,-3.5437033546932,-33.3485270010291));
#1661=CARTESIAN_POINT('',(-67.2360742169948,-3.54370335469319,-32.3485270010291));
#1662=CARTESIAN_POINT('',(-67.2360742169948,-3.54370335469319,-16.6742635005146));
#1663=CARTESIAN_POINT('',(-67.2360742169948,-3.5437033546932,-32.3485270010291));
#1664=CARTESIAN_POINT('Origin',(-66.7360742169948,-4.40972875847763,-32.3485270010291));
#1665=CARTESIAN_POINT('',(-66.7360742169948,-4.40972875847765,-33.3485270010291));
#1666=CARTESIAN_POINT('Origin',(-66.7360742169948,-4.40972875847765,-32.3485270010291));
#1667=CARTESIAN_POINT('',(-66.7360742169948,-4.40972875847763,-33.3485270010291));
#1668=CARTESIAN_POINT('Origin',(-46.6869729184305,-39.1357908536861,-33.3485270010291));
#1669=CARTESIAN_POINT('',(-47.1869729184305,-38.2697654499017,-33.3485270010291));
#1670=CARTESIAN_POINT('',(-29.8386769875985,-68.3178954268431,-33.3485270010291));
#1671=CARTESIAN_POINT('',(-47.1869729184305,-38.2697654499017,-33.3485270010291));
#1672=CARTESIAN_POINT('Origin',(-47.1869729184305,-38.2697654499017,-32.3485270010291));
#1673=CARTESIAN_POINT('',(-46.6869729184305,-39.1357908536861,-32.3485270010291));
#1674=CARTESIAN_POINT('Origin',(-47.1869729184305,-38.2697654499017,-32.3485270010291));
#1675=CARTESIAN_POINT('',(-46.6869729184305,-39.1357908536861,-32.3485270010291));
#1676=CARTESIAN_POINT('Origin',(-46.6869729184305,-39.1357908536861,-12.9485270010291));
#1677=CARTESIAN_POINT('',(-46.6869729184305,-39.1357908536861,-13.9485270010291));
#1678=CARTESIAN_POINT('',(-46.6869729184305,-39.1357908536861,-6.47426350051453));
#1679=CARTESIAN_POINT('',(-46.6869729184305,-39.1357908536861,-13.9485270010291));
#1680=CARTESIAN_POINT('Origin',(-47.1869729184305,-38.2697654499017,-13.9485270010291));
#1681=CARTESIAN_POINT('',(-47.1869729184305,-38.2697654499017,-12.9485270010291));
#1682=CARTESIAN_POINT('Origin',(-47.1869729184305,-38.2697654499017,-13.9485270010291));
#1683=CARTESIAN_POINT('',(-47.1869729184305,-38.2697654499017,-12.9485270010291));
#1684=CARTESIAN_POINT('Origin',(-67.2360742169948,-3.5437033546932,-12.9485270010291));
#1685=CARTESIAN_POINT('',(-40.1132276368807,-50.5218516773466,-12.9485270010291));
#1686=CARTESIAN_POINT('Origin',(-25.1374953737965,-71.4605808375568,-34.149));
#1687=CARTESIAN_POINT('',(-23.4054445662277,-70.4605808375568,-35.149));
#1688=CARTESIAN_POINT('',(-23.9054445662277,-69.5945554337724,-34.149));
#1689=CARTESIAN_POINT('Origin',(-23.4054445662277,-70.4605808375568,-34.149));
#1690=CARTESIAN_POINT('',(-25.1374953737965,-71.4605808375568,-35.149));
#1691=CARTESIAN_POINT('',(-25.6374953737965,-70.5945554337724,-34.149));
#1692=CARTESIAN_POINT('Origin',(-25.6374953737965,-70.5945554337724,-35.149));
#1693=CARTESIAN_POINT('',(-23.9054445662277,-69.5945554337724,-12.149));
#1694=CARTESIAN_POINT('',(-25.6374953737965,-70.5945554337724,-12.149));
#1695=CARTESIAN_POINT('',(-23.9054445662277,-69.5945554337724,-29.149));
#1696=CARTESIAN_POINT('Origin',(-25.1374953737965,-71.4605808375568,-12.149));
#1697=CARTESIAN_POINT('',(-23.4054445662276,-70.4605808375568,-11.149));
#1698=CARTESIAN_POINT('Origin',(-23.4054445662276,-70.4605808375568,-12.149));
#1699=CARTESIAN_POINT('',(-25.1374953737965,-71.4605808375568,-11.149));
#1700=CARTESIAN_POINT('Origin',(-21.8874953737965,-77.0897459621556,-11.149));
#1701=CARTESIAN_POINT('',(-20.1554445662276,-76.0897459621556,-11.149));
#1702=CARTESIAN_POINT('Origin',(-27.3025588832576,-72.7105808375568,-12.149));
#1703=CARTESIAN_POINT('',(-25.1374953737966,-71.4605808375568,-11.149));
#1704=CARTESIAN_POINT('',(-25.6374953737965,-70.5945554337724,-12.149));
#1705=CARTESIAN_POINT('Origin',(-25.1374953737966,-71.4605808375568,-12.149));
#1706=CARTESIAN_POINT('',(-27.3025588832576,-72.7105808375568,-11.149));
#1707=CARTESIAN_POINT('',(-27.3025588832576,-72.7105808375568,-11.149));
#1708=CARTESIAN_POINT('',(-27.8025588832576,-71.8445554337724,-12.149));
#1709=CARTESIAN_POINT('Origin',(-27.3025588832576,-72.7105808375568,-12.149));
#1710=CARTESIAN_POINT('',(-27.8025588832576,-71.8445554337724,-12.149));
#1711=CARTESIAN_POINT('Origin',(-27.8025588832576,-71.8445554337724,-11.149));
#1712=CARTESIAN_POINT('',(-18.1374953737965,-83.584936490539,-11.149));
#1713=CARTESIAN_POINT('',(-20.3964699700121,-84.6722777168862,-11.149));
#1714=CARTESIAN_POINT('Origin',(-27.3025588832576,-72.7105808375568,-34.149));
#1715=CARTESIAN_POINT('',(-25.6374953737965,-70.5945554337724,-34.149));
#1716=CARTESIAN_POINT('',(-25.1374953737965,-71.4605808375568,-35.149));
#1717=CARTESIAN_POINT('Origin',(-25.1374953737966,-71.4605808375568,-34.149));
#1718=CARTESIAN_POINT('',(-27.8025588832576,-71.8445554337724,-34.149));
#1719=CARTESIAN_POINT('',(-27.8025588832576,-71.8445554337724,-34.149));
#1720=CARTESIAN_POINT('',(-27.3025588832576,-72.7105808375568,-35.149));
#1721=CARTESIAN_POINT('Origin',(-27.3025588832577,-72.7105808375568,-34.149));
#1722=CARTESIAN_POINT('',(-27.3025588832576,-72.7105808375568,-35.149));
#1723=CARTESIAN_POINT('Origin',(-21.8874953737966,-77.0897459621557,-23.149));
#1724=CARTESIAN_POINT('',(-25.6374953737965,-70.5945554337724,-11.149));
#1725=CARTESIAN_POINT('',(-25.6374953737965,-70.5945554337724,-35.149));
#1726=CARTESIAN_POINT('Origin',(-20.3025588832577,-84.834936490539,-35.149));
#1727=CARTESIAN_POINT('',(-16.6464699700121,-91.1674682452695,-35.149));
#1728=CARTESIAN_POINT('Origin',(-62.3179306876174,57.5,-34.149));
#1729=CARTESIAN_POINT('',(-63.3179306876174,55.5,-34.149));
#1730=CARTESIAN_POINT('',(-62.3179306876174,55.5,-35.149));
#1731=CARTESIAN_POINT('Origin',(-62.3179306876174,55.5,-34.149));
#1732=CARTESIAN_POINT('',(-63.3179306876174,53.0000000000001,-34.149));
#1733=CARTESIAN_POINT('',(-63.3179306876174,57.5,-34.149));
#1734=CARTESIAN_POINT('',(-62.3179306876174,53.0000000000001,-35.149));
#1735=CARTESIAN_POINT('Origin',(-62.3179306876174,52.9999999999999,-34.149));
#1736=CARTESIAN_POINT('',(-62.3179306876174,57.5,-35.149));
#1737=CARTESIAN_POINT('Origin',(-63.3179306876174,57.5,-35.149));
#1738=CARTESIAN_POINT('',(1.25000000000001,53.,-35.149));
#1739=CARTESIAN_POINT('',(-55.8179306876174,55.5,-35.149));
#1740=CARTESIAN_POINT('Origin',(-62.3179306876174,57.5,-12.149));
#1741=CARTESIAN_POINT('',(-62.3179306876174,55.5,-11.149));
#1742=CARTESIAN_POINT('',(-63.3179306876174,55.5,-12.149));
#1743=CARTESIAN_POINT('Origin',(-62.3179306876174,55.5,-12.149));
#1744=CARTESIAN_POINT('',(-62.3179306876174,53.0000000000001,-11.149));
#1745=CARTESIAN_POINT('',(-62.3179306876174,57.5,-11.149));
#1746=CARTESIAN_POINT('',(-63.3179306876174,53.0000000000001,-12.149));
#1747=CARTESIAN_POINT('Origin',(-62.3179306876174,53.,-12.149));
#1748=CARTESIAN_POINT('',(-63.3179306876174,57.5,-12.149));
#1749=CARTESIAN_POINT('Origin',(-63.3179306876174,57.5,-11.149));
#1750=CARTESIAN_POINT('',(-63.3179306876174,55.5,-17.149));
#1751=CARTESIAN_POINT('',(-63.3179306876174,53.0000000000001,-5.5745));
#1752=CARTESIAN_POINT('Origin',(-62.3179306876174,60.,-34.149));
#1753=CARTESIAN_POINT('',(-62.3179306876174,57.5,-35.149));
#1754=CARTESIAN_POINT('',(-63.3179306876174,57.5,-34.149));
#1755=CARTESIAN_POINT('Origin',(-62.3179306876174,57.5,-34.149));
#1756=CARTESIAN_POINT('',(-62.3179306876174,60.,-35.149));
#1757=CARTESIAN_POINT('',(-63.3179306876174,60.,-34.149));
#1758=CARTESIAN_POINT('Origin',(-55.8179306876174,57.5,-23.149));
#1759=CARTESIAN_POINT('',(-63.3179306876174,57.5,-12.149));
#1760=CARTESIAN_POINT('',(-63.3179306876174,57.5,-35.149));
#1761=CARTESIAN_POINT('',(-62.3179306876174,57.5,-11.149));
#1762=CARTESIAN_POINT('Origin',(-62.3179306876174,57.5,-12.149));
#1763=CARTESIAN_POINT('',(-63.3179306876174,57.5,-11.149));
#1764=CARTESIAN_POINT('',(-48.3179306876174,57.5,-35.149));
#1765=CARTESIAN_POINT('Origin',(-63.3179306876174,60.,-11.149));
#1766=CARTESIAN_POINT('',(-63.3179306876174,60.,-12.149));
#1767=CARTESIAN_POINT('Origin',(-62.3179306876174,60.,-12.149));
#1768=CARTESIAN_POINT('',(-62.3179306876174,60.,-11.149));
#1769=CARTESIAN_POINT('Origin',(-55.8179306876173,57.5,-11.149));
#1770=CARTESIAN_POINT('',(-55.8179306876174,55.5,-11.149));
#1771=CARTESIAN_POINT('',(5.00000000000002,53.,-11.149));
#1772=CARTESIAN_POINT('Origin',(-55.8179306876174,55.5,-23.149));
#1773=CARTESIAN_POINT('Origin',(65.8179306876174,53.,0.));
#1774=CARTESIAN_POINT('',(-65.8179306876173,53.0000000000001,-1.149));
#1775=CARTESIAN_POINT('',(-30.8855714175118,53.,-1.149));
#1776=CARTESIAN_POINT('',(-65.8179306876173,53.0000000000001,-45.149));
#1777=CARTESIAN_POINT('',(-65.8179306876173,53.0000000000001,0.));
#1778=CARTESIAN_POINT('',(65.8179306876174,53.,-45.149));
#1779=CARTESIAN_POINT('Origin',(-63.3179306876174,60.,-35.149));
#1780=CARTESIAN_POINT('Origin',(-48.3179306876174,60.,-11.149));
#1781=CARTESIAN_POINT('Origin',(-18.1374953737965,-83.584936490539,-35.149));
#1782=CARTESIAN_POINT('',(-20.1554445662277,-76.0897459621557,-35.149));
#1783=CARTESIAN_POINT('Origin',(-20.1554445662276,-76.0897459621556,-23.149));
#1784=CARTESIAN_POINT('Origin',(-27.8025588832576,-71.8445554337724,-35.149));
#1785=CARTESIAN_POINT('',(-27.8025588832576,-71.8445554337724,-17.5745));
#1786=CARTESIAN_POINT('Origin',(-12.9903810567666,-97.5,0.));
#1787=CARTESIAN_POINT('',(-24.0525588832576,-78.3397459621557,-1.149));
#1788=CARTESIAN_POINT('',(-24.0525588832576,-78.3397459621556,-4.0745));
#1789=CARTESIAN_POINT('',(-90.9326673973661,37.5000000000001,-1.149));
#1790=CARTESIAN_POINT('',(-72.0603735721946,4.81222823943472,-1.149));
#1791=CARTESIAN_POINT('',(-90.9326673973661,37.5000000000001,-45.149));
#1792=CARTESIAN_POINT('',(-90.9326673973661,37.5000000000001,0.));
#1793=CARTESIAN_POINT('',(-90.9326673973661,37.5000000000001,-45.149));
#1794=CARTESIAN_POINT('Origin',(-51.571143058541,28.1067259939711,-45.149));
#1795=CARTESIAN_POINT('Origin',(-65.8179306876173,38.,-45.149));
#1796=CARTESIAN_POINT('Origin',(-77.9422863405995,45.0000000000001,-45.149));
#1797=CARTESIAN_POINT('Origin',(-21.0214699700121,-76.5897459621556,-8.149));
#1798=CARTESIAN_POINT('',(30.736680348553,-46.7071639429751,-1.149));
#1799=CARTESIAN_POINT('Origin',(61.5711428350236,19.4163084831039,-1.149));
#1800=CARTESIAN_POINT('Origin',(-77.9422863405995,45.0000000000001,-1.149));
#1801=CARTESIAN_POINT('Origin',(-65.8179306876173,38.,-1.149));
#1802=CARTESIAN_POINT('Origin',(-77.9422863405995,45.0000000000001,0.));
#1803=CARTESIAN_POINT('Origin',(-65.8179306876173,38.,0.));
#1804=UNCERTAINTY_MEASURE_WITH_UNIT(LENGTH_MEASURE(0.01),#1808,
'DISTANCE_ACCURACY_VALUE',
'Maximum model space distance between geometric entities at asserted c
onnectivities');
#1805=UNCERTAINTY_MEASURE_WITH_UNIT(LENGTH_MEASURE(0.01),#1808,
'DISTANCE_ACCURACY_VALUE',
'Maximum model space distance between geometric entities at asserted c
onnectivities');
#1806=(
GEOMETRIC_REPRESENTATION_CONTEXT(3)
GLOBAL_UNCERTAINTY_ASSIGNED_CONTEXT((#1804))
GLOBAL_UNIT_ASSIGNED_CONTEXT((#1808,#1810,#1811))
REPRESENTATION_CONTEXT('','3D')
);
#1807=(
GEOMETRIC_REPRESENTATION_CONTEXT(3)
GLOBAL_UNCERTAINTY_ASSIGNED_CONTEXT((#1805))
GLOBAL_UNIT_ASSIGNED_CONTEXT((#1808,#1810,#1811))
REPRESENTATION_CONTEXT('','3D')
);
#1808=(
LENGTH_UNIT()
NAMED_UNIT(*)
SI_UNIT(.MILLI.,.METRE.)
);
#1809=(
LENGTH_UNIT()
NAMED_UNIT(*)
SI_UNIT($,.METRE.)
);
#1810=(
NAMED_UNIT(*)
PLANE_ANGLE_UNIT()
SI_UNIT($,.RADIAN.)
);
#1811=(
NAMED_UNIT(*)
SI_UNIT($,.STERADIAN.)
SOLID_ANGLE_UNIT()
);
#1812=SHAPE_DEFINITION_REPRESENTATION(#1813,#1814);
#1813=PRODUCT_DEFINITION_SHAPE('',$,#1816);
#1814=SHAPE_REPRESENTATION('',(#1096),#1806);
#1815=PRODUCT_DEFINITION_CONTEXT('part definition',#1820,'design');
#1816=PRODUCT_DEFINITION('2026-06-20-16-36-38-986','FusionComponent',#1817,
#1815);
#1817=PRODUCT_DEFINITION_FORMATION('',$,#1822);
#1818=PRODUCT_RELATED_PRODUCT_CATEGORY('FusionComponent',
'FusionComponent',(#1822));
#1819=APPLICATION_PROTOCOL_DEFINITION('international standard',
'automotive_design',2009,#1820);
#1820=APPLICATION_CONTEXT(
'Core Data for Automotive Mechanical Design Process');
#1821=PRODUCT_CONTEXT('part definition',#1820,'mechanical');
#1822=PRODUCT('2026-06-20-16-36-38-986','FusionComponent',$,(#1821));
#1823=PRESENTATION_STYLE_ASSIGNMENT((#1824));
#1824=SURFACE_STYLE_USAGE(.BOTH.,#1825);
#1825=SURFACE_SIDE_STYLE('',(#1826));
#1826=SURFACE_STYLE_FILL_AREA(#1827);
#1827=FILL_AREA_STYLE('Steel - Satin',(#1828));
#1828=FILL_AREA_STYLE_COLOUR('Steel - Satin',#1829);
#1829=COLOUR_RGB('Steel - Satin',0.627450980392157,0.627450980392157,0.627450980392157);
ENDSEC;
END-ISO-10303-21;
